<?xml version="1.0" encoding="iso-8859-1"?>
<!-- Generator: Adobe Illustrator 22.0.1, SVG Export Plug-In . SVG Version: 6.00 Build 0)  -->
<svg version="1.1" id="Icons" xmlns="http://www.w3.org/2000/svg" xmlns:xlink="http://www.w3.org/1999/xlink" x="0px" y="0px"
	 viewBox="0 0 512 512" style="enable-background:new 0 0 512 512;" xml:space="preserve">
<g>
	<circle style="fill:#22BCE0;" cx="256" cy="256" r="256"/>
	<g>
		<g>
			<g>
				<path style="fill:#C17E62;" d="M353.21,384.93l-37.26,57.91c-7.02,10.92-19.12,17.52-32.1,17.52h-55.7
					c-12.98,0-25.08-6.6-32.1-17.52l-37.26-57.91c-11.95-18.57-16.31-41.03-12.18-62.72l8.28-43.46c1.61-8.45,4.48-16.62,8.5-24.22
					l24.34-45.93c12.05-22.74,35.68-36.96,61.41-36.96h13.72c25.73,0,49.36,14.22,61.41,36.96l24.34,45.93
					c4.02,7.6,6.89,15.77,8.5,24.22l8.28,43.46C369.52,343.9,365.16,366.36,353.21,384.93z"/>
				<path style="fill:#D48D77;" d="M353.21,384.93l-37.26,57.91c-7.02,10.92-19.12,17.52-32.1,17.52H256V171.64h6.86
					c25.73,0,49.36,14.22,61.41,36.96l24.34,45.93c4.02,7.6,6.89,15.77,8.5,24.22l8.28,43.46
					C369.52,343.9,365.16,366.36,353.21,384.93z"/>
			</g>
			<g>
				<g>
					<g>
						<path style="fill:#3E4E60;" d="M327.28,336.86c-2.75,1.79-5.96,2.95-9.45,3.25c-11.4,1-25.17-7.11-26.17-18.51
							c-0.68-7.87,5.2-11.79,12.66-13.8c3.34-0.89,7-1.4,10.53-1.71c11.4-0.99,20.82,0.17,21.81,11.57
							C337.35,325.57,333.51,332.83,327.28,336.86z"/>
						<path style="fill:#2E3140;" d="M327.28,336.86c-13.02-1.42-23.16-12.45-23.16-25.85c0-1.09,0.07-2.16,0.2-3.21
							c3.34-0.89,7-1.4,10.53-1.71c11.4-0.99,20.82,0.17,21.81,11.57C337.35,325.57,333.51,332.83,327.28,336.86z"/>
						<path style="fill:#FFFFFF;" d="M328.337,319.745c-0.271-3.095-2.999-5.384-6.094-5.114
							c-7.405,0.937-6.473,11.572,0.981,11.208C326.318,325.568,328.608,322.84,328.337,319.745z"/>
					</g>
					<g>
						<path style="fill:#3E4E60;" d="M220.34,321.6c-0.56,6.36-5.09,11.7-10.97,14.99c-4.66,2.62-10.16,3.96-15.2,3.52
							c-11.4-0.99-19.83-11.05-18.83-22.45c0.72-8.33,5.94-11.19,13.15-11.74c2.66-0.21,5.59-0.1,8.66,0.17
							C208.55,307.09,221.33,310.2,220.34,321.6z"/>
						<path style="fill:#2E3140;" d="M220.34,321.6c-0.56,6.36-5.09,11.7-10.97,14.99c-12.16-2.17-21.38-12.8-21.38-25.58
							c0-1.74,0.17-3.44,0.5-5.09c2.66-0.21,5.59-0.1,8.66,0.17C208.55,307.09,221.33,310.2,220.34,321.6z"/>
						<path style="fill:#FFFFFF;" d="M213.964,322.396c0.271-3.095-2.019-5.823-5.114-6.094c-7.455-0.363-8.384,10.272-0.98,11.208
							C210.964,327.78,213.693,325.491,213.964,322.396z"/>
					</g>
				</g>
				<g>
					<g>
						<path style="fill:#D48D77;" d="M295.53,357.11v64.66c0,21.31-17.28,52.44-38.59,52.44h-1.88c-21.31,0-38.59-31.13-38.59-52.44
							v-64.66c0-21.83,17.7-51.3,39.53-51.3c10.92,0,20.8,7.37,27.95,17.46C291.1,333.37,295.53,346.2,295.53,357.11z"/>
						<path style="fill:#EEA47D;" d="M295.53,357.11v64.66c0,21.31-17.28,52.44-38.59,52.44H256v-168.4
							c10.92,0,20.8,7.37,27.95,17.46C291.1,333.37,295.53,346.2,295.53,357.11z"/>
					</g>
					<g>
						<g>
							<path style="fill:#3E4E60;" d="M287.87,395.69c0,2.65-0.66,5.37-2.1,7.95c-3.95,7.06-11.41,11.44-19.5,11.44h-20.54
								c-4.05,0-7.93-1.1-11.3-3.07c-3.37-1.98-6.23-4.84-8.2-8.37c-6.09-10.89,1.78-24.31,14.26-24.31h31.02
								C281.03,379.33,287.87,387.14,287.87,395.69z"/>
							<path style="fill:#3F5D77;" d="M287.87,395.69c0,2.65-0.66,5.37-2.1,7.95c-3.95,7.06-11.41,11.44-19.5,11.44H256v-35.75
								h15.51C281.03,379.33,287.87,387.14,287.87,395.69z"/>
						</g>
						<path style="fill:#A26D5A;" d="M295.033,396.886c-2.598,0.249-4.507,2.585-4.508,5.196
							c-0.004,37.744-1.166,42.076-11.153,42.076c-8.339,0-11.644-0.979-14.56-1.842c-0.012-0.004-0.024-0.007-0.036-0.011
							c-2.238-0.662-3.777-2.714-3.777-5.048V412.25c0-2.611-1.909-4.944-4.508-5.192c-2.982-0.285-5.492,2.053-5.492,4.976v25.222
							c0,2.334-1.539,4.386-3.777,5.048c-0.012,0.004-0.024,0.007-0.036,0.011c-2.916,0.863-6.221,1.842-14.56,1.842
							c-9.987,0-11.148-4.331-11.153-42.076c0-2.61-1.909-4.947-4.508-5.196c-2.983-0.285-5.493,2.053-5.493,4.976
							c0,18.086,0,30.034,2.194,38.115c2.626,9.674,8.65,14.18,18.959,14.18c9.788,0,14.008-1.249,17.398-2.253
							c2.059-0.609,3.428-1.013,5.922-1.019c0.018,0,0.034,0.005,0.052,0.005s0.034-0.005,0.052-0.005
							c2.495,0.006,3.863,0.409,5.922,1.019c3.391,1.004,7.611,2.253,17.398,2.253c10.309,0,16.333-4.506,18.959-14.18
							c2.194-8.081,2.194-20.029,2.194-38.115C300.526,398.939,298.016,396.601,295.033,396.886z"/>
						<g>
							<g>
								<path style="fill:#151516;" d="M256,401.36v10.675c-0.187,0.247-0.385,0.481-0.596,0.702c-3.111,3.267-8.154,3.267-11.323,0
									l-2.613-2.689l-6.238-6.413c-3.294-3.396-3.5-8.97-0.399-12.454c1.566-1.759,3.664-2.642,5.794-2.642
									c2.13,0,4.269,0.883,5.916,2.642l8.851,9.452C255.608,400.869,255.81,401.111,256,401.36z"/>
								<path style="fill:#2E3140;" d="M276.77,403.635l-8.851,9.102c-3.169,3.267-8.212,3.267-11.323,0
									c-0.211-0.221-0.409-0.455-0.596-0.702V401.36c0.19-0.249,0.392-0.491,0.607-0.727l8.851-9.452
									c1.647-1.759,3.786-2.642,5.917-2.642s4.228,0.883,5.794,2.642C280.27,394.664,280.064,400.239,276.77,403.635z"/>
							</g>
						</g>
					</g>
				</g>
				<g>
					<path style="fill:#D48D77;" d="M301.16,291.28h-90.32c-8.57,0-14.99-7.86-13.27-16.26l3.12-15.28
						c2.35-11.52,6.7-22.54,12.84-32.56l9.35-15.25c7.06-11.52,19.6-18.55,33.12-18.55s26.06,7.03,33.12,18.55l9.35,15.25
						c6.14,10.02,10.49,21.04,12.84,32.56l3.12,15.28C316.15,283.42,309.73,291.28,301.16,291.28z"/>
					<path style="fill:#EEA47D;" d="M301.16,291.28H256v-97.9c13.52,0,26.06,7.03,33.12,18.55l9.35,15.25
						c6.14,10.02,10.49,21.04,12.84,32.56l3.12,15.28C316.15,283.42,309.73,291.28,301.16,291.28z"/>
				</g>
			</g>
		</g>
		<g>
			<path style="fill:#C17E62;" d="M424.43,91.9l-3.48,20.61L412,165.5c-1.26,7.42-4.05,14.5-8.19,20.79l-27.48,41.67l-23.55,35.7
				l-43.23-52.41l-16.211-19.659c-8.817-10.693-9.213-26.018-0.958-37.152l15.8-21.31c1.88-2.54,3.87-4.99,5.96-7.34
				c6.89-7.79,14.86-14.56,23.7-20.11l57.61-36.18c6.75-4.24,15.61-2.74,20.58,3.5l5.2,6.52C424.01,83,425.17,87.5,424.43,91.9z"/>
			<path style="fill:#A26D5A;" d="M424.43,91.9l-3.48,20.61L412,165.5c-1.26,7.42-4.05,14.5-8.19,20.79l-27.48,41.67
				c-34.84-16.16-60-55.5-62.19-102.17c6.89-7.79,14.86-14.56,23.7-20.11l57.61-36.18c6.75-4.24,15.61-2.74,20.58,3.5l5.2,6.52
				C424.01,83,425.17,87.5,424.43,91.9z"/>
			<path style="fill:#FFFFFF;" d="M420.95,112.51L412,165.5c-1.26,7.42-4.05,14.5-8.19,20.79l-51.03,77.37l-27.062-32.809
				c-10.19-12.354-14.038-28.752-10.406-44.348l9.354-40.175c2.375-10.199,8.522-19.12,17.206-24.971l52.09-35.094
				c4.616-3.11,10.901-1.655,13.681,3.167L420.95,112.51z"/>
			<path style="fill:#3F5D77;" d="M325.718,230.851l18.41-24.461c4.778-6.348,7.361-14.077,7.361-22.022v-25.706
				c0-11.318,4.496-22.173,12.5-30.177l17.193-17.193c3.308-3.308,8.965-0.965,8.965,3.713v92.001L352.78,263.66L325.718,230.851z"
				/>
		</g>
		<g>
			<path style="fill:#D48D77;" d="M87.571,91.9l3.48,20.61l8.95,52.99c1.26,7.42,4.05,14.5,8.19,20.79l27.48,41.67l23.55,35.7
				l43.23-52.41l16.211-19.659c8.817-10.693,9.213-26.018,0.958-37.152l-15.8-21.31c-1.88-2.54-3.87-4.99-5.96-7.34
				c-6.89-7.79-14.86-14.56-23.7-20.11l-57.61-36.18c-6.75-4.24-15.61-2.74-20.58,3.5l-5.2,6.52C87.991,83,86.831,87.5,87.571,91.9z
				"/>
			<path style="fill:#A26D5A;" d="M87.571,91.9l3.48,20.61l8.95,52.99c1.26,7.42,4.05,14.5,8.19,20.79l27.48,41.67
				c34.84-16.16,60-55.5,62.19-102.17c-6.89-7.79-14.86-14.56-23.7-20.11l-57.61-36.18c-6.75-4.24-15.61-2.74-20.58,3.5l-5.2,6.52
				C87.991,83,86.831,87.5,87.571,91.9z"/>
			<path style="fill:#C2AACF;" d="M91.051,112.51l8.95,52.99c1.26,7.42,4.05,14.5,8.19,20.79l51.03,77.37l27.062-32.809
				c10.19-12.354,14.038-28.752,10.406-44.348l-9.354-40.175c-2.374-10.199-8.522-19.12-17.206-24.971l-52.09-35.094
				c-4.616-3.11-10.901-1.655-13.681,3.167L91.051,112.51z"/>
			<path style="fill:#3E4E60;" d="M186.283,230.851l-18.41-24.461c-4.778-6.348-7.361-14.077-7.361-22.022v-25.706
				c0-11.318-4.496-22.173-12.5-30.177l-17.193-17.193c-3.308-3.308-8.965-0.965-8.965,3.713v92.001l37.366,56.653L186.283,230.851z
				"/>
		</g>
	</g>
</g>
</svg>
