<?xml version="1.0" encoding="iso-8859-1"?>
<!-- Generator: Adobe Illustrator 22.0.1, SVG Export Plug-In . SVG Version: 6.00 Build 0)  -->
<svg version="1.1" id="Icons" xmlns="http://www.w3.org/2000/svg" xmlns:xlink="http://www.w3.org/1999/xlink" x="0px" y="0px"
	 viewBox="0 0 512 512" style="enable-background:new 0 0 512 512;" xml:space="preserve">
<g>
	<circle style="fill:#53B976;" cx="256" cy="256" r="256"/>
	<g id="Cat">
		<g>
			<g>
				<path style="fill:#EA792E;" d="M403.024,219.828l0.023,0.009c0,0,13.368-41.083,13.368-81.179
					c0-22.153-9.798-41.505-18.568-54.388c-6.265-9.203-19.468-10.159-26.997-1.957l-83.911,91.417h-61.878L141.15,82.313
					c-7.528-8.202-20.732-7.246-26.997,1.957c-8.77,12.883-18.568,32.235-18.568,54.388c0,40.097,13.368,81.179,13.368,81.179
					l0.023-0.009c-2.439,4.633-4.494,9.526-6.086,14.662c-4.97,16.02-7.3,32.07-7.3,47.76c0,85.36,69.18,160.02,160.41,160.02
					c45.62,0,85.72-18.67,114.42-48c39.25-40.12,57.17-100.2,38.69-159.78C407.518,229.354,405.463,224.461,403.024,219.828z"/>
				<path style="fill:#DD5E26;" d="M225.061,173.73L141.15,82.313c-7.528-8.202-20.732-7.246-26.997,1.957
					c-8.77,12.883-18.568,32.235-18.568,54.388c0,40.097,13.368,81.179,13.368,81.179l0.023-0.009
					c-2.439,4.633-4.494,9.526-6.086,14.662c-4.97,16.02-7.3,32.07-7.3,47.76c0,85.36,69.18,160.02,160.41,160.02V173.73H225.061z"
					/>
			</g>
			<g>
				<path style="fill:#BF5E39;" d="M111.14,158.17c0,14.19,2.21,28.54,4.56,39.83c2.42,11.6,14.69,18.23,25.7,13.85l9.32-3.7
					l33.07-13.13c12.41-4.93,16.03-20.76,7-30.6l-30.45-33.17l-0.02-0.02l-14.56-15.87c-5.7-6.2-15.72-5.54-20.46,1.42
					C118.62,126.56,111.14,141.3,111.14,158.17z"/>
				<path style="fill:#EA792E;" d="M133.73,195.39l16.99,12.76l33.07-13.13c12.41-4.93,16.03-20.76,7-30.6l-30.45-33.17l-0.02-0.02
					l-16.38-3.49c-3.54-0.76-6.19,3.19-4.16,6.18l12.67,13.72c3.79,4.1,0.29,10.68-5.22,9.83l-12.01-1.85
					c-3.76,0-5.46,4.7-2.56,7.11l19.87,14.52c4.54,3.31,2.3,10.49-3.31,10.65l-14.02,0.38C131.9,189.07,131.01,193.35,133.73,195.39
					z"/>
			</g>
			<g>
				<path style="fill:#DD5E26;" d="M400.86,158.17c0,14.19-2.21,28.54-4.56,39.83c-2.42,11.6-14.69,18.23-25.7,13.85l-9.32-3.7
					l-33.07-13.13c-12.41-4.93-16.03-20.76-7-30.6l30.45-33.17l0.02-0.02l14.56-15.87c5.7-6.2,15.72-5.54,20.46,1.42
					C393.38,126.56,400.86,141.3,400.86,158.17z"/>
				<path style="fill:#F39E22;" d="M378.27,195.39l-16.99,12.76l-33.07-13.13c-12.41-4.93-16.03-20.76-7-30.6l30.45-33.17l0.02-0.02
					l16.38-3.49c3.54-0.76,6.19,3.19,4.16,6.18l-12.67,13.72c-3.79,4.1-0.29,10.68,5.22,9.83l12.01-1.85c3.76,0,5.46,4.7,2.56,7.11
					l-19.87,14.52c-4.54,3.31-2.3,10.49,3.31,10.65l14.02,0.38C380.1,189.07,380.99,193.35,378.27,195.39z"/>
			</g>
			<path style="fill:#F39E22;" d="M381.934,82.684l-4.019,2.946c-2.896,2.123-3.311,6.48-0.928,9.732l20.506,27.976
				c2.384,3.252,6.664,4.167,9.56,2.044v0c2.574-1.886,3.23-5.591,1.548-8.745l-16.488-30.922
				C390.004,81.759,385.163,80.317,381.934,82.684z"/>
			<path style="fill:#EA792E;" d="M130.066,82.684l4.019,2.946c2.896,2.123,3.311,6.48,0.928,9.732l-20.506,27.976
				c-2.384,3.252-6.664,4.167-9.56,2.044l0,0c-2.574-1.886-3.23-5.591-1.548-8.745l16.488-30.922
				C121.996,81.759,126.837,80.317,130.066,82.684z"/>
			<path style="fill:#F39E22;" d="M271.47,277.199L271.47,277.199c-8.544,0-15.47-6.926-15.47-15.47v-58.533
				c0-8.544,6.926-15.47,15.47-15.47h0c8.544,0,15.47,6.926,15.47,15.47v58.533C286.939,270.273,280.013,277.199,271.47,277.199z"/>
			<path style="fill:#EA792E;" d="M240.53,277.199L240.53,277.199c-8.544,0-15.47-6.926-15.47-15.47v-58.533
				c0-8.544,6.926-15.47,15.47-15.47h0c8.544,0,15.47,6.926,15.47,15.47v58.533C256,270.273,249.074,277.199,240.53,277.199z"/>
			<path style="fill:#DD5E26;" d="M331.263,233.234h-10.319c-8.591,0-15.556,6.965-15.556,15.556v13.833
				c0,8.591,6.965,15.556,15.556,15.556h10.319c8.591,0,15.556-6.965,15.556-15.556V248.79
				C346.819,240.199,339.854,233.234,331.263,233.234z"/>
			<path style="fill:#BF5E39;" d="M191.056,233.234h-10.319c-8.591,0-15.556,6.965-15.556,15.556v13.833
				c0,8.591,6.965,15.556,15.556,15.556h10.319c8.591,0,15.556-6.965,15.556-15.556V248.79
				C206.612,240.199,199.647,233.234,191.056,233.234z"/>
		</g>
		<g>
			<g>
				<g>
					<path style="fill:#FBCB74;" d="M362.562,308c0-13.844-25.828-25.067-39.672-25.067S297.823,294.156,297.823,308
						s11.223,25.067,25.067,25.067S362.562,321.844,362.562,308z"/>
				</g>
				<g>
					<path style="fill:#3F5D77;" d="M335.534,296.92v22.16c0,2.6-1.06,4.96-2.76,6.67c-5.778,5.89-16.163,1.689-16.1-6.67
						c0,0,0-22.16,0-22.16C317.131,284.466,335.03,284.368,335.534,296.92z"/>
				</g>
				<g>
					<path style="fill:#2E3140;" d="M335.534,296.92v22.16c-0.005,2.654-1.096,5.069-2.88,6.78c-4.26-0.91-7.45-4.69-7.45-9.22
						v-22.16c0-2.66,1.11-5.07,2.89-6.78C332.344,288.61,335.534,292.39,335.534,296.92z"/>
				</g>
				<g>
					<path style="fill:#FFFFFF;" d="M348.069,301.699c0-4.936-4.002-8.938-8.938-8.938c-11.851,0.458-11.848,17.421,0,17.877
						C344.067,310.638,348.069,306.636,348.069,301.699z"/>
				</g>
			</g>
			<g>
				<g>
					<path style="fill:#FBCB74;" d="M149.438,308c0-13.844,25.828-25.067,39.672-25.067c13.844,0,25.067,11.223,25.067,25.067
						s-11.223,25.067-25.067,25.067C175.267,333.067,149.438,321.844,149.438,308z"/>
				</g>
				<g>
					<path style="fill:#3F5D77;" d="M195.326,296.92v22.16c0,2.6-1.06,4.96-2.76,6.67c-5.778,5.89-16.163,1.689-16.1-6.67
						c0,0,0-22.16,0-22.16C176.924,284.466,194.823,284.368,195.326,296.92z"/>
				</g>
				<g>
					<path style="fill:#2E3140;" d="M195.326,296.92v22.16c-0.005,2.654-1.096,5.069-2.88,6.78c-4.26-0.91-7.45-4.69-7.45-9.22
						v-22.16c0-2.66,1.11-5.07,2.89-6.78C192.136,288.61,195.326,292.39,195.326,296.92z"/>
				</g>
				<g>
					<path style="fill:#FFFFFF;" d="M189.067,301.699c0-4.936,4.002-8.938,8.938-8.938c11.851,0.458,11.848,17.421,0,17.877
						C193.069,310.638,189.067,306.636,189.067,301.699z"/>
				</g>
			</g>
		</g>
		<g>
			<g>
				<g>
					<path style="fill:#EA792E;" d="M326.05,382.31c0,11.5-2.77,22.35-7.68,31.92c-11.61,22.64-35.18,38.13-62.37,38.13
						c-38.69,0-70.05-31.36-70.05-70.05c0-23.19,11.26-43.74,28.62-56.48c11.6-8.53,25.93-13.57,41.43-13.57
						C294.69,312.26,326.05,343.62,326.05,382.31z"/>
				</g>
				<g>
					<path style="fill:#F39E22;" d="M326.05,382.31c0,11.5-2.77,22.35-7.68,31.92c-11.6,8.53-25.93,13.57-41.43,13.57
						c-38.69,0-70.05-31.36-70.05-70.05c0-11.5,2.77-22.35,7.68-31.92c11.6-8.53,25.93-13.57,41.43-13.57
						C294.69,312.26,326.05,343.62,326.05,382.31z"/>
				</g>
				<g>
					<path style="fill:#F9C744;" d="M268.486,369.707L268.486,369.707c-6.895,0-12.484-5.589-12.484-12.484v-28.355
						c0-6.895,5.589-12.484,12.484-12.484h0c6.895,0,12.484,5.589,12.484,12.484v28.355
						C280.97,364.118,275.381,369.707,268.486,369.707z"/>
				</g>
				<g>
					<ellipse style="fill:#F39E22;" cx="256" cy="426.16" rx="32.371" ry="19.748"/>
				</g>
				<g>
					<circle style="fill:#F9C744;" cx="297.717" cy="390.56" r="17.295"/>
				</g>
				<g>
					<circle style="fill:#F9C744;" cx="214.283" cy="390.56" r="17.295"/>
				</g>
			</g>
			<path style="fill:#BF5E39;" d="M331.171,377.31c-2.761,0-5,2.239-5,5c0,13.986-3.332,24.249-9.903,30.504
				c-7.297,6.946-16.165,6.595-16.508,6.578l-0.314-0.01c-8.989,0-13.171-3.754-18.467-8.508
				c-4.973-4.464-10.528-9.43-20.147-10.731v-5.771c1.342-0.533,2.602-1.279,3.717-2.242c2.878-2.487,4.529-6.094,4.529-9.896
				v-0.227c0-0.846,0.688-1.534,1.533-1.534h2.284c2.761,0,5-2.239,5-5v-10.451c0-2.761-2.239-5-5-5H239.11c-2.761,0-5,2.239-5,5
				v10.451c0,2.761,2.239,5,5,5h2.284c0.845,0,1.533,0.688,1.533,1.534c0,5.401,3.233,10.177,7.905,12.227v5.909
				c-9.619,1.301-15.174,6.267-20.147,10.731c-5.296,4.753-9.479,8.508-18.467,8.508L212,419.387
				c-0.375,0.011-9.128,0.249-16.35-6.713c-6.517-6.284-9.822-16.5-9.822-30.364c0-2.761-2.239-5-5-5s-5,2.239-5,5
				c0,16.798,4.391,29.491,13.051,37.726c9.884,9.398,21.815,9.394,23.424,9.347c12.761-0.026,19.295-5.891,25.061-11.066
				c5.296-4.753,9.479-8.508,18.467-8.508s13.171,3.754,18.467,8.508c5.761,5.172,12.29,11.031,25.033,11.066
				c0.153,0.006,0.385,0.012,0.687,0.012c3.146,0,13.912-0.667,22.977-9.179c8.743-8.209,13.175-20.962,13.175-37.905
				C336.171,379.549,333.933,377.31,331.171,377.31z"/>
			<g>
				<g>
					<path style="fill:#ED72AB;" d="M247.927,378.008L247.927,378.008c0,4.033,2.862,7.627,6.853,8.212
						c5.002,0.733,9.297-3.124,9.297-7.985v-0.227c0-3.608,2.925-6.534,6.534-6.534h2.284c4.46,0,8.075-3.615,8.075-8.075l0,0
						c0-4.46-3.615-8.075-8.075-8.075H239.11c-4.46,0-8.075,3.615-8.075,8.075l0,0c0,4.46,3.615,8.075,8.075,8.075h2.284
						C245.002,371.474,247.927,374.399,247.927,378.008z"/>
				</g>
				<g>
					<path style="fill:#F0A6B3;" d="M269.062,366.385h-19.038c-3.054,0-5.53-2.476-5.53-5.53l0,0c0-3.054,2.476-5.53,5.53-5.53
						h19.038c3.054,0,5.53,2.476,5.53,5.53l0,0C274.592,363.909,272.116,366.385,269.062,366.385z"/>
				</g>
			</g>
		</g>
		<g>
			<g>
				<path style="fill:#EBD9EA;" d="M391.78,418.34c-0.22-0.46-5.45-11.35-20.15-18.37c-7.08-3.38-14.99-5.3-23.71-5.76
					c-14.88-0.78-32.11,2.69-51.5,10.39c-1.79,0.72-2.67,2.75-1.96,4.55c0.72,1.79,2.75,2.67,4.55,1.96
					c18.92-7.52,35.92-10.78,50.2-9.72c7,0.52,13.35,2.08,18.95,4.68c12.66,5.88,17.25,15.16,17.28,15.24
					c0.6,1.27,1.86,2.02,3.17,2.02c0.5,0,1.01-0.11,1.49-0.33C391.85,422.17,392.6,420.09,391.78,418.34z M431.47,381.95
					c-0.49-0.39-12.26-9.79-34.99-13.75c-11.84-2.06-28.12-2.81-48.41,1.15c-15.13,2.94-32.49,8.5-51.9,18.07
					c-1.73,0.86-2.45,2.95-1.59,4.69c0.61,1.23,1.85,1.95,3.14,1.95c0.52,0,1.05-0.12,1.54-0.36c17.94-8.84,33.99-14.13,48.04-17.06
					c20.03-4.19,35.99-3.58,47.49-1.63c21.11,3.58,32.16,12.3,32.27,12.38c1.5,1.22,3.7,0.99,4.92-0.51
					C433.2,385.38,432.97,383.17,431.47,381.95z M472.27,342.45c-0.72-0.31-18.02-7.45-48.53-7.59
					c-17.02-0.05-40.35,2.15-68.43,10.56c-17.94,5.38-37.83,13.29-59.25,24.76c-1.7,0.91-2.34,3.03-1.43,4.74
					c0.63,1.18,1.84,1.85,3.09,1.85c0.56,0,1.12-0.14,1.65-0.42c18.85-10.09,36.46-17.37,52.54-22.55
					c29.27-9.43,53.48-11.94,70.94-11.94h0.41c29.26,0.06,46.13,6.97,46.29,7.04c1.78,0.75,3.84-0.09,4.59-1.87
					C474.89,345.25,474.05,343.2,472.27,342.45z"/>
				<path style="fill:#FFFFFF;" d="M391.78,418.34c0.82,1.75,0.07,3.83-1.68,4.66c-0.48,0.22-0.99,0.33-1.49,0.33
					c-1.31,0-2.57-0.75-3.17-2.02c-0.03-0.08-4.62-9.36-17.28-15.24c-5.6-2.6-11.95-4.16-18.95-4.68c-0.53-2.36-0.97-4.75-1.29-7.18
					c8.72,0.46,16.63,2.38,23.71,5.76C386.33,406.99,391.56,417.88,391.78,418.34z"/>
				<path style="fill:#FFFFFF;" d="M431.98,386.88c-1.22,1.5-3.42,1.73-4.92,0.51c-0.11-0.08-11.16-8.8-32.27-12.38
					c-11.5-1.95-27.46-2.56-47.49,1.63c0.15-2.46,0.41-4.89,0.77-7.29c20.29-3.96,36.57-3.21,48.41-1.15
					c22.73,3.96,34.5,13.36,34.99,13.75C432.97,383.17,433.2,385.38,431.98,386.88z"/>
				<path style="fill:#FFFFFF;" d="M474.14,347.03c-0.75,1.78-2.81,2.62-4.59,1.87c-0.16-0.07-17.03-6.98-46.29-7.04h-0.41
					c-17.46,0-41.67,2.51-70.94,11.94c0.98-2.87,2.12-5.66,3.4-8.38c28.08-8.41,51.41-10.61,68.43-10.56
					c30.51,0.14,47.81,7.28,48.53,7.59C474.05,343.2,474.89,345.25,474.14,347.03z"/>
			</g>
			<g>
				<path style="fill:#EBD9EA;" d="M121.903,423c0.48,0.22,0.99,0.33,1.49,0.33c1.31,0,2.57-0.75,3.17-2.02
					c0.03-0.08,4.62-9.36,17.28-15.24c5.6-2.6,11.95-4.16,18.95-4.68c14.28-1.06,31.28,2.2,50.2,9.72c1.8,0.71,3.83-0.17,4.55-1.96
					c0.71-1.8-0.17-3.83-1.96-4.55c-19.39-7.7-36.62-11.17-51.5-10.39c-8.72,0.46-16.63,2.38-23.71,5.76
					c-14.7,7.02-19.93,17.91-20.15,18.37C119.403,420.09,120.153,422.17,121.903,423z M80.023,386.88c1.22,1.5,3.42,1.73,4.92,0.51
					c0.11-0.08,11.16-8.8,32.27-12.38c11.5-1.95,27.46-2.56,47.49,1.63c14.05,2.93,30.1,8.22,48.04,17.06
					c0.49,0.24,1.02,0.36,1.54,0.36c1.29,0,2.53-0.72,3.14-1.95c0.86-1.74,0.14-3.83-1.59-4.69c-19.41-9.57-36.77-15.13-51.9-18.07
					c-20.29-3.96-36.57-3.21-48.41-1.15c-22.73,3.96-34.5,13.36-34.99,13.75C79.033,383.17,78.803,385.38,80.023,386.88z
					 M37.863,347.03c0.75,1.78,2.81,2.62,4.59,1.87c0.16-0.07,17.03-6.98,46.29-7.04h0.41c17.46,0,41.67,2.51,70.94,11.94
					c16.08,5.18,33.69,12.46,52.54,22.55c0.53,0.28,1.09,0.42,1.65,0.42c1.25,0,2.46-0.67,3.09-1.85c0.91-1.71,0.27-3.83-1.43-4.74
					c-21.42-11.47-41.31-19.38-59.25-24.76c-28.08-8.41-51.41-10.61-68.43-10.56c-30.51,0.14-47.81,7.28-48.53,7.59
					C37.953,343.2,37.113,345.25,37.863,347.03z"/>
				<path style="fill:#FFFFFF;" d="M120.223,418.34c-0.82,1.75-0.07,3.83,1.68,4.66c0.48,0.22,0.99,0.33,1.49,0.33
					c1.31,0,2.57-0.75,3.17-2.02c0.03-0.08,4.62-9.36,17.28-15.24c5.6-2.6,11.95-4.16,18.95-4.68c0.53-2.36,0.97-4.75,1.29-7.18
					c-8.72,0.46-16.63,2.38-23.71,5.76C125.673,406.99,120.443,417.88,120.223,418.34z"/>
				<path style="fill:#FFFFFF;" d="M80.023,386.88c1.22,1.5,3.42,1.73,4.92,0.51c0.11-0.08,11.16-8.8,32.27-12.38
					c11.5-1.95,27.46-2.56,47.49,1.63c-0.15-2.46-0.41-4.89-0.77-7.29c-20.29-3.96-36.57-3.21-48.41-1.15
					c-22.73,3.96-34.5,13.36-34.99,13.75C79.033,383.17,78.803,385.38,80.023,386.88z"/>
				<path style="fill:#FFFFFF;" d="M37.863,347.03c0.75,1.78,2.81,2.62,4.59,1.87c0.16-0.07,17.03-6.98,46.29-7.04h0.41
					c17.46,0,41.67,2.51,70.94,11.94c-0.98-2.87-2.12-5.66-3.4-8.38c-28.08-8.41-51.41-10.61-68.43-10.56
					c-30.51,0.14-47.81,7.28-48.53,7.59C37.953,343.2,37.113,345.25,37.863,347.03z"/>
			</g>
		</g>
	</g>
</g>
</svg>
