<?xml version="1.0" encoding="iso-8859-1"?>
<!-- Generator: Adobe Illustrator 22.0.1, SVG Export Plug-In . SVG Version: 6.00 Build 0)  -->
<svg version="1.1" id="Icons" xmlns="http://www.w3.org/2000/svg" xmlns:xlink="http://www.w3.org/1999/xlink" x="0px" y="0px"
	 viewBox="0 0 512 512" style="enable-background:new 0 0 512 512;" xml:space="preserve">
<g>
	<circle style="fill:#EE6781;" cx="256" cy="256" r="256"/>
	<g>
		<g>
			<g>
				<path style="fill:#334353;" d="M430.881,189.617c-4.341,14.068-13.354,28.957-29.076,44.332l-98.475-85.264
					c18.622-26.138,32.809-43.381,44.261-53.929c24.366-22.463,36.294-14.603,52.157,2.343
					C417.039,115.579,443.355,149.161,430.881,189.617z"/>
				<path style="fill:#2E3140;" d="M430.881,189.617c-48.53-12.51-83.504-47.781-83.504-89.343c0-1.855,0.071-3.687,0.214-5.518
					c24.366-22.463,36.294-14.603,52.157,2.343C417.039,115.579,443.355,149.161,430.881,189.617z"/>
				<path style="fill:#F4829B;" d="M343.747,169.144c-3.159-3.32-4.426-8.022-3.327-12.47
					c10.336-41.828,26.551-86.133,60.235-42.887c29.925,38.42,20.318,72.057,3.244,95.49c-4.958,6.804-14.858,7.474-20.661,1.375
					L343.747,169.144z"/>
			</g>
			<g>
				<path style="fill:#2E3140;" d="M81.111,189.617c4.341,14.068,13.354,28.957,29.076,44.332l98.475-85.264
					c-18.622-26.138-32.809-43.381-44.261-53.929c-24.366-22.463-36.294-14.603-52.157,2.343
					C94.954,115.579,68.637,149.161,81.111,189.617z"/>
				<path style="fill:#151516;" d="M81.111,189.617c48.53-12.51,83.504-47.781,83.504-89.343c0-1.855-0.071-3.687-0.214-5.518
					c-24.366-22.463-36.294-14.603-52.157,2.343C94.954,115.579,68.637,149.161,81.111,189.617z"/>
				<path style="fill:#9175A7;" d="M168.246,169.144c3.159-3.32,4.426-8.022,3.327-12.47
					c-10.336-41.828-26.551-86.133-60.235-42.887c-29.925,38.42-20.318,72.057-3.244,95.49c4.958,6.804,14.858,7.474,20.661,1.375
					L168.246,169.144z"/>
			</g>
		</g>
		<g>
			<g>
				<path style="fill:#2E3140;" d="M407.501,258.625v52.347c0,19.907-10.488,38.339-27.601,48.506l-68.841,40.908
					c-6.933,4.115-14.841,6.279-22.892,6.279h-64.334c-8.051,0-15.959-2.164-22.892-6.279l-68.841-40.908
					c-17.112-10.167-27.601-28.6-27.601-48.506v-52.347c0-14.484,5.577-28.421,15.578-38.91l53.227-55.879
					c9.216-9.68,22-15.15,35.366-15.15h94.658c13.366,0,26.15,5.47,35.366,15.15l53.239,55.879
					C401.924,230.204,407.501,244.141,407.501,258.625z"/>
				<path style="fill:#334353;" d="M407.501,258.625v52.347c0,19.907-10.488,38.339-27.601,48.506l-68.841,40.908
					c-6.933,4.115-14.841,6.279-22.892,6.279h-32.167V148.686h47.329c13.366,0,26.15,5.47,35.366,15.15l53.239,55.879
					C401.924,230.204,407.501,244.141,407.501,258.625z"/>
			</g>
			<g>
				<g>
					<path style="fill:#F4829B;" d="M354.561,279.738c-11.682,11.682-30.655,11.682-42.337,0c-11.696-11.696-11.682-30.655,0-42.337
						c3.167-3.167,6.865-5.48,10.813-6.923c10.621-3.904,22.995-1.606,31.524,6.923c8.515,8.515,10.827,20.903,6.923,31.524
						C360.041,272.874,357.728,276.571,354.561,279.738z"/>
					
						<ellipse transform="matrix(0.7071 -0.7071 0.7071 0.7071 -76.3203 315.15)" style="fill:#F0A6B3;" cx="342.261" cy="249.702" rx="17.395" ry="27.186"/>
					<path style="fill:#2E3140;" d="M354.291,258.57c0,8.999-5.708,16.687-13.695,19.633c-2.256,0.806-4.672,1.266-7.204,1.266
						c-11.554,0-20.899-9.368-20.899-20.899c0-11.554,9.345-20.899,20.899-20.899c2.532,0,4.949,0.46,7.204,1.266
						C348.583,241.883,354.291,249.548,354.291,258.57z"/>
					<path style="fill:#3E4E60;" d="M347.124,258.57c0,5.913-3.75,10.964-8.998,12.9c-1.482,0.529-3.07,0.832-4.733,0.832
						c-7.591,0-13.731-6.155-13.731-13.731c0-7.591,6.14-13.731,13.731-13.731c1.663,0,3.251,0.302,4.733,0.832
						C343.374,247.606,347.124,252.642,347.124,258.57z"/>
					<path style="fill:#FFFFFF;" d="M347.124,251.983c0,3.076-1.951,5.704-4.681,6.711c-0.771,0.275-1.597,0.433-2.463,0.433
						c-3.949,0-7.144-3.202-7.144-7.144c0-3.95,3.194-7.144,7.144-7.144c0.865,0,1.692,0.157,2.463,0.433
						C345.173,246.278,347.124,248.898,347.124,251.983z"/>
				</g>
				<g>
					<path style="fill:#9175A7;" d="M157.44,237.402c-11.682,11.682-11.682,30.655,0,42.337c11.696,11.696,30.655,11.682,42.337,0
						c3.167-3.167,5.48-6.865,6.923-10.813c3.904-10.621,1.606-22.995-6.923-31.524c-8.515-8.515-20.903-10.827-31.524-6.923
						C164.304,231.922,160.607,234.234,157.44,237.402z"/>
					
						<ellipse transform="matrix(0.7071 -0.7071 0.7071 0.7071 -121.6556 205.7021)" style="fill:#F4829B;" cx="187.476" cy="249.702" rx="17.395" ry="27.186"/>
					<path style="fill:#2E3140;" d="M199.511,258.57c0,8.999-5.708,16.687-13.695,19.633c-2.256,0.806-4.672,1.266-7.204,1.266
						c-11.554,0-20.899-9.368-20.899-20.899c0-11.554,9.345-20.899,20.899-20.899c2.532,0,4.949,0.46,7.204,1.266
						C193.803,241.883,199.511,249.548,199.511,258.57z"/>
					<path style="fill:#3E4E60;" d="M192.343,258.57c0,5.913-3.75,10.964-8.998,12.9c-1.482,0.529-3.07,0.832-4.733,0.832
						c-7.591,0-13.731-6.155-13.731-13.731c0-7.591,6.14-13.731,13.731-13.731c1.663,0,3.251,0.302,4.733,0.832
						C188.593,247.606,192.343,252.642,192.343,258.57z"/>
					<path style="fill:#FFFFFF;" d="M192.343,251.983c0,3.076-1.951,5.704-4.681,6.711c-0.771,0.275-1.597,0.433-2.463,0.433
						c-3.949,0-7.144-3.202-7.144-7.144c0-3.95,3.194-7.144,7.144-7.144c0.865,0,1.692,0.157,2.463,0.433
						C190.392,246.278,192.343,248.898,192.343,251.983z"/>
				</g>
			</g>
			<g>
				<path style="fill:#9175A7;" d="M331.977,356.446l-23.938,41.454c-9.668,16.744-27.541,27.066-46.877,27.066h-10.31
					c-19.348,0-37.221-10.322-46.889-27.066l-23.938-41.454c-8.705-15.079-4.78-34.284,9.133-44.737l46.176-34.676
					c6.124-4.59,13.402-6.897,20.668-6.897c7.278,0,14.555,2.307,20.668,6.897l46.176,34.676
					C336.757,322.162,340.682,341.368,331.977,356.446z"/>
				<path style="fill:#F4829B;" d="M331.977,356.446l-23.938,41.454c-9.668,16.744-27.541,27.066-46.877,27.066h-5.161V270.136
					c7.278,0,14.555,2.307,20.668,6.897l46.176,34.676C336.757,322.162,340.682,341.368,331.977,356.446z"/>
			</g>
			<g>
				<g>
					<path style="fill:#FFFFFF;" d="M303.348,416.725L303.348,416.725c-3.928,0-7.112-3.184-7.112-7.112v-17.188h14.224v17.188
						C310.461,413.541,307.276,416.725,303.348,416.725z"/>
					<path style="fill:#EBD9EA;" d="M208.653,416.725L208.653,416.725c-3.928,0-7.112-3.184-7.112-7.112v-17.188h14.224v17.188
						C215.765,413.541,212.581,416.725,208.653,416.725z"/>
				</g>
				<path style="fill:#2E3140;" d="M312.91,384.581c-1.86-1.349-4.463-0.933-5.812,0.927c-6.046,8.339-14.919,4.353-28.825-3.206
					c-7.852-4.269-15.268-8.301-22.273-8.301s-14.421,4.032-22.273,8.301c-13.901,7.559-22.78,11.547-28.825,3.206
					c-1.348-1.86-3.951-2.276-5.812-0.927c-1.862,1.349-2.277,3.952-0.928,5.813c4.34,5.986,9.517,8.154,14.992,8.154
					c8.12,0,16.893-4.77,24.548-8.932c6.593-3.584,13.41-7.29,18.297-7.29c4.888,0,11.705,3.706,18.297,7.29
					c7.655,4.162,16.428,8.932,24.548,8.932c5.476,0,10.654-2.168,14.992-8.154C315.188,388.533,314.772,385.931,312.91,384.581z"/>
			</g>
			<g>
				<path style="fill:#2E3140;" d="M284.315,345.078v16.553c0,7.409-5.993,13.414-13.402,13.414h-29.825
					c-7.397,0-13.402-6.005-13.402-13.414v-16.553c0-14.734,11.939-26.673,26.673-26.673h3.294
					C272.376,318.405,284.315,330.344,284.315,345.078z"/>
				<path style="fill:#334353;" d="M284.315,345.078v16.553c0,7.409-5.993,13.414-13.402,13.414h-14.912v-56.641h1.653
					C272.376,318.405,284.315,330.344,284.315,345.078z"/>
				<g>
					<path style="fill:#2E3140;" d="M271.763,347.551h-3.585c-3.35,0-6.066,2.716-6.066,6.066v7.662c0,3.35,2.716,6.066,6.066,6.066
						h3.585c3.35,0,6.066-2.716,6.066-6.066v-7.662C277.829,350.267,275.113,347.551,271.763,347.551z"/>
					<path style="fill:#151516;" d="M243.824,347.551h-3.585c-3.35,0-6.066,2.716-6.066,6.066v7.662c0,3.35,2.716,6.066,6.066,6.066
						h3.585c3.35,0,6.066-2.716,6.066-6.066v-7.662C249.89,350.267,247.174,347.551,243.824,347.551z"/>
				</g>
				<path style="fill:#3F5D77;" d="M256.001,327.905h13.022c4.166,0,7.544,3.378,7.544,7.544v0c0,4.166-3.378,7.544-7.544,7.544
					h-13.022V327.905z"/>
				<path style="fill:#334353;" d="M256.001,342.993h-13.022c-4.166,0-7.544-3.378-7.544-7.544v0c0-4.166,3.378-7.544,7.544-7.544
					h13.022V342.993z"/>
			</g>
			<g>
				<path style="fill:#F0A6B3;" d="M262.121,313.089h-6.12v-35.411h6.12c6.147,0,11.13,4.983,11.13,11.13v13.152
					C273.251,308.106,268.268,313.089,262.121,313.089z"/>
				<path style="fill:#F4829B;" d="M249.881,277.678h6.12v35.411h-6.12c-6.147,0-11.13-4.983-11.13-11.13v-13.152
					C238.751,282.661,243.734,277.678,249.881,277.678z"/>
			</g>
			<g>
				<path style="fill:#3E4E60;" d="M326.508,218.909h-70.508v-59.967h34.74c12.043,0,23.473,5.31,31.241,14.512l16.54,19.594
					C347.149,203.268,339.884,218.909,326.508,218.909z"/>
				<path style="fill:#334353;" d="M185.493,218.909h70.508v-59.967h-34.74c-12.043,0-23.473,5.31-31.241,14.512l-16.54,19.594
					C164.853,203.268,172.118,218.909,185.493,218.909z"/>
			</g>
			<g>
				<g>
					<g>
						<path style="fill:#3E4E60;" d="M401.504,374.973c-0.245-0.512-6.068-12.637-22.435-20.453
							c-7.883-3.763-16.69-5.901-26.398-6.413c-16.567-0.868-35.751,2.995-57.339,11.568c-1.993,0.802-2.973,3.062-2.182,5.066
							c0.802,1.993,3.062,2.973,5.066,2.182c21.065-8.373,39.993-12.002,55.892-10.822c7.794,0.579,14.864,2.316,21.099,5.211
							c14.096,6.547,19.206,16.879,19.239,16.968c0.668,1.414,2.071,2.249,3.529,2.249c0.557,0,1.125-0.122,1.659-0.367
							C401.581,379.237,402.417,376.921,401.504,374.973z"/>
						<path style="fill:#3F5D77;" d="M401.504,374.973c0.913,1.948,0.078,4.264-1.871,5.188c-0.534,0.245-1.102,0.367-1.659,0.367
							c-1.459,0-2.861-0.835-3.529-2.249c-0.033-0.089-5.144-10.421-19.239-16.968c-6.235-2.895-13.305-4.632-21.099-5.211
							c-0.59-2.628-1.08-5.289-1.436-7.994c9.709,0.512,18.516,2.65,26.398,6.413C395.436,362.336,401.259,374.46,401.504,374.973z"
							/>
					</g>
					<g>
						<path style="fill:#3E4E60;" d="M419.879,327.213c-0.365-0.435-9.037-10.716-26.839-14.188
							c-8.574-1.671-17.635-1.537-27.163,0.397c-16.257,3.305-33.864,11.846-52.621,25.548c-1.729,1.275-2.112,3.708-0.845,5.451
							c1.275,1.729,3.708,2.112,5.451,0.845c18.3-13.377,35.717-21.628,51.406-24.464c7.691-1.39,14.97-1.477,21.731-0.235
							c15.285,2.811,22.818,11.536,22.873,11.614c1.001,1.202,2.568,1.659,3.98,1.294c0.539-0.139,1.058-0.4,1.514-0.771
							C421.021,331.323,421.25,328.871,419.879,327.213z"/>
						<path style="fill:#3F5D77;" d="M419.879,327.213c1.371,1.658,1.142,4.109-0.513,5.491c-0.456,0.371-0.975,0.632-1.514,0.771
							c-1.412,0.365-2.979-0.092-3.98-1.294c-0.055-0.078-7.588-8.803-22.873-11.614c-6.761-1.243-14.041-1.155-21.731,0.235
							c-1.229-2.396-2.369-4.85-3.391-7.38c9.528-1.934,18.59-2.068,27.163-0.397C410.842,316.497,419.514,326.779,419.879,327.213z
							"/>
					</g>
				</g>
				<g>
					<g>
						<path style="fill:#334353;" d="M112.368,380.161c0.534,0.245,1.102,0.367,1.659,0.367c1.459,0,2.861-0.835,3.529-2.249
							c0.033-0.089,5.144-10.421,19.239-16.968c6.235-2.895,13.305-4.632,21.099-5.211c15.899-1.18,34.827,2.449,55.892,10.822
							c2.004,0.791,4.264-0.189,5.066-2.182c0.791-2.004-0.189-4.264-2.182-5.066c-21.589-8.573-40.772-12.437-57.339-11.568
							c-9.709,0.512-18.516,2.65-26.398,6.413c-16.367,7.816-22.19,19.941-22.435,20.453
							C109.585,376.921,110.42,379.237,112.368,380.161z"/>
						<path style="fill:#3E4E60;" d="M110.498,374.973c-0.913,1.948-0.078,4.264,1.871,5.188c0.534,0.245,1.102,0.367,1.659,0.367
							c1.459,0,2.861-0.835,3.529-2.249c0.033-0.089,5.144-10.421,19.239-16.968c6.235-2.895,13.305-4.632,21.099-5.211
							c0.59-2.628,1.08-5.289,1.436-7.994c-9.709,0.512-18.516,2.65-26.398,6.413C116.566,362.336,110.743,374.46,110.498,374.973z"
							/>
					</g>
					<g>
						<path style="fill:#334353;" d="M92.635,332.705c0.456,0.371,0.975,0.632,1.514,0.771c1.412,0.365,2.979-0.092,3.98-1.294
							c0.055-0.078,7.588-8.803,22.873-11.614c6.761-1.243,14.041-1.155,21.731,0.235c15.689,2.836,33.106,11.086,51.406,24.464
							c1.743,1.267,4.176,0.884,5.451-0.845c1.267-1.743,0.884-4.176-0.845-5.451c-18.757-13.702-36.363-22.243-52.621-25.548
							c-9.528-1.934-18.59-2.068-27.163-0.397c-17.802,3.472-26.474,13.754-26.839,14.188
							C90.751,328.871,90.98,331.323,92.635,332.705z"/>
						<path style="fill:#3E4E60;" d="M92.123,327.213c-1.371,1.658-1.142,4.109,0.513,5.491c0.456,0.371,0.975,0.632,1.514,0.771
							c1.412,0.365,2.979-0.092,3.98-1.294c0.055-0.078,7.588-8.803,22.873-11.614c6.761-1.243,14.041-1.155,21.731,0.235
							c1.229-2.396,2.369-4.85,3.391-7.38c-9.528-1.934-18.59-2.068-27.163-0.397C101.16,316.497,92.488,326.779,92.123,327.213z"/>
					</g>
				</g>
			</g>
		</g>
	</g>
</g>
</svg>
