<?xml version="1.0" encoding="iso-8859-1"?>
<!-- Generator: Adobe Illustrator 22.0.1, SVG Export Plug-In . SVG Version: 6.00 Build 0)  -->
<svg version="1.1" id="Icons" xmlns="http://www.w3.org/2000/svg" xmlns:xlink="http://www.w3.org/1999/xlink" x="0px" y="0px"
	 viewBox="0 0 512 512" style="enable-background:new 0 0 512 512;" xml:space="preserve">
<g>
	<circle style="fill:#53B976;" cx="256" cy="256" r="256"/>
	<g>
		<g>
			<path style="fill:#B26E2B;" d="M437.95,361.71c-3.35,5.49-7.39,10.65-12.1,15.36c-16.47,16.46-35.86,29.31-56.97,38.05
				c-12.3,5.09-25.17,8.79-38.38,10.98c-9.46,1.58-19.09,2.39-28.81,2.39h-78.62c-30.99,0-56.11-25.12-56.11-56.1v-44.64l10.52-7.41
				l62.98-44.37l42.15-29.69l91.88-64.72h0.01l61.32,90.36C454.41,299.31,454.63,334.47,437.95,361.71z"/>
			<path style="fill:#B26E2B;" d="M384.58,218.53v36.54c0,38.54-30,70.08-67.94,72.52c-1.57,0.11-3.15,0.16-4.75,0.16H209.52
				c-11.57,0-22.42-2.68-32.04-7.41c-24.28-11.94-40.66-36.97-40.66-65.13c0-3.85,0.3-7.76,0.94-11.71
				c7.61-47.22,45.75-83.6,93.28-88.97l16.89-1.91l32.02-3.62l23.77-2.69c29.63-3.35,56.73,11.53,70.77,35.25h0.01
				C380.89,192.35,384.58,204.97,384.58,218.53z"/>
			<path style="fill:#C68132;" d="M437.95,361.71c-9.1,5.93-18.71,10.99-28.7,15.13c-0.13,0.05-0.25,0.1-0.37,0.15
				c-22.59,9.29-48.64,3.36-65.23-14.57c-9.97-10.78-19.02-22.43-27.01-34.83c-7.76-12.04-14.52-24.78-20.18-38.12
				c-5.85-13.81-10.52-28.25-13.85-43.19c-0.65-2.84-1.24-5.71-1.78-8.59c-2.84-15.17-4.33-30.82-4.33-46.82
				c0-14.26,1.18-28.25,3.45-41.87l23.77-2.69c29.63-3.35,56.73,11.53,70.77,35.25h0.01l61.32,90.36
				C454.41,299.31,454.63,334.47,437.95,361.71z"/>
			<path style="fill:#F39E22;" d="M417.034,332.11L417.034,332.11c-15.538,10.136-36.351,5.756-46.487-9.782l-44.407-68.077
				c-10.136-15.538-5.756-36.351,9.782-46.487l0,0c15.538-10.136,36.351-5.756,46.487,9.782l44.407,68.077
				C436.952,301.162,432.572,321.975,417.034,332.11z"/>
		</g>
		<path style="fill:#EE6781;" d="M224.634,307.12h-85.197v-52.427l147.53-37.637v27.731
			C286.967,279.212,259.06,307.12,224.634,307.12z"/>
		<g>
			<circle style="fill:#F4829B;" cx="279.238" cy="277.117" r="40.32"/>
			<g>
				<path style="fill:#DD5E26;" d="M308.664,277.124c0,4.414-0.964,8.591-2.724,12.335c-4.652,10.086-14.849,17.084-26.695,17.084
					c-16.26,0-29.433-13.173-29.433-29.419c0-11.846,6.999-22.057,17.084-26.709c3.758-1.76,7.935-2.724,12.349-2.724
					C295.491,247.691,308.664,260.878,308.664,277.124z"/>
				<path style="fill:#EA792E;" d="M308.664,277.124c0,4.414-0.964,8.591-2.724,12.335c-3.744,1.76-7.921,2.724-12.335,2.724
					c-16.246,0-29.433-13.173-29.433-29.419c0-4.414,0.964-8.591,2.724-12.349c3.758-1.76,7.935-2.724,12.349-2.724
					C295.491,247.691,308.664,260.878,308.664,277.124z"/>
				<path style="fill:#3E4E60;" d="M297.907,277.124c0,2.794-0.615,5.448-1.732,7.823c-1.299,2.794-3.255,5.224-5.685,7.068
					c-3.115,2.361-7.013,3.772-11.245,3.772c-10.323,0-18.677-8.354-18.677-18.663c0-4.233,1.411-8.13,3.772-11.259
					c1.844-2.431,4.274-4.4,7.068-5.685c2.389-1.118,5.029-1.732,7.837-1.732C289.554,258.447,297.907,266.815,297.907,277.124z"/>
				<path style="fill:#2E3140;" d="M297.907,277.124c0,2.794-0.615,5.448-1.732,7.823c-1.299,2.794-3.255,5.224-5.685,7.068
					c-13.76-1.453-24.712-12.391-26.15-26.15c1.844-2.431,4.274-4.4,7.068-5.685c2.389-1.118,5.029-1.732,7.837-1.732
					C289.554,258.447,297.907,266.815,297.907,277.124z"/>
				<circle style="fill:#FFFFFF;" cx="265.541" cy="271.963" r="10.956"/>
			</g>
		</g>
		<g>
			<path style="fill:#DD5273;" d="M311.89,352.78v2.89c0,9.72-2.74,18.8-7.48,26.51c-8.92,14.5-24.92,24.16-43.19,24.16
				c-7.1,0-14.05-1.49-20.41-4.3c-6.37-2.8-12.16-6.91-16.96-12.15l-56.89-62.14h119.91C300.69,327.75,311.89,338.96,311.89,352.78z
				"/>
			<path style="fill:#EE6781;" d="M311.89,352.78v2.89c0,9.72-2.74,18.8-7.48,26.51c-5.33,1.91-11.08,2.95-17.07,2.95
				c-7.11,0-14.05-1.49-20.42-4.3c-6.36-2.8-12.15-6.91-16.95-12.16l-37.47-40.92h74.37C300.69,327.75,311.89,338.96,311.89,352.78z
				"/>
			<circle style="fill:#F4829B;" cx="281.123" cy="354.056" r="18.723"/>
		</g>
		<g>
			<path style="fill:#F9C744;" d="M74.148,307.12h82.629c13.068,0,35.467,5.777,43.873,15.783l4.076,4.852h-74.618
				C109.594,327.755,89.752,320.438,74.148,307.12L74.148,307.12z"/>
			<g>
				<path style="fill:#FAD98F;" d="M223.59,280.92c0,7.24-2.93,13.78-7.67,18.53c-4.74,4.74-11.3,7.67-18.53,7.67H52.04
					c-8.61,0-13.31-10.06-7.78-16.67c0.7-0.84,1.42-1.67,2.15-2.48c0.24-0.27,0.48-0.53,0.73-0.8c8.92-9.78,19.62-17.58,31.39-23.08
					c13.06-6.1,27.45-9.37,42.21-9.37h76.65c0.22,0,0.44,0,0.66,0.01C212.22,255.08,223.59,266.67,223.59,280.92z"/>
				<path style="fill:#FAEFDC;" d="M183.92,254.72c-0.31,8.95-4.05,17.01-9.96,22.92c-6.17,6.17-14.69,9.98-24.11,9.98H52.62
					c-1.87,0-3.7-0.15-5.48-0.45c8.92-9.78,19.62-17.58,31.39-23.08c13.06-6.1,27.45-9.37,42.21-9.37H183.92z"/>
				<path style="fill:#FFFFFF;" d="M158.815,278.385h-51.599c-4.5,0-8.149-3.648-8.149-8.149v0c0-4.5,3.648-8.149,8.149-8.149
					h51.599c4.5,0,8.149,3.648,8.149,8.149v0C166.963,274.736,163.315,278.385,158.815,278.385z"/>
			</g>
			<path style="fill:#3E4E60;" d="M167.854,287.62h-29.443c-4.543,0-8.225-3.682-8.225-8.225l0,0c0-4.543,3.682-8.225,8.225-8.225
				h29.443c4.543,0,8.225,3.682,8.225,8.225l0,0C176.079,283.938,172.396,287.62,167.854,287.62z"/>
		</g>
		<g>
			<path style="fill:#DD5273;" d="M285.166,63.51H212c-23.315,0-42.215,18.9-42.215,42.215v48.451
				c0-21.759-17.639-39.399-39.399-39.399l0,0c-21.759,0-39.399,17.639-39.399,39.399v55.035c0,25.132,20.373,45.505,45.505,45.505
				h0c22.1,0,44.106-2.887,65.458-8.588l91.663-24.472c19.914-5.317,33.767-23.354,33.767-43.965v-71.966
				C327.381,82.41,308.481,63.51,285.166,63.51z"/>
			<g>
				<path style="fill:#EE6781;" d="M126.344,236.797L126.344,236.797c-13.106,0-23.731-10.625-23.731-23.731v-63.101
					c0-13.106,10.625-23.731,23.731-23.731h0c13.106,0,23.731,10.625,23.731,23.731v63.101
					C150.075,226.172,139.451,236.797,126.344,236.797z"/>
				<path style="fill:#F4829B;" d="M126.344,192.177L126.344,192.177c-13.106,0-23.731-10.625-23.731-23.731v-18.481
					c0-13.106,10.625-23.731,23.731-23.731h0c13.106,0,23.731,10.625,23.731,23.731v18.481
					C150.075,181.552,139.451,192.177,126.344,192.177z"/>
			</g>
			<g>
				<g>
					<path style="fill:#EE6781;" d="M201.17,212.887L201.17,212.887c-8.68,0-15.717-7.037-15.717-15.717v-90.396
						c0-8.68,7.037-15.717,15.717-15.717h0c8.68,0,15.717,7.037,15.717,15.717v90.396
						C216.886,205.851,209.85,212.887,201.17,212.887z"/>
					<path style="fill:#EE6781;" d="M247.603,182.825L247.603,182.825c-8.68,0-15.717-7.037-15.717-15.717v-60.333
						c0-8.68,7.037-15.717,15.717-15.717h0c8.68,0,15.717,7.037,15.717,15.717v60.333
						C263.32,175.788,256.283,182.825,247.603,182.825z"/>
					<path style="fill:#EE6781;" d="M294.037,162.817L294.037,162.817c-8.68,0-15.717-7.037-15.717-15.717v-40.326
						c0-8.68,7.037-15.717,15.717-15.717h0c8.68,0,15.717,7.037,15.717,15.717V147.1
						C309.753,155.781,302.717,162.817,294.037,162.817z"/>
				</g>
				<g>
					<path style="fill:#F4829B;" d="M201.17,148.558L201.17,148.558c-8.68,0-15.717-7.037-15.717-15.717v-26.066
						c0-8.68,7.037-15.717,15.717-15.717h0c8.68,0,15.717,7.037,15.717,15.717v26.066
						C216.886,141.521,209.85,148.558,201.17,148.558z"/>
					<path style="fill:#F4829B;" d="M247.603,134.369L247.603,134.369c-8.68,0-15.717-7.037-15.717-15.717v-11.878
						c0-8.68,7.037-15.717,15.717-15.717h0c8.68,0,15.717,7.037,15.717,15.717v11.878
						C263.32,127.333,256.283,134.369,247.603,134.369z"/>
					<path style="fill:#F4829B;" d="M294.037,124.926L294.037,124.926c-8.68,0-15.717-7.037-15.717-15.717v-2.435
						c0-8.68,7.037-15.717,15.717-15.717h0c8.68,0,15.717,7.037,15.717,15.717v2.435
						C309.753,117.89,302.717,124.926,294.037,124.926z"/>
				</g>
			</g>
		</g>
	</g>
</g>
</svg>
