<?xml version="1.0" encoding="iso-8859-1"?>
<!-- Generator: Adobe Illustrator 22.0.1, SVG Export Plug-In . SVG Version: 6.00 Build 0)  -->
<svg version="1.1" id="Icons" xmlns="http://www.w3.org/2000/svg" xmlns:xlink="http://www.w3.org/1999/xlink" x="0px" y="0px"
	 viewBox="0 0 512 512" style="enable-background:new 0 0 512 512;" xml:space="preserve">
<g>
	<circle style="fill:#6C53A2;" cx="256" cy="256" r="256"/>
	<g>
		<g>
			<g>
				<path style="fill:#DD5E26;" d="M362.507,298.698l-6.059,2.211l-61.591,22.483l-9.114,3.32
					c37.724,15.219,53.976,14.694,67.639,9.993C389.285,324.34,362.507,298.698,362.507,298.698z"/>
				<path style="fill:#2E3140;" d="M372.064,319.014c0.756-10.446-9.556-20.316-9.556-20.316l-6.059,2.211
					c2.918,3.99,6.38,10.478,4.038,16.706c-1.601,4.29-5.949,8.453-15.095,11.591c-7.132,2.461-15.092,3.573-27.618,1.048
					c-6.318-1.265-13.794-3.454-22.916-6.862l-9.114,3.32c10.426,4.209,19.216,7.211,26.759,9.253
					c19.753,5.354,30.991,4.145,40.88,0.74C367.004,332.013,371.606,325.409,372.064,319.014z"/>
				<path style="fill:#3F5D77;" d="M372.064,319.014c-3.68-0.732-7.522-1.211-11.488-1.395l-0.09-0.004
					c-1.601,4.29-5.949,8.453-15.095,11.591c-7.132,2.461-15.092,3.573-27.618,1.048c-2.044,1.757-3.805,3.677-5.271,5.711
					c19.753,5.354,30.991,4.145,40.88,0.74C367.004,332.013,371.606,325.409,372.064,319.014z"/>
			</g>
			<g>
				<path style="fill:#DD5E26;" d="M372.15,216.38l-5.95-2.49l-60.48-25.32l-8.95-3.74c38.39-13.45,54.6-12.17,68.03-6.84
					C400.09,192.01,372.15,216.38,372.15,216.38z"/>
				<path style="fill:#2E3140;" d="M382.64,196.53c0.27,10.47-10.49,19.85-10.49,19.85l-5.95-2.49c3.1-3.85,6.86-10.17,4.81-16.5
					c-1.4-4.36-5.55-8.72-14.54-12.28c-7.01-2.79-14.91-4.27-27.54-2.33c-6.37,0.97-13.94,2.81-23.21,5.79l-8.95-3.74
					c10.61-3.72,19.53-6.31,27.16-8c19.98-4.43,31.15-2.7,40.87,1.16C378.19,183.31,382.48,190.12,382.64,196.53z"/>
				<path style="fill:#3F5D77;" d="M382.64,196.53c-3.71,0.56-7.57,0.86-11.54,0.86h-0.09c-1.4-4.36-5.55-8.72-14.54-12.28
					c-7.01-2.79-14.91-4.27-27.54-2.33c-1.96-1.85-3.63-3.85-5-5.95c19.98-4.43,31.15-2.7,40.87,1.16
					C378.19,183.31,382.48,190.12,382.64,196.53z"/>
			</g>
		</g>
		<g>
			<g>
				<g>
					<path style="fill:#DD5E26;" d="M487.14,258.87c0,13.44-4.65,25.61-12.3,35.17c-13.27,16.56-34.78,23.58-55.12,19.36
						c-3.15-0.65-6.27-1.58-9.33-2.78l-17.33-6.8l-20.91-8.2l-7.7,4.05c-13.67,7.18-27.73,13.49-42.12,18.9c0,0,0,0.01-0.01,0.01
						c0,0,0,0.01-0.01,0.01c-13.3,5.01-26.87,9.26-40.64,12.72c-20.54,5.18-41.53,8.61-62.76,10.24l-30.97,2.38
						c-14.3,1.1-28.61-2.08-41.1-9.14l-19.05-10.77l-49.96-28.23c-11.11-6.28-17.98-18.06-17.98-30.82v-17.94
						c0-12.76,6.87-24.54,17.98-30.82l8.88-5.02l34.46-19.47l25.67-14.51c1.47-0.83,2.97-1.61,4.49-2.33h0.01
						c11.37-5.42,23.99-7.78,36.6-6.81l30.97,2.38c26.46,2.03,52.55,6.87,77.86,14.38c11.42,3.38,22.67,7.31,33.73,11.78
						c11.55,4.66,22.88,9.91,33.95,15.72l7.7,4.05l20.91-5.64c0-0.01,0-0.01,0-0.01l23.72-6.4c1.41-0.38,2.83-0.72,4.26-0.99h0.01
						c0.49-0.09,0.98-0.18,1.48-0.25c2.81-0.42,5.59-0.62,8.34-0.62c22.38,0,42.37,13.41,51.31,33.21
						C485.36,242.71,487.14,250.54,487.14,258.87z"/>
					<path style="fill:#EA792E;" d="M482.18,235.68c-4.66,2.78-9.49,5.46-14.47,8.01c-25.51,13.13-55.13,23.29-87.47,29.64
						c-6.03,1.2-12.16,2.25-18.38,3.16c-17.38,2.57-35.43,4.05-53.96,4.34c-2.2,0.03-4.41,0.05-6.63,0.05
						c-19.17,0-37.86-1.28-55.85-3.72c-13.99-1.89-27.56-4.48-40.62-7.7c-14.14-3.49-27.67-7.72-40.47-12.62
						c-30.67-11.75-57.12-27.33-77.62-45.65l34.46-19.47l25.67-14.51c1.47-0.83,2.97-1.61,4.49-2.33h0.01
						c11.37-5.42,23.99-7.78,36.6-6.81l30.97,2.38c26.46,2.03,52.55,6.87,77.86,14.38c11.42,3.38,22.67,7.31,33.73,11.78
						c11.55,4.66,22.88,9.91,33.95,15.72l7.7,4.05l20.91-5.64c0-0.01,0-0.01,0-0.01l23.72-6.4c1.42-0.38,2.84-0.72,4.27-0.99
						c0.49-0.09,0.98-0.18,1.48-0.25c2.81-0.42,5.59-0.62,8.34-0.62C453.25,202.47,473.24,215.88,482.18,235.68z"/>
				</g>
				<path style="fill:#F4E6F4;" d="M205.84,258.87c0,45.95-59,75.92-59,75.92l-19.05-10.77l1.4-1.5
					c56.95-56.95,38.14-84.65-8.02-130.8l25.67-14.51c1.47-0.83,2.97-1.61,4.49-2.33h0.01
					C151.34,174.88,205.84,212.92,205.84,258.87z"/>
				<path style="fill:#FFFFFF;" d="M205.84,258.87c0,3.63-0.37,7.16-1.04,10.59c-14.14-3.49-27.67-7.72-40.47-12.62
					c-1.81-21.27-18.62-40.59-43.16-65.12l25.67-14.51c1.47-0.83,2.97-1.61,4.49-2.33h0.01
					C151.34,174.88,205.84,212.92,205.84,258.87z"/>
				<path style="fill:#F4E6F4;" d="M306.51,263.37c0,34.49,15.82,55.2,15.82,55.2s0,0.01-0.01,0.01c0,0,0,0.01-0.01,0.01
					c-13.3,5.01-26.87,9.26-40.64,12.72c0-49.33-46.02-38.49-46.02-80.67c0-42.18,32.35-3.26,61.12-65.81
					c11.42,3.38,22.67,7.31,33.73,11.78C330.5,196.61,306.51,228.89,306.51,263.37z"/>
				<path style="fill:#FFFFFF;" d="M306.51,263.37c0,6.29,0.53,12.13,1.39,17.46c-2.2,0.03-4.41,0.05-6.63,0.05
					c-19.17,0-37.86-1.28-55.85-3.72c-5.71-6.14-9.77-13.99-9.77-26.52c0-42.18,32.35-3.26,61.12-65.81
					c11.42,3.38,22.67,7.31,33.73,11.78C330.5,196.61,306.51,228.89,306.51,263.37z"/>
				<path style="fill:#F4E6F4;" d="M378.5,258.07c0,24.68,14.56,45.75,14.56,45.75l-20.91-8.2c0,0-13.02-9.96-13.02-42.05
					c0-32.09,13.02-37.19,13.02-37.19l20.91-5.64C392.67,211.34,378.5,233.72,378.5,258.07z"/>
				<path style="fill:#FFFFFF;" d="M378.5,258.07c0,5.31,0.67,10.45,1.74,15.26c-6.03,1.2-12.16,2.25-18.38,3.16
					c-1.6-5.92-2.73-13.46-2.73-22.92c0-32.09,13.02-37.19,13.02-37.19l20.91-5.64C392.67,211.34,378.5,233.72,378.5,258.07z"/>
				<g>
					<path style="fill:#2E3140;" d="M487.14,258.87c0,13.44-4.65,25.61-12.3,35.17c-13.27,16.56-34.78,23.58-55.12,19.36
						c31.41-14.05,50.91-33.65,50.91-55.33c0-21.37-18.95-40.73-49.58-54.73c0.49-0.09,0.98-0.18,1.48-0.25
						c2.81-0.42,5.59-0.62,8.34-0.62c22.38,0,42.37,13.41,51.31,33.21C485.36,242.71,487.14,250.54,487.14,258.87z"/>
					<path style="fill:#3F5D77;" d="M482.18,235.68c-4.66,2.78-9.49,5.46-14.47,8.01c-6.41-15.61-23.07-29.57-46.66-40.35
						c0.49-0.09,0.98-0.18,1.48-0.25c2.81-0.42,5.59-0.62,8.34-0.62C453.25,202.47,473.24,215.88,482.18,235.68z"/>
				</g>
				<g>
					<path style="fill:#EA792E;" d="M112.341,289.341c-14.348,0-22.351-5.671-29.412-10.675c-6.585-4.666-12.271-8.696-23.08-8.696
						c-2.761,0-5-2.238-5-5s2.239-5,5-5c13.992,0,21.892,5.599,28.862,10.537c6.688,4.74,12.465,8.834,23.629,8.834
						c4.767,0,14.35-4.221,19.271-6.882c2.43-1.313,5.463-0.41,6.776,2.019c1.314,2.428,0.413,5.461-2.015,6.775
						C134.845,282.081,121.186,289.341,112.341,289.341z"/>
				</g>
				<path style="fill:#F39E22;" d="M205.259,185.831l55.618,9.422c5.099,0.864,6.946,7.235,3.099,10.692v0
					c-6.163,5.538-14.516,7.961-22.686,6.581l-23.17-3.914c-7.797-1.317-14.633-5.965-18.724-12.731l-0.458-0.757
					C196.2,190.597,200.044,184.947,205.259,185.831z"/>
			</g>
			<g>
				<path style="fill:#EA792E;" d="M127.938,248.532c-0.183,0.514-0.404,1.028-0.642,1.541c-0.973,2.111-2.331,4.075-4.056,5.8
					c-7.947,7.947-20.848,7.947-28.795,0s-7.928-20.83,0-28.777c0.349-0.33,0.679-0.66,1.046-0.954
					c1.909-1.67,4.056-2.918,6.313-3.762c7.213-2.643,15.636-1.083,21.436,4.716C129.021,232.877,130.599,241.301,127.938,248.532z"
					/>
				<path style="fill:#F39E22;" d="M127.938,248.532c-0.183,0.514-0.404,1.028-0.642,1.541c-1.762,0.367-3.579,0.569-5.451,0.569
					c-13.948,0-25.382-10.791-26.354-24.501c1.909-1.67,4.056-2.918,6.313-3.762c7.213-2.643,15.636-1.083,21.436,4.716
					C129.021,232.877,130.599,241.301,127.938,248.532z"/>
				<path style="fill:#3F5D77;" d="M121.704,241.486c0,5.538-3.513,10.269-8.427,12.082c-1.388,0.496-2.875,0.779-4.433,0.779
					c-7.11,0-12.861-5.765-12.861-12.861c0-7.11,5.751-12.861,12.861-12.861c1.558,0,3.045,0.283,4.433,0.779
					C118.191,231.218,121.704,235.934,121.704,241.486z"/>
				<ellipse style="fill:#2E3140;" cx="113.277" cy="241.486" rx="8.427" ry="12.082"/>
				<circle style="fill:#83D5EF;" cx="108.84" cy="238.452" r="6.339"/>
			</g>
			<g>
				<g>
					<g>
						<path style="fill:#EA792E;" d="M244.88,318.97c-0.26,2.23-0.95,4.35-2.02,6.27c-1.06,1.91-2.5,3.62-4.26,5l-29.21,22.97
							c-2.72,2.15-6.28,2.92-9.65,2.09l-6.27-1.53l-17.93-4.39c-2.25-0.55-4.27-1.78-5.8-3.53l-30.64-35.01
							c-2.66-3.04-3.49-7.26-2.18-11.08c0.64-1.88,1.75-3.52,3.19-4.79s3.21-2.18,5.15-2.59l40.43-8.51l9.93-2.09
							c2.76-0.58,5.64-0.1,8.07,1.33l33.08,19.58C242.45,306.05,245.62,312.42,244.88,318.97z"/>
					</g>
					<g>
						<path style="fill:#F39E22;" d="M147.118,303.669c-1.69,0-3.177-1.228-3.452-2.949c-0.305-1.909,0.996-3.703,2.904-4.008
							l38.568-6.157c1.907-0.312,3.703,0.995,4.008,2.904c0.305,1.909-0.996,3.703-2.904,4.008l-38.568,6.157
							C147.487,303.654,147.301,303.669,147.118,303.669z"/>
					</g>
					<g>
						<path style="fill:#F39E22;" d="M156.471,313.77c-1.908,0-3.469-1.531-3.499-3.445c-0.03-1.933,1.512-3.524,3.445-3.555
							l53.427-0.836c1.948,0.008,3.524,1.513,3.554,3.445s-1.512,3.524-3.445,3.555l-53.427,0.836
							C156.508,313.77,156.49,313.77,156.471,313.77z"/>
					</g>
					<g>
						<path style="fill:#F39E22;" d="M203.365,331.039c-0.155,0-0.312-0.01-0.47-0.031l-40.632-5.458
							c-1.916-0.257-3.26-2.019-3.003-3.935s2.021-3.262,3.935-3.003l40.632,5.458c1.916,0.257,3.26,2.019,3.003,3.935
							C206.594,329.763,205.091,331.039,203.365,331.039z"/>
					</g>
					<g>
						<path style="fill:#F39E22;" d="M192.299,344.451c-0.26,0-0.524-0.029-0.788-0.09l-21.123-4.861
							c-1.884-0.434-3.059-2.312-2.625-4.196c0.433-1.883,2.311-3.059,4.196-2.626l21.123,4.861
							c1.884,0.434,3.059,2.312,2.625,4.196C195.334,343.354,193.894,344.451,192.299,344.451z"/>
					</g>
				</g>
				<path style="fill:#2E3140;" d="M244.88,318.97c-0.26,2.23-0.95,4.35-2.02,6.27c-0.11,0.19-0.22,0.38-0.34,0.57
					c-1.01,1.68-2.34,3.19-3.92,4.43l-29.21,22.97c-2.72,2.15-6.28,2.92-9.65,2.09l-6.27-1.53l28.23-22.22
					c2.65-2.07,4.58-4.88,5.59-8.03c0.33-1.04,0.57-2.12,0.69-3.23c0.07-0.64,0.11-1.27,0.11-1.9c0-5.86-3.09-11.35-8.21-14.38
					l-33.09-19.58c-0.36-0.21-0.72-0.4-1.1-0.56l9.93-2.09c2.76-0.58,5.64-0.1,8.07,1.33l33.08,19.58
					C242.45,306.05,245.62,312.42,244.88,318.97z"/>
				<path style="fill:#3F5D77;" d="M244.88,318.97c-0.26,2.23-0.95,4.35-2.02,6.27c-0.11,0.19-0.22,0.38-0.34,0.57
					c-5.24-0.43-10.32-1.21-15.23-2.29c0.33-1.04,0.57-2.12,0.69-3.23c0.07-0.64,0.11-1.27,0.11-1.9c0-5.86-3.09-11.35-8.21-14.38
					l-33.09-19.58c-0.36-0.21-0.72-0.4-1.1-0.56l9.93-2.09c2.76-0.58,5.64-0.1,8.07,1.33l33.08,19.58
					C242.45,306.05,245.62,312.42,244.88,318.97z"/>
			</g>
		</g>
		<g>
			<path style="fill:#EA792E;" d="M296.77,184.83l-10.97-1.69l-91.56-14.1l-6.3-0.97c16.21-29.52,24.69-37.35,51.76-31.15
				C266.77,143.12,296.77,184.83,296.77,184.83z"/>
			<path style="fill:#2E3140;" d="M296.77,184.83l-10.97-1.69c-3.95-4.51-8.76-9.65-14.08-14.56c-9.71-8.99-21.1-17.27-32.02-19.77
				c-10.81-2.47-18.66-2.71-25.22-0.21c-7.61,2.89-13.48,9.45-20.24,20.44l-6.3-0.97c7.05-12.85,12.65-21.59,18.94-26.84
				c8.17-6.84,17.53-7.81,32.82-4.31c16,3.66,33.02,19.73,44.27,32.26C291.75,177.85,296.77,184.83,296.77,184.83z"/>
			<path style="fill:#3F5D77;" d="M283.97,169.18c-4.17-0.03-8.26-0.24-12.25-0.6c-9.71-8.99-21.1-17.27-32.02-19.77
				c-10.81-2.47-18.66-2.71-25.22-0.21c-2.92-2.31-5.46-4.78-7.6-7.37c8.17-6.84,17.53-7.81,32.82-4.31
				C255.7,140.58,272.72,156.65,283.97,169.18z"/>
			<g>
				<g>
					<path style="fill:#F39E22;" d="M211.996,173.42c-0.569,0-1.145-0.139-1.679-0.432c-1.695-0.929-2.316-3.056-1.388-4.751
						l8.082-14.753c0.929-1.695,3.057-2.317,4.751-1.388c1.695,0.929,2.316,3.056,1.388,4.751l-8.082,14.753
						C214.432,172.762,213.232,173.42,211.996,173.42z"/>
				</g>
				<g>
					<path style="fill:#F39E22;" d="M229.643,177.993c-0.569,0-1.147-0.14-1.681-0.433c-1.694-0.931-2.314-3.058-1.384-4.752
						l10.259-18.691c0.932-1.696,3.06-2.313,4.752-1.385c1.694,0.931,2.314,3.058,1.384,4.752l-10.259,18.691
						C232.077,177.337,230.878,177.993,229.643,177.993z"/>
				</g>
				<g>
					<path style="fill:#F39E22;" d="M247.512,181.899c-0.515,0-1.037-0.114-1.531-0.354c-1.737-0.847-2.46-2.941-1.613-4.68
						l6.457-13.252c0.848-1.737,2.944-2.457,4.68-1.613c1.737,0.847,2.46,2.941,1.613,4.68l-6.457,13.252
						C250.055,181.176,248.809,181.899,247.512,181.899z"/>
				</g>
				<g>
					<path style="fill:#F39E22;" d="M262.962,185.82c-0.494,0-0.996-0.105-1.473-0.327c-1.753-0.815-2.513-2.896-1.698-4.649
						l3.459-7.439c0.815-1.753,2.896-2.514,4.649-1.698c1.753,0.815,2.513,2.896,1.698,4.649l-3.459,7.439
						C265.545,185.07,264.282,185.82,262.962,185.82z"/>
				</g>
			</g>
		</g>
	</g>
</g>
</svg>
