<?xml version="1.0" encoding="iso-8859-1"?>
<!-- Generator: Adobe Illustrator 22.0.1, SVG Export Plug-In . SVG Version: 6.00 Build 0)  -->
<svg version="1.1" id="Icons" xmlns="http://www.w3.org/2000/svg" xmlns:xlink="http://www.w3.org/1999/xlink" x="0px" y="0px"
	 viewBox="0 0 512 512" style="enable-background:new 0 0 512 512;" xml:space="preserve">
<g>
	<circle style="fill:#53B976;" cx="256" cy="256" r="256"/>
	<g>
		<g>
			<g>
				<path style="fill:#DEB36F;" d="M268.339,450.954h-24.677c-87.187,0-156.132-73.831-150.181-160.805l8.612-125.859
					c3.679-53.637,48.254-95.266,102.022-95.266h103.772c53.767,0,98.342,41.63,102.022,95.266l8.612,125.859
					C424.47,377.123,355.525,450.954,268.339,450.954z"/>
				<path style="fill:#FBCB74;" d="M268.34,450.95H256V69.02h51.89c25.15,0,48.29,9.11,66.17,24.3
					c20.35,17.28,33.89,42.42,35.85,70.97l8.61,125.86C424.47,377.12,355.53,450.95,268.34,450.95z"/>
			</g>
			<g>
				<path style="fill:#F39E22;" d="M374.06,93.32l-61.72,25.49L256,137.11V69.02h51.89C333.04,69.02,356.18,78.13,374.06,93.32z"/>
				<path style="fill:#EA792E;" d="M137.94,93.32l61.72,25.49l56.34,18.3V69.02h-51.89C178.96,69.02,155.82,78.13,137.94,93.32z"/>
			</g>
			<g>
				<path style="fill:#F9C744;" d="M381.972,288.222l-30.941,42.753c-16.15,22.322-42.028,35.539-69.572,35.539H256V129.373
					c18.053,0,38.869-5.028,56.344-10.566c21.937-6.966,45.516,4.281,54.113,25.629l25.391,63.071
					C402.652,234.325,398.914,264.801,381.972,288.222z"/>
				<path style="fill:#F39E22;" d="M256,129.37c-18.051,0-38.867-5.023-56.344-10.566c-21.935-6.957-45.515,4.289-54.11,25.635
					l-25.396,63.069c-10.798,26.815-7.066,57.296,9.881,80.714l30.943,42.758c16.15,22.316,42.025,35.531,69.572,35.531H256
					L256,129.37z"/>
			</g>
			<g>
				<path style="fill:#FBD9A3;" d="M316.888,425.537h-58.874c-1.112,0-2.014-0.902-2.014-2.014v-44.994
					c0-1.112,0.902-2.014,2.014-2.014h58.874c13.537,0,24.511,10.974,24.511,24.511v0
					C341.4,414.563,330.426,425.537,316.888,425.537z"/>
				<path style="fill:#FBCB74;" d="M195.112,376.514h58.874c1.112,0,2.014,0.902,2.014,2.014v44.994
					c0,1.112-0.902,2.014-2.014,2.014h-58.874c-13.537,0-24.511-10.974-24.511-24.511v0
					C170.6,387.488,181.574,376.514,195.112,376.514z"/>
			</g>
		</g>
		<g>
			<g>
				<path style="fill:#F4E6F4;" d="M367.23,282.77l-27.29,37.7l-0.03,0.05c-14.26,19.71-37.11,31.38-61.43,31.38H256V142.51
					c15.94,0,34.32-4.44,49.75-9.33c19.37-6.15,40.19,3.78,47.78,22.63l22.42,55.69C385.49,235.18,382.19,262.09,367.23,282.77z"/>
				<path style="fill:#DECEE5;" d="M256,142.51V351.9h-22.48c-24.32,0-47.17-11.67-61.43-31.38l-27.32-37.75
					c-14.96-20.68-18.26-47.59-8.72-71.27l22.42-55.69c7.59-18.85,28.41-28.78,47.78-22.63C221.68,138.07,240.06,142.51,256,142.51z
					"/>
			</g>
			<g>
				<path style="fill:#F4E6F4;" d="M256,285.3v66.6h-22.48c-24.32,0-47.17-11.67-61.43-31.38l18.456-18.451
					c10.741-10.738,25.306-16.77,40.494-16.77H256z"/>
				<path style="fill:#FFFFFF;" d="M339.94,320.47l-0.03,0.05c-14.26,19.71-37.11,31.38-61.43,31.38H256v-66.6h25.046
					c15.19,0,29.758,6.034,40.499,16.775L339.94,320.47z"/>
			</g>
			<g>
				<path style="fill:#FFFFFF;" d="M318.874,191.32L318.874,191.32c-14.442,0-25.12,13.451-21.843,27.517l4.812,20.653
					c4.318,18.535-9.752,36.26-28.784,36.26H256V142.51c15.94,0,34.32-4.44,49.75-9.33c19.37-6.15,40.19,3.78,47.78,22.63
					l-14.048,23.755C335.173,186.851,327.338,191.32,318.874,191.32z"/>
				<path style="fill:#F4E6F4;" d="M193.126,191.32L193.126,191.32c14.442,0,25.12,13.451,21.843,27.517l-4.812,20.653
					c-4.318,18.535,9.752,36.26,28.784,36.26H256V142.51c-15.94,0-34.32-4.44-49.75-9.33c-19.37-6.15-40.19,3.78-47.78,22.63
					l14.048,23.755C176.827,186.851,184.662,191.32,193.126,191.32z"/>
			</g>
		</g>
		<g>
			<g>
				<path style="fill:#3E4E60;" d="M334.423,196.258c4.942,8.559,2.078,19.474-6.395,24.51c-0.065,0.054-0.138,0.095-0.21,0.137
					l-10.871,6.276c-4.31,2.488-9.23,3.002-13.692,1.806c-4.474-1.189-8.472-4.081-10.967-8.403
					c-4.636-8.03-2.403-18.147,4.878-23.523c0.548-0.413,1.129-0.796,1.731-1.144l10.871-6.276c4.322-2.495,9.237-2.99,13.699-1.794
					C327.93,189.044,331.928,191.936,334.423,196.258z"/>
				<path style="fill:#2E3140;" d="M334.423,196.258c4.942,8.559,2.078,19.474-6.395,24.51c-10.916-0.391-21.77-6.708-28.019-17.531
					c-1.161-2.01-2.113-4.077-2.843-6.175c0.548-0.413,1.129-0.796,1.731-1.144l10.871-6.276c4.322-2.495,9.237-2.99,13.699-1.794
					C327.93,189.044,331.928,191.936,334.423,196.258z"/>
				<path style="fill:#FFFFFF;" d="M317.184,194.767l-6.541,3.776c-2.816,1.626-3.781,5.227-2.155,8.044l0,0
					c1.626,2.816,5.227,3.781,8.044,2.155l6.541-3.776c2.816-1.626,3.781-5.227,2.155-8.044v0
					C323.601,194.106,320,193.141,317.184,194.767z"/>
			</g>
			<g>
				<path style="fill:#3E4E60;" d="M177.578,196.258c-4.942,8.559-2.078,19.474,6.395,24.51c0.065,0.054,0.137,0.095,0.21,0.137
					l10.871,6.276c4.31,2.488,9.23,3.002,13.692,1.806c4.474-1.189,8.472-4.081,10.967-8.403c4.636-8.03,2.403-18.147-4.878-23.523
					c-0.548-0.413-1.129-0.796-1.731-1.144l-10.871-6.276c-4.322-2.495-9.237-2.99-13.699-1.794
					C184.071,189.044,180.074,191.936,177.578,196.258z"/>
				<path style="fill:#2E3140;" d="M177.578,196.258c-4.942,8.559-2.078,19.474,6.395,24.51c10.916-0.391,21.77-6.708,28.019-17.531
					c1.161-2.01,2.113-4.077,2.843-6.175c-0.548-0.413-1.129-0.796-1.731-1.144l-10.871-6.276c-4.322-2.495-9.237-2.99-13.699-1.794
					C184.071,189.044,180.074,191.936,177.578,196.258z"/>
				<path style="fill:#FFFFFF;" d="M194.818,194.767l6.541,3.776c2.816,1.626,3.781,5.227,2.155,8.044l0,0
					c-1.626,2.816-5.227,3.781-8.044,2.155l-6.541-3.776c-2.816-1.626-3.781-5.227-2.155-8.044v0
					C188.4,194.106,192.001,193.141,194.818,194.767z"/>
			</g>
		</g>
		<g>
			<path style="fill:#F0A6B3;" d="M256,259.989v73.791l0,0c5.428,0,10.159-3.697,11.47-8.964l9.652-38.763
				c3.298-13.244-6.721-26.064-20.37-26.064H256z"/>
			<path style="fill:#F4829B;" d="M256,259.989v73.791h0c-5.428,0-10.159-3.697-11.47-8.964l-9.652-38.763
				c-3.298-13.244,6.721-26.064,20.37-26.064H256z"/>
		</g>
	</g>
</g>
</svg>
