<?xml version="1.0" encoding="iso-8859-1"?>
<!-- Generator: Adobe Illustrator 22.0.1, SVG Export Plug-In . SVG Version: 6.00 Build 0)  -->
<svg version="1.1" id="Icons" xmlns="http://www.w3.org/2000/svg" xmlns:xlink="http://www.w3.org/1999/xlink" x="0px" y="0px"
	 viewBox="0 0 512 512" style="enable-background:new 0 0 512 512;" xml:space="preserve">
<g>
	<circle style="fill:#53B976;" cx="256" cy="256" r="256"/>
	<g>
		<g>
			<g>
				<g>
					<g>
						<path style="fill:#2E3140;" d="M321.116,288.771c0,5.986-4.857,10.844-10.852,10.844h-40.322
							c-5.994,0-10.852-4.857-10.852-10.844c-0.048-5.891,4.872-10.893,10.852-10.852c0,0,40.322,0,40.322,0
							C316.308,277.9,321.154,282.905,321.116,288.771z"/>
						<path style="fill:#334353;" d="M320.205,284.407c-1.68,3.821-5.501,6.488-9.941,6.488h-40.322c-4.439,0-8.26-2.667-9.94-6.488
							c1.721-3.892,5.537-6.478,9.94-6.488c0,0,40.322,0,40.322,0C314.703,277.92,318.524,280.586,320.205,284.407z"/>
						<path style="fill:#3F5D77;" d="M301.773,282.404h-23.34c-4.69,0-8.491,3.802-8.491,8.491h40.322
							C310.264,286.205,306.462,282.404,301.773,282.404z"/>
					</g>
					<g>
						<path style="fill:#2E3140;" d="M359.671,336.044c-2.53,2.53-6.635,2.53-9.168-0.003l-31.125-31.125
							c-2.533-2.533-2.533-6.638-0.003-9.168c2.47-2.51,6.662-2.544,9.172,0c0,0,31.125,31.125,31.125,31.125
							C362.233,329.418,362.166,333.581,359.671,336.044z"/>
						<path style="fill:#334353;" d="M361.13,333.815c-2.325,0.904-5.066,0.417-6.942-1.459l-31.125-31.125
							c-1.876-1.876-2.364-4.618-1.459-6.942c2.372-0.917,5.078-0.398,6.942,1.459c0,0,31.125,31.125,31.125,31.125
							C361.547,328.749,362.035,331.49,361.13,333.815z"/>
						<path style="fill:#3F5D77;" d="M354.188,325.18l-23.949-23.949c-1.982-1.982-5.195-1.982-7.176,0l31.125,31.125
							C356.17,330.374,356.17,327.161,354.188,325.18z"/>
					</g>
					<g>
						<g>
							<path style="fill:#2E3140;" d="M380.686,414.596c1.204-1.204,1.204-3.157,0-4.361l-10.456-10.456
								c-2.944-2.801-7.166,1.41-4.361,4.361c0,0,10.456,10.456,10.456,10.456C377.529,415.801,379.482,415.801,380.686,414.596z"/>
							<path style="fill:#2E3140;" d="M373.784,421.498c1.204-1.204,1.204-3.157,0-4.361l-10.456-10.456
								c-2.944-2.801-7.166,1.41-4.361,4.361c0,0,10.456,10.456,10.456,10.456C370.628,422.702,372.58,422.702,373.784,421.498z"/>
						</g>
						<g>
							<path style="fill:#2E3140;" d="M361.569,408.074c-3.577,0-6.48-2.903-6.48-6.485v-57.622c0-3.582,2.903-6.485,6.48-6.485
								c3.521-0.028,6.51,2.911,6.485,6.485c0,0,0,57.622,0,57.622C368.066,405.201,365.075,408.097,361.569,408.074z"/>
							<path style="fill:#334353;" d="M364.177,407.53c-2.283-1.004-3.877-3.288-3.877-5.941v-57.622
								c0-2.653,1.594-4.936,3.877-5.941c2.326,1.029,3.872,3.309,3.877,5.941c0,0,0,57.622,0,57.622
								C368.054,404.242,366.46,406.525,364.177,407.53z"/>
							<path style="fill:#3F5D77;" d="M365.374,396.514v-47.473c0-2.803-2.272-5.074-5.074-5.074v57.622
								C363.102,401.589,365.374,399.317,365.374,396.514z"/>
						</g>
					</g>
				</g>
				<g>
					<g>
						<path style="fill:#2E3140;" d="M190.884,288.771c0,5.986,4.857,10.844,10.852,10.844h40.322
							c5.994,0,10.852-4.857,10.852-10.844c0.048-5.891-4.872-10.893-10.852-10.852c0,0-40.322,0-40.322,0
							C195.692,277.9,190.846,282.905,190.884,288.771z"/>
						<path style="fill:#334353;" d="M191.795,284.407c1.68,3.821,5.501,6.488,9.941,6.488h40.322c4.439,0,8.26-2.667,9.94-6.488
							c-1.721-3.892-5.537-6.478-9.94-6.488c0,0-40.322,0-40.322,0C197.297,277.92,193.476,280.586,191.795,284.407z"/>
						<path style="fill:#3F5D77;" d="M210.227,282.404h23.34c4.69,0,8.491,3.802,8.491,8.491h-40.322
							C201.736,286.205,205.538,282.404,210.227,282.404z"/>
					</g>
					<g>
						<path style="fill:#2E3140;" d="M152.329,336.044c2.53,2.53,6.635,2.53,9.168-0.003l31.125-31.125
							c2.533-2.533,2.533-6.638,0.003-9.168c-2.47-2.51-6.662-2.544-9.172,0c0,0-31.125,31.125-31.125,31.125
							C149.767,329.418,149.834,333.581,152.329,336.044z"/>
						<path style="fill:#334353;" d="M150.87,333.815c2.325,0.904,5.066,0.417,6.942-1.459l31.125-31.125
							c1.876-1.876,2.364-4.618,1.459-6.942c-2.372-0.917-5.078-0.398-6.942,1.459c0,0-31.125,31.125-31.125,31.125
							C150.453,328.749,149.965,331.49,150.87,333.815z"/>
						<path style="fill:#3F5D77;" d="M157.812,325.18l23.949-23.949c1.982-1.982,5.195-1.982,7.176,0l-31.125,31.125
							C155.83,330.374,155.83,327.161,157.812,325.18z"/>
					</g>
					<g>
						<g>
							<path style="fill:#2E3140;" d="M131.314,414.596c-1.204-1.204-1.204-3.157,0-4.361l10.456-10.456
								c2.944-2.801,7.166,1.41,4.361,4.361c0,0-10.456,10.456-10.456,10.456C134.471,415.801,132.518,415.801,131.314,414.596z"/>
							<path style="fill:#2E3140;" d="M138.216,421.498c-1.204-1.204-1.204-3.157,0-4.361l10.456-10.456
								c2.944-2.801,7.166,1.41,4.361,4.361c0,0-10.456,10.456-10.456,10.456C141.372,422.702,139.42,422.702,138.216,421.498z"/>
						</g>
						<g>
							<path style="fill:#2E3140;" d="M150.431,408.074c3.577,0,6.48-2.903,6.48-6.485v-57.622c0-3.582-2.903-6.485-6.48-6.485
								c-3.521-0.028-6.51,2.911-6.485,6.485c0,0,0,57.622,0,57.622C143.934,405.201,146.925,408.097,150.431,408.074z"/>
							<path style="fill:#334353;" d="M147.823,407.53c2.283-1.004,3.877-3.288,3.877-5.941v-57.622
								c0-2.653-1.594-4.936-3.877-5.941c-2.326,1.029-3.872,3.309-3.877,5.941c0,0,0,57.622,0,57.622
								C143.946,404.242,145.54,406.525,147.823,407.53z"/>
							<path style="fill:#3F5D77;" d="M146.626,396.514v-47.473c0-2.803,2.272-5.074,5.074-5.074v57.622
								C148.898,401.589,146.626,399.317,146.626,396.514z"/>
						</g>
					</g>
				</g>
			</g>
			<g>
				<g>
					<g>
						<path style="fill:#2E3140;" d="M343.408,255.895c0,5.986-4.857,10.844-10.852,10.844h-40.322
							c-5.994,0-10.852-4.857-10.852-10.844c-0.048-5.891,4.872-10.893,10.852-10.852c0,0,40.322,0,40.322,0
							C338.6,245.023,343.446,250.028,343.408,255.895z"/>
						<path style="fill:#334353;" d="M342.497,251.531c-1.68,3.821-5.501,6.488-9.941,6.488h-40.322c-4.439,0-8.26-2.667-9.94-6.488
							c1.721-3.892,5.537-6.478,9.94-6.488c0,0,40.322,0,40.322,0C336.995,245.043,340.816,247.71,342.497,251.531z"/>
						<path style="fill:#3F5D77;" d="M324.065,249.527h-23.34c-4.69,0-8.491,3.802-8.491,8.491h40.322
							C332.556,253.329,328.754,249.527,324.065,249.527z"/>
					</g>
					<g>
						<path style="fill:#2E3140;" d="M400.785,255.893c0,3.577-2.903,6.48-6.485,6.48h-44.018c-3.582,0-6.485-2.903-6.485-6.48
							c-0.028-3.521,2.912-6.51,6.485-6.485c0,0,44.018,0,44.018,0C397.911,249.396,400.807,252.387,400.785,255.893z"/>
						<path style="fill:#334353;" d="M400.24,253.285c-1.004,2.283-3.288,3.877-5.941,3.877h-44.018
							c-2.653,0-4.936-1.594-5.941-3.877c1.028-2.326,3.309-3.872,5.941-3.877c0,0,44.018,0,44.018,0
							C396.953,249.408,399.236,251.002,400.24,253.285z"/>
						<path style="fill:#3F5D77;" d="M389.225,252.088h-33.869c-2.803,0-5.074,2.272-5.074,5.074h44.018
							C394.299,254.36,392.028,252.088,389.225,252.088z"/>
					</g>
					<g>
						<g>
							<path style="fill:#2E3140;" d="M465.797,303.05c0-1.703-1.381-3.084-3.084-3.084h-14.788c-1.703,0-3.084,1.381-3.084,3.084
								s1.381,3.084,3.084,3.084h14.788C464.417,306.134,465.797,304.753,465.797,303.05z"/>
							<path style="fill:#2E3140;" d="M465.797,312.811c0-1.703-1.381-3.084-3.084-3.084h-14.788c-1.703,0-3.084,1.381-3.084,3.084
								c0,1.703,1.381,3.084,3.084,3.084h14.788C464.417,315.894,465.797,314.513,465.797,312.811z"/>
						</g>
						<g>
							<path style="fill:#2E3140;" d="M447.667,311.956c-2.53,2.53-6.635,2.53-9.168-0.003l-40.745-40.745
								c-2.533-2.533-2.533-6.638-0.003-9.168c2.47-2.51,6.662-2.544,9.172,0c0,0,40.745,40.745,40.745,40.745
								C450.23,305.33,450.163,309.493,447.667,311.956z"/>
							<path style="fill:#334353;" d="M449.127,309.727c-2.325,0.904-5.066,0.417-6.942-1.459l-40.745-40.745
								c-1.876-1.876-2.364-4.618-1.459-6.942c2.372-0.917,5.078-0.398,6.942,1.459c0,0,40.745,40.745,40.745,40.745
								C449.543,304.661,450.031,307.402,449.127,309.727z"/>
							<path style="fill:#3F5D77;" d="M442.184,301.091l-33.568-33.568c-1.982-1.982-5.195-1.982-7.176,0l40.745,40.745
								C444.166,306.286,444.166,303.073,442.184,301.091z"/>
						</g>
					</g>
				</g>
				<g>
					<g>
						<path style="fill:#2E3140;" d="M168.592,255.895c0,5.986,4.857,10.844,10.852,10.844h40.322
							c5.994,0,10.852-4.857,10.852-10.844c0.048-5.891-4.872-10.893-10.852-10.852c0,0-40.322,0-40.322,0
							C173.4,245.023,168.554,250.028,168.592,255.895z"/>
						<path style="fill:#334353;" d="M169.503,251.531c1.68,3.821,5.501,6.488,9.941,6.488h40.322c4.439,0,8.26-2.667,9.94-6.488
							c-1.721-3.892-5.537-6.478-9.94-6.488c0,0-40.322,0-40.322,0C175.005,245.043,171.184,247.71,169.503,251.531z"/>
						<path style="fill:#3F5D77;" d="M187.935,249.527h23.34c4.69,0,8.491,3.802,8.491,8.491h-40.322
							C179.444,253.329,183.246,249.527,187.935,249.527z"/>
					</g>
					<g>
						<path style="fill:#2E3140;" d="M111.215,255.893c0,3.577,2.903,6.48,6.485,6.48h44.018c3.582,0,6.485-2.903,6.485-6.48
							c0.028-3.521-2.912-6.51-6.485-6.485c0,0-44.018,0-44.018,0C114.089,249.396,111.193,252.387,111.215,255.893z"/>
						<path style="fill:#334353;" d="M111.76,253.285c1.004,2.283,3.288,3.877,5.941,3.877h44.018c2.653,0,4.936-1.594,5.941-3.877
							c-1.028-2.326-3.309-3.872-5.941-3.877c0,0-44.018,0-44.018,0C115.047,249.408,112.764,251.002,111.76,253.285z"/>
						<path style="fill:#3F5D77;" d="M122.775,252.088h33.869c2.803,0,5.074,2.272,5.074,5.074h-44.018
							C117.701,254.36,119.972,252.088,122.775,252.088z"/>
					</g>
					<g>
						<g>
							<path style="fill:#2E3140;" d="M46.203,303.05c0-1.703,1.381-3.084,3.084-3.084h14.788c1.703,0,3.084,1.381,3.084,3.084
								s-1.381,3.084-3.084,3.084H49.286C47.583,306.134,46.203,304.753,46.203,303.05z"/>
							<path style="fill:#2E3140;" d="M46.203,312.811c0-1.703,1.381-3.084,3.084-3.084h14.788c1.703,0,3.084,1.381,3.084,3.084
								c0,1.703-1.381,3.084-3.084,3.084H49.286C47.583,315.894,46.203,314.513,46.203,312.811z"/>
						</g>
						<g>
							<path style="fill:#2E3140;" d="M64.333,311.956c2.53,2.53,6.635,2.53,9.168-0.003l40.745-40.745
								c2.533-2.533,2.533-6.638,0.003-9.168c-2.47-2.51-6.662-2.544-9.172,0c0,0-40.745,40.745-40.745,40.745
								C61.77,305.33,61.837,309.493,64.333,311.956z"/>
							<path style="fill:#334353;" d="M62.873,309.727c2.325,0.904,5.066,0.417,6.942-1.459l40.745-40.745
								c1.876-1.876,2.364-4.618,1.459-6.942c-2.372-0.917-5.078-0.398-6.942,1.459c0,0-40.745,40.745-40.745,40.745
								C62.457,304.661,61.969,307.402,62.873,309.727z"/>
							<path style="fill:#3F5D77;" d="M69.816,301.091l33.568-33.568c1.982-1.982,5.195-1.982,7.176,0l-40.745,40.745
								C67.834,306.286,67.834,303.073,69.816,301.091z"/>
						</g>
					</g>
				</g>
			</g>
			<g>
				<g>
					<g>
						<path style="fill:#2E3140;" d="M326.511,191.527c4.233,4.233,4.233,11.102-0.006,15.341l-28.512,28.512
							c-4.239,4.239-11.108,4.239-15.341,0.006c-4.2-4.132-4.257-11.148,0-15.347c0,0,28.512-28.512,28.512-28.512
							C315.424,187.239,322.389,187.351,326.511,191.527z"/>
						<path style="fill:#334353;" d="M322.78,189.085c1.513,3.89,0.697,8.477-2.442,11.617l-28.512,28.512
							c-3.139,3.139-7.727,3.955-11.616,2.442c-1.535-3.969-0.665-8.496,2.441-11.617c0,0,28.512-28.512,28.512-28.512
							C314.303,188.387,318.89,187.571,322.78,189.085z"/>
						<path style="fill:#3F5D77;" d="M308.33,200.702l-16.504,16.504c-3.316,3.316-3.316,8.692,0,12.008l28.512-28.512
							C317.023,197.386,311.646,197.386,308.33,200.702z"/>
					</g>
					<g>
						<path style="fill:#2E3140;" d="M367.201,150.834c2.53,2.53,2.53,6.635-0.003,9.168l-31.125,31.125
							c-2.533,2.533-6.638,2.533-9.168,0.003c-2.51-2.47-2.544-6.662,0-9.172c0,0,31.125-31.125,31.125-31.125
							C360.575,148.271,364.738,148.338,367.201,150.834z"/>
						<path style="fill:#334353;" d="M364.972,149.374c0.904,2.325,0.417,5.066-1.459,6.942l-31.125,31.125
							c-1.876,1.876-4.618,2.364-6.942,1.459c-0.917-2.372-0.398-5.078,1.459-6.942c0,0,31.125-31.125,31.125-31.125
							C359.906,148.957,362.647,148.47,364.972,149.374z"/>
						<path style="fill:#3F5D77;" d="M356.336,156.317l-23.949,23.949c-1.982,1.982-1.982,5.195,0,7.176l31.125-31.125
							C361.531,154.335,358.318,154.335,356.336,156.317z"/>
					</g>
					<g>
						<g>
							<path style="fill:#2E3140;" d="M435.356,201.947c0-1.703-1.381-3.084-3.084-3.084h-14.788c-1.703,0-3.084,1.381-3.084,3.084
								c0,1.703,1.381,3.084,3.084,3.084h14.788C433.975,205.03,435.356,203.65,435.356,201.947z"/>
							<path style="fill:#2E3140;" d="M435.356,211.707c0-1.703-1.381-3.084-3.084-3.084h-14.788c-1.703,0-3.084,1.381-3.084,3.084
								s1.381,3.084,3.084,3.084h14.788C433.975,214.79,435.356,213.41,435.356,211.707z"/>
						</g>
						<g>
							<path style="fill:#2E3140;" d="M417.226,210.853c-2.53,2.53-6.635,2.53-9.168-0.003l-40.745-40.745
								c-2.533-2.533-2.533-6.638-0.003-9.168c2.47-2.51,6.662-2.545,9.172,0c0,0,40.745,40.745,40.745,40.745
								C419.788,204.227,419.721,208.39,417.226,210.853z"/>
							<path style="fill:#334353;" d="M418.685,208.623c-2.325,0.904-5.066,0.417-6.942-1.459l-40.745-40.745
								c-1.876-1.876-2.364-4.618-1.459-6.942c2.372-0.917,5.078-0.398,6.942,1.459c0,0,40.745,40.745,40.745,40.745
								C419.102,203.557,419.59,206.299,418.685,208.623z"/>
							<path style="fill:#3F5D77;" d="M411.743,199.988l-33.568-33.568c-1.982-1.982-5.195-1.982-7.176,0l40.745,40.745
								C413.725,205.182,413.725,201.969,411.743,199.988z"/>
						</g>
					</g>
				</g>
				<g>
					<g>
						<path style="fill:#2E3140;" d="M185.489,191.527c-4.233,4.233-4.233,11.102,0.006,15.341l28.512,28.512
							c4.239,4.239,11.108,4.239,15.341,0.006c4.2-4.132,4.257-11.148,0-15.347c0,0-28.512-28.512-28.512-28.512
							C196.576,187.239,189.611,187.351,185.489,191.527z"/>
						<path style="fill:#334353;" d="M189.22,189.085c-1.513,3.89-0.697,8.477,2.442,11.617l28.512,28.512
							c3.139,3.139,7.727,3.955,11.616,2.442c1.535-3.969,0.665-8.496-2.441-11.617c0,0-28.512-28.512-28.512-28.512
							C197.697,188.387,193.11,187.571,189.22,189.085z"/>
						<path style="fill:#3F5D77;" d="M203.67,200.702l16.504,16.504c3.316,3.316,3.316,8.692,0,12.008l-28.512-28.512
							C194.977,197.386,200.354,197.386,203.67,200.702z"/>
					</g>
					<g>
						<path style="fill:#2E3140;" d="M144.799,150.834c-2.53,2.53-2.53,6.635,0.003,9.168l31.125,31.125
							c2.533,2.533,6.638,2.533,9.168,0.003c2.51-2.47,2.544-6.662,0-9.172c0,0-31.125-31.125-31.125-31.125
							C151.425,148.271,147.262,148.338,144.799,150.834z"/>
						<path style="fill:#334353;" d="M147.028,149.374c-0.904,2.325-0.417,5.066,1.459,6.942l31.125,31.125
							c1.876,1.876,4.618,2.364,6.942,1.459c0.917-2.372,0.398-5.078-1.459-6.942c0,0-31.125-31.125-31.125-31.125
							C152.094,148.957,149.353,148.47,147.028,149.374z"/>
						<path style="fill:#3F5D77;" d="M155.664,156.317l23.949,23.949c1.982,1.982,1.982,5.195,0,7.176l-31.125-31.125
							C150.469,154.335,153.682,154.335,155.664,156.317z"/>
					</g>
					<g>
						<g>
							<path style="fill:#2E3140;" d="M76.644,201.947c0-1.703,1.381-3.084,3.084-3.084h14.788c1.703,0,3.084,1.381,3.084,3.084
								s-1.381,3.084-3.084,3.084H79.728C78.025,205.03,76.644,203.65,76.644,201.947z"/>
							<path style="fill:#2E3140;" d="M76.644,211.707c0-1.703,1.381-3.084,3.084-3.084h14.788c1.703,0,3.084,1.381,3.084,3.084
								s-1.381,3.084-3.084,3.084H79.728C78.025,214.79,76.644,213.41,76.644,211.707z"/>
						</g>
						<g>
							<path style="fill:#2E3140;" d="M94.774,210.853c2.53,2.53,6.635,2.53,9.168-0.003l40.745-40.745
								c2.533-2.533,2.533-6.638,0.003-9.168c-2.47-2.51-6.662-2.545-9.172,0c0,0-40.745,40.745-40.745,40.745
								C92.212,204.227,92.279,208.39,94.774,210.853z"/>
							<path style="fill:#334353;" d="M93.315,208.623c2.325,0.904,5.066,0.417,6.942-1.459l40.745-40.745
								c1.876-1.876,2.364-4.618,1.459-6.942c-2.372-0.917-5.078-0.398-6.942,1.459c0,0-40.745,40.745-40.745,40.745
								C92.898,203.557,92.41,206.299,93.315,208.623z"/>
							<path style="fill:#3F5D77;" d="M100.257,199.988l33.568-33.568c1.982-1.982,5.195-1.982,7.176,0l-40.745,40.745
								C98.275,205.182,98.275,201.969,100.257,199.988z"/>
						</g>
					</g>
				</g>
			</g>
		</g>
		<g>
			<rect x="239.547" y="181.297" style="fill:#2E3140;" width="32.906" height="22.715"/>
			<rect x="256" y="181.297" style="fill:#334353;" width="16.453" height="22.715"/>
		</g>
		<g>
			<rect x="239.547" y="274.848" style="fill:#2E3140;" width="32.906" height="52.022"/>
			<rect x="256" y="274.848" style="fill:#334353;" width="16.453" height="52.022"/>
		</g>
		<g>
			<g>
				<path style="fill:#334353;" d="M312.605,350.401v56.278c0,15.629-6.33,29.783-16.576,40.029
					c-34.934,35.335-96.782,10.309-96.634-40.03c0,0.001,0-56.277,0-56.277c0-19.928,16.148-36.076,36.076-36.076h41.058
					C296.457,314.325,312.605,330.473,312.605,350.401z"/>
				<path style="fill:#3E4E60;" d="M312.605,350.401v56.278c0.007,31.263-25.343,56.604-56.605,56.605V314.325h20.529
					C296.457,314.325,312.605,330.473,312.605,350.401z"/>
			</g>
			<g>
				<path style="fill:#3F5D77;" d="M256,422.56L256,422.56l0-96.346h16.525c14.623,0,26.478,11.855,26.478,26.478v26.865
					C299.003,403.308,279.75,422.56,256,422.56z"/>
				<path style="fill:#3E4E60;" d="M256,422.56L256,422.56l0-96.346h-16.525c-14.623,0-26.478,11.855-26.478,26.478v26.865
					C212.997,403.308,232.25,422.56,256,422.56z"/>
			</g>
			<g>
				<path style="fill:#3F6C8E;" d="M272.91,367.984H256V339.52h16.91C291.791,340.271,291.781,367.238,272.91,367.984z"/>
				<path style="fill:#3F5D77;" d="M239.09,339.52H256v28.464h-16.91C220.209,367.233,220.219,340.266,239.09,339.52z"/>
			</g>
		</g>
		<g>
			<g>
				<path style="fill:#334353;" d="M295.264,239.191c0,10.848-4.399,38.849-11.503,45.952c-7.104,7.113-16.922,11.503-27.761,11.503
					s-20.657-4.39-27.761-11.503c-7.104-7.104-11.503-35.105-11.503-45.952c0-21.686,17.578-39.264,39.264-39.264
					C277.678,199.925,295.261,217.506,295.264,239.191z"/>
				<path style="fill:#3E4E60;" d="M295.264,239.191c0,10.848-4.399,38.849-11.503,45.952c-7.104,7.113-16.922,11.503-27.761,11.503
					v-96.719C277.678,199.925,295.261,217.506,295.264,239.191z"/>
			</g>
			<g>
				<path style="fill:#3F5D77;" d="M256,270.074c39.139-1.558,39.11-57.454,0-58.998V270.074z"/>
				<path style="fill:#3E4E60;" d="M256,211.076c-39.139,1.558-39.11,57.454,0,58.998V211.076z"/>
			</g>
			<g>
				<path style="fill:#3F6C8E;" d="M267.626,247.463H256v-19.57h11.626C280.607,228.409,280.601,246.951,267.626,247.463z"/>
				<path style="fill:#3F5D77;" d="M244.374,227.894H256v19.57h-11.626C231.393,246.947,231.399,228.406,244.374,227.894z"/>
			</g>
		</g>
		<g>
			<g>
				<path style="fill:#334353;" d="M303.616,130.931v24.91c0,14.062-11.394,25.457-25.456,25.457H233.84
					c-14.062,0-25.456-11.394-25.456-25.457v-24.91c0-24.782,20.083-44.874,44.865-44.874
					C280.18,83.827,303.517,103.501,303.616,130.931z"/>
				<path style="fill:#3E4E60;" d="M303.616,130.931v24.91c0,14.062-11.394,25.457-25.456,25.457H256V86.057
					C281.704,84.661,303.704,105.077,303.616,130.931z"/>
			</g>
			<g>
				<g>
					<path style="fill:#3F5D77;" d="M268.96,127.182h-11.918c-0.575,0-1.042-0.467-1.042-1.042V99.007
						c0-0.575,0.467-1.042,1.042-1.042h11.918C288.337,98.734,288.333,126.415,268.96,127.182z"/>
					<path style="fill:#3E4E60;" d="M243.04,97.965h11.918c0.575,0,1.042,0.467,1.042,1.042v27.133c0,0.575-0.467,1.042-1.042,1.042
						H243.04C223.663,126.413,223.667,98.732,243.04,97.965z"/>
				</g>
				<g>
					<path style="fill:#3F6C8E;" d="M268.526,117.379h-11.92c-0.334,0-0.606-0.271-0.606-0.606v-15.769
						c0-0.334,0.271-0.606,0.606-0.606h11.92C279.774,100.814,279.774,116.964,268.526,117.379z"/>
					<path style="fill:#3F5D77;" d="M243.474,100.399h11.92c0.334,0,0.606,0.271,0.606,0.606v15.769
						c0,0.334-0.271,0.606-0.606,0.606h-11.92C232.226,116.964,232.226,100.814,243.474,100.399z"/>
				</g>
			</g>
			<g>
				<g>
					<g>
						<path style="fill:#2E3140;" d="M320.979,100.897c2.53,2.53,2.53,6.635-0.003,9.168L289.85,141.19
							c-2.533,2.533-6.638,2.533-9.168,0.003c-2.51-2.47-2.544-6.662,0-9.172c0,0,31.125-31.125,31.125-31.125
							C314.353,98.334,318.516,98.401,320.979,100.897z"/>
						<path style="fill:#334353;" d="M318.749,99.438c0.904,2.325,0.417,5.066-1.459,6.942l-31.125,31.125
							c-1.876,1.876-4.618,2.364-6.942,1.459c-0.917-2.372-0.398-5.078,1.459-6.942c0,0,31.125-31.125,31.125-31.125
							C313.683,99.021,316.425,98.533,318.749,99.438z"/>
						<path style="fill:#3F5D77;" d="M310.114,106.38l-23.949,23.949c-1.982,1.982-1.982,5.195,0,7.176l31.125-31.125
							C315.309,104.398,312.096,104.398,310.114,106.38z"/>
					</g>
					<g>
						<path style="fill:#2E3140;" d="M316.395,41.521c3.577,0,6.48,2.903,6.48,6.485v44.018c0,3.582-2.903,6.485-6.48,6.485
							c-3.521,0.028-6.51-2.912-6.485-6.485c0,0,0-44.018,0-44.018C309.898,44.395,312.889,41.499,316.395,41.521z"/>
						<path style="fill:#334353;" d="M313.787,42.066c2.283,1.004,3.877,3.288,3.877,5.941v44.018c0,2.653-1.594,4.936-3.877,5.941
							c-2.326-1.028-3.872-3.309-3.877-5.941V48.007C309.91,45.354,311.504,43.07,313.787,42.066z"/>
						<path style="fill:#3F5D77;" d="M312.59,53.081V86.95c0,2.803,2.272,5.074,5.074,5.074V48.007
							C314.862,48.007,312.59,50.279,312.59,53.081z"/>
					</g>
				</g>
				<g>
					<g>
						<path style="fill:#2E3140;" d="M191.021,100.897c-2.53,2.53-2.53,6.635,0.003,9.168l31.125,31.125
							c2.533,2.533,6.638,2.533,9.168,0.003c2.51-2.47,2.544-6.662,0-9.172c0,0-31.125-31.125-31.125-31.125
							C197.647,98.334,193.484,98.401,191.021,100.897z"/>
						<path style="fill:#334353;" d="M193.251,99.438c-0.904,2.325-0.417,5.066,1.459,6.942l31.125,31.125
							c1.876,1.876,4.618,2.364,6.942,1.459c0.917-2.372,0.398-5.078-1.459-6.942c0,0-31.125-31.125-31.125-31.125
							C198.317,99.021,195.575,98.533,193.251,99.438z"/>
						<path style="fill:#3F5D77;" d="M201.886,106.38l23.949,23.949c1.982,1.982,1.982,5.195,0,7.176L194.71,106.38
							C196.691,104.398,199.904,104.398,201.886,106.38z"/>
					</g>
					<g>
						<path style="fill:#2E3140;" d="M195.605,41.521c-3.577,0-6.48,2.903-6.48,6.485v44.018c0,3.582,2.903,6.485,6.48,6.485
							c3.521,0.028,6.51-2.912,6.485-6.485c0,0,0-44.018,0-44.018C202.102,44.395,199.111,41.499,195.605,41.521z"/>
						<path style="fill:#334353;" d="M198.213,42.066c-2.283,1.004-3.877,3.288-3.877,5.941v44.018c0,2.653,1.594,4.936,3.877,5.941
							c2.326-1.028,3.872-3.309,3.877-5.941l0-44.018C202.09,45.354,200.496,43.07,198.213,42.066z"/>
						<path style="fill:#3F5D77;" d="M199.41,53.081V86.95c0,2.803-2.272,5.074-5.074,5.074V48.007
							C197.138,48.007,199.41,50.279,199.41,53.081z"/>
					</g>
				</g>
			</g>
			<g>
				<g>
					<path style="fill:#334353;" d="M309.91,150.879v5.21c0.031,4.976-4.117,9.049-9.013,9.019c-4.98,0-9.012-4.039-9.012-9.019
						v-5.21C292.303,138.978,309.445,138.901,309.91,150.879z"/>
					<path style="fill:#3E4E60;" d="M309.91,150.879v5.21c-0.011,3.615-2.101,6.758-5.273,8.202
						c-3.11-1.415-5.273-4.556-5.273-8.202v-5.21c0-3.646,2.163-6.781,5.273-8.196C307.747,144.098,309.91,147.233,309.91,150.879z"
						/>
				</g>
				<g>
					<path style="fill:#2E3140;" d="M202.09,156.096v-5.21c-0.031-4.976,4.117-9.049,9.013-9.019c4.98,0,9.012,4.039,9.012,9.019
						v5.21C219.697,167.997,202.555,168.074,202.09,156.096z"/>
					<path style="fill:#334353;" d="M202.09,156.096v-5.21c0.011-3.615,2.101-6.758,5.273-8.202c3.11,1.415,5.273,4.556,5.273,8.202
						v5.21c0,3.646-2.163,6.781-5.273,8.196C204.253,162.877,202.09,159.742,202.09,156.096z"/>
				</g>
			</g>
			<g>
				<g>
					<path style="fill:#2E3140;" d="M241.573,79.879l6.758,6.445l-18.862,6.552c-8.918-8.906-8.769-23.343,0-32.069
						c0,0,12.778-12.778,12.778-12.778c2.377-2.368,6.439-0.692,6.439,2.669c0.002,6.447-2.562,12.609-7.113,17.168
						C238.293,71.099,238.243,76.594,241.573,79.879z"/>
					<path style="fill:#334353;" d="M248.686,50.697c0,3.224-0.637,6.376-1.849,9.29c-1.211,2.914-2.987,5.601-5.264,7.878
						c-0.883,0.883-1.53,1.922-1.949,3.024c-4.741,3.163-11.135,3.778-16.33,1.412c0.847-4.217,2.905-8.225,6.175-11.494
						l12.778-12.778C244.624,45.661,248.686,47.337,248.686,50.697z"/>
				</g>
				<g>
					<path style="fill:#334353;" d="M270.438,79.879l-6.758,6.446l18.862,6.551c8.918-8.906,8.769-23.343,0-32.069
						c0,0-12.778-12.778-12.778-12.778c-2.377-2.368-6.439-0.692-6.439,2.669c-0.002,6.447,2.562,12.609,7.113,17.168
						C273.718,71.099,273.769,76.594,270.438,79.879z"/>
					<path style="fill:#3E4E60;" d="M263.325,50.697c0,3.224,0.637,6.376,1.849,9.29c1.211,2.914,2.987,5.601,5.264,7.878
						c0.883,0.883,1.53,1.922,1.949,3.024c4.741,3.163,11.135,3.778,16.33,1.412c-0.847-4.217-2.905-8.225-6.175-11.494
						l-12.778-12.778C267.387,45.661,263.325,47.337,263.325,50.697z"/>
				</g>
			</g>
		</g>
	</g>
</g>
</svg>
