<?xml version="1.0" encoding="iso-8859-1"?>
<!-- Generator: Adobe Illustrator 22.0.1, SVG Export Plug-In . SVG Version: 6.00 Build 0)  -->
<svg version="1.1" id="Icons" xmlns="http://www.w3.org/2000/svg" xmlns:xlink="http://www.w3.org/1999/xlink" x="0px" y="0px"
	 viewBox="0 0 512 512" style="enable-background:new 0 0 512 512;" xml:space="preserve">
<g>
	<circle style="fill:#EE6781;" cx="256" cy="256" r="256"/>
	<g>
		<g>
			<path style="fill:#9175A7;" d="M483.79,166.29l-0.01,5.96l-0.01,2.21l-0.27,109.77l-0.01,2.21l-0.01,6.01
				c-0.01,3.25-4.3,4.4-5.93,1.59l-23.28-42.87c-3.65-6.72-5.55-14.25-5.53-21.89c0.01-3.82,0.5-7.61,1.45-11.28
				c0.95-3.68,2.35-7.23,4.19-10.58l23.49-42.75C479.51,161.87,483.8,163.04,483.79,166.29z"/>
			<path style="fill:#746087;" d="M483.78,172.25l-0.01,2.21l-0.27,109.77l-0.01,2.21l-19.15-35.27
				c-3.65-6.72-5.55-14.25-5.53-21.89c0.01-3.82,0.5-7.61,1.44-11.28c0.95-3.68,2.35-7.23,4.19-10.58L483.78,172.25z"/>
		</g>
		<g>
			<path style="fill:#9175A7;" d="M468.51,226.73v0.1c0,3.58-1.8,6.93-4.82,8.87c-23.92,15.49-131.13,81.99-214.62,86.56
				c-2.54,0.15-5.06,0.23-7.55,0.25c-26.89,0.24-55.56-4.21-82.86-10.72h-0.01c-15.67-3.38-55.13-4.44-73.19-4.75
				c-6.01-0.1-11.76-2.45-16.13-6.58l-0.92-0.87c-2.86-2.7-1.85-7.48,1.87-8.79l6.26-2.21c1.27-0.44,1.29-2.23,0.04-2.71
				c-14.41-5.56-26.36-10.68-34.72-14.41c-8.45-3.77-15.41-10.21-19.84-18.33l-3.39-6.21c-3.13-5.76-0.52-12.92,5.56-15.39
				c65.17-26.58,150.24-26.47,243.18-27.27c14.34-0.13,28.78,0.07,42.97,0.48c65.8,1.95,126.43,8.79,148.89,11.57
				C464.5,216.97,468.47,221.43,468.51,226.73z"/>
			<path style="fill:#A583BB;" d="M313.89,228.79c0,37.36-25.12,70.84-64.82,93.47c-2.54,0.15-5.06,0.23-7.55,0.25
				c-26.89,0.24-55.56-4.21-82.86-10.72h-0.01c-6.66-1.44-17.63-2.46-29.42-3.18c-15.94-0.97-33.39-1.39-43.77-1.57
				c-6.01-0.1-11.76-2.45-16.13-6.58l-0.92-0.87c-2.86-2.7-1.85-7.48,1.87-8.79l6.26-2.21c1.27-0.44,1.29-2.23,0.04-2.71
				c-14.41-5.56-26.36-10.68-34.72-14.41c-8.45-3.77-15.41-10.21-19.84-18.33l-3.39-6.21c-3.13-5.76-0.52-12.92,5.56-15.39
				c9.45-3.85,19.31-7.15,29.56-9.96c60.44-16.61,134.15-16.63,213.62-17.31c14.34-0.13,28.78,0.07,42.97,0.48
				C312.67,212.53,313.89,220.56,313.89,228.79z"/>
			<path style="fill:#9175A7;" d="M129.23,308.61c-15.94-0.97-33.39-1.39-43.77-1.57c-6.01-0.1-11.76-2.45-16.13-6.58l-0.92-0.87
				c-2.86-2.7-1.85-7.48,1.87-8.79l6.26-2.21c1.27-0.44,1.29-2.23,0.04-2.71c-14.41-5.56-26.36-10.68-34.72-14.41
				c-8.45-3.77-15.41-10.21-19.84-18.33l-3.39-6.21c-3.13-5.76-0.52-12.92,5.56-15.39c9.45-3.85,19.31-7.15,29.56-9.96
				C80.51,260.2,108.69,289.57,129.23,308.61z"/>
			<path style="fill:#F4E6F4;" d="M468.51,226.73v0.1c0,3.58-1.8,6.93-4.82,8.87c-17.1,11.07-76.78,48.22-139.92,70.17
				c-25.17,8.76-50.9,15.09-74.7,16.4c-2.54,0.14-5.06,0.22-7.55,0.24c-12.57,0.11-25.53-0.8-38.56-2.47
				c-14.84-1.9-29.77-4.78-44.31-8.25c0,0,0,0,0-0.01c-15.67-3.37-55.13-4.43-73.2-4.74c-6.01-0.11-11.75-2.45-16.12-6.58
				l-0.92-0.87c-1.29-1.22-1.8-2.88-1.61-4.44c0.14-1.09,0.59-2.13,1.35-2.96c0.56-0.6,1.26-1.09,2.13-1.39l6.27-2.21
				c1.18-0.42,1.27-2.01,0.25-2.6c-0.01,0-0.03-0.01-0.04-0.01c-0.05-0.04-0.11-0.07-0.18-0.1c-0.82-0.31-1.62-0.62-2.43-0.94
				c0,0,0,0-0.01,0c-13.32-5.2-24.4-9.95-32.28-13.47c-8.45-3.77-15.41-10.21-19.84-18.33c41.6,4.12,61.25,10.12,70.53,14.91
				c5.68,2.94,12.52,2.22,17.44-1.87c6.02-5.01,14.53-9.72,24.02-7.86c2.07,0.4,4.19,1.12,6.34,2.22
				c13.28,6.81,34.9,18.84,49.21,26.89c7.42,4.18,16.59,3.12,23.08-2.4c9.38-7.98,28.21-17.57,64.5-17.57h83.11
				c0.17,0,0.35,0,0.52-0.02c4.28-0.21,7.99-3.08,9.28-7.2c2.85-9.09,10.72-23.55,32.04-23.55
				C433.2,236.69,468.51,226.73,468.51,226.73z"/>
			<path style="fill:#FFFFFF;" d="M304.53,267.46c-10.71,21.48-30.12,40.35-55.46,54.81c-2.54,0.14-5.06,0.22-7.55,0.24
				c-12.57,0.11-25.53-0.8-38.56-2.47c-14.84-1.9-29.77-4.78-44.31-8.25c0,0,0,0,0-0.01c-6.66-1.43-17.63-2.45-29.42-3.17
				c-15.94-0.97-33.39-1.39-43.78-1.57c-6.01-0.11-11.75-2.45-16.12-6.58l-0.92-0.87c-1.29-1.22-1.8-2.88-1.61-4.44
				c0.14-1.09,0.59-2.13,1.35-2.96c0.56-0.6,1.26-1.09,2.13-1.39l6.27-2.21c1.18-0.42,1.27-2.01,0.25-2.6
				c-0.01,0-0.03-0.01-0.04-0.01c-0.05-0.04-0.11-0.07-0.18-0.1c-0.82-0.31-1.62-0.62-2.43-0.94c0,0,0,0-0.01,0
				c-13.32-5.2-24.4-9.95-32.28-13.47c-8.45-3.77-15.41-10.21-19.84-18.33c36.04,3.57,55.6,8.55,66.22,12.93
				c1.64,0.68,3.07,1.34,4.31,1.98c5.68,2.94,12.52,2.22,17.44-1.87c6.02-5.01,14.53-9.72,24.02-7.86c2.07,0.4,4.19,1.12,6.34,2.22
				c13.28,6.81,34.9,18.84,49.21,26.89c7.42,4.18,16.59,3.12,23.08-2.4c9.38-7.98,28.21-17.57,64.5-17.57H304.53z"/>
			<path style="fill:#F4E6F4;" d="M129.23,308.61c-15.94-0.97-33.39-1.39-43.78-1.57c-6.01-0.11-11.75-2.45-16.12-6.58l-0.92-0.87
				c-1.29-1.22-1.8-2.88-1.61-4.44c0.14-1.09,0.59-2.13,1.35-2.96c0.56-0.6,1.26-1.09,2.13-1.39l6.27-2.21
				c1.18-0.42,1.27-2.01,0.25-2.6c-0.01,0-0.03-0.01-0.04-0.01c-0.05-0.04-0.11-0.07-0.18-0.1c-0.82-0.31-1.62-0.62-2.43-0.94
				c0,0,0,0-0.01,0c-13.32-5.2-24.4-9.95-32.28-13.47c-8.45-3.77-15.41-10.21-19.84-18.33c36.04,3.57,55.6,8.55,66.22,12.93
				C103.27,283.49,117.5,297.73,129.23,308.61z"/>
			<path style="fill:#C2AACF;" d="M284.763,217.14H164.426c-5.296,0-9.59,4.294-9.59,9.59v0c0,5.296,4.294,9.59,9.59,9.59h120.337
				c5.296,0,9.59-4.294,9.59-9.59v0C294.353,221.434,290.06,217.14,284.763,217.14z"/>
			<path style="fill:#F4E6F4;" d="M244.41,236.32h-62.156c-5.296,0-9.59-4.294-9.59-9.59v0c0-5.296,4.294-9.59,9.59-9.59h62.156
				c5.296,0,9.59,4.294,9.59,9.59v0C254,232.026,249.706,236.32,244.41,236.32z"/>
			<path style="fill:#746087;" d="M88.382,300.502c-8.678,4.555-20.229-8.314-20.229-8.314c0.557-0.602,1.261-1.09,2.124-1.386
				l6.27-2.215c1.181-0.42,1.272-2.01,0.25-2.601C90.688,290.984,97.037,295.948,88.382,300.502z"/>
			<g>
				<path style="fill:#C2AACF;" d="M79.56,247.54c-0.1,0.28-0.22,0.56-0.35,0.84c-0.53,1.15-1.27,2.22-2.21,3.16
					c-4.33,4.33-11.36,4.33-15.69,0s-4.32-11.35,0-15.68c0.19-0.18,0.37-0.36,0.57-0.52c1.04-0.91,2.21-1.59,3.44-2.05
					c3.93-1.44,8.52-0.59,11.68,2.57C80.15,239.01,81.01,243.6,79.56,247.54z"/>
				<path style="fill:#F4E6F4;" d="M79.56,247.54c-0.1,0.28-0.22,0.56-0.35,0.84c-0.96,0.2-1.95,0.31-2.97,0.31
					c-7.6,0-13.83-5.88-14.36-13.35c1.04-0.91,2.21-1.59,3.44-2.05c3.93-1.44,8.52-0.59,11.68,2.57
					C80.15,239.01,81.01,243.6,79.56,247.54z"/>
				<path style="fill:#3F5D77;" d="M76.163,243.701c0,3.018-1.914,5.595-4.592,6.583c-0.756,0.27-1.567,0.424-2.416,0.424
					c-3.874,0-7.008-3.141-7.008-7.008c0-3.874,3.133-7.008,7.008-7.008c0.849,0,1.659,0.154,2.416,0.424
					C74.249,238.106,76.163,240.676,76.163,243.701z"/>
				<ellipse style="fill:#2E3140;" cx="71.571" cy="243.701" rx="4.592" ry="6.583"/>
				<circle style="fill:#83D5EF;" cx="69.154" cy="242.047" r="3.454"/>
			</g>
		</g>
		<g>
			<path style="fill:#A583BB;" d="M295.59,367.56c-5.35,0.6-12.48,1.03-21.93,1.03c-47.39,0-92.22-52.1-80.2-58.32
				c4.57-2.36,10.79-3.65,17.79-4.19c18.37-1.46,42.12,2.16,55.66,4.67c4.25,0.79,6.33,5.53,4.2,9.29
				c-1.85,3.29-3.37,7.84-3.37,13.92c0,9.68,16.71,19,29.26,24.64c1.41,0.63,2.25,1.73,2.59,2.95
				C300.31,364.11,298.81,367.19,295.59,367.56z"/>
			<path style="fill:#9175A7;" d="M299.59,361.55c-2.65-0.01-5.53-0.07-8.67-0.2c-39.66-1.58-76.09-39.59-79.67-55.27
				c18.37-1.46,42.12,2.16,55.66,4.67c4.25,0.79,6.33,5.53,4.2,9.29c-1.85,3.29-3.37,7.84-3.37,13.92c0,9.68,16.71,19,29.26,24.64
				C298.41,359.23,299.25,360.33,299.59,361.55z"/>
		</g>
		<g>
			<path style="fill:#9175A7;" d="M421.69,283.18c-8.61,0.25-24.73,0.09-34.51-3.91c-1.98-0.81-2.56-3.3-1.15-4.89
				c1.67-1.89,4.31-4.42,8.15-6.99c2.75-1.84,6.13-3.71,10.22-5.36c7.03-2.84,11.67-3.37,14.65-3.1c2.41,0.21,3.66,2.93,2.23,4.88
				c-1.58,2.16-3.31,4.99-3.2,6.87c0.07,1.27,1.4,3.29,3.04,5.31c0.77,0.96,1.61,1.92,2.42,2.8
				C425.06,280.45,423.94,283.11,421.69,283.18z"/>
			<path style="fill:#746087;" d="M421.28,263.81c-1.58,2.16-3.31,4.99-3.2,6.87c0.07,1.27,1.4,3.29,3.04,5.31
				c-7.78-1.55-19.06-4.34-26.94-8.6c2.75-1.84,6.13-3.71,10.22-5.36c7.03-2.84,11.67-3.37,14.65-3.1
				C421.46,259.14,422.71,261.86,421.28,263.81z"/>
		</g>
		<g>
			<g>
				<path style="fill:#9175A7;" d="M313.89,204.86l-70.54-0.02l-28.95-0.01c3.18-6.52,6.97-12.46,11.15-17.86
					c13.05-16.88,29.82-28.43,43.13-35.71c4.37-2.39,8.38-4.32,11.75-5.83c4.51-2.01,9.39,1.95,8.36,6.78l-0.24,1.11l-5.91,27.77
					c-1.06,4.97,1.46,10.01,6.07,12.14L313.89,204.86z"/>
				<path style="fill:#746087;" d="M313.89,204.86l-70.54-0.02c2.99-23.63,20.88-43.29,45.2-51.52l-5.91,27.77
					c-1.06,4.97,1.46,10.01,6.07,12.14L313.89,204.86z"/>
			</g>
			<path style="fill:#A583BB;" d="M268.68,151.26c-10.58,18.1-24.39,31.48-33.35,39.03c-3.54,2.98-8.86,1.01-9.78-3.32
				C238.6,170.09,255.37,158.54,268.68,151.26z"/>
		</g>
	</g>
</g>
</svg>
