<?xml version="1.0" encoding="iso-8859-1"?>
<!-- Generator: Adobe Illustrator 22.0.1, SVG Export Plug-In . SVG Version: 6.00 Build 0)  -->
<svg version="1.1" id="Icons" xmlns="http://www.w3.org/2000/svg" xmlns:xlink="http://www.w3.org/1999/xlink" x="0px" y="0px"
	 viewBox="0 0 512 512" style="enable-background:new 0 0 512 512;" xml:space="preserve">
<g>
	<circle style="fill:#53B976;" cx="256" cy="256" r="256"/>
	<g>
		<g>
			<g>
				<path style="fill:#A26D5A;" d="M385.97,171.81v60.6c0,7.38-1.14,14.66-3.36,21.6c-2.36,7.47-5.97,14.55-10.71,20.92
					l-52.71,73.84c-5.72,8.01-12.81,14.75-20.84,19.96c-2.2,1.45-4.48,2.77-6.81,3.97c-10.84,5.58-23,8.61-35.54,8.61
					c-15.24,0-29.92-4.48-42.35-12.58c-8.03-5.21-15.12-11.95-20.84-19.96l-52.71-73.84c-4.74-6.37-8.35-13.45-10.71-20.92
					c-2.22-6.94-3.36-14.22-3.36-21.6v-60.6c0-28.27,16.71-53.86,42.58-65.23l50.1-22.02c11.88-5.22,24.59-7.84,37.29-7.84
					s25.41,2.62,37.29,7.84l50.1,22.02C369.26,117.95,385.97,143.54,385.97,171.81z"/>
				<path style="fill:#C17E62;" d="M385.97,171.81v60.6c0,15.32-4.93,30.23-14.07,42.52l-52.71,73.84
					c-7.29,10.21-16.81,18.35-27.65,23.93c-10.84,5.58-23,8.61-35.54,8.61V76.72c12.7,0,25.41,2.62,37.29,7.84l50.1,22.02
					C369.26,117.95,385.97,143.54,385.97,171.81z"/>
			</g>
			<g>
				<path style="fill:#F3C3B1;" d="M382.61,254.01c-2.36,7.47-5.97,14.55-10.71,20.92l-52.71,73.84
					c-5.72,8.01-12.81,14.75-20.84,19.96c-13.99-19.18-12.34-46.21,4.97-63.53l37.37-37.37
					C352.11,256.41,367.77,251.81,382.61,254.01z"/>
				<path style="fill:#EEA47D;" d="M213.65,368.73c-8.03-5.21-15.12-11.95-20.84-19.96l-52.71-73.84
					c-4.74-6.37-8.35-13.45-10.71-20.92c2.4-0.35,4.83-0.53,7.25-0.53c12.55,0,25.1,4.78,34.67,14.35l37.37,37.37
					C225.99,322.52,227.64,349.55,213.65,368.73z"/>
			</g>
			<g>
				<path style="fill:#F3C3B1;" d="M277.885,263.018L277.885,263.018c-8.855-8.855-8.855-23.211,0-32.066l17.281-17.281
					c8.855-8.855,23.211-8.855,32.066,0l0,0c8.855,8.855,8.855,23.211,0,32.066l-17.281,17.281
					C301.096,271.873,286.74,271.873,277.885,263.018z"/>
				<path style="fill:#EEA47D;" d="M234.115,263.018L234.115,263.018c-8.855,8.855-23.211,8.855-32.066,0l-17.281-17.281
					c-8.855-8.855-8.855-23.211,0-32.066l0,0c8.855-8.855,23.211-8.855,32.066,0l17.281,17.281
					C242.969,239.807,242.969,254.164,234.115,263.018z"/>
			</g>
			<g>
				<path style="fill:#D48D77;" d="M287.812,196.03H256v-82.944h31.812c22.904,0,41.472,18.568,41.472,41.472v0
					C329.284,177.462,310.716,196.03,287.812,196.03z"/>
				<path style="fill:#C17E62;" d="M224.188,113.086H256v82.944h-31.812c-22.904,0-41.472-18.568-41.472-41.472v0
					C182.716,131.654,201.284,113.086,224.188,113.086z"/>
			</g>
		</g>
		<g>
			<g>
				<path style="fill:#334353;" d="M321.61,322.86v89.94c0,34.58-28.03,62.61-62.61,62.61h-6c-34.58,0-62.61-28.03-62.61-62.61
					v-89.94c0-6.3,1.63-12.21,4.5-17.35c3.11-5.58,4.85-11.82,4.85-18.21v-11.68c0-8.58,6.96-15.53,15.54-15.53h1.03
					c4.29,0,8.17-1.74,10.98-4.55c2.81-2.82,4.55-6.7,4.55-10.99c0-8.58,6.96-15.53,15.54-15.53h17.24c4.29,0,8.18,1.74,10.99,4.55
					c2.81,2.81,4.55,6.69,4.55,10.98c0,8.58,6.95,15.54,15.53,15.54h1.03c8.58,0,15.54,6.95,15.54,15.53v11.68
					c0,6.39,1.74,12.63,4.85,18.21C319.98,310.65,321.61,316.56,321.61,322.86z"/>
				<path style="fill:#3E4E60;" d="M321.61,322.86v89.94c0,34.58-28.03,62.61-62.61,62.61h-3V229.02h8.62
					c4.29,0,8.18,1.74,10.99,4.55c2.81,2.81,4.55,6.69,4.55,10.98c0,8.58,6.95,15.54,15.53,15.54h1.03
					c8.58,0,15.54,6.95,15.54,15.53v11.68c0,6.39,1.74,12.63,4.85,18.21C319.98,310.65,321.61,316.56,321.61,322.86z"/>
			</g>
			<g>
				<g>
					<path style="fill:#22A8B9;" d="M310.91,413.48c0,14.41-7.4,27.34-19.08,36.09c-9.62,7.2-22.15,11.56-35.83,11.56v-10
						c8.28,0,16.04-1.89,22.71-5.18c13.27-6.55,22.2-18.65,22.2-32.47c0-2.76,2.24-5,5-5C308.67,408.48,310.91,410.72,310.91,413.48
						z"/>
				</g>
				<g>
					<path style="fill:#3F5D77;" d="M256,451.13v10c-13.68,0-26.21-4.36-35.83-11.56c-11.68-8.75-19.08-21.68-19.08-36.09
						c0-2.76,2.24-5,5-5c2.76,0,5,2.24,5,5c0,13.82,8.93,25.92,22.2,32.47C239.96,449.24,247.72,451.13,256,451.13z"/>
				</g>
			</g>
			<g>
				<circle style="fill:#2E3140;" cx="271.397" cy="404.896" r="10.998"/>
				<circle style="fill:#151516;" cx="240.603" cy="404.896" r="10.998"/>
			</g>
			<g>
				<path style="fill:#22A8B9;" d="M266.54,419.894H256v17.109h20.914c6.127,0,8.497-7.973,3.364-11.319l-4.812-3.137
					C272.811,420.816,269.71,419.894,266.54,419.894z"/>
				<path style="fill:#3F5D77;" d="M245.46,419.894H256v17.109h-20.914c-6.127,0-8.497-7.973-3.364-11.319l4.812-3.137
					C239.189,420.816,242.29,419.894,245.46,419.894z"/>
			</g>
			<g>
				<path style="fill:#22A8B9;" d="M288.363,267.401H256v28.086h32.363c7.756,0,14.043-6.287,14.043-14.043v0
					C302.406,273.688,296.119,267.401,288.363,267.401z"/>
				<path style="fill:#3F5D77;" d="M223.637,295.486H256v-28.086h-32.363c-7.756,0-14.043,6.287-14.043,14.043v0
					C209.594,289.199,215.881,295.486,223.637,295.486z"/>
			</g>
			<g>
				<path style="fill:#22A8B9;" d="M269.642,235.473H256v11.839h13.642c3.269,0,5.919-2.65,5.919-5.919v0
					C275.561,238.123,272.911,235.473,269.642,235.473z"/>
				<path style="fill:#3F5D77;" d="M242.358,247.312H256v-11.839h-13.642c-3.269,0-5.919,2.65-5.919,5.919v0
					C236.439,244.662,239.089,247.312,242.358,247.312z"/>
			</g>
			<g>
				<path style="fill:#FFFFFF;" d="M282.279,267.401H256v16.977h26.279c4.688,0,8.489-3.801,8.489-8.489l0,0
					C290.768,271.201,286.967,267.401,282.279,267.401z"/>
				<path style="fill:#22A8B9;" d="M229.721,284.378H256v-16.977h-26.279c-4.688,0-8.489,3.801-8.489,8.489l0,0
					C221.232,280.578,225.033,284.378,229.721,284.378z"/>
			</g>
			<g>
				<path style="fill:#22A8B9;" d="M256,451.13v10c-13.68,0-26.21-4.36-35.83-11.56c4.2-1.47,8.58-2.68,13.12-3.62
					C239.96,449.24,247.72,451.13,256,451.13z"/>
				<path style="fill:#FFFFFF;" d="M291.83,449.57c-9.62,7.2-22.15,11.56-35.83,11.56v-10c8.28,0,16.04-1.89,22.71-5.18
					C283.25,446.89,287.63,448.1,291.83,449.57z"/>
			</g>
		</g>
		<g>
			<g>
				<path style="fill:#2E3140;" d="M348.01,206.53c0,3.57-1.37,7.14-4.09,9.86l-13.24,13.25c-0.86,0.86-1.8,1.58-2.8,2.16
					c-5.35,3.14-12.34,2.42-16.92-2.16c-2.72-2.72-4.09-6.3-4.09-9.86c0-3.57,1.37-7.14,4.09-9.86l13.24-13.25
					c4.59-4.58,11.58-5.3,16.92-2.17c1,0.59,1.94,1.31,2.8,2.17C346.64,199.4,348.01,202.96,348.01,206.53z"/>
				<path style="fill:#3E4E60;" d="M348.01,206.53c0,3.57-1.37,7.14-4.09,9.86l-13.24,13.25c-0.86,0.86-1.8,1.58-2.8,2.16
					c-1-0.58-1.95-1.3-2.81-2.16c-2.73-2.72-4.09-6.3-4.09-9.86c0-3.57,1.36-7.14,4.09-9.86l13.24-13.25
					c0.86-0.86,1.81-1.58,2.81-2.17c1,0.59,1.94,1.31,2.8,2.17C346.64,199.4,348.01,202.96,348.01,206.53z"/>
				<circle style="fill:#FFFFFF;" cx="334.868" cy="206.036" r="8.875"/>
			</g>
			<g>
				<path style="fill:#2E3140;" d="M163.676,206.53c0,3.57,1.37,7.14,4.09,9.86l13.24,13.25c0.86,0.86,1.8,1.58,2.8,2.16
					c5.35,3.14,12.34,2.42,16.92-2.16c2.72-2.72,4.09-6.3,4.09-9.86c0-3.57-1.37-7.14-4.09-9.86l-13.24-13.25
					c-4.59-4.58-11.58-5.3-16.92-2.17c-1,0.59-1.94,1.31-2.8,2.17C165.046,199.4,163.676,202.96,163.676,206.53z"/>
				<path style="fill:#3E4E60;" d="M163.676,206.53c0,3.57,1.37,7.14,4.09,9.86l13.24,13.25c0.86,0.86,1.8,1.58,2.8,2.16
					c1-0.58,1.95-1.3,2.81-2.16c2.73-2.72,4.09-6.3,4.09-9.86c0-3.57-1.36-7.14-4.09-9.86l-13.24-13.25
					c-0.86-0.86-1.81-1.58-2.81-2.17c-1,0.59-1.94,1.31-2.8,2.17C165.046,199.4,163.676,202.96,163.676,206.53z"/>
				<circle style="fill:#FFFFFF;" cx="176.819" cy="206.036" r="8.875"/>
			</g>
		</g>
	</g>
</g>
</svg>
