<?xml version="1.0" encoding="iso-8859-1"?>
<!-- Generator: Adobe Illustrator 22.0.1, SVG Export Plug-In . SVG Version: 6.00 Build 0)  -->
<svg version="1.1" id="Icons" xmlns="http://www.w3.org/2000/svg" xmlns:xlink="http://www.w3.org/1999/xlink" x="0px" y="0px"
	 viewBox="0 0 512 512" style="enable-background:new 0 0 512 512;" xml:space="preserve">
<g>
	<circle style="fill:#EE6781;" cx="256" cy="256" r="256"/>
	<g>
		<g>
			<path style="fill:#A26D5A;" d="M444.74,160.67l-42.71,61.01c-9.36,13.37-22.84,23.3-38.38,28.28l-24.11,7.72
				c0.73,6.22,0.56,12.84-0.67,19.56l-0.75,4.09l-5.37,29.33l-7.24,39.53l-2.92,15.92l-8.73,47.7l-8,43.67
				c-3.48,19.01-19.41,32.66-37.17,32.66h-25.38c-17.76,0-33.69-13.65-37.17-32.66l-8-43.67l-8.74-47.7l-10.15-55.45l-6.12-33.42
				c-1.23-6.72-1.4-13.34-0.67-19.56l-24.11-7.72c-15.54-4.98-29.02-14.91-38.38-28.28l-42.71-61.01c-5.16-7.37-5.1-17.19,0.14-24.5
				c5.85-8.15,16.61-11.09,25.79-7.02l61.75,27.33c3.94,1.74,7.17,4.56,9.43,8.02c2.25,3.46,3.52,7.56,3.52,11.87
				c0,14.93,6.21,29.18,17.14,39.35l8.05,7.48c3.68-1.84,7.73-2.86,12.07-2.86h101.7c4.34,0,8.39,1.02,12.07,2.86l8.05-7.48
				c5.47-5.08,9.75-11.19,12.67-17.89c2.92-6.7,4.47-13.99,4.47-21.46c0-8.61,5.08-16.41,12.95-19.89l61.75-27.33
				c9.18-4.07,19.94-1.13,25.79,7.02C449.84,143.48,449.9,153.3,444.74,160.67z"/>
			<path style="fill:#C17E62;" d="M338.87,277.24l-0.75,4.09l-12.61,68.86l-11.65,63.62l-8,43.67c-0.1,0.53-0.2,1.05-0.32,1.57
				c-0.03,0.16-0.07,0.33-0.11,0.49c-0.07,0.3-0.15,0.61-0.24,0.91c-0.05,0.22-0.11,0.44-0.17,0.65c-0.1,0.39-0.21,0.78-0.34,1.17
				c-0.13,0.42-0.26,0.84-0.41,1.25c-0.04,0.15-0.09,0.29-0.15,0.43c-0.13,0.38-0.27,0.76-0.42,1.14c-0.03,0.11-0.08,0.22-0.13,0.33
				c-0.16,0.42-0.33,0.83-0.52,1.24c-0.02,0.07-0.05,0.14-0.09,0.2c-0.17,0.41-0.35,0.81-0.55,1.2c-0.05,0.13-0.11,0.25-0.17,0.36
				c-0.16,0.33-0.32,0.65-0.5,0.97c-0.2,0.4-0.41,0.79-0.64,1.17c-0.01,0.02-0.01,0.04-0.02,0.05c-0.23,0.4-0.46,0.79-0.7,1.17
				c-0.65,1.06-1.35,2.08-2.09,3.07c-0.67,0.9-1.37,1.76-2.12,2.59c-0.37,0.41-0.75,0.82-1.14,1.22c-0.76,0.8-1.56,1.57-2.4,2.28
				c-1.24,1.1-2.55,2.1-3.91,3c-0.46,0.3-0.92,0.6-1.38,0.88c-0.93,0.58-1.89,1.1-2.86,1.58c-0.5,0.24-1.01,0.48-1.53,0.71
				c-0.48,0.21-0.96,0.41-1.45,0.6c-0.46,0.18-0.93,0.35-1.4,0.51c-0.14,0.05-0.28,0.1-0.43,0.15c-0.31,0.1-0.62,0.2-0.93,0.29
				c-0.22,0.07-0.44,0.13-0.66,0.19c-0.38,0.11-0.76,0.21-1.14,0.3c-0.06,0.01-0.12,0.03-0.18,0.04c-0.4,0.1-0.81,0.19-1.22,0.26
				c-0.17,0.05-0.35,0.08-0.52,0.11c-0.27,0.05-0.54,0.1-0.82,0.13c-0.3,0.06-0.61,0.1-0.91,0.14c-0.44,0.06-0.89,0.11-1.33,0.15
				c-0.54,0.06-1.07,0.09-1.61,0.12c-0.55,0.03-1.11,0.04-1.66,0.04H256v-269.8h50.85C329.49,220.34,344.25,247.84,338.87,277.24z"
				/>
		</g>
		<g>
			<path style="fill:#2E3140;" d="M313.86,413.81l-8,43.67c-3.48,19.01-19.41,32.66-37.17,32.66h-25.38
				c-17.76,0-33.69-13.65-37.17-32.66l-8-43.67C226.23,375.712,285.602,375.549,313.86,413.81z"/>
			<path style="fill:#3E4E60;" d="M313.86,413.81l-8,43.67c-0.1,0.53-0.2,1.05-0.32,1.57c-1.012,4.481-2.74,8.826-5.16,12.73
				c-5.542,9.067-14.858,15.865-25.36,17.78c-4.293,0.995-14.554,0.442-19.02,0.58V385.02
				C279.607,385.087,300.322,396.057,313.86,413.81z"/>
		</g>
		<g>
			<path style="fill:#FFFFFF;" d="M332.75,310.66l-7.24,39.53l-2.92,15.92h-7.07c-15.32,0-27.73-12.41-27.73-27.72
				c0-7.66,3.1-14.59,8.12-19.61c5.02-5.02,11.95-8.12,19.61-8.12H332.75z"/>
			<path style="fill:#C2AACF;" d="M224.21,338.39c0,7.65-3.1,14.59-8.12,19.6c-5.02,5.02-11.95,8.12-19.61,8.12h-7.08l-10.15-55.45
				h17.23C211.8,310.66,224.21,323.07,224.21,338.39z"/>
		</g>
		<g>
			<g>
				<g>
					<path style="fill:#C17E62;" d="M307.215,234.092l19.756-18.375c10.929-10.165,17.137-24.418,17.137-39.343v0
						c0-8.61,5.077-16.41,12.951-19.895l61.753-27.333c9.176-4.062,19.944-1.128,25.791,7.028l0,0
						c5.239,7.307,5.295,17.126,0.138,24.493l-42.71,61.014c-9.358,13.368-22.839,23.301-38.38,28.278l-26.757,8.569
						L307.215,234.092z"/>
				</g>
				<path style="fill:#FFFFFF;" d="M427.536,141.33h-0.16c-1,0-1.97,0.21-2.9,0.62l-25.47,11.27l-36.28,16.06
					c-2.7,1.2-4.49,3.83-4.61,6.76c-0.41,9.49-2.37,18.78-5.98,27.31c-3.6,8.53-8.85,16.31-15.8,22.78c-2.01,1.86-3,4.38-3,6.89
					c0,2.7,1.15,5.39,3.43,7.26c1.95,1.61,4.59,2.12,7,1.35l15.44-4.95c11.36-3.64,21.37-10.5,28.84-19.71v-0.01
					c0.92-1.12,1.79-2.27,2.62-3.46l42.61-60.86C436.606,148.09,433.126,141.33,427.536,141.33z"/>
				<path style="fill:#C2AACF;" d="M380.57,215.312c3.41,0.756,4.663,5.033,2.132,7.44c-6.642,6.318-14.661,11.097-23.497,13.928
					l-15.44,4.95c-2.41,0.77-5.05,0.26-7-1.35c-2.28-1.87-3.43-4.56-3.43-7.26c0-2.51,0.99-5.03,3-6.89
					c6.95-6.47,12.2-14.25,15.8-22.78c3.61-8.53,5.57-17.82,5.98-27.31c0.12-2.93,1.91-5.56,4.61-6.76l20.985-9.289
					c3.735-1.653,7.133,2.884,4.496,6.003l-12.178,14.404c-1.727,2.043-0.275,5.172,2.4,5.172h9.219c3.679,0,5.26,4.667,2.339,6.903
					l-17.603,15.942c-1.891,1.713-1.062,4.846,1.429,5.398L380.57,215.312z"/>
				<path style="fill:#D48D77;" d="M366.768,159.688L366.768,159.688c1.517,3.613,5.704,5.278,9.287,3.692l31.104-13.767
					c3.778-1.672,5.293-6.235,3.266-9.835l0,0c-1.769-3.142-5.635-4.426-8.932-2.966l-31.104,13.767
					C366.902,152.122,365.292,156.172,366.768,159.688z"/>
			</g>
			<g>
				<path style="fill:#C2AACF;" d="M78.724,152.64l42.61,60.86c0.83,1.19,1.7,2.34,2.62,3.46v0.01
					c7.47,9.21,17.48,16.07,28.84,19.71l15.44,4.95c2.41,0.77,5.05,0.26,7-1.35c2.28-1.87,3.43-4.56,3.43-7.26
					c0-2.51-0.99-5.03-3-6.89c-6.95-6.47-12.2-14.25-15.8-22.78c-3.61-8.53-5.57-17.82-5.98-27.31c-0.12-2.93-1.91-5.56-4.61-6.76
					l-36.28-16.06l-25.47-11.27c-0.93-0.41-1.9-0.62-2.9-0.62h-0.16C78.874,141.33,75.394,148.09,78.724,152.64z"/>
				<path style="fill:#FFFFFF;" d="M131.43,215.312c-3.41,0.756-4.663,5.033-2.132,7.44c6.642,6.318,14.661,11.097,23.497,13.928
					l15.44,4.95c2.41,0.77,5.05,0.26,7-1.35c2.28-1.87,3.43-4.56,3.43-7.26c0-2.51-0.99-5.03-3-6.89
					c-6.95-6.47-12.2-14.25-15.8-22.78c-3.61-8.53-5.57-17.82-5.98-27.31c-0.12-2.93-1.91-5.56-4.61-6.76l-20.985-9.289
					c-3.735-1.653-7.133,2.884-4.496,6.003l12.178,14.404c1.727,2.043,0.275,5.172-2.4,5.172h-9.219
					c-3.679,0-5.26,4.667-2.339,6.903l17.603,15.942c1.891,1.713,1.062,4.846-1.429,5.398L131.43,215.312z"/>
				<path style="fill:#C17E62;" d="M145.232,159.688L145.232,159.688c-1.517,3.613-5.704,5.278-9.287,3.692l-31.104-13.767
					c-3.778-1.672-5.293-6.235-3.266-9.835l0,0c1.769-3.142,5.635-4.426,8.932-2.966l31.104,13.767
					C145.098,152.122,146.708,156.172,145.232,159.688z"/>
			</g>
		</g>
		<g>
			<g>
				<path style="fill:#FFFFFF;" d="M304.683,462.273c-5.042,16.455-19.723,27.868-35.988,27.868H256v-72.568h17.355
					C272.775,440.347,286.336,458.221,304.683,462.273z"/>
				<path style="fill:#C2AACF;" d="M207.317,462.273c5.042,16.455,19.723,27.868,35.988,27.868H256v-72.568h-17.355
					C239.225,440.347,225.664,458.221,207.317,462.273z"/>
			</g>
			<g>
				<g>
					<path style="fill:#3E4E60;" d="M281.543,414.968l-0.891,23.9c-0.222,5.959-4.821,10.709-10.278,10.709h-28.748
						c-5.457,0-10.056-4.75-10.278-10.709l-0.891-23.9c-0.605-16.217,10.815-29.946,25.543-29.946
						C270.728,385.022,282.148,398.751,281.543,414.968z"/>
					<path style="fill:#3F5D77;" d="M281.543,414.968l-0.891,23.9c-0.222,5.959-4.821,10.709-10.278,10.709H256v-64.555
						C270.728,385.022,282.148,398.751,281.543,414.968z"/>
				</g>
				<g>
					<path style="fill:#151516;" d="M304.562,470.623c-1.046-2.556-3.965-3.78-6.521-2.733c-3.567,1.46-8.435,3.172-9.717,3.295
						c-3.925,0.341-10.908-0.81-17.069-1.826c-3.632-0.599-7.134-1.176-10.255-1.52v-8.364c0-2.761-2.239-5-5-5s-5,2.239-5,5v8.364
						c-3.121,0.344-6.623,0.92-10.255,1.52c-6.161,1.016-13.143,2.169-17.068,1.826c-1.157-0.111-5.698-1.65-9.718-3.295
						c-2.552-1.044-5.474,0.179-6.521,2.734c-1.045,2.556,0.178,5.475,2.733,6.521c2.112,0.865,9.266,3.708,12.636,4.002
						c5.183,0.451,12.493-0.755,19.565-1.922c5.09-0.839,10.353-1.708,13.627-1.708s8.538,0.868,13.627,1.708
						c6.032,0.995,12.238,2.019,17.147,2.019c0.847,0,1.656-0.031,2.418-0.097c3.37-0.293,10.524-3.137,12.637-4.002
						C304.385,476.098,305.608,473.178,304.562,470.623z"/>
					<g>
						<path style="fill:#151516;" d="M256,448.8v10.675c-0.187,0.247-0.385,0.481-0.596,0.702c-3.111,3.267-8.154,3.267-11.323,0
							l-2.613-2.689l-6.238-6.413c-3.294-3.396-3.5-8.97-0.399-12.454c1.566-1.759,3.664-2.642,5.794-2.642
							c2.13,0,4.269,0.883,5.916,2.642l8.851,9.452C255.608,448.309,255.81,448.551,256,448.8z"/>
						<path style="fill:#2E3140;" d="M276.77,451.075l-8.851,9.102c-3.169,3.267-8.212,3.267-11.323,0
							c-0.211-0.221-0.409-0.455-0.596-0.702V448.8c0.19-0.249,0.392-0.491,0.607-0.727l8.851-9.452
							c1.647-1.759,3.786-2.642,5.917-2.642s4.228,0.883,5.794,2.642C280.27,442.104,280.064,447.679,276.77,451.075z"/>
					</g>
				</g>
			</g>
			<g>
				<g>
					<path style="fill:#3E4E60;" d="M345.519,316.001c8.559,4.942,11.537,15.826,6.717,24.424c-0.03,0.079-0.071,0.151-0.113,0.224
						l-6.276,10.871c-2.488,4.31-6.493,7.214-10.955,8.41c-4.469,1.208-9.378,0.701-13.699-1.794
						c-8.03-4.636-11.155-14.514-7.537-22.81c0.268-0.632,0.58-1.254,0.927-1.856l6.276-10.871
						c2.495-4.322,6.505-7.208,10.967-8.403C336.289,312.999,341.197,313.505,345.519,316.001z"/>
					<path style="fill:#2E3140;" d="M345.519,316.001c8.559,4.942,11.537,15.826,6.717,24.424
						c-9.649,5.119-22.208,5.075-33.03-1.173c-2.01-1.161-3.868-2.474-5.55-3.927c0.268-0.632,0.58-1.254,0.927-1.856l6.276-10.871
						c2.495-4.322,6.505-7.208,10.967-8.403C336.289,312.999,341.197,313.505,345.519,316.001z"/>
					<path style="fill:#FFFFFF;" d="M329.844,323.329l-3.776,6.541c-1.626,2.816-0.661,6.418,2.155,8.044h0
						c2.816,1.626,6.418,0.661,8.044-2.155l3.776-6.541c1.626-2.816,0.661-6.418-2.155-8.044v0
						C335.071,319.547,331.47,320.512,329.844,323.329z"/>
				</g>
				<g>
					<path style="fill:#3E4E60;" d="M166.481,316.001c-8.559,4.942-11.537,15.826-6.717,24.424c0.03,0.079,0.071,0.151,0.113,0.224
						l6.276,10.871c2.488,4.31,6.493,7.214,10.955,8.41c4.469,1.208,9.378,0.701,13.699-1.794c8.03-4.636,11.155-14.514,7.537-22.81
						c-0.268-0.632-0.58-1.254-0.927-1.856l-6.276-10.871c-2.495-4.322-6.505-7.208-10.967-8.403
						C175.711,312.999,170.803,313.505,166.481,316.001z"/>
					<path style="fill:#2E3140;" d="M166.481,316.001c-8.559,4.942-11.537,15.826-6.717,24.424
						c9.649,5.119,22.208,5.075,33.03-1.173c2.01-1.161,3.868-2.474,5.55-3.927c-0.268-0.632-0.58-1.254-0.927-1.856l-6.276-10.871
						c-2.495-4.322-6.505-7.208-10.967-8.403C175.711,312.999,170.803,313.505,166.481,316.001z"/>
					<path style="fill:#FFFFFF;" d="M182.156,323.329l3.776,6.541c1.626,2.816,0.661,6.418-2.155,8.044h0
						c-2.816,1.626-6.418,0.661-8.044-2.155l-3.776-6.541c-1.626-2.816-0.661-6.418,2.155-8.044v0
						C176.929,319.547,180.53,320.512,182.156,323.329z"/>
				</g>
			</g>
			<g>
				<path style="fill:#D48D77;" d="M256,322.297c31.709,0,60.726-25.706,60.726-57.415v0c0-17.98-14.575-32.555-32.555-32.555H256
					V322.297z"/>
				<path style="fill:#C17E62;" d="M256,322.297c-31.709,0-60.726-25.706-60.726-57.415v0c0-17.98,14.575-32.555,32.555-32.555H256
					V322.297z"/>
			</g>
		</g>
		<g>
			<g>
				<path style="fill:#3E4E60;" d="M404.246,69.04c0,2.38-0.91,4.77-2.73,6.59l-98.07,98.06c-6.99,7-10.92,16.48-10.92,26.37v41.93
					c0,5.12-4.15,9.26-9.26,9.26c-5.119,0.011-9.276-4.156-9.27-9.26c0,0,0-137.28,0-137.28c0-4.11,2.8-7.56,6.59-8.56
					c5.5-1.513,11.193,2.828,11.11,8.56c0,0,0,34.03,0,34.03c0,4.19,5.06,6.29,8.03,3.33l32.34-32.34
					c8.51-8.52,13.29-20.06,13.29-32.1V46.16c-0.058-7.933,9.819-11.868,15.23-6.31c1.62,1.61,2.62,3.85,2.62,6.31V78.2
					c0,3.45,4.18,5.18,6.62,2.74l18.5-18.5c1.28-1.28,2.85-2.12,4.5-2.49C398.33,58.457,404.472,63.259,404.246,69.04z"/>
				<path style="fill:#3F5D77;" d="M373.858,76.908l14.468-14.468c1.191-1.191,2.634-2.002,4.158-2.406
					c0.207-0.055,0.436,0.02,0.572,0.186c1.407,1.713,2.11,3.811,2.11,5.9c0,2.38-0.91,4.77-2.73,6.59l-98.07,98.07
					c-6.99,6.99-10.92,16.48-10.92,26.37v41.92c0,4.265-2.878,7.86-6.802,8.941c-0.21,0.058-0.442-0.016-0.579-0.185
					c-1.292-1.593-2.069-3.625-2.069-5.836V104.71c0-3.976,2.621-7.335,6.224-8.455c0.218-0.068,0.464,0.01,0.602,0.192
					c1.128,1.483,1.794,3.33,1.794,5.343v34.04c0,0.283,0.027,0.554,0.071,0.816c-0.042,0.332-0.071,0.668-0.071,1.012v7.177
					c0,0.054,0.001,0.107,0.002,0.161c0.107,5.771,7.31,8.346,11.097,3.989l5.999-6.901c0.008-0.009,0.021-0.023,0.029-0.031
					l32.324-32.324c8.51-8.52,13.29-20.06,13.29-32.1V46.16c0-4.028,2.663-7.419,6.328-8.538c0.216-0.066,0.46,0.011,0.598,0.191
					c1.158,1.504,1.844,3.383,1.844,5.437v32.03c0,0.023,0.005,0.045,0.005,0.068c0,0.034-0.005,0.067-0.005,0.102
					c0,0.274,0.011,0.546,0.033,0.814c0.555,6.843,8.93,9.943,14.126,5.456L373.858,76.908z"/>
			</g>
			<g>
				<path style="fill:#2E3140;" d="M107.754,69.04c0,2.38,0.91,4.77,2.73,6.59l98.07,98.06c6.99,7,10.92,16.48,10.92,26.37v41.93
					c0,5.12,4.15,9.26,9.26,9.26c5.119,0.011,9.276-4.156,9.27-9.26c0,0,0-137.28,0-137.28c0-4.11-2.8-7.56-6.59-8.56
					c-5.5-1.513-11.193,2.828-11.11,8.56c0,0,0,34.03,0,34.03c0,4.19-5.06,6.29-8.03,3.33l-32.34-32.34
					c-8.51-8.52-13.29-20.06-13.29-32.1V46.16c0.058-7.933-9.819-11.868-15.23-6.31c-1.62,1.61-2.62,3.85-2.62,6.31V78.2
					c0,3.45-4.18,5.18-6.62,2.74l-18.5-18.5c-1.28-1.28-2.85-2.12-4.5-2.49C113.67,58.457,107.528,63.259,107.754,69.04z"/>
				<path style="fill:#3E4E60;" d="M138.142,76.908L123.674,62.44c-1.191-1.191-2.634-2.002-4.158-2.406
					c-0.207-0.055-0.436,0.02-0.572,0.186c-1.407,1.713-2.11,3.811-2.11,5.9c0,2.38,0.91,4.77,2.73,6.59l98.07,98.07
					c6.99,6.99,10.92,16.48,10.92,26.37v41.92c0,4.265,2.878,7.86,6.802,8.941c0.21,0.058,0.442-0.016,0.579-0.185
					c1.292-1.593,2.069-3.625,2.069-5.836V104.71c0-3.976-2.621-7.335-6.224-8.455c-0.218-0.068-0.464,0.01-0.602,0.192
					c-1.128,1.483-1.794,3.33-1.794,5.343v34.04c-0.063,0.631-0.039,1.198,0,1.828c0,0,0,7.177,0,7.177
					c0,0.054-0.001,0.107-0.002,0.161c-0.107,5.771-7.31,8.346-11.097,3.989c-0.029-0.031-5.999-6.905-6.028-6.932
					c0,0-32.324-32.324-32.324-32.324c-8.51-8.52-13.29-20.06-13.29-32.1V46.16c0-4.028-2.663-7.419-6.328-8.538
					c-0.216-0.066-0.46,0.011-0.598,0.191c-1.158,1.504-1.844,3.383-1.844,5.437v32.03c-0.001,0.329-0.003,0.66-0.033,0.984
					c-0.555,6.843-8.93,9.943-14.126,5.456L138.142,76.908z"/>
			</g>
		</g>
	</g>
</g>
</svg>
