<?xml version="1.0" encoding="iso-8859-1"?>
<!-- Generator: Adobe Illustrator 22.0.1, SVG Export Plug-In . SVG Version: 6.00 Build 0)  -->
<svg version="1.1" id="Icons" xmlns="http://www.w3.org/2000/svg" xmlns:xlink="http://www.w3.org/1999/xlink" x="0px" y="0px"
	 viewBox="0 0 512 512" style="enable-background:new 0 0 512 512;" xml:space="preserve">
<g>
	<circle style="fill:#6C53A2;" cx="256" cy="256" r="256"/>
	<g>
		<g>
			<g>
				<path style="fill:#C44A1A;" d="M319.986,317.147v38.58c0,17.67-7.158,33.667-18.742,45.243
					c-11.577,11.585-27.573,18.742-45.244,18.742c-35.34,0-63.986-28.646-63.986-63.986v-38.58
					c0-28.129,22.807-50.936,50.936-50.936h26.1C297.179,266.211,319.986,289.018,319.986,317.147z"/>
				<path style="fill:#DD5E26;" d="M319.986,317.147v38.58c0,17.67-7.158,33.667-18.742,45.243
					c-11.577,11.585-27.573,18.742-45.244,18.742V266.211h13.05C297.179,266.211,319.986,289.018,319.986,317.147z"/>
			</g>
			<g>
				<g>
					<path style="fill:#DD5E26;" d="M249.489,404.734H256v-85.05h-22.685c-16.561,0-29.986,13.425-29.986,29.986v8.905
						C203.329,384.067,223.996,404.734,249.489,404.734z"/>
					<path style="fill:#EA792E;" d="M262.511,404.734H256v-85.05h22.685c16.561,0,29.986,13.425,29.986,29.986v8.905
						C308.671,384.067,288.004,404.734,262.511,404.734z"/>
				</g>
				<g>
					<path style="fill:#F39E22;" d="M286.567,365.442H256v-30.726h30.567c8.485,0,15.363,6.878,15.363,15.363v0
						C301.93,358.563,295.052,365.442,286.567,365.442z"/>
					<path style="fill:#EA792E;" d="M225.433,334.716H256v30.726h-30.567c-8.485,0-15.363-6.878-15.363-15.363v0
						C210.07,341.594,216.948,334.716,225.433,334.716z"/>
				</g>
			</g>
		</g>
		<g>
			<g>
				<g>
					<path style="fill:#9175A7;" d="M225.535,119.887v31.026l24.975-1.478v-29.548c0-4.787-2.701-8.949-6.658-11.051
						c-1.741-0.92-3.719-1.437-5.829-1.437C231.126,107.399,225.535,112.99,225.535,119.887z"/>
					<path style="fill:#A583BB;" d="M250.51,119.887v20.878c-1.576,0.616-3.284,0.952-5.082,0.952
						c-7.717,0-13.982-6.256-13.982-13.982v-14.384c0-1.577,0.263-3.095,0.747-4.516c1.741-0.92,3.719-1.437,5.829-1.437
						C244.919,107.399,250.51,112.99,250.51,119.887z"/>
				</g>
				<g>
					<path style="fill:#A583BB;" d="M286.471,119.887v31.026l-24.975-1.478v-29.548c0-4.787,2.701-8.949,6.658-11.051
						c1.741-0.92,3.719-1.437,5.829-1.437C280.88,107.399,286.471,112.99,286.471,119.887z"/>
					<path style="fill:#C2AACF;" d="M286.471,119.887v20.878c-1.576,0.616-3.284,0.952-5.082,0.952
						c-7.717,0-13.982-6.256-13.982-13.982v-14.384c0-1.577,0.263-3.095,0.747-4.516c1.741-0.92,3.719-1.437,5.829-1.437
						C280.88,107.399,286.471,112.99,286.471,119.887z"/>
				</g>
			</g>
			<g>
				<g>
					<g>
						<path style="fill:#EA792E;" d="M319.986,191.066v21.673c0,17.67-7.158,33.667-18.742,45.251
							c-11.577,11.577-27.573,18.742-45.244,18.742c-35.34,0-63.986-28.653-63.986-63.994v-21.673
							c0-23.37,18.943-42.313,42.313-42.313h43.346C301.043,148.753,319.986,167.696,319.986,191.066z"/>
						<path style="fill:#F39E22;" d="M319.986,191.066v21.673c0,17.67-7.158,33.667-18.742,45.251
							c-11.577,11.577-27.573,18.742-45.244,18.742V148.753h21.673C301.043,148.753,319.986,167.696,319.986,191.066z"/>
					</g>
					<g>
						<path style="fill:#334353;" d="M306.928,195.493v17.246c0,14.061-5.7,26.795-14.917,36.011
							c-9.217,9.217-21.943,14.917-36.011,14.917c-28.129,0-50.928-22.799-50.928-50.928v-17.246
							c0-18.603,15.079-33.682,33.682-33.682h34.492C291.849,161.811,306.928,176.89,306.928,195.493z"/>
						<path style="fill:#3E4E60;" d="M306.928,195.493v17.246c0,14.061-5.7,26.795-14.917,36.011
							c-9.217,9.217-21.943,14.917-36.011,14.917V161.811h17.246C291.849,161.811,306.928,176.89,306.928,195.493z"/>
					</g>
				</g>
				<g>
					<path style="fill:#334353;" d="M269.099,195.4L269.099,195.4c-2.975,0-5.386-2.411-5.386-5.386v-4.419
						c0-2.975,2.411-5.386,5.386-5.386h0c2.975,0,5.386,2.411,5.386,5.386v4.419C274.485,192.989,272.073,195.4,269.099,195.4z"/>
					<path style="fill:#2E3140;" d="M242.901,195.4L242.901,195.4c-2.975,0-5.386-2.411-5.386-5.386v-4.419
						c0-2.975,2.411-5.386,5.386-5.386l0,0c2.975,0,5.386,2.411,5.386,5.386v4.419C248.287,192.989,245.876,195.4,242.901,195.4z"/>
				</g>
				<g>
					<path style="fill:#3F5D77;" d="M267.172,244.271H256v-39.172h21.134c8.066,0,14.605,6.539,14.605,14.605v0
						C291.739,233.272,280.74,244.271,267.172,244.271z"/>
					<path style="fill:#3E4E60;" d="M244.828,244.271H256v-39.172h-21.134c-8.066,0-14.605,6.539-14.605,14.605v0
						C220.261,233.272,231.26,244.271,244.828,244.271z"/>
				</g>
			</g>
		</g>
		<g>
			<g>
				<g>
					<g>
						<path style="fill:#2E3140;" d="M443.574,204.958c-1.998,1.998-4.765,3.234-7.814,3.234l-14.932,0
							c-6.1,0.003-11.047-4.944-11.047-11.047c-0.042-6.094,5.051-11.094,11.048-11.048c0,0,14.932,0,14.932,0
							C445.529,186.029,450.492,198.141,443.574,204.958z"/>
						<path style="fill:#334353;" d="M445.877,201.583c-1.36,0.597-2.856,0.927-4.435,0.927l-14.932,0
							c-7.837,0.141-13.374-8.395-10.121-15.483c1.356-0.601,2.856-0.934,4.439-0.93l14.932,0
							C443.606,185.963,449.134,194.492,445.877,201.583z"/>
					</g>
					<g>
						<path style="fill:#334353;" d="M359.336,186.097c0,4.692-1.902,8.929-4.975,12.002c-3.066,3.073-7.31,4.968-11.995,4.968
							h-13.867c-9.376,0-16.977-7.593-16.977-16.97c0-2.059,0.366-4.02,1.029-5.848c0.865-2.335,2.215-4.423,3.946-6.154
							c3.073-3.073,7.31-4.975,12.002-4.975h13.867c7.318,0,13.554,4.632,15.941,11.129
							C358.971,182.076,359.336,184.038,359.336,186.097z"/>
						<path style="fill:#3E4E60;" d="M358.307,180.249c-0.865,2.335-2.215,4.424-3.946,6.154c-3.066,3.073-7.31,4.975-11.995,4.975
							h-13.867c-7.325,0-13.561-4.632-15.948-11.129c0.865-2.335,2.215-4.423,3.946-6.154c3.073-3.073,7.31-4.975,12.002-4.975
							h13.867C349.684,169.119,355.92,173.751,358.307,180.249z"/>
					</g>
					<g>
						<path style="fill:#EA792E;" d="M408.622,199.055c-3.615,0-7.237-1.385-9.995-4.143l-25.537-25.537
							c-5.522-5.516-5.522-14.468,0-19.99c5.476-5.551,14.607-5.467,19.99,0c0,0,25.537,25.537,25.537,25.537
							c5.522,5.522,5.522,14.474,0,19.99C415.927,197.599,412.348,199.049,408.622,199.055z"/>
						<path style="fill:#F39E22;" d="M413.759,198.086c-1.77-0.69-3.423-1.746-4.852-3.174l-25.537-25.537
							c-7.218-6.963-4.505-19.695,4.852-23.164c1.77,0.683,3.429,1.739,4.858,3.174l25.537,25.537
							C425.837,181.899,423.121,194.616,413.759,198.086z"/>
					</g>
					<g>
						<path style="fill:#C44A1A;" d="M390.039,155.307c0,3.615-1.385,7.237-4.143,9.995l-25.537,25.537
							c-5.516,5.522-14.468,5.522-19.99,0c-5.551-5.476-5.467-14.607,0-19.99c0,0,25.537-25.537,25.537-25.537
							c5.522-5.522,14.474-5.522,19.99,0C388.583,148.002,390.033,151.581,390.039,155.307z"/>
						<path style="fill:#DD5E26;" d="M389.07,150.17c-0.69,1.77-1.746,3.423-3.174,4.852l-25.537,25.537
							c-6.963,7.218-19.695,4.505-23.164-4.852c0.683-1.77,1.739-3.429,3.174-4.858l25.537-25.537
							C372.883,138.092,385.6,140.808,389.07,150.17z"/>
					</g>
				</g>
				<g>
					<g>
						<path style="fill:#2E3140;" d="M381.838,100.76c0,2.246-0.861,4.496-2.574,6.209l-8.392,8.392
							c-3.427,3.431-8.988,3.431-12.418,0c-3.449-3.402-3.396-9.074,0-12.418c0,0,8.392-8.392,8.392-8.392
							C372.297,89.022,381.894,93.04,381.838,100.76z"/>
						<path style="fill:#334353;" d="M381.236,97.568c-0.428,1.1-1.084,2.126-1.972,3.014l-8.392,8.392
							c-4.325,4.484-12.235,2.798-14.39-3.014c0.425-1.1,1.081-2.13,1.972-3.018l8.392-8.392
							C371.18,90.065,379.08,91.752,381.236,97.568z"/>
					</g>
					<g>
						<path style="fill:#334353;" d="M323.892,137.504c2.637,2.637,3.949,6.088,3.949,9.542c0.004,3.45-1.317,6.901-3.949,9.534
							l-7.794,7.794c-5.27,5.27-13.81,5.274-19.08,0.004c-1.157-1.157-2.054-2.465-2.708-3.865
							c-0.826-1.799-1.241-3.731-1.241-5.677c0-3.455,1.312-6.905,3.949-9.542l7.794-7.794c4.113-4.113,10.221-5.014,15.214-2.704
							C321.426,135.45,322.734,136.347,323.892,137.504z"/>
						<path style="fill:#3E4E60;" d="M320.026,134.796c0.826,1.799,1.241,3.731,1.241,5.677c0.004,3.45-1.312,6.905-3.945,9.538
							l-7.794,7.794c-4.117,4.117-10.225,5.018-15.219,2.708c-0.826-1.799-1.241-3.731-1.241-5.677c0-3.455,1.312-6.905,3.949-9.542
							l7.794-7.794C308.925,133.387,315.033,132.486,320.026,134.796z"/>
					</g>
					<g>
						<path style="fill:#EA792E;" d="M358.875,117.086c-2.032,2.032-4.846,3.289-7.946,3.289l-28.706,0
							c-6.204,0.003-11.235-5.028-11.235-11.235c-0.042-6.198,5.137-11.283,11.235-11.235c0,0,28.706,0,28.706,0
							c6.208,0,11.239,5.031,11.235,11.235C362.163,112.162,360.966,114.989,358.875,117.086z"/>
						<path style="fill:#F39E22;" d="M361.218,113.654c-1.383,0.608-2.905,0.943-4.511,0.943l-28.706,0
							c-7.97,0.143-13.601-8.538-10.293-15.746c1.379-0.611,2.905-0.95,4.514-0.946l28.706,0
							C358.908,97.768,364.53,106.443,361.218,113.654z"/>
					</g>
					<g>
						<path style="fill:#C44A1A;" d="M323.843,102.943c2.032,2.032,3.289,4.846,3.289,7.946l0,28.706
							c0.003,6.204-5.028,11.235-11.235,11.235c-6.198,0.042-11.283-5.137-11.235-11.235c0,0,0-28.706,0-28.706
							c0-6.208,5.031-11.239,11.235-11.235C318.919,99.655,321.745,100.852,323.843,102.943z"/>
						<path style="fill:#DD5E26;" d="M320.411,100.6c0.608,1.383,0.943,2.905,0.943,4.511l0,28.706
							c0.143,7.97-8.538,13.601-15.746,10.293c-0.611-1.379-0.95-2.905-0.946-4.514l0-28.706
							C304.525,102.91,313.199,97.288,320.411,100.6z"/>
					</g>
				</g>
				<g>
					<g>
						<path style="fill:#2E3140;" d="M444.609,280.465c-2.592,1.608-5.806,2.225-9.01,1.473l-15.694-3.68
							c-6.413-1.5-10.393-7.919-8.889-14.335c1.458-6.416,8.044-10.416,14.335-8.889c0,0,15.694,3.681,15.694,3.681
							C451.33,261.052,453.561,275.006,444.609,280.465z"/>
						<path style="fill:#334353;" d="M447.862,277.486c-1.576,0.293-3.231,0.27-4.891-0.119l-15.694-3.681
							c-8.272-1.783-11.988-12.12-6.821-18.768c1.573-0.297,3.232-0.277,4.895,0.116l15.694,3.681
							C449.326,260.508,453.033,270.836,447.862,277.486z"/>
					</g>
					<g>
						<path style="fill:#334353;" d="M360.719,239.877c-1.157,4.932-4.2,8.916-8.188,11.389c-3.98,2.474-8.908,3.419-13.832,2.265
							l-14.575-3.418c-9.855-2.311-15.973-12.166-13.662-22.021c0.507-2.164,1.375-4.136,2.523-5.893
							c1.485-2.241,3.419-4.103,5.664-5.496c3.988-2.473,8.91-3.428,13.841-2.271l14.575,3.418
							c7.691,1.804,13.104,8.21,14.011,15.627C361.325,235.561,361.226,237.713,360.719,239.877z"/>
						<path style="fill:#3E4E60;" d="M361.078,233.476c-1.485,2.241-3.419,4.103-5.664,5.496c-3.98,2.475-8.91,3.428-13.834,2.273
							l-14.575-3.418c-7.699-1.806-13.112-8.211-14.019-15.629c1.485-2.241,3.419-4.103,5.664-5.496
							c3.988-2.473,8.91-3.428,13.841-2.271l14.575,3.418C354.758,219.653,360.171,226.059,361.078,233.476z"/>
					</g>
					<g>
						<path style="fill:#EA792E;" d="M409.328,265.645c-3.8-0.891-7.265-3.24-9.484-6.819l-20.547-33.136
							c-4.445-7.159-2.238-16.568,4.927-21.011c7.124-4.485,16.701-2.146,21.011,4.927c0,0,20.547,33.136,20.547,33.136
							c4.443,7.166,2.237,16.574-4.927,21.011C417.364,265.916,413.245,266.557,409.328,265.645z"/>
						<path style="fill:#F39E22;" d="M414.966,265.893c-1.691-1.161-3.167-2.678-4.317-4.532l-20.547-33.136
							c-5.87-9.097,0.12-21.811,10.809-23.151c1.692,1.155,3.175,2.673,4.323,4.534l20.547,33.136
							C431.651,251.856,425.661,264.554,414.966,265.893z"/>
					</g>
					<g>
						<path style="fill:#C44A1A;" d="M400.579,215.083c-0.891,3.8-3.24,7.265-6.819,9.484l-33.136,20.547
							c-7.159,4.445-16.568,2.238-21.011-4.927c-4.485-7.124-2.146-16.701,4.927-21.011c0,0,33.136-20.547,33.136-20.547
							c7.166-4.443,16.574-2.237,21.011,4.927C400.849,207.046,401.49,211.165,400.579,215.083z"/>
						<path style="fill:#DD5E26;" d="M400.826,209.444c-1.161,1.691-2.678,3.167-4.532,4.317l-33.136,20.547
							c-9.098,5.87-21.811-0.12-23.152-10.809c1.155-1.692,2.673-3.175,4.534-4.323l33.136-20.547
							C386.79,192.76,399.488,198.749,400.826,209.444z"/>
					</g>
				</g>
				<g>
					<g>
						<path style="fill:#2E3140;" d="M394.571,357.011c-2.983,0.637-6.216,0.131-8.977-1.659l-13.527-8.769
							c-5.528-3.579-7.105-10.966-3.52-16.495c3.541-5.545,11.091-7.084,16.496-3.52c0,0,13.527,8.769,13.527,8.769
							C407.458,341.011,404.841,354.898,394.571,357.011z"/>
						<path style="fill:#334353;" d="M398.64,355.306c-1.582-0.257-3.132-0.838-4.562-1.765l-13.527-8.769
							c-7.182-4.474-7.186-15.459-0.076-19.969c1.581,0.252,3.136,0.831,4.567,1.764l13.527,8.769
							C405.756,339.822,405.754,350.795,398.64,355.306z"/>
					</g>
					<g>
						<path style="fill:#334353;" d="M329.337,290.456c-2.755,4.25-6.967,6.972-11.555,7.951c-4.582,0.983-9.54,0.207-13.783-2.544
							l-12.562-8.143c-8.494-5.506-10.921-16.849-5.414-25.343c1.209-1.865,2.692-3.427,4.367-4.693
							c2.155-1.607,4.604-2.706,7.189-3.258c4.589-0.979,9.544-0.214,13.794,2.541l12.562,8.143
							c6.629,4.297,9.558,12.156,7.905,19.443C331.367,286.599,330.546,288.591,329.337,290.456z"/>
						<path style="fill:#3E4E60;" d="M331.838,284.554c-2.155,1.607-4.605,2.706-7.189,3.258c-4.582,0.984-9.544,0.214-13.788-2.537
							l-12.562-8.143c-6.636-4.302-9.565-12.16-7.912-19.447c2.155-1.607,4.604-2.706,7.189-3.258
							c4.589-0.979,9.544-0.214,13.794,2.541l12.562,8.143C330.562,269.408,333.491,277.266,331.838,284.554z"/>
					</g>
					<g>
						<path style="fill:#EA792E;" d="M366.375,331.138c-3.275-2.123-5.742-5.505-6.621-9.623l-8.138-38.131
							c-1.763-8.24,3.493-16.349,11.739-18.109c8.221-1.813,16.443,3.625,18.109,11.739c0,0,8.138,38.131,8.138,38.131
							c1.76,8.246-3.497,16.355-11.739,18.109C373.848,334.108,369.754,333.32,366.375,331.138z"/>
						<path style="fill:#F39E22;" d="M371.598,333.277c-1.199-1.664-2.076-3.591-2.531-5.725l-8.138-38.131
							c-2.45-10.546,7.485-20.487,17.998-18.135c1.202,1.659,2.085,3.589,2.536,5.728l8.138,38.131
							C392.045,325.705,382.116,335.632,371.598,333.277z"/>
					</g>
					<g>
						<path style="fill:#C44A1A;" d="M375.231,280.594c-2.123,3.275-5.505,5.742-9.623,6.621l-38.131,8.138
							c-8.24,1.763-16.349-3.493-18.109-11.739c-1.813-8.221,3.625-16.443,11.739-18.109c0,0,38.131-8.138,38.131-8.138
							c8.246-1.76,16.355,3.497,18.109,11.739C378.202,273.121,377.413,277.215,375.231,280.594z"/>
						<path style="fill:#DD5E26;" d="M377.37,275.371c-1.664,1.199-3.591,2.076-5.725,2.531l-38.131,8.138
							c-10.546,2.45-20.487-7.485-18.135-17.998c1.659-1.202,3.589-2.085,5.728-2.536l38.131-8.138
							C369.799,254.924,379.725,264.853,377.37,275.371z"/>
					</g>
				</g>
			</g>
			<g>
				<g>
					<g>
						<path style="fill:#2E3140;" d="M68.426,204.958c1.998,1.998,4.765,3.234,7.814,3.234l14.932,0
							c6.1,0.003,11.047-4.944,11.047-11.047c0.042-6.094-5.051-11.094-11.048-11.048c0,0-14.932,0-14.932,0
							C66.471,186.029,61.508,198.141,68.426,204.958z"/>
						<path style="fill:#334353;" d="M66.123,201.583c1.36,0.597,2.856,0.927,4.435,0.927l14.932,0
							c7.837,0.141,13.374-8.395,10.121-15.483c-1.356-0.601-2.856-0.934-4.439-0.93l-14.932,0
							C68.394,185.963,62.866,194.492,66.123,201.583z"/>
					</g>
					<g>
						<path style="fill:#334353;" d="M152.664,186.097c0,4.692,1.902,8.929,4.975,12.002c3.066,3.073,7.31,4.968,11.995,4.968
							h13.867c9.376,0,16.977-7.593,16.977-16.97c0-2.059-0.366-4.02-1.029-5.848c-0.865-2.335-2.215-4.423-3.946-6.154
							c-3.073-3.073-7.31-4.975-12.002-4.975h-13.867c-7.318,0-13.554,4.632-15.941,11.129
							C153.029,182.076,152.664,184.038,152.664,186.097z"/>
						<path style="fill:#3E4E60;" d="M153.693,180.249c0.865,2.335,2.215,4.424,3.946,6.154c3.066,3.073,7.31,4.975,11.995,4.975
							h13.867c7.325,0,13.561-4.632,15.948-11.129c-0.865-2.335-2.215-4.423-3.946-6.154c-3.073-3.073-7.31-4.975-12.002-4.975
							h-13.867C162.316,169.119,156.08,173.751,153.693,180.249z"/>
					</g>
					<g>
						<path style="fill:#EA792E;" d="M103.378,199.055c3.615,0,7.237-1.385,9.995-4.143l25.537-25.537
							c5.522-5.516,5.522-14.468,0-19.99c-5.476-5.551-14.607-5.467-19.99,0c0,0-25.537,25.537-25.537,25.537
							c-5.522,5.522-5.522,14.474,0,19.99C96.073,197.599,99.652,199.049,103.378,199.055z"/>
						<path style="fill:#F39E22;" d="M98.241,198.086c1.77-0.69,3.423-1.746,4.852-3.174l25.537-25.537
							c7.218-6.963,4.505-19.695-4.852-23.164c-1.77,0.683-3.429,1.739-4.858,3.174l-25.537,25.537
							C86.163,181.899,88.879,194.616,98.241,198.086z"/>
					</g>
					<g>
						<path style="fill:#C44A1A;" d="M121.961,155.307c0,3.615,1.385,7.237,4.143,9.995l25.537,25.537
							c5.516,5.522,14.468,5.522,19.99,0c5.551-5.476,5.467-14.607,0-19.99c0,0-25.537-25.537-25.537-25.537
							c-5.522-5.522-14.474-5.522-19.99,0C123.417,148.002,121.967,151.581,121.961,155.307z"/>
						<path style="fill:#DD5E26;" d="M122.93,150.17c0.69,1.77,1.746,3.423,3.174,4.852l25.537,25.537
							c6.963,7.218,19.695,4.505,23.164-4.852c-0.683-1.77-1.739-3.429-3.174-4.858l-25.537-25.537
							C139.117,138.092,126.4,140.808,122.93,150.17z"/>
					</g>
				</g>
				<g>
					<g>
						<path style="fill:#2E3140;" d="M130.162,100.76c0,2.246,0.861,4.496,2.574,6.209l8.392,8.392
							c3.427,3.431,8.988,3.431,12.418,0c3.449-3.402,3.396-9.074,0-12.418c0,0-8.392-8.392-8.392-8.392
							C139.703,89.022,130.106,93.04,130.162,100.76z"/>
						<path style="fill:#334353;" d="M130.764,97.568c0.428,1.1,1.084,2.126,1.972,3.014l8.392,8.392
							c4.325,4.484,12.235,2.798,14.39-3.014c-0.424-1.1-1.081-2.13-1.972-3.018l-8.392-8.392
							C140.82,90.065,132.92,91.752,130.764,97.568z"/>
					</g>
					<g>
						<path style="fill:#334353;" d="M188.108,137.504c-2.637,2.637-3.949,6.088-3.949,9.542c-0.004,3.45,1.317,6.901,3.949,9.534
							l7.794,7.794c5.27,5.27,13.81,5.274,19.08,0.004c1.157-1.157,2.054-2.465,2.708-3.865c0.826-1.799,1.241-3.731,1.241-5.677
							c0-3.455-1.312-6.905-3.949-9.542l-7.794-7.794c-4.113-4.113-10.221-5.014-15.214-2.704
							C190.574,135.45,189.266,136.347,188.108,137.504z"/>
						<path style="fill:#3E4E60;" d="M191.974,134.796c-0.826,1.799-1.241,3.731-1.241,5.677c-0.004,3.45,1.312,6.905,3.945,9.538
							l7.794,7.794c4.117,4.117,10.225,5.018,15.219,2.708c0.826-1.799,1.241-3.731,1.241-5.677c0-3.455-1.312-6.905-3.949-9.542
							l-7.794-7.794C203.075,133.387,196.967,132.486,191.974,134.796z"/>
					</g>
					<g>
						<path style="fill:#EA792E;" d="M153.125,117.086c2.032,2.032,4.846,3.289,7.946,3.289l28.706,0
							c6.204,0.003,11.235-5.028,11.235-11.235c0.042-6.198-5.137-11.283-11.235-11.235c0,0-28.706,0-28.706,0
							c-6.208,0-11.239,5.031-11.235,11.235C149.837,112.162,151.034,114.989,153.125,117.086z"/>
						<path style="fill:#F39E22;" d="M150.782,113.654c1.383,0.608,2.905,0.943,4.511,0.943l28.706,0
							c7.97,0.143,13.601-8.538,10.293-15.746c-1.379-0.611-2.905-0.95-4.514-0.946l-28.706,0
							C153.092,97.768,147.47,106.443,150.782,113.654z"/>
					</g>
					<g>
						<path style="fill:#C44A1A;" d="M188.157,102.943c-2.032,2.032-3.289,4.846-3.289,7.946l0,28.706
							c-0.003,6.204,5.028,11.235,11.235,11.235c6.198,0.042,11.283-5.137,11.235-11.235c0,0,0-28.706,0-28.706
							c0-6.208-5.031-11.239-11.235-11.235C193.081,99.655,190.255,100.852,188.157,102.943z"/>
						<path style="fill:#DD5E26;" d="M191.589,100.6c-0.608,1.383-0.943,2.905-0.943,4.511l0,28.706
							c-0.143,7.97,8.538,13.601,15.746,10.293c0.611-1.379,0.95-2.905,0.946-4.514l0-28.706
							C207.475,102.91,198.801,97.288,191.589,100.6z"/>
					</g>
				</g>
				<g>
					<g>
						<path style="fill:#2E3140;" d="M67.391,280.465c2.592,1.608,5.805,2.225,9.01,1.473l15.694-3.68
							c6.413-1.5,10.393-7.919,8.889-14.335c-1.458-6.416-8.044-10.416-14.335-8.889c0,0-15.694,3.681-15.694,3.681
							C60.67,261.052,58.439,275.006,67.391,280.465z"/>
						<path style="fill:#334353;" d="M64.138,277.486c1.576,0.293,3.231,0.27,4.891-0.119l15.694-3.681
							c8.272-1.783,11.988-12.12,6.821-18.768c-1.573-0.297-3.232-0.277-4.895,0.116l-15.694,3.681
							C62.674,260.508,58.967,270.836,64.138,277.486z"/>
					</g>
					<g>
						<path style="fill:#334353;" d="M151.281,239.877c1.157,4.932,4.2,8.916,8.188,11.389c3.98,2.474,8.908,3.419,13.832,2.265
							l14.575-3.418c9.855-2.311,15.973-12.166,13.662-22.021c-0.507-2.164-1.375-4.136-2.523-5.893
							c-1.485-2.241-3.419-4.103-5.664-5.496c-3.988-2.473-8.91-3.428-13.841-2.271l-14.575,3.418
							c-7.691,1.804-13.104,8.21-14.011,15.627C150.675,235.561,150.774,237.713,151.281,239.877z"/>
						<path style="fill:#3E4E60;" d="M150.922,233.476c1.485,2.241,3.419,4.103,5.664,5.496c3.98,2.475,8.91,3.428,13.834,2.273
							l14.575-3.418c7.699-1.806,13.112-8.211,14.019-15.629c-1.485-2.241-3.419-4.103-5.664-5.496
							c-3.988-2.473-8.91-3.428-13.841-2.271l-14.575,3.418C157.242,219.653,151.829,226.059,150.922,233.476z"/>
					</g>
					<g>
						<path style="fill:#EA792E;" d="M102.672,265.645c3.8-0.891,7.265-3.24,9.484-6.819l20.547-33.136
							c4.445-7.159,2.238-16.568-4.927-21.011c-7.124-4.485-16.701-2.146-21.011,4.927c0,0-20.547,33.136-20.547,33.136
							c-4.443,7.166-2.237,16.574,4.927,21.011C94.636,265.916,98.755,266.557,102.672,265.645z"/>
						<path style="fill:#F39E22;" d="M97.034,265.893c1.691-1.161,3.167-2.678,4.317-4.532l20.547-33.136
							c5.87-9.097-0.12-21.811-10.809-23.151c-1.692,1.155-3.175,2.673-4.323,4.534l-20.547,33.136
							C80.349,251.856,86.339,264.554,97.034,265.893z"/>
					</g>
					<g>
						<path style="fill:#C44A1A;" d="M111.421,215.083c0.891,3.8,3.24,7.265,6.819,9.484l33.136,20.547
							c7.159,4.445,16.568,2.238,21.011-4.927c4.485-7.124,2.146-16.701-4.927-21.011c0,0-33.136-20.547-33.136-20.547
							c-7.166-4.443-16.574-2.237-21.011,4.927C111.151,207.046,110.51,211.165,111.421,215.083z"/>
						<path style="fill:#DD5E26;" d="M111.174,209.444c1.161,1.691,2.678,3.167,4.532,4.317l33.136,20.547
							c9.097,5.87,21.811-0.12,23.151-10.809c-1.155-1.692-2.673-3.175-4.534-4.323l-33.136-20.547
							C125.21,192.76,112.512,198.749,111.174,209.444z"/>
					</g>
				</g>
				<g>
					<g>
						<path style="fill:#2E3140;" d="M117.429,357.011c2.983,0.637,6.216,0.131,8.977-1.659l13.527-8.769
							c5.528-3.579,7.105-10.966,3.52-16.495c-3.541-5.545-11.091-7.084-16.496-3.52c0,0-13.527,8.769-13.527,8.769
							C104.542,341.011,107.159,354.898,117.429,357.011z"/>
						<path style="fill:#334353;" d="M113.36,355.306c1.582-0.257,3.132-0.838,4.562-1.765l13.527-8.769
							c7.182-4.474,7.186-15.459,0.076-19.969c-1.581,0.252-3.136,0.831-4.567,1.764l-13.527,8.769
							C106.244,339.822,106.246,350.795,113.36,355.306z"/>
					</g>
					<g>
						<path style="fill:#334353;" d="M182.663,290.456c2.755,4.25,6.967,6.972,11.555,7.951c4.582,0.983,9.54,0.207,13.783-2.544
							l12.562-8.143c8.494-5.506,10.921-16.849,5.414-25.343c-1.209-1.865-2.692-3.427-4.367-4.693
							c-2.155-1.607-4.604-2.706-7.189-3.258c-4.589-0.979-9.544-0.214-13.794,2.541l-12.562,8.143
							c-6.629,4.297-9.558,12.156-7.905,19.443C180.633,286.599,181.454,288.591,182.663,290.456z"/>
						<path style="fill:#3E4E60;" d="M180.162,284.554c2.155,1.607,4.605,2.706,7.189,3.258c4.582,0.984,9.544,0.214,13.788-2.537
							l12.562-8.143c6.636-4.302,9.565-12.16,7.912-19.447c-2.155-1.607-4.604-2.706-7.189-3.258
							c-4.589-0.979-9.544-0.214-13.794,2.541l-12.562,8.143C181.438,269.408,178.509,277.266,180.162,284.554z"/>
					</g>
					<g>
						<path style="fill:#EA792E;" d="M145.625,331.138c3.275-2.123,5.742-5.505,6.621-9.623l8.138-38.131
							c1.763-8.24-3.493-16.349-11.739-18.109c-8.221-1.813-16.443,3.625-18.109,11.739c0,0-8.138,38.131-8.138,38.131
							c-1.76,8.246,3.497,16.355,11.739,18.109C138.152,334.108,142.246,333.32,145.625,331.138z"/>
						<path style="fill:#F39E22;" d="M140.402,333.277c1.199-1.664,2.076-3.591,2.531-5.725l8.138-38.131
							c2.45-10.546-7.485-20.487-17.998-18.135c-1.202,1.659-2.085,3.589-2.536,5.728l-8.138,38.131
							C119.955,325.705,129.884,335.632,140.402,333.277z"/>
					</g>
					<g>
						<path style="fill:#C44A1A;" d="M136.769,280.594c2.123,3.275,5.505,5.742,9.623,6.621l38.131,8.138
							c8.24,1.763,16.349-3.493,18.109-11.739c1.813-8.221-3.625-16.443-11.739-18.109c0,0-38.131-8.138-38.131-8.138
							c-8.246-1.76-16.355,3.497-18.109,11.739C133.798,273.121,134.587,277.215,136.769,280.594z"/>
						<path style="fill:#DD5E26;" d="M134.63,275.371c1.664,1.199,3.591,2.076,5.725,2.531l38.131,8.138
							c10.546,2.45,20.487-7.485,18.135-17.998c-1.659-1.202-3.589-2.085-5.728-2.536l-38.131-8.138
							C142.201,254.924,132.275,264.853,134.63,275.371z"/>
					</g>
				</g>
			</g>
		</g>
	</g>
</g>
</svg>
