<?xml version="1.0" encoding="iso-8859-1"?>
<!-- Generator: Adobe Illustrator 22.0.1, SVG Export Plug-In . SVG Version: 6.00 Build 0)  -->
<svg version="1.1" id="Icons" xmlns="http://www.w3.org/2000/svg" xmlns:xlink="http://www.w3.org/1999/xlink" x="0px" y="0px"
	 viewBox="0 0 512 512" style="enable-background:new 0 0 512 512;" xml:space="preserve">
<g>
	<circle style="fill:#22BCE0;" cx="256" cy="256" r="256"/>
	<g>
		<g>
			<path style="fill:#C17E62;" d="M413.748,236.735v106.357c0,57.759-46.818,104.566-104.567,104.566H202.814
				c-57.749,0-104.567-46.807-104.567-104.566V236.735c0-57.749,46.818-104.567,104.567-104.567h106.367
				C366.931,132.168,413.748,178.986,413.748,236.735z"/>
			<path style="fill:#D48D77;" d="M413.748,236.735v106.357c0,57.759-46.818,104.566-104.567,104.566h-53.184v-315.49h53.184
				C366.931,132.168,413.748,178.986,413.748,236.735z"/>
		</g>
		<g>
			<g>
				<path style="fill:#D48D77;" d="M410.599,210.886l-75.179-75.179l35.803-35.803c15.357-15.357,40.255-15.357,55.612,0
					l19.567,19.567c15.357,15.357,15.357,40.255,0,55.612L410.599,210.886z"/>
				<path style="fill:#C17E62;" d="M385.195,185.481l-24.371-24.371c-6.586-6.586-6.586-17.264,0-23.851l12.914-12.914
					c9.26-9.26,24.272-9.26,33.532,0l14.689,14.689c9.26,9.26,9.26,24.272,0,33.532l-12.914,12.914
					C402.46,192.068,391.781,192.068,385.195,185.481z"/>
				<path style="fill:#EEA47D;" d="M445.67,133.385l-32.749-32.749c-4.054-4.054-10.626-4.054-14.68,0v0
					c-4.054,4.054-4.054,10.626,0,14.68l32.749,32.749c4.054,4.054,10.626,4.054,14.68,0l0,0
					C449.724,144.011,449.724,137.439,445.67,133.385z"/>
			</g>
			<g>
				<path style="fill:#C17E62;" d="M176.647,135.707l-75.179,75.179l-35.803-35.803c-15.357-15.357-15.357-40.255,0-55.612
					l19.567-19.567c15.357-15.357,40.255-15.357,55.612,0L176.647,135.707z"/>
				<path style="fill:#A26D5A;" d="M151.243,161.111l-24.371,24.371c-6.586,6.586-17.264,6.586-23.851,0l-12.914-12.914
					c-9.26-9.26-9.26-24.272,0-33.532l14.689-14.689c9.26-9.26,24.272-9.26,33.532,0l12.914,12.914
					C157.829,143.846,157.829,154.525,151.243,161.111z"/>
				<path style="fill:#D48D77;" d="M99.147,100.636l-32.749,32.749c-4.054,4.054-4.054,10.626,0,14.68l0,0
					c4.054,4.054,10.626,4.054,14.68,0l32.749-32.749c4.054-4.054,4.054-10.626,0-14.68l0,0
					C109.773,96.582,103.2,96.582,99.147,100.636z"/>
			</g>
		</g>
		<g>
			<g>
				<path style="fill:#C17E62;" d="M355.539,289.396c-9.881,9.881-25.931,9.881-35.812,0c-9.894-9.894-9.881-25.931,0-35.812
					c2.679-2.679,5.807-4.635,9.146-5.856c8.984-3.302,19.451-1.358,26.666,5.856c7.202,7.202,9.159,17.682,5.856,26.666
					C360.175,283.589,358.218,286.717,355.539,289.396z"/>
				<path style="fill:#DD5E26;" d="M355.311,271.49c0,7.613-4.828,14.115-11.584,16.607c-1.908,0.681-3.952,1.071-6.094,1.071
					c-9.773,0-17.678-7.924-17.678-17.678c0-9.774,7.905-17.678,17.678-17.678c2.142,0,4.186,0.389,6.094,1.071
					C350.483,257.374,355.311,263.858,355.311,271.49z"/>
				<path style="fill:#2E3140;" d="M349.248,271.49c0,5.002-3.172,9.274-7.611,10.912c-1.254,0.448-2.597,0.704-4.004,0.704
					c-6.422,0-11.615-5.206-11.615-11.615c0-6.422,5.194-11.615,11.615-11.615c1.407,0,2.75,0.256,4.004,0.704
					C346.076,262.215,349.248,266.475,349.248,271.49z"/>
				<path style="fill:#FFFFFF;" d="M349.248,265.917c0,2.602-1.65,4.825-3.96,5.677c-0.652,0.233-1.351,0.366-2.083,0.366
					c-3.341,0-6.043-2.709-6.043-6.043c0-3.341,2.702-6.043,6.043-6.043c0.732,0,1.431,0.133,2.083,0.366
					C347.598,261.092,349.248,263.309,349.248,265.917z"/>
			</g>
			<g>
				<path style="fill:#A26D5A;" d="M156.457,289.396c9.881,9.881,25.931,9.881,35.812,0c9.894-9.894,9.881-25.931,0-35.812
					c-2.679-2.679-5.807-4.635-9.146-5.856c-8.984-3.302-19.451-1.358-26.666,5.856c-7.202,7.202-9.159,17.682-5.856,26.666
					C151.821,283.589,153.778,286.717,156.457,289.396z"/>
				<path style="fill:#DD5E26;" d="M192.044,271.49c0,7.613-4.828,14.115-11.584,16.607c-1.908,0.681-3.952,1.071-6.094,1.071
					c-9.773,0-17.678-7.924-17.678-17.678c0-9.774,7.905-17.678,17.678-17.678c2.142,0,4.186,0.389,6.094,1.071
					C187.216,257.374,192.044,263.858,192.044,271.49z"/>
				<path style="fill:#2E3140;" d="M185.982,271.49c0,5.002-3.172,9.274-7.611,10.912c-1.254,0.448-2.597,0.704-4.004,0.704
					c-6.421,0-11.615-5.206-11.615-11.615c0-6.422,5.194-11.615,11.615-11.615c1.407,0,2.75,0.256,4.004,0.704
					C182.809,262.215,185.982,266.475,185.982,271.49z"/>
				<path style="fill:#FFFFFF;" d="M185.982,265.917c0,2.602-1.65,4.825-3.96,5.677c-0.652,0.233-1.351,0.366-2.083,0.366
					c-3.341,0-6.043-2.709-6.043-6.043c0-3.341,2.702-6.043,6.043-6.043c0.732,0,1.431,0.133,2.083,0.366
					C184.331,261.092,185.982,263.309,185.982,265.917z"/>
			</g>
		</g>
		<g>
			<g>
				<path style="fill:#D48D77;" d="M320.547,386.445c0,17.181-11.122,32.762-27.942,38.058c-11.906,3.76-24.256,5.635-36.607,5.635
					s-24.701-1.875-36.607-5.635c-18.727-5.9-30.389-24.532-27.508-43.947l11.609-78.213c2.627-17.731,17.848-30.855,35.77-30.855
					h33.471c17.922,0,33.143,13.124,35.77,30.855l11.609,78.213C320.409,382.526,320.547,384.496,320.547,386.445z"/>
				<path style="fill:#EEA47D;" d="M320.547,386.445c0,17.181-11.122,32.762-27.942,38.058c-11.906,3.76-24.256,5.635-36.607,5.635
					v-158.65h16.736c17.922,0,33.143,13.124,35.77,30.855l11.609,78.213C320.409,382.526,320.547,384.496,320.547,386.445z"/>
			</g>
			<g>
				<path style="fill:#F5B890;" d="M271.242,283.105h-15.244v58.874h15.244c10.907,0,19.749-8.842,19.749-19.749v-19.377
					C290.991,291.947,282.149,283.105,271.242,283.105z"/>
				<path style="fill:#EEA47D;" d="M240.753,341.979h15.244v-58.874h-15.244c-10.907,0-19.749,8.842-19.749,19.749v19.377
					C221.004,333.137,229.846,341.979,240.753,341.979z"/>
			</g>
			<g>
				<g>
					<path style="fill:#2E3140;" d="M288.273,366.104v7.847c0,13.323-9.025,24.138-20.157,24.138H243.88
						c-11.132,0-20.157-10.814-20.157-24.138v-7.847c0-13.324,9.025-24.125,20.157-24.125h24.235
						C279.248,341.979,288.273,352.78,288.273,366.104z"/>
					<path style="fill:#334353;" d="M288.273,366.104v7.847c0,13.323-9.025,24.138-20.157,24.138h-12.118v-56.11h12.118
						C279.248,341.979,288.273,352.78,288.273,366.104z"/>
					<g>
						<g>
							<path style="fill:#2E3140;" d="M264.724,373.351l-2.685,2.685c-2.509,2.509-2.509,6.578,0,9.087l5.739,5.739
								c2.509,2.509,6.578,2.509,9.087,0l2.685-2.685c2.509-2.509,2.509-6.578,0-9.087l-5.739-5.739
								C271.302,370.841,267.234,370.841,264.724,373.351z"/>
							<path style="fill:#151516;" d="M249.957,376.036l-2.685-2.685c-2.509-2.509-6.578-2.509-9.087,0l-5.739,5.739
								c-2.509,2.509-2.509,6.578,0,9.087l2.685,2.685c2.509,2.509,6.578,2.509,9.087,0l5.739-5.739
								C252.466,382.614,252.466,378.545,249.957,376.036z"/>
						</g>
						<path style="fill:#3F5D77;" d="M255.998,350.813h13.794c4.413,0,7.991,3.578,7.991,7.991l0,0c0,4.413-3.578,7.991-7.991,7.991
							h-13.794V350.813z"/>
						<path style="fill:#334353;" d="M255.998,366.795h-13.794c-4.413,0-7.991-3.578-7.991-7.991l0,0
							c0-4.413,3.578-7.991,7.991-7.991h13.794V366.795z"/>
					</g>
				</g>
				<path style="fill:#151516;" d="M307.436,412.774c-1.108-2.707-4.2-4.004-6.908-2.895c-3.778,1.546-8.935,3.36-10.292,3.49
					c-4.157,0.362-11.554-0.858-18.08-1.934c-3.847-0.635-7.556-1.245-10.862-1.61v-14.564c0-2.925-2.371-5.296-5.296-5.296
					c-2.925,0-5.296,2.371-5.296,5.296v14.564c-3.306,0.364-7.015,0.975-10.862,1.61c-6.525,1.076-13.921,2.298-18.079,1.934
					c-1.225-0.117-6.035-1.748-10.293-3.49c-2.703-1.106-5.798,0.189-6.907,2.896c-1.107,2.707,0.188,5.799,2.895,6.907
					c2.237,0.916,9.815,3.928,13.384,4.239c5.49,0.477,13.233-0.8,20.724-2.036c5.391-0.889,10.966-1.809,14.435-1.809
					c3.468,0,9.043,0.92,14.435,1.809c6.389,1.054,12.963,2.139,18.163,2.139c0.897,0,1.754-0.033,2.561-0.103
					c3.569-0.311,11.147-3.323,13.385-4.239C307.248,418.574,308.544,415.481,307.436,412.774z"/>
			</g>
		</g>
		<g>
			<path style="fill:#EEA47D;" d="M337.139,325.466v58.897c0,10.38,12.55,15.579,19.89,8.239l17.113-17.113
				c11.352-11.352,17.729-26.748,17.729-42.801V313.64c0-8.141-8.135-13.772-15.755-10.905l-31.429,11.826
				C340.146,316.269,337.139,320.614,337.139,325.466z"/>
			<path style="fill:#D48D77;" d="M174.857,325.466v58.897c0,10.38-12.55,15.579-19.89,8.239l-17.113-17.113
				c-11.352-11.352-17.729-26.748-17.729-42.801V313.64c0-8.141,8.136-13.772,15.755-10.905l31.429,11.826
				C171.85,316.269,174.857,320.614,174.857,325.466z"/>
		</g>
		<g>
			<path style="fill:#EEA47D;" d="M308.181,229.871h-52.183v-83.987h43.164c12.539,0,23.793,7.692,28.348,19.374l9.02,23.132
				C344.308,208.34,329.594,229.871,308.181,229.871z"/>
			<path style="fill:#D48D77;" d="M203.814,229.871h52.183v-83.987h-43.164c-12.539,0-23.793,7.692-28.348,19.374l-9.02,23.132
				C167.687,208.34,182.401,229.871,203.814,229.871z"/>
		</g>
	</g>
</g>
</svg>
