<?xml version="1.0" encoding="iso-8859-1"?>
<!-- Generator: Adobe Illustrator 22.0.1, SVG Export Plug-In . SVG Version: 6.00 Build 0)  -->
<svg version="1.1" id="Icons" xmlns="http://www.w3.org/2000/svg" xmlns:xlink="http://www.w3.org/1999/xlink" x="0px" y="0px"
	 viewBox="0 0 512 512" style="enable-background:new 0 0 512 512;" xml:space="preserve">
<g>
	<circle style="fill:#EA792E;" cx="256" cy="256" r="256"/>
	<g>
		<g>
			<path style="fill:#2E3140;" d="M300.12,465.34h-88.24c-19.33,0-34.59-16.43-33.17-35.7l7.37-99.92h139.84l7.37,99.92
				C334.71,448.91,319.45,465.34,300.12,465.34z"/>
			<path style="fill:#334353;" d="M300.12,465.34H256V329.72h69.92l7.37,99.92C334.71,448.91,319.45,465.34,300.12,465.34z"/>
		</g>
		<g>
			<g>
				<path style="fill:#334353;" d="M395.81,197.008v75.62c0,31.53-25.56,57.09-57.08,57.09H173.27c-31.52,0-57.08-25.56-57.08-57.09
					v-75.62c0-21.02,11.36-39.38,28.27-49.29c26.45-15.5,50.12-35.32,68.88-59.55l2.06-2.66c10.28-13.27,25.44-19.91,40.6-19.91
					s30.32,6.64,40.6,19.91l2.06,2.66c18.76,24.23,42.43,44.05,68.88,59.55C384.45,157.628,395.81,175.988,395.81,197.008z"/>
				<path style="fill:#3E4E60;" d="M395.81,197.008v75.62c0,31.53-25.56,57.09-57.08,57.09H256V65.598
					c15.16,0,30.32,6.64,40.6,19.91l2.06,2.66c18.76,24.23,42.43,44.05,68.88,59.55C384.45,157.628,395.81,175.988,395.81,197.008z"
					/>
			</g>
			<g>
				<g>
					<path style="fill:#334353;" d="M379.121,259.822c-12.222,12.222-32.073,12.222-44.296,0c-12.238-12.238-12.222-32.074,0-44.296
						c3.314-3.314,7.182-5.734,11.313-7.244c11.113-4.084,24.059-1.68,32.983,7.244c8.908,8.908,11.328,21.87,7.244,32.983
						C384.855,252.64,382.435,256.508,379.121,259.822z"/>
					
						<ellipse transform="matrix(0.7071 -0.7071 0.7071 0.7071 -54.2279 325.8738)" style="fill:#3F5D77;" cx="366.252" cy="228.396" rx="18.2" ry="28.444"/>
					<path style="fill:#DD5E26;" d="M378.839,237.674c0,9.416-5.972,17.459-14.328,20.541c-2.36,0.843-4.889,1.324-7.537,1.324
						c-12.089,0-21.866-9.801-21.866-21.866c0-12.089,9.777-21.866,21.866-21.866c2.649,0,5.178,0.482,7.537,1.324
						C372.867,220.215,378.839,228.234,378.839,237.674z"/>
					<path style="fill:#2E3140;" d="M371.34,237.674c0,6.187-3.924,11.471-9.414,13.496c-1.551,0.554-3.212,0.87-4.952,0.87
						c-7.943,0-14.367-6.44-14.367-14.367c0-7.943,6.424-14.367,14.367-14.367c1.74,0,3.402,0.316,4.952,0.87
						C367.416,226.203,371.34,231.472,371.34,237.674z"/>
					<path style="fill:#FFFFFF;" d="M371.34,230.782c0,3.219-2.041,5.968-4.898,7.022c-0.807,0.288-1.671,0.453-2.577,0.453
						c-4.132,0-7.474-3.35-7.474-7.474c0-4.132,3.342-7.474,7.474-7.474c0.905,0,1.77,0.165,2.577,0.453
						C369.298,224.814,371.34,227.555,371.34,230.782z"/>
				</g>
				<g>
					<path style="fill:#2E3140;" d="M132.879,259.822c12.222,12.222,32.073,12.222,44.296,0c12.238-12.238,12.222-32.074,0-44.296
						c-3.314-3.314-7.182-5.734-11.313-7.244c-11.113-4.084-24.059-1.68-32.983,7.244c-8.908,8.908-11.328,21.87-7.244,32.983
						C127.145,252.64,129.565,256.508,132.879,259.822z"/>
					
						<ellipse transform="matrix(0.7071 -0.7071 0.7071 0.7071 -118.8118 169.9558)" style="fill:#3E4E60;" cx="145.748" cy="228.396" rx="28.444" ry="18.2"/>
					<path style="fill:#DD5E26;" d="M176.897,237.674c0,9.416-5.972,17.459-14.328,20.541c-2.36,0.843-4.889,1.324-7.537,1.324
						c-12.089,0-21.866-9.801-21.866-21.866c0-12.089,9.777-21.866,21.866-21.866c2.649,0,5.178,0.482,7.537,1.324
						C170.925,220.215,176.897,228.234,176.897,237.674z"/>
					<path style="fill:#2E3140;" d="M169.398,237.674c0,6.187-3.924,11.471-9.414,13.496c-1.551,0.554-3.212,0.87-4.952,0.87
						c-7.943,0-14.367-6.44-14.367-14.367c0-7.943,6.424-14.367,14.367-14.367c1.74,0,3.402,0.316,4.952,0.87
						C165.474,226.203,169.398,231.472,169.398,237.674z"/>
					<path style="fill:#FFFFFF;" d="M169.398,230.782c0,3.219-2.041,5.968-4.898,7.022c-0.807,0.288-1.671,0.453-2.577,0.453
						c-4.132,0-7.474-3.35-7.474-7.474c0-4.132,3.342-7.474,7.474-7.474c0.905,0,1.77,0.165,2.577,0.453
						C167.356,224.814,169.398,227.555,169.398,230.782z"/>
				</g>
			</g>
			<g>
				<path style="fill:#3F5D77;" d="M356.182,133.587l-42.961,14.515c-21.572,7.289-33.151,30.685-25.863,52.258l1.049,3.105
					c7.289,21.572,30.685,33.151,52.258,25.863l42.961-14.515c21.572-7.289,33.151-30.685,25.863-52.258l-1.049-3.105
					C401.151,137.878,377.754,126.298,356.182,133.587z"/>
				<path style="fill:#3E4E60;" d="M155.818,133.587l42.961,14.515c21.572,7.289,33.151,30.685,25.863,52.258l-1.049,3.105
					c-7.289,21.572-30.685,33.151-52.258,25.863l-42.961-14.515c-21.572-7.289-33.151-30.685-25.863-52.258l1.049-3.105
					C110.849,137.878,134.246,126.298,155.818,133.587z"/>
			</g>
			<g>
				<path style="fill:#3E4E60;" d="M395.81,272.308c0,1.59-0.46,3.11-1.27,4.4c-0.82,1.29-2,2.35-3.43,3.02l-10.17,4.81
					c-9.11,4.31-16.22,11.97-19.82,21.39l-4.84,12.64c-5.08,13.27-14.57,24.38-26.87,31.48l-65.24,37.65
					c-2.59,1.19-5.38,1.78-8.17,1.78s-5.58-0.59-8.17-1.78l-65.24-37.65c-12.3-7.1-21.79-18.21-26.87-31.48l-4.84-12.64
					c-3.6-9.42-10.71-17.08-19.82-21.39l-10.17-4.81c-2.87-1.35-4.7-4.24-4.7-7.42c0-4.61,3.75-8.21,8.19-8.21
					c0.45,0,0.9,0.03,1.36,0.11l51.04,8.45c7.91,1.31,15.45,4.27,22.14,8.68l3.94,2.59c0.57,0.37,1.14,0.74,1.72,1.09
					c-0.61-2.45-0.93-5.02-0.93-7.65v-10.8c0-17.53,14.21-31.75,31.75-31.75h41.2c17.54,0,31.75,14.22,31.75,31.75v10.8
					c0,2.63-0.32,5.2-0.93,7.65c0.58-0.35,1.15-0.72,1.72-1.09l3.94-2.59c6.69-4.41,14.23-7.37,22.14-8.68l51.04-8.45
					C391.26,263.378,395.81,267.238,395.81,272.308z"/>
				<path style="fill:#3F5D77;" d="M395.81,272.308c0,1.59-0.46,3.11-1.27,4.4c-0.82,1.29-2,2.35-3.43,3.02l-10.17,4.81
					c-9.11,4.31-16.22,11.97-19.82,21.39l-4.84,12.64c-5.08,13.27-14.57,24.38-26.87,31.48l-65.24,37.65
					c-2.59,1.19-5.38,1.78-8.17,1.78v-154.66h20.6c17.54,0,31.75,14.22,31.75,31.75v10.8c0,2.63-0.32,5.2-0.93,7.65
					c0.58-0.35,1.15-0.72,1.72-1.09l3.94-2.59c6.69-4.41,14.23-7.37,22.14-8.68l51.04-8.45
					C391.26,263.378,395.81,267.238,395.81,272.308z"/>
				<g>
					<path style="fill:#334353;" d="M279.808,315.439l4.93-8.378c2.402-4.082,7.932-4.959,11.479-1.821l6.874,6.081
						c3.051,2.699,3.403,7.336,0.793,10.464l-1.916,2.297c-1.431,1.715-3.549,2.706-5.782,2.706h-9.888
						C280.473,326.788,276.853,320.458,279.808,315.439z"/>
					<path style="fill:#2E3140;" d="M232.192,315.439l-4.93-8.378c-2.402-4.082-7.932-4.959-11.479-1.821l-6.874,6.081
						c-3.051,2.699-3.403,7.336-0.793,10.464l1.916,2.297c1.431,1.715,3.549,2.706,5.782,2.706h9.888
						C231.527,326.788,235.147,320.458,232.192,315.439z"/>
				</g>
				<g>
					<path style="fill:#3F6C8E;" d="M320.236,300.228v-10.471c0-2.509,1.702-4.698,4.134-5.316l37.571-9.547
						c3.467-0.881,6.835,1.739,6.835,5.316l0,0c0,2.026-1.117,3.888-2.906,4.84l-37.571,20.017
						C324.646,307.015,320.236,304.367,320.236,300.228z"/>
					<path style="fill:#3F5D77;" d="M191.764,300.228v-10.471c0-2.509-1.702-4.698-4.134-5.316l-37.571-9.547
						c-3.467-0.881-6.835,1.739-6.835,5.316l0,0c0,2.026,1.117,3.888,2.906,4.84l37.571,20.017
						C187.354,307.015,191.764,304.367,191.764,300.228z"/>
				</g>
				<path style="fill:#3F6C8E;" d="M256,258.343c6.48,0,11.733,5.253,11.733,11.733v50.833c0,7.725,6.262,13.987,13.987,13.987
					h32.193c3.492,0,6.323,2.831,6.323,6.323v0c0,2.255-1.194,4.336-3.146,5.467c-11.487,6.658-51.025,29.14-61.09,29.14V258.343z"
					/>
				<path style="fill:#3F5D77;" d="M256,258.343c-6.48,0-11.733,5.253-11.733,11.733v50.833c0,7.725-6.262,13.987-13.987,13.987
					h-32.193c-3.492,0-6.323,2.831-6.323,6.323v0c0,2.255,1.194,4.336,3.146,5.467c11.487,6.658,51.025,29.14,61.09,29.14V258.343z"
					/>
			</g>
			<g>
				<g>
					<g>
						<path style="fill:#3F5D77;" d="M277.118,93.256c-0.079,0-0.159-0.001-0.239-0.004c-4.14-0.129-7.391-3.591-7.261-7.731
							l1.367-43.629c0.129-4.14,3.557-7.409,7.731-7.261c4.14,0.129,7.391,3.591,7.261,7.731l-1.367,43.629
							C284.483,90.051,281.152,93.256,277.118,93.256z"/>
					</g>
					<g>
						<path style="fill:#3F5D77;" d="M297.078,113.332c-0.862,0-1.738-0.149-2.595-0.465c-3.886-1.433-5.874-5.746-4.441-9.632
							l15.087-40.905c1.435-3.886,5.747-5.875,9.633-4.441s5.874,5.746,4.441,9.632l-15.087,40.905
							C302.998,111.455,300.13,113.332,297.078,113.332z"/>
					</g>
					<g>
						<path style="fill:#3F5D77;" d="M317.979,132.137c-1.664,0-3.339-0.551-4.73-1.684c-3.212-2.615-3.696-7.339-1.08-10.551
							l24.348-29.902c2.613-3.211,7.337-3.696,10.551-1.081c3.212,2.615,3.696,7.339,1.08,10.551L323.8,129.372
							C322.318,131.193,320.158,132.137,317.979,132.137z"/>
					</g>
				</g>
				<g>
					<g>
						<path style="fill:#3E4E60;" d="M234.882,93.256c0.079,0,0.159-0.001,0.239-0.004c4.14-0.129,7.391-3.591,7.261-7.731
							l-1.367-43.629c-0.129-4.14-3.557-7.409-7.731-7.261c-4.14,0.129-7.391,3.591-7.261,7.731l1.367,43.629
							C227.517,90.051,230.848,93.256,234.882,93.256z"/>
					</g>
					<g>
						<path style="fill:#3E4E60;" d="M214.922,113.332c0.862,0,1.738-0.149,2.595-0.465c3.886-1.433,5.874-5.746,4.441-9.632
							L206.871,62.33c-1.435-3.886-5.747-5.875-9.633-4.441s-5.874,5.746-4.441,9.632l15.087,40.905
							C209.002,111.455,211.87,113.332,214.922,113.332z"/>
					</g>
					<g>
						<path style="fill:#3E4E60;" d="M194.021,132.137c1.664,0,3.339-0.551,4.73-1.684c3.212-2.615,3.696-7.339,1.08-10.551
							l-24.348-29.902c-2.613-3.211-7.337-3.696-10.551-1.081c-3.212,2.615-3.696,7.339-1.08,10.551l24.348,29.902
							C189.682,131.193,191.842,132.137,194.021,132.137z"/>
					</g>
				</g>
			</g>
		</g>
	</g>
</g>
</svg>
