<?xml version="1.0" encoding="iso-8859-1"?>
<!-- Generator: Adobe Illustrator 22.0.1, SVG Export Plug-In . SVG Version: 6.00 Build 0)  -->
<svg version="1.1" id="Icons" xmlns="http://www.w3.org/2000/svg" xmlns:xlink="http://www.w3.org/1999/xlink" x="0px" y="0px"
	 viewBox="0 0 512 512" style="enable-background:new 0 0 512 512;" xml:space="preserve">
<g>
	<circle style="fill:#EE6781;" cx="256" cy="256" r="256"/>
	<g>
		<g>
			<path style="fill:#2E3140;" d="M483.575,314.745l-23.852,23.853c-13.312,13.321-31.437,18.908-48.778,16.761
				c-12.538-1.549-24.671-7.135-34.296-16.761l-73.282-73.282c-22.937-22.937-22.937-60.128,0-83.075l23.852-23.852
				c0.765-0.765,1.548-1.513,2.349-2.226c23.061-20.685,58.553-19.946,80.725,2.226l73.282,73.282
				C506.521,254.608,506.521,291.808,483.575,314.745z"/>
			<path style="fill:#3E4E60;" d="M478.306,257.07L478.306,257.07c-4.177,4.177-10.95,4.177-15.127,0l-86.729-86.729
				c-4.177-4.177-4.177-10.95,0-15.127v0c4.177-4.177,10.95-4.177,15.127,0l86.729,86.729
				C482.483,246.12,482.483,252.893,478.306,257.07z"/>
		</g>
		<g>
			<g>
				<g>
					<path style="fill:#F4E6F4;" d="M313.759,307.074h-34.913l7.317-80.258h0.083c-0.824-16.028,4.88-32.33,17.12-44.575
						l23.852-23.852l0.026-0.026c1.422-1.429,3.455-2.084,5.439-1.73c11.422,2.039,22.353,7.464,31.18,16.291l34.789,34.789
						l38.493,38.493c22.94,22.94,22.94,60.134,0,83.074l-23.853,23.853l-0.026,0.026c-1.435,1.428-3.477,2.081-5.47,1.724
						c-11.411-2.044-22.33-7.466-31.149-16.285l-9.344-9.344C353.103,315.052,333.842,307.074,313.759,307.074z"/>
					<path style="fill:#FFFFFF;" d="M399.269,319.988L399.269,319.988c-13.513-3.342-21.759-17.006-18.417-30.519l5.316-21.496
						c3.342-13.513,17.006-21.759,30.519-18.417h0c13.513,3.342,21.759,17.006,18.417,30.519l-5.316,21.496
						C426.446,315.084,412.782,323.33,399.269,319.988z"/>
				</g>
				<g>
					<path style="fill:#F9C744;" d="M398.644,207.752c-6.642,29.714-25.83,54.686-51.717,69.067
						c-12.219,6.788-27.474,4.585-37.358-5.3l0,0l-6.203-6.203c-22.937-22.937-22.937-60.128,0-83.075l16.937-16.937l6.916-6.916
						l0,0c1.439-1.445,3.497-2.109,5.504-1.749c11.408,2.045,22.324,7.467,31.141,16.284l34.761,34.761
						C398.642,207.702,398.65,207.727,398.644,207.752z"/>
					<path style="fill:#F39E22;" d="M339.053,213.097c0,22.427-11.139,42.892-29.483,58.421l-6.203-6.203
						c-22.937-22.937-22.937-60.128,0-83.075l16.937-16.937C332.163,179.065,339.053,195.474,339.053,213.097z"/>
				</g>
			</g>
			<g>
				<circle style="fill:#57409B;" cx="338.545" cy="221.349" r="31.711"/>
				<path style="fill:#22A8B9;" d="M353.737,223.11c0,3.774-0.986,7.32-2.71,10.4c-3.642,6.528-10.628,10.945-18.644,10.945
					c-11.79,0-21.345-9.555-21.345-21.345c0-8.728,5.235-16.233,12.731-19.541c2.631-1.161,5.552-1.812,8.614-1.812
					C344.173,201.756,353.737,211.32,353.737,223.11z"/>
				<path style="fill:#4FCAE8;" d="M353.737,223.11c0,3.774-0.986,7.32-2.71,10.4c-2.64,1.179-5.552,1.821-8.622,1.821
					c-11.79,0-21.345-9.555-21.345-21.345c0-3.783,0.985-7.338,2.71-10.417c2.631-1.161,5.552-1.812,8.614-1.812
					C344.173,201.756,353.737,211.32,353.737,223.11z"/>
				<path style="fill:#3E4E60;" d="M346.426,223.11c0,2.481-0.651,4.813-1.786,6.836c-2.393,4.294-6.986,7.197-12.256,7.197
					c-1.584,0-3.106-0.264-4.522-0.748c-5.534-1.874-9.511-7.118-9.511-13.286c0-5.737,3.44-10.673,8.367-12.855
					c0.378-0.167,0.765-0.317,1.161-0.44c1.417-0.484,2.93-0.748,4.505-0.748C340.135,209.068,346.426,215.358,346.426,223.11z"/>
				<path style="fill:#2E3140;" d="M337.398,223.11c0,2.481-0.651,4.813-1.786,6.836c-1.68,3.009-4.434,5.341-7.751,6.449
					c-5.534-1.874-9.511-7.118-9.511-13.286c0-5.737,3.44-10.673,8.367-12.855c0.378-0.167,0.765-0.317,1.161-0.44
					C333.413,211.698,337.398,216.942,337.398,223.11z"/>
				<circle style="fill:#FFFFFF;" cx="324.458" cy="217.763" r="9.564"/>
			</g>
		</g>
		<g>
			<path style="fill:#DD5E26;" d="M295.084,251.319v20.195l-3.515,7.698l-12.723,27.862c-81.655,0-139.887-6.485-178.992-13.515
				c-46.105-8.273-65.632-17.297-65.632-17.297S160.162,251.319,295.084,251.319z"/>
			<path style="fill:#BF5E39;" d="M291.569,279.212l-12.723,27.862c-81.655,0-139.887-6.485-178.992-13.515
				C148.394,286.879,218.517,279.438,291.569,279.212z"/>
			<path style="fill:#EA792E;" d="M295.084,176.736v83.011c-45.588,0.046-94.968,2.857-141.089,6.136
				c-36.937,2.532-105.692,8.762-130.966,11.531c-4.091,0.421-7.05-3.762-5.334-7.492
				C54.351,184.301,171.434,178.824,295.084,176.736z"/>
			<path style="fill:#F39E22;" d="M295.084,176.736v57.677c-82.705,0.179-188.868,9.29-267.584,17.194
				C72.155,184.27,176.931,178.728,295.084,176.736z"/>
			<path style="fill:#2E3140;" d="M295.087,259.748L295.087,259.748c-6.488,0-11.747-5.26-11.747-11.747v-59.512
				c0-6.488,5.26-11.747,11.747-11.747h0c6.488,0,11.747,5.26,11.747,11.747V248C306.835,254.488,301.575,259.748,295.087,259.748z"
				/>
			<path style="fill:#2E3140;" d="M272.569,305.168L272.569,305.168c-5.433-3.546-6.963-10.825-3.417-16.258l16.096-24.662
				c3.546-5.433,10.825-6.963,16.258-3.417h0c5.433,3.546,6.963,10.825,3.417,16.258l-16.096,24.662
				C285.281,307.185,278.002,308.714,272.569,305.168z"/>
			<path style="fill:#DD5E26;" d="M242.104,208.544v52.322c-7.76,0.298-15.612,0.648-23.505,1.038v-53.361
				c0-6.485,5.262-11.747,11.747-11.747C236.837,196.798,242.103,202.052,242.104,208.544z"/>
			<path style="fill:#DD5E26;" d="M198.045,226.18v36.835c-7.852,0.452-15.704,0.935-23.494,1.449V226.18
				C175.186,210.593,197.413,210.599,198.045,226.18z"/>
			<path style="fill:#DD5E26;" d="M153.995,246.735v19.147c-7.975,0.575-15.827,1.172-23.494,1.768v-20.915
				C131.137,231.147,153.364,231.155,153.995,246.735z"/>
			<path style="fill:#2E3140;" d="M104.335,234.187c0,12.867-2.631,25.108-7.389,36.228c-33.597,2.888-60.606,5.611-73.916,6.999
				c-4.091,0.421-7.05-3.762-5.334-7.492c12.127-26.506,30.37-52.138,80.154-69.784
				C102.033,210.672,104.335,222.162,104.335,234.187z"/>
			<path style="fill:#3E4E60;" d="M49.312,254.63L49.312,254.63c-3.872-5.264-2.743-12.671,2.521-16.543l24.006-17.657
				c5.264-3.872,12.671-2.743,16.543,2.521l0,0c3.872,5.264,2.743,12.671-2.521,16.543L65.854,257.15
				C60.59,261.022,53.184,259.894,49.312,254.63z"/>
			<path style="fill:#F9C744;" d="M270.233,201.093c0,7.944-6.064,14.738-14.132,15.498l-13.998,1.316
				c-20.021,1.89-47.39,4.475-67.4,6.352c0,0-26.362,2.487-26.362,2.487c-9.093,0.914-17.11-6.422-17.061-15.55
				c0-7.955,6.064-14.748,14.131-15.509l107.759-10.154C262.268,184.629,270.291,191.955,270.233,201.093z"/>
			<path style="fill:#EA792E;" d="M242.104,208.544v9.363l-23.505,2.22v-11.583C219.233,192.953,241.474,192.967,242.104,208.544z"
				/>
			<path style="fill:#EA792E;" d="M197.335,222.131l-22.631,2.128c0.925-5.57,5.766-9.825,11.593-9.825
				c3.248,0,6.187,1.316,8.304,3.443C195.794,219.069,196.729,220.518,197.335,222.131z"/>
		</g>
	</g>
</g>
</svg>
