<?xml version="1.0" encoding="iso-8859-1"?>
<!-- Generator: Adobe Illustrator 22.0.1, SVG Export Plug-In . SVG Version: 6.00 Build 0)  -->
<svg version="1.1" id="Icons" xmlns="http://www.w3.org/2000/svg" xmlns:xlink="http://www.w3.org/1999/xlink" x="0px" y="0px"
	 viewBox="0 0 512 512" style="enable-background:new 0 0 512 512;" xml:space="preserve">
<g>
	<circle style="fill:#EE6781;" cx="256" cy="256" r="256"/>
	<g>
		<g>
			<g>
				<path style="fill:#FFFFFF;" d="M420.987,283.102c7.18,7.159,11.617,17.061,11.617,28c0,21.837-17.707,39.543-39.543,39.543
					c-3.124,0-6.163-0.371-9.075-1.059c1.345,3.219,2.097,6.746,2.097,10.452c0,14.964-12.136,27.1-27.1,27.1
					c-6.163,0-11.84-2.065-16.393-5.528c-6.502-4.946-10.707-12.772-10.707-21.572c0-14.964,12.136-27.1,27.1-27.1
					c0.381,0,0.762,0.021,1.133,0.032c-4.162-6.259-6.598-13.778-6.598-21.868c0-12.517,5.825-23.669,14.9-30.923
					c-15.811-9.732-26.348-27.206-26.348-47.136c0-28.784,21.964-52.421,50.049-55.079c1.737-0.169,3.505-0.254,5.284-0.254
					c30.563,0,55.333,24.77,55.333,55.333C452.736,255.165,439.753,274.249,420.987,283.102z"/>
				<path style="fill:#F4E6F4;" d="M394.978,279.342c7.18,7.159,11.617,17.061,11.617,28c0,21.837-17.707,39.543-39.543,39.543
					c-3.124,0-6.163-0.381-9.075-1.059c1.345,3.209,2.097,6.746,2.097,10.452c0,11.575-7.265,21.455-17.484,25.331
					c-6.502-4.946-10.707-12.772-10.707-21.572c0-14.964,12.136-27.1,27.1-27.1c0.381,0,0.762,0.021,1.133,0.032
					c-4.162-6.259-6.598-13.778-6.598-21.868c0-12.517,5.825-23.669,14.9-30.923c-15.811-9.732-26.348-27.206-26.348-47.136
					c0-28.784,21.964-52.421,50.049-55.079c20.29,8.197,34.608,28.085,34.608,51.319
					C426.727,251.406,413.744,270.489,394.978,279.342z"/>
			</g>
			<g>
				<path style="fill:#FFFFFF;" d="M91.013,283.102c-7.18,7.159-11.617,17.061-11.617,28c0,21.837,17.707,39.543,39.543,39.543
					c3.124,0,6.163-0.371,9.075-1.059c-1.345,3.219-2.097,6.746-2.097,10.452c0,14.964,12.136,27.1,27.1,27.1
					c6.163,0,11.84-2.065,16.393-5.528c6.502-4.946,10.707-12.772,10.707-21.572c0-14.964-12.136-27.1-27.1-27.1
					c-0.381,0-0.762,0.021-1.133,0.032c4.162-6.259,6.598-13.778,6.598-21.868c0-12.517-5.825-23.669-14.9-30.923
					c15.811-9.732,26.348-27.206,26.348-47.136c0-28.784-21.964-52.421-50.049-55.079c-1.737-0.169-3.505-0.254-5.284-0.254
					c-30.563,0-55.333,24.77-55.333,55.333C59.264,255.165,72.247,274.249,91.013,283.102z"/>
				<path style="fill:#F4E6F4;" d="M117.022,279.342c-7.18,7.159-11.617,17.061-11.617,28c0,21.837,17.707,39.543,39.543,39.543
					c3.124,0,6.163-0.381,9.075-1.059c-1.345,3.209-2.097,6.746-2.097,10.452c0,11.575,7.265,21.455,17.484,25.331
					c6.502-4.946,10.707-12.772,10.707-21.572c0-14.964-12.136-27.1-27.1-27.1c-0.381,0-0.762,0.021-1.133,0.032
					c4.162-6.259,6.598-13.778,6.598-21.868c0-12.517-5.825-23.669-14.9-30.923c15.811-9.732,26.348-27.206,26.348-47.136
					c0-28.784-21.964-52.421-50.049-55.079c-20.29,8.197-34.608,28.085-34.608,51.319
					C85.273,251.406,98.256,270.489,117.022,279.342z"/>
			</g>
		</g>
		<g>
			<g>
				<g>
					<path style="fill:#C2AACF;" d="M472.88,141.082l1.433,8.589c4.568,27.374-9.414,54.216-31.226,59.948l-63.739,16.751
						c-11.454,3.01-22.679-6.199-25.077-20.565c-1.045-6.264-0.238-12.543,2.001-17.868c2.246-5.327,5.93-9.703,10.632-12.152
						l43.405-22.531l45.393-23.563C463.011,125.896,471.26,131.373,472.88,141.082z"/>
					<path style="fill:#EE6781;" d="M436.016,197.444l-52.689,20.484l-2.29,0.887c-0.46,0.183-0.919,0.331-1.382,0.452
						c-7.484,1.967-15.073-3.514-17.38-12.864c-2.446-9.929,1.98-20.468,9.89-23.546l53.223-20.687l1.749-0.683
						c0.46-0.183,0.919-0.331,1.382-0.452c7.484-1.967,15.072,3.506,17.38,12.864C448.352,183.827,443.926,194.366,436.016,197.444z
						"/>
					<path style="fill:#F4829B;" d="M436.016,197.444l-52.689,20.484c5.623-23.513,21.024-44.278,42.062-55.757l1.749-0.683
						c0.46-0.183,0.919-0.331,1.382-0.452c7.484-1.967,15.072,3.506,17.38,12.864C448.352,183.827,443.926,194.366,436.016,197.444z
						"/>
					<path style="fill:#DECEE5;" d="M461.13,177.709h-3.738c-3.087,0-5.741-2.747-6.328-6.55l-3.191-20.653
						c-0.704-4.557,1.785-8.921,5.448-9.554l6.93-1.198c3.873-0.67,7.326,3.107,7.326,8.014v21.851
						C467.576,174.087,464.69,177.709,461.13,177.709z"/>
				</g>
				<g>
					<path style="fill:#A583BB;" d="M39.12,141.082l-1.433,8.589c-4.567,27.374,9.414,54.216,31.226,59.948l63.739,16.751
						c11.454,3.01,22.679-6.199,25.077-20.565c1.045-6.264,0.238-12.543-2.001-17.868c-2.246-5.327-5.93-9.703-10.632-12.152
						l-43.405-22.531L56.296,129.69C48.989,125.896,40.74,131.373,39.12,141.082z"/>
					<path style="fill:#DD5273;" d="M75.984,197.444l52.689,20.484l2.29,0.887c0.46,0.183,0.919,0.331,1.382,0.452
						c7.484,1.967,15.073-3.514,17.38-12.864c2.446-9.929-1.98-20.468-9.89-23.546L86.61,162.171l-1.749-0.683
						c-0.46-0.183-0.919-0.331-1.382-0.452c-7.484-1.967-15.072,3.506-17.38,12.864C63.648,183.827,68.074,194.366,75.984,197.444z"
						/>
					<path style="fill:#EE6781;" d="M75.984,197.444l52.689,20.484c-5.623-23.513-21.024-44.278-42.062-55.757l-1.749-0.683
						c-0.46-0.183-0.919-0.331-1.382-0.452c-7.484-1.967-15.072,3.506-17.38,12.864C63.648,183.827,68.074,194.366,75.984,197.444z"
						/>
					<path style="fill:#C2AACF;" d="M50.764,177.709h3.738c3.087,0,5.741-2.747,6.328-6.55l3.191-20.653
						c0.704-4.557-1.785-8.921-5.448-9.554l-6.93-1.198c-3.873-0.67-7.326,3.107-7.326,8.014v21.851
						C44.318,174.087,47.204,177.709,50.764,177.709z"/>
				</g>
			</g>
			<g>
				<path style="fill:#C2AACF;" d="M375.286,220.324l-9.754,100.965c-2.383,24.59-16.15,45.537-35.784,57.832
					c-4.109,2.563-7.382,6.121-9.637,10.241c-2.256,4.119-3.484,8.811-3.484,13.651c0,16.743-6.788,31.897-17.76,42.869
					c-10.971,10.971-26.126,17.76-42.868,17.76s-31.897-6.788-42.868-17.76c-10.971-10.971-17.76-26.126-17.76-42.869
					c0-9.679-4.914-18.755-13.121-23.891c-19.634-12.295-33.401-33.242-35.784-57.832l-9.754-100.965
					c-4.363-45.209,31.177-84.35,76.598-84.35h85.377C344.109,135.974,379.649,175.115,375.286,220.324z"/>
				<path style="fill:#DECEE5;" d="M375.286,220.324l-9.754,100.965c-2.383,24.59-16.15,45.537-35.784,57.832
					c-4.109,2.563-7.382,6.121-9.637,10.241c-2.256,4.119-3.484,8.811-3.484,13.651c0,16.743-6.788,31.897-17.76,42.869
					c-10.971,10.971-26.126,17.76-42.868,17.76V135.974h42.689C344.109,135.974,379.649,175.115,375.286,220.324z"/>
			</g>
			<g>
				<g>
					<path style="fill:#3E4E60;" d="M358.643,235.614c2.651,9.893-3.143,20.05-12.974,22.818c-0.08,0.036-0.163,0.059-0.247,0.081
						l-12.564,3.367c-4.981,1.335-10.044,0.529-14.19-1.865c-4.16-2.39-7.385-6.357-8.724-11.352
						c-2.487-9.281,2.461-18.809,11.192-22.236c0.659-0.266,1.344-0.494,2.04-0.681l12.564-3.367
						c4.995-1.338,10.048-0.515,14.193,1.879C354.079,226.652,357.304,230.619,358.643,235.614z"/>
					<path style="fill:#2E3140;" d="M358.643,235.614c2.651,9.893-3.143,20.05-12.974,22.818
						c-10.821-3.319-19.992-12.554-23.343-25.062c-0.623-2.324-1.022-4.647-1.19-6.944c0.659-0.266,1.344-0.494,2.04-0.681
						l12.564-3.367c4.995-1.338,10.048-0.515,14.193,1.879C354.079,226.652,357.304,230.619,358.643,235.614z"/>
					<path style="fill:#FFFFFF;" d="M341.787,229.498l-7.56,2.026c-3.255,0.872-5.187,4.218-4.315,7.473v0
						c0.872,3.255,4.218,5.187,7.473,4.315l7.56-2.026c3.255-0.872,5.187-4.218,4.315-7.473v0
						C348.388,230.557,345.042,228.626,341.787,229.498z"/>
				</g>
				<g>
					<path style="fill:#3E4E60;" d="M202.816,248.663c-2.651,9.893-12.747,15.792-22.645,13.274
						c-0.087-0.008-0.171-0.031-0.254-0.053l-12.564-3.367c-4.981-1.335-8.963-4.564-11.356-8.71
						c-2.408-4.15-3.217-9.198-1.879-14.193c2.487-9.281,11.536-15.058,20.81-13.662c0.704,0.099,1.411,0.244,2.107,0.43
						l12.564,3.367c4.995,1.338,8.959,4.578,11.353,8.724C203.345,238.619,204.155,243.668,202.816,248.663z"/>
					<path style="fill:#2E3140;" d="M202.816,248.663c-2.651,9.893-12.747,15.792-22.645,13.274
						c-7.712-8.285-11.036-20.868-7.685-33.376c0.623-2.324,1.439-4.536,2.442-6.608c0.704,0.099,1.411,0.244,2.107,0.43
						l12.564,3.367c4.995,1.338,8.959,4.578,11.353,8.724C203.345,238.619,204.155,243.668,202.816,248.663z"/>
					<path style="fill:#FFFFFF;" d="M191.277,234.938l-7.56-2.026c-3.255-0.872-6.601,1.06-7.473,4.315v0
						c-0.872,3.255,1.06,6.601,4.315,7.473l7.56,2.026c3.255,0.872,6.601-1.06,7.473-4.315v0
						C196.464,239.156,194.532,235.81,191.277,234.938z"/>
				</g>
			</g>
			<g>
				<g>
					<path style="fill:#F4E6F4;" d="M271.598,335.535H256v-77.102h15.598c12.572,0,22.763,10.191,22.763,22.763v31.575
						C294.361,325.343,284.17,335.535,271.598,335.535z"/>
					<path style="fill:#DECEE5;" d="M240.402,335.535H256v-77.102h-15.598c-12.572,0-22.763,10.191-22.763,22.763v31.575
						C217.639,325.343,227.83,335.535,240.402,335.535z"/>
				</g>
				<g>
					<path style="fill:#F4E6F4;" d="M256,397.825c8.95,0,16.205-23.995,16.205-32.945S264.95,348.675,256,348.675V397.825z"/>
					<path style="fill:#DECEE5;" d="M256,348.675c-8.95,0-16.205,7.255-16.205,16.205s7.255,32.945,16.205,32.945V348.675z"/>
				</g>
				<g>
					<path style="fill:#F4E6F4;" d="M329.089,278.659L329.089,278.659c-9.412,0-17.042,7.63-17.042,17.042v38.568
						c0,9.412,7.63,17.042,17.042,17.042h0c9.412,0,17.042-7.63,17.042-17.042v-38.568
						C346.131,286.289,338.501,278.659,329.089,278.659z"/>
					<path style="fill:#DECEE5;" d="M182.911,278.659L182.911,278.659c-9.412,0-17.042,7.63-17.042,17.042v38.568
						c0,9.412,7.63,17.042,17.042,17.042h0c9.412,0,17.042-7.63,17.042-17.042v-38.568
						C199.952,286.289,192.323,278.659,182.911,278.659z"/>
				</g>
				<g>
					<path style="fill:#F4E6F4;" d="M271.633,408.589L271.633,408.589c0-2.278,0.905-4.463,2.516-6.074l12.857-12.857
						c4.805-4.805,13.024-2.392,14.468,4.249l2.796,12.857c1.164,5.354-2.914,10.415-8.394,10.415h-15.653
						C275.478,417.179,271.633,413.333,271.633,408.589z"/>
					<path style="fill:#DECEE5;" d="M240.367,408.589L240.367,408.589c0-2.278-0.905-4.463-2.516-6.074l-12.857-12.857
						c-4.805-4.805-13.024-2.392-14.468,4.249l-2.796,12.857c-1.164,5.354,2.914,10.415,8.394,10.415h15.653
						C236.522,417.179,240.367,413.333,240.367,408.589z"/>
				</g>
				<g>
					<path style="fill:#A583BB;" d="M207.68,183.138h-9.201c-8.775,0-15.889,7.114-15.889,15.889v9.201
						c0,8.775,7.114,15.889,15.889,15.889h9.201c8.775,0,15.889-7.114,15.889-15.889v-9.201
						C223.568,190.252,216.455,183.138,207.68,183.138z"/>
					<path style="fill:#C2AACF;" d="M313.521,183.138h-9.201c-8.775,0-15.889,7.114-15.889,15.889v9.201
						c0,8.775,7.114,15.889,15.889,15.889h9.201c8.775,0,15.889-7.114,15.889-15.889v-9.201
						C329.41,190.252,322.297,183.138,313.521,183.138z"/>
				</g>
			</g>
			<path style="fill:#9175A7;" d="M315.962,425.737c-1.395-2.57-4.609-3.527-7.179-2.13c-0.086,0.047-8.855,4.654-18.656,4.654
				c-7.988,0-17.204-2.046-23.932-3.54c-1.835-0.407-3.457-0.766-4.9-1.054v-17.401l32.654-34.07
				c2.024-2.111,1.953-5.464-0.158-7.487c-2.112-2.023-5.464-1.952-7.486,0.159L256,396.487l-30.305-31.618
				c-2.023-2.112-5.375-2.183-7.486-0.159c-2.111,2.023-2.182,5.376-0.158,7.487l32.654,34.07v17.401
				c-1.443,0.288-3.066,0.646-4.9,1.054c-6.728,1.494-15.944,3.54-23.932,3.54c-9.835,0-18.54-4.593-18.666-4.66
				c-2.571-1.386-5.776-0.43-7.169,2.136c-1.394,2.57-0.441,5.785,2.13,7.179c0.447,0.242,11.087,5.936,23.705,5.936
				c9.149,0,19.021-2.191,26.227-3.792c3.174-0.704,6.772-1.503,7.9-1.503s4.726,0.799,7.9,1.503
				c7.206,1.6,17.077,3.792,26.227,3.792c12.617,0,23.258-5.693,23.705-5.936C316.403,431.521,317.356,428.307,315.962,425.737z"/>
		</g>
		<g>
			<path style="fill:#F4E6F4;" d="M397.706,146.533c-5.196-9.769-16.947-15.896-28.445-13.915
				c9.357-31.833-21.57-61.819-53.437-50.758v0.011c-1.737,0.593-3.421,1.303-5.041,2.129c-21.052-47.531-88.53-47.508-109.565,0
				c-32.56-16.211-68.417,14.205-58.478,48.619c-16.549-2.849-32.077,10.656-31.823,27.121c0,15.175,12.305,27.481,27.47,27.481
				c15.407,0.026,27.918-12.78,27.46-28.191c15.404,7.251,35.988,2.803,46.988-9.563c22.466,24.365,63.872,24.358,86.33,0
				c10.997,12.365,31.587,16.813,46.988,9.563c-0.457,15.411,12.053,28.216,27.46,28.191
				C394.211,187.517,407.821,164.331,397.706,146.533z"/>
			<path style="fill:#FFFFFF;" d="M373.613,132.268c-1.483,0-2.933,0.116-4.353,0.349c9.357-31.833-21.57-61.82-53.437-50.758v0.011
				c-1.737,0.593-3.421,1.303-5.041,2.129c-21.052-47.531-88.53-47.508-109.565,0c-32.561-16.211-68.416,14.206-58.478,48.619
				c-11.499-1.981-23.247,4.146-28.445,13.915c14.143,24.946,51.839,15.032,51.552-13.915c15.504,7.145,35.555,3.041,46.988-9.563
				c22.853,24.43,63.483,24.425,86.33,0c11.43,12.603,31.488,16.708,46.988,9.563c-0.283,28.966,37.427,38.847,51.553,13.915
				C393.035,138.029,383.991,132.268,373.613,132.268z"/>
		</g>
	</g>
</g>
</svg>
