<?xml version="1.0" encoding="iso-8859-1"?>
<!-- Generator: Adobe Illustrator 22.0.1, SVG Export Plug-In . SVG Version: 6.00 Build 0)  -->
<svg version="1.1" id="Icons" xmlns="http://www.w3.org/2000/svg" xmlns:xlink="http://www.w3.org/1999/xlink" x="0px" y="0px"
	 viewBox="0 0 512 512" style="enable-background:new 0 0 512 512;" xml:space="preserve">
<g>
	<circle style="fill:#22BCE0;" cx="256" cy="256" r="256"/>
	<g>
		<g>
			<g>
				<g>
					<g>
						<g>
							<path style="fill:#C0405C;" d="M312.172,314.157c-2.932,2.929-7.68,2.932-10.609,0l-23.89-23.89l10.609-10.609l23.89,23.89
								C315.14,306.498,315.048,311.305,312.172,314.157z"/>
							<path style="fill:#DD5273;" d="M313.858,311.567c-2.74,1.058-5.861,0.462-8.02-1.686l-23.89-23.89l6.333-6.333l23.89,23.89
								C314.343,305.718,314.901,308.885,313.858,311.567z"/>
							<path style="fill:#EE6781;" d="M301.818,305.86l-13.187-13.187c-2.866-3.045,1.424-7.348,4.478-4.478
								c0,0,13.187,13.187,13.187,13.187c1.236,1.236,1.236,3.241,0,4.478C305.059,307.097,303.055,307.097,301.818,305.86z"/>
						</g>
						<g>
							<path style="fill:#C0405C;" d="M319.221,306.67h24.512c6.662,0.259,6.623,9.784,0,10.022c0,0-24.511,0-24.511,0
								c-1.382,0-2.634-0.561-3.538-1.47C312.563,312.215,314.765,306.624,319.221,306.67z"/>
							<path style="fill:#DD5273;" d="M319.221,306.67h24.512c2.073,0,3.855,1.262,4.619,3.055
								c-0.764,1.792-2.546,3.055-4.619,3.055h-24.512c-2.057-0.003-3.825-1.234-4.613-3.055
								C315.371,307.932,317.148,306.67,319.221,306.67z"/>
							<path style="fill:#EE6781;" d="M341.803,310.79c0,1.099-0.891,1.99-1.99,1.99H322.81c-1.099,0-1.99-0.891-1.99-1.99
								c0-1.099,0.891-1.99,1.99-1.99h17.004C340.912,308.8,341.803,309.691,341.803,310.79z"/>
						</g>
						<g>
							<path style="fill:#C0405C;" d="M357.473,308.952l17.332,17.332c4.528,4.894-2.235,11.601-7.086,7.086
								c0,0-17.332-17.332-17.332-17.332c-0.977-0.977-1.466-2.259-1.462-3.541C348.844,308.166,354.354,305.769,357.473,308.952z"
								/>
							<path style="fill:#DD5273;" d="M357.473,308.952l17.332,17.332c1.466,1.466,1.833,3.618,1.106,5.426
								c-1.807,0.727-3.96,0.36-5.426-1.106l-17.332-17.332c-1.452-1.456-1.832-3.577-1.102-5.422
								C353.858,307.123,356.007,307.487,357.473,308.952z"/>
							<path style="fill:#EE6781;" d="M370.528,327.834c-0.777,0.777-2.037,0.777-2.814,0L355.69,315.81
								c-0.777-0.777-0.777-2.037,0-2.814s2.037-0.777,2.814,0l12.024,12.024C371.305,325.797,371.305,327.057,370.528,327.834z"/>
						</g>
					</g>
				</g>
				<g>
					<g>
						<g>
							<path style="fill:#C0405C;" d="M199.828,314.157c2.932,2.929,7.68,2.932,10.609,0l23.89-23.89l-10.609-10.609l-23.89,23.89
								C196.86,306.498,196.952,311.305,199.828,314.157z"/>
							<path style="fill:#DD5273;" d="M198.142,311.567c2.74,1.058,5.861,0.462,8.02-1.686l23.89-23.89l-6.333-6.333l-23.89,23.89
								C197.657,305.718,197.099,308.885,198.142,311.567z"/>
							<path style="fill:#EE6781;" d="M210.182,305.86l13.187-13.187c2.866-3.045-1.424-7.348-4.478-4.478
								c0,0-13.187,13.187-13.187,13.187c-1.236,1.236-1.236,3.241,0,4.478C206.941,307.097,208.945,307.097,210.182,305.86z"/>
						</g>
						<g>
							<path style="fill:#C0405C;" d="M192.779,306.67h-24.512c-6.662,0.259-6.623,9.784,0,10.022c0,0,24.511,0,24.511,0
								c1.382,0,2.634-0.561,3.538-1.47C199.437,312.215,197.235,306.624,192.779,306.67z"/>
							<path style="fill:#DD5273;" d="M192.779,306.67h-24.512c-2.073,0-3.855,1.262-4.619,3.055
								c0.764,1.792,2.546,3.055,4.619,3.055h24.512c2.057-0.003,3.825-1.234,4.613-3.055
								C196.629,307.932,194.852,306.67,192.779,306.67z"/>
							<path style="fill:#EE6781;" d="M170.197,310.79c0,1.099,0.891,1.99,1.99,1.99h17.004c1.099,0,1.99-0.891,1.99-1.99
								c0-1.099-0.891-1.99-1.99-1.99h-17.004C171.088,308.8,170.197,309.691,170.197,310.79z"/>
						</g>
						<g>
							<path style="fill:#C0405C;" d="M154.527,308.952l-17.332,17.332c-4.528,4.894,2.235,11.601,7.086,7.086
								c0,0,17.332-17.332,17.332-17.332c0.977-0.977,1.466-2.259,1.462-3.541C163.156,308.166,157.646,305.769,154.527,308.952z"/>
							<path style="fill:#DD5273;" d="M154.527,308.952l-17.332,17.332c-1.466,1.466-1.833,3.618-1.106,5.426
								c1.808,0.727,3.96,0.36,5.426-1.106l17.332-17.332c1.452-1.456,1.832-3.577,1.102-5.422
								C158.142,307.123,155.993,307.487,154.527,308.952z"/>
							<path style="fill:#EE6781;" d="M141.472,327.834c0.777,0.777,2.037,0.777,2.814,0l12.024-12.024
								c0.777-0.777,0.777-2.037,0-2.814c-0.777-0.777-2.037-0.777-2.814,0l-12.024,12.024
								C140.695,325.797,140.695,327.057,141.472,327.834z"/>
						</g>
					</g>
				</g>
			</g>
			<g>
				<g>
					<g>
						<g>
							<path style="fill:#C0405C;" d="M318.566,289.802c-2.932,2.929-7.68,2.932-10.609,0l-23.89-23.89l10.609-10.609l23.89,23.89
								C321.535,282.143,321.442,286.95,318.566,289.802z"/>
							<path style="fill:#DD5273;" d="M320.253,287.212c-2.74,1.058-5.861,0.462-8.02-1.686c0,0-23.89-23.89-23.89-23.89
								l6.333-6.333l23.89,23.89C320.738,281.364,321.296,284.53,320.253,287.212z"/>
							<path style="fill:#EE6781;" d="M308.213,281.505l-13.187-13.187c-2.866-3.045,1.424-7.348,4.478-4.478
								c0,0,13.187,13.187,13.187,13.187c1.236,1.236,1.236,3.241,0,4.478C311.454,282.742,309.449,282.742,308.213,281.505z"/>
						</g>
						<g>
							<path style="fill:#C0405C;" d="M323.873,272.298h24.512c6.662,0.259,6.623,9.784,0,10.022c0,0-24.511,0-24.511,0
								c-1.382,0-2.634-0.561-3.538-1.47C317.215,277.843,319.416,272.252,323.873,272.298z"/>
							<path style="fill:#DD5273;" d="M323.873,272.298h24.512c2.073,0,3.855,1.262,4.619,3.055
								c-0.764,1.792-2.546,3.055-4.619,3.055h-24.512c-2.057-0.003-3.825-1.234-4.613-3.055
								C320.023,273.56,321.8,272.298,323.873,272.298z"/>
							<path style="fill:#EE6781;" d="M346.455,276.417c0,1.099-0.891,1.99-1.99,1.99h-17.004c-1.099,0-1.99-0.891-1.99-1.99
								s0.891-1.99,1.99-1.99h17.004C345.564,274.428,346.455,275.318,346.455,276.417z"/>
						</g>
						<g>
							<path style="fill:#C0405C;" d="M362.124,274.58l17.332,17.332c4.528,4.894-2.235,11.601-7.086,7.086
								c0,0-17.332-17.332-17.332-17.332c-0.977-0.977-1.466-2.259-1.462-3.541C353.496,273.793,359.006,271.397,362.124,274.58z"/>
							<path style="fill:#DD5273;" d="M362.124,274.58l17.332,17.332c1.466,1.466,1.833,3.618,1.106,5.426
								c-1.808,0.727-3.96,0.36-5.426-1.106l-17.332-17.332c-1.452-1.456-1.832-3.577-1.102-5.422
								C358.51,272.751,360.659,273.115,362.124,274.58z"/>
							<path style="fill:#EE6781;" d="M375.179,293.462c-0.777,0.777-2.037,0.777-2.814,0l-12.024-12.023
								c-0.777-0.777-0.777-2.037,0-2.814c0.777-0.777,2.037-0.777,2.814,0l12.024,12.024
								C375.956,291.425,375.956,292.684,375.179,293.462z"/>
						</g>
					</g>
				</g>
				<g>
					<g>
						<g>
							<path style="fill:#C0405C;" d="M193.434,289.802c2.932,2.929,7.68,2.932,10.609,0l23.89-23.89l-10.609-10.609l-23.89,23.89
								C190.465,282.143,190.558,286.95,193.434,289.802z"/>
							<path style="fill:#DD5273;" d="M191.747,287.212c2.74,1.058,5.861,0.462,8.02-1.686c0,0,23.89-23.89,23.89-23.89
								l-6.333-6.333l-23.89,23.89C191.262,281.364,190.704,284.53,191.747,287.212z"/>
							<path style="fill:#EE6781;" d="M203.787,281.505l13.187-13.187c2.866-3.045-1.424-7.348-4.478-4.478
								c0,0-13.187,13.187-13.187,13.187c-1.236,1.236-1.236,3.241,0,4.478C200.546,282.742,202.551,282.742,203.787,281.505z"/>
						</g>
						<g>
							<path style="fill:#C0405C;" d="M188.127,272.298h-24.512c-6.662,0.259-6.623,9.784,0,10.022c0,0,24.511,0,24.511,0
								c1.382,0,2.634-0.561,3.538-1.47C194.785,277.843,192.584,272.252,188.127,272.298z"/>
							<path style="fill:#DD5273;" d="M188.127,272.298h-24.512c-2.073,0-3.855,1.262-4.619,3.055
								c0.764,1.792,2.546,3.055,4.619,3.055h24.512c2.057-0.003,3.825-1.234,4.613-3.055
								C191.977,273.56,190.2,272.298,188.127,272.298z"/>
							<path style="fill:#EE6781;" d="M165.545,276.417c0,1.099,0.891,1.99,1.99,1.99h17.004c1.099,0,1.99-0.891,1.99-1.99
								c0-1.099-0.891-1.99-1.99-1.99h-17.004C166.436,274.428,165.545,275.318,165.545,276.417z"/>
						</g>
						<g>
							<path style="fill:#C0405C;" d="M149.876,274.58l-17.332,17.332c-4.528,4.894,2.235,11.601,7.087,7.086
								c0,0,17.332-17.332,17.332-17.332c0.977-0.977,1.466-2.259,1.462-3.541C158.504,273.793,152.994,271.397,149.876,274.58z"/>
							<path style="fill:#DD5273;" d="M149.876,274.58l-17.332,17.332c-1.466,1.466-1.833,3.618-1.106,5.426
								c1.808,0.727,3.96,0.36,5.426-1.106l17.332-17.332c1.452-1.456,1.832-3.577,1.102-5.422
								C153.49,272.751,151.341,273.115,149.876,274.58z"/>
							<path style="fill:#EE6781;" d="M136.821,293.462c0.777,0.777,2.037,0.777,2.814,0l12.024-12.023
								c0.777-0.777,0.777-2.037,0-2.814c-0.777-0.777-2.037-0.777-2.814,0l-12.024,12.024
								C136.044,291.425,136.044,292.684,136.821,293.462z"/>
						</g>
					</g>
				</g>
			</g>
			<g>
				<g>
					<g>
						<g>
							<path style="fill:#C0405C;" d="M335.964,243.82c-0.003,4.144-3.357,7.504-7.502,7.502l-33.785,0v-15.004h33.785
								C332.647,236.306,335.981,239.77,335.964,243.82z"/>
							<path style="fill:#DD5273;" d="M335.325,240.797c-1.189,2.685-3.818,4.471-6.863,4.478c0,0-33.785,0-33.785,0v-8.957h33.785
								C331.532,236.318,334.166,238.163,335.325,240.797z"/>
							<path style="fill:#EE6781;" d="M322.776,245.275h-18.649c-4.18-0.127-4.189-6.202,0-6.332c0,0,18.649,0,18.649,0
								c1.749,0,3.166,1.418,3.166,3.166S324.525,245.275,322.776,245.275z"/>
						</g>
						<g>
							<path style="fill:#C0405C;" d="M336.096,234.06l17.332-17.332c4.894-4.528,11.601,2.235,7.086,7.087
								c0,0-17.332,17.332-17.332,17.332c-0.977,0.977-2.259,1.466-3.541,1.462C335.309,242.689,332.913,237.179,336.096,234.06z"/>
							<path style="fill:#DD5273;" d="M336.096,234.06l17.332-17.332c1.466-1.466,3.618-1.833,5.426-1.106
								c0.727,1.808,0.36,3.96-1.106,5.426l-17.332,17.332c-1.456,1.452-3.577,1.832-5.422,1.102
								C334.267,237.675,334.63,235.526,336.096,234.06z"/>
							<path style="fill:#EE6781;" d="M354.977,221.005c0.777,0.777,0.777,2.037,0,2.814l-12.024,12.024
								c-0.777,0.777-2.037,0.777-2.814,0c-0.777-0.777-0.777-2.037,0-2.814l12.024-12.024
								C352.94,220.228,354.2,220.228,354.977,221.005z"/>
						</g>
						<g>
							<path style="fill:#C0405C;" d="M364.758,208.626h24.512c6.662,0.259,6.623,9.784,0,10.022c0,0-24.511,0-24.511,0
								c-1.382,0-2.634-0.561-3.538-1.47C358.1,214.171,360.302,208.58,364.758,208.626z"/>
							<path style="fill:#DD5273;" d="M364.758,208.626h24.512c2.073,0,3.855,1.262,4.619,3.055
								c-0.764,1.792-2.546,3.055-4.619,3.055h-24.512c-2.057-0.003-3.825-1.234-4.613-3.055
								C360.909,209.888,362.685,208.626,364.758,208.626z"/>
							<path style="fill:#EE6781;" d="M387.34,212.746c0,1.099-0.891,1.99-1.99,1.99h-17.004c-1.099,0-1.99-0.891-1.99-1.99
								c0-1.099,0.891-1.99,1.99-1.99h17.004C386.45,210.756,387.34,211.647,387.34,212.746z"/>
						</g>
					</g>
				</g>
				<g>
					<g>
						<g>
							<path style="fill:#C0405C;" d="M176.036,243.82c0.003,4.144,3.357,7.504,7.502,7.502l33.785,0v-15.004h-33.785
								C179.353,236.306,176.019,239.77,176.036,243.82z"/>
							<path style="fill:#DD5273;" d="M176.675,240.797c1.189,2.685,3.818,4.471,6.863,4.478c0,0,33.785,0,33.785,0v-8.957h-33.785
								C180.468,236.318,177.834,238.163,176.675,240.797z"/>
							<path style="fill:#EE6781;" d="M189.224,245.275h18.649c4.18-0.127,4.189-6.202,0-6.332c0,0-18.649,0-18.649,0
								c-1.749,0-3.166,1.418-3.166,3.166S187.475,245.275,189.224,245.275z"/>
						</g>
						<g>
							<path style="fill:#C0405C;" d="M175.904,234.06l-17.332-17.332c-4.894-4.528-11.601,2.235-7.086,7.087
								c0,0,17.332,17.332,17.332,17.332c0.977,0.977,2.259,1.466,3.541,1.462C176.691,242.689,179.087,237.179,175.904,234.06z"/>
							<path style="fill:#DD5273;" d="M175.904,234.06l-17.332-17.332c-1.466-1.466-3.618-1.833-5.426-1.106
								c-0.727,1.808-0.36,3.96,1.106,5.426l17.332,17.332c1.456,1.452,3.577,1.832,5.422,1.102
								C177.733,237.675,177.37,235.526,175.904,234.06z"/>
							<path style="fill:#EE6781;" d="M157.023,221.005c-0.777,0.777-0.777,2.037,0,2.814l12.024,12.024
								c0.777,0.777,2.037,0.777,2.814,0c0.777-0.777,0.777-2.037,0-2.814l-12.024-12.024
								C159.06,220.228,157.8,220.228,157.023,221.005z"/>
						</g>
						<g>
							<path style="fill:#C0405C;" d="M147.242,208.626H122.73c-6.662,0.259-6.623,9.784,0,10.022c0,0,24.511,0,24.511,0
								c1.382,0,2.634-0.561,3.538-1.47C153.9,214.171,151.698,208.58,147.242,208.626z"/>
							<path style="fill:#DD5273;" d="M147.242,208.626H122.73c-2.073,0-3.855,1.262-4.619,3.055
								c0.764,1.792,2.546,3.055,4.619,3.055h24.512c2.057-0.003,3.825-1.234,4.613-3.055
								C151.091,209.888,149.315,208.626,147.242,208.626z"/>
							<path style="fill:#EE6781;" d="M124.66,212.746c0,1.099,0.891,1.99,1.99,1.99h17.004c1.099,0,1.99-0.891,1.99-1.99
								c0-1.099-0.891-1.99-1.99-1.99h-17.004C125.55,210.756,124.66,211.647,124.66,212.746z"/>
						</g>
					</g>
				</g>
			</g>
			<g>
				<g>
					<g>
						<path style="fill:#C0405C;" d="M335.964,219.936c-0.003,4.144-3.357,7.504-7.502,7.502h-33.785v-15.004h33.785
							C332.647,212.421,335.981,215.886,335.964,219.936z"/>
						<path style="fill:#DD5273;" d="M335.325,216.912c-1.189,2.685-3.818,4.471-6.863,4.478c0,0-33.785,0-33.785,0v-8.957h33.785
							C331.532,212.434,334.166,214.278,335.325,216.912z"/>
						<path style="fill:#EE6781;" d="M322.776,221.391h-18.649c-4.18-0.127-4.189-6.202,0-6.332c0,0,18.649,0,18.649,0
							c1.749,0,3.166,1.418,3.166,3.166S324.525,221.391,322.776,221.391z"/>
					</g>
					<g>
						<path style="fill:#C0405C;" d="M327.338,203.806l17.332-17.332c4.894-4.528,11.601,2.235,7.086,7.086
							c0,0-17.332,17.332-17.332,17.332c-0.977,0.977-2.259,1.466-3.541,1.462C326.551,212.435,324.155,206.925,327.338,203.806z"/>
						<path style="fill:#DD5273;" d="M327.338,203.806l17.332-17.332c1.466-1.466,3.618-1.833,5.426-1.106
							c0.727,1.808,0.36,3.96-1.106,5.426l-17.332,17.332c-1.456,1.452-3.577,1.832-5.422,1.102
							C325.509,207.421,325.873,205.272,327.338,203.806z"/>
						<path style="fill:#EE6781;" d="M346.22,190.751c0.777,0.777,0.777,2.037,0,2.814l-12.024,12.024
							c-0.777,0.777-2.037,0.777-2.814,0c-0.777-0.777-0.777-2.037,0-2.814l12.024-12.024
							C344.183,189.974,345.442,189.974,346.22,190.751z"/>
					</g>
					<g>
						<path style="fill:#C0405C;" d="M356.001,178.372h24.512c6.662,0.258,6.623,9.784,0,10.022c0,0-24.511,0-24.511,0
							c-1.382,0-2.634-0.561-3.538-1.47C349.343,183.917,351.544,178.327,356.001,178.372z"/>
						<path style="fill:#DD5273;" d="M356.001,178.372h24.512c2.073,0,3.855,1.262,4.619,3.055
							c-0.764,1.792-2.546,3.055-4.619,3.055h-24.512c-2.057-0.003-3.825-1.234-4.613-3.055
							C352.151,179.635,353.928,178.372,356.001,178.372z"/>
						<path style="fill:#EE6781;" d="M378.583,182.492c0,1.099-0.891,1.99-1.99,1.99h-17.004c-1.099,0-1.99-0.891-1.99-1.99
							c0-1.099,0.891-1.99,1.99-1.99h17.004C377.692,180.502,378.583,181.393,378.583,182.492z"/>
					</g>
				</g>
				<g>
					<g>
						<path style="fill:#C0405C;" d="M176.036,219.936c0.003,4.144,3.357,7.504,7.502,7.502h33.785v-15.004h-33.785
							C179.353,212.421,176.019,215.886,176.036,219.936z"/>
						<path style="fill:#DD5273;" d="M176.675,216.912c1.189,2.685,3.818,4.471,6.863,4.478c0,0,33.785,0,33.785,0v-8.957h-33.785
							C180.468,212.434,177.834,214.278,176.675,216.912z"/>
						<path style="fill:#EE6781;" d="M189.224,221.391h18.649c4.18-0.127,4.189-6.202,0-6.332c0,0-18.649,0-18.649,0
							c-1.749,0-3.166,1.418-3.166,3.166S187.475,221.391,189.224,221.391z"/>
					</g>
					<g>
						<path style="fill:#C0405C;" d="M184.662,203.806l-17.332-17.332c-4.894-4.528-11.601,2.235-7.086,7.086
							c0,0,17.332,17.332,17.332,17.332c0.977,0.977,2.259,1.466,3.541,1.462C185.449,212.435,187.845,206.925,184.662,203.806z"/>
						<path style="fill:#DD5273;" d="M184.662,203.806l-17.332-17.332c-1.466-1.466-3.618-1.833-5.426-1.106
							c-0.727,1.808-0.36,3.96,1.106,5.426l17.332,17.332c1.456,1.452,3.577,1.832,5.422,1.102
							C186.491,207.421,186.127,205.272,184.662,203.806z"/>
						<path style="fill:#EE6781;" d="M165.78,190.751c-0.777,0.777-0.777,2.037,0,2.814l12.024,12.024
							c0.777,0.777,2.037,0.777,2.814,0c0.777-0.777,0.777-2.037,0-2.814l-12.024-12.024
							C167.817,189.974,166.558,189.974,165.78,190.751z"/>
					</g>
					<g>
						<path style="fill:#C0405C;" d="M155.999,178.372h-24.512c-6.662,0.258-6.623,9.784,0,10.022c0,0,24.511,0,24.511,0
							c1.382,0,2.634-0.561,3.538-1.47C162.657,183.917,160.456,178.327,155.999,178.372z"/>
						<path style="fill:#DD5273;" d="M155.999,178.372h-24.512c-2.073,0-3.855,1.262-4.619,3.055
							c0.764,1.792,2.546,3.055,4.619,3.055h24.512c2.057-0.003,3.825-1.234,4.613-3.055
							C159.849,179.635,158.072,178.372,155.999,178.372z"/>
						<path style="fill:#EE6781;" d="M133.417,182.492c0,1.099,0.891,1.99,1.99,1.99h17.004c1.099,0,1.99-0.891,1.99-1.99
							c0-1.099-0.891-1.99-1.99-1.99h-17.004C134.308,180.502,133.417,181.393,133.417,182.492z"/>
					</g>
				</g>
			</g>
		</g>
		<g>
			<g>
				<g>
					<path style="fill:#C0405C;" d="M331.996,176.696l-25.488,25.489c-5.628,5.636-14.757,5.636-20.385,0
						c-1.366-1.366-2.407-2.941-3.104-4.624c-2.19-5.23-1.158-11.491,3.104-15.753l19.897-19.906
						c1.981-1.972,4.832-2.796,7.546-2.171l13.065,2.995l1.439,0.326C334.294,164.473,336.511,172.182,331.996,176.696z"/>
					<path style="fill:#DD5273;" d="M324.269,168.96l-25.497,25.497c-4.262,4.262-10.523,5.293-15.753,3.103
						c-2.19-5.23-1.158-11.491,3.104-15.753l19.897-19.906c1.981-1.972,4.832-2.796,7.546-2.171l13.065,2.995
						C326.775,164.916,326.042,167.187,324.269,168.96z"/>
					<path style="fill:#EE6781;" d="M295.01,190.696L295.01,190.696c-2.077-2.077-2.077-5.445-0.001-7.522l12.707-12.712
						c1.943-1.944,5.048-2.088,7.162-0.331l0.003,0.003c2.408,2.001,2.576,5.639,0.362,7.853l-12.71,12.71
						C300.456,192.774,297.088,192.774,295.01,190.696z"/>
				</g>
				<g>
					<path style="fill:#C0405C;" d="M334.267,131.257v26.121c0,5.764-4.678,10.441-10.441,10.441
						c-5.764,0-10.441-4.678-10.441-10.441v-20.394c0-2.018,1.04-3.9,2.751-4.976l9.13-5.727c1.203-0.76,2.524-1.013,3.764-0.878
						C331.833,125.72,334.267,128.054,334.267,131.257z"/>
					<path style="fill:#DD5273;" d="M329.028,125.403v21.788c0,5.764-4.678,10.441-10.441,10.441c-1.9,0-3.674-0.507-5.203-1.393
						v-19.254c0-2.018,1.04-3.9,2.751-4.976l9.13-5.727C326.468,125.521,327.789,125.268,329.028,125.403z"/>
					<path style="fill:#EE6781;" d="M321.524,152.128L321.524,152.128c-1.896,0-3.433-1.537-3.433-3.433v-10.858
						c0-1.896,1.537-3.433,3.433-3.433l0,0c1.896,0,3.433,1.537,3.433,3.433v10.858C324.957,150.591,323.42,152.128,321.524,152.128
						z"/>
				</g>
				<g>
					<g>
						<path style="fill:#DD5273;" d="M307.535,124.437l-13.391-13.391c-11.404-11.404-17.81-26.87-17.81-42.997V42.394
							l56.622,56.622L307.535,124.437z"/>
						<path style="fill:#C0405C;" d="M307.765,79.326L307.765,79.326c-11.758,11.758-12.906,30.808-1.938,43.305
							c12.183,13.882,33.418,14.277,46.117,1.187c11.829-12.193,11.17-32.48-0.842-44.492l-35.179-35.179
							c-12.172-12.172-28.681-19.011-45.896-19.01h0c-4.046,0-6.072,4.891-3.211,7.752l40.948,40.948
							C309.28,75.353,309.28,77.811,307.765,79.326z"/>
						<path style="fill:#DD5273;" d="M303.263,40.879l36.269,36.269c2.327,2.327,2.327,6.099,0,8.425v0
							c-2.327,2.327-6.099,2.327-8.425,0l-36.269-36.269c-2.327-2.327-2.327-6.099,0-8.425v0
							C297.164,38.553,300.936,38.553,303.263,40.879z"/>
						<path style="fill:#EE6781;" d="M309.788,47.405l15.725,15.725c2.327,2.327,2.327,6.099,0,8.425v0
							c-2.327,2.327-6.099,2.327-8.425,0L301.363,55.83c-2.327-2.327-2.327-6.099,0-8.425v0
							C303.689,45.078,307.462,45.078,309.788,47.405z"/>
						<path style="fill:#EE6781;" d="M295.06,70.446l1.354,13.489c0.329,3.274-2.059,6.194-5.333,6.523l0,0
							c-3.274,0.329-6.194-2.059-6.523-5.333l-1.354-13.489c-0.329-3.274,2.059-6.194,5.333-6.523l0,0
							C291.811,64.784,294.732,67.172,295.06,70.446z"/>
					</g>
					<g>
						<path style="fill:#DD5273;" d="M344.808,119.053c-8.862,8.862-23.281,8.862-32.143,0c-1.837-1.837-1.837-4.817,0-6.654
							c1.837-1.837,4.817-1.837,6.654,0c5.194,5.193,13.642,5.193,18.836,0c1.837-1.837,4.817-1.837,6.654,0
							C346.645,114.237,346.645,117.216,344.808,119.053z"/>
					</g>
				</g>
			</g>
			<g>
				<g>
					<path style="fill:#C0405C;" d="M180.004,176.696l25.488,25.489c5.628,5.636,14.757,5.636,20.385,0
						c1.366-1.366,2.407-2.941,3.104-4.624c2.19-5.23,1.158-11.491-3.104-15.753l-19.897-19.906
						c-1.981-1.972-4.831-2.796-7.546-2.171l-13.065,2.995l-1.439,0.326C177.706,164.473,175.489,172.182,180.004,176.696z"/>
					<path style="fill:#DD5273;" d="M187.731,168.96l25.497,25.497c4.262,4.262,10.523,5.293,15.753,3.103
						c2.19-5.23,1.158-11.491-3.104-15.753l-19.897-19.906c-1.981-1.972-4.831-2.796-7.546-2.171l-13.065,2.995
						C185.225,164.916,185.958,167.187,187.731,168.96z"/>
					<path style="fill:#EE6781;" d="M216.99,190.696L216.99,190.696c2.077-2.077,2.077-5.445,0.001-7.522l-12.707-12.712
						c-1.943-1.944-5.048-2.088-7.162-0.331l-0.003,0.003c-2.408,2.001-2.576,5.639-0.362,7.853l12.71,12.71
						C211.544,192.774,214.912,192.774,216.99,190.696z"/>
				</g>
				<g>
					<path style="fill:#C0405C;" d="M177.733,131.257v26.121c0,5.764,4.678,10.441,10.441,10.441
						c5.764,0,10.441-4.678,10.441-10.441v-20.394c0-2.018-1.04-3.9-2.751-4.976l-9.13-5.727c-1.203-0.76-2.524-1.013-3.764-0.878
						C180.167,125.72,177.733,128.054,177.733,131.257z"/>
					<path style="fill:#DD5273;" d="M182.972,125.403v21.788c0,5.764,4.678,10.441,10.441,10.441c1.9,0,3.674-0.507,5.203-1.393
						v-19.254c0-2.018-1.04-3.9-2.751-4.976l-9.13-5.727C185.532,125.521,184.211,125.268,182.972,125.403z"/>
					<path style="fill:#EE6781;" d="M190.476,152.128L190.476,152.128c1.896,0,3.433-1.537,3.433-3.433v-10.858
						c0-1.896-1.537-3.433-3.433-3.433h0c-1.896,0-3.433,1.537-3.433,3.433v10.858C187.043,150.591,188.58,152.128,190.476,152.128z
						"/>
				</g>
				<g>
					<g>
						<path style="fill:#DD5273;" d="M204.465,124.437l13.391-13.391c11.404-11.404,17.81-26.87,17.81-42.997V42.394l-56.622,56.622
							L204.465,124.437z"/>
						<path style="fill:#C0405C;" d="M204.235,79.326L204.235,79.326c11.758,11.758,12.906,30.808,1.938,43.305
							c-12.183,13.882-33.418,14.277-46.117,1.187c-11.829-12.193-11.17-32.48,0.842-44.492l35.179-35.179
							c12.172-12.172,28.681-19.011,45.896-19.01h0c4.046,0,6.072,4.891,3.211,7.752l-40.948,40.948
							C202.72,75.353,202.72,77.811,204.235,79.326z"/>
						<path style="fill:#DD5273;" d="M208.737,40.879l-36.269,36.269c-2.327,2.327-2.327,6.099,0,8.425v0
							c2.327,2.327,6.099,2.327,8.425,0l36.269-36.269c2.327-2.327,2.327-6.099,0-8.425l0,0
							C214.836,38.553,211.064,38.553,208.737,40.879z"/>
						<path style="fill:#EE6781;" d="M202.212,47.405l-15.725,15.725c-2.327,2.327-2.327,6.099,0,8.425l0,0
							c2.327,2.327,6.099,2.327,8.425,0l15.725-15.725c2.327-2.327,2.327-6.099,0-8.425l0,0
							C208.311,45.078,204.538,45.078,202.212,47.405z"/>
						<path style="fill:#EE6781;" d="M216.94,70.446l-1.354,13.489c-0.329,3.274,2.059,6.194,5.333,6.523h0
							c3.274,0.329,6.194-2.059,6.523-5.333l1.354-13.489c0.329-3.274-2.059-6.194-5.333-6.523l0,0
							C220.189,64.784,217.268,67.172,216.94,70.446z"/>
					</g>
					<g>
						<path style="fill:#DD5273;" d="M167.192,119.053c8.862,8.862,23.281,8.862,32.143,0c1.837-1.837,1.837-4.817,0-6.654
							c-1.837-1.837-4.817-1.837-6.654,0c-5.193,5.193-13.642,5.193-18.836,0c-1.837-1.837-4.817-1.837-6.654,0
							C165.355,114.237,165.355,117.216,167.192,119.053z"/>
					</g>
				</g>
			</g>
		</g>
		<g>
			<g>
				<path style="fill:#C0405C;" d="M294.677,209.2v79.026c0,11.249-9.116,20.365-20.365,20.365h-36.623
					c-11.25,0-20.365-9.116-20.365-20.365V209.2c0-21.361,17.316-62.784,38.677-62.784S294.677,187.84,294.677,209.2z"/>
				<path style="fill:#DD5273;" d="M294.677,209.2v79.026c0,11.249-9.116,20.365-20.365,20.365H256V146.417
					C277.361,146.417,294.677,187.84,294.677,209.2z"/>
				<path style="fill:#EE6781;" d="M256,291.514L256,291.514l0-103.924h0c8.448,0,15.296,13.405,15.296,21.853v66.775
					C271.296,284.665,264.448,291.514,256,291.514z"/>
				<path style="fill:#DD5273;" d="M256,291.514L256,291.514l0-103.924h0c-8.448,0-15.296,13.405-15.296,21.853v66.775
					C240.704,284.665,247.552,291.514,256,291.514z"/>
				<path style="fill:#F4829B;" d="M263.648,275.429L263.648,275.429c-4.224,0-7.648-3.424-7.648-7.648v-42.783
					c0-4.224,3.424-7.648,7.648-7.648l0,0c4.224,0,7.648,3.424,7.648,7.648v42.783C271.296,272.005,267.872,275.429,263.648,275.429
					z"/>
			</g>
			<g>
				<g>
					<path style="fill:#334353;" d="M273.433,188.714v3.197c0.019,3.053-2.526,5.553-5.53,5.534c-3.056,0-5.53-2.478-5.53-5.534
						v-3.197C262.629,181.411,273.148,181.363,273.433,188.714z"/>
					<path style="fill:#3E4E60;" d="M273.436,188.716v3.192c-0.008,2.221-1.29,4.148-3.24,5.04c-1.903-0.875-3.232-2.802-3.232-5.04
						v-3.192c0-0.358,0.032-0.709,0.104-1.043c0.334-1.783,1.529-3.256,3.129-3.989c1.608,0.732,2.802,2.205,3.137,3.989
						C273.404,188.007,273.436,188.357,273.436,188.716z"/>
				</g>
				<path style="fill:#3F5D77;" d="M273.332,187.673c-0.003,0.018-0.007,0.037-0.011,0.055c-0.661,3.309-5.59,3.308-6.245-0.002
					l-0.01-0.053c0.334-1.783,1.529-3.256,3.129-3.989C271.803,184.417,272.998,185.889,273.332,187.673z"/>
				<g>
					<path style="fill:#2E3140;" d="M238.567,191.914v-3.197c-0.019-3.053,2.526-5.553,5.53-5.534c3.056,0,5.53,2.478,5.53,5.534
						v3.197C249.371,199.217,238.852,199.265,238.567,191.914z"/>
					<path style="fill:#334353;" d="M245.037,188.716v3.201c0,2.237-1.329,4.156-3.232,5.031c-1.911-0.875-3.24-2.794-3.24-5.031
						v-3.201c0-0.366,0.04-0.725,0.111-1.075c0.342-1.751,1.505-3.216,3.129-3.957c1.592,0.724,2.787,2.197,3.129,3.973
						C245.005,187.999,245.037,188.349,245.037,188.716z"/>
					<path style="fill:#3E4E60;" d="M244.934,187.657c-0.748,3.089-5.525,3.081-6.258-0.016c0.342-1.751,1.505-3.216,3.129-3.957
						C243.397,184.408,244.591,185.881,244.934,187.657z"/>
				</g>
			</g>
		</g>
		<g>
			<g>
				<path style="fill:#EE6781;" d="M261,159.357V91.586c0-2.09,3.077-2.248,3.291-0.169l6.926,67.207
					c0.446,3.096-1.955,5.868-5.082,5.868l0,0C263.299,164.492,261,162.193,261,159.357z"/>
				<path style="fill:#DD5273;" d="M251,159.357V91.586c0-2.09-3.077-2.248-3.291-0.169l-6.926,67.207
					c-0.446,3.096,1.955,5.868,5.082,5.868h0C248.701,164.492,251,162.193,251,159.357z"/>
			</g>
			<g>
				<g>
					<path style="fill:#C0405C;" d="M482.43,223.31c-1.15,1.14-3.03,1.15-4.24,0l-68.39-65.37c-3.7-3.53-8.62-5.5-13.73-5.5h-86.29
						c-5.27,0-10.32,2.09-14.05,5.82l-19.14,19.14c-2.03,2.03-5.31,2.35-7.52,0.53c-2.53-2.09-2.66-5.85-0.4-8.11l25.41-25.41
						l1.33-1.33c1.22-1.22,2.88-1.72,4.48-1.54c0.25-0.04,0.5-0.06,0.76-0.06h103.39c0.04,0,0.07,0,0.11,0.01
						c1.98-0.03,4.47,1.02,6.73,2.92c0.47,0.39,0.93,0.82,1.37,1.28l70.18,73.38C483.58,220.28,483.57,222.17,482.43,223.31z"/>
					<path style="fill:#DD5273;" d="M242.93,177.93c-2.21,1.82-5.49,1.5-7.52-0.53l-19.14-19.14c-3.73-3.73-8.78-5.82-14.05-5.82
						h-86.29c-5.11,0-10.03,1.97-13.73,5.5l-68.39,65.37c-1.21,1.15-3.09,1.14-4.24,0c-1.14-1.14-1.15-3.03,0-4.24l70.18-73.38
						c0.44-0.46,0.9-0.89,1.37-1.28c2.26-1.9,4.75-2.95,6.73-2.92c0.04-0.01,0.07-0.01,0.11-0.01h103.39c0.26,0,0.51,0.02,0.76,0.06
						c1.6-0.18,3.26,0.32,4.48,1.54l1.33,1.33l25.41,25.41C245.59,172.08,245.46,175.84,242.93,177.93z"/>
				</g>
				<g>
					<path style="fill:#EE6781;" d="M217.92,144.41l-1.33,1.32c-1.22,1.23-2.88,1.73-4.48,1.55c-0.25,0.04-0.5,0.06-0.76,0.06
						H107.96c-0.04,0-0.07-0.01-0.11-0.01c-1.98,0.03-4.47-1.02-6.73-2.92c2.26-1.9,4.75-2.95,6.73-2.92
						c0.04-0.01,0.07-0.01,0.11-0.01h103.39c0.26,0,0.51,0.02,0.76,0.06c1.6-0.18,3.26,0.32,4.48,1.54L217.92,144.41z"/>
					<path style="fill:#EE6781;" d="M410.88,144.41c-2.26,1.9-4.75,2.95-6.73,2.92c-0.04,0-0.07,0.01-0.11,0.01H300.65
						c-0.26,0-0.51-0.02-0.76-0.06c-1.6,0.18-3.26-0.32-4.48-1.55l-1.33-1.32l1.33-1.33c1.22-1.22,2.88-1.72,4.48-1.54
						c0.25-0.04,0.5-0.06,0.76-0.06h103.39c0.04,0,0.07,0,0.11,0.01C406.13,141.46,408.62,142.51,410.88,144.41z"/>
				</g>
			</g>
		</g>
		<g>
			<g>
				<g>
					<path style="fill:#DD5273;" d="M294.677,325.167v1.839c0,6.226-5.048,11.273-11.274,11.273h-54.807
						c-6.226,0-11.274-5.047-11.274-11.273v-1.839c0-14.163,11.481-25.644,25.644-25.644h26.066
						C283.196,299.523,294.677,311.004,294.677,325.167z"/>
					<path style="fill:#EE6781;" d="M294.677,325.167v1.839c0,6.226-5.048,11.273-11.274,11.273H256v-25.724
						c0-3.232,1.178-6.186,3.129-8.463c2.388-2.802,5.939-4.57,9.904-4.57c7.078,0,13.495,2.866,18.136,7.507
						C291.811,311.672,294.677,318.089,294.677,325.167z"/>
				</g>
				<g>
					<path style="fill:#F4829B;" d="M277.626,323.54h-5.229c-2.746,0-4.972-2.226-4.972-4.972v-3.484c0-0.001,0-0.002,0-0.004
						c0-5.222-3.503-9.625-8.296-10.987c-1.951,2.277-3.129,5.231-3.129,8.463v22.539h21.626c3.191,0,5.777-2.587,5.777-5.777
						C283.404,326.126,280.817,323.54,277.626,323.54z"/>
					<path style="fill:#C0405C;" d="M256,303.659c-6.112,0-11.089,4.804-11.395,10.84c-0.019,0.192-0.029,0.387-0.029,0.584v3.484
						c0,2.746-2.226,4.972-4.972,4.972h-5.229c-3.191,0-5.777,2.587-5.777,5.777c0,3.191,2.587,5.777,5.777,5.777H256v-22.539
						c0-3.228,1.176-6.178,3.122-8.454C258.128,303.82,257.084,303.659,256,303.659z"/>
				</g>
			</g>
			<g>
				<g>
					<path style="fill:#DD5273;" d="M294.677,353.573v1.839c0,6.226-5.048,11.273-11.274,11.273h-54.807
						c-6.226,0-11.274-5.047-11.274-11.273v-1.839c0-14.163,11.481-25.644,25.644-25.644h26.066
						C283.196,327.929,294.677,339.41,294.677,353.573z"/>
					<path style="fill:#EE6781;" d="M294.677,353.573v1.839c0,6.226-5.048,11.273-11.274,11.273H256v-25.723
						c0-3.232,1.178-6.186,3.129-8.463c2.388-2.802,5.939-4.57,9.904-4.57c7.078,0,13.495,2.866,18.136,7.507
						C291.811,340.078,294.677,346.495,294.677,353.573z"/>
				</g>
				<g>
					<path style="fill:#F4829B;" d="M277.626,351.946h-5.229c-2.746,0-4.972-2.226-4.972-4.972v-3.484c0-0.001,0-0.002,0-0.004
						c0-5.222-3.503-9.625-8.296-10.987c-1.951,2.277-3.129,5.231-3.129,8.463v22.539h21.626c3.191,0,5.777-2.587,5.777-5.777
						S280.817,351.946,277.626,351.946z"/>
					<path style="fill:#C0405C;" d="M256,332.065c-6.112,0-11.089,4.804-11.395,10.84c-0.019,0.192-0.029,0.387-0.029,0.584v3.484
						c0,2.746-2.226,4.972-4.972,4.972h-5.229c-3.191,0-5.777,2.587-5.777,5.777s2.587,5.777,5.777,5.777H256v-22.539
						c0-3.228,1.176-6.178,3.122-8.454C258.128,332.226,257.084,332.065,256,332.065z"/>
				</g>
			</g>
			<g>
				<g>
					<path style="fill:#DD5273;" d="M291.499,379.872v1.688c0,5.714-4.633,10.347-10.347,10.347h-50.303
						c-5.714,0-10.347-4.633-10.347-10.347v-1.688c0-13,10.537-23.537,23.537-23.537h23.924
						C280.962,356.336,291.499,366.873,291.499,379.872z"/>
					<path style="fill:#EE6781;" d="M291.499,379.872v1.688c0,5.714-4.633,10.347-10.347,10.347H256v-23.61
						c0-2.966,1.081-5.678,2.872-7.768c2.192-2.572,5.451-4.194,9.09-4.194c6.496,0,12.386,2.63,16.646,6.891
						S291.499,373.376,291.499,379.872z"/>
				</g>
				<g>
					<path style="fill:#F4829B;" d="M275.849,378.379h-4.8c-2.52,0-4.564-2.043-4.564-4.564v-3.198c0-0.001,0-0.002,0-0.004
						c0-4.793-3.215-8.834-7.614-10.084c-1.79,2.09-2.872,4.801-2.872,7.768v20.687h19.849c2.929,0,5.303-2.374,5.303-5.303
						S278.778,378.379,275.849,378.379z"/>
					<path style="fill:#C0405C;" d="M256,360.132c-5.61,0-10.178,4.409-10.459,9.95c-0.018,0.176-0.027,0.355-0.027,0.536v3.197
						c0,2.52-2.043,4.564-4.564,4.564h-4.8c-2.929,0-5.303,2.374-5.303,5.303s2.374,5.303,5.303,5.303H256v-20.687
						c0-2.963,1.079-5.671,2.865-7.759C257.953,360.279,256.995,360.132,256,360.132z"/>
				</g>
			</g>
			<g>
				<g>
					<path style="fill:#DD5273;" d="M291.499,406.686v1.688c0,5.714-4.633,10.347-10.347,10.347h-50.303
						c-5.714,0-10.347-4.633-10.347-10.347v-1.688c0-13,10.537-23.537,23.537-23.537h23.924
						C280.962,383.15,291.499,393.687,291.499,406.686z"/>
					<path style="fill:#EE6781;" d="M291.499,406.686v1.688c0,5.714-4.633,10.347-10.347,10.347H256v-23.61
						c0-2.966,1.081-5.678,2.872-7.768c2.192-2.572,5.451-4.194,9.09-4.194c6.496,0,12.386,2.63,16.646,6.891
						S291.499,400.19,291.499,406.686z"/>
				</g>
				<g>
					<path style="fill:#F4829B;" d="M275.849,405.193h-4.8c-2.52,0-4.564-2.043-4.564-4.564v-3.198c0-0.001,0-0.002,0-0.004
						c0-4.793-3.215-8.834-7.614-10.084c-1.79,2.09-2.872,4.801-2.872,7.768v20.687h19.849c2.929,0,5.303-2.374,5.303-5.303
						C281.152,407.567,278.778,405.193,275.849,405.193z"/>
					<path style="fill:#C0405C;" d="M256,386.946c-5.61,0-10.178,4.409-10.459,9.95c-0.018,0.176-0.027,0.355-0.027,0.536v3.197
						c0,2.52-2.043,4.564-4.564,4.564h-4.8c-2.929,0-5.303,2.374-5.303,5.303c0,2.929,2.374,5.303,5.303,5.303H256v-20.687
						c0-2.962,1.079-5.671,2.865-7.759C257.953,387.093,256.995,386.946,256,386.946z"/>
				</g>
			</g>
			<g>
				<g>
					<path style="fill:#DD5273;" d="M286.592,429.451v1.455c0,4.924-3.993,8.917-8.917,8.917h-43.35
						c-4.924,0-8.917-3.992-8.917-8.917v-1.455c0-11.203,9.081-20.283,20.284-20.283h20.617
						C277.511,409.167,286.592,418.248,286.592,429.451z"/>
					<path style="fill:#EE6781;" d="M286.592,429.451v1.455c0,4.924-3.993,8.917-8.917,8.917H256v-20.346
						c0-2.556,0.932-4.893,2.475-6.694c1.889-2.217,4.698-3.614,7.834-3.614c5.598,0,10.674,2.267,14.345,5.938
						S286.592,423.852,286.592,429.451z"/>
				</g>
				<g>
					<path style="fill:#F4829B;" d="M273.106,428.164h-4.136c-2.172,0-3.933-1.761-3.933-3.933v-2.756c0-0.001,0-0.002,0-0.003
						c0-4.131-2.771-7.613-6.562-8.69c-1.543,1.801-2.475,4.138-2.475,6.694v17.828h17.106c2.524,0,4.57-2.046,4.57-4.57
						S275.629,428.164,273.106,428.164z"/>
					<path style="fill:#C0405C;" d="M256,412.439c-4.835,0-8.771,3.8-9.013,8.574c-0.015,0.152-0.023,0.306-0.023,0.462v2.755
						c0,2.172-1.761,3.933-3.933,3.933h-4.136c-2.524,0-4.57,2.046-4.57,4.57s2.046,4.57,4.57,4.57H256v-17.828
						c0-2.553,0.93-4.887,2.469-6.687C257.683,412.566,256.857,412.439,256,412.439z"/>
				</g>
			</g>
			<g>
				<g>
					<path style="fill:#DD5273;" d="M282.723,450.375v1.271c0,4.302-3.488,7.789-7.789,7.789h-37.868
						c-4.302,0-7.789-3.487-7.789-7.789v-1.271c0-9.786,7.932-17.718,17.718-17.718h18.01
						C274.791,432.657,282.723,440.589,282.723,450.375z"/>
					<path style="fill:#EE6781;" d="M282.723,450.375v1.271c0,4.302-3.488,7.789-7.789,7.789H256v-17.773
						c0-2.233,0.814-4.274,2.162-5.847c1.65-1.936,4.104-3.157,6.843-3.157c4.89,0,9.324,1.98,12.531,5.187
						C280.743,441.051,282.723,445.485,282.723,450.375z"/>
				</g>
				<g>
					<path style="fill:#F4829B;" d="M270.942,449.251h-3.613c-1.897,0-3.436-1.538-3.436-3.436v-2.407c0-0.001,0-0.002,0-0.003
						c0-3.608-2.42-6.65-5.732-7.591c-1.348,1.573-2.162,3.614-2.162,5.847v15.573h14.942c2.205,0,3.992-1.787,3.992-3.992
						C274.934,451.038,273.147,449.251,270.942,449.251z"/>
					<path style="fill:#C0405C;" d="M256,435.515c-4.223,0-7.662,3.319-7.873,7.49c-0.013,0.133-0.02,0.268-0.02,0.404v2.407
						c0,1.897-1.538,3.436-3.436,3.436h-3.613c-2.205,0-3.992,1.787-3.992,3.992c0,2.205,1.787,3.992,3.992,3.992H256v-15.573
						c0-2.23,0.812-4.269,2.157-5.841C257.47,435.626,256.749,435.515,256,435.515z"/>
				</g>
			</g>
			<g>
				<path style="fill:#DD5273;" d="M311.507,481.164c0,3.057-1.242,5.82-3.24,7.826c-1.998,2.006-4.769,3.24-7.826,3.24h-23.805
					c-7.531,0-14.124-4.036-17.722-10.063c-1.855-3.089-2.914-6.703-2.914-10.573v-12.157h18.932l28.876,11.17l0.621,0.239
					C308.697,472.493,311.507,476.594,311.507,481.164z"/>
				<path style="fill:#3F5D77;" d="M311.507,481.164c0,3.057-1.242,5.82-3.24,7.826c-1.998,2.006-4.769,3.24-7.826,3.24h-23.805
					c-7.531,0-14.124-4.036-17.722-10.063c3.089,1.847,6.704,2.906,10.565,2.906h23.805c6.106,0,11.066-4.952,11.066-11.067
					c0-1.178-0.191-2.316-0.541-3.4l0.621,0.239C308.697,472.493,311.507,476.594,311.507,481.164z"/>
				<path style="fill:#EE6781;" d="M270.916,471.881l20.644,7.985c2.697,1.043,5.601-0.947,5.601-3.839l0,0
					c0-1.7-1.045-3.226-2.631-3.839l-20.644-7.985c-2.697-1.043-5.601,0.947-5.601,3.839l0,0
					C268.285,469.742,269.331,471.267,270.916,471.881z"/>
			</g>
			<g>
				<path style="fill:#C0405C;" d="M200.493,481.164c0,3.057,1.242,5.82,3.24,7.826c1.998,2.006,4.769,3.24,7.826,3.24h23.805
					c7.531,0,14.124-4.036,17.722-10.063c1.855-3.089,2.914-6.703,2.914-10.573v-12.157h-18.932l-28.876,11.17l-0.621,0.239
					C203.303,472.493,200.493,476.594,200.493,481.164z"/>
				<path style="fill:#334353;" d="M200.493,481.164c0,3.057,1.242,5.82,3.24,7.826c1.998,2.006,4.769,3.24,7.826,3.24h23.805
					c7.531,0,14.124-4.036,17.722-10.063c-3.089,1.847-6.704,2.906-10.565,2.906h-23.805c-6.106,0-11.066-4.952-11.066-11.067
					c0-1.178,0.191-2.316,0.541-3.4l-0.621,0.239C203.303,472.493,200.493,476.594,200.493,481.164z"/>
				<path style="fill:#DD5273;" d="M241.084,471.881l-20.644,7.985c-2.697,1.043-5.601-0.947-5.601-3.839l0,0
					c0-1.7,1.045-3.226,2.631-3.839l20.644-7.985c2.697-1.043,5.601,0.947,5.601,3.839l0,0
					C243.715,469.742,242.669,471.267,241.084,471.881z"/>
			</g>
		</g>
	</g>
</g>
</svg>
