<?xml version="1.0" encoding="iso-8859-1"?>
<!-- Generator: Adobe Illustrator 22.0.1, SVG Export Plug-In . SVG Version: 6.00 Build 0)  -->
<svg version="1.1" id="Icons" xmlns="http://www.w3.org/2000/svg" xmlns:xlink="http://www.w3.org/1999/xlink" x="0px" y="0px"
	 viewBox="0 0 512 512" style="enable-background:new 0 0 512 512;" xml:space="preserve">
<g>
	<circle style="fill:#6C53A2;" cx="256" cy="256" r="256"/>
	<g>
		<g>
			<path style="fill:#3E4E60;" d="M135.339,107.75c4,11.55,11.74,20.54,20.23,27.37c16.56,13.36,35.95,18.5,35.95,18.5l44.48-42.33
				c-13.6-31.32-28.73-50.66-42.05-62.25c-17.46-15.23-31.82-17.15-35.58-15.37C147.919,38.64,123.508,73.63,135.339,107.75z"/>
			<path style="fill:#3F5D77;" d="M135.339,107.75c4,11.55,11.74,20.54,20.23,27.37c23.85-12,40.37-38.04,40.37-68.23
				c0-6.15-0.69-12.13-1.99-17.85c-17.46-15.23-31.82-17.15-35.58-15.37C147.919,38.64,123.508,73.63,135.339,107.75z"/>
			<path style="fill:#C2AACF;" d="M152.439,119.87c14.41,13.22,31.19,23.97,45.58,17.38c2.42-1.1,4.76-2.69,7.02-4.84
				c14.74-14.02,3.3-49.39-13.48-71.64h-0.01c-9.14-12.13-19.87-20.36-28.81-19.1C137.399,45.23,135.619,104.43,152.439,119.87z"/>
			<path style="fill:#DECEE5;" d="M175.732,86.613c-4.876,1.499-9.888,3.379-13.734,5.608c-2.272,1.317-2.681,4.45-0.821,6.304
				c3.663,3.651,10.253,9.218,18.392,11.71c3.252,0.996,3.972,5.251,1.17,7.178c-1.387,0.954-2.781,1.99-4.089,3.083
				c-1.802,1.506-1.936,4.23-0.289,5.904c4.114,4.18,12.382,11.13,21.657,10.85c2.42-1.1,4.76-2.69,7.02-4.84
				c14.74-14.02,3.3-49.39-13.48-71.64h-0.01c-14.566-5.255-24.506-6.588-30.104-6.817c-2.873-0.118-4.911,2.739-3.913,5.435
				c2.106,5.69,6.594,14.455,15.068,18.232c1.178,0.524,2.311,0.992,3.396,1.411C179.544,80.398,179.367,85.495,175.732,86.613z"/>
		</g>
		<g>
			<path style="fill:#3F5D77;" d="M376.75,107.75c-4,11.55-11.74,20.54-20.23,27.37c-16.56,13.36-35.95,18.5-35.95,18.5
				l-44.48-42.33c13.6-31.32,28.73-50.66,42.05-62.25c17.46-15.23,31.82-17.15,35.58-15.37C364.17,38.64,388.58,73.63,376.75,107.75
				z"/>
			<path style="fill:#3F6C8E;" d="M376.75,107.75c-4,11.55-11.74,20.54-20.23,27.37c-23.85-12-40.37-38.04-40.37-68.23
				c0-6.15,0.69-12.13,1.99-17.85c17.46-15.23,31.82-17.15,35.58-15.37C364.17,38.64,388.58,73.63,376.75,107.75z"/>
			<path style="fill:#F4E6F4;" d="M359.65,119.87c-14.41,13.22-31.19,23.97-45.58,17.38c-2.42-1.1-4.76-2.69-7.02-4.84
				c-14.74-14.02-3.3-49.39,13.48-71.64h0.01c9.14-12.13,19.87-20.36,28.81-19.1C374.69,45.23,376.47,104.43,359.65,119.87z"/>
			<path style="fill:#FFFFFF;" d="M336.357,86.613c4.876,1.499,9.888,3.379,13.734,5.608c2.272,1.317,2.681,4.45,0.821,6.304
				c-3.663,3.651-10.253,9.218-18.392,11.71c-3.252,0.996-3.972,5.251-1.17,7.178c1.387,0.954,2.781,1.99,4.089,3.083
				c1.802,1.506,1.936,4.23,0.289,5.904c-4.114,4.18-12.382,11.13-21.657,10.85c-2.42-1.1-4.76-2.69-7.02-4.84
				c-14.74-14.02-3.3-49.39,13.48-71.64h0.01c14.566-5.255,24.506-6.588,30.104-6.817c2.873-0.118,4.911,2.739,3.913,5.435
				c-2.106,5.69-6.594,14.455-15.068,18.232c-1.178,0.524-2.311,0.992-3.396,1.411C332.544,80.398,332.721,85.495,336.357,86.613z"
				/>
		</g>
		<g>
			<g>
				<path style="fill:#C2AACF;" d="M340.76,278.433v42.531c0,19.38-7.927,38.191-22.473,53.319L280.8,413.272h-49.203
					l-37.487-38.989c-14.546-15.128-22.473-33.939-22.473-53.319v-42.531c0-38.689,37.511-70.084,83.908-70.364
					c0.216-0.01,0.432-0.01,0.648-0.01c23.36,0,44.491,7.874,59.804,20.607C331.298,241.41,340.76,258.993,340.76,278.433z"/>
				<path style="fill:#DECEE5;" d="M340.76,278.433v42.531c0,19.38-7.927,38.191-22.473,53.319L280.8,413.272h-25.255V208.069
					c0.216-0.01,0.432-0.01,0.648-0.01c23.36,0,44.491,7.874,59.804,20.607C331.298,241.41,340.76,258.993,340.76,278.433z"/>
			</g>
			<g>
				<path style="fill:#DECEE5;" d="M331.54,231.63l-4.23,5.97c-11.66,16.47-19.47,34.63-22.99,53.52l-9.11,48.74l-6.28,33.58
					c-2.29,12.26-0.1,24.81,6.31,36.02l6.23,10.91c4.63,8.1,6.62,17.07,5.78,26.02l-2.61,27.57c-0.89,9.47-10.38,16.77-21.8,16.77
					h-53.33c-11.4,0-20.9-7.3-21.8-16.76l-2.66-27.95c-0.84-8.71,1.03-17.46,5.4-25.4l7.12-12.92c6.06-11,8.1-23.26,5.86-35.23
					l-5.96-31.9l-9.52-50.94c-3.53-18.85-11.31-36.98-22.93-53.43l-4.17-5.9c-8.58-12.11-10.3-26.75-4.73-40.02l24.32-57.9
					c5.31-12.63,19.63-21.09,35.7-21.09h39.95c16.14,0,30.49,8.53,35.75,21.23l24.52,59.27
					C341.83,205.02,340.06,219.58,331.54,231.63z"/>
				<path style="fill:#F4E6F4;" d="M331.539,231.63l-4.233,5.968c-11.656,16.476-19.463,34.628-22.989,53.519l-15.386,82.329
					c-2.291,12.254-0.096,24.808,6.308,36.015l6.236,10.907c4.629,8.103,6.62,17.075,5.78,26.026l-2.614,27.563
					c-0.887,9.47-10.385,16.775-21.801,16.775h-26.634v-379.44h19.883c16.142,0,30.496,8.532,35.748,21.226l24.524,59.277
					C341.827,205.016,340.065,219.575,331.539,231.63z"/>
			</g>
			<g>
				<path style="fill:#3E4E60;" d="M307.25,446.39l-2.61,27.57c-0.89,9.47-10.38,16.77-21.8,16.77h-53.33
					c-11.4,0-20.9-7.3-21.8-16.76l-2.66-27.95c-0.84-8.71,1.03-17.46,5.4-25.4l7.12-12.92c6.06-11,8.1-23.26,5.86-35.23l-5.96-31.9
					c11.72,5.11,24.58,7.93,38.07,7.93c14.11,0,27.53-3.08,39.67-8.64l-6.28,33.58c-2.29,12.26-0.1,24.81,6.31,36.02l6.23,10.91
					C306.1,428.47,308.09,437.44,307.25,446.39z"/>
				<path style="fill:#3F5D77;" d="M307.25,446.39l-2.61,27.57c-0.89,9.47-10.38,16.77-21.8,16.77h-27.3V348.5
					c14.11,0,27.53-3.08,39.67-8.64l-6.28,33.58c-2.29,12.26-0.1,24.81,6.31,36.02l6.23,10.91
					C306.1,428.47,308.09,437.44,307.25,446.39z"/>
			</g>
			<g>
				<path style="fill:#3F5D77;" d="M256.19,348.49v29.76c-4.75,0-9.12-1.47-12.45-3.93c-3.32-2.46-5.61-5.9-6.18-9.82l-2.64-18.25
					c6.65,1.48,13.55,2.25,20.62,2.25C255.76,348.5,255.97,348.5,256.19,348.49z"/>
				<path style="fill:#3F6C8E;" d="M277.52,345.93l-2.68,18.57c-0.57,3.92-2.86,7.36-6.18,9.82c-3.34,2.46-7.71,3.93-12.46,3.93
					v-29.76C263.53,348.45,270.66,347.57,277.52,345.93z"/>
				<path style="fill:#F4E6F4;" d="M234.919,346.244c6.652,1.474,13.549,2.256,20.621,2.256c0.217,0,0.433-0.007,0.65-0.009V270.32
					h-11.07c-11.26,0-19.98,8.18-18.64,17.48L234.919,346.244z"/>
				<path style="fill:#FFFFFF;" d="M277.519,345.935l0.001-0.005l8.39-58.13c1.35-9.3-7.38-17.48-18.63-17.48H256.2v78.171
					C263.523,348.441,270.657,347.56,277.519,345.935z"/>
			</g>
			<g>
				<path style="fill:#3E4E60;" d="M278.18,71.16l-5.91,43.38c-0.66,4.8-4.76,8.39-9.61,8.39h-14.23c-4.85,0-8.95-3.59-9.61-8.39
					l-5.91-43.38c-1.56-11.43,7.33-21.62,18.87-21.62h7.53C270.85,49.54,279.74,59.73,278.18,71.16z"/>
				<path style="fill:#3F5D77;" d="M278.18,71.16l-5.91,43.38c-0.66,4.8-4.76,8.39-9.61,8.39h-7.12V49.54h3.77
					C270.85,49.54,279.74,59.73,278.18,71.16z"/>
			</g>
			<g>
				<path style="fill:#FFFFFF;" d="M256.204,130.702h10.445c11.638,0,22.024,7.307,25.955,18.261l12.503,34.842
					c3.899,10.866-1.799,22.789-12.673,26.662c-9.467,3.372-21.946,6.401-36.229,6.401V130.702z"/>
				<path style="fill:#F4E6F4;" d="M256.204,130.702H245.76c-11.638,0-22.024,7.307-25.955,18.261l-12.503,34.842
					c-3.899,10.866,1.799,22.789,12.673,26.662c9.467,3.372,21.946,6.401,36.229,6.401V130.702z"/>
			</g>
			<g>
				<g>
					<path style="fill:#3E4E60;" d="M332.959,227.2c7.402,4.274,9.977,13.686,5.809,21.121c-0.026,0.068-0.062,0.131-0.098,0.193
						l-5.428,9.401c-2.152,3.727-5.615,6.239-9.474,7.273c-3.865,1.044-8.11,0.607-11.847-1.551
						c-6.944-4.009-9.646-12.551-6.518-19.726c0.232-0.546,0.501-1.085,0.802-1.605l5.428-9.401
						c2.158-3.737,5.625-6.233,9.484-7.267C324.977,224.604,329.222,225.042,332.959,227.2z"/>
					<path style="fill:#2E3140;" d="M332.959,227.2c7.402,4.274,9.977,13.686,5.809,21.121c-8.344,4.427-19.205,4.389-28.564-1.014
						c-1.739-1.004-3.345-2.14-4.799-3.396c0.232-0.546,0.501-1.085,0.802-1.605l5.428-9.401c2.158-3.737,5.625-6.233,9.484-7.267
						C324.977,224.604,329.222,225.042,332.959,227.2z"/>
					<path style="fill:#FFFFFF;" d="M319.403,233.537l-3.266,5.656c-1.406,2.436-0.572,5.55,1.864,6.956l0,0
						c2.436,1.406,5.55,0.572,6.956-1.864l3.266-5.656c1.406-2.436,0.572-5.55-1.864-6.956l0,0
						C323.924,230.267,320.81,231.102,319.403,233.537z"/>
				</g>
				<g>
					<path style="fill:#3E4E60;" d="M178.13,227.2c-7.402,4.274-9.977,13.686-5.809,21.121c0.026,0.068,0.062,0.131,0.098,0.193
						l5.428,9.401c2.152,3.727,5.615,6.239,9.474,7.273c3.865,1.044,8.11,0.607,11.847-1.551c6.944-4.009,9.646-12.551,6.518-19.726
						c-0.232-0.546-0.501-1.085-0.802-1.605l-5.428-9.401c-2.158-3.737-5.625-6.233-9.484-7.267
						C186.112,224.604,181.868,225.042,178.13,227.2z"/>
					<path style="fill:#2E3140;" d="M178.13,227.2c-7.402,4.274-9.977,13.686-5.809,21.121c8.344,4.427,19.205,4.389,28.564-1.014
						c1.739-1.004,3.345-2.14,4.8-3.396c-0.232-0.546-0.501-1.085-0.802-1.605l-5.428-9.401c-2.158-3.737-5.625-6.233-9.484-7.267
						C186.112,224.604,181.868,225.042,178.13,227.2z"/>
					<path style="fill:#FFFFFF;" d="M191.686,233.537l3.266,5.656c1.406,2.436,0.572,5.55-1.864,6.956l0,0
						c-2.436,1.406-5.55,0.572-6.956-1.864l-3.266-5.656c-1.406-2.436-0.572-5.55,1.864-6.956h0
						C187.166,230.267,190.28,231.102,191.686,233.537z"/>
				</g>
			</g>
			<g>
				<g>
					<path style="fill:#151516;" d="M244.98,459.835c0,5.578-5.121,10.338-11.92,10.827c-7.183,0.519-13.515-3.902-14.139-9.879
						l-1.031-9.84l-1.247-11.805c-0.636-5.978,4.689-11.247,11.872-11.775c7.183-0.519,13.515,3.902,14.139,9.879l0.827,7.854
						l1.451,13.791C244.968,459.206,244.98,459.526,244.98,459.835z"/>
					<path style="fill:#2E3140;" d="M244.98,459.835c0,5.578-5.121,10.338-11.92,10.827c-7.183,0.519-13.515-3.902-14.139-9.879
						l-1.031-9.84c8.035-2.874,16.621-4.87,25.591-5.848l1.451,13.791C244.968,459.206,244.98,459.526,244.98,459.835z"/>
				</g>
				<g>
					<path style="fill:#2E3140;" d="M295.394,439.138l-1.223,11.676l-1.055,9.969c-0.6,5.658-6.308,9.919-13.011,9.919
						c-0.372,0-0.755-0.01-1.139-0.04c-7.183-0.519-12.496-5.798-11.872-11.775l1.451-13.831l0.827-7.814
						c0.636-5.978,6.967-10.398,14.151-9.879C290.706,427.892,296.018,433.161,295.394,439.138z"/>
					<path style="fill:#334353;" d="M294.171,450.814l-1.055,9.969c-0.6,5.658-6.308,9.919-13.011,9.919
						c-0.372,0-0.755-0.01-1.139-0.04c-7.183-0.519-12.496-5.798-11.872-11.775l1.451-13.831
						C277.526,446.004,286.125,447.97,294.171,450.814z"/>
				</g>
			</g>
		</g>
		<path style="fill:#3E4E60;" d="M326.57,215.3c0.19,1.92-1.22,3.63-3.14,3.83c-0.12,0.01-0.23,0.01-0.35,0.01
			c-1.78,0-3.3-1.34-3.48-3.15c-1.67-16.77-9.14-17.89-17.78-19.18c-5.37-0.81-10.93-1.64-14.75-6.3
			c-4.99-6.08-6.92-13.26-8.63-19.59c-3.15-11.68-5.23-19.4-22.24-19.4c-0.05,0-0.1-0.02-0.15-0.02s-0.1,0.02-0.16,0.02h-0.35
			c-16.69,0.11-18.76,7.8-21.88,19.4c-1.71,6.33-3.64,13.51-8.63,19.59c-3.82,4.66-9.38,5.49-14.75,6.3
			c-8.65,1.29-16.11,2.41-17.78,19.18c-0.18,1.81-1.71,3.15-3.48,3.15c-0.12,0-0.23,0-0.35-0.01c-1.93-0.2-3.33-1.91-3.14-3.83
			c2.22-22.2,14.64-24.06,23.71-25.42c4.43-0.66,8.26-1.23,10.38-3.81c4.03-4.92,5.68-11.04,7.28-16.97
			c3.08-11.46,6.58-24.44,28.64-24.58h0.35c0.06,0,0.11,0.01,0.16,0.01s0.1-0.01,0.15-0.01c22.38,0,25.9,13.06,29,24.58
			c1.6,5.93,3.25,12.05,7.28,16.97c2.11,2.58,5.94,3.15,10.38,3.81C311.93,191.24,324.35,193.1,326.57,215.3z M307.48,224.16
			c-3.19-11.44-9.62-12.53-15.28-13.49c-2.45-0.41-4.98-0.84-7.52-2.1c-7.99-3.97-9.02-4.48-25.32-38.63
			c-0.62-1.3-1.94-2.04-3.3-1.98h-0.01c-0.01,0-0.01,0-0.01,0c-0.17-0.01-0.34,0-0.5,0.02c-1.18,0.11-2.25,0.82-2.8,1.96
			c-16.31,34.15-17.33,34.66-25.32,38.63c-2.54,1.26-5.07,1.69-7.52,2.1c-5.67,0.96-12.09,2.05-15.29,13.49
			c-0.52,1.86,0.57,3.79,2.43,4.31c0.32,0.09,0.63,0.13,0.95,0.13c1.53,0,2.93-1.01,3.37-2.55c2-7.17,4.58-7.61,9.71-8.48
			c2.81-0.47,6-1.01,9.47-2.74c9.32-4.62,11.44-6.45,25-34.55c0.17-0.35,0.34-0.7,0.51-1.05c14.02,29.11,16.08,30.92,25.51,35.6
			c3.47,1.73,6.66,2.27,9.47,2.74c5.13,0.87,7.71,1.31,9.71,8.48c0.43,1.54,1.84,2.55,3.37,2.55c0.31,0,0.63-0.04,0.94-0.13
			C306.92,227.95,308,226.02,307.48,224.16z M283.97,234.94c-4.87-3.06-10.4-6.53-15.45-14.88c-1-1.66-3.15-2.19-4.8-1.19
			c-1.66,1-2.19,3.15-1.19,4.81c5.91,9.77,12.73,14.06,17.72,17.19c5.72,3.6,8.09,5.08,7.34,11.76c-0.58,5.2-1,9.97-1.41,14.58
			c-1.38,15.77-2.38,27.15-8.12,33.27c-9.38,9.98-12.98,17.2-14.51,37.85c-0.14,1.93,1.31,3.6,3.23,3.75c0.09,0,0.18,0.01,0.27,0.01
			c1.81,0,3.35-1.4,3.48-3.24c1.47-19.79,4.98-25.43,12.63-33.58c7.4-7.88,8.49-20.28,10-37.44c0.4-4.58,0.82-9.31,1.39-14.42
			C295.79,242.36,290.05,238.76,283.97,234.94z M267.95,242.89c-1.4-1.34-3.62-1.29-4.95,0.11c-1.34,1.4-1.29,3.61,0.11,4.95
			c6.69,6.38,9.44,12.31,7.01,28.69c-1.98,13.35-6.1,17.55-6.64,18.05l0.03-0.02l4.03,5.73c0.7-0.49,6.93-5.32,9.51-22.74
			C279.55,260.79,277.17,251.69,267.95,242.89z M256,252.5c-0.16,0-0.31,0.01-0.46,0.03c-1.71,0.23-3.04,1.7-3.04,3.47v29.59
			c0,1.77,1.33,3.24,3.04,3.47c0.15,0.02,0.3,0.03,0.46,0.03c1.93,0,3.5-1.57,3.5-3.5V256C259.5,254.07,257.93,252.5,256,252.5z
			 M337.43,276.75c-0.67-1.81-2.68-2.74-4.5-2.08l-20.72,7.64c-1.81,0.66-2.74,2.68-2.07,4.49c0.52,1.41,1.86,2.29,3.28,2.29
			c0.41,0,0.81-0.07,1.21-0.22l20.72-7.63C337.17,280.57,338.09,278.56,337.43,276.75z M333.22,301.06l-21.98,0.52
			c-1.93,0.05-3.46,1.65-3.42,3.58c0.05,1.91,1.61,3.42,3.5,3.42h0.09l21.97-0.52c1.94-0.05,3.47-1.65,3.42-3.59
			C336.76,302.54,335.13,301.05,333.22,301.06z M332.25,327.78l-24.61-6.65c-1.87-0.5-3.79,0.6-4.29,2.47
			c-0.51,1.87,0.6,3.79,2.46,4.29l24.62,6.65c0.31,0.08,0.61,0.12,0.91,0.12c1.55,0,2.96-1.03,3.38-2.59
			C335.22,330.2,334.12,328.28,332.25,327.78z M322.2,353.62L304,342.91c-1.67-0.98-3.81-0.42-4.79,1.25
			c-0.98,1.66-0.43,3.81,1.24,4.79l18.2,10.7c0.56,0.33,1.17,0.49,1.77,0.49c1.2,0,2.37-0.62,3.02-1.73
			C324.42,356.74,323.86,354.6,322.2,353.62z M329.34,184.66c-0.13-0.55-3.37-13.38-21.16-14.37c-6.66-0.37-8.31-5.84-10.46-14.73
			c-1.27-5.27-2.59-10.73-6.01-14.27c-8.56-8.86-15.2-10.89-35.51-10.89c-0.05,0-0.1,0.01-0.15,0.01s-0.1-0.01-0.16-0.01h-0.35
			c-20.04,0.02-26.64,2.08-35.15,10.89c-3.42,3.54-4.74,9-6.01,14.27c-2.15,8.89-3.8,14.36-10.47,14.73
			c-17.79,0.99-21.03,13.82-21.16,14.37c-0.44,1.88,0.72,3.76,2.6,4.21c0.27,0.06,0.54,0.09,0.81,0.09c1.59,0,3.02-1.08,3.4-2.69
			c0.02-0.08,2.11-8.29,14.74-8.99c12.2-0.68,14.8-11.43,16.88-20.08c1.06-4.36,2.15-8.87,4.24-11.04
			c6.23-6.45,10.22-8.73,30.12-8.76h0.35c0.06,0,0.11-0.01,0.16-0.02c0.05,0.01,0.1,0.02,0.15,0.02c20.21,0,24.21,2.27,30.48,8.76
			c2.09,2.17,3.18,6.68,4.24,11.04c2.08,8.65,4.68,19.4,16.88,20.08c12.39,0.69,14.65,8.69,14.73,8.99
			c0.38,1.61,1.82,2.69,3.41,2.69c0.26,0,0.53-0.03,0.81-0.09C328.63,188.42,329.79,186.54,329.34,184.66z M225.914,267.22
			c-0.406-4.617-0.826-9.391-1.409-14.587c-0.75-6.68,1.619-8.167,7.343-11.762c4.985-3.13,11.813-7.418,17.719-17.194
			c0.999-1.654,0.468-3.806-1.187-4.805c-1.653-0.999-3.805-0.47-4.806,1.186c-5.045,8.352-10.572,11.823-15.449,14.885
			c-6.077,3.816-11.816,7.42-10.577,18.47c0.574,5.113,0.99,9.844,1.393,14.42c1.51,17.159,2.6,29.556,9.998,37.436
			c7.653,8.149,11.16,13.789,12.626,33.576c0.136,1.839,1.671,3.241,3.486,3.241c0.087,0,0.175-0.003,0.263-0.01
			c1.928-0.143,3.374-1.821,3.231-3.749c-1.529-20.649-5.13-27.868-14.503-37.85C228.301,294.363,227.3,282.978,225.914,267.22z
			 M244.152,242.886c-9.219,8.806-11.601,17.907-9.102,34.778c2.58,17.413,8.805,22.242,9.506,22.736l4.027-5.726l0.095,0.07
			c-0.046-0.037-4.594-3.867-6.704-18.106c-2.426-16.383,0.328-22.305,7.014-28.691c1.397-1.335,1.448-3.551,0.113-4.948
			C247.766,241.603,245.553,241.551,244.152,242.886z M176.746,281.243l20.719,7.632c0.399,0.147,0.808,0.217,1.21,0.217
			c1.424,0,2.763-0.876,3.284-2.291c0.668-1.814-0.261-3.826-2.074-4.494l-20.719-7.632c-1.812-0.667-3.825,0.26-4.494,2.074
			C174.004,278.562,174.933,280.575,176.746,281.243z M200.692,308.58c0.028,0,0.057,0.001,0.085,0.001
			c1.894,0,3.452-1.513,3.497-3.417c0.046-1.933-1.483-3.537-3.416-3.583l-21.979-0.523c-1.951-0.035-3.536,1.483-3.582,3.416
			c-0.046,1.933,1.483,3.537,3.416,3.583L200.692,308.58z M208.753,323.601c-0.503-1.866-2.421-2.969-4.291-2.467l-24.618,6.644
			c-1.866,0.503-2.971,2.425-2.467,4.291c0.421,1.561,1.834,2.589,3.377,2.589c0.302,0,0.608-0.04,0.914-0.122l24.618-6.644
			C208.152,327.388,209.257,325.467,208.753,323.601z M208.101,342.913l-18.199,10.706c-1.666,0.98-2.223,3.125-1.242,4.791
			c0.652,1.109,1.82,1.726,3.02,1.726c0.604,0,1.215-0.156,1.771-0.484l18.199-10.706c1.666-0.98,2.223-3.125,1.242-4.791
			C211.911,342.488,209.763,341.933,208.101,342.913z"/>
		<path style="fill:#3F5D77;" d="M256.2,130.4c20.31,0,26.95,2.03,35.51,10.89c3.42,3.54,4.74,9,6.01,14.27
			c2.15,8.89,3.8,14.36,10.46,14.73c17.79,0.99,21.03,13.82,21.16,14.37c0.45,1.88-0.71,3.76-2.59,4.21
			c-0.28,0.06-0.55,0.09-0.81,0.09c-1.59,0-3.03-1.08-3.41-2.69c-0.08-0.3-2.34-8.3-14.73-8.99c-12.2-0.68-14.8-11.43-16.88-20.08
			c-1.06-4.36-2.15-8.87-4.24-11.04c-6.27-6.49-10.27-8.76-30.48-8.76V130.4z M256.2,252.52v36.55c1.835-0.106,3.3-1.618,3.3-3.48
			V256C259.5,254.139,258.035,252.626,256.2,252.52z M310.14,286.8c0.52,1.41,1.86,2.29,3.28,2.29c0.41,0,0.81-0.07,1.21-0.22
			l20.72-7.63c1.82-0.67,2.74-2.68,2.08-4.49c-0.67-1.81-2.68-2.74-4.5-2.08l-20.72,7.64C310.4,282.97,309.47,284.99,310.14,286.8z
			 M278.44,170.92c1.71,6.33,3.64,13.51,8.63,19.59c3.82,4.66,9.38,5.49,14.75,6.3c8.64,1.29,16.11,2.41,17.78,19.18
			c0.18,1.81,1.7,3.15,3.48,3.15c0.12,0,0.23,0,0.35-0.01c1.92-0.2,3.33-1.91,3.14-3.83c-2.22-22.2-14.64-24.06-23.71-25.42
			c-4.44-0.66-8.27-1.23-10.38-3.81c-4.03-4.92-5.68-11.04-7.28-16.97c-3.1-11.52-6.62-24.58-29-24.58v7
			C273.21,151.52,275.29,159.24,278.44,170.92z M277.05,277.66c2.5-16.87,0.12-25.97-9.1-34.77c-1.4-1.34-3.62-1.29-4.95,0.11
			c-1.34,1.4-1.29,3.61,0.11,4.95c6.69,6.38,9.44,12.31,7.01,28.69c-1.98,13.35-6.1,17.55-6.64,18.05l0.03-0.02l4.03,5.73
			C268.24,299.91,274.47,295.08,277.05,277.66z M322.2,353.62L304,342.91c-1.67-0.98-3.81-0.42-4.79,1.25
			c-0.98,1.66-0.43,3.81,1.24,4.79l18.2,10.7c0.56,0.33,1.17,0.49,1.77,0.49c1.2,0,2.37-0.62,3.02-1.73
			C324.42,356.74,323.86,354.6,322.2,353.62z M332.25,327.78l-24.61-6.65c-1.87-0.5-3.79,0.6-4.29,2.47
			c-0.51,1.87,0.6,3.79,2.46,4.29l24.62,6.65c0.31,0.08,0.61,0.12,0.91,0.12c1.55,0,2.96-1.03,3.38-2.59
			C335.22,330.2,334.12,328.28,332.25,327.78z M333.22,301.06l-21.98,0.52c-1.93,0.05-3.46,1.65-3.42,3.58
			c0.05,1.91,1.61,3.42,3.5,3.42h0.09l21.97-0.52c1.94-0.05,3.47-1.65,3.42-3.59C336.76,302.54,335.13,301.05,333.22,301.06z
			 M304.11,228.6c0.31,0,0.63-0.04,0.94-0.13c1.87-0.52,2.95-2.45,2.43-4.31c-3.19-11.44-9.62-12.53-15.28-13.49
			c-2.45-0.41-4.98-0.84-7.52-2.1c-7.99-3.97-9.02-4.48-25.32-38.63c-0.599-1.255-1.85-1.981-3.16-1.976v11.576
			c13.882,28.805,15.964,30.627,25.36,35.29c3.47,1.73,6.66,2.27,9.47,2.74c5.13,0.87,7.71,1.31,9.71,8.48
			C301.17,227.59,302.58,228.6,304.11,228.6z M283.97,234.94c-4.87-3.06-10.4-6.53-15.45-14.88c-1-1.66-3.15-2.19-4.8-1.19
			c-1.66,1-2.19,3.15-1.19,4.81c5.91,9.77,12.73,14.06,17.72,17.19c5.72,3.6,8.09,5.08,7.34,11.76c-0.58,5.2-1,9.97-1.41,14.58
			c-1.38,15.77-2.38,27.15-8.12,33.27c-9.38,9.98-12.98,17.2-14.51,37.85c-0.14,1.93,1.31,3.6,3.23,3.75c0.09,0,0.18,0.01,0.27,0.01
			c1.81,0,3.35-1.4,3.48-3.24c1.47-19.79,4.98-25.43,12.63-33.58c7.4-7.88,8.49-20.28,10-37.44c0.4-4.58,0.82-9.31,1.39-14.42
			C295.79,242.36,290.05,238.76,283.97,234.94z"/>
	</g>
</g>
</svg>
