<?xml version="1.0" encoding="iso-8859-1"?>
<!-- Generator: Adobe Illustrator 22.0.1, SVG Export Plug-In . SVG Version: 6.00 Build 0)  -->
<svg version="1.1" id="Icons" xmlns="http://www.w3.org/2000/svg" xmlns:xlink="http://www.w3.org/1999/xlink" x="0px" y="0px"
	 viewBox="0 0 512 512" style="enable-background:new 0 0 512 512;" xml:space="preserve">
<g>
	<circle style="fill:#EA792E;" cx="256" cy="256" r="256"/>
	<g>
		<g>
			<g>
				<path style="fill:#DD5E26;" d="M426.515,214.61l-4.71,21.88l-120.5-86.04l44.55-48.2l21.91-23.7
					c9.06-9.8,23.56-12.34,35.41-6.21c4.07,2.1,7.55,5.09,10.21,8.68s4.5,7.78,5.34,12.28l8.63,46.74l0.24,1.32
					C432.075,165.61,431.715,190.51,426.515,214.61z"/>
				<path style="fill:#334353;" d="M427.355,140.04c-7.83,4.08-16.73,6.39-26.17,6.39c-27.01,0-49.63-18.89-55.33-44.18l21.91-23.7
					c9.06-9.8,23.56-12.34,35.41-6.21c4.07,2.1,7.55,5.09,10.21,8.68s4.5,7.78,5.34,12.28L427.355,140.04z"/>
				<path style="fill:#EA792E;" d="M345.49,168.714l28.108-69.931c3.051-7.592,10.903-12.107,19-10.927h0
					c8.569,1.25,14.98,8.51,15.16,17.168l1.975,95.073c0.242,11.635-12.888,18.567-22.36,11.805L350.395,185.5
					C345.083,181.706,343.056,174.77,345.49,168.714z"/>
			</g>
			<g>
				<path style="fill:#C44A1A;" d="M85.485,214.61l4.71,21.88l120.5-86.04l-44.55-48.2l-21.91-23.7
					c-9.06-9.8-23.56-12.34-35.41-6.21c-4.07,2.1-7.55,5.09-10.21,8.68s-4.5,7.78-5.34,12.28l-8.63,46.74l-0.24,1.32
					C79.925,165.61,80.285,190.51,85.485,214.61z"/>
				<path style="fill:#2E3140;" d="M84.645,140.04c7.83,4.08,16.73,6.39,26.17,6.39c27.01,0,49.63-18.89,55.33-44.18l-21.91-23.7
					c-9.06-9.8-23.56-12.34-35.41-6.21c-4.07,2.1-7.55,5.09-10.21,8.68s-4.5,7.78-5.34,12.28L84.645,140.04z"/>
				<path style="fill:#DD5E26;" d="M166.51,168.714l-28.108-69.931c-3.051-7.592-10.903-12.107-19-10.927h0
					c-8.569,1.25-14.98,8.51-15.16,17.168l-1.975,95.073c-0.242,11.635,12.888,18.567,22.36,11.805l36.978-26.401
					C166.917,181.706,168.944,174.77,166.51,168.714z"/>
			</g>
		</g>
		<g>
			<path style="fill:#9175A7;" d="M428.665,277.8v36.65c0,29.48-9.45,56.74-25.49,78.94c-16.61,22.99-40.29,40.54-67.85,49.45
				c-13.1,4.25-27.08,6.54-41.59,6.54h-75.46c-45.04,0-84.93-22.07-109.44-55.99c-16.04-22.2-25.49-49.46-25.49-78.94V277.8
				c0-70.34,57.02-127.35,127.36-127.35h90.6C371.645,150.45,428.665,207.46,428.665,277.8z"/>
			<path style="fill:#AEA7B9;" d="M428.665,277.8v36.65c0,29.48-9.45,56.74-25.49,78.94c-16.61,22.99-40.29,40.54-67.85,49.45
				h-79.32V150.45h45.3C371.645,150.45,428.665,207.46,428.665,277.8z"/>
			<g>
				<path style="fill:#AEA7B9;" d="M403.175,393.39c-24.51,33.92-64.4,55.99-109.44,55.99h-75.46c-45.04,0-84.93-22.07-109.44-55.99
					c2.23-45.34,39.7-81.41,85.58-81.41h123.18C363.475,311.98,400.945,348.05,403.175,393.39z"/>
				<path style="fill:#DECEE5;" d="M403.175,393.39c-24.51,33.92-64.4,55.99-109.44,55.99h-37.73v-137.4h61.59
					C363.475,311.98,400.945,348.05,403.175,393.39z"/>
			</g>
			<g>
				<path style="fill:#DECEE5;" d="M268.998,231.772L268.998,231.772c-7.178,0-12.998-5.819-12.998-12.998V173.25
					c0-7.178,5.819-12.998,12.998-12.998h0c7.178,0,12.998,5.819,12.998,12.998v45.524
					C281.995,225.953,276.176,231.772,268.998,231.772z"/>
				<path style="fill:#AEA7B9;" d="M243.002,231.772L243.002,231.772c-7.178,0-12.998-5.819-12.998-12.998V173.25
					c0-7.178,5.819-12.998,12.998-12.998h0c7.178,0,12.998,5.819,12.998,12.998v45.524C256,225.953,250.181,231.772,243.002,231.772
					z"/>
			</g>
		</g>
		<g>
			<g>
				<path style="fill:#DD5E26;" d="M308.268,201.101h-10.319c-8.591,0-15.556,6.965-15.556,15.556v13.833
					c0,8.591,6.965,15.556,15.556,15.556h10.319c8.591,0,15.556-6.965,15.556-15.556v-13.833
					C323.824,208.066,316.86,201.101,308.268,201.101z"/>
				<path style="fill:#C44A1A;" d="M214.061,201.101h-10.319c-8.591,0-15.556,6.965-15.556,15.556v13.833
					c0,8.591,6.965,15.556,15.556,15.556h10.319c8.591,0,15.556-6.965,15.556-15.556v-13.833
					C229.617,208.066,222.652,201.101,214.061,201.101z"/>
			</g>
			<g>
				<g>
					<path style="fill:#DECEE5;" d="M341.284,269.05c-1.046-11.959-15.485-20.465-27.444-19.418
						c-11.959,1.046-20.805,11.589-19.759,23.548c1.046,11.959,10.922,13.182,22.881,12.136
						C328.921,284.27,342.33,281.009,341.284,269.05z"/>
					<path style="fill:#334353;" d="M327.286,263.497l0.604,6.902c0.274,3.136-0.748,6.08-2.616,8.307
						c-0.993,1.184-2.222,2.162-3.632,2.859c-1.243,0.622-2.626,1.031-4.094,1.159c-6.263,0.548-11.786-4.078-12.334-10.341
						l-0.604-6.902c-0.547-6.254,4.088-11.778,10.351-12.326c1.469-0.128,2.902,0.033,4.233,0.43
						C323.546,254.876,326.867,258.711,327.286,263.497z"/>
					<path style="fill:#2E3140;" d="M327.286,263.497l0.604,6.902c0.274,3.136-0.748,6.08-2.616,8.307
						c-0.993,1.184-2.222,2.162-3.632,2.859c-4.352-1.29-7.672-5.117-8.092-9.912l-0.604-6.902
						c-0.419-4.786,2.186-9.14,6.248-11.166C323.546,254.876,326.867,258.711,327.286,263.497z"/>
					<path style="fill:#FFFFFF;" d="M331.883,263.611c-0.284-3.246-3.146-5.648-6.392-5.364c-7.768,0.983-6.789,12.138,1.029,11.756
						C329.766,269.719,332.167,266.857,331.883,263.611z"/>
				</g>
				<g>
					<path style="fill:#DECEE5;" d="M170.726,269.05c1.046-11.959,15.485-20.465,27.444-19.418
						c11.959,1.046,20.805,11.589,19.759,23.548c-1.046,11.959-10.922,13.182-22.881,12.136
						C183.09,284.27,169.68,281.009,170.726,269.05z"/>
					<path style="fill:#334353;" d="M184.725,263.497l-0.604,6.902c-0.274,3.136,0.748,6.08,2.616,8.307
						c0.993,1.184,2.222,2.162,3.632,2.859c1.243,0.622,2.626,1.031,4.094,1.159c6.263,0.548,11.786-4.078,12.334-10.341
						l0.604-6.902c0.547-6.254-4.088-11.778-10.351-12.326c-1.469-0.128-2.902,0.033-4.233,0.43
						C188.465,254.876,185.144,258.711,184.725,263.497z"/>
					<path style="fill:#2E3140;" d="M207.403,265.481l-0.604,6.902c-0.274,3.136-1.792,5.858-4.019,7.726
						c-1.184,0.993-2.564,1.743-4.073,2.185c-4.062-2.027-6.667-6.372-6.248-11.166l0.604-6.902c0.419-4.786,3.74-8.621,8.092-9.912
						C205.217,256.342,207.822,260.696,207.403,265.481z"/>
					<path style="fill:#FFFFFF;" d="M211.911,266.391c0.284-3.246-2.117-6.108-5.364-6.392c-7.82-0.381-8.794,10.775-1.028,11.756
						C208.765,272.039,211.627,269.638,211.911,266.391z"/>
				</g>
			</g>
		</g>
		<g>
			<path style="fill:#DECEE5;" d="M312.285,449.87c-9.24,14.94-25.78,25.07-44.94,25.07h-22.68c-31.88,0-56.49-28.03-52.37-59.64
				l11.73-72.1l7.96-48.93c1.45-11.12,10.93-19.43,22.14-19.43h43.76c11.21,0,20.69,8.31,22.14,19.43l7.76,47.69l0.2,1.24
				l11.73,72.1C321.355,427.91,318.425,439.95,312.285,449.87z"/>
			<path style="fill:#F9F2F9;" d="M312.285,449.87c-9.24,14.94-25.78,25.07-44.94,25.07h-11.34V341.96h51.78l0.2,1.24l11.73,72.1
				C321.355,427.91,318.425,439.95,312.285,449.87z"/>
			<g>
				<path style="fill:#DD5E26;" d="M307.985,343.2c-9.55,13.51-25.3,22.32-43.1,22.32h-17.76c-17.8,0-33.55-8.81-43.1-22.32
					l7.96-48.93c1.45-11.12,10.93-19.43,22.14-19.43h43.76c11.21,0,20.69,8.31,22.14,19.43L307.985,343.2z"/>
				<path style="fill:#EA792E;" d="M307.985,343.2c-9.55,13.51-25.3,22.32-43.1,22.32h-8.88v-90.68h21.88
					c11.21,0,20.69,8.31,22.14,19.43L307.985,343.2z"/>
			</g>
			<g>
				<path style="fill:#2E3140;" d="M271.156,365.517h-30.302c-13.637,0-23.844,12.511-21.105,25.87l3.506,17.102
					c2.055,10.022,10.874,17.217,21.105,17.217h23.291c10.231,0,19.051-7.195,21.105-17.217l3.506-17.102
					C295,378.028,284.794,365.517,271.156,365.517z"/>
				<path style="fill:#334353;" d="M272.003,371.585h-31.995c-9.1,0-16.477,7.377-16.477,16.477v1.95
					c0,9.1,7.377,16.477,16.477,16.477h31.995c9.1,0,16.477-7.377,16.477-16.477v-1.95
					C288.479,378.961,281.103,371.585,272.003,371.585z"/>
				<path style="fill:#3F5D77;" d="M277.056,379.552h-42.102c-3.632,0-6.576,2.944-6.576,6.576v0c0,3.632,2.944,6.576,6.576,6.576
					h42.102c3.632,0,6.576-2.944,6.576-6.576v0C283.632,382.496,280.688,379.552,277.056,379.552z"/>
				<path style="fill:#FFFFFF;" d="M268.274,379.552h-11.028c-3.632,0-6.576,2.944-6.576,6.576v0c0,3.632,2.944,6.576,6.576,6.576
					h11.028c3.632,0,6.576-2.944,6.576-6.576v0C274.849,382.496,271.905,379.552,268.274,379.552z"/>
				<g>
					<path style="fill:#151516;" d="M264.73,400.408l-2.685,2.685c-2.509,2.509-2.509,6.578,0,9.087l5.739,5.739
						c2.509,2.509,6.578,2.509,9.087,0l2.685-2.685c2.509-2.509,2.509-6.578,0-9.087l-5.739-5.739
						C271.307,397.898,267.239,397.898,264.73,400.408z"/>
					<path style="fill:#151516;" d="M249.962,403.093l-2.685-2.685c-2.509-2.509-6.578-2.509-9.087,0l-5.739,5.739
						c-2.509,2.509-2.509,6.578,0,9.087l2.685,2.685c2.509,2.509,6.578,2.509,9.087,0l5.739-5.739
						C252.472,409.671,252.472,405.602,249.962,403.093z"/>
				</g>
			</g>
			<path style="fill:#334353;" d="M288.479,458.216c-4.782,0-10.855-2.066-17.285-4.253c-5.466-1.859-11.635-3.958-15.06-3.878
				c-2.699,0.069-7.708,2.026-12.127,3.752c-5.765,2.252-11.21,4.379-15.629,4.379c-7.836,0-30.375-9.927-34.813-11.917
				c-2.52-1.13-3.646-4.088-2.517-6.608c1.13-2.52,4.089-3.647,6.608-2.517c12.109,5.427,26.911,11.042,30.723,11.042
				c2.535,0,7.558-1.962,11.99-3.693c5.687-2.222,11.058-4.32,15.507-4.435c5.188-0.142,11.671,2.072,18.539,4.408
				c5.126,1.744,10.938,3.72,14.065,3.72c2.911-0.047,15.585-5.679,25.595-10.91c2.448-1.278,5.469-0.332,6.747,2.115
				c1.279,2.447,0.333,5.468-2.115,6.747C313.3,448.994,295.142,458.216,288.479,458.216z"/>
			<g>
				<g>
					<path style="fill:#FFFFFF;" d="M295.324,431.734c-1.928,0-3.494-1.56-3.5-3.489c-0.006-1.933,1.556-3.505,3.489-3.511
						l33.717-0.104c0.003,0,0.007,0,0.011,0c1.928,0,3.494,1.56,3.5,3.489c0.006,1.933-1.556,3.505-3.489,3.511l-33.717,0.104
						C295.331,431.734,295.328,431.734,295.324,431.734z"/>
					<path style="fill:#F4E6F4;" d="M218.686,431.734c1.928,0,3.494-1.56,3.5-3.489c0.006-1.933-1.556-3.505-3.489-3.511
						l-33.717-0.104c-0.003,0-0.007,0-0.011,0c-1.928,0-3.494,1.56-3.5,3.489c-0.006,1.933,1.556,3.505,3.489,3.511l33.717,0.104
						C218.679,431.734,218.683,431.734,218.686,431.734z"/>
				</g>
				<g>
					<path style="fill:#FFFFFF;" d="M310.197,413.316c-1.899,0.335-3.712-0.93-4.053-2.828c-0.341-1.903,0.924-3.722,2.827-4.063
						l33.187-5.957c0.003-0.001,0.007-0.001,0.011-0.002c1.899-0.335,3.712,0.93,4.053,2.828c0.341,1.903-0.924,3.722-2.827,4.063
						l-33.187,5.957C310.204,413.315,310.2,413.315,310.197,413.316z"/>
					<path style="fill:#F4E6F4;" d="M203.813,413.316c1.899,0.335,3.712-0.93,4.053-2.828c0.341-1.903-0.924-3.722-2.827-4.063
						l-33.187-5.957c-0.003-0.001-0.007-0.001-0.011-0.002c-1.899-0.335-3.712,0.93-4.053,2.828
						c-0.341,1.903,0.924,3.722,2.827,4.063l33.187,5.957C203.806,413.315,203.81,413.315,203.813,413.316z"/>
				</g>
			</g>
		</g>
	</g>
</g>
</svg>
