<?xml version="1.0" encoding="iso-8859-1"?>
<!-- Generator: Adobe Illustrator 22.0.1, SVG Export Plug-In . SVG Version: 6.00 Build 0)  -->
<svg version="1.1" id="Icons" xmlns="http://www.w3.org/2000/svg" xmlns:xlink="http://www.w3.org/1999/xlink" x="0px" y="0px"
	 viewBox="0 0 512 512" style="enable-background:new 0 0 512 512;" xml:space="preserve">
<g>
	<circle style="fill:#53B976;" cx="256" cy="256" r="256"/>
	<g>
		<g>
			<g>
				<path style="fill:#3E4E60;" d="M306.85,214.341c0-134.549-12.08-183.532-21.609-201.24c-2.369-4.402-9.076-1.908-8.061,2.986
					c5.343,25.767,13.221,90.822-9.493,198.254H306.85z"/>
				<path style="fill:#2E3140;" d="M306.78,196.59h-35.54c0.85-4.51,1.65-8.93,2.39-13.27h32.99
					C306.69,187.64,306.74,192.06,306.78,196.59z"/>
				<path style="fill:#2E3140;" d="M306.14,161.42h-29.11c0.64-4.52,1.21-8.95,1.73-13.27h26.94
					C305.87,152.44,306.01,156.86,306.14,161.42z"/>
				<path style="fill:#2E3140;" d="M304.68,126.25H281c0.39-4.56,0.71-8.98,0.97-13.27h21.88
					C304.15,117.24,304.43,121.66,304.68,126.25z"/>
				<path style="fill:#2E3140;" d="M282.87,91.09c0.09-4.61,0.11-9.04,0.07-13.28h17.68c0.5,4.19,0.98,8.61,1.43,13.28H282.87z"/>
				<path style="fill:#2E3140;" d="M297.5,55.92h-15.31c-0.29-4.75-0.66-9.18-1.07-13.27h13.83
					C295.82,46.66,296.68,51.07,297.5,55.92z"/>
				<path style="fill:#2E3140;" d="M288.69,20.75h-10.6c-0.31-1.68-0.61-3.23-0.91-4.66c-1.01-4.9,5.69-7.39,8.06-2.99
					C286.36,15.19,287.52,17.71,288.69,20.75z"/>
			</g>
			<g>
				<path style="fill:#2E3140;" d="M205.15,214.341c0-134.549,12.08-183.532,21.609-201.24c2.369-4.402,9.076-1.908,8.061,2.986
					c-5.343,25.767-13.221,90.822,9.493,198.254H205.15z"/>
				<path style="fill:#151516;" d="M205.22,196.59h35.54c-0.85-4.51-1.65-8.93-2.39-13.27h-32.99
					C205.31,187.64,205.26,192.06,205.22,196.59z"/>
				<path style="fill:#151516;" d="M205.86,161.42h29.11c-0.64-4.52-1.21-8.95-1.73-13.27H206.3
					C206.13,152.44,205.99,156.86,205.86,161.42z"/>
				<path style="fill:#151516;" d="M207.32,126.25H231c-0.39-4.56-0.71-8.98-0.97-13.27h-21.88
					C207.85,117.24,207.57,121.66,207.32,126.25z"/>
				<path style="fill:#151516;" d="M229.13,91.09c-0.09-4.61-0.11-9.04-0.07-13.28h-17.68c-0.5,4.19-0.98,8.61-1.43,13.28H229.13z"
					/>
				<path style="fill:#151516;" d="M214.5,55.92h15.31c0.29-4.75,0.66-9.18,1.07-13.27h-13.83
					C216.18,46.66,215.32,51.07,214.5,55.92z"/>
				<path style="fill:#151516;" d="M223.31,20.75h10.6c0.31-1.68,0.61-3.23,0.91-4.66c1.01-4.9-5.69-7.39-8.06-2.99
					C225.64,15.19,224.48,17.71,223.31,20.75z"/>
			</g>
		</g>
		<g>
			<path style="fill:#C68132;" d="M444.602,130.173c-5.847-8.156-16.615-11.089-25.791-7.028l-61.753,27.333
				c-7.873,3.485-12.951,11.285-12.951,19.895v0c0,14.925-6.208,29.178-17.137,39.343l-8.05,7.488
				c-3.677-1.844-7.727-2.864-12.07-2.864h-101.7c-4.343,0-8.393,1.02-12.07,2.864l-8.05-7.488
				c-10.929-10.165-17.137-24.418-17.137-39.343v0c0-8.61-5.077-16.41-12.951-19.895l-61.753-27.333
				c-9.176-4.062-19.944-1.128-25.791,7.028c-5.239,7.307-5.295,17.126-0.138,24.493l42.71,61.014
				c9.358,13.368,22.839,23.302,38.38,28.278l24.114,7.723c-0.729,6.219-0.563,12.839,0.668,19.564l33.01,180.239
				c3.481,19.005,19.409,32.657,37.164,32.657h25.389c17.755,0,33.684-13.652,37.165-32.657l19.654-107.298l12.61-68.86l0.746-4.08
				c1.231-6.725,1.398-13.344,0.668-19.564l24.114-7.723c15.541-4.977,29.022-14.91,38.38-28.278l42.71-61.014
				C449.897,147.3,449.841,137.481,444.602,130.173z"/>
			<path style="fill:#DD8C29;" d="M338.869,271.245l-0.746,4.081l-12.61,68.86l-19.654,107.298
				c-0.302,1.643-0.695,3.239-1.176,4.789c-5.042,16.455-19.723,27.868-35.988,27.868H256v-269.8h50.85
				C329.49,214.341,344.252,241.84,338.869,271.245z"/>
		</g>
		<g>
			<g>
				<g>
					<path style="fill:#DD8C29;" d="M307.215,228.092l19.756-18.375c10.929-10.165,17.137-24.418,17.137-39.343v0
						c0-8.61,5.077-16.41,12.951-19.895l61.753-27.333c9.176-4.062,19.944-1.128,25.791,7.028l0,0
						c5.239,7.307,5.295,17.126,0.138,24.493l-42.71,61.014c-9.358,13.368-22.839,23.301-38.38,28.278l-26.757,8.569
						L307.215,228.092z"/>
				</g>
				<path style="fill:#FFFFFF;" d="M427.536,135.33h-0.16c-1,0-1.97,0.21-2.9,0.62l-25.47,11.27l-36.28,16.06
					c-2.7,1.2-4.49,3.83-4.61,6.76c-0.41,9.49-2.37,18.78-5.98,27.31c-3.6,8.53-8.85,16.31-15.8,22.78c-2.01,1.86-3,4.38-3,6.89
					c0,2.7,1.15,5.39,3.43,7.26c1.95,1.61,4.59,2.12,7,1.35l15.44-4.95c11.36-3.64,21.37-10.5,28.84-19.71v-0.01
					c0.92-1.12,1.79-2.27,2.62-3.46l42.61-60.86C436.606,142.09,433.126,135.33,427.536,135.33z"/>
				<path style="fill:#3E4E60;" d="M380.57,209.312c3.41,0.756,4.663,5.033,2.132,7.44c-6.642,6.318-14.661,11.097-23.497,13.928
					l-15.44,4.95c-2.41,0.77-5.05,0.26-7-1.35c-2.28-1.87-3.43-4.56-3.43-7.26c0-2.51,0.99-5.03,3-6.89
					c6.95-6.47,12.2-14.25,15.8-22.78c3.61-8.53,5.57-17.82,5.98-27.31c0.12-2.93,1.91-5.56,4.61-6.76l20.985-9.289
					c3.735-1.653,7.133,2.884,4.496,6.003l-12.178,14.404c-1.727,2.043-0.275,5.172,2.4,5.172h9.219c3.679,0,5.26,4.667,2.339,6.903
					l-17.603,15.942c-1.891,1.713-1.062,4.846,1.429,5.398L380.57,209.312z"/>
				<path style="fill:#F39E22;" d="M366.768,153.688L366.768,153.688c1.517,3.613,5.704,5.278,9.287,3.692l31.104-13.767
					c3.778-1.672,5.293-6.235,3.266-9.835l0,0c-1.769-3.142-5.635-4.426-8.932-2.966l-31.104,13.767
					C366.902,146.122,365.292,150.172,366.768,153.688z"/>
			</g>
			<g>
				<path style="fill:#C2AACF;" d="M78.724,146.64l42.61,60.86c0.83,1.19,1.7,2.34,2.62,3.46v0.01
					c7.47,9.21,17.48,16.07,28.84,19.71l15.44,4.95c2.41,0.77,5.05,0.26,7-1.35c2.28-1.87,3.43-4.56,3.43-7.26
					c0-2.51-0.99-5.03-3-6.89c-6.95-6.47-12.2-14.25-15.8-22.78c-3.61-8.53-5.57-17.82-5.98-27.31c-0.12-2.93-1.91-5.56-4.61-6.76
					l-36.28-16.06l-25.47-11.27c-0.93-0.41-1.9-0.62-2.9-0.62h-0.16C78.874,135.33,75.394,142.09,78.724,146.64z"/>
				<path style="fill:#2E3140;" d="M131.43,209.312c-3.41,0.756-4.663,5.033-2.132,7.44c6.642,6.318,14.661,11.097,23.497,13.928
					l15.44,4.95c2.41,0.77,5.05,0.26,7-1.35c2.28-1.87,3.43-4.56,3.43-7.26c0-2.51-0.99-5.03-3-6.89
					c-6.95-6.47-12.2-14.25-15.8-22.78c-3.61-8.53-5.57-17.82-5.98-27.31c-0.12-2.93-1.91-5.56-4.61-6.76l-20.985-9.289
					c-3.735-1.653-7.133,2.884-4.496,6.003l12.178,14.404c1.727,2.043,0.275,5.172-2.4,5.172h-9.219
					c-3.679,0-5.26,4.667-2.339,6.903l17.603,15.942c1.891,1.713,1.062,4.846-1.429,5.398L131.43,209.312z"/>
				<path style="fill:#DD8C29;" d="M145.232,153.688L145.232,153.688c-1.517,3.613-5.704,5.278-9.287,3.692l-31.104-13.767
					c-3.778-1.672-5.293-6.235-3.266-9.835l0,0c1.769-3.142,5.635-4.426,8.932-2.966l31.104,13.767
					C145.098,146.122,146.708,150.172,145.232,153.688z"/>
			</g>
		</g>
		<g>
			<g>
				<path style="fill:#FFFFFF;" d="M304.683,456.273c-5.042,16.455-19.723,27.868-35.988,27.868H256v-72.568h17.355
					C272.775,434.347,286.336,452.221,304.683,456.273z"/>
				<path style="fill:#C2AACF;" d="M207.317,456.273c5.042,16.455,19.723,27.868,35.988,27.868H256v-72.568h-17.355
					C239.225,434.347,225.664,452.221,207.317,456.273z"/>
			</g>
			<g>
				<g>
					<polygon style="fill:#FFFFFF;" points="338.123,275.325 325.513,344.186 273.36,420.373 254.763,405.106 					"/>
				</g>
				<g>
					<polygon style="fill:#C2AACF;" points="173.882,275.325 186.491,344.186 238.643,420.373 257.241,405.106 					"/>
				</g>
			</g>
			<g>
				<g>
					<path style="fill:#DD8C29;" d="M281.543,408.968l-0.891,23.9c-0.222,5.959-4.821,10.709-10.278,10.709h-28.748
						c-5.457,0-10.056-4.75-10.278-10.709l-0.891-23.9c-0.605-16.217,10.815-29.946,25.543-29.946
						C270.728,379.022,282.148,392.751,281.543,408.968z"/>
					<path style="fill:#F39E22;" d="M281.543,408.968l-0.891,23.9c-0.222,5.959-4.821,10.709-10.278,10.709H256v-64.555
						C270.728,379.022,282.148,392.751,281.543,408.968z"/>
				</g>
				<g>
					<path style="fill:#151516;" d="M304.562,464.623c-1.046-2.556-3.965-3.78-6.521-2.733c-3.567,1.46-8.435,3.172-9.717,3.295
						c-3.925,0.341-10.908-0.81-17.069-1.826c-3.632-0.599-7.134-1.176-10.255-1.52v-8.364c0-2.761-2.239-5-5-5s-5,2.239-5,5v8.364
						c-3.121,0.344-6.623,0.92-10.255,1.52c-6.161,1.016-13.143,2.169-17.068,1.826c-1.157-0.111-5.698-1.65-9.718-3.295
						c-2.552-1.044-5.474,0.179-6.521,2.734c-1.045,2.556,0.178,5.475,2.733,6.521c2.112,0.865,9.266,3.708,12.636,4.002
						c5.183,0.451,12.493-0.755,19.565-1.922c5.09-0.839,10.353-1.708,13.627-1.708s8.538,0.868,13.627,1.708
						c6.032,0.995,12.238,2.019,17.147,2.019c0.847,0,1.656-0.031,2.418-0.097c3.37-0.293,10.524-3.137,12.637-4.002
						C304.385,470.098,305.608,467.178,304.562,464.623z"/>
					<g>
						<path style="fill:#151516;" d="M256,442.8v10.675c-0.187,0.247-0.385,0.481-0.596,0.702c-3.111,3.267-8.154,3.267-11.323,0
							l-2.613-2.689l-6.238-6.413c-3.294-3.396-3.5-8.97-0.399-12.454c1.566-1.759,3.664-2.642,5.794-2.642
							c2.13,0,4.269,0.883,5.916,2.642l8.851,9.452C255.608,442.309,255.81,442.551,256,442.8z"/>
						<path style="fill:#2E3140;" d="M276.77,445.075l-8.851,9.102c-3.169,3.267-8.212,3.267-11.323,0
							c-0.211-0.221-0.409-0.455-0.596-0.702V442.8c0.19-0.249,0.392-0.491,0.607-0.727l8.851-9.452
							c1.647-1.759,3.786-2.642,5.917-2.642s4.228,0.883,5.794,2.642C280.27,436.104,280.064,441.679,276.77,445.075z"/>
					</g>
				</g>
			</g>
			<g>
				<g>
					<path style="fill:#3E4E60;" d="M345.519,310.001c8.559,4.942,11.537,15.826,6.717,24.424c-0.03,0.079-0.071,0.151-0.113,0.224
						l-6.276,10.871c-2.488,4.31-6.493,7.214-10.955,8.41c-4.469,1.208-9.378,0.701-13.699-1.794
						c-8.03-4.636-11.155-14.514-7.537-22.81c0.268-0.632,0.58-1.254,0.927-1.856l6.276-10.871
						c2.495-4.322,6.505-7.208,10.967-8.403C336.289,306.999,341.197,307.505,345.519,310.001z"/>
					<path style="fill:#2E3140;" d="M345.519,310.001c8.559,4.942,11.537,15.826,6.717,24.424
						c-9.649,5.119-22.208,5.075-33.03-1.173c-2.01-1.161-3.868-2.474-5.55-3.927c0.268-0.632,0.58-1.254,0.927-1.856l6.276-10.871
						c2.495-4.322,6.505-7.208,10.967-8.403C336.289,306.999,341.197,307.505,345.519,310.001z"/>
					<path style="fill:#FFFFFF;" d="M329.844,317.329l-3.776,6.541c-1.626,2.816-0.661,6.418,2.155,8.044h0
						c2.816,1.626,6.418,0.661,8.044-2.155l3.776-6.541c1.626-2.816,0.661-6.418-2.155-8.044v0
						C335.071,313.547,331.47,314.512,329.844,317.329z"/>
				</g>
				<g>
					<path style="fill:#3E4E60;" d="M166.481,310.001c-8.559,4.942-11.537,15.826-6.717,24.424c0.03,0.079,0.071,0.151,0.113,0.224
						l6.276,10.871c2.488,4.31,6.493,7.214,10.955,8.41c4.469,1.208,9.378,0.701,13.699-1.794c8.03-4.636,11.155-14.514,7.537-22.81
						c-0.268-0.632-0.58-1.254-0.927-1.856l-6.276-10.871c-2.495-4.322-6.505-7.208-10.967-8.403
						C175.711,306.999,170.803,307.505,166.481,310.001z"/>
					<path style="fill:#2E3140;" d="M166.481,310.001c-8.559,4.942-11.537,15.826-6.717,24.424
						c9.649,5.119,22.208,5.075,33.03-1.173c2.01-1.161,3.868-2.474,5.55-3.927c-0.268-0.632-0.58-1.254-0.927-1.856l-6.276-10.871
						c-2.495-4.322-6.505-7.208-10.967-8.403C175.711,306.999,170.803,307.505,166.481,310.001z"/>
					<path style="fill:#FFFFFF;" d="M182.156,317.329l3.776,6.541c1.626,2.816,0.661,6.418-2.155,8.044h0
						c-2.816,1.626-6.418,0.661-8.044-2.155l-3.776-6.541c-1.626-2.816-0.661-6.418,2.155-8.044v0
						C176.929,313.547,180.53,314.512,182.156,317.329z"/>
				</g>
			</g>
			<g>
				<path style="fill:#F39E22;" d="M256,316.297c31.709,0,60.726-25.706,60.726-57.415v0c0-17.98-14.575-32.555-32.555-32.555H256
					V316.297z"/>
				<path style="fill:#DD8C29;" d="M256,316.297c-31.709,0-60.726-25.706-60.726-57.415v0c0-17.98,14.575-32.555,32.555-32.555H256
					V316.297z"/>
			</g>
		</g>
	</g>
</g>
</svg>
