<?xml version="1.0" encoding="iso-8859-1"?>
<!-- Generator: Adobe Illustrator 22.0.1, SVG Export Plug-In . SVG Version: 6.00 Build 0)  -->
<svg version="1.1" id="Icons" xmlns="http://www.w3.org/2000/svg" xmlns:xlink="http://www.w3.org/1999/xlink" x="0px" y="0px"
	 viewBox="0 0 512 512" style="enable-background:new 0 0 512 512;" xml:space="preserve">
<g>
	<circle style="fill:#53B976;" cx="256" cy="256" r="256"/>
	<g>
		<g>
			<path style="fill:#B26E2B;" d="M272.14,369.5l-13.46,126.34c-0.26,2.38-1.47,3.58-2.68,3.58s-2.42-1.2-2.68-3.58L239.86,369.5
				c-1.85-17.31,5.89-33.27,16.14-33.27S273.99,352.19,272.14,369.5z"/>
			<path style="fill:#C68132;" d="M272.14,369.5l-13.46,126.34c-0.26,2.38-1.47,3.58-2.68,3.58V336.23
				C266.25,336.23,273.99,352.19,272.14,369.5z"/>
		</g>
		<g>
			<path style="fill:#B26E2B;" d="M340.95,313.17l-17.89,53.28c-3.61,10.74-17.58,13.39-24.87,4.71l-10.69-12.73l-10.41-12.41
				c-5.51-6.55-13.3-9.82-21.09-9.82s-15.58,3.27-21.09,9.82l-21.1,25.14c-7.29,8.68-21.26,6.03-24.87-4.71l-17.89-53.28
				c-6.56-19.54-1.49-41.12,13.09-55.7l20.79-20.8h102.14l20.79,20.8C342.44,272.05,347.51,293.63,340.95,313.17z"/>
			<path style="fill:#C68132;" d="M340.95,313.17l-17.89,53.28c-3.61,10.74-17.58,13.39-24.87,4.71l-10.69-12.73l-10.41-12.41
				c-5.51-6.55-13.3-9.82-21.09-9.82v-99.53h51.07l20.79,20.8C342.44,272.05,347.51,293.63,340.95,313.17z"/>
			<g>
				<path style="fill:#C68132;" d="M307.07,236.67l-43.58,84.93c-1.57,3.05-4.53,4.58-7.49,4.58s-5.92-1.53-7.49-4.58l-43.58-84.93
					H307.07z"/>
				<path style="fill:#DD8C29;" d="M307.07,236.67l-43.58,84.93c-1.57,3.05-4.53,4.58-7.49,4.58v-89.51H307.07z"/>
			</g>
			<path style="fill:#DD8C29;" d="M340.95,313.17l-17.89,53.28c-3.61,10.74-17.58,13.39-24.87,4.71l0,0
				c-6.582-7.838-8.319-18.661-4.52-28.165l22.869-57.206c5.299-13.256,24.965-10.996,26.79,3.163
				C344.361,296.957,343.615,305.232,340.95,313.17z"/>
			<path style="fill:#C68132;" d="M171.05,313.17l17.89,53.28c3.61,10.74,17.58,13.39,24.87,4.71h0
				c6.582-7.838,8.319-18.661,4.52-28.165l-22.869-57.206c-5.299-13.256-24.965-10.996-26.79,3.163
				C167.639,296.957,168.385,305.232,171.05,313.17z"/>
			<g>
				<path style="fill:#F9C744;" d="M276.995,236.67v45.635c0,5.798-4.7,10.498-10.498,10.498l0,0c-5.798,0-10.498-4.7-10.498-10.498
					V236.67H276.995z"/>
				<path style="fill:#FFFFFF;" d="M266.498,241.225L266.498,241.225c-5.798,0-10.498,4.7-10.498,10.498v15.027
					c0,5.798,4.7,10.498,10.498,10.498h0c5.798,0,10.498-4.7,10.498-10.498v-15.027
					C276.995,245.925,272.295,241.225,266.498,241.225z"/>
			</g>
		</g>
		<g>
			<path style="fill:#F9C744;" d="M314.82,228.923c0,4.28-3.47,7.75-7.75,7.75H204.93c-2.14,0-4.08-0.87-5.48-2.27
				c-1.4-1.4-2.27-3.34-2.27-5.48c0-4.28,3.47-7.75,7.75-7.75h102.14c2.14,0,4.08,0.87,5.48,2.27
				C313.95,224.843,314.82,226.783,314.82,228.923z"/>
			<path style="fill:#FAD98F;" d="M314.82,228.923c0,4.28-3.47,7.75-7.75,7.75H256v-15.5h51.07c2.14,0,4.08,0.87,5.48,2.27
				C313.95,224.843,314.82,226.783,314.82,228.923z"/>
		</g>
		<g>
			<g>
				<g>
					<path style="fill:#B26E2B;" d="M402.75,174.423v100.38c0,13.9-18.03,19.36-25.74,7.8l-24.84-37.21
						c-4.33-6.49-9.93-11.87-16.35-15.88c-8.55-5.37-18.55-8.34-28.95-8.34H205.13c-10.4,0-20.4,2.97-28.95,8.34
						c-6.42,4.01-12.02,9.39-16.35,15.88l-24.84,37.21c-7.71,11.56-25.74,6.1-25.74-7.8v-100.38c0-81.05,65.7-146.75,146.75-146.75
						S402.75,93.373,402.75,174.423z"/>
					<path style="fill:#C68132;" d="M402.75,174.423v100.38c0,9.42-8.28,14.96-16.02,13.96c-3.67-0.47-7.24-2.43-9.72-6.16
						l-11.27-16.88l-13.57-20.33c-10.1-15.13-27.1-24.22-45.3-24.22H256v-193.5C337.05,27.673,402.75,93.373,402.75,174.423z"/>
				</g>
				<g>
					<path style="fill:#C68132;" d="M335.82,150.813v78.7c-8.55-5.37-18.55-8.34-28.95-8.34H205.13c-10.4,0-20.4,2.97-28.95,8.34
						v-78.7c0-44.09,35.74-79.83,79.82-79.83S335.82,106.723,335.82,150.813z"/>
					<path style="fill:#DD8C29;" d="M335.82,150.813v78.7c-6.34-3.98-13.49-6.65-21-7.75c-2.61-0.39-5.27-0.59-7.95-0.59H256V70.983
						C300.08,70.983,335.82,106.723,335.82,150.813z"/>
				</g>
				<g>
					<path style="fill:#F39E22;" d="M273.764,108.813H256v112.36h41.991V133.04C297.991,119.66,287.144,108.813,273.764,108.813z"/>
					<path style="fill:#DD8C29;" d="M238.236,108.813H256v112.36h-41.991V133.04C214.009,119.66,224.856,108.813,238.236,108.813z"
						/>
				</g>
			</g>
			<path style="fill:#F9C744;" d="M256,221.173v-77.635c0-5.798,4.7-10.498,10.498-10.498h0c5.798,0,10.498,4.7,10.498,10.498
				v77.635H256z"/>
			<path style="fill:#FFFFFF;" d="M266.498,201.618L266.498,201.618c5.798,0,10.498-4.7,10.498-10.498v-32.027
				c0-5.798-4.7-10.498-10.498-10.498l0,0c-5.798,0-10.498,4.7-10.498,10.498v32.027C256,196.918,260.7,201.618,266.498,201.618z"/>
			<path style="fill:#F39E22;" d="M335.82,159.093v70.42c-6.34-3.98-13.49-6.65-21-7.75v-62.67c0-5.8,4.7-10.5,10.5-10.5
				c2.9,0,5.52,1.17,7.42,3.07C334.64,153.563,335.82,156.193,335.82,159.093z"/>
			<path style="fill:#F9C744;" d="M325.322,217.173L325.322,217.173c5.798,0,10.498-4.7,10.498-10.498v-32.027
				c0-5.798-4.7-10.498-10.498-10.498h0c-5.798,0-10.498,4.7-10.498,10.498v32.027C314.825,212.473,319.525,217.173,325.322,217.173
				z"/>
			<path style="fill:#DD8C29;" d="M386.73,143.54v145.223c-3.67-0.47-7.24-2.43-9.72-6.16l-11.27-16.88V143.54
				c0-2.9,1.18-5.52,3.07-7.42c1.9-1.9,4.53-3.08,7.42-3.08C382.03,133.04,386.73,137.74,386.73,143.54z"/>
			<path style="fill:#F39E22;" d="M376.234,233.051L376.234,233.051c5.798,0,10.498-4.7,10.498-10.498v-62.1
				c0-5.798-4.7-10.498-10.498-10.498h0c-5.798,0-10.498,4.7-10.498,10.498v62.1C365.737,228.351,370.437,233.051,376.234,233.051z"
				/>
			<path style="fill:#C68132;" d="M125.271,143.54v145.223c3.67-0.47,7.24-2.43,9.72-6.16l11.27-16.88V143.54
				c0-2.9-1.18-5.52-3.07-7.42c-1.9-1.9-4.53-3.08-7.42-3.08C129.971,133.04,125.271,137.74,125.271,143.54z"/>
			<path style="fill:#DD8C29;" d="M135.767,233.051L135.767,233.051c-5.798,0-10.498-4.7-10.498-10.498v-62.1
				c0-5.798,4.7-10.498,10.498-10.498h0c5.798,0,10.498,4.7,10.498,10.498v62.1C146.265,228.351,141.565,233.051,135.767,233.051z"
				/>
		</g>
	</g>
</g>
</svg>
