<?xml version="1.0" encoding="iso-8859-1"?>
<!-- Generator: Adobe Illustrator 22.0.1, SVG Export Plug-In . SVG Version: 6.00 Build 0)  -->
<svg version="1.1" id="Icons" xmlns="http://www.w3.org/2000/svg" xmlns:xlink="http://www.w3.org/1999/xlink" x="0px" y="0px"
	 viewBox="0 0 512 512" style="enable-background:new 0 0 512 512;" xml:space="preserve">
<g>
	<circle style="fill:#EA792E;" cx="256" cy="256" r="256"/>
	<g>
		<g>
			<g>
				<path style="fill:#2D2C33;" d="M422.853,316.627l-29.463,84.563c-12.824,36.777-47.513,61.43-86.466,61.43H205.076
					c-38.953,0-73.642-24.653-86.466-61.43l-29.463-84.563c-9.293-26.654-5.772-56.095,9.544-79.808l41.033-79.032
					c6.232-9.643,10.594-20.368,12.857-31.617l3.652-18.181c4.296-21.384,15.841-39.751,31.759-52.794
					C203.91,42.164,234.2,34.479,256,34.479c43.61,0,91.164,30.753,99.768,73.511l3.652,18.181
					c2.263,11.25,6.625,21.974,12.857,31.617l41.033,79.032C428.626,260.532,432.146,289.974,422.853,316.627z"/>
				<path style="fill:#2E3140;" d="M422.853,316.627l-29.463,84.563c-12.824,36.777-47.513,61.43-86.466,61.43H256V34.479
					c43.61,0,91.164,30.753,99.768,73.511l3.652,18.181c2.263,11.25,6.625,21.974,12.857,31.617l41.033,79.032
					C428.626,260.532,432.146,289.974,422.853,316.627z"/>
			</g>
			<g>
				<path style="fill:#334353;" d="M325,405.211l2.634-28.368c1.888-20.333,14.749-38.003,33.517-46.049l5.196-2.228
					c12.319-5.282,25.113,6.433,20.933,19.169l-15.789,48.113c-4.085,12.449-14.046,22.084-26.624,25.754l0,0
					C334.318,424.679,323.984,416.154,325,405.211z"/>
				<path style="fill:#2E3140;" d="M187,405.211l-2.634-28.368c-1.888-20.333-14.749-38.003-33.517-46.049l-5.196-2.228
					c-12.319-5.282-25.113,6.433-20.933,19.169l15.789,48.113c4.085,12.449,14.046,22.084,26.624,25.754l0,0
					C177.682,424.679,188.016,416.154,187,405.211z"/>
			</g>
			<g>
				<path style="fill:#334353;" d="M256,61.797c0,0,26.942,1.798,35.578,4.169c21.541,5.913,35.306,27.299,40.183,49.099
					l5.678,25.376c3.129,13.986-7.51,27.269-21.842,27.269H256V61.797z"/>
				<path style="fill:#2E3140;" d="M256,61.797c0,0-26.942,1.798-35.578,4.169c-21.541,5.913-35.306,27.299-40.183,49.099
					l-5.678,25.376c-3.129,13.986,7.51,27.269,21.842,27.269H256V61.797z"/>
			</g>
		</g>
		<g>
			<g>
				<path style="fill:#334353;" d="M366.037,268.706c0,21.652-10.949,40.748-27.603,52.058
					c-18.994,12.899-30.752,34.031-30.752,56.983v19.399c0,14.271-5.778,27.199-15.138,36.559
					c-9.36,9.345-22.273,15.138-36.544,15.138c-28.542,0-51.682-23.154-51.682-51.697v-19.399c0-22.952-11.758-44.084-30.752-56.983
					c-8.334-5.648-15.224-13.26-20.049-22.143c-4.81-8.898-7.554-19.095-7.554-29.914c0-34.753,28.167-62.934,62.92-62.934h94.235
					c17.377,0,33.107,7.049,44.489,18.431C358.988,235.6,366.037,251.33,366.037,268.706z"/>
				<path style="fill:#3E4E60;" d="M366.04,268.71c0,21.65-10.95,40.74-27.61,52.05c-18.99,12.9-30.75,34.03-30.75,56.99v19.4
					c0,14.27-5.78,27.19-15.14,36.55c-9.36,9.35-22.27,15.14-36.54,15.14V205.77h47.12c17.37,0,33.1,7.05,44.49,18.43
					C358.99,235.6,366.04,251.33,366.04,268.71z"/>
			</g>
			<g>
				<g>
					<path style="fill:#3F5D77;" d="M256,373.12L256,373.12c12.611,0.707,24.338,6.7,32.299,16.506l17.464,21.512L256,423.725
						V373.12z"/>
					<path style="fill:#3E4E60;" d="M256,373.12L256,373.12c-12.611,0.707-24.338,6.7-32.299,16.506l-17.464,21.512L256,423.725
						V373.12z"/>
				</g>
				<g>
					<path style="fill:#2D2C33;" d="M256,427.236c-10.571,0-20.567-3.727-29.387-7.014c-6.293-2.346-12.238-4.562-17.361-5.06
						c-2.749-0.267-4.76-2.711-4.493-5.46s2.715-4.757,5.46-4.493c6.425,0.624,12.964,3.062,19.888,5.643
						c8.419,3.139,17.126,6.384,25.894,6.384c8.771,0,17.48-3.246,25.903-6.385c6.924-2.581,13.463-5.018,19.888-5.643
						c2.753-0.275,5.193,1.745,5.46,4.493c0.267,2.749-1.744,5.193-4.493,5.46c-5.124,0.498-11.069,2.714-17.363,5.06
						C276.573,423.509,266.574,427.236,256,427.236z"/>
				</g>
			</g>
			<g>
				<g>
					<path style="fill:#3F5D77;" d="M320.092,246.763h-35.917c-6.715,0-12.158-5.443-12.158-12.158v0
						c0-6.715,5.443-12.158,12.158-12.158h35.917c6.715,0,12.158,5.443,12.158,12.158v0
						C332.25,241.319,326.807,246.763,320.092,246.763z"/>
					<g>
						<path style="fill:#3E4E60;" d="M227.825,246.763h-35.917c-6.715,0-12.158-5.443-12.158-12.158v0
							c0-6.715,5.443-12.158,12.158-12.158h35.917c6.715,0,12.158,5.443,12.158,12.158v0
							C239.983,241.319,234.539,246.763,227.825,246.763z"/>
					</g>
				</g>
				<g>
					<g>
						<path style="fill:#2E3140;" d="M256,302.315h-73.532c-7.736,0-14.008-6.271-14.008-14.008v-10.464
							c0-17.165,13.915-31.08,31.08-31.08h11.848H256V302.315z"/>
						<path style="fill:#334353;" d="M256,302.315h73.532c7.736,0,14.008-6.271,14.008-14.008v-10.464
							c0-17.165-13.915-31.08-31.08-31.08h-11.848H256V302.315z"/>
					</g>
					<g>
						<g>
							<path style="fill:#EA792E;" d="M299.637,259.355l-12.824,3.717c-8.16,2.365-12.858,10.897-10.493,19.057v0
								c2.365,8.16,10.897,12.858,19.057,10.493l12.824-3.717c8.16-2.365,12.858-10.897,10.493-19.057v0
								C316.329,261.688,307.797,256.99,299.637,259.355z"/>
							<path style="fill:#3E4E60;" d="M311.204,275.99c0,3.14-1.06,6.05-2.85,8.36c-2.5,3.24-6.43,5.34-10.85,5.34
								c-7.56,0-13.7-6.14-13.7-13.7c0-6.19,4.11-11.42,9.75-13.12c1.25-0.38,2.58-0.58,3.95-0.58
								C305.074,262.29,311.204,268.42,311.204,275.99z"/>
							<path style="fill:#2E3140;" d="M311.204,275.99c0,3.14-1.06,6.05-2.85,8.36c-1.26,0.39-2.59,0.59-3.97,0.59
								c-7.56,0-13.69-6.14-13.69-13.7c0-3.15,1.06-6.05,2.86-8.37c1.25-0.38,2.58-0.58,3.95-0.58
								C305.074,262.29,311.204,268.42,311.204,275.99z"/>
							<circle style="fill:#FFFFFF;" cx="307.5" cy="269.439" r="6.55"/>
						</g>
						<g>
							<path style="fill:#EA792E;" d="M212.363,259.355l12.824,3.717c8.16,2.365,12.858,10.897,10.493,19.057l0,0
								c-2.365,8.16-10.897,12.858-19.057,10.493l-12.824-3.717c-8.16-2.365-12.858-10.897-10.493-19.057l0,0
								C195.671,261.688,204.203,256.99,212.363,259.355z"/>
							<path style="fill:#3E4E60;" d="M200.796,275.99c0,3.14,1.06,6.05,2.85,8.36c2.5,3.24,6.43,5.34,10.85,5.34
								c7.56,0,13.7-6.14,13.7-13.7c0-6.19-4.11-11.42-9.75-13.12c-1.25-0.38-2.58-0.58-3.95-0.58
								C206.926,262.29,200.796,268.42,200.796,275.99z"/>
							<path style="fill:#2E3140;" d="M200.796,275.99c0,3.14,1.06,6.05,2.85,8.36c1.26,0.39,2.59,0.59,3.97,0.59
								c7.56,0,13.69-6.14,13.69-13.7c0-3.15-1.06-6.05-2.86-8.37c-1.25-0.38-2.58-0.58-3.95-0.58
								C206.926,262.29,200.796,268.42,200.796,275.99z"/>
							<circle style="fill:#FFFFFF;" cx="219.291" cy="269.322" r="6.55"/>
						</g>
					</g>
				</g>
			</g>
			<g>
				<g>
					<path style="fill:#2D2C33;" d="M256,356.53v16.59c-0.31,0.39-0.64,0.76-0.99,1.11c-5.2,5.2-13.62,5.2-18.81,0l-4.24-4.24
						l-9.98-9.97c-5.19-5.2-5.19-13.62,0-18.81c2.6-2.6,6-3.9,9.41-3.9c3.41,0,6.81,1.3,9.41,3.9l14.21,14.21
						C255.36,355.78,255.69,356.15,256,356.53z"/>
					<path style="fill:#2E3140;" d="M290.02,360.02l-14.22,14.21c-5.19,5.2-13.61,5.2-18.81,0c-0.35-0.35-0.68-0.72-0.99-1.11
						v-16.59c0.31-0.38,0.64-0.75,0.99-1.11l14.21-14.21c2.6-2.6,6-3.9,9.41-3.9c3.41,0,6.81,1.3,9.41,3.9
						C295.21,346.4,295.21,354.82,290.02,360.02z"/>
				</g>
				<g>
					<g>
						<path style="fill:#3F5D77;" d="M268.271,332.843c-2.248,0-4.471-1.007-5.949-2.926c-2.526-3.283-1.914-7.992,1.369-10.518
							c15.107-11.627,26.788-6.462,34.259-1.566c3.464,2.271,4.432,6.92,2.162,10.384c-2.271,3.464-6.92,4.431-10.384,2.162
							c-5.125-3.359-9.071-5.11-16.887,0.907C271.477,332.335,269.867,332.843,268.271,332.843z"/>
					</g>
					<g>
						<path style="fill:#3E4E60;" d="M243.729,332.843c2.248,0,4.471-1.007,5.949-2.926c2.526-3.283,1.914-7.992-1.369-10.518
							c-15.107-11.627-26.788-6.462-34.259-1.566c-3.464,2.271-4.432,6.92-2.162,10.384c2.271,3.464,6.92,4.431,10.384,2.162
							c5.125-3.359,9.071-5.11,16.887,0.907C240.523,332.335,242.133,332.843,243.729,332.843z"/>
					</g>
				</g>
			</g>
		</g>
	</g>
</g>
</svg>
