<?xml version="1.0" encoding="iso-8859-1"?>
<!-- Generator: Adobe Illustrator 22.0.1, SVG Export Plug-In . SVG Version: 6.00 Build 0)  -->
<svg version="1.1" id="Icons" xmlns="http://www.w3.org/2000/svg" xmlns:xlink="http://www.w3.org/1999/xlink" x="0px" y="0px"
	 viewBox="0 0 512 512" style="enable-background:new 0 0 512 512;" xml:space="preserve">
<g>
	<circle style="fill:#6C53A2;" cx="256" cy="256" r="256"/>
	<g>
		<g>
			<path style="fill:#9175A7;" d="M444.6,287.66c0,7.66-2.28,15.39-7.02,21.39c-14.19,17.95-33.43,28.03-53.49,28.03H82.33
				c-4.23,0-8.06-2.17-10.84-5.68c-9.05-10.967-3.717-32.857,10.84-33.11c5.615-0.354,41.4,0.933,45.78-0.96
				c2.25-0.631,4.44-1.57,6.54-2.82c17.04-10.1,35.63-15.34,54.45-15.34h132.46c22.454-0.344,30.64-19.213,42.1-35.9
				c8.1-12.15,21.88-15.32,32.84-7.54l35.86,25.46C440.649,267.132,444.587,277.506,444.6,287.66z"/>
			<path style="fill:#A583BB;" d="M444.6,287.66c0,7.66-2.28,15.39-7.02,21.39c-14.19,17.95-33.43,28.03-53.49,28.03H82.33
				c-9.575-0.23-15.38-9.933-15.33-19.39h50.83c19.91,0,39.64-3.75,58.15-11.06c18.504-7.327,38.249-11.065,58.16-11.07
				c0,0,134.94,0,134.94,0c11.32,0,22.18-4.5,30.18-12.5c7.556-7.559,17.793-11.802,28.48-11.8h13.09
				C443.32,276.19,444.6,281.9,444.6,287.66z"/>
			<path style="fill:#C2AACF;" d="M346.316,320.523H230.894c-16.53-0.655-16.586-24.283,0-24.963c0,0,115.422,0,115.422,0
				C362.846,296.215,362.902,319.843,346.316,320.523z"/>
			<path style="fill:#C2AACF;" d="M178.69,327.39c-0.007,5.346-4.335,9.695-9.69,9.69H82.33c-9.596-0.229-15.365-9.934-15.33-19.39
				h102C174.35,317.69,178.69,322.03,178.69,327.39z"/>
		</g>
		<g>
			<g>
				<path style="fill:#9175A7;" d="M448.05,190.79v8.72c0.573,21.022-14.542,42.956-33.52,42.409c0,0-62.23,0-62.23,0
					c-5.56,0-10.92,3.17-14.18,8.87c-4.63,8.06-12.13,13.41-20.78,13.41c-7.17,0-14.32-0.77-21.39-2.3l-72.75-15.75
					c-3.97-0.86-7.93,1.74-9.59,6.39c-2.46,6.87-7.93,11.66-14.29,11.66H160.4c-10.33,0-19.75-4.95-26.86-13.08
					c-2.92-3.34-7.4-2.93-10.09,0.71c-5.62,7.61-13.62,12.37-22.51,12.37H72.5c-6.68,0-12.74-3.43-17.11-8.97
					c-4.64-5.902-7.133-13.816-7.09-21.65c0-13.9,7.41-26.06,18.03-29.6l44.42-14.81c6.55-2.19,13.01,0.83,17,6.73
					c3.15,4.66,7.93,7.01,12.73,6.14L215,188.46l105.63-19.25c9.366-1.573,18.114-8.148,24.01-16.9
					c7.529-10.234,18.017-15.176,29.29-14.48c9.47,0,18.57,4.72,25.32,13.13l3.54,4.42c5.87,7.31,13.77,11.4,22.01,11.4h4.27
					C439.56,166.78,448.05,177.53,448.05,190.79z"/>
				<path style="fill:#A583BB;" d="M448.05,190.79c-0.033,4.932,0.23,12.29-0.64,17.04h-96.45c-6.2,0-12.15,2.46-16.54,6.85
					c-9.378,10.391-20.72,16.809-34.97,16.81c0,0-43.97,0-43.97,0c-7.824,0.319-16.793-3.228-24.1-5.75
					c-6.07-2.08-12.8-0.47-17.28,4.12l-3.25,3.33c-6.94,7.11-16.45,11.12-26.39,11.12h-13.83c-9.216,0.117-17.916-3.668-24.96-9.47
					c-9.95-7.34-23.62-6.96-33.13,0.93l-2.85,2.35c-4.82,4-10.89,6.19-17.15,6.19H49.83c-3.706-11.941-0.644-27.532,8.75-35.77
					c2.3-2.05,4.91-3.61,7.75-4.56l42.22-14.08l2.2-0.73c6.55-2.19,13.01,0.83,17,6.73c3.058,4.559,7.935,7.041,12.73,6.14
					c42.845-7.808,136.646-24.902,180.15-32.83c9.674-1.609,18.433-8.587,24.01-16.9c7.528-10.236,18.018-15.174,29.29-14.48
					c9.47,0,18.57,4.72,25.32,13.13l3.54,4.42c5.468,6.856,13.374,11.413,22.01,11.4c0,0,4.27,0,4.27,0
					C439.56,166.78,448.05,177.53,448.05,190.79z"/>
				<path style="fill:#C2AACF;" d="M411.26,162.89c-19.068,18.723-56.139,17.538-73.47-2.56c2.497-2.236,4.828-5.199,6.85-8.02
					c6.82-9.23,16.36-14.48,26.36-14.48c10.724-0.647,20.759,3.747,28.25,13.13C402.539,155.25,406.671,160.359,411.26,162.89z"/>
				<path style="fill:#C2AACF;" d="M128.05,196.33c-0.165,10.735-7.436,20.359-17.72,23.45c0,0-11.99,3.66-11.99,3.66l-16.38,5.61
					l-5.56,1.71c-9.67,2.96-20.13-0.19-26.56-7.9c2.657-8.75,8.124-15.963,16.49-18.88c0,0,42.22-14.08,42.22-14.08
					C116.195,186.641,123.343,189.156,128.05,196.33z"/>
				<path style="fill:#C2AACF;" d="M302,203.89l-136.28,16.02c-11.75,1.39-22.64-6.33-25.24-17.87
					c59.842-10.904,120.309-21.927,180.15-32.83l1.39,7.56C324.44,189.9,315.25,202.33,302,203.89z"/>
				<g>
					<g>
						<path style="fill:#A583BB;" d="M199.86,207.6c-2.648,0.496-5.323-1.34-5.78-4.07c0,0-1.89-10.91-1.89-10.91l9.84-1.8l1.91,11
							C204.41,204.54,202.58,207.13,199.86,207.6z"/>
					</g>
					<g>
						<path style="fill:#A583BB;" d="M177.51,210.23c-2.661,0.469-5.323-1.333-5.78-4.07c0,0-1.65-9.51-1.65-9.51l9.83-1.8l1.67,9.6
							C182.05,207.17,180.23,209.76,177.51,210.23z"/>
					</g>
					<g>
						<path style="fill:#A583BB;" d="M155.15,212.86c-2.661,0.469-5.323-1.332-5.78-4.07c0,0-1.41-8.11-1.41-8.11l9.84-1.8l1.42,8.2
							C159.69,209.8,157.87,212.39,155.15,212.86z"/>
					</g>
					<g>
						<path style="fill:#A583BB;" d="M222.22,204.97c-2.657,0.497-5.324-1.34-5.78-4.07c0,0-2.14-12.31-2.14-12.31l9.84-1.8
							l2.15,12.4C226.77,201.91,224.94,204.5,222.22,204.97z"/>
					</g>
					<g>
						<path style="fill:#A583BB;" d="M244.58,202.34c-2.66,0.494-5.323-1.329-5.78-4.07c0,0-2.38-13.71-2.38-13.71l9.83-1.8
							l2.4,13.8C249.12,199.28,247.3,201.87,244.58,202.34z"/>
					</g>
					<g>
						<path style="fill:#A583BB;" d="M266.94,199.72c-2.661,0.469-5.323-1.332-5.78-4.07c0,0-2.62-15.12-2.62-15.12l9.83-1.8
							l2.64,15.21C271.48,196.66,269.66,199.24,266.94,199.72z"/>
					</g>
					<g>
						<path style="fill:#A583BB;" d="M289.29,197.09c-2.65,0.47-5.312-1.333-5.78-4.07c0,0-2.87-16.52-2.87-16.52l9.85-1.8
							l2.88,16.61C293.84,194.03,292.02,196.62,289.29,197.09z"/>
					</g>
					<g>
						<path style="fill:#A583BB;" d="M311.65,194.46c-2.658,0.47-5.324-1.333-5.78-4.07c0,0-3.11-17.92-3.11-17.92
							c0.003,0.001,9.835-1.804,9.84-1.8l3.12,18.01C316.2,191.4,314.37,193.99,311.65,194.46z"/>
					</g>
				</g>
				<path style="fill:#C2AACF;" d="M425.447,207.83h-58.124c-10.183-0.345-10.212-15.054,0-15.41c0,0,58.124,0,58.124,0
					c4.255,0,7.705,3.45,7.705,7.705C433.152,204.38,429.702,207.83,425.447,207.83z"/>
			</g>
			<g>
				<g>
					<path style="fill:#746087;" d="M397.87,174.15c0.009,10.165-8.314,18.298-18.27,18.27c0,0-25.07,0-25.07,0
						c-10.092,0.003-18.273-8.178-18.27-18.27c-0.045-10.117,8.345-18.326,18.27-18.27c0,0,25.07,0,25.07,0
						C389.686,155.876,397.868,164.058,397.87,174.15z"/>
					<path style="fill:#9175A7;" d="M397.87,174.15c0,6.43-3.32,12.08-8.34,15.33c-20.68-1.62-36.86-15.99-36.92-33.5
						c-0.298-0.214,26.387-0.053,26.99-0.1C389.686,155.876,397.868,164.058,397.87,174.15z"/>
				</g>
				<path style="fill:#53B976;" d="M390.97,174.15c0,6.57-5.33,11.89-11.89,11.89h-24.03c-15.773-0.626-15.777-23.142,0-23.78
					c0,0,24.03,0,24.03,0C385.642,162.257,390.972,167.597,390.97,174.15z"/>
				<g>
					<path style="fill:#2E3140;" d="M372.7,174.15c0,4.5-1.55,8.63-4.16,11.89h-13.49c-6.577-0.002-11.888-5.313-11.89-11.89
						c0-6.56,5.32-11.89,11.89-11.89h13.48C371.14,165.51,372.7,169.65,372.7,174.15z"/>
					<path style="fill:#3E4E60;" d="M372.7,174.15c0,4.5-1.55,8.63-4.16,11.89h-8.35c-2.992-7.274-2.992-16.506,0-23.78h8.34
						C371.14,165.51,372.7,169.65,372.7,174.15z"/>
				</g>
				<path style="fill:#83D5EF;" d="M381.776,167.973h-14.084c-2.751,0-4.981,2.23-4.981,4.981c0,2.751,2.23,4.981,4.981,4.981
					h14.084C388.356,177.734,388.362,168.177,381.776,167.973z"/>
			</g>
			<g>
				<path style="fill:#2E3140;" d="M105.17,213.89c0.015,4.275-2.767,8.172-6.83,9.55c0,0-16.38,5.61-16.38,5.61
					c-12.826,3.848-19.054-14.248-6.54-19.11c0,0,16.37-5.61,16.37-5.61C98.195,201.997,105.276,207.115,105.17,213.89z"/>
				<path style="fill:#3E4E60;" d="M102.23,221c-1.06,1.07-2.37,1.92-3.89,2.44l-16.38,5.61c-7.888,2.799-15.678-5.135-12.78-12.92
					C79.703,213.68,94.432,215.666,102.23,221z"/>
			</g>
		</g>
		<g>
			<g>
				<path style="fill:#FBD9A3;" d="M81.85,255.4v26.84c0,2.59-3.15,3.86-4.95,2c-0.61-0.63-1.2-1.28-1.76-1.95
					c-2.9-3.41-5.2-7.24-6.86-11.34c-1.98-4.89-3.02-10.17-3.02-15.55c-0.003-3.522,2.857-6.372,6.37-6.37c0,0,3.84,0,3.84,0
					C79,249.03,81.85,251.88,81.85,255.4z"/>
				<path style="fill:#FAEFDC;" d="M75.14,252.54v17.316c0,3.818-5.283,4.911-6.742,1.383c-2.058-4.976-3.138-10.352-3.138-15.84
					c0-1.76,0.71-3.35,1.86-4.5C69.473,248.335,74.949,248.089,75.14,252.54z"/>
			</g>
			<g>
				<path style="fill:#FBD9A3;" d="M105.795,302.232l-12.608-23.695c-1.217-2.287-4.594-1.928-5.309,0.56
					c-1.465,5.124-1.922,10.528-1.367,15.782c0.549,5.247,2.111,10.397,4.638,15.146c1.652,3.111,5.515,4.283,8.616,2.631
					l3.39-1.804C106.271,309.194,107.448,305.339,105.795,302.232z"/>
				<path style="fill:#FAEFDC;" d="M101.214,307.908l-8.134-15.287c-1.793-3.371-6.97-1.854-6.601,1.946
					c0.52,5.36,2.092,10.613,4.67,15.457c0.827,1.554,2.2,2.624,3.756,3.099C98.157,314.301,103.156,311.892,101.214,307.908z"/>
			</g>
			<g>
				<path style="fill:#FBD9A3;" d="M140.153,297.777l-12.608-23.695c-1.217-2.287-4.594-1.928-5.309,0.56
					c-1.465,5.124-1.922,10.528-1.367,15.782c0.549,5.247,2.111,10.397,4.638,15.146c1.652,3.111,5.515,4.283,8.616,2.631
					l3.39-1.804C140.629,304.739,141.806,300.885,140.153,297.777z"/>
				<path style="fill:#FAEFDC;" d="M135.573,303.454l-8.134-15.287c-1.793-3.371-6.97-1.854-6.601,1.946
					c0.52,5.36,2.092,10.613,4.67,15.458c0.827,1.554,2.2,2.624,3.756,3.099C132.515,309.847,137.514,307.438,135.573,303.454z"/>
			</g>
			<g>
				<path style="fill:#FBD9A3;" d="M217.249,279.58l-12.608-23.695c-1.217-2.287-4.594-1.928-5.309,0.56
					c-1.465,5.124-1.922,10.528-1.367,15.782c0.549,5.247,2.111,10.397,4.638,15.146c1.652,3.111,5.515,4.283,8.616,2.631
					l3.39-1.804C217.725,286.542,218.903,282.688,217.249,279.58z"/>
				<path style="fill:#FAEFDC;" d="M212.669,285.257l-8.134-15.287c-1.793-3.371-6.97-1.854-6.601,1.946
					c0.52,5.36,2.092,10.613,4.67,15.457c0.827,1.554,2.2,2.624,3.756,3.099C209.611,291.65,214.611,289.241,212.669,285.257z"/>
			</g>
			<g>
				<path style="fill:#FBD9A3;" d="M271.052,281.58l-12.608-23.695c-1.217-2.287-4.594-1.928-5.309,0.56
					c-1.465,5.124-1.922,10.528-1.367,15.782c0.549,5.247,2.111,10.397,4.638,15.146c1.652,3.111,5.515,4.283,8.616,2.631
					l3.39-1.804C271.528,288.542,272.705,284.688,271.052,281.58z"/>
				<path style="fill:#FAEFDC;" d="M266.472,287.257l-8.134-15.287c-1.793-3.371-6.97-1.854-6.601,1.946
					c0.52,5.36,2.092,10.613,4.67,15.457c0.827,1.554,2.2,2.624,3.756,3.099C263.414,293.65,268.413,291.241,266.472,287.257z"/>
			</g>
			<g>
				<path style="fill:#FBD9A3;" d="M315.048,281.58l-12.608-23.695c-1.217-2.287-4.594-1.928-5.309,0.56
					c-1.465,5.124-1.922,10.528-1.367,15.782c0.549,5.247,2.111,10.397,4.638,15.146c1.652,3.111,5.515,4.283,8.616,2.631
					l3.39-1.804C315.524,288.542,316.702,284.688,315.048,281.58z"/>
				<path style="fill:#FAEFDC;" d="M310.468,287.257l-8.134-15.287c-1.793-3.371-6.97-1.854-6.601,1.946
					c0.52,5.36,2.092,10.613,4.67,15.457c0.827,1.554,2.2,2.624,3.756,3.099C307.41,293.65,312.41,291.241,310.468,287.257z"/>
			</g>
			<g>
				<path style="fill:#FBD9A3;" d="M111.307,252.523v26.84c0,2.59-3.15,3.86-4.95,2c-0.61-0.63-1.2-1.28-1.76-1.95
					c-2.9-3.41-5.2-7.24-6.86-11.34c-1.98-4.89-3.02-10.17-3.02-15.55c-0.003-3.522,2.857-6.372,6.37-6.37h3.84
					C108.457,246.153,111.307,249.003,111.307,252.523z"/>
				<path style="fill:#FAEFDC;" d="M104.597,249.663v17.316c0,3.818-5.283,4.911-6.742,1.383c-2.058-4.976-3.138-10.352-3.138-15.84
					c0-1.76,0.71-3.35,1.86-4.5C98.93,245.458,104.406,245.212,104.597,249.663z"/>
			</g>
			<g>
				<path style="fill:#FBD9A3;" d="M189.28,255.4v26.84c0,2.59-3.15,3.86-4.95,2c-0.61-0.63-1.2-1.28-1.76-1.95
					c-2.9-3.41-5.2-7.24-6.86-11.34c-1.98-4.89-3.02-10.17-3.02-15.55c-0.003-3.522,2.857-6.372,6.37-6.37h3.84
					C186.43,249.03,189.28,251.88,189.28,255.4z"/>
				<path style="fill:#FAEFDC;" d="M182.57,252.54v17.316c0,3.818-5.283,4.911-6.742,1.383c-2.058-4.976-3.138-10.352-3.138-15.84
					c0-1.76,0.71-3.35,1.86-4.5C176.903,248.335,182.379,248.089,182.57,252.54z"/>
			</g>
			<g>
				<path style="fill:#FBD9A3;" d="M244.715,240.832v26.84c0,2.59-3.15,3.86-4.95,2c-0.61-0.63-1.2-1.28-1.76-1.95
					c-2.9-3.41-5.2-7.24-6.86-11.34c-1.98-4.89-3.02-10.17-3.02-15.55c-0.003-3.522,2.857-6.372,6.37-6.37h3.84
					C241.865,234.462,244.715,237.312,244.715,240.832z"/>
				<path style="fill:#FAEFDC;" d="M238.005,237.972v17.316c0,3.818-5.283,4.911-6.742,1.383c-2.058-4.976-3.138-10.352-3.138-15.84
					c0-1.76,0.71-3.35,1.86-4.5C232.338,233.767,237.814,233.521,238.005,237.972z"/>
			</g>
			<g>
				<path style="fill:#FBD9A3;" d="M287.214,252.523v26.84c0,2.59-3.15,3.86-4.95,2c-0.61-0.63-1.2-1.28-1.76-1.95
					c-2.9-3.41-5.2-7.24-6.86-11.34c-1.98-4.89-3.02-10.17-3.02-15.55c-0.003-3.522,2.857-6.372,6.37-6.37h3.84
					C284.364,246.153,287.214,249.003,287.214,252.523z"/>
				<path style="fill:#FAEFDC;" d="M280.504,249.663v17.316c0,3.818-5.283,4.911-6.742,1.383c-2.059-4.976-3.138-10.352-3.138-15.84
					c0-1.76,0.71-3.35,1.86-4.5C274.837,245.458,280.313,245.212,280.504,249.663z"/>
			</g>
			<g>
				<path style="fill:#FBD9A3;" d="M332.386,255.4v26.84c0,2.59-3.15,3.86-4.95,2c-0.61-0.63-1.2-1.28-1.76-1.95
					c-2.9-3.41-5.2-7.24-6.86-11.34c-1.98-4.89-3.02-10.17-3.02-15.55c-0.003-3.522,2.857-6.372,6.37-6.37h3.84
					C329.536,249.03,332.386,251.88,332.386,255.4z"/>
				<path style="fill:#FAEFDC;" d="M325.676,252.54v17.316c0,3.818-5.283,4.911-6.742,1.383c-2.059-4.976-3.138-10.352-3.138-15.84
					c0-1.76,0.71-3.35,1.86-4.5C320.01,248.335,325.485,248.089,325.676,252.54z"/>
			</g>
			<g>
				<path style="fill:#FBD9A3;" d="M150.911,250.68v26.84c0,2.59-3.15,3.86-4.95,2c-0.61-0.63-1.2-1.28-1.76-1.95
					c-2.9-3.41-5.2-7.24-6.86-11.34c-1.98-4.89-3.02-10.17-3.02-15.55c-0.003-3.522,2.857-6.372,6.37-6.37h3.84
					C148.061,244.31,150.911,247.16,150.911,250.68z"/>
				<path style="fill:#FAEFDC;" d="M144.201,247.82v17.316c0,3.818-5.283,4.911-6.742,1.383c-2.058-4.976-3.138-10.352-3.138-15.84
					c0-1.76,0.71-3.35,1.86-4.5C138.535,243.615,144.01,243.369,144.201,247.82z"/>
			</g>
		</g>
	</g>
</g>
</svg>
