<?xml version="1.0" encoding="iso-8859-1"?>
<!-- Generator: Adobe Illustrator 22.0.1, SVG Export Plug-In . SVG Version: 6.00 Build 0)  -->
<svg version="1.1" id="Icons" xmlns="http://www.w3.org/2000/svg" xmlns:xlink="http://www.w3.org/1999/xlink" x="0px" y="0px"
	 viewBox="0 0 512 512" style="enable-background:new 0 0 512 512;" xml:space="preserve">
<g>
	<circle style="fill:#6C53A2;" cx="256" cy="256" r="256"/>
	<g>
		<g>
			<path style="fill:#BF5E39;" d="M459.2,289.56l-91.58,152.09c-12.32,20.46-34.46,32.98-58.36,32.98H202.8
				c-23.92,0-46.09-12.55-58.41-33.06L52.76,288.92c-9.9-16.48-12.37-36.36-6.81-54.76l40.16-132.98
				c8.68-28.76,35.17-48.43,65.21-48.43h209.32c30.06,0,56.56,19.7,65.23,48.48l40.21,133.54
				C471.62,253.19,469.12,273.08,459.2,289.56z"/>
			<path style="fill:#DD5E26;" d="M459.2,289.56l-91.58,152.09c-12.32,20.46-34.46,32.98-58.36,32.98H256V52.75h104.64
				c30.06,0,56.56,19.7,65.23,48.48l40.21,133.54C471.62,253.19,469.12,273.08,459.2,289.56z"/>
		</g>
		<g>
			<g>
				<path style="fill:#F9C744;" d="M413.234,132.601l-17.121-25.594c-11.48-17.147-35.764-19.53-50.355-4.939l-35.661,35.661
					c-5.318-1.769-88.196-0.597-95.949-0.913c-4.162,0-8.251,0.313-12.247,0.913l-35.661-35.661
					c-14.591-14.591-38.875-12.208-50.355,4.939l-17.12,25.594c-8.693,12.983-6.998,30.302,4.052,41.351l30.664,30.664
					c-2.141,7.319-0.937,88.261-1.21,97.779c0,45.222,36.655,81.876,81.877,81.876h83.702c45.222,0,81.877-36.655,81.877-81.877
					c-0.313-9.868,1.066-90.018-1.21-97.779l30.664-30.664C420.232,162.903,421.927,145.584,413.234,132.601z"/>
				<path style="fill:#FBCB74;" d="M409.183,173.955l-30.663,30.663c2.257,7.293,0.85,88.275,1.208,97.775
					c0,45.221-36.655,81.876-81.877,81.876H256V136.813c9.274,0.264,45.594-0.765,54.098,0.918l35.663-35.663
					c14.587-14.596,38.874-12.209,50.352,4.934l17.124,25.598C421.925,145.586,420.231,162.907,409.183,173.955z"/>
			</g>
			<g>
				<path style="fill:#FBD9A3;" d="M330.659,307.096v35.641c0,6.863,7.213,11.336,13.361,8.284l12.98-6.444
					c2.769-1.375,4.668-4.042,5.061-7.108l4.609-35.96c0.89-6.943-5.958-12.32-12.492-9.808l-17.589,6.763
					C333.016,299.837,330.659,303.269,330.659,307.096z"/>
				<path style="fill:#FBCB74;" d="M181.341,307.096v35.641c0,6.863-7.213,11.336-13.361,8.284L155,344.577
					c-2.769-1.375-4.668-4.042-5.061-7.108l-4.609-35.96c-0.89-6.943,5.958-12.32,12.492-9.808l17.589,6.763
					C178.984,299.837,181.341,303.269,181.341,307.096z"/>
			</g>
			<g>
				<g>
					<path style="fill:#FBCB74;" d="M314.404,318.471v65.015c0,21.347-17.311,38.658-38.658,38.658h-39.492
						c-21.347,0-38.658-17.312-38.658-38.668v-65.005c0-12.621,6.048-23.828,15.402-30.887c6.32-4.756,10.168-12.097,10.168-20.008
						v-15.158c0-9.072,7.35-16.432,16.422-16.432h32.826c9.072,0,16.422,7.359,16.422,16.432v15.158
						c0,7.911,3.848,15.252,10.168,20.008C308.356,294.643,314.404,305.85,314.404,318.471z"/>
					<path style="fill:#FBD9A3;" d="M314.404,318.471v65.015c0,21.347-17.311,38.658-38.658,38.658H256V235.986h16.413
						c9.072,0,16.422,7.359,16.422,16.432v15.158c0,7.911,3.848,15.252,10.168,20.008
						C308.356,294.643,314.404,305.85,314.404,318.471z"/>
				</g>
				<path style="fill:#F39E22;" d="M315.847,380.537c-1.62-0.796-3.585-0.126-4.384,1.495c-0.085,0.173-8.691,17.289-23.164,17.289
					c-11.411-0.265-24.195,1.286-27.903-7.979c7.681-1.834,13.441-9.244,13.328-17.153c-0.186-3.36,2.49-6.248,5.87-6.237
					c0,0,3.688,0,3.688,0c2.586,0,4.681-2.096,4.681-4.681c0-2.585-2.096-4.681-4.681-4.681h-3.688
					c-8.399,0-15.233,6.833-15.233,15.233c0.193,3.698-2.318,7.3-5.869,8.345c-1.172-1.536-3.814-1.535-4.986,0.001
					c-3.414-1.08-5.864-4.459-5.864-8.346c0-8.399-6.834-15.233-15.233-15.233h-3.688c-2.586,0-4.681,2.096-4.681,4.681
					c0,2.585,2.096,4.681,4.681,4.681h3.688c3.237,0,5.87,2.633,5.87,5.87c0,8.322,5.614,15.556,13.318,17.535
					c-3.702,9.241-16.493,7.699-27.897,7.964c-14.474,0-23.079-17.116-23.165-17.29c-0.795-1.622-2.757-2.295-4.381-1.5
					c-1.626,0.795-2.3,2.758-1.505,4.383c0.557,1.601,12.107,22.494,31.038,20.962c11.918-0.033,24.251,0.286,30.311-8.822
					c6.307,9.618,20.161,8.762,32.299,8.82c18.589,0,28.631-20.104,29.05-20.96C318.142,383.292,317.47,381.334,315.847,380.537z"/>
				<g>
					<g>
						<g>
							<path style="fill:#F4E6F4;" d="M378.356,385.559c-16.851-28.824-56.48-26.461-89.282-12.864
								c-1.676,0.674-2.5,2.574-1.835,4.26c0.674,1.676,2.575,2.5,4.26,1.835c17.714-7.041,33.631-10.093,47.001-9.1
								c16.552,0.807,29.701,10.316,33.921,18.651C374.36,392.215,380.097,389.514,378.356,385.559z"/>
							<path style="fill:#FFFFFF;" d="M378.356,385.559c1.731,3.944-3.973,6.667-5.936,2.781
								c-4.24-8.359-17.384-17.841-33.921-18.65c-0.496-2.21-0.908-4.447-1.208-6.722
								C357.074,363.554,373.221,374.936,378.356,385.559z"/>
						</g>
						<g>
							<path style="fill:#F4E6F4;" d="M393.808,345.397c-23.527-23.691-61.304-11.486-89.661,9.886
								c-1.454,1.072-1.776,3.118-0.711,4.583c1.072,1.454,3.118,1.776,4.584,0.711c15.389-11.249,30.035-18.187,43.228-20.572
								c16.227-3.36,31.338,2.556,37.509,9.569C391.604,352.842,396.483,348.791,393.808,345.397z"/>
							<path style="fill:#FFFFFF;" d="M393.808,345.397c2.663,3.386-2.179,7.449-5.051,4.178
								c-6.197-7.033-21.295-12.923-37.509-9.569c-1.033-2.015-1.992-4.079-2.852-6.206
								C367.697,329.418,386.178,336.397,393.808,345.397z"/>
						</g>
					</g>
					<g>
						<g>
							<path style="fill:#F4E6F4;" d="M135.217,389.922c1.606,0.756,3.584,0.08,4.363-1.582c4.29-8.42,17.411-17.833,33.921-18.65
								c13.37-0.993,29.286,2.059,47.001,9.1c1.685,0.665,3.586-0.159,4.26-1.835c0.665-1.685-0.159-3.586-1.835-4.26
								c-26.111-9.844-47.962-14.227-70.417-4.336c-13.763,6.573-18.66,16.769-18.866,17.2
								C132.876,387.198,133.578,389.145,135.217,389.922z"/>
							<path style="fill:#FFFFFF;" d="M133.644,385.559c-1.731,3.944,3.973,6.667,5.936,2.781
								c4.24-8.359,17.384-17.841,33.921-18.65c0.496-2.21,0.908-4.447,1.208-6.722
								C154.926,363.554,138.779,374.936,133.644,385.559z"/>
						</g>
						<g>
							<path style="fill:#F4E6F4;" d="M118.623,350.015c1.366,1.134,3.45,0.974,4.62-0.44c6.211-7.058,21.37-12.919,37.509-9.569
								c13.193,2.384,27.839,9.322,43.228,20.572c1.465,1.065,3.512,0.743,4.584-0.711c1.065-1.465,0.743-3.512-0.711-4.584
								c-22.817-16.064-42.877-25.776-67.092-21.818c-14.97,2.92-22.262,11.567-22.57,11.932
								C117.038,346.792,117.231,348.853,118.623,350.015z"/>
							<path style="fill:#FFFFFF;" d="M118.192,345.397c-2.663,3.386,2.179,7.449,5.051,4.178
								c6.197-7.033,21.295-12.923,37.509-9.569c1.033-2.015,1.992-4.079,2.852-6.206
								C144.303,329.418,125.822,336.397,118.192,345.397z"/>
						</g>
					</g>
				</g>
				<g>
					<g>
						<path style="fill:#EA792E;" d="M242.962,371.014c0.638,17.927,25.739,17.663,26.081,0c0-5.827,4.724-10.551,10.551-10.551
							h3.689c7.202,0,13.041-5.839,13.041-13.041c0-7.202-5.838-13.041-13.041-13.041h-54.561c-7.202,0-13.041,5.838-13.041,13.041
							c0,7.202,5.838,13.041,13.041,13.041h3.689C238.238,360.463,242.962,365.187,242.962,371.014z"/>
					</g>
					<g>
						<path style="fill:#F39E22;" d="M277.092,352.244h-30.745c-11.834-0.453-11.846-17.404,0-17.863c0,0,30.745,0,30.745,0
							C288.926,334.835,288.938,351.785,277.092,352.244z"/>
					</g>
				</g>
				<g>
					<path style="fill:#FBCB74;" d="M283.283,304.352v30.026H256v-57.309C271.065,277.069,283.283,289.288,283.283,304.352z"/>
					<path style="fill:#F9C744;" d="M228.719,304.352v30.026h27.283v-57.309C240.938,277.069,228.719,289.288,228.719,304.352z"/>
				</g>
			</g>
			<g>
				<g>
					<g>
						<path style="fill:#DD5E26;" d="M347.288,257.994c-1.956-11.091-24.233-16.433-35.324-14.478
							c-11.091,1.956-18.496,12.532-16.541,23.623s12.532,18.496,23.623,16.541C330.137,281.724,349.243,269.084,347.288,257.994z"
							/>
					</g>
					<g>
						<path style="fill:#3E4E60;" d="M324.069,252.935l3.13,17.753c0.367,2.083-0.149,4.123-1.269,5.734
							c-3.797,5.535-12.71,3.637-13.841-3.069c0,0-3.13-17.753-3.13-17.753C307.567,245.557,321.893,242.95,324.069,252.935z"/>
					</g>
					<g>
						<path style="fill:#2E3140;" d="M324.069,252.935l3.13,17.753c0.37,2.127-0.162,4.216-1.35,5.839
							c-3.541-0.127-6.631-2.705-7.271-6.334l-3.13-17.753c-0.376-2.131,0.173-4.219,1.357-5.84
							C320.34,246.728,323.429,249.306,324.069,252.935z"/>
					</g>
					<g>
						<path style="fill:#FFFFFF;" d="M334.787,254.993c-0.697-3.955-4.469-6.596-8.423-5.898c-9.43,2.041-7.031,15.63,2.525,14.322
							C332.844,262.719,335.484,258.948,334.787,254.993z"/>
					</g>
				</g>
				<g>
					<g>
						<path style="fill:#DD5E26;" d="M165.712,257.994c1.956-11.091,24.233-16.433,35.324-14.478
							c11.091,1.956,18.496,12.532,16.541,23.623c-1.956,11.091-12.532,18.496-23.623,16.541
							C182.863,281.724,163.757,269.084,165.712,257.994z"/>
					</g>
					<g>
						<path style="fill:#3E4E60;" d="M204.04,255.599l-3.13,17.753c-0.367,2.083-1.55,3.824-3.153,4.954
							c-5.461,3.902-13.187-0.93-11.956-7.618c0,0,3.13-17.753,3.13-17.753C191.056,243.022,205.41,245.472,204.04,255.599z"/>
					</g>
					<g>
						<path style="fill:#2E3140;" d="M204.04,255.599l-3.13,17.753c-0.379,2.125-1.594,3.906-3.265,5.025
							c-3.284-1.331-5.306-4.81-4.666-8.439l3.13-17.753c0.376-2.131,1.605-3.905,3.273-5.023
							C202.658,248.491,204.68,251.97,204.04,255.599z"/>
					</g>
					<g>
						<path style="fill:#FFFFFF;" d="M198.35,258.544c0.697-3.955,4.469-6.596,8.423-5.898c9.43,2.041,7.031,15.63-2.525,14.322
							C200.294,266.27,197.653,262.499,198.35,258.544z"/>
					</g>
				</g>
			</g>
			<g>
				<path style="fill:#F9C744;" d="M307.741,192.416h-9.661c-8.044,0-14.565,6.521-14.565,14.565v12.951
					c0,8.044,6.521,14.565,14.565,14.565h9.661c8.044,0,14.565-6.521,14.565-14.565V206.98
					C322.306,198.937,315.785,192.416,307.741,192.416z"/>
				<path style="fill:#F39E22;" d="M213.92,192.416h-9.661c-8.044,0-14.565,6.521-14.565,14.565v12.951
					c0,8.044,6.521,14.565,14.565,14.565h9.661c8.044,0,14.565-6.521,14.565-14.565V206.98
					C228.485,198.937,221.964,192.416,213.92,192.416z"/>
			</g>
			<g>
				<path style="fill:#FBD9A3;" d="M276.511,162.161v36.264c0,11.328-9.183,20.511-20.511,20.511V141.65
					C267.326,141.65,276.511,150.836,276.511,162.161z"/>
				<path style="fill:#FBCB74;" d="M235.491,162.161v36.264c0,11.328,9.183,20.511,20.511,20.511V141.65
					C244.677,141.65,235.491,150.836,235.491,162.161z"/>
			</g>
			<g>
				<g>
					<path style="fill:#F9C744;" d="M353.679,188.925l-27.127-27.127c-4.103-4.103-4.103-10.755,0-14.859l17.063-17.063
						c9.055-9.055,24.128-7.576,31.25,3.067l10.627,15.881c5.393,8.059,4.338,18.807-2.519,25.664l-14.436,14.436
						C364.435,193.028,357.782,193.028,353.679,188.925z"/>
				</g>
				<g>
					<path style="fill:#F39E22;" d="M158.321,188.925l27.127-27.127c4.103-4.103,4.103-10.755,0-14.859l-17.063-17.063
						c-9.055-9.055-24.128-7.576-31.25,3.067l-10.627,15.881c-5.393,8.059-4.338,18.807,2.519,25.664l14.436,14.436
						C147.565,193.028,154.218,193.028,158.321,188.925z"/>
				</g>
			</g>
		</g>
		<g>
			<path style="fill:#DD5E26;" d="M166.723,80.764c-7.43-7.43-11.604-17.507-11.604-28.014c0,0,100.881,0,100.881,0v91.643h0v33.414
				c0,6.918-4.222,13.136-10.652,15.689l-110.076,43.688c-0.973,0.386-1.977,0.677-3,0.877c0,0,0,64.606,0,64.606h-22.063
				c-14.017,0-26.965-7.489-33.955-19.638l-6.874-11.947c-3.419-5.943-5.219-12.68-5.219-19.536v-30.191h0.008
				c0.016-1.545,0.24-3.121,0.712-4.696c0-6.65,5.391-12.042,12.042-12.042c31.358,0.229,53.524,2.22,78.079-21.519
				c0,0,25.656-25.656,25.656-25.656c17.327-17.327,17.326-45.418,0-62.745L166.723,80.764z"/>
			<path style="fill:#EA792E;" d="M345.28,80.764c7.43-7.43,11.604-17.507,11.604-28.014H256.003v91.643h0v33.414
				c0,6.918,4.222,13.136,10.652,15.689l110.076,43.688c0.973,0.386,1.977,0.677,3,0.876v64.606h22.064
				c14.017,0,26.965-7.489,33.955-19.638l6.874-11.947c3.419-5.943,5.219-12.68,5.219-19.536v-30.191h-0.008
				c-0.016-1.545-0.24-3.121-0.712-4.696c0-6.65-5.391-12.042-12.042-12.042c-31.331,0.237-53.565,2.202-78.079-21.518
				c0,0-25.656-25.656-25.656-25.656c-17.326-17.326-17.326-45.418,0-62.745L345.28,80.764z"/>
		</g>
		<g>
			<path style="fill:#EA792E;" d="M256,467.256h67.513c10.446,0,18.915-8.468,18.915-18.915c0-10.446-8.468-18.915-18.915-18.915
				H256V467.256z"/>
			<path style="fill:#DD5E26;" d="M256.003,429.427H188.49c-10.446,0-18.915,8.468-18.915,18.915
				c0,10.446,8.468,18.915,18.915,18.915h67.513V429.427z"/>
		</g>
	</g>
</g>
</svg>
