<?xml version="1.0" encoding="iso-8859-1"?>
<!-- Generator: Adobe Illustrator 22.0.1, SVG Export Plug-In . SVG Version: 6.00 Build 0)  -->
<svg version="1.1" id="Icons" xmlns="http://www.w3.org/2000/svg" xmlns:xlink="http://www.w3.org/1999/xlink" x="0px" y="0px"
	 viewBox="0 0 512 512" style="enable-background:new 0 0 512 512;" xml:space="preserve">
<g>
	<circle style="fill:#53B976;" cx="256" cy="256" r="256"/>
	<g>
		<g>
			<g>
				<path style="fill:#DD8C29;" d="M459.325,345.364v27.62c0,4.34-0.63,8.54-1.81,12.5c-5.377,18.046-22.1,31.21-41.9,31.21
					c0,0-281.02,0-281.02,0c-19.8,0-36.52-13.16-41.9-31.21c-1.18-3.96-1.81-8.16-1.81-12.5v-27.62c0-7.21,1.74-14.01,4.83-20
					c7.388-14.391,22.479-23.774,38.88-23.71c0,0,281.02,0,281.02,0c5.51,0,10.78,1.02,15.63,2.89
					C447.985,310.894,459.418,327.291,459.325,345.364z"/>
				<path style="fill:#F39E22;" d="M454.495,325.364c-13.36,42.33-52.95,73.03-99.7,73.03h-159.38
					c-46.357-0.048-86.032-30.082-99.7-73.03c7.26-14.08,21.95-23.71,38.88-23.71h281.02
					C432.545,301.654,447.235,311.284,454.495,325.364z"/>
				<path style="fill:#F9C744;" d="M427.375,335.144c0,8.22-6.66,14.88-14.88,14.88h-274.78
					c-12.188,0.081-19.274-14.243-11.87-23.86c2.72-3.59,7.02-5.91,11.87-5.91h274.78
					C420.703,320.254,427.376,326.93,427.375,335.144z"/>
			</g>
			<g>
				<g>
					<path style="fill:#DEB36F;" d="M275.105,371.937c-12.361,0-22.381,10.02-22.381,22.381v22.381h44.761v-22.381
						C297.486,381.957,287.466,371.937,275.105,371.937z"/>
					<path style="fill:#DEB36F;" d="M135.645,394.314v22.38c-20.116,0.476-37.51-12.813-42.95-31.21
						C102.435,363.464,135.282,369.897,135.645,394.314z"/>
					<path style="fill:#DEB36F;" d="M167.209,371.937c-12.361,0-22.381,10.02-22.381,22.381v22.381h44.761v-22.381
						C189.59,381.957,179.57,371.937,167.209,371.937z"/>
					<path style="fill:#DEB36F;" d="M221.157,371.937c-12.361,0-22.381,10.02-22.381,22.381v22.381h44.761v-22.381
						C243.538,381.957,233.518,371.937,221.157,371.937z"/>
					<path style="fill:#DEB36F;" d="M329.053,371.937c-12.361,0-22.381,10.02-22.381,22.381v22.381h44.761v-22.381
						C351.434,381.957,341.413,371.937,329.053,371.937z"/>
					<path style="fill:#DEB36F;" d="M383.001,371.937c-12.361,0-22.381,10.02-22.381,22.381v22.381h44.761v-22.381
						C405.382,381.957,395.361,371.937,383.001,371.937z"/>
					<path style="fill:#DEB36F;" d="M457.515,385.484c-5.437,18.392-22.835,31.686-42.95,31.21v-22.38
						C414.931,369.886,447.786,363.474,457.515,385.484z"/>
				</g>
				<g>
					<g>
						<path style="fill:#FBD9A3;" d="M297.485,394.314v4.08h-44.76v-4.08c0-12.36,10.02-22.38,22.38-22.38
							S297.485,381.954,297.485,394.314z"/>
						<path style="fill:#FBD9A3;" d="M189.585,394.314v3.91c-15.57-0.85-30.22-5.11-43.23-12.05
							C155.525,363.465,189.185,369.488,189.585,394.314z"/>
						<path style="fill:#FBD9A3;" d="M243.535,394.314v4.08h-44.76v-4.08c0-12.36,10.02-22.38,22.38-22.38
							S243.535,381.954,243.535,394.314z"/>
						<path style="fill:#FBD9A3;" d="M351.435,394.314v4.08h-44.76v-4.08c0-12.36,10.02-22.38,22.38-22.38
							S351.435,381.954,351.435,394.314z"/>
						<path style="fill:#FBD9A3;" d="M403.855,386.184c-13.02,6.93-27.67,11.19-43.23,12.05v-3.92
							C361.032,369.468,394.696,363.478,403.855,386.184z"/>
					</g>
					<path style="fill:#FBD9A3;" d="M189.585,394.314v3.91c-15.57-0.85-30.22-5.11-43.23-12.05
						C155.525,363.465,189.185,369.488,189.585,394.314z"/>
					<path style="fill:#FBD9A3;" d="M243.535,394.314v4.08h-44.76v-4.08c0-12.36,10.02-22.38,22.38-22.38
						S243.535,381.954,243.535,394.314z"/>
					<path style="fill:#FBD9A3;" d="M297.485,394.314v4.08h-44.76v-4.08c0-12.36,10.02-22.38,22.38-22.38
						S297.485,381.954,297.485,394.314z"/>
					<path style="fill:#FBD9A3;" d="M351.435,394.314v4.08h-44.76v-4.08c0-12.36,10.02-22.38,22.38-22.38
						S351.435,381.954,351.435,394.314z"/>
					<path style="fill:#FBD9A3;" d="M403.855,386.184c-13.02,6.93-27.67,11.19-43.23,12.05v-3.92
						C361.032,369.468,394.696,363.478,403.855,386.184z"/>
				</g>
			</g>
			<g>
				<g>
					<path style="fill:#B26E2B;" d="M158.205,301.654c0.512,16.691-23.272,16.704-22.75,0c-7.045-0.122-13.887,1.434-19.85,4.33
						c5.459,39.958,62.564,36.183,62.6-4.33H158.205z"/>
					<path style="fill:#B26E2B;" d="M237.525,301.654v32.15c0,6.27-5.1,11.37-11.37,11.37c-6.27,0-11.37-5.1-11.37-11.37v-32.15h-20
						v32.15c0,17.3,14.07,31.37,31.37,31.37s31.37-14.07,31.37-31.37v-32.15H237.525z"/>
					<path style="fill:#B26E2B;" d="M322.025,301.654v24.28c0,6.27-5.1,11.37-11.37,11.37c-6.27,0-11.37-5.1-11.37-11.37v-24.28h-20
						v24.28c0,17.3,14.07,31.37,31.37,31.37s31.37-14.07,31.37-31.37v-24.28H322.025z"/>
					<path style="fill:#B26E2B;" d="M415.615,301.654h-4.32c0.531,16.699-23.276,16.689-22.74,0h-20
						c0.18,41.421,58.843,43.975,62.69,2.89C426.395,302.674,421.125,301.654,415.615,301.654z"/>
				</g>
				<g>
					<path style="fill:#C68132;" d="M137.715,320.254c-4.85,0-9.15,2.32-11.87,5.91c13.774,12.86,37.013,9.757,47.08-5.91H137.715z"
						/>
					<path style="fill:#C68132;" d="M237.525,320.254v13.55c0,6.27-5.1,11.37-11.37,11.37c-6.27,0-11.37-5.1-11.37-11.37v-13.55h-20
						v13.55c0,5.93,1.66,11.49,4.53,16.22h53.68c2.87-4.73,4.53-10.29,4.53-16.22v-13.55H237.525z"/>
					<path style="fill:#C68132;" d="M322.025,320.254v5.68c0,6.27-5.1,11.37-11.37,11.37c-6.27,0-11.37-5.1-11.37-11.37v-5.68h-20
						v5.68c0,9.67,4.4,18.33,11.3,24.09h40.14c6.9-5.76,11.3-14.42,11.3-24.09v-5.68H322.025z"/>
					<path style="fill:#C68132;" d="M412.495,320.254h-38.66c10.76,16.619,35.453,18.809,48.9,4.1
						C420.075,321.814,416.465,320.254,412.495,320.254z"/>
				</g>
			</g>
		</g>
		<g>
			<g>
				<path style="fill:#DD8C29;" d="M136.233,247.88c0.277,6.818-0.926,24.034,1.364,30.244c4.054,13.603,16.66,23.527,31.586,23.527
					h211.844c14.926,0,27.53-9.921,31.586-23.527c0.89-2.985,1.364-6.151,1.364-9.423V247.88c0-5.435-1.312-10.561-3.641-15.077
					c-5.569-10.849-16.946-17.922-29.309-17.873c0,0-211.844,0-211.844,0c-4.154,0-8.126,0.769-11.782,2.179
					C144.781,221.895,136.163,234.255,136.233,247.88z"/>
				<path style="fill:#F39E22;" d="M139.874,232.803c10.071,31.91,39.916,55.053,75.158,55.053h120.147
					c34.946-0.036,64.854-22.677,75.158-55.053c-5.473-10.614-16.547-17.873-29.309-17.873H169.183
					C156.421,214.929,145.347,222.189,139.874,232.803z"/>
				<path style="fill:#F9C744;" d="M160.318,240.175c0,6.197,5.021,11.217,11.217,11.217h207.14
					c6.196-0.003,11.214-5.021,11.217-11.217c0.01-6.145-4.986-11.226-11.217-11.225c0,0-207.14,0-207.14,0
					C165.347,228.951,160.317,233.983,160.318,240.175z"/>
			</g>
			<g>
				<g>
					<path style="fill:#DEB36F;" d="M275.105,267.911c9.318,0,16.871,7.554,16.871,16.871v16.871h-33.743v-16.871
						C258.234,275.465,265.787,267.911,275.105,267.911z"/>
					<path style="fill:#DEB36F;" d="M380.235,284.78v16.871c15.164,0.359,28.277-9.659,32.377-23.527
						C405.271,261.524,380.509,266.373,380.235,284.78z"/>
					<path style="fill:#DEB36F;" d="M356.441,267.911c9.318,0,16.871,7.554,16.871,16.871v16.871H339.57v-16.871
						C339.57,275.465,347.123,267.911,356.441,267.911z"/>
					<path style="fill:#DEB36F;" d="M315.773,267.911c9.318,0,16.871,7.554,16.871,16.871v16.871h-33.743v-16.871
						C298.902,275.465,306.455,267.911,315.773,267.911z"/>
					<path style="fill:#DEB36F;" d="M234.437,267.911c9.318,0,16.871,7.554,16.871,16.871v16.871h-33.743v-16.871
						C217.566,275.465,225.119,267.911,234.437,267.911z"/>
					<path style="fill:#DEB36F;" d="M193.769,267.911c9.318,0,16.871,7.554,16.871,16.871v16.871h-33.743v-16.871
						C176.898,275.465,184.451,267.911,193.769,267.911z"/>
					<path style="fill:#DEB36F;" d="M137.597,278.124c4.099,13.865,17.214,23.886,32.377,23.527V284.78
						C169.699,266.365,144.932,261.532,137.597,278.124z"/>
				</g>
				<g>
					<g>
						<path style="fill:#FBD9A3;" d="M258.234,284.78v3.076h33.742v-3.076c0-9.317-7.553-16.871-16.871-16.871
							S258.234,275.463,258.234,284.78z"/>
						<path style="fill:#FBD9A3;" d="M339.573,284.78v2.948c11.737-0.641,22.781-3.852,32.588-9.084
							C365.249,261.524,339.875,266.065,339.573,284.78z"/>
						<path style="fill:#FBD9A3;" d="M298.904,284.78v3.076h33.742v-3.076c0-9.317-7.553-16.871-16.871-16.871
							C306.457,267.909,298.904,275.463,298.904,284.78z"/>
						<path style="fill:#FBD9A3;" d="M217.565,284.78v3.076h33.742v-3.076c0-9.317-7.553-16.871-16.871-16.871
							S217.565,275.463,217.565,284.78z"/>
						<path style="fill:#FBD9A3;" d="M178.048,278.651c9.815,5.224,20.859,8.435,32.588,9.084v-2.955
							C210.33,266.05,184.953,261.534,178.048,278.651z"/>
					</g>
					<path style="fill:#FBD9A3;" d="M339.573,284.78v2.948c11.737-0.641,22.781-3.852,32.588-9.084
						C365.249,261.524,339.875,266.065,339.573,284.78z"/>
					<path style="fill:#FBD9A3;" d="M298.904,284.78v3.076h33.742v-3.076c0-9.317-7.553-16.871-16.871-16.871
						C306.457,267.909,298.904,275.463,298.904,284.78z"/>
					<path style="fill:#FBD9A3;" d="M258.234,284.78v3.076h33.742v-3.076c0-9.317-7.553-16.871-16.871-16.871
						S258.234,275.463,258.234,284.78z"/>
					<path style="fill:#FBD9A3;" d="M217.565,284.78v3.076h33.742v-3.076c0-9.317-7.553-16.871-16.871-16.871
						S217.565,275.463,217.565,284.78z"/>
					<path style="fill:#FBD9A3;" d="M178.048,278.651c9.815,5.224,20.859,8.435,32.588,9.084v-2.955
						C210.33,266.05,184.953,261.534,178.048,278.651z"/>
				</g>
			</g>
			<g>
				<g>
					<path style="fill:#B26E2B;" d="M348.152,214.929c0.034,30.559,43.088,33.367,47.19,3.264
						c-4.495-2.183-9.653-3.356-14.964-3.264c0.437,12.579-17.586,12.554-17.15,0H348.152z"/>
					<path style="fill:#B26E2B;" d="M288.357,214.929v24.236c0,13.041,10.607,23.648,23.648,23.648s23.648-10.607,23.648-23.648
						v-24.236h-15.077v24.236c0,4.727-3.845,8.571-8.571,8.571c-4.727,0-8.571-3.845-8.571-8.571v-24.236H288.357z"/>
					<path style="fill:#B26E2B;" d="M224.658,214.929v18.303c0,13.041,10.607,23.648,23.648,23.648s23.648-10.606,23.648-23.648
						v-18.303h-15.077v18.303c0,4.727-3.845,8.571-8.571,8.571c-4.727,0-8.571-3.845-8.571-8.571v-18.303H224.658z"/>
					<path style="fill:#B26E2B;" d="M157.401,217.108c2.912,30.991,47.13,29.027,47.258-2.179h-15.077
						c0.421,12.58-17.566,12.572-17.142,0C167.367,214.761,161.959,215.238,157.401,217.108z"/>
				</g>
				<g>
					<path style="fill:#C68132;" d="M352.132,228.951c7.593,11.815,25.111,14.146,35.491,4.455c-2.05-2.706-5.292-4.455-8.948-4.455
						H352.132z"/>
					<path style="fill:#C68132;" d="M288.357,228.951v10.215c0,4.47,1.251,8.662,3.415,12.227h40.466
						c2.164-3.566,3.415-7.757,3.415-12.227v-10.215h-15.077v10.215c0,4.727-3.845,8.571-8.571,8.571
						c-4.727,0-8.571-3.845-8.571-8.571v-10.215H288.357z"/>
					<path style="fill:#C68132;" d="M224.658,228.951v4.282c0,7.29,3.317,13.818,8.518,18.16h30.259
						c5.201-4.342,8.518-10.87,8.518-18.16v-4.282h-15.077v4.282c0,4.727-3.845,8.571-8.571,8.571c-4.727,0-8.571-3.845-8.571-8.571
						v-4.282H224.658z"/>
					<path style="fill:#C68132;" d="M163.816,232.041c10.142,11.092,28.756,9.432,36.863-3.091h-29.143
						C168.542,228.951,165.821,230.127,163.816,232.041z"/>
				</g>
			</g>
		</g>
		<g>
			<path style="fill:#F39E22;" d="M380.375,214.934h-59.8c0-31.04-5.05-57.92-52.5-57.92c2.375-12.519,8.116-42.771,10.43-54.93
				C344.537,102.601,381.814,150.069,380.375,214.934z"/>
			<path style="fill:#DD8C29;" d="M355.867,214.934h-35.292c0-31.04-5.05-57.92-52.5-57.92l6.75-35.57
				C326.404,127.881,351.154,163.111,355.867,214.934z"/>
			<path style="fill:#B26E2B;" d="M327.885,113.464l-4.37,10.4c-1.83,4.36-6.86,6.41-11.22,4.58s-6.41-6.86-4.58-11.22l4.24-10.1
				c-5.24-1.59-10.27-2.7-14.89-3.46l-3.25,7.72c-8.515,19.871,12.832,39.973,32.13,30.419c4.99-2.419,9.16-6.59,11.47-12.1
				l3.5-8.32C336.665,118.274,332.285,115.654,327.885,113.464z"/>
			<path style="fill:#B26E2B;" d="M375.725,175.014l-9.77,3.55c-4.45,1.62-9.37-0.68-10.99-5.12s0.68-9.37,5.13-10.99l10.14-3.68
				c-2.09-4.91-4.46-9.39-7.05-13.49l-8.25,3c-5.53,2.01-9.87,5.9-12.54,10.68c-10.702,18.851,8.344,41.326,28.71,33.77
				c0,0,7.59-2.76,7.59-2.76C377.935,184.684,376.945,179.694,375.725,175.014z"/>
		</g>
		<g>
			<g>
				<g>
					<path style="fill:#DD8C29;" d="M278.965,136.474c-2.184,16.665-17.019,29.471-33.71,29.32c0,0-105.14,0-105.14,0
						c-18.46,0-33.5-14.7-34.02-33.05c-0.419-12.407,6.338-24.423,17.1-30.5c3-1.73,6.3-3.01,9.83-3.76l29.06-6.2l76.07-16.22
						c21.18-4.52,41.13,11.63,41.13,33.28C279.245,112.914,279.525,133.394,278.965,136.474z"/>
				</g>
				<g>
					<path style="fill:#F39E22;" d="M279.285,109.344v22.42c0.07,9.63-4.28,19.06-11.21,25.25c-3.81,3.44-8.41,6.04-13.49,7.48
						l-103.22-17.17c-20.91-3.3-34.32-24.96-28.17-45.08c3-1.73,6.3-3.01,9.83-3.76l90.59-19.32l14.54-3.1
						C259.335,71.544,279.285,87.694,279.285,109.344z"/>
				</g>
				<g>
					<path style="fill:#DEB36F;" d="M268.075,157.014c-6.241,5.625-14.352,8.792-22.82,8.78h-105.14c-18.46,0-33.5-14.7-34.02-33.05
						c19.495-2.67,89.421-12.207,110.01-15.02c21.4-3.001,41.91,9.976,48.72,29.92C264.825,147.644,268.075,157.014,268.075,157.014
						z"/>
				</g>
				<g>
					<path style="fill:#FBD9A3;" d="M268.075,157.014c-5.83,5.281-13.865,7.419-21.623,6.127l-95.087-15.817
						c-10.92-1.82-19.85-8.45-24.94-17.36c1.766-0.28,85.555-11.647,89.679-12.24c21.401-3.001,41.91,9.976,48.721,29.92
						C264.825,147.644,268.075,157.014,268.075,157.014z"/>
				</g>
				<g>
					<path style="fill:#F9C744;" d="M279.285,109.344v7.96c-25.36-0.02-47.02-15.83-55.67-38.14l14.54-3.1
						C259.335,71.544,279.285,87.694,279.285,109.344z"/>
				</g>
				<g>
					<path style="fill:#F9C744;" d="M162.085,92.284c-7.563,14.393-30.32,22.801-48.81,18.58c4.841-6.293,11.889-10.711,19.75-12.38
						L162.085,92.284z"/>
				</g>
			</g>
			<g>
				<path style="fill:#3E4E60;" d="M123.507,133.083c-2.577-2.577-2.577-6.756,0-9.333l8.023-8.023
					c6.356-5.977,15.312,2.974,9.333,9.333c0,0-8.023,8.023-8.023,8.023C130.263,135.66,126.084,135.66,123.507,133.083z"/>
			</g>
			<g>
				<path style="fill:#DD8C29;" d="M157.873,125.664c24.858-3.384,55.767-7.586,58.232-7.94c5.467-0.767,10.873-0.485,16.01,0.683
					c2.767-15.356-11.229-29.259-26.617-26.273c-3.65,0.871-31.941,5.267-34.65,6.933
					C160.849,103.351,154.952,114.741,157.873,125.664z"/>
				<g>
					<g>
						<path style="fill:#53B976;" d="M216.76,113.289c1.35,7.207-3.442,14.332-10.82,15.67c0,0-17.471,3.192-17.471,3.192
							c-7.321,1.335-14.331-3.512-15.662-10.832c-1.384-7.34,3.673-14.418,10.822-15.66c0,0,17.471-3.192,17.471-3.192
							C208.415,101.131,215.431,105.98,216.76,113.289z"/>
					</g>
					<g>
						<path style="fill:#78C795;" d="M216.76,113.289c0.442,2.42,0.208,4.811-0.558,6.964c-1.485,0.95-18.377,3.598-20.428,4.088
							c-10.054,1.991-18.677-8.271-15.102-17.786c1.496-0.958,18.37-3.592,20.428-4.088
							C208.415,101.131,215.431,105.98,216.76,113.289z"/>
					</g>
					<g>
						<path style="fill:#3E4E60;" d="M200.824,109.746l2.282,12.493c0.456,2.499-1.21,5.023-3.787,5.48c0,0-5.096,0.931-5.096,0.931
							c-2.558,0.467-5.013-1.229-5.48-3.787l-2.282-12.493c-0.467-2.558,1.231-5.003,3.789-5.47l5.096-0.931
							C197.904,105.501,200.357,107.188,200.824,109.746z"/>
					</g>
					<g>
						<path style="fill:#2E3140;" d="M200.824,109.746l2.282,12.493c0.047,0.256,0.072,0.505,0.066,0.75l-4.555,0.832
							c-2.548,0.465-5.003-1.231-5.468-3.779l-2.284-12.503c-0.045-0.246-0.07-0.495-0.074-0.739l4.555-0.832
							C197.904,105.501,200.357,107.188,200.824,109.746z"/>
					</g>
					<g>
						<path style="fill:#FFFFFF;" d="M206.001,109.004l-10.281,1.878c-5.395,1.157-3.959,9.037,1.5,8.213
							c0,0,10.281-1.878,10.281-1.878C212.896,116.059,211.46,108.18,206.001,109.004z"/>
					</g>
				</g>
			</g>
			<g>
				<path style="fill:#B26E2B;" d="M179.883,156.996c-10.84,0-17.829-1.567-25.227-3.227c-9.953-2.232-21.233-4.762-45.682-4.762
					c-4.567-0.119-4.677-6.844,0-7c25.225,0,36.907,2.62,47.214,4.932c7.314,1.64,13.63,3.057,23.695,3.057
					c5.192,0,14.656-5.768,23.808-11.346c21.527-13.583,49.383-28.931,60.772-0.188c0.709,1.798-0.174,3.831-1.972,4.539
					c-1.798,0.71-3.831-0.173-4.54-1.972c-2.401-6.089-5.659-9.751-9.962-11.196C230.229,123.44,197.742,156.263,179.883,156.996z"
					/>
			</g>
			<g>
				<path style="fill:#EE6781;" d="M110.425,148.674c-6.901,3.269-12.413,5.93-18.47,9.24c-13.719,12.892-8.11,48.788-4.329,61.16
					c1.196,4.423-5.275,6.384-6.711,1.97c-3.538-11.044-7.713-39.775-1.65-55.1c-11.46,8.68-17.13,18.65-18.93,35.48
					c-0.45,4.18-0.66,8.79-0.66,13.9c0,1.94-1.57,3.5-3.5,3.5c-1.94,0-3.5-1.56-3.5-3.5c0-5.89,0.28-11.18,0.87-15.98
					c3.09-25.32,14.69-36.83,38.44-49.36c4.67-2.47,9.82-4.98,15.46-7.64c1.74-0.83,3.83-0.08,4.66,1.67
					C112.925,145.764,112.175,147.844,110.425,148.674z"/>
				<path style="fill:#F4829B;" d="M96.255,155.624c-13.806,5.453-13.957,29.608-12.54,42.36c-2.12,1.14-4.39,2.07-6.77,2.75
					c-1.316-11.053-1.421-24.052,2.32-34.79c-12.182,8.973-17.464,20.551-18.93,35.48c-2.37-0.46-4.64-1.17-6.79-2.08
					c2.532-24.761,16.018-37.932,38.44-49.36C93.615,151.704,95.055,153.594,96.255,155.624z"/>
				<path style="fill:#FF9FB4;" d="M89.445,161.004c-3.96,5.75-5.69,13.33-6.18,21.1c-2.09,1.41-4.49,2.53-7.13,3.31
					c0.14-6.63,1.01-13.38,3.13-19.47c-7.55,5.72-12.59,12-15.66,20.43c-2.41-0.3-4.7-0.89-6.8-1.72
					c4.56-13.15,13.14-21.73,26.75-29.94C86.055,156.454,88.075,158.594,89.445,161.004z"/>
			</g>
		</g>
	</g>
</g>
</svg>
