<?xml version="1.0" encoding="iso-8859-1"?>
<!-- Generator: Adobe Illustrator 22.0.1, SVG Export Plug-In . SVG Version: 6.00 Build 0)  -->
<svg version="1.1" id="Icons" xmlns="http://www.w3.org/2000/svg" xmlns:xlink="http://www.w3.org/1999/xlink" x="0px" y="0px"
	 viewBox="0 0 512 512" style="enable-background:new 0 0 512 512;" xml:space="preserve">
<g>
	<circle style="fill:#EE6781;" cx="256" cy="256" r="256"/>
	<g>
		<g>
			<g>
				<g>
					<path style="fill:#C44A1A;" d="M287.79,309.82c0,1.94-0.39,3.78-1.08,5.47c-0.47,1.13-1.09,2.18-1.81,3.15
						c-2.61,3.45-6.75,5.68-11.41,5.68h-34.98c-3.95,0-7.53-1.6-10.11-4.19c-2.59-2.59-4.19-6.16-4.19-10.11
						c0-7.38,5.6-13.46,12.79-14.22c0.49-0.05,1-0.08,1.51-0.08h34.98c3.95,0,7.53,1.6,10.11,4.19
						C286.19,302.3,287.79,305.88,287.79,309.82z"/>
					<path style="fill:#DD5E26;" d="M287.79,309.82c0,1.94-0.39,3.78-1.08,5.47h-34.25c-3.95,0-7.53-1.6-10.11-4.19
						c-2.59-2.59-4.19-6.16-4.19-10.11c0-1.94,0.39-3.78,1.09-5.47h34.24c3.95,0,7.53,1.6,10.11,4.19
						C286.19,302.3,287.79,305.88,287.79,309.82z"/>
					<path style="fill:#EA792E;" d="M275.718,309.82h-23.336c-2.876,0-5.207-2.331-5.207-5.207l0,0c0-2.876,2.331-5.207,5.207-5.207
						h23.336c2.876,0,5.207,2.331,5.207,5.207l0,0C280.925,307.489,278.594,309.82,275.718,309.82z"/>
				</g>
				<g>
					<path style="fill:#C44A1A;" d="M283.557,336.516c0,1.682-0.338,3.277-0.936,4.742c-0.407,0.979-0.945,1.889-1.569,2.73
						c-2.262,2.991-5.851,4.924-9.891,4.924h-30.322c-3.424,0-6.527-1.387-8.764-3.632c-2.245-2.245-3.632-5.34-3.632-8.764
						c0-6.397,4.854-11.668,11.087-12.326c0.425-0.044,0.867-0.069,1.309-0.069h30.322c3.424,0,6.527,1.387,8.764,3.632
						C282.17,329.997,283.557,333.101,283.557,336.516z"/>
					<path style="fill:#DD5E26;" d="M283.557,336.516c0,1.682-0.338,3.277-0.936,4.742h-29.689c-3.424,0-6.527-1.387-8.764-3.632
						c-2.245-2.245-3.632-5.34-3.632-8.764c0-1.682,0.338-3.277,0.945-4.742h29.681c3.424,0,6.527,1.387,8.764,3.632
						C282.17,329.997,283.557,333.101,283.557,336.516z"/>
					<path style="fill:#EA792E;" d="M273.092,336.516h-20.229c-2.493,0-4.514-2.021-4.514-4.514v0c0-2.493,2.021-4.514,4.514-4.514
						h20.229c2.493,0,4.514,2.021,4.514,4.514v0C277.606,334.495,275.585,336.516,273.092,336.516z"/>
				</g>
				<g>
					<path style="fill:#C44A1A;" d="M280.799,360.067c0,1.513-0.304,2.949-0.843,4.267c-0.367,0.881-0.85,1.7-1.412,2.457
						c-2.036,2.691-5.266,4.431-8.901,4.431h-27.287c-3.081,0-5.874-1.248-7.887-3.269c-2.02-2.021-3.269-4.805-3.269-7.887
						c0-5.757,4.369-10.5,9.977-11.093c0.382-0.039,0.78-0.062,1.178-0.062h27.287c3.081,0,5.874,1.248,7.887,3.269
						C279.551,354.201,280.799,356.994,280.799,360.067z"/>
					<path style="fill:#DD5E26;" d="M280.799,360.067c0,1.513-0.304,2.949-0.843,4.267h-26.718c-3.081,0-5.874-1.248-7.887-3.269
						c-2.02-2.021-3.269-4.805-3.269-7.887c0-1.514,0.304-2.949,0.85-4.267h26.71c3.081,0,5.874,1.248,7.887,3.269
						C279.551,354.201,280.799,356.994,280.799,360.067z"/>
					<path style="fill:#EA792E;" d="M271.382,360.067h-18.204c-2.243,0-4.062-1.819-4.062-4.062l0,0
						c0-2.243,1.819-4.062,4.062-4.062h18.204c2.243,0,4.062,1.819,4.062,4.062l0,0
						C275.444,358.249,273.625,360.067,271.382,360.067z"/>
				</g>
				<g>
					<path style="fill:#C44A1A;" d="M277.73,380.997c0,1.326-0.267,2.584-0.738,3.739c-0.321,0.772-0.745,1.49-1.237,2.153
						c-1.784,2.358-4.614,3.883-7.799,3.883h-23.911c-2.7,0-5.147-1.094-6.911-2.864c-1.77-1.771-2.864-4.211-2.864-6.911
						c0-5.045,3.828-9.201,8.743-9.72c0.335-0.034,0.684-0.055,1.032-0.055h23.911c2.7,0,5.147,1.094,6.911,2.864
						C276.637,375.857,277.73,378.304,277.73,380.997z"/>
					<path style="fill:#DD5E26;" d="M277.73,380.997c0,1.326-0.267,2.584-0.738,3.739H253.58c-2.7,0-5.147-1.094-6.911-2.864
						c-1.77-1.771-2.864-4.211-2.864-6.911c0-1.326,0.267-2.584,0.745-3.739h23.405c2.7,0,5.147,1.094,6.911,2.864
						C276.637,375.857,277.73,378.304,277.73,380.997z"/>
					<path style="fill:#EA792E;" d="M269.478,380.997h-15.951c-1.966,0-3.559-1.594-3.559-3.56l0,0c0-1.966,1.594-3.56,3.559-3.56
						h15.951c1.966,0,3.56,1.594,3.56,3.56l0,0C273.038,379.404,271.444,380.997,269.478,380.997z"/>
				</g>
				<g>
					<path style="fill:#C44A1A;" d="M275.64,399.607c0,1.199-0.241,2.336-0.667,3.38c-0.29,0.698-0.673,1.347-1.118,1.946
						c-1.612,2.132-4.17,3.509-7.049,3.509h-21.611c-2.44,0-4.652-0.989-6.246-2.589c-1.6-1.6-2.589-3.806-2.589-6.246
						c0-4.559,3.46-8.316,7.902-8.785c0.303-0.031,0.618-0.049,0.933-0.049h21.611c2.44,0,4.652,0.989,6.246,2.589
						C274.652,394.961,275.64,397.173,275.64,399.607z"/>
					<path style="fill:#DD5E26;" d="M275.64,399.607c0,1.199-0.241,2.336-0.667,3.38h-21.16c-2.44,0-4.652-0.989-6.246-2.589
						c-1.6-1.6-2.589-3.806-2.589-6.246c0-1.199,0.241-2.335,0.673-3.38h21.154c2.44,0,4.652,0.989,6.246,2.589
						C274.652,394.961,275.64,397.173,275.64,399.607z"/>
					<path style="fill:#EA792E;" d="M268.182,399.607h-14.417c-1.777,0-3.217-1.44-3.217-3.217v0c0-1.777,1.44-3.217,3.217-3.217
						h14.417c1.777,0,3.217,1.44,3.217,3.217v0C271.399,398.167,269.959,399.607,268.182,399.607z"/>
				</g>
			</g>
			<g>
				<path style="fill:#C44A1A;" d="M228.884,471.117l37.045-46.902c2.829-3.578,3.472-8.252,2.022-12.318
					c-0.615-1.761-1.633-3.401-3.026-4.794c-4.625-4.625-11.985-5.056-17.112-1.004l-46.902,37.045
					c-6.053,4.78-6.583,13.781-1.124,19.24l9.857,9.857C215.103,477.7,224.104,477.17,228.884,471.117z"/>
				<path style="fill:#DD5E26;" d="M228.884,471.117l37.045-46.902c2.829-3.578,3.472-8.252,2.022-12.318
					c-4.066-1.45-8.733-0.799-12.318,2.022l-46.902,37.045c-6.053,4.78-6.576,13.789-1.117,19.247l2.029,2.029
					C215.103,477.7,224.104,477.17,228.884,471.117z"/>
				<path style="fill:#EA792E;" d="M213.536,466.265L213.536,466.265c2.546,2.546,6.743,2.3,8.975-0.525l27.279-30.272
					c1.221-1.546,1.092-3.762-0.302-5.155l0,0c-1.393-1.393-3.609-1.523-5.155-0.302l-30.272,27.279
					C211.236,459.521,210.99,463.719,213.536,466.265z"/>
			</g>
			<g>
				<path style="fill:#C44A1A;" d="M323.79,452.3c-0.06,0.08-0.14,0.16-0.21,0.23l-10.01,10.01c-14.88,14.88-35.06,23.24-56.1,23.24
					h-27.42c-9.09,0-16.46-7.37-16.46-16.46c0-7.7,5.33-14.29,12.71-16.02c0.48-0.11,0.97-0.2,1.47-0.27l14.89-2.08l74.9-10.48
					c1.56-0.22,2.98,0.05,4.18,0.65C325.65,443.09,327.23,448.59,323.79,452.3z"/>
				<path style="fill:#DD5E26;" d="M323.79,452.3c-12.16,9.46-27.18,14.68-42.75,14.68h-24.05c-7.97,0-14.43-6.46-14.43-14.43
					c0-0.54,0.03-1.07,0.1-1.6l74.9-10.48c1.56-0.22,2.98,0.05,4.18,0.65C325.65,443.09,327.23,448.59,323.79,452.3z"/>
				<path style="fill:#EA792E;" d="M269.219,461.771l29.047-4.063c2.446-0.342,4.266-2.434,4.266-4.904v0
					c0-3.008-2.659-5.321-5.638-4.904l-29.047,4.063c-2.446,0.342-4.266,2.434-4.266,4.904l0,0
					C263.581,459.875,266.241,462.188,269.219,461.771z"/>
			</g>
			<g>
				<path style="fill:#2E3140;" d="M325.58,442.19c0,1.09-0.22,2.16-0.65,3.15c-0.87,2.09-2.62,3.81-4.97,4.57
					c-0.83,0.27-1.67,0.4-2.5,0.4c-3.63,0-6.96-2.46-7.88-6.19c-2.34-9.55-0.53-19.64,4.97-27.78l4.89-7.23
					c0.8-1.19,2.25-1.15,3.12-0.42c0.54,0.45,0.86,1.18,0.67,2.04l-1.14,5.24c-1.54,7.09-0.83,14.47,2.02,21.14l0.81,1.89
					C325.37,440.04,325.58,441.13,325.58,442.19z"/>
				<path style="fill:#334353;" d="M325.58,442.19c0,1.09-0.22,2.16-0.65,3.15c-4.13,0.7-8.21-1.88-9.23-6.07v-0.01
					c-2.34-9.54-0.54-19.63,4.97-27.77l1.89-2.8c0.54,0.45,0.86,1.18,0.67,2.04l-1.14,5.24c-1.54,7.09-0.83,14.47,2.02,21.14
					l0.81,1.89C325.37,440.04,325.58,441.13,325.58,442.19z"/>
				<path style="fill:#3F5D77;" d="M318.288,430.724c1.914-0.045,3.413-1.704,3.208-3.608c-0.399-3.7-0.206-7.462,0.594-11.146
					l1.14-5.24c0.19-0.86-0.13-1.59-0.67-2.04l-1.89,2.8c-3.181,4.699-5.126,10.049-5.751,15.567
					C314.694,429.044,316.29,430.77,318.288,430.724L318.288,430.724z"/>
			</g>
		</g>
		<g>
			<g>
				<g>
					<g>
						<path style="fill:#2E3140;" d="M334.01,302.638c-3.683,3.679-9.646,3.683-13.326,0l-30.007-30.007l13.326-13.326
							l30.007,30.007C337.739,293.018,337.623,299.056,334.01,302.638z"/>
						<path style="fill:#334353;" d="M336.128,299.385c-3.441,1.329-7.362,0.58-10.073-2.118l-30.007-30.007l7.955-7.955
							l30.007,30.007C336.737,292.039,337.439,296.017,336.128,299.385z"/>
						<path style="fill:#3E4E60;" d="M321.005,292.217l-16.563-16.563c-3.6-3.825,1.789-9.229,5.624-5.624
							c0,0,16.563,16.563,16.563,16.563C330.229,290.418,324.841,295.822,321.005,292.217z"/>
					</g>
					<g>
						<path style="fill:#3E4E60;" d="M334.483,311.816v30.788c0,2.604-1.586,4.842-3.837,5.801c-4.01,1.783-8.849-1.377-8.751-5.801
							c0,0,0-30.788,0-30.788c0-1.736,0.705-3.308,1.847-4.444C327.518,303.454,334.54,306.219,334.483,311.816z"/>
						<path style="fill:#3F5D77;" d="M334.483,311.816v30.788c0,2.604-1.586,4.842-3.837,5.801
							c-2.251-0.959-3.837-3.197-3.837-5.801v-30.788c0.004-2.584,1.55-4.804,3.837-5.795
							C332.897,306.981,334.483,309.213,334.483,311.816z"/>
						<path style="fill:#3F6C8E;" d="M329.308,340.181c-1.38,0-2.499-1.119-2.499-2.499v-21.358c0-1.38,1.119-2.499,2.499-2.499
							s2.499,1.119,2.499,2.499v21.358C331.807,339.062,330.688,340.181,329.308,340.181z"/>
					</g>
					<g>
						<g>
							<path style="fill:#3E4E60;" d="M365.786,382.378c0.715-0.715,0.715-1.874,0-2.588l-7.5-7.5l-2.588,2.588l7.5,7.5
								C363.913,383.092,365.072,383.092,365.786,382.378z"/>
							<path style="fill:#3E4E60;" d="M361.04,387.124c0.715-0.715,0.715-1.874,0-2.588l-7.5-7.5l-2.588,2.588l7.5,7.5
								C359.167,387.838,360.326,387.838,361.04,387.124z"/>
						</g>
						<path style="fill:#C44A1A;" d="M358.544,375.082c-0.873,0.882-3.813,3.82-4.738,4.744c-1.233,1.233-3.23,1.233-4.463,0
							L347,377.484c-5.824-6.255,2.831-14.991,9.149-9.149c0,0,2.343,2.343,2.343,2.343
							C359.706,371.891,359.725,373.849,358.544,375.082z"/>
						<path style="fill:#C44A1A;" d="M349.343,365.992c-1.304,1.311-3.366,3.361-4.685,4.685c-1.233,1.233-3.23,1.233-4.464,0
							l-2.343-2.343c-5.823-6.253,2.831-14.988,9.149-9.142c0,0,2.343,2.343,2.343,2.343
							C350.576,362.762,350.576,364.759,349.343,365.992z"/>
						<path style="fill:#C44A1A;" d="M340.194,356.844c-1.305,1.318-3.362,3.363-4.685,4.692c-1.233,1.227-3.23,1.227-4.457,0
							l-2.349-2.343c-5.822-6.254,2.828-14.997,9.149-9.148c0,0,2.343,2.343,2.343,2.343
							C341.427,353.62,341.427,355.616,340.194,356.844z"/>
						<path style="fill:#DD5E26;" d="M357.226,376.411c-1.232,1.223-3.235,1.223-4.457,0l-2.349-2.349
							c-1.92-1.92-2.386-4.748-1.375-7.106c2.359-1.037,5.265-0.479,7.101,1.38l2.344,2.344c1.207,1.214,1.233,3.164,0.055,4.402
							c0,0-0.041,0.041-0.041,0.041L357.226,376.411z"/>
						<path style="fill:#DD5E26;" d="M349.345,365.992l-1.269,1.269c-1.227,1.227-3.225,1.232-4.457,0l-2.344-2.344
							c-1.92-1.92-2.381-4.753-1.38-7.111c2.359-1.021,5.272-0.48,7.106,1.384c0,0,2.344,2.344,2.344,2.344
							C350.58,362.767,350.568,364.771,349.345,365.992z"/>
						<path style="fill:#DD5E26;" d="M338.936,358.111c-1.236,1.22-3.225,1.245-4.467,0l-2.344-2.344
							c-1.915-1.915-2.376-4.748-1.38-7.111c2.361-1.014,5.273-0.476,7.106,1.384c0,0,2.344,2.344,2.344,2.344
							c1.23,1.229,1.228,3.233,0,4.457L338.936,358.111z"/>
						<g>
							<path style="fill:#EA792E;" d="M340.491,355.55c-1.481,1.481-3.89,1.481-5.376-0.004c-2.071-1.959-1.055-5.683,1.689-6.349
								c0.807,0.45,2.692,2.539,3.392,3.188C341.035,353.262,341.579,354.705,340.491,355.55z"/>
							<path style="fill:#EA792E;" d="M349.636,364.695c-1.481,1.481-3.89,1.481-5.371,0c-2.076-1.965-1.062-5.686,1.684-6.354
								c0.808,0.45,2.695,2.543,3.396,3.193C350.193,362.421,350.723,363.847,349.636,364.695z"/>
							<path style="fill:#EA792E;" d="M358.782,373.841c-1.481,1.481-3.885,1.486-5.371,0c-2.071-1.959-1.055-5.683,1.689-6.349
								c0.808,0.45,2.692,2.539,3.392,3.188C359.335,371.563,359.868,372.993,358.782,373.841z"/>
						</g>
					</g>
				</g>
				<g>
					<g>
						<path style="fill:#2E3140;" d="M177.99,302.638c3.683,3.679,9.646,3.683,13.326,0l30.007-30.007l-13.326-13.326
							l-30.007,30.007C174.261,293.018,174.377,299.056,177.99,302.638z"/>
						<path style="fill:#334353;" d="M175.872,299.385c3.441,1.329,7.362,0.58,10.073-2.118l30.007-30.007l-7.955-7.955
							l-30.007,30.007C175.263,292.039,174.561,296.017,175.872,299.385z"/>
						<path style="fill:#3E4E60;" d="M190.995,292.217l16.563-16.563c3.6-3.825-1.789-9.229-5.624-5.624
							c0,0-16.563,16.563-16.563,16.563C181.771,290.418,187.159,295.822,190.995,292.217z"/>
					</g>
					<g>
						<path style="fill:#3E4E60;" d="M177.517,311.816v30.788c0,2.604,1.586,4.842,3.837,5.801c4.01,1.783,8.849-1.377,8.751-5.801
							c0,0,0-30.788,0-30.788c0-1.736-0.705-3.308-1.847-4.444C184.482,303.454,177.46,306.219,177.517,311.816z"/>
						<path style="fill:#3F5D77;" d="M177.517,311.816v30.788c0,2.604,1.586,4.842,3.837,5.801c2.251-0.959,3.837-3.197,3.837-5.801
							v-30.788c-0.004-2.584-1.55-4.804-3.837-5.795C179.103,306.981,177.517,309.213,177.517,311.816z"/>
						<path style="fill:#3F6C8E;" d="M182.692,340.181c1.38,0,2.499-1.119,2.499-2.499v-21.358c0-1.38-1.119-2.499-2.499-2.499
							c-1.38,0-2.499,1.119-2.499,2.499v21.358C180.193,339.062,181.312,340.181,182.692,340.181z"/>
					</g>
					<g>
						<g>
							<path style="fill:#3E4E60;" d="M146.214,382.378c-0.715-0.715-0.715-1.874,0-2.588l7.5-7.5l2.588,2.588l-7.5,7.5
								C148.087,383.092,146.928,383.092,146.214,382.378z"/>
							<path style="fill:#3E4E60;" d="M150.96,387.124c-0.715-0.715-0.715-1.874,0-2.588l7.5-7.5l2.588,2.588l-7.5,7.5
								C152.833,387.838,151.674,387.838,150.96,387.124z"/>
						</g>
						<path style="fill:#C44A1A;" d="M153.456,375.082c0.873,0.882,3.813,3.82,4.738,4.744c1.233,1.233,3.23,1.233,4.463,0
							l2.343-2.343c5.824-6.255-2.831-14.991-9.149-9.149c0,0-2.343,2.343-2.343,2.343
							C152.294,371.891,152.275,373.849,153.456,375.082z"/>
						<path style="fill:#C44A1A;" d="M162.657,365.992c1.304,1.311,3.366,3.361,4.685,4.685c1.233,1.233,3.23,1.233,4.464,0
							l2.343-2.343c5.823-6.253-2.831-14.988-9.149-9.142c0,0-2.343,2.343-2.343,2.343
							C161.424,362.762,161.424,364.759,162.657,365.992z"/>
						<path style="fill:#C44A1A;" d="M171.806,356.844c1.305,1.318,3.362,3.363,4.685,4.692c1.233,1.227,3.23,1.227,4.457,0
							l2.349-2.343c5.822-6.254-2.828-14.997-9.149-9.148c0,0-2.343,2.343-2.343,2.343
							C170.573,353.62,170.573,355.616,171.806,356.844z"/>
						<path style="fill:#DD5E26;" d="M154.774,376.411c1.232,1.223,3.235,1.223,4.457,0l2.349-2.349
							c1.92-1.92,2.386-4.748,1.375-7.106c-2.359-1.037-5.265-0.479-7.101,1.38l-2.344,2.344c-1.207,1.214-1.233,3.164-0.055,4.402
							c0,0,0.041,0.041,0.041,0.041L154.774,376.411z"/>
						<path style="fill:#DD5E26;" d="M162.655,365.992l1.269,1.269c1.227,1.227,3.225,1.232,4.457,0l2.344-2.344
							c1.92-1.92,2.381-4.753,1.38-7.111c-2.359-1.021-5.272-0.48-7.106,1.384c0,0-2.344,2.344-2.344,2.344
							C161.42,362.767,161.432,364.771,162.655,365.992z"/>
						<path style="fill:#DD5E26;" d="M173.064,358.111c1.236,1.22,3.225,1.245,4.467,0l2.344-2.344
							c1.915-1.915,2.376-4.748,1.38-7.111c-2.361-1.014-5.273-0.476-7.106,1.384c0,0-2.344,2.344-2.344,2.344
							c-1.23,1.229-1.228,3.233,0,4.457L173.064,358.111z"/>
						<g>
							<path style="fill:#EA792E;" d="M171.509,355.55c1.481,1.481,3.89,1.481,5.376-0.004c2.071-1.959,1.055-5.683-1.689-6.349
								c-0.807,0.45-2.692,2.539-3.392,3.188C170.965,353.262,170.421,354.705,171.509,355.55z"/>
							<path style="fill:#EA792E;" d="M162.364,364.695c1.481,1.481,3.89,1.481,5.371,0c2.076-1.965,1.062-5.686-1.684-6.354
								c-0.808,0.45-2.695,2.543-3.396,3.193C161.807,362.421,161.277,363.847,162.364,364.695z"/>
							<path style="fill:#EA792E;" d="M153.218,373.841c1.481,1.481,3.885,1.486,5.371,0c2.071-1.959,1.055-5.683-1.689-6.349
								c-0.808,0.45-2.692,2.539-3.392,3.188C152.665,371.563,152.132,372.993,153.218,373.841z"/>
						</g>
					</g>
				</g>
			</g>
			<g>
				<g>
					<g>
						<path style="fill:#2E3140;" d="M356.764,243.853c-0.003,5.206-4.216,9.425-9.423,9.423h-42.436V234.43h42.436
							C352.598,234.414,356.785,238.766,356.764,243.853z"/>
						<path style="fill:#334353;" d="M355.961,240.055c-1.494,3.373-4.795,5.616-8.62,5.625l-42.436,0v-11.25h42.436
							C351.197,234.43,354.506,236.746,355.961,240.055z"/>
						<path style="fill:#3E4E60;" d="M340.199,245.68h-23.424c-5.25-0.159-5.261-7.79,0-7.954c0,0,23.424,0,23.424,0
							c2.196,0,3.977,1.78,3.977,3.977C344.176,243.899,342.395,245.68,340.199,245.68z"/>
					</g>
					<g>
						<path style="fill:#3E4E60;" d="M356.764,259.566v30.788c-0.325,8.368-12.289,8.319-12.588,0c0,0,0-30.788,0-30.788
							c0-1.736,0.705-3.308,1.847-4.444C349.799,251.203,356.821,253.969,356.764,259.566z"/>
						<path style="fill:#3F5D77;" d="M356.764,259.566v30.788c0,2.604-1.586,4.842-3.837,5.801
							c-2.251-0.959-3.837-3.197-3.837-5.801v-30.788c0.004-2.584,1.55-4.804,3.837-5.795
							C355.178,254.731,356.764,256.962,356.764,259.566z"/>
						<path style="fill:#3F6C8E;" d="M351.589,287.93c-1.38,0-2.499-1.119-2.499-2.499v-21.358c0-1.38,1.119-2.499,2.499-2.499
							s2.499,1.119,2.499,2.499v21.358C354.088,286.811,352.969,287.93,351.589,287.93z"/>
					</g>
					<g>
						<g>
							<path style="fill:#3E4E60;" d="M388.067,330.127c0.715-0.715,0.715-1.874,0-2.588l-7.5-7.5l-2.588,2.588l7.5,7.5
								C386.194,330.842,387.353,330.842,388.067,330.127z"/>
							<path style="fill:#3E4E60;" d="M383.321,334.873c0.715-0.715,0.715-1.874,0-2.588l-7.5-7.5l-2.588,2.588l7.5,7.5
								C381.448,335.588,382.607,335.588,383.321,334.873z"/>
						</g>
						<path style="fill:#C44A1A;" d="M380.825,322.832c-0.873,0.882-3.813,3.82-4.738,4.744c-1.233,1.233-3.23,1.233-4.463,0
							l-2.343-2.343c-5.832-6.235,2.85-15,9.149-9.149c0,0,2.343,2.342,2.343,2.342
							C381.987,319.641,382.006,321.598,380.825,322.832z"/>
						<path style="fill:#C44A1A;" d="M371.624,313.742c-1.304,1.311-3.366,3.361-4.685,4.685c-1.233,1.233-3.23,1.233-4.464,0
							l-2.343-2.343c-5.831-6.233,2.851-14.997,9.149-9.142c0,0,2.343,2.343,2.343,2.343
							C372.857,310.512,372.857,312.509,371.624,313.742z"/>
						<path style="fill:#C44A1A;" d="M362.475,304.593c-1.305,1.318-3.362,3.363-4.685,4.692c-1.233,1.227-3.23,1.227-4.457,0
							l-2.349-2.343c-5.831-6.233,2.847-15.006,9.149-9.148c0,0,2.343,2.342,2.343,2.342
							C363.709,301.369,363.709,303.366,362.475,304.593z"/>
						<path style="fill:#DD5E26;" d="M379.508,324.161c-1.232,1.223-3.235,1.223-4.457,0l-2.349-2.349
							c-1.92-1.92-2.386-4.748-1.375-7.106c2.359-1.037,5.265-0.479,7.101,1.38l2.344,2.344c1.207,1.214,1.233,3.164,0.055,4.402
							l-0.041,0.041L379.508,324.161z"/>
						<path style="fill:#DD5E26;" d="M371.626,313.742l-1.269,1.269c-1.227,1.227-3.225,1.232-4.457,0l-2.344-2.344
							c-1.92-1.92-2.381-4.753-1.38-7.111c2.359-1.021,5.272-0.48,7.106,1.384l2.344,2.344
							C372.861,310.517,372.849,312.521,371.626,313.742z"/>
						<path style="fill:#DD5E26;" d="M361.217,305.86c-1.236,1.22-3.225,1.245-4.467,0l-2.344-2.344
							c-1.915-1.915-2.376-4.748-1.38-7.111c2.361-1.014,5.273-0.476,7.106,1.384c0,0,2.344,2.344,2.344,2.344
							c1.23,1.229,1.228,3.233,0,4.457L361.217,305.86z"/>
						<g>
							<path style="fill:#EA792E;" d="M362.772,303.299c-1.481,1.481-3.89,1.481-5.376-0.004c-2.071-1.959-1.055-5.683,1.689-6.349
								c0.807,0.45,2.692,2.539,3.392,3.188C363.316,301.011,363.861,302.454,362.772,303.299z"/>
							<path style="fill:#EA792E;" d="M371.917,312.445c-1.481,1.481-3.89,1.481-5.371,0c-2.076-1.965-1.062-5.686,1.684-6.354
								c0.808,0.45,2.695,2.543,3.396,3.193C372.474,310.17,373.004,311.597,371.917,312.445z"/>
							<path style="fill:#EA792E;" d="M381.063,321.59c-1.481,1.481-3.885,1.486-5.371,0c-2.071-1.959-1.055-5.683,1.689-6.349
								c0.808,0.45,2.692,2.539,3.392,3.188C381.616,319.312,382.149,320.742,381.063,321.59z"/>
						</g>
					</g>
				</g>
				<g>
					<g>
						<path style="fill:#2E3140;" d="M155.236,243.853c0.003,5.206,4.217,9.425,9.423,9.423h42.436V234.43h-42.436
							C159.402,234.414,155.215,238.766,155.236,243.853z"/>
						<path style="fill:#334353;" d="M156.039,240.055c1.494,3.373,4.795,5.616,8.62,5.625l42.436,0v-11.25h-42.436
							C160.803,234.43,157.494,236.746,156.039,240.055z"/>
						<path style="fill:#3E4E60;" d="M171.801,245.68h23.424c5.25-0.159,5.261-7.79,0-7.954c0,0-23.424,0-23.424,0
							c-2.196,0-3.977,1.78-3.977,3.977C167.824,243.899,169.605,245.68,171.801,245.68z"/>
					</g>
					<g>
						<path style="fill:#3E4E60;" d="M155.236,259.566v30.788c0.325,8.368,12.289,8.319,12.588,0c0,0,0-30.788,0-30.788
							c0-1.736-0.705-3.308-1.847-4.444C162.201,251.203,155.179,253.969,155.236,259.566z"/>
						<path style="fill:#3F5D77;" d="M155.236,259.566v30.788c0,2.604,1.586,4.842,3.837,5.801c2.251-0.959,3.837-3.197,3.837-5.801
							v-30.788c-0.004-2.584-1.55-4.804-3.837-5.795C156.822,254.731,155.236,256.962,155.236,259.566z"/>
						<path style="fill:#3F6C8E;" d="M160.411,287.93c1.38,0,2.499-1.119,2.499-2.499v-21.358c0-1.38-1.119-2.499-2.499-2.499
							s-2.499,1.119-2.499,2.499v21.358C157.912,286.811,159.031,287.93,160.411,287.93z"/>
					</g>
					<g>
						<g>
							<path style="fill:#2E3140;" d="M123.933,330.127c-0.715-0.715-0.715-1.874,0-2.588l7.5-7.5l2.588,2.588l-7.5,7.5
								C125.806,330.842,124.647,330.842,123.933,330.127z"/>
							<path style="fill:#2E3140;" d="M128.679,334.873c-0.715-0.715-0.715-1.874,0-2.588l7.5-7.5l2.588,2.588l-7.5,7.5
								C130.552,335.588,129.393,335.588,128.679,334.873z"/>
						</g>
						<path style="fill:#C44A1A;" d="M131.175,322.832c0.873,0.882,3.813,3.82,4.738,4.744c1.233,1.233,3.23,1.233,4.463,0
							l2.343-2.343c5.832-6.235-2.85-15-9.149-9.149c0,0-2.343,2.342-2.343,2.342C130.013,319.641,129.994,321.598,131.175,322.832z
							"/>
						<path style="fill:#C44A1A;" d="M140.376,313.742c1.304,1.311,3.366,3.361,4.685,4.685c1.233,1.233,3.23,1.233,4.464,0
							l2.343-2.343c5.831-6.233-2.851-14.997-9.149-9.142c0,0-2.343,2.343-2.343,2.343
							C139.143,310.512,139.143,312.509,140.376,313.742z"/>
						<path style="fill:#C44A1A;" d="M149.525,304.593c1.305,1.318,3.362,3.363,4.685,4.692c1.233,1.227,3.23,1.227,4.457,0
							l2.349-2.343c5.831-6.233-2.847-15.006-9.149-9.148c0,0-2.343,2.342-2.343,2.342
							C148.291,301.369,148.291,303.366,149.525,304.593z"/>
						<path style="fill:#DD5E26;" d="M132.492,324.161c1.232,1.223,3.235,1.223,4.457,0l2.349-2.349
							c1.92-1.92,2.386-4.748,1.375-7.106c-2.359-1.037-5.265-0.479-7.101,1.38l-2.344,2.344c-1.207,1.214-1.233,3.164-0.055,4.402
							c0,0,0.041,0.041,0.041,0.041L132.492,324.161z"/>
						<path style="fill:#DD5E26;" d="M140.374,313.742l1.269,1.269c1.227,1.227,3.225,1.232,4.457,0l2.344-2.344
							c1.92-1.92,2.381-4.753,1.38-7.111c-2.359-1.021-5.272-0.48-7.106,1.384l-2.344,2.344
							C139.139,310.517,139.151,312.521,140.374,313.742z"/>
						<path style="fill:#DD5E26;" d="M150.783,305.86c1.236,1.22,3.225,1.245,4.467,0l2.344-2.344
							c1.915-1.915,2.376-4.748,1.38-7.111c-2.361-1.014-5.273-0.476-7.106,1.384c0,0-2.344,2.344-2.344,2.344
							c-1.23,1.229-1.228,3.233,0,4.457L150.783,305.86z"/>
						<g>
							<path style="fill:#EA792E;" d="M149.228,303.299c1.481,1.481,3.89,1.481,5.376-0.004c2.071-1.959,1.055-5.683-1.689-6.349
								c-0.807,0.45-2.692,2.539-3.392,3.188C148.684,301.011,148.139,302.454,149.228,303.299z"/>
							<path style="fill:#EA792E;" d="M140.083,312.445c1.481,1.481,3.89,1.481,5.371,0c2.076-1.965,1.062-5.686-1.684-6.354
								c-0.808,0.45-2.695,2.543-3.396,3.193C139.526,310.17,138.996,311.597,140.083,312.445z"/>
							<path style="fill:#EA792E;" d="M130.937,321.59c1.481,1.481,3.885,1.486,5.371,0c2.071-1.959,1.055-5.683-1.689-6.349
								c-0.808,0.45-2.692,2.539-3.392,3.188C130.384,319.312,129.851,320.742,130.937,321.59z"/>
						</g>
					</g>
				</g>
			</g>
			<g>
				<g>
					<g>
						<path style="fill:#2E3140;" d="M156.24,211.589c0.003,5.206,4.217,9.425,9.423,9.423l42.436,0v-18.846h-42.436
							C160.406,202.15,156.219,206.502,156.24,211.589z"/>
						<path style="fill:#334353;" d="M157.043,207.791c1.494,3.373,4.795,5.616,8.62,5.625c0,0,42.436,0,42.436,0v-11.25h-42.436
							C161.806,202.166,158.498,204.483,157.043,207.791z"/>
						<path style="fill:#3E4E60;" d="M172.805,213.416h23.424c5.25-0.159,5.261-7.79,0-7.954c0,0-23.424,0-23.424,0
							c-2.196,0-3.977,1.78-3.977,3.977C168.828,211.636,170.608,213.416,172.805,213.416z"/>
					</g>
					<g>
						<path style="fill:#3E4E60;" d="M160.512,194.292l-21.77-21.77c-6.147-5.687-14.572,2.807-8.901,8.901
							c0,0,21.77,21.77,21.77,21.77c1.227,1.227,2.838,1.841,4.448,1.836C161.5,205.131,164.51,198.21,160.512,194.292z"/>
						<path style="fill:#3F5D77;" d="M160.512,194.292l-21.77-21.77c-1.841-1.841-4.545-2.302-6.815-1.389
							c-0.914,2.27-0.452,4.974,1.389,6.815l21.77,21.77c1.829,1.824,4.493,2.301,6.811,1.384
							C162.809,198.833,162.353,196.133,160.512,194.292z"/>
						<path style="fill:#3F6C8E;" d="M136.796,177.895c-0.976,0.976-0.976,2.559,0,3.535l15.102,15.102
							c0.976,0.976,2.559,0.976,3.535,0c0.976-0.976,0.976-2.559,0-3.535l-15.102-15.102
							C139.355,176.919,137.772,176.919,136.796,177.895z"/>
					</g>
					<g>
						<g>
							<path style="fill:#2E3140;" d="M82.126,164.313c0-1.011,0.819-1.83,1.83-1.83h10.607v3.66H83.956
								C82.945,166.143,82.126,165.324,82.126,164.313z"/>
							<path style="fill:#2E3140;" d="M82.126,171.025c0-1.011,0.819-1.83,1.83-1.83h10.607v3.66H83.956
								C82.945,172.855,82.126,172.036,82.126,171.025z"/>
						</g>
						<path style="fill:#C44A1A;" d="M92.406,164.276c-0.006,1.241-0.005,5.397-0.005,6.705c0,1.744,1.412,3.156,3.156,3.156
							l3.313,0c8.533-0.284,8.592-12.622,0-12.938c0,0-3.313,0-3.313,0C93.841,161.198,92.443,162.568,92.406,164.276z"/>
						<path style="fill:#C44A1A;" d="M105.339,164.354c-0.005,1.849,0.004,4.756,0,6.626c0,1.744,1.412,3.156,3.156,3.156l3.313,0
							c8.53-0.284,8.589-12.621-0.005-12.934c0,0-3.313,0-3.313,0C106.751,161.198,105.339,162.61,105.339,164.354z"/>
						<path style="fill:#C44A1A;" d="M118.278,164.354c-0.009,1.854-0.001,4.755-0.005,6.631c0.005,1.74,1.417,3.151,3.152,3.152
							l3.318,0.004c8.53-0.285,8.598-12.624,0-12.938c0,0-3.313,0-3.313,0C119.685,161.203,118.273,162.615,118.278,164.354z"/>
						<path style="fill:#DD5E26;" d="M92.398,166.147c0.007,1.736,1.423,3.152,3.152,3.152h3.321c2.715,0,5.044-1.671,5.997-4.052
							c-0.935-2.401-3.384-4.062-5.997-4.046c0,0-3.315,0-3.315,0c-1.712,0.005-3.11,1.365-3.152,3.074v0.059L92.398,166.147z"/>
						<path style="fill:#DD5E26;" d="M105.338,164.353v1.795c0,1.736,1.41,3.152,3.152,3.152h3.315c2.715,0,5.044-1.677,6.004-4.052
							c-0.946-2.39-3.389-4.067-6.004-4.046c0,0-3.315,0-3.315,0C106.745,161.199,105.337,162.625,105.338,164.353z"/>
						<path style="fill:#DD5E26;" d="M118.272,166.14c0.012,1.736,1.4,3.16,3.158,3.159c0,0,3.315,0,3.315,0
							c2.708,0,5.038-1.677,6.004-4.052c-0.952-2.387-3.392-4.065-6.004-4.046c0,0-3.315,0-3.315,0
							c-1.738-0.001-3.154,1.418-3.152,3.152L118.272,166.14z"/>
						<g>
							<path style="fill:#EA792E;" d="M118.983,163.23c0,2.095,1.703,3.798,3.804,3.798c2.85,0.079,4.765-3.272,3.295-5.684
								c-0.889-0.253-3.699-0.108-4.653-0.144C120.216,161.227,118.81,161.863,118.983,163.23z"/>
							<path style="fill:#EA792E;" d="M106.049,163.23c0,2.095,1.703,3.798,3.798,3.798c2.857,0.078,4.771-3.27,3.302-5.684
								c-0.889-0.253-3.704-0.108-4.659-0.144C107.264,161.228,105.88,161.862,106.049,163.23z"/>
							<path style="fill:#EA792E;" d="M93.116,163.23c0,2.095,1.697,3.798,3.798,3.798c2.85,0.079,4.765-3.272,3.295-5.684
								c-0.889-0.253-3.699-0.108-4.653-0.144C94.335,161.228,92.947,161.862,93.116,163.23z"/>
						</g>
					</g>
				</g>
				<g>
					<g>
						<path style="fill:#2E3140;" d="M355.76,211.589c-0.003,5.206-4.216,9.425-9.423,9.423l-42.436,0v-18.846h42.436
							C351.594,202.15,355.781,206.502,355.76,211.589z"/>
						<path style="fill:#334353;" d="M354.957,207.791c-1.494,3.373-4.795,5.616-8.62,5.625c0,0-42.436,0-42.436,0v-11.25h42.436
							C350.194,202.166,353.502,204.483,354.957,207.791z"/>
						<path style="fill:#3E4E60;" d="M339.195,213.416h-23.424c-5.25-0.159-5.261-7.79,0-7.954c0,0,23.424,0,23.424,0
							c2.196,0,3.977,1.78,3.977,3.977C343.172,211.636,341.392,213.416,339.195,213.416z"/>
					</g>
					<g>
						<path style="fill:#3E4E60;" d="M351.488,194.292l21.77-21.77c6.147-5.687,14.572,2.807,8.901,8.901
							c0,0-21.77,21.77-21.77,21.77c-1.227,1.227-2.838,1.841-4.448,1.836C350.5,205.131,347.49,198.21,351.488,194.292z"/>
						<path style="fill:#3F5D77;" d="M351.488,194.292l21.77-21.77c1.841-1.841,4.545-2.302,6.815-1.389
							c0.914,2.27,0.452,4.974-1.389,6.815l-21.77,21.77c-1.829,1.824-4.493,2.301-6.811,1.384
							C349.191,198.833,349.647,196.133,351.488,194.292z"/>
						<path style="fill:#3F6C8E;" d="M375.204,177.895c0.976,0.976,0.976,2.559,0,3.535l-15.102,15.102
							c-0.976,0.976-2.559,0.976-3.535,0c-0.976-0.976-0.976-2.559,0-3.535l15.102-15.102
							C372.645,176.919,374.228,176.919,375.204,177.895z"/>
					</g>
					<g>
						<g>
							<path style="fill:#3E4E60;" d="M429.874,164.313c0-1.011-0.819-1.83-1.83-1.83h-10.607v3.66h10.607
								C429.055,166.143,429.874,165.324,429.874,164.313z"/>
							<path style="fill:#3E4E60;" d="M429.874,171.025c0-1.011-0.819-1.83-1.83-1.83h-10.607v3.66h10.607
								C429.055,172.855,429.874,172.036,429.874,171.025z"/>
						</g>
						<path style="fill:#C44A1A;" d="M419.594,164.276c0.006,1.241,0.005,5.397,0.005,6.705c0,1.744-1.412,3.156-3.156,3.156
							l-3.313,0c-8.533-0.284-8.592-12.622,0-12.938c0,0,3.313,0,3.313,0C418.159,161.198,419.557,162.568,419.594,164.276z"/>
						<path style="fill:#C44A1A;" d="M406.661,164.354c0.005,1.849-0.004,4.756,0,6.626c0,1.744-1.412,3.156-3.156,3.156l-3.313,0
							c-8.53-0.284-8.589-12.621,0.005-12.934c0,0,3.313,0,3.313,0C405.249,161.198,406.661,162.61,406.661,164.354z"/>
						<path style="fill:#C44A1A;" d="M393.722,164.354c0.009,1.854,0.001,4.755,0.005,6.631c-0.005,1.74-1.417,3.151-3.152,3.152
							l-3.318,0.004c-8.53-0.285-8.598-12.624,0-12.938c0,0,3.313,0,3.313,0C392.315,161.203,393.727,162.615,393.722,164.354z"/>
						<path style="fill:#DD5E26;" d="M419.602,166.147c-0.007,1.736-1.423,3.152-3.152,3.152h-3.322
							c-2.715,0-5.044-1.671-5.997-4.052c0.935-2.401,3.384-4.062,5.997-4.046c0,0,3.315,0,3.315,0
							c1.712,0.005,3.11,1.365,3.152,3.074v0.059L419.602,166.147z"/>
						<path style="fill:#DD5E26;" d="M406.662,164.353v1.795c0,1.736-1.41,3.152-3.152,3.152h-3.315
							c-2.715,0-5.044-1.677-6.004-4.052c0.946-2.39,3.389-4.067,6.004-4.046c0,0,3.315,0,3.315,0
							C405.255,161.199,406.663,162.625,406.662,164.353z"/>
						<path style="fill:#DD5E26;" d="M393.728,166.14c-0.012,1.736-1.4,3.16-3.158,3.159c0,0-3.315,0-3.315,0
							c-2.708,0-5.038-1.677-6.004-4.052c0.952-2.387,3.392-4.065,6.004-4.046c0,0,3.315,0,3.315,0
							c1.738-0.001,3.154,1.418,3.152,3.152L393.728,166.14z"/>
						<g>
							<path style="fill:#EA792E;" d="M393.017,163.23c0,2.095-1.703,3.798-3.804,3.798c-2.85,0.079-4.765-3.272-3.295-5.684
								c0.889-0.253,3.699-0.108,4.653-0.144C391.784,161.227,393.19,161.863,393.017,163.23z"/>
							<path style="fill:#EA792E;" d="M405.951,163.23c0,2.095-1.703,3.798-3.798,3.798c-2.857,0.078-4.771-3.27-3.302-5.684
								c0.889-0.253,3.704-0.108,4.659-0.144C404.736,161.228,406.12,161.862,405.951,163.23z"/>
							<path style="fill:#EA792E;" d="M418.884,163.23c0,2.095-1.697,3.798-3.798,3.798c-2.85,0.079-4.765-3.272-3.295-5.684
								c0.889-0.253,3.699-0.108,4.653-0.144C417.665,161.228,419.053,161.862,418.884,163.23z"/>
						</g>
					</g>
				</g>
			</g>
		</g>
		<g>
			<g>
				<g>
					<path style="fill:#2E3140;" d="M334.278,175.321c0,3.55-1.44,6.75-3.76,9.07c-2.32,2.32-5.54,3.76-9.08,3.76h-29.76v-25.66
						h29.76c5.7,0,10.54,3.72,12.21,8.86C334.058,172.601,334.278,173.931,334.278,175.321z"/>
					<path style="fill:#334353;" d="M333.648,171.351c-0.63,1.95-1.72,3.69-3.13,5.1c-2.32,2.32-5.54,3.76-9.08,3.76h-29.76v-17.72
						h29.76C327.138,162.49,331.978,166.211,333.648,171.351z"/>
					<path style="fill:#3E4E60;" d="M316.645,180.211h-13.213c-2.647,0-4.792-2.146-4.792-4.792l0,0
						c0-2.647,2.146-4.792,4.792-4.792h13.213c2.647,0,4.792,2.146,4.792,4.792l0,0
						C321.438,178.065,319.292,180.211,316.645,180.211z"/>
				</g>
				<g>
					<path style="fill:#3E4E60;" d="M343.463,141.03v23.9c0,5.07-4.11,9.18-9.18,9.18c-1.26,0-2.46-0.25-3.55-0.71
						c-3.31-1.39-5.64-4.66-5.64-8.47v-23.9c0-3.81,2.33-7.08,5.64-8.48c1.09-0.46,2.29-0.71,3.55-0.71c2.53,0,4.83,1.03,6.49,2.69
						C342.433,136.2,343.463,138.49,343.463,141.03z"/>
					<path style="fill:#3F5D77;" d="M336.353,141.03v23.9c0,3.81-2.32,7.08-5.62,8.47c-3.31-1.39-5.64-4.66-5.64-8.47v-23.9
						c0-3.81,2.33-7.08,5.64-8.48c1.1,0.47,2.1,1.15,2.93,1.98C335.323,136.2,336.353,138.49,336.353,141.03z"/>
					<path style="fill:#3F6C8E;" d="M332.799,141.03L332.799,141.03c1.963,0,3.554,1.591,3.554,3.554v16.792
						c0,1.963-1.591,3.554-3.554,3.554l0,0c-1.963,0-3.554-1.591-3.554-3.554v-16.792
						C329.245,142.621,330.836,141.03,332.799,141.03z"/>
				</g>
				<g>
					<path style="fill:#C44A1A;" d="M362.982,120.09l-16.9,16.9c-3.585,3.585-9.398,3.585-12.983,0
						c-0.891-0.891-1.563-1.916-2.008-3.013c-1.358-3.323-0.693-7.283,2.001-9.977l16.9-16.9c2.694-2.694,6.654-3.359,9.984-2.008
						c1.096,0.445,2.122,1.117,3.013,2.008c1.789,1.789,2.687,4.144,2.687,6.492C365.669,115.946,364.778,118.294,362.982,120.09z"
						/>
					<path style="fill:#DD5E26;" d="M357.954,115.062l-16.9,16.9c-2.694,2.694-6.647,3.366-9.963,2.015
						c-1.358-3.323-0.693-7.283,2.001-9.977l16.9-16.9c2.694-2.694,6.654-3.359,9.984-2.008c0.446,1.11,0.672,2.298,0.672,3.472
						C360.641,110.918,359.75,113.266,357.954,115.062z"/>
					<path style="fill:#EA792E;" d="M355.441,112.549L355.441,112.549c1.388,1.388,1.388,3.638,0,5.026l-11.874,11.874
						c-1.388,1.388-3.638,1.388-5.026,0l0,0c-1.388-1.388-1.388-3.638,0-5.026l11.874-11.874
						C351.804,111.162,354.054,111.162,355.441,112.549z"/>
				</g>
				<g>
					<g>
						<path style="fill:#DD5E26;" d="M348.281,103.41l-9.962-9.962c-8.483-8.483-13.249-19.989-13.249-31.987V42.377l42.122,42.122
							L348.281,103.41z"/>
						<path style="fill:#C44A1A;" d="M348.452,69.852L348.452,69.852c-8.747,8.747-9.601,22.919-1.441,32.216
							c9.063,10.327,24.86,10.621,34.307,0.883c8.8-9.07,8.31-24.163-0.626-33.099l-26.171-26.171
							c-9.055-9.055-21.337-14.142-34.143-14.142h0c-3.01,0-4.517,3.639-2.389,5.767l30.462,30.462
							C349.579,66.896,349.579,68.724,348.452,69.852z"/>
						<path style="fill:#DD5E26;" d="M345.103,41.25l26.981,26.981c1.731,1.731,1.731,4.537,0,6.268l0,0
							c-1.731,1.731-4.537,1.731-6.268,0l-26.982-26.981c-1.731-1.731-1.731-4.537,0-6.268l0,0
							C340.566,39.519,343.372,39.519,345.103,41.25z"/>
						<path style="fill:#EA792E;" d="M349.957,46.104l11.698,11.698c1.731,1.731,1.731,4.537,0,6.268l0,0
							c-1.731,1.731-4.537,1.731-6.268,0L343.69,52.372c-1.731-1.731-1.731-4.537,0-6.268l0,0
							C345.42,44.374,348.226,44.374,349.957,46.104z"/>
						<path style="fill:#EA792E;" d="M339.001,63.245l1.007,10.035c0.244,2.435-1.532,4.608-3.967,4.852l0,0
							c-2.435,0.244-4.608-1.532-4.852-3.967l-1.007-10.035c-0.244-2.435,1.532-4.608,3.967-4.852l0,0
							C336.584,59.034,338.756,60.81,339.001,63.245z"/>
					</g>
					<g>
						<path style="fill:#DD5E26;" d="M376.009,99.405c-6.592,6.593-17.319,6.593-23.912,0c-1.367-1.367-1.367-3.583,0-4.95
							c1.367-1.367,3.583-1.367,4.95,0c3.864,3.864,10.149,3.864,14.012,0c1.367-1.367,3.583-1.367,4.95,0
							C377.376,95.822,377.376,98.039,376.009,99.405z"/>
					</g>
				</g>
			</g>
			<g>
				<g>
					<path style="fill:#2E3140;" d="M177.722,175.321c0,3.55,1.44,6.75,3.76,9.07c2.32,2.32,5.54,3.76,9.08,3.76h29.76v-25.66
						h-29.76c-5.7,0-10.54,3.72-12.21,8.86C177.942,172.601,177.722,173.931,177.722,175.321z"/>
					<path style="fill:#334353;" d="M178.352,171.351c0.63,1.95,1.72,3.69,3.13,5.1c2.32,2.32,5.54,3.76,9.08,3.76h29.76v-17.72
						h-29.76C184.862,162.49,180.022,166.211,178.352,171.351z"/>
					<path style="fill:#3E4E60;" d="M195.355,180.211h13.213c2.647,0,4.792-2.146,4.792-4.792l0,0c0-2.647-2.146-4.792-4.792-4.792
						h-13.213c-2.647,0-4.792,2.146-4.792,4.792l0,0C190.562,178.065,192.708,180.211,195.355,180.211z"/>
				</g>
				<g>
					<path style="fill:#3E4E60;" d="M168.537,141.03v23.9c0,5.07,4.11,9.18,9.18,9.18c1.26,0,2.46-0.25,3.55-0.71
						c3.31-1.39,5.64-4.66,5.64-8.47v-23.9c0-3.81-2.33-7.08-5.64-8.48c-1.09-0.46-2.29-0.71-3.55-0.71c-2.53,0-4.83,1.03-6.49,2.69
						C169.567,136.2,168.537,138.49,168.537,141.03z"/>
					<path style="fill:#3F5D77;" d="M175.647,141.03v23.9c0,3.81,2.32,7.08,5.62,8.47c3.31-1.39,5.64-4.66,5.64-8.47v-23.9
						c0-3.81-2.33-7.08-5.64-8.48c-1.1,0.47-2.1,1.15-2.93,1.98C176.677,136.2,175.647,138.49,175.647,141.03z"/>
					<path style="fill:#3F6C8E;" d="M179.201,141.03L179.201,141.03c-1.963,0-3.554,1.591-3.554,3.554v16.792
						c0,1.963,1.591,3.554,3.554,3.554h0c1.963,0,3.554-1.591,3.554-3.554v-16.792C182.755,142.621,181.164,141.03,179.201,141.03z"
						/>
				</g>
				<g>
					<path style="fill:#C44A1A;" d="M149.018,120.09l16.9,16.9c3.585,3.585,9.398,3.585,12.983,0
						c0.891-0.891,1.563-1.916,2.008-3.013c1.358-3.323,0.693-7.283-2.001-9.977l-16.9-16.9c-2.694-2.694-6.654-3.359-9.984-2.008
						c-1.096,0.445-2.122,1.117-3.013,2.008c-1.789,1.789-2.687,4.144-2.687,6.492C146.331,115.946,147.222,118.294,149.018,120.09z
						"/>
					<path style="fill:#DD5E26;" d="M154.046,115.062l16.9,16.9c2.694,2.694,6.647,3.366,9.963,2.015
						c1.358-3.323,0.693-7.283-2.001-9.977l-16.9-16.9c-2.694-2.694-6.654-3.359-9.984-2.008c-0.446,1.11-0.672,2.298-0.672,3.472
						C151.359,110.918,152.25,113.266,154.046,115.062z"/>
					<path style="fill:#EA792E;" d="M156.559,112.549L156.559,112.549c-1.388,1.388-1.388,3.638,0,5.026l11.874,11.874
						c1.388,1.388,3.638,1.388,5.026,0v0c1.388-1.388,1.388-3.638,0-5.026l-11.874-11.874
						C160.196,111.162,157.946,111.162,156.559,112.549z"/>
				</g>
				<g>
					<g>
						<path style="fill:#DD5E26;" d="M163.719,103.41l9.962-9.962c8.483-8.483,13.249-19.989,13.249-31.987V42.377l-42.122,42.122
							L163.719,103.41z"/>
						<path style="fill:#C44A1A;" d="M163.548,69.852L163.548,69.852c8.747,8.747,9.601,22.919,1.441,32.216
							c-9.063,10.327-24.86,10.621-34.307,0.883c-8.8-9.07-8.31-24.163,0.626-33.099l26.171-26.171
							c9.055-9.055,21.337-14.142,34.143-14.142h0c3.01,0,4.517,3.639,2.389,5.767l-30.462,30.462
							C162.421,66.896,162.421,68.724,163.548,69.852z"/>
						<path style="fill:#DD5E26;" d="M166.897,41.25l-26.981,26.981c-1.731,1.731-1.731,4.537,0,6.268l0,0
							c1.731,1.731,4.537,1.731,6.268,0l26.981-26.981c1.731-1.731,1.731-4.537,0-6.268v0
							C171.434,39.519,168.628,39.519,166.897,41.25z"/>
						<path style="fill:#EA792E;" d="M162.043,46.104l-11.698,11.698c-1.731,1.731-1.731,4.537,0,6.268v0
							c1.731,1.731,4.537,1.731,6.268,0l11.698-11.698c1.731-1.731,1.731-4.537,0-6.268v0
							C166.58,44.374,163.774,44.374,162.043,46.104z"/>
						<path style="fill:#EA792E;" d="M172.999,63.245l-1.007,10.035c-0.244,2.435,1.532,4.608,3.967,4.852h0
							c2.435,0.244,4.608-1.532,4.852-3.967l1.007-10.035c0.244-2.435-1.532-4.608-3.967-4.852l0,0
							C175.416,59.034,173.244,60.81,172.999,63.245z"/>
					</g>
					<g>
						<path style="fill:#DD5E26;" d="M135.991,99.405c6.593,6.593,17.319,6.593,23.912,0c1.367-1.367,1.367-3.583,0-4.95
							c-1.367-1.367-3.583-1.367-4.95,0c-3.864,3.864-10.149,3.864-14.012,0c-1.367-1.367-3.583-1.367-4.95,0
							C134.624,95.822,134.624,98.039,135.991,99.405z"/>
					</g>
				</g>
			</g>
		</g>
		<g>
			<g>
				<g>
					<path style="fill:#746087;" d="M268.817,295.523h-25.634c-22.385,0-40.139-18.875-38.769-41.222l6.975-113.874h89.221
						l6.975,113.874C308.956,276.648,291.202,295.523,268.817,295.523z"/>
					<path style="fill:#9175A7;" d="M268.817,295.523H256V140.427h44.611l6.975,113.874
						C308.956,276.648,291.202,295.523,268.817,295.523z"/>
				</g>
				<g>
					<g>
						<path style="fill:#A583BB;" d="M281.859,184.951H256v-16.838h25.859c4.65,0,8.419,3.769,8.419,8.419v0
							C290.278,181.181,286.508,184.951,281.859,184.951z"/>
						<path style="fill:#A583BB;" d="M288.229,217.428H256V200.59h32.229c4.65,0,8.419,3.769,8.419,8.419v0
							C296.648,213.659,292.878,217.428,288.229,217.428z"/>
						<path style="fill:#A583BB;" d="M288.229,249.905H256v-16.838h32.229c4.65,0,8.419,3.769,8.419,8.419v0
							C296.648,246.136,292.878,249.905,288.229,249.905z"/>
						<path style="fill:#A583BB;" d="M275.488,282.383H256v-16.838h19.488c4.65,0,8.419,3.769,8.419,8.419v0
							C283.907,278.613,280.138,282.383,275.488,282.383z"/>
					</g>
					<g>
						<path style="fill:#9175A7;" d="M230.141,184.951H256v-16.838h-25.859c-4.65,0-8.419,3.769-8.419,8.419v0
							C221.722,181.181,225.492,184.951,230.141,184.951z"/>
						<path style="fill:#9175A7;" d="M223.771,217.428H256V200.59h-32.229c-4.65,0-8.419,3.769-8.419,8.419v0
							C215.352,213.659,219.122,217.428,223.771,217.428z"/>
						<path style="fill:#9175A7;" d="M223.771,249.905H256v-16.838h-32.229c-4.65,0-8.419,3.769-8.419,8.419v0
							C215.352,246.136,219.122,249.905,223.771,249.905z"/>
						<path style="fill:#9175A7;" d="M236.512,282.383H256v-16.838h-19.488c-4.65,0-8.419,3.769-8.419,8.419v0
							C228.093,278.613,231.862,282.383,236.512,282.383z"/>
					</g>
				</g>
			</g>
			<g>
				<g>
					<path style="fill:#9175A7;" d="M276.94,85.52v17.02h-13.25V85.52c0-2.96,1.95-5.47,4.63-6.31c0.63-0.2,1.3-0.31,2-0.31
						C273.98,78.9,276.94,81.86,276.94,85.52z"/>
					<path style="fill:#A583BB;" d="M276.94,85.52v10.7h-3.16c-3.02,0-5.46-2.44-5.46-5.46V79.21c0.63-0.2,1.3-0.31,2-0.31
						C273.98,78.9,276.94,81.86,276.94,85.52z"/>
				</g>
				<g>
					<path style="fill:#746087;" d="M248.31,85.52v17.02h-13.25V85.52c0-2.96,1.94-5.47,4.62-6.31c0.63-0.2,1.3-0.31,2-0.31
						C245.34,78.9,248.31,81.86,248.31,85.52z"/>
					<path style="fill:#9175A7;" d="M248.31,85.52v10.7h-3.17c-3.01,0-5.46-2.44-5.46-5.46V79.21c0.63-0.2,1.3-0.31,2-0.31
						C245.34,78.9,248.31,81.86,248.31,85.52z"/>
				</g>
			</g>
			<g>
				<g>
					<path style="fill:#9175A7;" d="M300.611,128.706v11.721c0,8.759-7.103,15.868-15.868,15.868h-57.485
						c-8.765,0-15.868-7.109-15.868-15.868v-11.721c0-15.83,12.836-28.666,28.666-28.666h31.889
						C287.775,100.04,300.611,112.876,300.611,128.706z"/>
					<path style="fill:#A583BB;" d="M300.611,128.706v11.721c0,8.759-7.103,15.868-15.868,15.868H256V100.04h15.945
						C287.775,100.04,300.611,112.876,300.611,128.706z"/>
				</g>
				<g>
					<g>
						<path style="fill:#2E3140;" d="M274.833,108.211c2.854,1.648,3.847,5.278,2.24,8.145c-0.01,0.026-0.024,0.05-0.038,0.075
							l-2.093,3.625c-4.267,6.776-14.155,1.014-10.426-6.02c0,0,2.093-3.625,2.093-3.625
							C268.274,107.533,271.953,106.548,274.833,108.211z"/>
						<path style="fill:#3E4E60;" d="M274.833,108.211c2.854,1.648,3.847,5.278,2.24,8.145c-3.765,2.107-9.335,1.441-12.866-1.701
							c0.113-0.353,2.179-3.832,2.402-4.244C268.274,107.533,271.953,106.548,274.833,108.211z"/>
						<path style="fill:#FFFFFF;" d="M269.605,110.655l-1.259,2.181c-0.542,0.939-0.22,2.14,0.719,2.683
							c0.939,0.542,2.14,0.22,2.683-0.719l1.259-2.181C274.244,110.343,270.957,108.444,269.605,110.655z"/>
					</g>
					<g>
						<path style="fill:#2E3140;" d="M237.167,108.211c-2.854,1.648-3.847,5.278-2.24,8.145c0.01,0.026,0.024,0.05,0.038,0.075
							l2.093,3.625c4.267,6.776,14.155,1.014,10.426-6.02c0,0-2.093-3.625-2.093-3.625
							C243.726,107.533,240.047,106.548,237.167,108.211z"/>
						<path style="fill:#3E4E60;" d="M237.167,108.211c-2.854,1.648-3.847,5.278-2.24,8.145c3.765,2.107,9.335,1.441,12.866-1.701
							c-0.113-0.353-2.179-3.832-2.402-4.244C243.726,107.533,240.047,106.548,237.167,108.211z"/>
						<path style="fill:#FFFFFF;" d="M242.395,110.655l1.259,2.181c0.542,0.939,0.22,2.14-0.719,2.683
							c-0.939,0.542-2.14,0.22-2.683-0.719l-1.259-2.181C237.756,110.343,241.043,108.444,242.395,110.655z"/>
					</g>
				</g>
			</g>
		</g>
	</g>
</g>
</svg>
