<?xml version="1.0" encoding="iso-8859-1"?>
<!-- Generator: Adobe Illustrator 22.0.1, SVG Export Plug-In . SVG Version: 6.00 Build 0)  -->
<svg version="1.1" id="Icons" xmlns="http://www.w3.org/2000/svg" xmlns:xlink="http://www.w3.org/1999/xlink" x="0px" y="0px"
	 viewBox="0 0 512 512" style="enable-background:new 0 0 512 512;" xml:space="preserve">
<g>
	<circle style="fill:#22BCE0;" cx="256" cy="256" r="256"/>
	<path style="fill:#4FCAE8;" d="M512,256c0,107.54-66.31,199.59-160.28,237.5C187.16,448.92,66.11,298.54,66.11,119.87
		c0-12.66,0.61-25.19,1.8-37.54C114.69,31.7,181.64,0,256,0C397.38,0,512,114.62,512,256z"/>
	<g>
		<g>
			<g>
				<g>
					<path style="fill:#F9C744;" d="M149.35,242.897l-18.39,26.685l-12.948-1.382l-31.406-3.349
						c-8.84-0.944-16.92-4.576-23.336-10.105c-7.068-6.065-12.14-14.428-14.058-24.036l-7.34-36.79
						c-1.334-6.669,5.87-11.76,11.712-8.265l7.087,4.235l30.978,18.517L149.35,242.897z"/>
					<path style="fill:#FBD9A3;" d="M63.27,254.745c-7.068-6.065-12.14-14.428-14.058-24.036l-7.34-36.79
						c-1.334-6.669,5.87-11.76,11.712-8.265l7.087,4.235l7.681,32.983C70.951,234.019,68.926,245.409,63.27,254.745z"/>
					<path style="fill:#F39E22;" d="M149.35,242.897l-18.39,26.685l-12.948-1.382c-10.183-6.046-17.67-16.219-20.094-28.378
						l-6.27-31.416L149.35,242.897z"/>
				</g>
				<g>
					<path style="fill:#FBD9A3;" d="M138.447,252.856c-0.515,0-1.038-0.117-1.529-0.365l-54.761-27.567
						c-1.681-0.846-2.358-2.894-1.511-4.575c0.845-1.681,2.892-2.359,4.575-1.511l54.761,27.567
						c1.681,0.846,2.358,2.894,1.511,4.575C140.895,252.169,139.694,252.856,138.447,252.856z"/>
				</g>
				<g>
					<path style="fill:#FBD9A3;" d="M134.711,264.926c-0.378,0-0.762-0.063-1.138-0.197l-51.022-18.082
						c-1.774-0.628-2.702-2.576-2.074-4.35c0.628-1.775,2.578-2.705,4.35-2.074l51.022,18.082c1.774,0.628,2.702,2.576,2.074,4.35
						C137.427,264.053,136.113,264.926,134.711,264.926z"/>
				</g>
			</g>
			<g>
				<g>
					<path style="fill:#F9C744;" d="M149.346,302.98l-18.39-26.685l-12.948,1.382l-31.406,3.349
						c-8.84,0.944-16.92,4.576-23.336,10.105c-7.068,6.065-12.14,14.428-14.058,24.036l-7.34,36.79
						c-1.334,6.669,5.87,11.76,11.712,8.265l7.087-4.235l30.978-18.517L149.346,302.98z"/>
					<path style="fill:#FBD9A3;" d="M63.267,291.132c-7.068,6.065-12.14,14.428-14.058,24.036l-7.34,36.79
						c-1.334,6.669,5.87,11.76,11.712,8.265l7.087-4.235l7.681-32.983C70.948,311.859,68.923,300.468,63.267,291.132z"/>
					<path style="fill:#F39E22;" d="M149.346,302.98l-18.39-26.685l-12.948,1.382c-10.183,6.046-17.67,16.219-20.094,28.378
						l-6.27,31.416L149.346,302.98z"/>
				</g>
				<g>
					<path style="fill:#FBD9A3;" d="M138.444,293.022c-0.515,0-1.038,0.117-1.529,0.365l-54.761,27.567
						c-1.681,0.846-2.358,2.894-1.511,4.575c0.845,1.681,2.892,2.359,4.575,1.511l54.761-27.567
						c1.681-0.846,2.358-2.894,1.511-4.575C140.891,293.709,139.691,293.022,138.444,293.022z"/>
				</g>
				<g>
					<path style="fill:#FBD9A3;" d="M134.708,280.951c-0.378,0-0.762,0.063-1.138,0.197L82.548,299.23
						c-1.774,0.628-2.702,2.576-2.074,4.35c0.628,1.775,2.578,2.705,4.35,2.074l51.022-18.082c1.774-0.628,2.702-2.576,2.074-4.35
						C137.424,281.824,136.11,280.951,134.708,280.951z"/>
				</g>
			</g>
			<g>
				<g>
					<path style="fill:#F9C744;" d="M322.327,220.204l-127.99,28.135l-10.115-34.424c-1.256-4.254-1.412-8.606-0.604-12.724
						c1.558-8.002,6.727-15.138,14.447-18.974l69.939-34.745c6.756-3.359,14.136-3.592,20.639-1.373
						c7.934,2.697,14.564,9.064,17.163,17.894L322.327,220.204z"/>
				</g>
				<g>
					<path style="fill:#FBD9A3;" d="M288.643,146.099c-1.558,8.012-6.727,15.148-14.447,18.974l-69.948,34.745
						c-6.756,3.359-14.136,3.592-20.629,1.373c1.558-8.002,6.727-15.138,14.447-18.974l69.939-34.745
						C274.76,144.113,282.139,143.879,288.643,146.099z"/>
				</g>
				<g>
					<path style="fill:#F39E22;" d="M207.451,214.143l69.94-34.742c14.994-7.448,33.077,0.453,37.798,16.515l16.526,56.218
						l-127.994,28.133l-10.12-34.427C189.92,233.313,195.758,219.951,207.451,214.143z"/>
				</g>
				<g>
					<g>
						<path style="fill:#FBD9A3;" d="M207.306,256.522c-1.473,0-2.831-0.963-3.268-2.448l-11.179-38.045
							c-0.531-1.805,0.503-3.699,2.308-4.23c1.808-0.53,3.699,0.502,4.23,2.308l11.179,38.045c0.53,1.805-0.503,3.699-2.308,4.23
							C207.948,256.477,207.624,256.522,207.306,256.522z"/>
					</g>
					<g>
						<path style="fill:#FBD9A3;" d="M221.326,249.174c-1.473,0-2.831-0.963-3.267-2.448l-11.178-38.045
							c-0.531-1.805,0.503-3.699,2.308-4.23c1.806-0.531,3.699,0.502,4.23,2.308l11.179,38.045c0.531,1.805-0.504,3.699-2.309,4.23
							C221.967,249.129,221.644,249.174,221.326,249.174z"/>
					</g>
					<g>
						<path style="fill:#FBD9A3;" d="M235.346,242.516c-1.473,0-2.831-0.963-3.268-2.448L220.9,202.023
							c-0.53-1.806,0.504-3.699,2.309-4.23c1.801-0.529,3.698,0.502,4.23,2.308l11.178,38.045c0.531,1.806-0.504,3.699-2.309,4.23
							C235.987,242.471,235.664,242.516,235.346,242.516z"/>
					</g>
					<g>
						<path style="fill:#FBD9A3;" d="M249.366,235.083c-1.473,0-2.831-0.963-3.268-2.448L234.92,194.59
							c-0.53-1.805,0.504-3.699,2.309-4.23c1.803-0.528,3.699,0.502,4.23,2.308l11.178,38.045c0.531,1.805-0.504,3.699-2.309,4.23
							C250.008,235.038,249.684,235.083,249.366,235.083z"/>
					</g>
					<g>
						<path style="fill:#FBD9A3;" d="M263.386,228.613c-1.473,0-2.831-0.963-3.268-2.448L248.94,188.12
							c-0.53-1.806,0.504-3.699,2.309-4.23c1.802-0.53,3.699,0.502,4.23,2.308l11.179,38.045c0.53,1.806-0.504,3.699-2.309,4.23
							C264.028,228.568,263.705,228.613,263.386,228.613z"/>
					</g>
					<g>
						<path style="fill:#FBD9A3;" d="M280.45,231.83c-1.473,0-2.831-0.963-3.268-2.448l-14.223-48.404
							c-0.531-1.805,0.504-3.699,2.309-4.23c1.803-0.529,3.699,0.502,4.23,2.308l14.223,48.404c0.531,1.805-0.504,3.699-2.309,4.23
							C281.092,231.785,280.769,231.83,280.45,231.83z"/>
					</g>
					<g>
						<path style="fill:#FBD9A3;" d="M295.898,230.151c-1.473,0-2.831-0.963-3.268-2.448l-15.65-53.262
							c-0.53-1.805,0.504-3.699,2.309-4.23c1.802-0.529,3.699,0.502,4.23,2.308l15.65,53.262c0.531,1.805-0.504,3.699-2.309,4.23
							C296.539,230.106,296.216,230.151,295.898,230.151z"/>
					</g>
					<g>
						<path style="fill:#FBD9A3;" d="M312.516,231.83c-1.473,0-2.831-0.963-3.268-2.448l-18.248-62.102
							c-0.531-1.805,0.503-3.699,2.309-4.23c1.804-0.529,3.699,0.502,4.23,2.308l18.248,62.102c0.53,1.805-0.503,3.699-2.309,4.23
							C313.158,231.785,312.835,231.83,312.516,231.83z"/>
					</g>
				</g>
			</g>
			<g>
				<g>
					<path style="fill:#F9C744;" d="M250.567,338.174l-64.91-35.094l-10.818,17.063c-1.34,2.108-2.1,4.439-2.302,6.793
						c-0.399,4.573,1.291,9.238,4.875,12.512l32.463,29.662c3.136,2.867,7.094,4.138,10.958,3.946
						c4.713-0.228,9.29-2.645,12.067-7.021L250.567,338.174z"/>
				</g>
				<g>
					<path style="fill:#FBD9A3;" d="M220.833,373.057c0.4-4.578-1.29-9.243-4.875-12.513l-32.468-29.663
						c-3.136-2.867-7.094-4.138-10.953-3.945c-0.399,4.573,1.291,9.238,4.875,12.512l32.463,29.662
						C213.011,371.977,216.969,373.249,220.833,373.057z"/>
				</g>
				<g>
					<path style="fill:#F39E22;" d="M187.448,323.625l32.464,29.661c6.96,6.359,17.974,4.889,23.022-3.072l17.671-27.864
						l-64.912-35.094l-10.821,17.063C180.934,310.527,182.02,318.666,187.448,323.625z"/>
				</g>
				<g>
					<g>
						<path style="fill:#FBD9A3;" d="M185.424,327.278c-0.624,0-1.255-0.171-1.821-0.53c-1.59-1.008-2.061-3.113-1.053-4.702
							l19.909-31.401c1.007-1.59,3.112-2.062,4.702-1.053c1.59,1.008,2.061,3.113,1.053,4.702l-19.909,31.401
							C187.656,326.718,186.552,327.278,185.424,327.278z"/>
					</g>
					<g>
						<path style="fill:#FBD9A3;" d="M198.427,339.211c-0.624,0-1.255-0.171-1.821-0.53c-1.59-1.008-2.061-3.113-1.053-4.702
							l18.842-29.719c1.007-1.59,3.111-2.062,4.702-1.053c1.59,1.008,2.061,3.113,1.053,4.702l-18.842,29.719
							C200.659,338.651,199.555,339.211,198.427,339.211z"/>
					</g>
					<g>
						<path style="fill:#FBD9A3;" d="M211.447,351.088c-0.624,0-1.255-0.171-1.821-0.53c-1.59-1.008-2.061-3.113-1.053-4.702
							l18.441-29.086c1.009-1.591,3.115-2.06,4.702-1.053c1.59,1.008,2.061,3.113,1.053,4.702l-18.441,29.086
							C213.679,350.528,212.575,351.088,211.447,351.088z"/>
					</g>
					<g>
						<path style="fill:#FBD9A3;" d="M224.501,362.844c-0.625,0-1.256-0.171-1.822-0.53c-1.59-1.008-2.061-3.113-1.053-4.702
							l16.738-26.4c1.009-1.591,3.115-2.06,4.702-1.053c1.59,1.008,2.061,3.113,1.053,4.702l-16.738,26.4
							C226.732,362.284,225.628,362.844,224.501,362.844z"/>
					</g>
				</g>
			</g>
			<g>
				<g>
					<path style="fill:#F9C744;" d="M329.988,342.723l-12.724,12.734c-0.759,0.769-1.412,1.616-1.928,2.541l-0.01,0.01
						c-1.022,1.791-1.577,3.826-1.577,5.929v26.042c0,0.545-0.039,1.071-0.107,1.597c-0.779,5.861-5.812,10.397-11.887,10.397
						h-19.51c-6.63,0-11.994-5.374-11.994-11.994v-37.812c0-6.62,5.364-11.994,11.994-11.994h11.4c2.385,0,4.702-0.711,6.649-2.006
						c0.652-0.428,1.266-0.935,1.83-1.499l10.904-10.904c4.683-4.683,12.276-4.683,16.959,0
						C334.671,330.447,334.671,338.041,329.988,342.723z"/>
				</g>
				<g>
					<path style="fill:#F39E22;" d="M329.988,342.723l-12.724,12.734c-0.759,0.769-1.412,1.616-1.928,2.541l-0.01,0.01
						c-1.022,1.791-1.577,3.826-1.577,5.929v15.995h-10.271c-6.64,0-12.033-5.384-12.033-12.033v-27.726h2.2
						c2.385,0,4.702-0.711,6.649-2.006c0.652-0.428,1.266-0.935,1.83-1.499l10.904-10.904c4.683-4.683,12.276-4.683,16.959,0
						C334.671,330.447,334.671,338.041,329.988,342.723z"/>
				</g>
				<g>
					<path style="fill:#FBD9A3;" d="M279.373,379.931c-0.872,0-1.744-0.333-2.409-0.998c-1.331-1.331-1.331-3.488,0-4.819
						l41.941-41.94c1.329-1.33,3.487-1.33,4.818,0c1.331,1.331,1.331,3.488,0,4.819l-41.941,41.94
						C281.118,379.598,280.245,379.931,279.373,379.931z"/>
				</g>
				<g>
					<path style="fill:#FBD9A3;" d="M300.296,338.167l-15.888,15.888c-0.672,0.672-1.538,1.003-2.414,1.003
						c-0.866,0-1.743-0.331-2.405-1.003c-1.334-1.324-1.334-3.485,0-4.819l9.064-9.064h4.994
						C296.032,340.173,298.349,339.462,300.296,338.167z"/>
				</g>
				<g>
					<path style="fill:#FBD9A3;" d="M315.327,358.008c-1.022,1.791-1.577,3.826-1.577,5.929v5.286l-21.612,21.603
						c-0.662,0.662-1.538,1.003-2.405,1.003c-0.876,0-1.743-0.341-2.414-1.003c-1.324-1.334-1.324-3.485,0-4.819L315.327,358.008z"
						/>
				</g>
				<g>
					<path style="fill:#FBD9A3;" d="M313.75,381.83v8.148c0,0.545-0.039,1.071-0.107,1.597l-4.615,4.615
						c-0.662,0.672-1.538,1.003-2.414,1.003c-0.866,0-1.743-0.331-2.405-1.003c-1.334-1.324-1.334-3.485,0-4.819L313.75,381.83z"/>
				</g>
				<path style="fill:#F9C744;" d="M336.366,334.457c0-7.914-6.416-20.719-14.33-20.719s-14.33,12.804-14.33,20.719
					c0,7.914,6.416,14.33,14.33,14.33S336.366,342.372,336.366,334.457z"/>
				<path style="fill:#FBD9A3;" d="M333.5,331.263c0-4.271-5.896-11.503-10.167-11.503c-4.271,0-5.3,7.232-5.3,11.503
					c0,4.271,3.462,7.733,7.733,7.733C330.038,338.996,333.5,335.534,333.5,331.263z"/>
			</g>
		</g>
		<g>
			<path style="fill:#EA792E;" d="M322.331,220.208h-79.955c-13.613,0-26.017,5.161-35.369,13.631
				c-10.374,9.395-24.231,13.962-38.078,11.929l-19.581-2.874c-9.692-1.423-18.387,6.09-18.387,15.885v28.316
				c0,9.795,8.696,17.308,18.387,15.885l19.581-2.874c13.847-2.033,27.705,2.534,38.078,11.929
				c9.352,8.47,21.757,13.631,35.369,13.631h79.955c29.121,0,97.814-8.555,97.814-37.676h0c-0.615-4.338-2.706-8.371-6.04-11.214
				c-4.417-3.767-7.767-8.683-9.845-14.201C394.331,236.208,348.216,220.208,322.331,220.208z"/>
			<g>
				<g>
					<path style="fill:#F39E22;" d="M349.729,288.139c0-11.689,2.254-25.378,6.162-38.269c2.209-7.286-6.894-12.666-12.123-7.132
						c-11.407,12.071-18.946,31.286-18.946,45.925c0,14.139,7.033,20.715,17.791,23.686c5.296,1.463,10.252-3.429,8.855-8.742
						C350.337,299.307,349.729,294.201,349.729,288.139z"/>
					<path style="fill:#F9C744;" d="M343.819,285.15c0-6.889,1.329-14.957,3.632-22.555c1.302-4.295-4.063-7.465-7.145-4.203
						c-6.723,7.115-11.167,18.44-11.167,27.068c0,8.333,4.145,12.209,10.486,13.96c3.121,0.862,6.042-2.021,5.219-5.152
						C344.177,291.732,343.819,288.723,343.819,285.15z"/>
					<circle style="fill:#FBD9A3;" cx="336.693" cy="283.109" r="7.514"/>
				</g>
				<g>
					<path style="fill:#F39E22;" d="M147.761,269.579h43.102c4.247,0,7.69-3.443,7.69-7.69v0c0-3.814-2.795-7.051-6.568-7.608
						l-43.102-6.355c-4.644-0.685-8.812,2.914-8.812,7.608v6.355C140.071,266.136,143.514,269.579,147.761,269.579z"/>
					<path style="fill:#FBD9A3;" d="M149.752,271.946c-0.242-0.001-0.486-0.009-0.732-0.023
						c-6.237-0.356-11.495-5.192-12.322-11.384c-1.085-8.123,5.208-15.063,13.118-15.063c0.019,0,0.037,0,0.056,0
						c1.853,0.008,2.709,2.328,1.36,3.598c-2.562,2.413-4.162,5.84-4.162,9.641c0,3.797,1.596,7.216,4.154,9.626
						C152.614,269.651,151.661,271.954,149.752,271.946z"/>
					<path style="fill:#F9C744;" d="M170.448,271.946c-0.221-0.001-0.443-0.008-0.666-0.021c-5.679-0.324-10.467-4.728-11.22-10.366
						c-0.988-7.397,4.742-13.717,11.945-13.717c0.017,0,0.034,0,0.051,0c1.687,0.007,2.467,2.12,1.239,3.277
						c-2.333,2.197-3.79,5.318-3.79,8.779c0,3.458,1.453,6.571,3.782,8.766C173.054,269.856,172.186,271.954,170.448,271.946z"/>
					<path style="fill:#F9C744;" d="M188.569,271.946c-0.191-0.001-0.383-0.007-0.577-0.018c-4.914-0.281-9.057-4.091-9.708-8.969
						c-0.855-6.4,4.103-11.868,10.335-11.868c0.015,0,0.029,0,0.044,0c1.46,0.006,2.134,1.834,1.072,2.835
						c-2.019,1.901-3.279,4.602-3.279,7.596c0,2.992,1.258,5.686,3.273,7.584C190.824,270.137,190.073,271.953,188.569,271.946z"/>
					<path style="fill:#F39E22;" d="M149.752,273.929c-0.242,0.001-0.486,0.009-0.732,0.023
						c-6.237,0.356-11.495,5.192-12.322,11.384c-1.085,8.123,5.208,15.063,13.118,15.063c0.019,0,0.037,0,0.056,0
						c1.853-0.008,2.709-2.328,1.36-3.598c-2.562-2.413-4.162-5.84-4.162-9.641c0-3.797,1.596-7.216,4.154-9.626
						C152.614,276.224,151.661,273.92,149.752,273.929z"/>
					<path style="fill:#F39E22;" d="M170.448,273.929c-0.221,0.001-0.443,0.008-0.666,0.021c-5.679,0.324-10.467,4.728-11.22,10.366
						c-0.988,7.397,4.742,13.717,11.945,13.717c0.017,0,0.034,0,0.051,0c1.687-0.007,2.467-2.12,1.239-3.277
						c-2.333-2.197-3.79-5.318-3.79-8.779c0-3.458,1.453-6.571,3.782-8.766C173.054,276.019,172.186,273.921,170.448,273.929z"/>
					<path style="fill:#F39E22;" d="M188.569,273.929c-0.191,0.001-0.383,0.007-0.577,0.018c-4.914,0.281-9.057,4.091-9.708,8.969
						c-0.855,6.4,4.103,11.868,10.335,11.868c0.015,0,0.029,0,0.044,0c1.46-0.006,2.134-1.834,1.072-2.835
						c-2.019-1.901-3.279-4.602-3.279-7.596c0-2.992,1.258-5.686,3.273-7.584C190.824,275.737,190.073,273.922,188.569,273.929z"/>
				</g>
				<g>
					<path style="fill:#F39E22;" d="M302.838,263.938h7.295c9.36,0,17.308-7.659,17.133-17.017
						c-0.17-9.075-7.58-16.379-16.695-16.379h-62.655c-0.187,0-0.368,0.022-0.553,0.028c-10.1-0.451-19.85,5.387-23.901,15.28
						l-11.143,27.21c-5.157,12.592,0.871,26.981,13.464,32.138l13.896,5.69c12.592,5.157,26.981-0.871,32.137-13.464l6.285-16.454
						C282.019,270.713,291.859,263.938,302.838,263.938z"/>
					<path style="fill:#F9C744;" d="M305.825,257.047h-58.507c-7.312,0-13.239-5.927-13.239-13.239v0
						c0-7.312,5.927-13.239,13.239-13.239h58.507c7.312,0,13.239,5.927,13.239,13.239v0
						C319.064,251.12,313.137,257.047,305.825,257.047z"/>
					<path style="fill:#FBD9A3;" d="M247.252,257.043c-0.242-0.001-0.486-0.009-0.732-0.023
						c-6.237-0.356-11.495-5.192-12.322-11.384c-1.085-8.123,5.208-15.063,13.118-15.063c0.019,0,0.037,0,0.056,0
						c1.853,0.008,2.709,2.328,1.36,3.598c-2.562,2.413-4.162,5.84-4.162,9.641c0,3.797,1.596,7.216,4.154,9.626
						C250.113,254.748,249.161,257.051,247.252,257.043z"/>
					<path style="fill:#FBD9A3;" d="M274.535,257.043c-0.242-0.001-0.486-0.009-0.732-0.023
						c-6.237-0.356-11.495-5.192-12.322-11.384c-1.085-8.123,5.208-15.063,13.118-15.063c0.019,0,0.037,0,0.056,0
						c1.853,0.008,2.709,2.328,1.36,3.598c-2.562,2.413-4.162,5.84-4.162,9.641c0,3.797,1.596,7.216,4.154,9.626
						C277.397,254.748,276.444,257.051,274.535,257.043z"/>
					<path style="fill:#F9C744;" d="M234.303,294.956c-0.242-0.001-0.486-0.009-0.732-0.023
						c-6.237-0.356-11.495-5.192-12.322-11.384c-1.085-8.123,5.208-15.063,13.118-15.063c0.019,0,0.037,0,0.056,0
						c1.853,0.008,2.709,2.328,1.36,3.598c-2.562,2.413-4.162,5.84-4.162,9.641c0,3.797,1.596,7.216,4.154,9.626
						C237.164,292.661,236.211,294.965,234.303,294.956z"/>
					<path style="fill:#F9C744;" d="M261.586,294.956c-0.242-0.001-0.486-0.009-0.732-0.023
						c-6.237-0.356-11.495-5.192-12.322-11.384c-1.085-8.123,5.208-15.063,13.118-15.063c0.019,0,0.037,0,0.056,0
						c1.853,0.008,2.709,2.328,1.36,3.598c-2.562,2.413-4.162,5.84-4.162,9.641c0,3.797,1.596,7.216,4.154,9.626
						C264.448,292.661,263.495,294.965,261.586,294.956z"/>
					<path style="fill:#FBD9A3;" d="M301.818,257.043c-0.242-0.001-0.486-0.009-0.732-0.023
						c-6.237-0.356-11.495-5.192-12.322-11.384c-1.085-8.123,5.208-15.063,13.118-15.063c0.019,0,0.037,0,0.056,0
						c1.853,0.008,2.709,2.328,1.36,3.598c-2.562,2.413-4.162,5.84-4.162,9.641c0,3.797,1.596,7.216,4.154,9.626
						C304.68,254.748,303.727,257.051,301.818,257.043z"/>
				</g>
				<path style="fill:#F39E22;" d="M301.876,274.327L301.876,274.327c-8.603,0-15.577,6.974-15.577,15.577v10.084
					c0,8.603,6.974,15.577,15.577,15.577h0c8.603,0,15.577-6.974,15.577-15.577v-10.084
					C317.453,281.301,310.479,274.327,301.876,274.327z"/>
				<g>
					<path style="fill:#F39E22;" d="M395.306,307.681L395.306,307.681c1.444,0,2.845-0.514,3.972-1.458l14.659-12.276
						c3.061-2.563,3.183-7.382,0.256-10.111l-4.944-4.61c-2.97-2.769-7.62-2.032-9.67,1.531l-9.714,16.886
						C387.324,302.059,390.371,307.681,395.306,307.681z"/>
					<circle style="fill:#F9C744;" cx="403.893" cy="289.516" r="7.38"/>
				</g>
			</g>
		</g>
		<g>
			<path style="fill:#F39E22;" d="M397.701,271.656c0,11.517-9.353,20.87-20.87,20.87c-11.532,0-20.87-9.353-20.87-20.87
				c0-3.123,0.683-6.085,1.917-8.743c3.311-7.16,10.544-12.127,18.953-12.127c8.395,0,15.642,4.967,18.953,12.127
				C397.018,265.571,397.701,268.534,397.701,271.656z"/>
			<ellipse style="fill:#FBD9A3;" cx="376.83" cy="262.913" rx="18.953" ry="12.127"/>
			<path style="fill:#3F5D77;" d="M390.018,271.656c0,5.679-3.602,10.53-8.642,12.389c-1.423,0.508-2.948,0.799-4.546,0.799
				c-7.291,0-13.187-5.911-13.187-13.188c0-7.291,5.897-13.187,13.187-13.187c1.598,0,3.123,0.29,4.546,0.799
				C386.416,261.127,390.018,265.963,390.018,271.656z"/>
			<ellipse style="fill:#2E3140;" cx="381.376" cy="271.656" rx="8.642" ry="12.389"/>
			<circle style="fill:#83D5EF;" cx="376.826" cy="268.544" r="6.5"/>
		</g>
	</g>
	<g>
		<g>
			<circle style="fill:#83D5EF;" cx="450.383" cy="280.266" r="15.694"/>
			<circle style="fill:#CDE6F6;" cx="452.848" cy="276.033" r="8.811"/>
		</g>
		<g>
			<circle style="fill:#83D5EF;" cx="424.506" cy="207.626" r="23.875"/>
			<circle style="fill:#CDE6F6;" cx="428.256" cy="201.186" r="13.404"/>
		</g>
		<g>
			<path style="fill:#83D5EF;" d="M483.71,138.92c-4.34,12.18-15.97,20.89-29.63,20.89c-17.37,0-31.46-14.08-31.46-31.45
				c0-17.38,14.09-31.46,31.46-31.46c0.87,0,1.72,0.03,2.57,0.1c1.38,1.74,2.74,3.51,4.08,5.29c5.46,7.26,10.54,14.82,15.21,22.65
				C478.68,129.51,481.27,134.17,483.71,138.92z"/>
			<path style="fill:#CDE6F6;" d="M475.94,124.94c-2.18,7.28-8.93,12.59-16.92,12.59c-9.75,0-17.66-7.91-17.66-17.66
				s7.91-17.66,17.66-17.66c0.58,0,1.15,0.03,1.71,0.08C466.19,109.55,471.27,117.11,475.94,124.94z"/>
		</g>
		<g>
			<circle style="fill:#83D5EF;" cx="353.782" cy="88.416" r="31.455"/>
			<circle style="fill:#CDE6F6;" cx="358.722" cy="79.93" r="17.659"/>
		</g>
		<g>
			<path style="fill:#83D5EF;" d="M319.86,8.03c-10.79-2.77-21.86-4.86-33.15-6.2c-5.89-0.71-11.84-1.22-17.85-1.51
				c-0.66,2.53-1.01,5.19-1.01,7.93c0,17.38,14.09,31.46,31.46,31.46c16.42,0,29.91-12.59,31.33-28.65
				C327.08,9.97,323.48,8.96,319.86,8.03z"/>
			<path style="fill:#CDE6F6;" d="M319.86,8.03c-2.96,5.59-8.84,9.4-15.61,9.4c-9.05,0-16.52-6.82-17.54-15.6
				C298,3.17,309.07,5.26,319.86,8.03z"/>
		</g>
	</g>
</g>
</svg>
