<?xml version="1.0" encoding="iso-8859-1"?>
<!-- Generator: Adobe Illustrator 22.0.1, SVG Export Plug-In . SVG Version: 6.00 Build 0)  -->
<svg version="1.1" id="Icons" xmlns="http://www.w3.org/2000/svg" xmlns:xlink="http://www.w3.org/1999/xlink" x="0px" y="0px"
	 viewBox="0 0 512 512" style="enable-background:new 0 0 512 512;" xml:space="preserve">
<g>
	<circle style="fill:#6C53A2;" cx="256" cy="256" r="256"/>
	<g>
		<g>
			<path style="fill:#F39E22;" d="M473.108,153.895l-85.146-85.146c-9.113-9.113-23.888-9.113-33.001,0l-43.797,43.797
				c-7.658-2.991-15.775-5.025-24.224-5.926c-3.33-0.36-6.72-0.54-10.14-0.54h-41.6c-12.106,0-23.685,2.294-34.364,6.466
				l-43.797-43.797c-9.113-9.113-23.888-9.113-33.001,0l-85.146,85.146c-9.113,9.113-9.113,23.888,0,33.001h0
				c9.113,9.113,23.888,9.113,33.001,0l7.758-7.758c9.113-9.113,23.888-9.113,33.001,0l24.251,24.251
				c-8.77,39.755-24.422,106.46-24.422,106.46c-8.01,43.76,25.59,84.07,70.07,84.07h146.9c44.48,0,78.08-40.31,70.07-84.07
				c0,0-15.652-66.705-24.422-106.46l24.251-24.251c9.113-9.113,23.888-9.113,33.001,0l7.758,7.758
				c9.113,9.113,23.888,9.113,33.001,0h0C482.221,177.783,482.221,163.008,473.108,153.895z"/>
			<path style="fill:#DD8C29;" d="M235.2,106.08c-3.42,0-6.81,0.18-10.14,0.54c-8.447,0.891-16.59,2.902-24.285,5.865
				l-43.736-43.736c-9.113-9.113-23.888-9.113-33.001,0l-85.146,85.146c-9.113,9.113-9.113,23.888,0,33.001h0
				c9.113,9.113,23.888,9.113,33.001,0l7.758-7.758c9.113-9.113,23.888-9.113,33.001,0l24.061,24.061L112.48,309.85
				c-8.01,43.76,25.59,84.07,70.07,84.07H256V106.08H235.2z"/>
			<path style="fill:#DD8C29;" d="M308.263,156.234h-10.319c-8.591,0-15.556,6.965-15.556,15.556v13.833
				c0,8.591,6.965,15.556,15.556,15.556h10.319c8.591,0,15.556-6.965,15.556-15.556V171.79
				C323.819,163.199,316.854,156.234,308.263,156.234z"/>
			<path style="fill:#B26E2B;" d="M214.056,156.234h-10.319c-8.591,0-15.556,6.965-15.556,15.556v13.833
				c0,8.591,6.965,15.556,15.556,15.556h10.319c8.591,0,15.556-6.965,15.556-15.556V171.79
				C229.612,163.199,222.647,156.234,214.056,156.234z"/>
			<path style="fill:#F9C744;" d="M286.94,106.62v30.15c0,8.55-6.93,15.47-15.47,15.47c-4.27,0-8.14-1.73-10.94-4.53
				c-2.8-2.8-4.53-6.67-4.53-10.94v-30.69h20.8C280.22,106.08,283.61,106.26,286.94,106.62z"/>
			<path style="fill:#F39E22;" d="M256,106.08v30.69c0,8.55-6.93,15.47-15.47,15.47c-4.27,0-8.14-1.73-10.94-4.53
				c-2.8-2.8-4.53-6.67-4.53-10.94v-30.15c3.33-0.36,6.72-0.54,10.14-0.54H256z"/>
			<path style="fill:#F9C744;" d="M365.273,334.454l-15.917,1.994c-8.772,1.099-16.773-5.121-17.872-13.893l-4.533-36.192
				c-1.099-8.772,5.121-16.773,13.893-17.872l10.448-1.309c7.855-0.984,15.25,3.922,17.396,11.542l10.002,35.507
				C381.345,323.658,374.989,333.237,365.273,334.454z"/>
			<path style="fill:#F39E22;" d="M146.727,334.454l15.917,1.994c8.772,1.099,16.773-5.121,17.872-13.893l4.533-36.192
				c1.099-8.772-5.121-16.773-13.893-17.872l-10.448-1.309c-7.855-0.984-15.25,3.922-17.396,11.542l-10.002,35.507
				C130.655,323.658,137.011,333.237,146.727,334.454z"/>
		</g>
		<g>
			<g>
				<path style="fill:#BF5E39;" d="M354.344,228.408c-1.207-13.791-17.858-23.6-31.649-22.393s-23.993,13.365-22.786,27.156
					c1.207,13.791,12.596,15.202,26.387,13.995C340.087,245.96,355.551,242.199,354.344,228.408z"/>
				<path style="fill:#334353;" d="M338.201,222.005l0.696,7.96c0.316,3.616-0.862,7.012-3.017,9.579
					c-1.145,1.365-2.562,2.493-4.189,3.298c-1.433,0.718-3.028,1.188-4.721,1.337c-7.222,0.632-13.592-4.703-14.223-11.926
					l-0.696-7.96c-0.631-7.212,4.714-13.583,11.936-14.214c1.694-0.148,3.346,0.039,4.882,0.496
					C333.888,212.063,337.718,216.486,338.201,222.005z"/>
				<path style="fill:#2E3140;" d="M338.201,222.005l0.696,7.96c0.316,3.616-0.862,7.012-3.017,9.579
					c-1.145,1.365-2.562,2.493-4.189,3.298c-5.019-1.488-8.848-5.901-9.332-11.43l-0.696-7.96
					c-0.483-5.519,2.521-10.54,7.205-12.877C333.888,212.063,337.718,216.486,338.201,222.005z"/>
				<path style="fill:#FFFFFF;" d="M343.503,222.135c-0.328-3.744-3.628-6.513-7.372-6.186c-8.958,1.133-7.83,13.998,1.186,13.558
					C341.061,229.18,343.831,225.879,343.503,222.135z"/>
			</g>
			<g>
				<path style="fill:#BF5E39;" d="M157.656,228.408c1.207-13.791,17.858-23.6,31.649-22.393
					c13.791,1.207,23.993,13.365,22.786,27.156c-1.207,13.791-12.596,15.202-26.387,13.995
					C171.913,245.96,156.449,242.199,157.656,228.408z"/>
				<path style="fill:#334353;" d="M173.799,222.005l-0.696,7.96c-0.316,3.616,0.862,7.012,3.017,9.579
					c1.145,1.365,2.562,2.493,4.189,3.298c1.433,0.718,3.028,1.188,4.721,1.337c7.222,0.632,13.592-4.703,14.223-11.926l0.696-7.96
					c0.631-7.212-4.714-13.583-11.936-14.214c-1.694-0.148-3.346,0.039-4.882,0.496
					C178.112,212.063,174.282,216.486,173.799,222.005z"/>
				<path style="fill:#2E3140;" d="M199.951,224.293l-0.696,7.96c-0.316,3.616-2.067,6.756-4.634,8.91
					c-1.365,1.145-2.956,2.01-4.698,2.52c-4.684-2.337-7.689-7.348-7.205-12.877l0.696-7.96c0.483-5.519,4.313-9.942,9.332-11.43
					C197.43,213.753,200.434,218.774,199.951,224.293z"/>
				<path style="fill:#FFFFFF;" d="M205.15,225.342c0.328-3.744-2.442-7.044-6.186-7.372c-9.018-0.439-10.141,12.426-1.186,13.558
					C201.522,231.855,204.823,229.086,205.15,225.342z"/>
			</g>
		</g>
		<g>
			<path style="fill:#F39E22;" d="M312.28,402.05c-9.24,14.94-25.78,25.07-44.94,25.07h-22.68c-31.88,0-56.49-28.03-52.37-59.64
				l19.69-121.03c1.45-11.12,10.93-19.43,22.14-19.43h43.76c11.21,0,20.69,8.31,22.14,19.43l19.69,121.03
				C321.35,380.09,318.42,392.13,312.28,402.05z"/>
			<path style="fill:#F9C744;" d="M312.28,402.05H249.7c-20.21,0-35.81-17.77-33.2-37.81l21.8-137.22h39.58
				c11.21,0,20.69,8.31,22.14,19.43l19.69,121.03C321.35,380.09,318.42,392.13,312.28,402.05z"/>
			<g>
				<path style="fill:#2E3140;" d="M271.151,317.7h-30.302c-13.637,0-23.844,12.511-21.105,25.87l3.506,17.102
					c2.055,10.022,10.874,17.217,21.105,17.217h23.291c10.231,0,19.051-7.195,21.105-17.217l3.506-17.102
					C294.995,330.211,284.789,317.7,271.151,317.7z"/>
				<path style="fill:#334353;" d="M271.997,323.768h-31.995c-9.1,0-16.477,7.377-16.477,16.477v1.95
					c0,9.1,7.377,16.477,16.477,16.477h31.995c9.1,0,16.477-7.377,16.477-16.477v-1.95
					C288.474,331.145,281.097,323.768,271.997,323.768z"/>
				<path style="fill:#3F5D77;" d="M277.051,331.735h-42.102c-3.632,0-6.576,2.944-6.576,6.576l0,0c0,3.632,2.944,6.576,6.576,6.576
					h42.102c3.632,0,6.576-2.944,6.576-6.576l0,0C283.626,334.679,280.682,331.735,277.051,331.735z"/>
				<path style="fill:#FFFFFF;" d="M268.268,331.735H257.24c-3.632,0-6.576,2.944-6.576,6.576l0,0c0,3.632,2.944,6.576,6.576,6.576
					h11.028c3.632,0,6.576-2.944,6.576-6.576l0,0C274.844,334.679,271.9,331.735,268.268,331.735z"/>
			</g>
			<path style="fill:#FAD98F;" d="M280.601,293.344h-12.314c-6.786,0-12.287-5.501-12.287-12.287v-27.999
				c0-6.786,5.501-12.287,12.287-12.287h8.083c6.077,0,11.241,4.442,12.149,10.451l4.231,27.999
				C293.873,286.654,288.118,293.344,280.601,293.344z"/>
			<g>
				<path style="fill:#ED72AB;" d="M275.07,495.66h-38.14c-15.55,0-27.12-14.38-23.79-29.58l7.61-34.67l5.9-26.9l29.35-8l29.35,8
					l5.91,26.91l7.6,34.66C302.19,481.28,290.62,495.66,275.07,495.66z"/>
				<path style="fill:#E063A2;" d="M291.26,431.42l-5.91-26.91l-29.35-8l-29.35,8l-5.9,26.9c7.707-8.34,18.334-13.926,30.25-15.159
					v68.681c0,2.761,2.239,5,5,5s5-2.239,5-5v-68.68C272.916,417.486,283.544,423.08,291.26,431.42z"/>
				<path style="fill:#F0A6B3;" d="M261,441.28v32.018c0,6.064,4.915,10.979,10.979,10.979h7.026
					c7.012,0,12.227-6.483,10.724-13.332l-7.026-32.018c-0.832-3.794-3.608-6.865-7.298-8.078l0,0
					C268.305,428.517,261,433.807,261,441.28z"/>
				<path style="fill:#F0A6B3;" d="M251,441.28v32.018c0,6.064-4.915,10.979-10.979,10.979h-7.026
					c-7.012,0-12.227-6.483-10.724-13.332l7.026-32.018c0.832-3.794,3.607-6.865,7.298-8.078h0
					C243.695,428.517,251,433.807,251,441.28z"/>
				<path style="fill:#FFFFFF;" d="M278.755,478.508L278.755,478.508c-4.11,0.679-7.993-2.102-8.672-6.213l-3.392-20.526
					c-0.679-4.11,2.102-7.993,6.213-8.672l0,0c4.11-0.679,7.993,2.102,8.672,6.213l3.392,20.526
					C285.647,473.946,282.866,477.829,278.755,478.508z"/>
			</g>
			<path style="fill:#B26E2B;" d="M288.474,410.399c-4.782,0-10.855-2.066-17.285-4.253c-5.466-1.859-11.635-3.958-15.06-3.878
				c-2.699,0.069-7.708,2.026-12.127,3.752c-5.765,2.252-11.21,4.379-15.629,4.379c-7.836,0-30.375-9.927-34.813-11.917
				c-2.52-1.13-3.646-4.088-2.517-6.608c1.13-2.52,4.089-3.647,6.608-2.517c12.109,5.427,26.911,11.042,30.723,11.042
				c2.535,0,7.558-1.962,11.99-3.693c5.687-2.222,11.058-4.32,15.507-4.435c5.188-0.142,11.671,2.072,18.539,4.408
				c5.126,1.744,10.938,3.72,14.065,3.72c2.911-0.047,15.585-5.679,25.595-10.91c2.448-1.278,5.469-0.332,6.747,2.115
				c1.279,2.447,0.333,5.468-2.115,6.747C313.294,401.177,295.136,410.399,288.474,410.399z"/>
		</g>
		<g>
			<path style="fill:#F9C744;" d="M439.092,168.676l-60.212-60.211c-6.737-6.737-6.737-17.661,0-24.398l0,0
				c6.737-6.737,17.661-6.737,24.398,0l60.211,60.211c6.737,6.737,6.737,17.661,0,24.398l0,0
				C456.753,175.413,445.83,175.413,439.092,168.676z"/>
			<path style="fill:#DD8C29;" d="M396.358,143.147l-29.321-29.321c-4.947-4.947-12.969-4.947-17.916,0l-15.818,15.818
				c-4.947,4.947-4.947,12.969,0,17.916l29.321,29.321c4.947,4.947,12.969,4.947,17.916,0l15.818-15.818
				C401.305,156.116,401.305,148.094,396.358,143.147z"/>
			<path style="fill:#F39E22;" d="M72.908,168.676l60.211-60.211c6.737-6.737,6.737-17.661,0-24.398l0,0
				c-6.737-6.737-17.661-6.737-24.398,0L48.51,144.278c-6.737,6.737-6.737,17.661,0,24.398l0,0
				C55.247,175.413,66.17,175.413,72.908,168.676z"/>
			<path style="fill:#B26E2B;" d="M115.642,143.147l29.321-29.321c4.947-4.947,12.969-4.947,17.916,0l15.818,15.818
				c4.947,4.947,4.947,12.969,0,17.916l-29.321,29.321c-4.947,4.947-12.969,4.947-17.916,0l-15.818-15.818
				C110.695,156.116,110.695,148.094,115.642,143.147z"/>
		</g>
		<g>
			<g>
				<path style="fill:#FAD98F;" d="M295.319,379.963c-1.928,0-3.494-1.56-3.5-3.489c-0.006-1.933,1.556-3.505,3.489-3.511
					l33.717-0.104c0.003,0,0.007,0,0.011,0c1.928,0,3.494,1.56,3.5,3.489c0.006,1.933-1.556,3.505-3.489,3.511l-33.717,0.104
					C295.326,379.963,295.322,379.963,295.319,379.963z"/>
				<path style="fill:#F9C744;" d="M218.681,379.963c1.928,0,3.494-1.56,3.5-3.489c0.006-1.933-1.556-3.505-3.489-3.511
					l-33.717-0.104c-0.003,0-0.007,0-0.011,0c-1.928,0-3.494,1.56-3.5,3.489c-0.006,1.933,1.556,3.505,3.489,3.511l33.717,0.104
					C218.674,379.963,218.678,379.963,218.681,379.963z"/>
			</g>
			<g>
				<path style="fill:#FAD98F;" d="M310.192,361.545c-1.899,0.335-3.712-0.93-4.053-2.828c-0.341-1.903,0.924-3.722,2.827-4.063
					l33.187-5.957c0.003-0.001,0.007-0.001,0.011-0.002c1.899-0.335,3.712,0.93,4.053,2.828c0.341,1.903-0.924,3.722-2.827,4.063
					l-33.187,5.957C310.199,361.544,310.195,361.544,310.192,361.545z"/>
				<path style="fill:#F9C744;" d="M203.808,361.545c1.899,0.335,3.712-0.93,4.053-2.828c0.341-1.903-0.924-3.722-2.827-4.063
					l-33.187-5.957c-0.003-0.001-0.007-0.001-0.011-0.002c-1.899-0.335-3.712,0.93-4.053,2.828
					c-0.341,1.903,0.924,3.722,2.827,4.063l33.187,5.957C203.801,361.544,203.805,361.544,203.808,361.545z"/>
			</g>
		</g>
	</g>
</g>
</svg>
