<?xml version="1.0" encoding="iso-8859-1"?>
<!-- Generator: Adobe Illustrator 22.0.1, SVG Export Plug-In . SVG Version: 6.00 Build 0)  -->
<svg version="1.1" id="Icons" xmlns="http://www.w3.org/2000/svg" xmlns:xlink="http://www.w3.org/1999/xlink" x="0px" y="0px"
	 viewBox="0 0 512 512" style="enable-background:new 0 0 512 512;" xml:space="preserve">
<g>
	<circle style="fill:#EA792E;" cx="256" cy="256" r="256"/>
	<g>
		<g>
			<g>
				<g>
					<path style="fill:#DECEE5;" d="M288.723,309.275v96.908c0,9.038-3.666,17.211-9.585,23.138
						c-5.919,5.919-14.108,9.585-23.138,9.585c-18.068,0-32.723-14.655-32.723-32.723v-96.908c0-18.077,14.655-32.724,32.723-32.724
						S288.723,291.198,288.723,309.275z"/>
					<path style="fill:#F4E6F4;" d="M288.723,309.275v96.908c0,9.038-3.666,17.211-9.585,23.138
						c-5.919,5.919-14.108,9.585-23.138,9.585V276.551C274.068,276.551,288.723,291.198,288.723,309.275z"/>
				</g>
				<g>
					<g>
						<path style="fill:#DECEE5;" d="M280.024,352.732H256v9.993h24.024c2.76,0,4.997-2.237,4.997-4.997l0,0
							C285.02,354.969,282.783,352.732,280.024,352.732z"/>
						<path style="fill:#DECEE5;" d="M280.024,373.049H256v9.993h24.024c2.76,0,4.997-2.237,4.997-4.997l0,0
							C285.02,375.286,282.783,373.049,280.024,373.049z"/>
						<path style="fill:#DECEE5;" d="M280.024,393.366H256v9.993h24.024c2.76,0,4.997-2.237,4.997-4.997v0
							C285.02,395.603,282.783,393.366,280.024,393.366z"/>
						<path style="fill:#DECEE5;" d="M280.024,332.415H256v9.993h24.024c2.76,0,4.997-2.237,4.997-4.997v0
							C285.02,334.652,282.783,332.415,280.024,332.415z"/>
						<path style="fill:#DECEE5;" d="M280.024,312.098H256v9.993h24.024c2.76,0,4.997-2.237,4.997-4.997l0,0
							C285.02,314.335,282.783,312.098,280.024,312.098z"/>
						<path style="fill:#DECEE5;" d="M271.616,291.781H256v9.993h15.616c2.76,0,4.997-2.237,4.997-4.997v0
							C276.612,294.018,274.375,291.781,271.616,291.781z"/>
						<path style="fill:#DECEE5;" d="M271.616,413.683H256v9.993h15.616c2.76,0,4.997-2.237,4.997-4.997l0,0
							C276.612,415.92,274.375,413.683,271.616,413.683z"/>
					</g>
					<g>
						<path style="fill:#C2AACF;" d="M231.976,362.725H256v-9.993h-24.024c-2.76,0-4.997,2.237-4.997,4.997l0,0
							C226.98,360.488,229.217,362.725,231.976,362.725z"/>
						<path style="fill:#C2AACF;" d="M231.976,342.408H256v-9.993h-24.024c-2.76,0-4.997,2.237-4.997,4.997v0
							C226.98,340.171,229.217,342.408,231.976,342.408z"/>
						<path style="fill:#C2AACF;" d="M231.976,322.091H256v-9.993h-24.024c-2.76,0-4.997,2.237-4.997,4.997l0,0
							C226.98,319.854,229.217,322.091,231.976,322.091z"/>
						<path style="fill:#C2AACF;" d="M231.976,383.042H256v-9.993h-24.024c-2.76,0-4.997,2.237-4.997,4.997l0,0
							C226.98,380.805,229.217,383.042,231.976,383.042z"/>
						<path style="fill:#C2AACF;" d="M231.976,403.359H256v-9.993h-24.024c-2.76,0-4.997,2.237-4.997,4.997v0
							C226.98,401.122,229.217,403.359,231.976,403.359z"/>
						<path style="fill:#C2AACF;" d="M240.384,423.676H256v-9.993h-15.616c-2.76,0-4.997,2.237-4.997,4.997l0,0
							C235.388,421.439,237.625,423.676,240.384,423.676z"/>
						<path style="fill:#C2AACF;" d="M240.384,301.775H256v-9.993h-15.616c-2.76,0-4.997,2.237-4.997,4.997v0
							C235.388,299.537,237.625,301.775,240.384,301.775z"/>
					</g>
				</g>
			</g>
			<g>
				<g>
					<path style="fill:#C2AACF;" d="M279.945,217.856v34.75c0,6.617-2.682,12.604-7.012,16.933
						c-4.338,4.33-10.325,7.012-16.933,7.012c-13.226,0-23.945-10.72-23.945-23.945v-34.75c0-13.225,10.72-23.945,23.945-23.945
						C269.225,193.911,279.945,204.631,279.945,217.856z"/>
					<path style="fill:#DECEE5;" d="M279.945,217.856v34.75c0,6.617-2.682,12.604-7.012,16.933
						c-4.338,4.33-10.325,7.012-16.933,7.012v-82.64C269.225,193.911,279.945,204.631,279.945,217.856z"/>
				</g>
				<g>
					<path style="fill:#F4E6F4;" d="M256,259.948L256,259.948l0-55.432h0c9.036,0,16.362,7.325,16.362,16.362v22.709
						C272.362,252.623,265.036,259.948,256,259.948z"/>
					<path style="fill:#DECEE5;" d="M256,204.516L256,204.516l0,55.432h0c-9.036,0-16.362-7.325-16.362-16.362v-22.709
						C239.638,211.841,246.964,204.516,256,204.516z"/>
				</g>
			</g>
			<g>
				<path style="fill:#DECEE5;" d="M284.788,168.477v5.372c0,11.082-8.98,20.061-20.061,20.061h-17.455
					c-11.082,0-20.061-8.98-20.061-20.061v-5.372c0-11.082,8.98-20.07,20.061-20.07h17.455
					C275.809,148.408,284.788,157.395,284.788,168.477z"/>
				<path style="fill:#F4E6F4;" d="M284.788,168.477v5.372c0,11.082-8.98,20.061-20.061,20.061H256v-45.503h8.727
					C275.809,148.408,284.788,157.395,284.788,168.477z"/>
				<g>
					<path style="fill:#3F5D77;" d="M288.723,168.216v7.029c0,3.363-1.362,6.398-3.556,8.601c-1.026,1.026-2.22,1.867-3.556,2.464
						c-1.53,0.706-3.245,1.101-5.045,1.101c-6.718,0-12.158-5.448-12.158-12.166v-7.029c0-6.718,5.44-12.158,12.158-12.158
						c1.799,0,3.514,0.395,5.045,1.101C285.806,159.068,288.723,163.298,288.723,168.216z"/>
					<path style="fill:#3F6C8E;" d="M288.723,168.216v7.029c0,3.363-1.362,6.398-3.556,8.601c-1.026,1.026-2.22,1.867-3.556,2.464
						c-4.195-1.909-7.113-6.146-7.113-11.065v-7.029c0-4.919,2.918-9.148,7.113-11.057
						C285.806,159.068,288.723,163.298,288.723,168.216z"/>
				</g>
				<g>
					<path style="fill:#3F5D77;" d="M223.277,175.253v-7.029c0-3.363,1.362-6.398,3.557-8.601c1.026-1.026,2.22-1.867,3.556-2.464
						c1.53-0.706,3.245-1.101,5.045-1.101c6.718,0,12.158,5.448,12.158,12.166v7.029c0,6.718-5.44,12.158-12.158,12.158
						c-1.799,0-3.514-0.395-5.045-1.101C226.194,184.401,223.277,180.172,223.277,175.253z"/>
					<path style="fill:#3F6C8E;" d="M223.277,175.253v-7.029c0-3.363,1.362-6.398,3.557-8.601c1.026-1.026,2.22-1.867,3.556-2.464
						c4.196,1.909,7.113,6.146,7.113,11.065v7.029c0,4.919-2.917,9.148-7.113,11.057
						C226.194,184.401,223.277,180.172,223.277,175.253z"/>
				</g>
				<g>
					<g>
						<path style="fill:#DECEE5;" d="M262.01,156.971L262.01,156.971c-1.494-0.567-2.246-2.237-1.679-3.731l18.754-49.443
							c0.567-1.494,2.237-2.246,3.731-1.679v0c1.494,0.567,2.246,2.237,1.679,3.731l-18.754,49.443
							C265.175,156.786,263.504,157.537,262.01,156.971z"/>
						<circle style="fill:#F4E6F4;" cx="282.817" cy="102.118" r="6.886"/>
					</g>
					<g>
						<path style="fill:#C2AACF;" d="M249.99,156.971L249.99,156.971c1.494-0.567,2.246-2.237,1.679-3.731l-18.754-49.443
							c-0.567-1.494-2.237-2.246-3.731-1.679v0c-1.494,0.567-2.246,2.237-1.679,3.731l18.754,49.443
							C246.825,156.786,248.496,157.537,249.99,156.971z"/>
						<circle style="fill:#DECEE5;" cx="229.183" cy="102.118" r="6.886"/>
					</g>
				</g>
			</g>
		</g>
		<g>
			<g>
				<g>
					<path style="fill:#FBCB74;" d="M414.203,317.656v19.195c0,15.145-11.209,27.684-25.789,29.735
						c-1.382,0.199-2.794,0.304-4.239,0.304h-23.026c-18.693,0-35.795-10.54-44.199-27.244l-41.583-82.6
						c-0.921-1.842-1.402-3.873-1.402-5.924c0-3.642,1.476-6.939,3.862-9.315c2.386-2.386,5.683-3.862,9.315-3.862h39.353
						c7.933,0,15.752,1.235,23.183,3.59c11.597,3.673,22.262,10.089,31.022,18.85l16.704,16.715
						C408.164,287.859,414.203,302.448,414.203,317.656z"/>
					<path style="fill:#FBD9A3;" d="M414.203,317.656v19.195c0,15.145-11.209,27.684-25.789,29.735
						c-24.606-29.944-39.384-68.272-39.384-110.043c0-5.055,0.22-10.069,0.649-15.008c11.597,3.673,22.262,10.089,31.022,18.85
						l16.704,16.715C408.164,287.859,414.203,302.448,414.203,317.656z"/>
					<g>
						<path style="fill:#3F6C8E;" d="M357.166,282.824L357.166,282.824c-10.873,0-19.687,8.814-19.687,19.687v16.895
							c0,10.873,8.814,19.687,19.687,19.687h0c10.873,0,19.687-8.814,19.687-19.687V302.51
							C376.853,291.638,368.039,282.824,357.166,282.824z"/>
						<path style="fill:#3F5D77;" d="M368.142,335.752c-3.134,2.108-6.918,3.34-10.978,3.34c-10.869,0-19.689-8.81-19.689-19.689
							v-16.89c0-8.78,5.745-16.21,13.678-18.753C354.06,302.227,359.884,319.719,368.142,335.752z"/>
					</g>
				</g>
				<g>
					<path style="fill:#FBD9A3;" d="M477.587,160.39l-6.761,66.199c-1.832,17.918-12.12,32.686-26.312,41.08
						c-11.607,6.866-25.82,9.462-40.149,6.018l-55.293-13.282l-60.37-14.506c-7.431-1.79-12.664-8.426-12.664-16.066
						c0-3.349,1.015-6.541,2.815-9.21c1.79-2.669,4.364-4.815,7.462-6.081l79.45-32.404l24.345-9.933l66.848-27.264
						C467.455,140.661,478.738,149.107,477.587,160.39z"/>
					<path style="fill:#FAEFDC;" d="M477.587,160.39l-6.761,66.199c-1.832,17.918-12.12,32.686-26.312,41.08
						c-11.607,6.866-25.82,9.462-40.149,6.018l-55.293-13.282c-0.031-1.287-0.042-2.575-0.042-3.862
						c0-26.626,6.008-51.86,16.736-74.405l24.345-9.933l66.848-27.264C467.455,140.661,478.738,149.107,477.587,160.39z"/>
					<path style="fill:#3F6C8E;" d="M477.587,160.39l-6.761,66.199c-1.832,17.918-12.12,32.686-26.312,41.08v-65.596
						c0-16.495-13.372-29.867-29.867-29.867H390.11l66.848-27.264C467.455,140.661,478.738,149.107,477.587,160.39z"/>
					<path style="fill:#3F6C8E;" d="M406.056,191.963L406.056,191.963c-8.807,0-15.946,7.139-15.946,15.946v12.926
						c0,8.807,7.139,15.946,15.946,15.946h0c8.807,0,15.946-7.139,15.946-15.946V207.91
						C422.002,199.103,414.863,191.963,406.056,191.963z"/>
				</g>
			</g>
			<g>
				<g>
					<path style="fill:#F9C744;" d="M97.797,317.656v19.195c0,15.145,11.209,27.684,25.789,29.735
						c1.381,0.199,2.794,0.304,4.239,0.304h23.026c18.693,0,35.795-10.54,44.199-27.244l41.583-82.6
						c0.921-1.842,1.402-3.873,1.402-5.924c0-3.642-1.476-6.939-3.862-9.315c-2.386-2.386-5.683-3.862-9.315-3.862h-39.353
						c-7.933,0-15.752,1.235-23.183,3.59c-11.597,3.673-22.262,10.089-31.022,18.85l-16.704,16.715
						C103.836,287.859,97.797,302.448,97.797,317.656z"/>
					<path style="fill:#FBCB74;" d="M97.797,317.656v19.195c0,15.145,11.209,27.684,25.789,29.735
						c24.606-29.944,39.384-68.272,39.384-110.043c0-5.055-0.22-10.069-0.649-15.008c-11.597,3.673-22.262,10.089-31.022,18.85
						l-16.704,16.715C103.836,287.859,97.797,302.448,97.797,317.656z"/>
					<g>
						<path style="fill:#3F6C8E;" d="M154.837,282.824L154.837,282.824c10.873,0,19.687,8.814,19.687,19.687v16.895
							c0,10.873-8.814,19.687-19.687,19.687h0c-10.873,0-19.687-8.814-19.687-19.687V302.51
							C135.151,291.638,143.965,282.824,154.837,282.824z"/>
						<path style="fill:#3F5D77;" d="M143.861,335.752c3.134,2.108,6.918,3.34,10.978,3.34c10.869,0,19.689-8.81,19.689-19.689
							v-16.89c0-8.78-5.745-16.21-13.678-18.753C157.943,302.227,152.119,319.719,143.861,335.752z"/>
					</g>
				</g>
				<g>
					<path style="fill:#FBCB74;" d="M34.413,160.39l6.761,66.199c1.832,17.918,12.12,32.686,26.312,41.08
						c11.607,6.866,25.82,9.462,40.149,6.018l55.293-13.282l60.37-14.506c7.431-1.79,12.664-8.426,12.664-16.066
						c0-3.349-1.015-6.541-2.815-9.21c-1.79-2.669-4.364-4.815-7.462-6.081l-79.45-32.404l-24.345-9.933l-66.848-27.264
						C44.545,140.661,33.262,149.107,34.413,160.39z"/>
					<path style="fill:#FBD9A3;" d="M34.413,160.39l6.761,66.199c1.832,17.918,12.12,32.686,26.312,41.08
						c11.607,6.866,25.82,9.462,40.149,6.018l55.293-13.282c0.031-1.287,0.042-2.575,0.042-3.862
						c0-26.626-6.008-51.86-16.736-74.405l-24.345-9.933l-66.848-27.264C44.545,140.661,33.262,149.107,34.413,160.39z"/>
					<path style="fill:#3F5D77;" d="M34.413,160.39l6.761,66.199c1.832,17.918,12.12,32.686,26.312,41.08v-65.596
						c0-16.495,13.372-29.867,29.867-29.867h24.537l-66.848-27.264C44.545,140.661,33.262,149.107,34.413,160.39z"/>
					<path style="fill:#3F5D77;" d="M105.944,191.963L105.944,191.963c8.807,0,15.946,7.139,15.946,15.946v12.926
						c0,8.807-7.139,15.946-15.946,15.946h0c-8.807,0-15.946-7.139-15.946-15.946V207.91
						C89.998,199.103,97.137,191.963,105.944,191.963z"/>
				</g>
			</g>
		</g>
	</g>
</g>
</svg>
