<?xml version="1.0" encoding="iso-8859-1"?>
<!-- Generator: Adobe Illustrator 22.0.1, SVG Export Plug-In . SVG Version: 6.00 Build 0)  -->
<svg version="1.1" id="Icons" xmlns="http://www.w3.org/2000/svg" xmlns:xlink="http://www.w3.org/1999/xlink" x="0px" y="0px"
	 viewBox="0 0 512 512" style="enable-background:new 0 0 512 512;" xml:space="preserve">
<g>
	<circle style="fill:#EA792E;" cx="256" cy="256" r="256"/>
	<g>
		<g>
			<g>
				<path style="fill:#C2AACF;" d="M493.901,220.17c-1.83,7.59-5.71,14.79-11.65,20.73l-96.68,96.68
					c-17.19,17.19-45.06,17.19-62.25,0l-80.13-80.13c-3.24-3.24-5.87-6.85-7.89-10.7c-8.69-16.61-6.06-37.6,7.89-51.55l96.68-96.68
					c17.19-17.19,45.06-17.19,62.25,0l80.13,80.13C493.511,189.91,497.391,205.75,493.901,220.17z"/>
				<path style="fill:#A583BB;" d="M493.901,220.17c-1.83,7.59-5.71,14.79-11.65,20.73l-96.68,96.68
					c-17.19,17.19-45.06,17.19-62.25,0l-80.13-80.13c-3.24-3.24-5.87-6.85-7.89-10.7l51.33-51.33c50.4-50.4,132.12-50.4,182.53,0
					L493.901,220.17z"/>
			</g>
			<g>
				<path style="fill:#A583BB;" d="M18.099,220.17c1.83,7.59,5.71,14.79,11.65,20.73l96.68,96.68c17.19,17.19,45.06,17.19,62.25,0
					l80.13-80.13c3.24-3.24,5.87-6.85,7.89-10.7c8.69-16.61,6.06-37.6-7.89-51.55l-96.68-96.68c-17.19-17.19-45.06-17.19-62.25,0
					l-80.13,80.13C18.489,189.91,14.609,205.75,18.099,220.17z"/>
				<path style="fill:#9175A7;" d="M18.099,220.17c1.83,7.59,5.71,14.79,11.65,20.73l96.68,96.68c17.19,17.19,45.06,17.19,62.25,0
					l80.13-80.13c3.24-3.24,5.87-6.85,7.89-10.7l-51.33-51.33c-50.4-50.4-132.12-50.4-182.53,0L18.099,220.17z"/>
			</g>
			<g>
				<circle style="fill:#DECEE5;" cx="371.677" cy="116.69" r="22.941"/>
				<circle style="fill:#C2AACF;" cx="140.323" cy="116.69" r="22.941"/>
			</g>
		</g>
		<g>
			<path style="fill:#C2AACF;" d="M356.69,202.14l-15.7,115.73c-2.53,18.67-18.48,32.6-37.32,32.6h-95.34
				c-18.84,0-34.79-13.93-37.32-32.6l-15.7-115.73c-2.03-14.92,1.23-29.21,8.24-41.12c11.08-18.83,31.54-31.69,55.35-31.69h74.2
				c23.81,0,44.27,12.86,55.34,31.68C355.46,172.92,358.72,187.21,356.69,202.14z"/>
			<path style="fill:#DECEE5;" d="M356.69,202.14l-15.7,115.73c-2.53,18.67-18.48,32.6-37.32,32.6H256V129.33h37.1
				C331.97,129.33,361.92,163.62,356.69,202.14z"/>
		</g>
		<g>
			<g>
				<path style="fill:#C2AACF;" d="M327.974,263.161c-8.144,8.144-21.371,8.144-29.515,0c-8.154-8.154-8.144-21.371,0-29.515
					c2.208-2.208,4.786-3.82,7.538-4.827c7.405-2.722,16.031-1.119,21.977,4.827c5.936,5.936,7.548,14.573,4.827,21.977
					C331.795,258.375,330.182,260.953,327.974,263.161z"/>
				
					<ellipse transform="matrix(0.7071 -0.7071 0.7071 0.7071 -77.7263 296.7932)" style="fill:#EBD9EA;" cx="319.399" cy="242.221" rx="12.127" ry="18.953"/>
				<path style="fill:#3F5D77;" d="M326.404,248.403c0,5.679-3.602,10.53-8.642,12.389c-1.423,0.508-2.948,0.799-4.546,0.799
					c-7.291,0-13.187-5.911-13.187-13.188c0-7.291,5.897-13.187,13.187-13.187c1.598,0,3.123,0.29,4.546,0.799
					C322.802,237.873,326.404,242.71,326.404,248.403z"/>
				<ellipse style="fill:#2E3140;" cx="317.762" cy="248.403" rx="8.642" ry="12.389"/>
				<circle style="fill:#83D5EF;" cx="313.213" cy="245.291" r="6.5"/>
			</g>
			<g>
				<path style="fill:#A583BB;" d="M212.748,263.161c-8.144,8.144-21.371,8.144-29.515,0c-8.154-8.154-8.144-21.371,0-29.515
					c2.208-2.208,4.786-3.82,7.538-4.827c7.405-2.722,16.031-1.119,21.977,4.827c5.936,5.936,7.548,14.573,4.827,21.977
					C216.568,258.375,214.956,260.953,212.748,263.161z"/>
				
					<ellipse transform="matrix(0.7071 -0.7071 0.7071 0.7071 -111.4752 215.3159)" style="fill:#DECEE5;" cx="204.172" cy="242.221" rx="12.127" ry="18.953"/>
				<path style="fill:#3F5D77;" d="M211.177,248.403c0,5.679-3.602,10.53-8.641,12.389c-1.423,0.508-2.948,0.799-4.546,0.799
					c-7.291,0-13.187-5.911-13.187-13.188c0-7.291,5.897-13.187,13.187-13.187c1.598,0,3.123,0.29,4.546,0.799
					C207.576,237.873,211.177,242.71,211.177,248.403z"/>
				<ellipse style="fill:#2E3140;" cx="202.536" cy="248.403" rx="8.642" ry="12.389"/>
				<circle style="fill:#83D5EF;" cx="197.986" cy="245.291" r="6.5"/>
			</g>
		</g>
		<g>
			<g>
				<path style="fill:#C2AACF;" d="M377.75,396.51v10.37c0,33.77-27.38,61.15-61.15,61.15H256c-24.32,0-44.03-19.71-44.03-44.03
					v-85.06c0.002-24.32,19.713-44.03,44.03-44.03c24.32,0,44.03,19.72,44.03,44.03v62.97c0,9.69,7.85,17.54,17.54,17.54h7.55
					c9.69,0,17.54-7.85,17.54-17.54v-5.4c0-4.85,1.96-9.23,5.14-12.4C358.595,373.153,377.809,380.917,377.75,396.51z"/>
				<path style="fill:#DECEE5;" d="M360.2,378.97v16.871c0,22.041-17.868,39.909-39.909,39.909h-24.383
					c-22.041,0-39.909-17.868-39.909-39.909V294.91c24.32,0,44.03,19.72,44.03,44.03v62.97c0,9.687,7.853,17.54,17.54,17.54h7.55
					c9.687,0,17.54-7.853,17.54-17.54v-5.4C342.655,386.82,350.524,378.971,360.2,378.97z"/>
			</g>
			<g>
				<g>
					<path style="fill:#A583BB;" d="M275.772,408.456l-3.645-1.504c-5.163-2.134-10.642-3.201-16.127-3.201
						c-5.486,0-10.964,1.067-16.127,3.201l-3.645,1.504c-4.01,1.661-7.655-3.029-5.056-6.517l7.305-9.782
						c4.376-5.858,10.95-8.78,17.524-8.78c6.574,0,13.148,2.922,17.524,8.78l7.305,9.782
						C283.428,405.427,279.783,410.117,275.772,408.456z"/>
					<path style="fill:#C2AACF;" d="M275.772,408.456l-3.645-1.504c-5.163-2.134-9.824-3.201-15.31-3.201L256,383.377
						c6.574,0,13.148,2.922,17.524,8.78l7.305,9.782C283.428,405.427,279.783,410.117,275.772,408.456z"/>
				</g>
				<g>
					<path style="fill:#A583BB;" d="M279,377.937l-4.24-1.749c-6.006-2.482-12.379-3.724-18.76-3.724
						c-6.381,0-12.754,1.241-18.76,3.724l-4.24,1.749c-4.665,1.933-8.905-3.524-5.881-7.581l8.497-11.379
						c5.09-6.814,12.737-10.213,20.384-10.213c7.647,0,15.295,3.399,20.384,10.213l8.497,11.379
						C287.905,374.413,283.665,379.869,279,377.937z"/>
					<path style="fill:#C2AACF;" d="M279,377.937l-4.24-1.749c-6.006-2.482-12.379-3.724-18.76-3.724v-23.7
						c7.647,0,15.295,3.399,20.384,10.213l8.497,11.379C287.905,374.413,283.665,379.869,279,377.937z"/>
				</g>
				<g>
					<path style="fill:#A583BB;" d="M283.61,345.318l-5.09-2.1c-7.21-2.98-14.86-4.47-22.52-4.47s-15.31,1.49-22.52,4.47l-5.09,2.1
						c-5.6,2.32-10.69-4.23-7.06-9.1l10.2-13.66c6.11-8.18,15.29-12.26,24.47-12.26s18.36,4.08,24.47,12.26l10.2,13.66
						C294.3,341.088,289.21,347.638,283.61,345.318z"/>
					<path style="fill:#C2AACF;" d="M283.61,345.318l-5.09-2.1c-7.21-2.98-14.86-4.47-22.52-4.47v-28.45
						c9.18,0,18.36,4.08,24.47,12.26l10.2,13.66C294.3,341.088,289.21,347.638,283.61,345.318z"/>
				</g>
				<g>
					<path style="fill:#A583BB;" d="M286.59,306.8l-5.639-2.327c-7.988-3.302-16.464-4.952-24.951-4.952s-16.963,1.651-24.951,4.952
						l-5.639,2.327c-6.205,2.57-11.844-4.687-7.822-10.082l11.301-15.134C235.658,272.52,245.829,268,256,268
						c10.171,0,20.342,4.52,27.111,13.583l11.301,15.134C298.434,302.114,292.795,309.371,286.59,306.8z"/>
					<path style="fill:#C2AACF;" d="M286.59,306.8l-5.639-2.327c-7.988-3.302-16.464-4.952-24.951-4.952V268
						c10.171,0,20.342,4.52,27.111,13.583l11.301,15.134C298.434,302.114,292.795,309.371,286.59,306.8z"/>
				</g>
			</g>
		</g>
		<g>
			<g>
				<path style="fill:#FFFFFF;" d="M329.82,325.18c0,0.47-0.02,0.95-0.07,1.43l-5.85,61.01c-0.32,3.35-2,6.27-4.47,8.22
					c-2.05,1.64-4.64,2.6-7.44,2.6c-6.6,0-11.96-5.36-11.96-11.96v-61.29c0-8.22,6.67-14.89,14.89-14.89c2.73,0,5.28,0.73,7.46,1.99
					C326.85,314.89,329.82,319.72,329.82,325.18z"/>
				<path style="fill:#F4E6F4;" d="M329.82,325.18c0,0.47-0.02,0.95-0.07,1.43l-5.85,61.01c-0.32,3.35-2,6.27-4.47,8.22
					c-2.75-2.2-4.51-5.57-4.51-9.36v-61.29c0-5.51,3-10.33,7.46-12.9C326.85,314.89,329.82,319.72,329.82,325.18z"/>
			</g>
			<g>
				<path style="fill:#F4E6F4;" d="M182.18,325.18c0,0.47,0.02,0.95,0.07,1.43l5.85,61.01c0.32,3.35,2,6.27,4.47,8.22
					c2.05,1.64,4.64,2.6,7.44,2.6c6.6,0,11.96-5.36,11.96-11.96v-61.29c0-8.22-6.67-14.89-14.89-14.89c-2.73,0-5.28,0.73-7.46,1.99
					C185.15,314.89,182.18,319.72,182.18,325.18z"/>
				<path style="fill:#EBD9EA;" d="M182.18,325.18c0,0.47,0.02,0.95,0.07,1.43l5.85,61.01c0.32,3.35,2,6.27,4.47,8.22
					c2.75-2.2,4.51-5.57,4.51-9.36v-61.29c0-5.51-3-10.33-7.46-12.9C185.15,314.89,182.18,319.72,182.18,325.18z"/>
			</g>
		</g>
		<g>
			<path style="fill:#EBD9EA;" d="M256,129.33h37.1c23.81,0,44.27,12.86,55.34,31.68l-0.29,0.967
				c-8.351,27.833-33.969,46.893-63.027,46.893H256V129.33z"/>
			<path style="fill:#DECEE5;" d="M256,129.33h-37.1c-23.81,0-44.27,12.86-55.34,31.68l0.29,0.967
				c8.351,27.833,33.969,46.893,63.027,46.893H256L256,129.33z"/>
		</g>
	</g>
</g>
</svg>
