<?xml version="1.0" encoding="iso-8859-1"?>
<!-- Generator: Adobe Illustrator 22.0.1, SVG Export Plug-In . SVG Version: 6.00 Build 0)  -->
<svg version="1.1" id="Icons" xmlns="http://www.w3.org/2000/svg" xmlns:xlink="http://www.w3.org/1999/xlink" x="0px" y="0px"
	 viewBox="0 0 512 512" style="enable-background:new 0 0 512 512;" xml:space="preserve">
<g>
	<circle style="fill:#22BCE0;" cx="256" cy="256" r="256"/>
	<g>
		<g>
			<g>
				<g>
					<g>
						<g>
							<path style="fill:#3E4E60;" d="M297.202,293.047l47.84,47.84c2.647,2.63,2.581,6.941,0.005,9.482
								c-2.62,2.62-6.867,2.62-9.487,0l-47.84-47.84L297.202,293.047z"/>
							<path style="fill:#3F5D77;" d="M291.422,298.827l47.84,47.84c1.961,1.961,4.842,2.453,7.26,1.48
								c0.973-2.419,0.482-5.299-1.48-7.26l-47.84-47.84L291.422,298.827z"/>
							<path style="fill:#3F6C8E;" d="M339.319,342.959c-1.04,1.04-2.726,1.04-3.765,0l-16.088-16.088
								c-1.04-1.04-1.04-2.726,0-3.765c1.04-1.04,2.726-1.04,3.765,0l16.088,16.088
								C340.358,340.233,340.358,341.919,339.319,342.959z"/>
						</g>
						<g>
							<path style="fill:#B26E2B;" d="M341.289,404.054c-1.881-1.881-2.909-4.591-2.5-7.466l6.324-44.804
								c0.171-1.193,1.188-2.085,2.398-2.079c1.21-0.006,2.227,0.886,2.398,2.08c0.469,3.366,5.705,40.361,6.324,44.803
								C357.428,404.997,347.063,409.93,341.289,404.054z"/>
							<path style="fill:#C68132;" d="M347.986,404.065c-1.891-1.878-2.928-4.596-2.517-7.484l3.245-23.018
								c0.347-2.472,3.926-2.472,4.273,0c0.801,5.713,2.455,17.364,3.25,23.024C357.152,401.11,352.633,408.066,347.986,404.065z"/>
							<path style="fill:#DD8C29;" d="M351.356,399.9c-4.397-4.167-2.38-12.065,3.42-13.66l1.46,10.347
								c0.279,1.983-0.119,3.881-1.011,5.489C353.811,401.73,352.464,401.008,351.356,399.9z"/>
						</g>
						<g>
							<g>
								<path style="fill:#3E4E60;" d="M377.075,442.595c0.761-0.761,0.761-1.996,0-2.757l-7.99-7.99l-2.757,2.757l7.99,7.99
									C375.08,443.357,376.314,443.357,377.075,442.595z"/>
								<path style="fill:#3E4E60;" d="M372.02,447.651c0.761-0.761,0.761-1.996,0-2.757l-7.99-7.99l-2.757,2.757l7.99,7.99
									C370.024,448.412,371.258,448.412,372.02,447.651z"/>
							</g>
							<path style="fill:#3E4E60;" d="M369.36,434.824c-0.93,0.939-4.062,4.069-5.047,5.054c-1.314,1.314-3.441,1.314-4.755,0
								l-2.496-2.495c-6.227-6.609,3.067-15.994,9.746-9.746c0,0,2.495,2.495,2.495,2.495
								C370.598,431.424,370.618,433.51,369.36,434.824z"/>
							<path style="fill:#3E4E60;" d="M359.559,425.14c-1.389,1.397-3.586,3.58-4.991,4.991c-1.314,1.314-3.441,1.314-4.755,0
								l-2.496-2.495c-6.226-6.607,3.068-15.991,9.746-9.739c0,0,2.495,2.496,2.495,2.496
								C360.873,421.699,360.873,423.827,359.559,425.14z"/>
							<path style="fill:#3E4E60;" d="M349.813,415.394c-1.39,1.404-3.581,3.583-4.991,4.998c-1.314,1.307-3.441,1.307-4.748,0
								l-2.503-2.496c-6.225-6.608,3.065-16,9.746-9.746c0,0,2.495,2.495,2.495,2.495
								C351.127,411.96,351.127,414.087,349.813,415.394z"/>
							<path style="fill:#3F5D77;" d="M367.957,436.239c-1.312,1.303-3.446,1.303-4.748,0l-2.502-2.502
								c-2.045-2.045-2.541-5.058-1.465-7.57c2.513-1.104,5.609-0.51,7.565,1.47c0,0,2.497,2.497,2.497,2.497
								c1.302,1.306,1.313,3.427,0.015,4.733C369.318,434.868,367.957,436.239,367.957,436.239z"/>
							<path style="fill:#3F5D77;" d="M359.561,425.14l-1.352,1.352c-1.308,1.308-3.436,1.312-4.748,0l-2.497-2.497
								c-2.045-2.045-2.536-5.063-1.47-7.575c2.513-1.087,5.616-0.511,7.57,1.475c0,0,2.497,2.497,2.497,2.497
								C360.876,421.705,360.864,423.839,359.561,425.14z"/>
							<path style="fill:#3F5D77;" d="M348.472,416.744c-1.317,1.299-3.435,1.326-4.758,0c0,0-2.497-2.497-2.497-2.497
								c-2.04-2.04-2.531-5.058-1.47-7.575c2.515-1.08,5.617-0.507,7.57,1.475c0,0,2.497,2.497,2.497,2.497
								c1.31,1.309,1.308,3.444,0,4.748L348.472,416.744z"/>
							<g>
								<path style="fill:#3F6C8E;" d="M350.128,414.016c-1.578,1.578-4.144,1.578-5.727-0.005
									c-2.206-2.087-1.124-6.054,1.799-6.764c0.861,0.48,2.867,2.705,3.613,3.396
									C350.709,411.579,351.288,413.116,350.128,414.016z"/>
								<path style="fill:#3F6C8E;" d="M359.871,423.759c-1.578,1.578-4.144,1.578-5.722,0c-2.211-2.093-1.131-6.057,1.794-6.769
									c0.861,0.48,2.871,2.709,3.618,3.401C360.464,421.335,361.029,422.855,359.871,423.759z"/>
								<path style="fill:#3F6C8E;" d="M369.613,433.501c-1.578,1.578-4.139,1.583-5.722,0c-2.206-2.087-1.124-6.054,1.799-6.764
									c0.861,0.48,2.867,2.705,3.613,3.396C370.203,431.075,370.771,432.598,369.613,433.501z"/>
							</g>
						</g>
					</g>
					<g>
						<g>
							<path style="fill:#3E4E60;" d="M214.798,293.047l-47.84,47.84c-2.647,2.63-2.581,6.941-0.005,9.482
								c2.62,2.62,6.867,2.62,9.487,0l47.84-47.84L214.798,293.047z"/>
							<path style="fill:#3F5D77;" d="M220.578,298.827l-47.84,47.84c-1.961,1.961-4.842,2.453-7.26,1.48
								c-0.973-2.419-0.482-5.299,1.48-7.26l47.84-47.84L220.578,298.827z"/>
							<path style="fill:#3F6C8E;" d="M172.681,342.959c1.04,1.04,2.726,1.04,3.765,0l16.088-16.088c1.04-1.04,1.04-2.726,0-3.765
								c-1.04-1.04-2.726-1.04-3.765,0l-16.088,16.088C171.642,340.233,171.642,341.919,172.681,342.959z"/>
						</g>
						<g>
							<path style="fill:#B26E2B;" d="M170.711,404.054c1.881-1.881,2.909-4.591,2.5-7.466l-6.324-44.804
								c-0.171-1.193-1.188-2.085-2.398-2.079c-1.21-0.006-2.227,0.886-2.398,2.08c-0.469,3.366-5.705,40.361-6.324,44.803
								C154.572,404.997,164.937,409.93,170.711,404.054z"/>
							<path style="fill:#C68132;" d="M164.014,404.065c1.891-1.878,2.928-4.596,2.517-7.484l-3.245-23.018
								c-0.347-2.472-3.926-2.472-4.273,0c-0.801,5.713-2.455,17.364-3.25,23.024C154.848,401.11,159.367,408.066,164.014,404.065z"
								/>
							<path style="fill:#DD8C29;" d="M160.644,399.9c4.397-4.167,2.38-12.065-3.42-13.66l-1.46,10.347
								c-0.279,1.983,0.119,3.881,1.011,5.489C158.189,401.73,159.536,401.008,160.644,399.9z"/>
						</g>
						<g>
							<g>
								<path style="fill:#3E4E60;" d="M134.925,442.595c-0.761-0.761-0.761-1.996,0-2.757l7.99-7.99l2.757,2.757l-7.99,7.99
									C136.92,443.357,135.686,443.357,134.925,442.595z"/>
								<path style="fill:#3E4E60;" d="M139.98,447.651c-0.761-0.761-0.761-1.996,0-2.757l7.99-7.99l2.757,2.757l-7.99,7.99
									C141.976,448.412,140.742,448.412,139.98,447.651z"/>
							</g>
							<path style="fill:#3E4E60;" d="M142.64,434.824c0.93,0.939,4.062,4.069,5.047,5.054c1.314,1.314,3.441,1.314,4.755,0
								l2.496-2.495c6.227-6.609-3.067-15.994-9.746-9.746c0,0-2.495,2.495-2.495,2.495
								C141.402,431.424,141.382,433.51,142.64,434.824z"/>
							<path style="fill:#3E4E60;" d="M152.441,425.14c1.389,1.397,3.586,3.58,4.991,4.991c1.314,1.314,3.441,1.314,4.755,0
								l2.496-2.495c6.226-6.607-3.068-15.991-9.746-9.739c0,0-2.495,2.496-2.495,2.496
								C151.127,421.699,151.127,423.827,152.441,425.14z"/>
							<path style="fill:#3E4E60;" d="M162.187,415.394c1.39,1.404,3.581,3.583,4.991,4.998c1.314,1.307,3.441,1.307,4.748,0
								l2.503-2.496c6.225-6.608-3.065-16-9.746-9.746c0,0-2.495,2.495-2.495,2.495C160.873,411.96,160.873,414.087,162.187,415.394
								z"/>
							<path style="fill:#3F5D77;" d="M144.043,436.239c1.313,1.303,3.446,1.303,4.748,0l2.502-2.502
								c2.045-2.045,2.541-5.058,1.465-7.57c-2.512-1.104-5.609-0.51-7.565,1.47c0,0-2.497,2.497-2.497,2.497
								c-1.302,1.306-1.313,3.427-0.015,4.733C142.682,434.868,144.043,436.239,144.043,436.239z"/>
							<path style="fill:#3F5D77;" d="M152.439,425.14l1.352,1.352c1.308,1.308,3.436,1.312,4.748,0l2.497-2.497
								c2.045-2.045,2.536-5.063,1.47-7.575c-2.513-1.087-5.616-0.511-7.57,1.475c0,0-2.497,2.497-2.497,2.497
								C151.124,421.705,151.136,423.839,152.439,425.14z"/>
							<path style="fill:#3F5D77;" d="M163.528,416.744c1.317,1.299,3.435,1.326,4.758,0c0,0,2.497-2.497,2.497-2.497
								c2.04-2.04,2.531-5.058,1.47-7.575c-2.515-1.08-5.617-0.507-7.57,1.475c0,0-2.497,2.497-2.497,2.497
								c-1.31,1.309-1.308,3.444,0,4.748C162.186,415.393,163.528,416.744,163.528,416.744z"/>
							<g>
								<path style="fill:#3F6C8E;" d="M161.872,414.016c1.578,1.578,4.144,1.578,5.727-0.005c2.206-2.087,1.124-6.054-1.799-6.764
									c-0.861,0.48-2.867,2.705-3.613,3.396C161.291,411.579,160.712,413.116,161.872,414.016z"/>
								<path style="fill:#3F6C8E;" d="M152.129,423.759c1.578,1.578,4.144,1.578,5.722,0c2.211-2.093,1.131-6.057-1.794-6.769
									c-0.861,0.48-2.871,2.709-3.618,3.401C151.536,421.335,150.971,422.855,152.129,423.759z"/>
								<path style="fill:#3F6C8E;" d="M142.387,433.501c1.578,1.578,4.139,1.583,5.722,0c2.206-2.087,1.124-6.054-1.799-6.764
									c-0.861,0.48-2.867,2.705-3.613,3.396C141.797,431.075,141.229,432.598,142.387,433.501z"/>
							</g>
						</g>
					</g>
				</g>
				<g>
					<g>
						<g>
							<path style="fill:#3E4E60;" d="M284.366,200.501h45.381c3.731-0.012,6.733,3.083,6.708,6.701
								c0,3.705-3.003,6.708-6.708,6.708h-45.381V200.501z"/>
							<path style="fill:#3F5D77;" d="M284.366,208.676h45.381c2.774,0,5.158-1.689,6.18-4.087c-1.022-2.398-3.406-4.087-6.18-4.087
								h-45.381V208.676z"/>
							<path style="fill:#3F6C8E;" d="M327.165,206.014c0,1.47-1.192,2.663-2.663,2.663h-22.752c-1.47,0-2.663-1.192-2.663-2.663
								c0-1.47,1.192-2.663,2.663-2.663h22.752C325.973,203.351,327.165,204.543,327.165,206.014z"/>
						</g>
						<g>
							<path style="fill:#B26E2B;" d="M371.199,162.471c-2.66,0-5.304,1.189-7.047,3.512l-27.209,36.153
								c-0.723,0.964-0.635,2.314,0.225,3.166c0.852,0.86,2.202,0.948,3.166,0.225c2.712-2.048,32.574-24.505,36.153-27.209
								C383.278,173.216,379.437,162.4,371.199,162.471z"/>
							<path style="fill:#C68132;" d="M375.943,167.2c-2.665-0.009-5.32,1.18-7.072,3.512l-13.982,18.571
								c-1.503,1.993,1.028,4.524,3.022,3.021c4.606-3.473,14.015-10.542,18.578-13.982
								C380.334,175.771,382.058,167.657,375.943,167.2z"/>
							<path style="fill:#DD8C29;" d="M375.38,172.527c-6.056-0.162-10.214,6.848-7.24,12.078l8.349-6.284
								c1.599-1.205,2.66-2.829,3.166-4.596C378.41,172.969,376.947,172.527,375.38,172.527z"/>
						</g>
						<g>
							<g>
								<path style="fill:#3E4E60;" d="M430.09,158.028c0-1.077-0.873-1.95-1.95-1.95h-11.299v3.899h11.299
									C429.217,159.977,430.09,159.104,430.09,158.028z"/>
								<path style="fill:#3E4E60;" d="M430.09,165.178c0-1.077-0.873-1.95-1.95-1.95h-11.299v3.899h11.299
									C429.217,167.127,430.09,166.254,430.09,165.178z"/>
							</g>
							<path style="fill:#3E4E60;" d="M419.139,157.988c0.007,1.321,0.005,5.75,0.005,7.142c0,1.858-1.504,3.362-3.362,3.362
								l-3.529,0c-9.09-0.303-9.152-13.446,0-13.783c0,0,3.529,0,3.529,0C417.61,154.709,419.1,156.169,419.139,157.988z"/>
							<path style="fill:#3E4E60;" d="M405.361,158.071c0.005,1.97-0.004,5.067,0,7.058c0,1.858-1.504,3.362-3.362,3.362l-3.529,0
								c-9.087-0.302-9.15-13.444,0.005-13.778c0,0,3.529,0,3.529,0C403.857,154.709,405.361,156.213,405.361,158.071z"/>
							<path style="fill:#3E4E60;" d="M391.578,158.071c0.01,1.975,0.001,5.066,0.005,7.063c-0.005,1.853-1.509,3.357-3.357,3.357
								l-3.534,0.005c-9.074-0.271-9.147-13.481,0-13.783c0,0,3.529,0,3.529,0C390.079,154.714,391.583,156.218,391.578,158.071z"/>
							<path style="fill:#3F5D77;" d="M419.147,159.981c-0.007,1.849-1.515,3.358-3.358,3.358h-3.538
								c-2.892,0-5.374-1.78-6.388-4.317c0.996-2.558,3.605-4.327,6.388-4.31c0,0,3.531,0,3.531,0
								c1.824,0.005,3.313,1.455,3.358,3.274c0,0,0,0.062,0,0.062L419.147,159.981z"/>
							<path style="fill:#3F5D77;" d="M405.363,158.069v1.912c0,1.849-1.501,3.358-3.358,3.358h-3.531
								c-2.892,0-5.374-1.787-6.395-4.317c1.008-2.546,3.61-4.333,6.395-4.31c0,0,3.531,0,3.531,0
								C403.863,154.711,405.364,156.229,405.363,158.069z"/>
							<path style="fill:#3F5D77;" d="M391.585,159.974c-0.012,1.85-1.491,3.367-3.365,3.365c0,0-3.531,0-3.531,0
								c-2.885,0-5.367-1.787-6.395-4.317c1.015-2.543,3.613-4.331,6.395-4.31c0,0,3.531,0,3.531,0
								c1.852-0.001,3.36,1.51,3.358,3.358L391.585,159.974z"/>
							<g>
								<path style="fill:#3F6C8E;" d="M390.827,156.874c0,2.231-1.814,4.046-4.053,4.046c-3.036,0.084-5.076-3.486-3.51-6.055
									c0.948-0.269,3.94-0.115,4.956-0.153C389.514,154.74,391.011,155.417,390.827,156.874z"/>
								<path style="fill:#3F6C8E;" d="M404.605,156.874c0,2.231-1.814,4.046-4.046,4.046c-3.043,0.084-5.083-3.483-3.517-6.055
									c0.948-0.269,3.945-0.115,4.963-0.153C403.311,154.741,404.785,155.416,404.605,156.874z"/>
								<path style="fill:#3F6C8E;" d="M418.383,156.874c0,2.231-1.807,4.046-4.046,4.046c-3.036,0.084-5.076-3.486-3.511-6.055
									c0.948-0.269,3.94-0.115,4.956-0.153C417.084,154.741,418.563,155.416,418.383,156.874z"/>
							</g>
						</g>
					</g>
					<g>
						<g>
							<path style="fill:#3E4E60;" d="M227.634,200.501h-45.381c-3.731-0.012-6.733,3.083-6.708,6.701
								c0,3.705,3.003,6.708,6.708,6.708h45.381V200.501z"/>
							<path style="fill:#3F5D77;" d="M227.634,208.676h-45.381c-2.774,0-5.158-1.689-6.18-4.087
								c1.022-2.398,3.406-4.087,6.18-4.087h45.381V208.676z"/>
							<path style="fill:#3F6C8E;" d="M184.835,206.014c0,1.47,1.192,2.663,2.663,2.663h22.752c1.47,0,2.663-1.192,2.663-2.663
								c0-1.47-1.192-2.663-2.663-2.663h-22.752C186.027,203.351,184.835,204.543,184.835,206.014z"/>
						</g>
						<g>
							<path style="fill:#B26E2B;" d="M140.801,162.471c2.66,0,5.304,1.189,7.047,3.512l27.209,36.153
								c0.723,0.964,0.635,2.314-0.225,3.166c-0.852,0.86-2.202,0.948-3.166,0.225c-2.712-2.048-32.574-24.505-36.153-27.209
								C128.722,173.216,132.563,162.4,140.801,162.471z"/>
							<path style="fill:#C68132;" d="M136.057,167.2c2.665-0.009,5.32,1.18,7.072,3.512l13.982,18.571
								c1.503,1.993-1.028,4.524-3.022,3.021c-4.606-3.473-14.015-10.542-18.578-13.982
								C131.666,175.771,129.942,167.657,136.057,167.2z"/>
							<path style="fill:#DD8C29;" d="M136.62,172.527c6.056-0.162,10.214,6.848,7.24,12.078l-8.349-6.284
								c-1.599-1.205-2.66-2.829-3.166-4.596C133.59,172.969,135.053,172.527,136.62,172.527z"/>
						</g>
						<g>
							<g>
								<path style="fill:#3E4E60;" d="M81.91,158.028c0-1.077,0.873-1.95,1.95-1.95h11.299v3.899H83.86
									C82.783,159.977,81.91,159.104,81.91,158.028z"/>
								<path style="fill:#3E4E60;" d="M81.91,165.178c0-1.077,0.873-1.95,1.95-1.95h11.299v3.899H83.86
									C82.783,167.127,81.91,166.254,81.91,165.178z"/>
							</g>
							<path style="fill:#3E4E60;" d="M92.861,157.988c-0.007,1.321-0.005,5.75-0.005,7.142c0,1.858,1.504,3.362,3.362,3.362
								l3.529,0c9.09-0.303,9.152-13.446,0-13.783c0,0-3.529,0-3.529,0C94.39,154.709,92.9,156.169,92.861,157.988z"/>
							<path style="fill:#3E4E60;" d="M106.639,158.071c-0.005,1.97,0.004,5.067,0,7.058c0,1.858,1.504,3.362,3.362,3.362l3.529,0
								c9.087-0.302,9.15-13.444-0.005-13.778c0,0-3.529,0-3.529,0C108.143,154.709,106.639,156.213,106.639,158.071z"/>
							<path style="fill:#3E4E60;" d="M120.422,158.071c-0.01,1.975-0.001,5.066-0.005,7.063c0.005,1.853,1.509,3.357,3.357,3.357
								l3.534,0.005c9.074-0.271,9.147-13.481,0-13.783c0,0-3.529,0-3.529,0C121.921,154.714,120.417,156.218,120.422,158.071z"/>
							<path style="fill:#3F5D77;" d="M92.853,159.981c0.007,1.849,1.515,3.358,3.358,3.358h3.538c2.892,0,5.374-1.78,6.388-4.317
								c-0.996-2.558-3.605-4.327-6.388-4.31c0,0-3.531,0-3.531,0c-1.824,0.005-3.313,1.455-3.358,3.274c0,0,0,0.062,0,0.062
								L92.853,159.981z"/>
							<path style="fill:#3F5D77;" d="M106.637,158.069v1.912c0,1.849,1.502,3.358,3.358,3.358h3.531
								c2.892,0,5.374-1.787,6.395-4.317c-1.008-2.546-3.61-4.333-6.395-4.31c0,0-3.531,0-3.531,0
								C108.137,154.711,106.636,156.229,106.637,158.069z"/>
							<path style="fill:#3F5D77;" d="M120.415,159.974c0.012,1.85,1.491,3.367,3.365,3.365c0,0,3.531,0,3.531,0
								c2.885,0,5.367-1.787,6.395-4.317c-1.015-2.543-3.613-4.331-6.395-4.31c0,0-3.531,0-3.531,0
								c-1.852-0.001-3.36,1.51-3.358,3.358L120.415,159.974z"/>
							<g>
								<path style="fill:#3F6C8E;" d="M121.173,156.874c0,2.231,1.814,4.046,4.053,4.046c3.036,0.084,5.076-3.486,3.51-6.055
									c-0.948-0.269-3.94-0.115-4.956-0.153C122.486,154.74,120.989,155.417,121.173,156.874z"/>
								<path style="fill:#3F6C8E;" d="M107.395,156.874c0,2.231,1.814,4.046,4.046,4.046c3.043,0.084,5.083-3.483,3.517-6.055
									c-0.948-0.269-3.945-0.115-4.963-0.153C108.689,154.741,107.215,155.416,107.395,156.874z"/>
								<path style="fill:#3F6C8E;" d="M93.617,156.874c0,2.231,1.807,4.046,4.046,4.046c3.036,0.084,5.076-3.486,3.511-6.055
									c-0.948-0.269-3.94-0.115-4.956-0.153C94.916,154.741,93.437,155.416,93.617,156.874z"/>
							</g>
						</g>
					</g>
				</g>
				<g>
					<g>
						<g>
							<path style="fill:#3E4E60;" d="M286.95,177.057h42.797c3.731-0.012,6.733,3.083,6.708,6.701c0,3.705-3.003,6.708-6.708,6.708
								H286.95V177.057z"/>
							<path style="fill:#3F5D77;" d="M286.95,185.232h42.797c2.774,0,5.158-1.689,6.18-4.087c-1.022-2.398-3.406-4.087-6.18-4.087
								H286.95V185.232z"/>
							<path style="fill:#3F6C8E;" d="M327.165,182.57c0,1.47-1.192,2.663-2.663,2.663h-22.752c-1.47,0-2.663-1.192-2.663-2.663
								c0-1.47,1.192-2.663,2.663-2.663h22.752C325.973,179.907,327.165,181.099,327.165,182.57z"/>
						</g>
						<g>
							<path style="fill:#B26E2B;" d="M331.858,126.795c-1.881,1.881-2.909,4.591-2.5,7.466l6.324,44.804
								c0.171,1.193,1.188,2.085,2.398,2.079c1.21,0.006,2.227-0.886,2.398-2.08c0.469-3.366,5.705-40.361,6.324-44.803
								C347.997,125.852,337.633,120.919,331.858,126.795z"/>
							<path style="fill:#C68132;" d="M338.556,126.784c-1.891,1.878-2.928,4.596-2.517,7.484l3.245,23.018
								c0.347,2.472,3.926,2.472,4.273,0c0.801-5.713,2.455-17.364,3.25-23.024C347.722,129.739,343.203,122.783,338.556,126.784z"
								/>
							<path style="fill:#DD8C29;" d="M341.925,130.949c-4.397,4.167-2.38,12.065,3.42,13.66l1.46-10.347
								c0.279-1.983-0.119-3.881-1.011-5.489C344.38,129.12,343.034,129.841,341.925,130.949z"/>
						</g>
						<g>
							<g>
								<path style="fill:#3E4E60;" d="M374.743,83.545c-0.761-0.761-1.996-0.761-2.757,0l-7.99,7.99l2.757,2.757l7.99-7.99
									C375.505,85.54,375.505,84.306,374.743,83.545z"/>
								<path style="fill:#3E4E60;" d="M379.799,88.6c-0.761-0.761-1.996-0.761-2.757,0l-7.99,7.99l2.757,2.757l7.99-7.99
									C380.561,90.596,380.561,89.362,379.799,88.6z"/>
							</g>
							<path style="fill:#3E4E60;" d="M366.972,91.26c0.939,0.93,4.069,4.062,5.054,5.047c1.314,1.314,1.314,3.441,0,4.755
								l-2.495,2.496c-6.609,6.227-15.994-3.067-9.746-9.746c0,0,2.495-2.495,2.495-2.495
								C363.572,90.022,365.658,90.001,366.972,91.26z"/>
							<path style="fill:#3E4E60;" d="M357.289,101.061c1.397,1.389,3.58,3.586,4.991,4.991c1.314,1.314,1.314,3.441,0,4.755
								l-2.495,2.496c-6.607,6.226-15.991-3.068-9.739-9.746c0,0,2.496-2.495,2.496-2.495
								C353.847,99.747,355.975,99.747,357.289,101.061z"/>
							<path style="fill:#3E4E60;" d="M347.543,110.807c1.404,1.39,3.583,3.581,4.998,4.991c1.307,1.314,1.307,3.441,0,4.748
								l-2.496,2.503c-6.608,6.225-16-3.065-9.746-9.746c0,0,2.495-2.495,2.495-2.495
								C344.108,109.493,346.235,109.493,347.543,110.807z"/>
							<path style="fill:#3F5D77;" d="M368.387,92.663c1.303,1.313,1.303,3.446,0,4.748l-2.502,2.502
								c-2.045,2.045-5.058,2.541-7.57,1.465c-1.104-2.513-0.51-5.609,1.47-7.565c0,0,2.497-2.497,2.497-2.497
								c1.306-1.302,3.427-1.313,4.733-0.015C367.016,91.302,368.387,92.663,368.387,92.663z"/>
							<path style="fill:#3F5D77;" d="M357.288,101.059l1.352,1.352c1.308,1.308,1.312,3.436,0,4.748l-2.497,2.497
								c-2.045,2.045-5.063,2.536-7.575,1.47c-1.087-2.513-0.511-5.616,1.475-7.57c0,0,2.497-2.497,2.497-2.497
								C353.853,99.744,355.988,99.756,357.288,101.059z"/>
							<path style="fill:#3F5D77;" d="M348.892,112.148c1.299,1.317,1.326,3.435,0,4.758c0,0-2.497,2.497-2.497,2.497
								c-2.04,2.04-5.058,2.531-7.575,1.47c-1.08-2.515-0.507-5.617,1.475-7.57c0,0,2.497-2.497,2.497-2.497
								c1.309-1.31,3.444-1.308,4.748,0L348.892,112.148z"/>
							<g>
								<path style="fill:#3F6C8E;" d="M346.164,110.491c1.578,1.578,1.578,4.144-0.005,5.727c-2.087,2.206-6.054,1.124-6.764-1.799
									c0.48-0.861,2.705-2.867,3.396-3.613C343.727,109.911,345.264,109.332,346.164,110.491z"/>
								<path style="fill:#3F6C8E;" d="M355.907,100.749c1.578,1.578,1.578,4.144,0,5.722c-2.093,2.211-6.057,1.131-6.769-1.794
									c0.48-0.861,2.709-2.871,3.401-3.618C353.484,100.156,355.003,99.591,355.907,100.749z"/>
								<path style="fill:#3F6C8E;" d="M365.649,91.007c1.578,1.578,1.583,4.139,0,5.722c-2.087,2.206-6.054,1.124-6.764-1.799
									c0.48-0.861,2.705-2.867,3.396-3.613C363.223,90.417,364.746,89.849,365.649,91.007z"/>
							</g>
						</g>
					</g>
					<g>
						<g>
							<path style="fill:#3E4E60;" d="M225.05,177.057h-42.797c-3.731-0.012-6.733,3.083-6.708,6.701
								c0,3.705,3.003,6.708,6.708,6.708h42.797V177.057z"/>
							<path style="fill:#3F5D77;" d="M225.05,185.232h-42.797c-2.774,0-5.158-1.689-6.18-4.087c1.022-2.398,3.406-4.087,6.18-4.087
								h42.797V185.232z"/>
							<path style="fill:#3F6C8E;" d="M184.835,182.57c0,1.47,1.192,2.663,2.663,2.663h22.752c1.47,0,2.663-1.192,2.663-2.663
								c0-1.47-1.192-2.663-2.663-2.663h-22.752C186.027,179.907,184.835,181.099,184.835,182.57z"/>
						</g>
						<g>
							<path style="fill:#B26E2B;" d="M180.142,126.795c1.881,1.881,2.909,4.591,2.5,7.466l-6.324,44.804
								c-0.171,1.193-1.188,2.085-2.398,2.079c-1.21,0.006-2.227-0.886-2.398-2.08c-0.469-3.366-5.705-40.361-6.324-44.803
								C164.003,125.852,174.367,120.919,180.142,126.795z"/>
							<path style="fill:#C68132;" d="M173.444,126.784c1.891,1.878,2.928,4.596,2.517,7.484l-3.245,23.018
								c-0.347,2.472-3.926,2.472-4.273,0c-0.801-5.713-2.455-17.364-3.25-23.024C164.278,129.739,168.797,122.783,173.444,126.784z
								"/>
							<path style="fill:#DD8C29;" d="M170.075,130.949c4.397,4.167,2.38,12.065-3.42,13.66l-1.46-10.347
								c-0.279-1.983,0.119-3.881,1.011-5.489C167.62,129.12,168.966,129.841,170.075,130.949z"/>
						</g>
						<g>
							<g>
								<path style="fill:#3E4E60;" d="M137.257,83.545c0.761-0.761,1.996-0.761,2.757,0l7.99,7.99l-2.757,2.757l-7.99-7.99
									C136.495,85.54,136.495,84.306,137.257,83.545z"/>
								<path style="fill:#3E4E60;" d="M132.201,88.6c0.761-0.761,1.996-0.761,2.757,0l7.99,7.99l-2.757,2.757l-7.99-7.99
									C131.439,90.596,131.439,89.362,132.201,88.6z"/>
							</g>
							<path style="fill:#3E4E60;" d="M145.028,91.26c-0.939,0.93-4.069,4.062-5.054,5.047c-1.314,1.314-1.314,3.441,0,4.755
								l2.495,2.496c6.609,6.227,15.994-3.067,9.746-9.746c0,0-2.495-2.495-2.495-2.495
								C148.428,90.022,146.342,90.001,145.028,91.26z"/>
							<path style="fill:#3E4E60;" d="M154.711,101.061c-1.397,1.389-3.58,3.586-4.991,4.991c-1.314,1.314-1.314,3.441,0,4.755
								l2.495,2.496c6.607,6.226,15.991-3.068,9.739-9.746c0,0-2.496-2.495-2.496-2.495
								C158.153,99.747,156.025,99.747,154.711,101.061z"/>
							<path style="fill:#3E4E60;" d="M164.457,110.807c-1.404,1.39-3.583,3.581-4.998,4.991c-1.307,1.314-1.307,3.441,0,4.748
								l2.496,2.503c6.608,6.225,16-3.065,9.746-9.746c0,0-2.495-2.495-2.495-2.495
								C167.892,109.493,165.765,109.493,164.457,110.807z"/>
							<path style="fill:#3F5D77;" d="M143.613,92.663c-1.303,1.313-1.303,3.446,0,4.748l2.502,2.502
								c2.045,2.045,5.058,2.541,7.57,1.465c1.104-2.513,0.51-5.609-1.47-7.565c0,0-2.497-2.497-2.497-2.497
								c-1.306-1.302-3.427-1.313-4.734-0.015C144.984,91.302,143.613,92.663,143.613,92.663z"/>
							<path style="fill:#3F5D77;" d="M154.712,101.059l-1.352,1.352c-1.308,1.308-1.312,3.436,0,4.748l2.497,2.497
								c2.045,2.045,5.063,2.536,7.575,1.47c1.087-2.513,0.511-5.616-1.475-7.57c0,0-2.497-2.497-2.497-2.497
								C158.147,99.744,156.012,99.756,154.712,101.059z"/>
							<path style="fill:#3F5D77;" d="M163.108,112.148c-1.299,1.317-1.326,3.435,0,4.758c0,0,2.497,2.497,2.497,2.497
								c2.04,2.04,5.058,2.531,7.575,1.47c1.08-2.515,0.507-5.617-1.475-7.57c0,0-2.497-2.497-2.497-2.497
								c-1.309-1.31-3.444-1.308-4.748,0L163.108,112.148z"/>
							<g>
								<path style="fill:#3F6C8E;" d="M165.836,110.491c-1.578,1.578-1.578,4.144,0.005,5.727c2.087,2.206,6.054,1.124,6.764-1.799
									c-0.48-0.861-2.705-2.867-3.396-3.613C168.273,109.911,166.736,109.332,165.836,110.491z"/>
								<path style="fill:#3F6C8E;" d="M156.093,100.749c-1.578,1.578-1.578,4.144,0,5.722c2.093,2.211,6.057,1.131,6.769-1.794
									c-0.48-0.861-2.709-2.871-3.401-3.618C158.516,100.156,156.997,99.591,156.093,100.749z"/>
								<path style="fill:#3F6C8E;" d="M146.351,91.007c-1.578,1.578-1.583,4.139,0,5.722c2.087,2.206,6.054,1.124,6.764-1.799
									c-0.48-0.861-2.705-2.867-3.396-3.613C148.777,90.417,147.254,89.849,146.351,91.007z"/>
							</g>
						</g>
					</g>
				</g>
			</g>
			<g>
				<g>
					<path style="fill:#F39E22;" d="M301.892,284.448v84.319c-0.118,13.966-5.661,29.393-13.444,41.489
						c-27.394,42.605-63.127,18.288-75.528-23.393c-1.816-6.308-2.812-12.519-2.812-18.096v-84.319
						c0-16.795,13.613-30.408,30.407-30.408h30.97C288.28,254.041,301.892,267.653,301.892,284.448z"/>
					<path style="fill:#F9C744;" d="M301.892,284.448v84.319c0.085,23.418-18.933,63.406-45.892,63.972V254.041h15.485
						C288.28,254.041,301.892,267.653,301.892,284.448z"/>
				</g>
				<path style="fill:#FAD98F;" d="M265.385,413.752c-5.186,0-9.389-4.204-9.389-9.389V293.02c0-5.186,4.204-9.389,9.389-9.389
					c5.186,0,9.389,4.204,9.389,9.389v111.343C274.775,409.549,270.571,413.752,265.385,413.752z"/>
				<g>
					<path style="fill:#3E4E60;" d="M299.072,386.864c-5.466,19.658-22.045,45.867-43.072,45.876
						c-19.768,0-36.619-23.505-43.08-45.876H299.072z"/>
					<rect x="210.108" y="348.076" style="fill:#3E4E60;" width="91.784" height="20.691"/>
					<rect x="210.108" y="321.488" style="fill:#3E4E60;" width="91.784" height="13.588"/>
					<rect x="210.108" y="302.235" style="fill:#3E4E60;" width="91.784" height="10.174"/>
				</g>
				<path style="fill:#3F5D77;" d="M256,386.86v45.88c21.036-0.017,37.605-26.212,43.07-45.88H256z M256,348.08v20.69h45.89v-20.69
					H256z M256,321.49v13.59h45.89v-13.59H256z M256,302.23v10.18h45.89v-10.18H256z"/>
				<g>
					<rect x="256" y="302.23" style="fill:#3F6C8E;" width="18.77" height="10.18"/>
					<rect x="256" y="321.49" style="fill:#3F6C8E;" width="18.77" height="13.59"/>
					<rect x="256" y="348.08" style="fill:#3F6C8E;" width="18.77" height="20.69"/>
					<path style="fill:#3F6C8E;" d="M256,386.86h18.77v17.5c0,5.19-4.2,9.39-9.38,9.39c-5.19,0-9.39-4.2-9.39-9.39V386.86z"/>
				</g>
			</g>
			<g>
				<path style="fill:#B26E2B;" d="M296.95,196.221v26.683c0,17.195-13.942,31.137-31.144,31.137h-19.611
					c-17.202,0-31.144-13.942-31.144-31.137v-26.683c0-17.202,13.942-31.144,31.144-31.144h19.611
					C283.007,165.077,296.95,179.02,296.95,196.221z"/>
				<path style="fill:#C68132;" d="M296.95,196.221v26.683c0,17.195-13.942,31.137-31.144,31.137H256v-88.965h9.806
					C283.007,165.077,296.95,179.02,296.95,196.221z"/>
				<path style="fill:#3E4E60;" d="M279.187,199.635v19.855c0,12.795-7.895,23.169-17.635,23.169h-11.104
					c-9.74,0-17.635-10.374-17.635-23.169v-19.855c0-12.8,7.895-23.174,17.635-23.174h11.104
					C271.292,176.461,279.187,186.835,279.187,199.635z"/>
				<path style="fill:#3F5D77;" d="M279.187,199.635v19.855c0,12.795-7.895,23.169-17.635,23.169H256v-66.198h5.552
					C271.292,176.461,279.187,186.835,279.187,199.635z"/>
			</g>
			<g>
				<g>
					<path style="fill:#334353;" d="M296.95,134.646v7.289c0,12.777-10.366,23.143-23.143,23.143h-35.614
						c-12.777,0-23.143-10.366-23.143-23.143v-7.289c0-12.777,10.366-23.143,23.143-23.143h35.614
						C286.584,111.503,296.95,121.869,296.95,134.646z"/>
					<path style="fill:#3E4E60;" d="M296.95,134.646v7.289c0,12.777-10.366,23.143-23.143,23.143H256v-53.574h17.807
						C286.584,111.503,296.95,121.869,296.95,134.646z"/>
				</g>
				<g>
					<g>
						<path style="fill:#3F5D77;" d="M296.95,95.367c0,1.559-0.595,3.126-1.792,4.315l-23.304,23.312
							c-5.054,4.949-13.029-1.182-9.643-7.304c0.265-0.474,0.603-0.924,1.004-1.334l23.304-23.312
							C290.221,87.199,297.065,90.048,296.95,95.367z"/>
						<path style="fill:#3F6C8E;" d="M296.163,92.378c-0.265,0.474-0.603,0.924-1.004,1.326l-23.304,23.312
							c-2.774,2.862-7.751,2.16-9.643-1.326c0.265-0.474,0.603-0.924,1.004-1.334l23.304-23.312
							C289.284,88.195,294.289,88.883,296.163,92.378z"/>
					</g>
					<g>
						<path style="fill:#3E4E60;" d="M248.784,122.994c-2.379,2.387-6.252,2.387-8.638,0l-23.304-23.312
							c-2.411-2.382-2.339-6.33,0-8.638c2.391-2.38,6.256-2.378,8.638,0c0,0,23.304,23.312,23.304,23.312
							C251.116,116.673,251.201,120.602,248.784,122.994z"/>
						<path style="fill:#3F5D77;" d="M249.788,115.689c-1.895,3.485-6.867,4.189-9.643,1.326c0,0-23.304-23.311-23.304-23.311
							c-0.402-0.402-0.739-0.852-1.004-1.326c1.877-3.495,6.882-4.182,9.643-1.334c0,0,23.304,23.311,23.304,23.311
							C249.186,114.765,249.523,115.215,249.788,115.689z"/>
					</g>
				</g>
				<g>
					<g>
						<path style="fill:#3F5D77;" d="M302.696,141.685c0.057,3.019,0.072,6.609-1.31,9.281c-2.306,5.095-7.433,8.638-13.387,8.638
							h-3.222c-8.116,0-14.697-6.581-14.697-14.697v-3.222c-0.033-8.185,6.769-14.744,14.697-14.689c0,0,3.222,0,3.222,0
							C296.114,126.996,302.696,133.569,302.696,141.685z"/>
						<path style="fill:#3F6C8E;" d="M302.696,141.685c0.07,3.021,0.063,6.607-1.31,9.281c-2.474,1.123-5.842,1.048-8.574,1.013
							c-8.116,0-14.697-6.581-14.697-14.697c-0.063-3.013-0.068-6.613,1.31-9.281c2.477-1.107,5.841-1.043,8.574-1.004
							C296.114,126.996,302.696,133.569,302.696,141.685z"/>
						<path style="fill:#CDE6F6;" d="M298.342,143.384c-1.755,1.755-4.6,1.755-6.355,0l-5.417-5.417
							c-4.084-4.295,2.058-10.441,6.356-6.355c0,0,5.417,5.417,5.417,5.417C300.097,138.784,300.097,141.629,298.342,143.384z"/>
					</g>
					<g>
						<path style="fill:#3E4E60;" d="M241.921,141.685v3.222c0,8.116-6.581,14.697-14.697,14.697h-3.222
							c-8.185,0.026-14.738-6.755-14.697-14.697c0,0,0-3.222,0-3.222c0-8.116,6.581-14.689,14.697-14.689h3.222
							C235.152,126.942,241.954,133.5,241.921,141.685z"/>
						<path style="fill:#3F5D77;" d="M233.886,134.059v3.223c0,8.116-6.581,14.697-14.697,14.697
							c-2.734,0.033-6.095,0.11-8.574-1.013c-1.376-2.665-1.377-6.268-1.31-9.281c0-8.116,6.581-14.689,14.697-14.689
							c2.731-0.031,6.096-0.108,8.574,1.004C233.42,129.849,233.886,131.897,233.886,134.059z"/>
						<path style="fill:#83D5EF;" d="M213.658,143.384c-1.755-1.755-1.755-4.6,0-6.355l5.417-5.417
							c4.295-4.084,10.441,2.058,6.355,6.356c0,0-5.417,5.417-5.417,5.417C218.258,145.139,215.413,145.139,213.658,143.384z"/>
					</g>
				</g>
			</g>
		</g>
		<g>
			<g>
				<g>
					<path style="fill:#CDE6F6;" d="M472.07,229.51c0,9.7-5.94,18.86-15.84,23.46l-20.38,9.46c-25.74,11.95-55.61,13.85-82.77,5.51
						c-1.937-0.236-64.159-24.537-68.11-26.02c-10.154-4.075-7.295-17.422,3.35-18.12c6.876-0.446,74.403-4.844,78.94-5.13
						c15.747-0.426,52.391-11.16,68.09-14.62C453.278,199.546,472.017,211.726,472.07,229.51z"/>
					<path style="fill:#CDE6F6;" d="M398.46,320.12c-28.475,16.732-62.819,10.843-88.78-7.16c-9.34-6.5-17.07-14.5-22.68-23.62
						l-20.21-32.84c-1.63-2.64-1.05-5.87,1.45-8.13c2.696-2.448,7.031-3.174,10.5-1.87c0,0,74.93,27.72,74.93,27.72l41.92,15.51
						C410.6,295.28,412.18,312.05,398.46,320.12z"/>
				</g>
				<g>
					<path style="fill:#FFFFFF;" d="M398.46,320.12c-8.42,4.95-18.01,8.11-27.9,9.35c-8.79-16.87-14.64-35.52-16.89-55.25
						l41.92,15.51C410.6,295.28,412.18,312.05,398.46,320.12z"/>
					<path style="fill:#FFFFFF;" d="M472.07,229.51c0,9.7-5.94,18.86-15.84,23.46l-20.38,9.46c-25.74,11.95-55.61,13.85-82.77,5.51
						c-1.23-16.204,0.128-33.16,3.8-48.6c10.886-0.586,22.639-1.433,33.14-4.17c0,0,45.33-11.12,45.33-11.12
						C453.278,199.545,472.017,211.726,472.07,229.51z"/>
				</g>
			</g>
			<g>
				<g>
					<path style="fill:#83D5EF;" d="M227.03,241.92c-4.227,1.515-65.967,25.8-68.11,26.02c-27.16,8.34-57.03,6.44-82.77-5.51
						l-20.38-9.46c-12.212-5.692-18.426-18.261-14.82-30.37c4.2-14.05,20.19-22.36,35.7-18.55l45.33,11.12
						c10.469,2.727,22.296,3.592,33.14,4.17c0,0,68.56,4.46,68.56,4.46C234.249,224.476,237.246,237.816,227.03,241.92z"/>
					<path style="fill:#83D5EF;" d="M245.21,256.5L225,289.34c-5.61,9.12-13.34,17.12-22.68,23.62
						c-14.207,9.8-33.143,17.184-51.25,17.12c-13.067,0.008-26.39-3.394-37.53-9.96c-13.72-8.07-12.14-24.84,2.87-30.39
						c25.867-9.573,90.268-33.396,116.85-43.23C239.491,243.856,249.198,249.445,245.21,256.5z"/>
				</g>
				<g>
					<path style="fill:#CDE6F6;" d="M116.41,289.73l41.92-15.51c-2.25,19.73-8.1,38.38-16.89,55.25c-9.89-1.24-19.48-4.4-27.9-9.35
						C99.82,312.05,101.4,295.28,116.41,289.73z"/>
					<path style="fill:#CDE6F6;" d="M159.36,256c0,4.02-0.15,8-0.44,11.94c-27.16,8.34-57.03,6.44-82.77-5.51l-20.38-9.46
						c-9.9-4.6-15.84-13.76-15.84-23.46c0.057-17.783,18.789-29.964,36.72-25.46c0,0,45.33,11.12,45.33,11.12
						c10.488,2.729,22.282,3.591,33.14,4.17C157.89,231.11,159.36,243.39,159.36,256z"/>
				</g>
			</g>
		</g>
	</g>
</g>
</svg>
