<?xml version="1.0" encoding="iso-8859-1"?>
<!-- Generator: Adobe Illustrator 22.0.1, SVG Export Plug-In . SVG Version: 6.00 Build 0)  -->
<svg version="1.1" id="Icons" xmlns="http://www.w3.org/2000/svg" xmlns:xlink="http://www.w3.org/1999/xlink" x="0px" y="0px"
	 viewBox="0 0 512 512" style="enable-background:new 0 0 512 512;" xml:space="preserve">
<g>
	<circle style="fill:#6C53A2;" cx="256" cy="256" r="256"/>
	<g>
		<g>
			<path style="fill:#EE6781;" d="M431.288,118.396l-2.521-22.894c-1.026-9.326-10.085-14.956-18.471-12.756
				c-1.48,0.39-2.943,1.02-4.337,1.923l-50.334,32.578c-16.68,10.795-32.544,22.772-47.477,35.836c-0.053,0-0.105-0.004-0.157-0.004
				H204.01c-0.053,0-0.105,0.004-0.157,0.004c-14.933-13.064-30.796-25.041-47.477-35.836L106.042,84.67
				c-1.394-0.903-2.858-1.533-4.337-1.923c-8.386-2.201-17.446,3.429-18.471,12.756l-2.521,22.894
				c-3.322,30.159,7.227,60.194,28.679,81.646l18.725,18.725c-0.516,3.591-0.796,7.258-0.796,10.992v120.48
				c0,34.26,22.47,63.25,53.47,73.09c9.01,2.85,16.07,9.78,19.8,18.47c6.14,14.29,20.35,24.3,36.9,24.3h37.02
				c16.55,0,30.76-10.01,36.9-24.3c3.73-8.69,10.79-15.62,19.8-18.47c31-9.84,53.47-38.83,53.47-73.09V229.76
				c0-3.734-0.281-7.401-0.796-10.992l18.725-18.725C424.061,178.591,434.61,148.555,431.288,118.396z"/>
			<path style="fill:#F4829B;" d="M402.61,200.04c21.45-21.45,32-51.48,28.68-81.64l-2.52-22.9c-1.03-9.32-10.09-14.95-18.47-12.75
				c-0.18,0.05-0.37,0.1-0.55,0.16c-1.25,0.38-2.48,0.93-3.67,1.68c-0.01,0.01-0.02,0.01-0.03,0.02c-0.03,0.02-0.06,0.04-0.09,0.06
				l-50.34,32.58c-13.935,9.014-27.288,18.87-40.014,29.481l-0.014-0.005l-0.635,0.542c-2.288,1.915-4.562,3.847-6.808,5.812v0.004
				c-0.054,0-0.106-0.004-0.16-0.004H256V466.1h18.51c16.55,0,30.76-10.01,36.9-24.3c3.73-8.69,10.79-15.62,19.8-18.47
				c31-9.84,53.47-38.83,53.47-73.09V229.76c0-3.737-0.281-7.407-0.798-11.001l0.008,0.001L402.61,200.04z"/>
			<path style="fill:#F4829B;" d="M149.07,176.27c-11.05,11.34-18.61,26.07-20.96,42.49l-18.72-18.72
				c-21.45-21.45-32-51.48-28.68-81.64l2.52-22.9c1.03-9.32,10.09-14.95,18.47-12.75c1.45,0.38,2.88,0.99,4.25,1.86
				c-1.85-1.13-4.63,6.31-5.12,17.93c-0.87,20.86,18.28,49.53,44.56,70.76L149.07,176.27z"/>
			<path style="fill:#FF9FB4;" d="M402.61,200.04l-18.72,18.72c-2.35-16.42-9.91-31.15-20.96-42.49l3.68-2.97
				c26.28-21.23,45.43-49.9,44.56-70.76c-0.49-11.56-3.24-18.98-5.09-17.95c1.19-0.75,2.42-1.3,3.67-1.68
				c0.18-0.06,0.37-0.11,0.55-0.16c8.38-2.2,17.44,3.43,18.47,12.75l2.52,22.9C434.61,148.56,424.06,178.59,402.61,200.04z"/>
		</g>
		<g>
			<g>
				<path style="fill:#FF9FB4;" d="M308.332,423.432v0.593c0,12.762-10.346,23.107-23.107,23.107h-58.449
					c-12.762,0-23.107-10.346-23.107-23.107v-0.593c0-28.895,23.426-52.332,52.332-52.332S308.332,394.537,308.332,423.432z"/>
				<path style="fill:#FFCCD7;" d="M308.332,423.432v0.593c0,12.762-10.346,23.107-23.107,23.107H256V371.1
					C284.906,371.1,308.332,394.537,308.332,423.432z"/>
				<g>
					<path style="fill:#FFFFFF;" d="M291.203,401.714c-1.092,0-2.177-0.463-2.937-1.362c-9.505-11.239-20.964-17.43-32.266-17.43
						s-22.762,6.19-32.266,17.43c-1.371,1.621-3.797,1.824-5.417,0.453c-1.621-1.371-1.824-3.796-0.453-5.417
						c10.99-12.996,24.533-20.154,38.136-20.154s27.147,7.157,38.136,20.154c1.371,1.621,1.168,4.046-0.453,5.417
						C292.961,401.416,292.08,401.714,291.203,401.714z"/>
				</g>
			</g>
			<g>
				<path style="fill:#2E3140;" d="M275.838,439.392h5.078c7.529,0,13.633-6.104,13.633-13.633v-0.347
					c0-9.465-4.259-17.935-10.964-23.599c-7.859-6.638-19.912-0.902-19.912,9.386v16.027
					C263.672,433.945,269.119,439.392,275.838,439.392z"/>
				<path style="fill:#2E3140;" d="M236.162,439.392h-5.078c-7.529,0-13.633-6.104-13.633-13.633v-0.347
					c0-9.465,4.259-17.935,10.964-23.599c7.859-6.638,19.912-0.902,19.912,9.386l0,16.027
					C248.328,433.945,242.881,439.392,236.162,439.392z"/>
			</g>
		</g>
		<g>
			<g>
				<path style="fill:#F4829B;" d="M283.61,368.82l-5.09-2.1c-7.21-2.98-14.86-4.47-22.52-4.47s-15.31,1.49-22.52,4.47l-5.09,2.1
					c-5.6,2.32-10.69-4.23-7.06-9.1l10.2-13.66c6.11-8.18,15.29-12.26,24.47-12.26s18.36,4.08,24.47,12.26l10.2,13.66
					C294.3,364.59,289.21,371.14,283.61,368.82z"/>
				<path style="fill:#FF9FB4;" d="M283.61,368.82l-5.09-2.1c-7.21-2.98-14.86-4.47-22.52-4.47V333.8c9.18,0,18.36,4.08,24.47,12.26
					l10.2,13.66C294.3,364.59,289.21,371.14,283.61,368.82z"/>
			</g>
			<g>
				<path style="fill:#F4829B;" d="M283.61,333.318l-5.09-2.1c-7.21-2.98-14.86-4.47-22.52-4.47s-15.31,1.49-22.52,4.47l-5.09,2.1
					c-5.6,2.32-10.69-4.23-7.06-9.1l10.2-13.66c6.11-8.18,15.29-12.26,24.47-12.26s18.36,4.08,24.47,12.26l10.2,13.66
					C294.3,329.088,289.21,335.638,283.61,333.318z"/>
				<path style="fill:#FF9FB4;" d="M283.61,333.318l-5.09-2.1c-7.21-2.98-14.86-4.47-22.52-4.47v-28.45
					c9.18,0,18.36,4.08,24.47,12.26l10.2,13.66C294.3,329.088,289.21,335.638,283.61,333.318z"/>
			</g>
		</g>
		<g>
			<path style="fill:#FF9FB4;" d="M256,259.063h31.121c25.073,0,45.4-20.326,45.4-45.4v0c0-25.073-20.326-45.4-45.4-45.4H256
				V259.063z"/>
			<path style="fill:#F4829B;" d="M256,168.264h-31.121c-25.073,0-45.4,20.326-45.4,45.4v0c0,25.073,20.326,45.4,45.4,45.4H256
				V168.264z"/>
		</g>
		<g>
			<path style="fill:#FF9FB4;" d="M337.875,311.908L337.875,311.908c-17.42,0-31.542,14.122-31.542,31.542v28.623
				c0,17.42,14.122,31.542,31.542,31.542h0c17.42,0,31.542-14.122,31.542-31.542V343.45
				C369.417,326.03,355.295,311.908,337.875,311.908z"/>
			<path style="fill:#F4829B;" d="M174.845,311.908L174.845,311.908c-17.42,0-31.542,14.122-31.542,31.542v28.623
				c0,17.42,14.122,31.542,31.542,31.542h0c17.42,0,31.542-14.122,31.542-31.542V343.45
				C206.387,326.03,192.265,311.908,174.845,311.908z"/>
		</g>
		<g>
			<path style="fill:#FFCCD7;" d="M256,219.595h41.227c10.143,0,18.366-8.223,18.366-18.366v0c0-10.143-8.223-18.366-18.366-18.366
				H256V219.595z"/>
			<path style="fill:#FF9FB4;" d="M256,182.864h-41.227c-10.143,0-18.365,8.223-18.365,18.366v0
				c0,10.143,8.223,18.366,18.365,18.366H256V182.864z"/>
		</g>
		<g>
			<g>
				<path style="fill:#3E4E60;" d="M352.924,280.938c2.503,9.342-2.968,18.933-12.251,21.547c-0.075,0.034-0.154,0.055-0.233,0.077
					l-11.864,3.179c-4.704,1.26-9.484,0.499-13.399-1.761c-3.928-2.257-6.974-6.003-8.238-10.72
					c-2.348-8.764,2.324-17.761,10.568-20.997c0.623-0.251,1.269-0.467,1.926-0.643l11.864-3.179
					c4.717-1.264,9.488-0.486,13.403,1.774C348.614,272.475,351.66,276.221,352.924,280.938z"/>
				<path style="fill:#2E3140;" d="M352.924,280.938c2.503,9.342-2.968,18.933-12.251,21.547
					c-10.218-3.134-18.878-11.854-22.043-23.666c-0.588-2.194-0.965-4.389-1.123-6.557c0.623-0.251,1.269-0.467,1.926-0.643
					l11.864-3.179c4.717-1.264,9.488-0.486,13.403,1.774C348.614,272.475,351.66,276.221,352.924,280.938z"/>
				<path style="fill:#FFFFFF;" d="M337.007,275.163l-7.139,1.913c-3.074,0.824-4.898,3.983-4.074,7.057v0
					c0.824,3.074,3.983,4.898,7.057,4.074l7.139-1.913c3.074-0.824,4.898-3.983,4.074-7.057l0,0
					C343.24,276.163,340.081,274.339,337.007,275.163z"/>
			</g>
			<g>
				<path style="fill:#3E4E60;" d="M205.78,293.26c-2.503,9.342-12.037,14.912-21.384,12.535c-0.082-0.008-0.161-0.029-0.24-0.05
					l-11.864-3.179c-4.704-1.26-8.463-4.31-10.724-8.225c-2.273-3.918-3.038-8.686-1.774-13.403
					c2.348-8.764,10.893-14.219,19.651-12.9c0.665,0.094,1.332,0.23,1.989,0.406l11.864,3.179c4.717,1.264,8.46,4.323,10.72,8.238
					C206.279,283.776,207.044,288.543,205.78,293.26z"/>
				<path style="fill:#2E3140;" d="M205.78,293.26c-2.503,9.342-12.037,14.912-21.384,12.535
					c-7.282-7.823-10.421-19.705-7.257-31.517c0.588-2.194,1.359-4.283,2.306-6.24c0.665,0.094,1.332,0.23,1.989,0.406l11.864,3.179
					c4.717,1.264,8.46,4.323,10.72,8.238C206.279,283.776,207.044,288.543,205.78,293.26z"/>
				<path style="fill:#FFFFFF;" d="M194.883,280.3l-7.139-1.913c-3.074-0.824-6.233,1.001-7.057,4.074l0,0
					c-0.824,3.074,1.001,6.233,4.074,7.057l7.139,1.913c3.074,0.824,6.233-1.001,7.057-4.074l0,0
					C199.781,284.283,197.957,281.123,194.883,280.3z"/>
			</g>
		</g>
	</g>
</g>
</svg>
