<?xml version="1.0" encoding="iso-8859-1"?>
<!-- Generator: Adobe Illustrator 22.0.1, SVG Export Plug-In . SVG Version: 6.00 Build 0)  -->
<svg version="1.1" id="Icons" xmlns="http://www.w3.org/2000/svg" xmlns:xlink="http://www.w3.org/1999/xlink" x="0px" y="0px"
	 viewBox="0 0 512 512" style="enable-background:new 0 0 512 512;" xml:space="preserve">
<g>
	<circle style="fill:#EA792E;" cx="256" cy="256" r="256"/>
	<g>
		<path style="fill:#50755C;" d="M429.37,203.276v86.845H113.129c-12.87,0-24.526-5.221-32.959-13.654
			c-1.943-1.942-3.709-4.051-5.287-6.302c-4.437-6.358-7.329-13.886-8.135-22.02c-0.154-1.523-0.232-3.069-0.232-4.636
			c0-21.877,15.21-40.762,36.491-45.497c0.265-0.066,0.541-0.122,0.817-0.177l191.438-38.974l63.831-12.991
			c16.866-3.433,33.234,0.706,45.917,9.846c10.089,7.274,17.848,17.693,21.689,29.967
			C428.432,191.212,429.37,197.117,429.37,203.276z"/>
		<path style="fill:#DAAB42;" d="M429.37,290.121v24.184c0,20.144-10.331,37.517-25.685,47.639
			c-11.545,7.616-25.928,11.104-40.873,8.566l-8.587-1.457l-12.793-2.174l-49.46-8.411l-12.782-2.163l-49.471-8.411l-12.782-2.174
			l-49.46-8.4l-12.793-2.174l-4.139-0.707c-15.685-2.671-28.323-13.267-34.062-27.263c-2.163-5.287-3.356-11.049-3.356-17.053
			H429.37z"/>
		<path style="fill:#53B976;" d="M104.817,209.193c0,19.945-16.59,36.413-38.069,38.952c-0.154-1.523-0.232-3.069-0.232-4.636
			c0-21.877,15.21-40.762,36.491-45.497C104.188,201.555,104.817,205.307,104.817,209.193z"/>
		<g>
			<g>
				<path style="fill:#528F66;" d="M304.12,207.114c2.146,8.71-0.466,17.47-6.181,23.547c-3.25,3.487-7.512,6.074-12.469,7.296
					l-33.957,8.365c-6.84,1.685-13.697,0.444-19.285-2.935c-5.588-3.379-9.873-8.875-11.558-15.715
					c-3.15-12.786,3.955-25.7,16.083-30.067c0.83-0.305,1.687-0.559,2.567-0.776l33.957-8.365
					c6.827-1.682,13.697-0.444,19.285,2.935C298.137,194.782,302.435,200.275,304.12,207.114z"/>
				<path style="fill:#53B976;" d="M304.12,207.114c2.146,8.71-0.466,17.47-6.181,23.547c-28.551,4.706-55.262-9.358-61.186-33.055
					c0.83-0.305,1.687-0.559,2.567-0.776l33.957-8.365c6.827-1.682,13.697-0.444,19.285,2.935
					C298.137,194.782,302.435,200.275,304.12,207.114z"/>
			</g>
			<path style="fill:#F9C744;" d="M294.774,209.417c2.192,8.899-3.252,17.883-12.137,20.072l-32.548,8.018
				c-4.456,1.098-8.923,0.287-12.552-1.907c-3.63-2.195-6.422-5.774-7.52-10.23c-2.189-8.885,3.238-17.88,12.137-20.072
				l32.548-8.018c4.443-1.094,8.909-0.284,12.539,1.911C290.887,201.395,293.68,204.974,294.774,209.417z"/>
			<path style="fill:#2E3140;" d="M275.041,222.438c0,4.338-2.483,8.334-6.402,10.232c-0.717,0.353-1.468,0.629-2.274,0.828
				c-6.115,1.512-12.296-2.23-13.808-8.345l-2.472-10.066c-1.512-6.115,2.23-12.296,8.344-13.797
				c2.704-0.662,5.408-0.309,7.726,0.828c2.936,1.424,5.232,4.106,6.071,7.517l2.483,10.066
				C274.93,220.617,275.041,221.533,275.041,222.438z"/>
			<path style="fill:#2E3140;" d="M91.458,240.46L91.458,240.46c-3.994-3.994-3.994-10.469,0-14.462l4.211-4.211
				c3.994-3.994,10.469-3.994,14.462,0l0,0c3.994,3.994,3.994,10.469,0,14.462l-4.211,4.211
				C101.927,244.453,95.452,244.453,91.458,240.46z"/>
			<path style="fill:#3F5D77;" d="M275.041,222.438c0,4.338-2.483,8.334-6.402,10.232c-2.947-1.413-5.254-4.095-6.093-7.517
				l-2.472-10.066c-1.314-5.32,1.347-10.685,6.082-12.969c2.936,1.424,5.232,4.106,6.071,7.517l2.483,10.066
				C274.93,220.617,275.041,221.533,275.041,222.438z"/>
			<path style="fill:#CDE6F6;" d="M280.26,204.119l-19.077,4.7c-3.726,0.918-6.003,4.683-5.085,8.409v0
				c0.918,3.726,4.683,6.002,8.409,5.085l19.077-4.7c3.726-0.918,6.002-4.683,5.085-8.409v0
				C287.751,205.477,283.986,203.201,280.26,204.119z"/>
		</g>
		<g>
			<path style="fill:#528F66;" d="M429.37,203.276v86.845h-52.219c-28.841,0-52.219-23.378-52.219-52.219
				c0-8.609,2.086-16.733,5.784-23.885c2.483-4.835,5.695-9.228,9.514-13.036c9.448-9.459,22.506-15.298,36.921-15.298h49.548
				C428.432,191.212,429.37,197.117,429.37,203.276z"/>
			<path style="fill:#53B976;" d="M429.37,203.276v39.04h-52.219c-20.221,0-37.76-11.49-46.435-28.301
				c2.483-4.835,5.695-9.228,9.514-13.036c9.448-9.459,22.506-15.298,36.921-15.298h49.548
				C428.432,191.212,429.37,197.117,429.37,203.276z"/>
			<g>
				<path style="fill:#528F66;" d="M285.682,251.191L285.682,251.191c13.658,0,24.73,11.072,24.73,24.73v14.198h-49.461v-14.198
					C260.952,262.263,272.024,251.191,285.682,251.191z"/>
				<path style="fill:#528F66;" d="M223.43,251.191L223.43,251.191c13.658,0,24.73,11.072,24.73,24.73v14.198H198.7v-14.198
					C198.7,262.263,209.772,251.191,223.43,251.191z"/>
				<path style="fill:#528F66;" d="M161.178,251.191L161.178,251.191c13.658,0,24.73,11.072,24.73,24.73v14.198h-49.461v-14.198
					C136.448,262.263,147.52,251.191,161.178,251.191z"/>
				<path style="fill:#528F66;" d="M123.659,275.927v14.195h-10.53c-12.87,0-24.526-5.221-32.959-13.654
					c-1.943-1.942-3.709-4.051-5.287-6.302c2.583-10.883,12.373-18.974,24.04-18.974
					C112.588,251.191,123.659,262.262,123.659,275.927z"/>
			</g>
		</g>
		<path style="fill:#528F66;" d="M115.548,195.448l2.782,14.685c3.071,16.21,18.397,27.1,34.715,24.666l8.765-1.307
			c30.925-4.613,55.261-28.794,60.071-59.689l0,0L115.548,195.448z"/>
		<path style="fill:#53B976;" d="M130.265,192.452l2.426,12.512c1.208,6.232,7.271,10.278,13.49,9.003l29.094-5.964
			c11.192-2.294,20.702-9.616,25.782-19.849l5.584-11.249L130.265,192.452z"/>
		<path style="fill:#53B976;" d="M405.01,155.715c-3.587,4.327-8.62,7.461-14.481,8.587l-66.458,12.781
			c-12.903,2.483-25.519-5.497-28.809-18.223l63.831-12.991C375.959,142.437,392.327,146.576,405.01,155.715z"/>
		<g>
			<path style="fill:#F9C744;" d="M403.685,327.914v34.029c-11.545,7.616-25.928,11.104-40.873,8.566l-8.587-1.457v-41.138
				c0-13.654,11.071-24.735,24.735-24.735c6.821,0,13.002,2.77,17.484,7.252C400.915,314.901,403.685,321.082,403.685,327.914z"/>
			<path style="fill:#F9C744;" d="M341.433,327.914v38.963l-49.46-8.411v-30.552c0-13.654,11.082-24.735,24.735-24.735
				c6.822,0,13.002,2.77,17.484,7.252C338.662,314.901,341.433,321.082,341.433,327.914z"/>
			<path style="fill:#F9C744;" d="M279.191,327.914v28.389l-49.471-8.411v-19.978c0-13.654,11.082-24.735,24.735-24.735
				c6.821,0,13.014,2.77,17.484,7.252C276.421,314.901,279.191,321.082,279.191,327.914z"/>
			<path style="fill:#F9C744;" d="M216.938,327.914v17.804l-49.46-8.4v-9.404c0-13.654,11.071-24.735,24.724-24.735
				c6.821,0,13.014,2.77,17.484,7.252C214.168,314.901,216.938,321.082,216.938,327.914z"/>
			<path style="fill:#F9C744;" d="M154.686,327.914v7.23l-4.139-0.707c-15.685-2.671-28.323-13.267-34.062-27.263
				c3.874-2.528,8.499-3.996,13.466-3.996c6.832,0,13.013,2.77,17.495,7.252C151.915,314.901,154.686,321.082,154.686,327.914z"/>
		</g>
	</g>
</g>
</svg>
