<?xml version="1.0" encoding="iso-8859-1"?>
<!-- Generator: Adobe Illustrator 22.0.1, SVG Export Plug-In . SVG Version: 6.00 Build 0)  -->
<svg version="1.1" id="Icons" xmlns="http://www.w3.org/2000/svg" xmlns:xlink="http://www.w3.org/1999/xlink" x="0px" y="0px"
	 viewBox="0 0 512 512" style="enable-background:new 0 0 512 512;" xml:space="preserve">
<g>
	<circle style="fill:#EE6781;" cx="256" cy="256" r="256"/>
	<g>
		<g>
			<path style="fill:#EA792E;" d="M377.52,318.149l-46.914,61.529l-6.974,9.141c-5.936,7.804-13.521,13.682-21.912,17.509
				c-5.487,2.501-11.331,4.127-17.29,4.818c-3.308,0.38-6.651,0.484-9.994,0.3c-6.397-0.369-12.783-1.809-18.892-4.38
				c-2.79-1.153-5.521-2.559-8.173-4.196l-9.118-5.66l-28.886-17.912l-17.29-10.72l-28.886-17.913l-17.29-10.731l-28.886-17.913
				l-17.29-10.72l-3.861-2.398c-8.945-5.544-14.8-14.8-16.08-25.082c-0.185-1.418-0.277-2.859-0.277-4.311v-15.884h218.442
				L377.52,318.149z"/>
			<path style="fill:#F39E22;" d="M274.437,411.446c-6.397-0.369-12.783-1.809-18.892-4.38c-2.79-1.153-5.521-2.559-8.173-4.196
				l-9.118-5.66l-28.886-17.912l-17.29-10.72l-28.886-17.913l-17.29-10.731l-28.886-17.913l-17.29-10.72l-3.861-2.398
				c-8.945-5.544-14.8-14.8-16.08-25.082c6.397,0.369,12.783,1.81,18.892,4.38c2.789,1.153,5.521,2.559,8.173,4.196l9.118,5.66
				l28.886,17.912l17.29,10.72l28.886,17.913l17.29,10.731l28.886,17.913l17.29,10.72l3.862,2.397
				C267.302,391.908,273.157,401.164,274.437,411.446z"/>
			<g>
				<path style="fill:#F39E22;" d="M316.163,352.429c-7.976,0-14.443,6.467-14.443,14.443v39.456
					c8.391-3.827,15.976-9.705,21.912-17.509l6.974-9.141v-12.806C330.606,358.896,324.14,352.429,316.163,352.429z M99.312,288.468
					c-1.568-6.294-7.25-10.962-14.028-10.962c-2.052,0-4,0.426-5.775,1.199v0.807c0,1.452,0.092,2.893,0.277,4.311
					c1.279,10.282,7.135,19.538,16.08,25.082l3.861,2.398v-19.353C99.727,290.75,99.577,289.586,99.312,288.468z M131.46,285.574
					c-7.538,0-13.74,5.786-14.385,13.163c-0.035,0.415-0.058,0.842-0.058,1.28v22.004l28.886,17.913v-39.917
					C145.903,292.041,139.436,285.574,131.46,285.574z M177.636,294.796c-7.977,0-14.443,6.467-14.443,14.443v41.427l28.886,17.913
					v-59.339C192.079,301.262,185.612,294.796,177.636,294.796z M223.812,306.323c-7.977,0-14.443,6.467-14.443,14.443v58.533
					l28.886,17.912v-76.445C238.255,312.789,231.788,306.323,223.812,306.323z M269.987,327.071
					c-7.976,0-14.443,6.467-14.443,14.443v65.552c6.109,2.57,12.495,4.011,18.892,4.38c3.343,0.185,6.686,0.081,9.994-0.3v-69.633
					C284.43,333.537,277.964,327.071,269.987,327.071z"/>
				<g>
					<path style="fill:#F9C744;" d="M99.312,288.468c0.265,1.118,0.415,2.282,0.415,3.481v19.353l-3.861-2.398
						c-8.945-5.544-14.8-14.8-16.08-25.082c6.397,0.369,12.783,1.81,18.892,4.38C98.885,288.295,99.104,288.375,99.312,288.468z"/>
					<path style="fill:#F9C744;" d="M144.854,315.97l1.049,0.646v23.318l-28.886-17.913v-22.004c0-0.438,0.023-0.865,0.058-1.28
						L144.854,315.97z"/>
					<polygon style="fill:#F9C744;" points="191.03,344.603 192.079,345.248 192.079,368.578 163.193,350.666 163.193,327.336 					
						"/>
					<polygon style="fill:#F9C744;" points="237.206,373.247 238.255,373.892 238.255,397.21 209.369,379.298 209.369,355.98 					
						"/>
					<path style="fill:#F9C744;" d="M274.437,411.446c-6.397-0.369-12.783-1.809-18.892-4.38v-22.443l2.812,1.741
						C267.302,391.908,273.157,401.164,274.437,411.446z"/>
				</g>
			</g>
		</g>
		<g>
			<path style="fill:#F39E22;" d="M446.219,152.234l-45.588,123.658l-7.043,19.1c-4.449,12.057-12.483,21.521-22.362,27.803
				c-17.532,11.181-40.862,12.322-60.123,0.115l-4.08-2.57c-27.457-17.405-58.152-29.07-90.242-34.315L79.509,263.628
				c-8.933-1.452-16.391-7.584-19.549-16.057l-2.259-6.052c-2.006-5.372-2.063-11.031-0.484-16.172
				c1.948-6.386,6.42-11.953,12.794-15.158l71.316-35.79c22.523-11.296,47.363-17.175,72.56-17.175h61.011
				c16.472,0,32.275-6.547,43.928-18.201l9.383-9.383c17.889-17.878,42.142-27.929,67.431-27.929h15.354
				c8.564,0,16.264,2.789,22.431,7.412C446.092,118.599,452.294,135.762,446.219,152.234z"/>
			<path style="fill:#F9C744;" d="M433.424,109.124l-48.297,70.543c-14.04,20.506-36.355,33.831-61.068,36.459l-217.624,23.192
				c-14.789,1.568-29.67-1.833-42.303-9.671l-6.916-4.299c1.948-6.386,6.42-11.953,12.794-15.158l0.104-0.046l71.212-35.744
				c8.484-4.253,17.302-7.746,26.35-10.443c14.95-4.449,30.511-6.731,46.21-6.731h61.011c16.472,0,32.275-6.547,43.928-18.201
				l9.383-9.383c17.889-17.878,42.142-27.929,67.431-27.929h15.354C419.558,101.712,427.258,104.502,433.424,109.124z"/>
			<g>
				<circle style="fill:#F9C744;" cx="291.807" cy="257.721" r="13.343"/>
				<circle style="fill:#F9C744;" cx="342.519" cy="244.378" r="20.014"/>
				<circle style="fill:#F9C744;" cx="316.163" cy="291.078" r="20.014"/>
				<path style="fill:#F9C744;" d="M400.631,275.892l-7.043,19.1c-4.449,12.057-12.483,21.521-22.362,27.803
					c-12.195-3.377-21.14-14.558-21.14-27.825c0-15.941,12.933-28.875,28.886-28.875
					C387.606,266.094,395.352,269.887,400.631,275.892z"/>
			</g>
			<path style="fill:#FAD98F;" d="M167.677,163.956l-1.003,13.198c-1.36,17.913-13.221,33.301-30.188,39.191l-17.878,6.202
				c-15.815,5.487-33.37,1.763-45.588-9.683l-2.905-2.72l6.34-3.181l61.887-31.065l2.986-1.498
				C149.811,170.146,158.628,166.654,167.677,163.956z"/>
			<path style="fill:#FAD98F;" d="M410.994,101.712l-15.711,19.48l-40.724,50.51c-8.818,10.939-23.295,14.985-36.171,10.881
				c-2.49-0.796-4.911-1.891-7.227-3.297l-36.263-22.062c16.472,0,32.275-6.547,43.928-18.201l9.383-9.383
				c17.889-17.878,42.142-27.929,67.431-27.929H410.994z"/>
			<path style="fill:#FFFFFF;" d="M371.635,122.471c8.924-3.934,17.109,6.832,10.987,14.424l-28.063,34.807
				c-3.452,4.282-7.772,7.508-12.523,9.603c-8.924,3.934-17.109-6.832-10.987-14.424l28.063-34.807
				C362.564,127.791,366.884,124.565,371.635,122.471z"/>
			<path style="fill:#FFFFFF;" d="M138.387,177.788c0,20.898-16.944,37.842-37.842,37.842c-9.164,0-17.544-3.251-24.091-8.668
				l61.887-31.065C138.376,176.52,138.387,177.154,138.387,177.788z"/>
		</g>
		<g>
			<path style="fill:#FAD98F;" d="M240.479,269.184c-17.774,10.12-39.191,7.988-54.464-3.746c-5.072-3.873-9.475-8.818-12.829-14.72
				c-13.486-23.687-5.21-53.818,18.466-67.304c22.754-12.944,51.444-5.832,65.633,15.734c0.576,0.888,1.141,1.81,1.672,2.743
				C272.431,225.566,264.167,255.697,240.479,269.184z"/>
			<path style="fill:#F9C744;" d="M240.479,269.184c-17.774,10.12-39.191,7.988-54.464-3.746c-0.173-1.798-0.254-3.631-0.254-5.475
				c0-34.027,27.583-61.61,61.622-61.61c3.366,0,6.674,0.265,9.901,0.795c0.576,0.888,1.141,1.81,1.672,2.743
				C272.431,225.566,264.167,255.697,240.479,269.184z"/>
			<path style="fill:#FAEFDC;" d="M224.814,253.323c-12.552,7.146-27.768,5.302-38.222-3.493c-2.962-2.478-5.533-5.533-7.562-9.083
				c-9.175-16.103-3.539-36.609,12.576-45.784c13.394-7.619,29.843-5.014,40.274,5.36c2.109,2.098,3.965,4.507,5.51,7.216
				C246.565,223.653,240.929,244.148,224.814,253.323z"/>
			<path style="fill:#FAD98F;" d="M224.814,253.323c-12.552,7.146-27.768,5.302-38.222-3.493
				c3.988-24.091,21.947-43.467,45.288-49.507c2.109,2.098,3.965,4.507,5.51,7.216C246.565,223.653,240.929,244.148,224.814,253.323
				z"/>
			<path style="fill:#FFFFFF;" d="M213.761,240.897c-7.965,4.53-17.636,3.239-24.102-2.524c-1.648-1.475-3.089-3.228-4.242-5.245
				c-5.671-9.982-2.19-22.661,7.781-28.344c7.631-4.334,16.852-3.32,23.295,1.867c1.983,1.591,3.7,3.573,5.037,5.913
				C227.212,222.535,223.731,235.226,213.761,240.897z"/>
			<path style="fill:#FAEFDC;" d="M213.761,240.897c-7.965,4.53-17.636,3.239-24.102-2.524
				c5.014-13.417,14.581-24.621,26.834-31.721c1.983,1.591,3.7,3.573,5.037,5.913C227.212,222.535,223.731,235.226,213.761,240.897z
				"/>
			<g>
				<path style="fill:#3F5D77;" d="M212.923,217.473c2.15,3.777,1.779,8.298-0.565,11.635c-0.897,1.267-2.077,2.363-3.51,3.179
					c-5.209,2.965-11.843,1.145-14.808-4.064c-2.971-5.219-1.15-11.853,4.058-14.818c1.433-0.816,2.977-1.27,4.525-1.395
					C206.69,211.696,210.767,213.686,212.923,217.473z"/>
			</g>
			<g>
				<path style="fill:#2E3140;" d="M212.923,217.473c2.15,3.777,1.779,8.298-0.565,11.635c-4.067,0.313-8.144-1.677-10.294-5.454
					c-2.156-3.787-1.785-8.308,0.559-11.646C206.69,211.696,210.767,213.686,212.923,217.473z"/>
			</g>
			<path style="fill:#FAEFDC;" d="M251.342,241.745c-0.505,0-1.019-0.066-1.529-0.207l-17.725-4.865
				c-3.07-0.842-4.875-4.013-4.032-7.083c0.843-3.07,4.019-4.877,7.083-4.032l17.725,4.865c3.07,0.842,4.875,4.013,4.032,7.083
				C256.193,240.065,253.872,241.745,251.342,241.745z"/>
		</g>
		<g>
			<g>
				<circle style="fill:#F9C744;" cx="291.807" cy="257.721" r="13.343"/>
				<circle style="fill:#F9C744;" cx="342.519" cy="244.378" r="20.014"/>
				<circle style="fill:#F9C744;" cx="316.163" cy="291.078" r="20.014"/>
				<path style="fill:#F9C744;" d="M400.631,275.892l-7.043,19.1c-4.449,12.057-12.483,21.521-22.362,27.803
					c-12.195-3.377-21.14-14.558-21.14-27.825c0-15.941,12.933-28.875,28.886-28.875
					C387.606,266.094,395.352,269.887,400.631,275.892z"/>
			</g>
			<g>
				<circle style="fill:#FAD98F;" cx="311.553" cy="286.467" r="11.439"/>
				<circle style="fill:#FAD98F;" cx="369.972" cy="288.171" r="14.366"/>
				<circle style="fill:#FAD98F;" cx="337.909" cy="239.767" r="11.439"/>
				<circle style="fill:#FAD98F;" cx="288.974" cy="254.887" r="7.139"/>
			</g>
		</g>
	</g>
</g>
</svg>
