<?xml version="1.0" encoding="iso-8859-1"?>
<!-- Generator: Adobe Illustrator 22.0.1, SVG Export Plug-In . SVG Version: 6.00 Build 0)  -->
<svg version="1.1" id="Icons" xmlns="http://www.w3.org/2000/svg" xmlns:xlink="http://www.w3.org/1999/xlink" x="0px" y="0px"
	 viewBox="0 0 512 512" style="enable-background:new 0 0 512 512;" xml:space="preserve">
<g>
	<circle style="fill:#22BCE0;" cx="256" cy="256" r="256"/>
	<g>
		<g>
			<g>
				<g>
					<g>
						<path style="fill:#F39E22;" d="M464.474,126.126l1.752,8.366c5.584,26.664-11.508,52.81-38.172,58.393l-77.918,16.317
							c-14.002,2.932-27.724-6.038-30.655-20.032c-1.278-6.102-0.29-12.218,2.447-17.405c2.745-5.189,7.249-9.452,12.997-11.837
							l53.06-21.947l55.491-22.952C452.409,111.335,462.494,116.67,464.474,126.126z"/>
						<path style="fill:#DD5E26;" d="M464.474,126.126l1.752,8.366c5.584,26.664-11.508,52.81-38.172,58.393l-2.348,0.492
							c-18.35-10.695-32.279-28.825-36.975-51.251c-0.289-1.382-0.544-2.762-0.746-4.145l55.491-22.952
							C452.409,111.335,462.494,116.67,464.474,126.126z"/>
						<path style="fill:#EA792E;" d="M450.11,161.804h-4.57c-3.774,0-7.018-2.675-7.736-6.38l-3.901-20.117
							c-0.861-4.438,2.182-8.689,6.66-9.306l8.471-1.167c4.735-0.652,8.956,3.027,8.956,7.806v21.285
							C457.99,158.276,454.462,161.804,450.11,161.804z"/>
						<path style="fill:#FBCB74;" d="M419.41,181.028L355,200.98l-2.8,0.864c-0.562,0.179-1.123,0.322-1.689,0.441
							c-9.149,1.916-18.426-3.423-21.246-12.531c-2.99-9.671,2.421-19.937,12.09-22.935l65.063-20.151l2.137-0.665
							c0.562-0.179,1.123-0.322,1.689-0.441c9.149-1.916,18.425,3.415,21.246,12.531
							C434.489,167.764,429.079,178.029,419.41,181.028z"/>
						<path style="fill:#FBD9A3;" d="M419.41,181.028L355,200.98c6.874-22.903,25.701-43.13,51.418-54.311l2.137-0.665
							c0.562-0.179,1.123-0.322,1.689-0.441c9.149-1.916,18.425,3.415,21.246,12.531
							C434.489,167.764,429.079,178.029,419.41,181.028z"/>
					</g>
					<g>
						<path style="fill:#EA792E;" d="M47.526,126.126l-1.752,8.366c-5.584,26.664,11.508,52.81,38.172,58.393l77.918,16.317
							c14.002,2.932,27.724-6.038,30.655-20.032c1.278-6.102,0.29-12.218-2.447-17.405c-2.745-5.189-7.249-9.452-12.997-11.837
							l-53.06-21.947L68.524,115.03C59.591,111.335,49.506,116.67,47.526,126.126z"/>
						<path style="fill:#BF5E39;" d="M47.526,126.126l-1.752,8.366c-5.584,26.664,11.508,52.81,38.172,58.393l2.348,0.492
							c18.35-10.695,32.279-28.825,36.975-51.251c0.289-1.382,0.544-2.762,0.746-4.145L68.524,115.03
							C59.591,111.335,49.506,116.67,47.526,126.126z"/>
						<path style="fill:#DD5E26;" d="M61.89,161.804h4.57c3.774,0,7.018-2.675,7.736-6.38l3.901-20.117
							c0.861-4.438-2.182-8.689-6.66-9.306l-8.471-1.167c-4.735-0.652-8.956,3.027-8.956,7.806v21.285
							C54.01,158.276,57.538,161.804,61.89,161.804z"/>
						<path style="fill:#F9C744;" d="M92.59,181.028L157,200.98l2.8,0.864c0.562,0.179,1.123,0.322,1.689,0.441
							c9.149,1.916,18.426-3.423,21.246-12.531c2.99-9.671-2.421-19.937-12.09-22.935l-65.063-20.151l-2.137-0.665
							c-0.562-0.179-1.123-0.322-1.689-0.441c-9.149-1.916-18.425,3.415-21.246,12.531C77.511,167.764,82.921,178.029,92.59,181.028
							z"/>
						<path style="fill:#FBCB74;" d="M92.59,181.028L157,200.98c-6.874-22.903-25.701-43.13-51.418-54.311l-2.137-0.665
							c-0.562-0.179-1.123-0.322-1.689-0.441c-9.149-1.916-18.425,3.415-21.246,12.531C77.511,167.764,82.921,178.029,92.59,181.028
							z"/>
					</g>
				</g>
				<g>
					<path style="fill:#F39E22;" d="M357.834,239.249l-14.07,97.996c-3.136,21.828-14.05,40.849-29.688,54.414
						c-15.649,13.555-36.021,21.662-58.076,21.662c-35.681,0-66.988-21.229-80.945-52.464c-3.291-7.365-5.622-15.288-6.819-23.612
						l-0.392-2.733l-1.97-13.689l-3.775-26.346l-7.932-55.229c-3.848-26.83,1.816-54.166,16.01-77.262l22.147-36.011
						c4.632-7.54,12.853-12.131,21.693-12.131h83.967c8.84,0,17.062,4.59,21.693,12.131l22.147,36.011
						C356.018,185.083,361.681,212.419,357.834,239.249z"/>
					<path style="fill:#F9C744;" d="M357.834,239.249l-7.932,55.229l-3.775,26.346l-1.97,13.689l-0.392,2.733
						c-1.197,8.325-3.528,16.247-6.819,23.612c-5.333,11.935-13.204,22.415-22.869,30.802c-8.325,7.21-17.99,12.884-28.532,16.618
						c-9.274,3.27-19.228,5.044-29.543,5.044V113.845h41.984c8.84,0,17.062,4.59,21.693,12.131l22.147,36.011
						c7.314,11.894,12.358,24.922,15.009,38.425C359.329,213.11,359.701,226.242,357.834,239.249z"/>
				</g>
			</g>
			<g>
				<g>
					<path style="fill:#DD5E26;" d="M300.425,15.563L300.425,15.563c12.421,0,21.712,11.402,19.204,23.567l-4.974,24.125
						c-0.413,2.003-0.51,4.059-0.287,6.093l7.74,70.717c1.27,11.604-7.818,21.741-19.491,21.741h-4.383
						c-11.673,0-20.761-10.137-19.491-21.741l7.74-70.717c0.223-2.033,0.126-4.089-0.287-6.093l-4.974-24.125
						C278.714,26.965,288.005,15.563,300.425,15.563z"/>
					<path style="fill:#EA792E;" d="M313.132,37.176c0-7.018-5.689-12.707-12.707-12.707c-7.018,0-12.707,5.689-12.707,12.707
						s5.689,23.598,12.707,23.598C307.443,60.775,313.132,44.194,313.132,37.176z"/>
					<path style="fill:#EA792E;" d="M300.425,80.672L300.425,80.672c-3.089,0-5.657,2.377-5.897,5.456l-3.91,50.301
						c-0.444,5.715,4.074,10.598,9.806,10.598h0c5.733,0,10.251-4.883,9.806-10.598l-3.91-50.301
						C306.083,83.049,303.514,80.672,300.425,80.672z"/>
				</g>
				<g>
					<path style="fill:#BF5E39;" d="M211.575,15.563L211.575,15.563c12.421,0,21.712,11.402,19.203,23.567l-4.974,24.125
						c-0.413,2.003-0.51,4.059-0.287,6.093l7.74,70.717c1.27,11.604-7.818,21.741-19.491,21.741h-4.383
						c-11.673,0-20.761-10.137-19.491-21.741l7.74-70.717c0.223-2.033,0.126-4.089-0.287-6.093l-4.974-24.125
						C189.863,26.965,199.154,15.563,211.575,15.563z"/>
					<path style="fill:#DD5E26;" d="M224.281,37.176c0-7.018-5.689-12.707-12.707-12.707c-7.018,0-12.707,5.689-12.707,12.707
						s5.689,23.598,12.707,23.598C218.592,60.775,224.281,44.194,224.281,37.176z"/>
					<path style="fill:#DD5E26;" d="M211.575,80.672L211.575,80.672c-3.089,0-5.657,2.377-5.897,5.456l-3.91,50.301
						c-0.444,5.715,4.074,10.598,9.806,10.598h0c5.733,0,10.251-4.883,9.806-10.598l-3.91-50.301
						C217.232,83.049,214.663,80.672,211.575,80.672z"/>
				</g>
			</g>
			<g>
				<path style="fill:#FBD9A3;" d="M357.834,239.249l-7.932,55.229l-3.775,26.346l-1.97,13.689l-0.392,2.733
					c-1.197,8.325-3.528,16.247-6.819,23.612c-5.333,11.935-13.204,22.415-22.869,30.802c-8.325,7.21-17.99,12.884-28.532,16.618
					V275.23c0-64.048,71.29-74.818,71.29-74.818C359.329,213.11,359.701,226.242,357.834,239.249z"/>
				<path style="fill:#DD5E26;" d="M349.901,294.478l-3.775,26.346h-26.129c-3.219,0-5.828-2.62-5.828-5.838v-14.679
					c0-3.218,2.61-5.828,5.828-5.828H349.901z"/>
				<path style="fill:#DD5E26;" d="M344.155,334.512l-0.392,2.733c-1.197,8.325-3.528,16.247-6.819,23.612H310.61
					c-3.218,0-5.828-2.61-5.828-5.828v-14.679c0-3.218,2.61-5.838,5.828-5.838H344.155z"/>
			</g>
			<g>
				<path style="fill:#FBCB74;" d="M154.165,239.249l7.932,55.229l3.775,26.346l1.97,13.689l0.392,2.733
					c1.197,8.325,3.528,16.247,6.819,23.612c5.333,11.935,13.204,22.415,22.869,30.802c8.325,7.21,17.99,12.884,28.532,16.618
					V275.23c0-64.048-71.29-74.818-71.29-74.818C152.669,213.11,152.298,226.242,154.165,239.249z"/>
				<path style="fill:#BF5E39;" d="M197.831,300.306v14.679c0,3.218-2.61,5.838-5.828,5.838h-26.129l-3.775-26.346h29.904
					C195.222,294.478,197.831,297.088,197.831,300.306z"/>
				<path style="fill:#BF5E39;" d="M207.218,340.351v14.679c0,3.219-2.61,5.828-5.828,5.828h-26.335
					c-3.291-7.365-5.622-15.288-6.819-23.612l-0.392-2.733h33.546C204.609,334.512,207.218,337.133,207.218,340.351z"/>
			</g>
			<g>
				<path style="fill:#EA792E;" d="M322.225,426.753v15.607c0,27.15-22.003,49.142-49.143,49.142h-34.165
					c-27.14,0-49.142-21.992-49.142-49.142v-15.607c0-14.968,6.695-28.357,17.237-37.373c8.892-7.582,14.504-18.289,15.112-29.956
					l4.364-84.782c0.815-15.71,13.781-28.037,29.512-28.027c0.382,0,0.743,0.01,1.124,0.021
					c15.391,0.567,27.625,13.214,28.419,28.594l4.333,84.194c0.608,11.667,6.22,22.374,15.112,29.956
					C315.53,398.396,322.225,411.785,322.225,426.753z"/>
				<path style="fill:#F39E22;" d="M322.225,426.753v15.607c0,27.15-22.003,49.142-49.143,49.142H256V246.615
					c0.382,0,0.743,0.01,1.124,0.021c15.391,0.567,27.625,13.214,28.419,28.594l4.333,84.194
					c0.608,11.667,6.22,22.374,15.112,29.956C315.53,398.396,322.225,411.785,322.225,426.753z"/>
				<g>
					<path style="fill:#3E4E60;" d="M284.509,450.587L284.509,450.587c-5.985,0-10.837-4.852-10.837-10.837v-24.342
						c0-5.985,4.852-10.837,10.837-10.837h4.911c6.846,0,11.977,6.269,10.623,12.98l-4.911,24.342
						C294.112,446.95,289.668,450.587,284.509,450.587z"/>
					<path style="fill:#2E3140;" d="M227.491,450.587L227.491,450.587c5.985,0,10.837-4.852,10.837-10.837v-24.342
						c0-5.985-4.852-10.837-10.837-10.837h-4.911c-6.846,0-11.977,6.269-10.623,12.98l4.911,24.342
						C217.888,446.95,222.332,450.587,227.491,450.587z"/>
				</g>
				<g>
					<path style="fill:#BF5E39;" d="M293.316,476.427h-74.632c-18.784,0-34.067-15.282-34.067-34.067
						c0-2.848,2.309-5.158,5.158-5.158c2.849,0,5.158,2.309,5.158,5.158c0,13.096,10.655,23.751,23.752,23.751h74.632
						c13.097,0,23.752-10.655,23.752-23.751c0-2.848,2.309-5.158,5.158-5.158s5.158,2.309,5.158,5.158
						C327.383,461.144,312.1,476.427,293.316,476.427z"/>
				</g>
			</g>
			<g>
				<path style="fill:#3E4E60;" d="M357.293,254.129c2.626,9.799-3.113,19.86-12.851,22.602c-0.079,0.036-0.162,0.058-0.244,0.08
					l-12.445,3.335c-4.934,1.322-9.949,0.524-14.055-1.847c-4.12-2.367-7.315-6.297-8.641-11.245
					c-2.463-9.193,2.438-18.63,11.085-22.026c0.653-0.264,1.331-0.49,2.02-0.674l12.445-3.335c4.948-1.326,9.952-0.51,14.059,1.861
					C352.773,245.251,355.967,249.181,357.293,254.129z"/>
				<path style="fill:#2E3140;" d="M357.293,254.129c2.626,9.799-3.113,19.86-12.851,22.602
					c-10.719-3.288-19.802-12.435-23.122-24.825c-0.617-2.302-1.012-4.603-1.178-6.878c0.653-0.264,1.331-0.49,2.02-0.674
					l12.445-3.335c4.948-1.326,9.952-0.51,14.059,1.861C352.773,245.251,355.967,249.181,357.293,254.129z"/>
				<path style="fill:#FFFFFF;" d="M340.597,248.07l-7.488,2.006c-3.224,0.864-5.138,4.178-4.274,7.402l0,0
					c0.864,3.224,4.178,5.138,7.402,4.274l7.488-2.006c3.224-0.864,5.138-4.178,4.274-7.402l0,0
					C347.136,249.12,343.822,247.206,340.597,248.07z"/>
				<path style="fill:#3E4E60;" d="M202.945,267.054c-2.626,9.799-12.626,15.643-22.431,13.148
					c-0.086-0.008-0.169-0.031-0.252-0.053l-12.445-3.335c-4.934-1.322-8.878-4.521-11.249-8.627
					c-2.385-4.11-3.187-9.111-1.861-14.059c2.463-9.193,11.427-14.915,20.613-13.532c0.698,0.098,1.398,0.242,2.087,0.426
					l12.445,3.335c4.948,1.326,8.874,4.534,11.245,8.641C203.469,257.105,204.27,262.106,202.945,267.054z"/>
				<path style="fill:#2E3140;" d="M202.945,267.054c-2.626,9.799-12.626,15.643-22.431,13.148
					c-7.639-8.206-10.932-20.67-7.612-33.06c0.617-2.302,1.425-4.493,2.419-6.546c0.698,0.098,1.398,0.242,2.087,0.426l12.445,3.335
					c4.948,1.326,8.874,4.534,11.245,8.641C203.469,257.105,204.27,262.106,202.945,267.054z"/>
				<path style="fill:#FFFFFF;" d="M191.515,253.459l-7.488-2.006c-3.224-0.864-6.539,1.049-7.402,4.274v0
					c-0.864,3.224,1.049,6.538,4.274,7.402l7.488,2.006c3.224,0.864,6.539-1.049,7.402-4.274h0
					C196.652,257.637,194.739,254.323,191.515,253.459z"/>
			</g>
		</g>
		<path style="fill:#F9C744;" d="M256,338.387h4.034c8.008,0,14.981,5.468,16.89,13.245l7.78,31.685
			c1.573,6.406-1.718,13.019-7.792,15.592c-4.974,2.107-11.882,3.924-20.912,3.924V338.387z"/>
		<path style="fill:#F39E22;" d="M256,338.387h-4.034c-8.008,0-14.981,5.468-16.89,13.245l-7.78,31.685
			c-1.573,6.406,1.718,13.019,7.792,15.592c4.974,2.107,11.882,3.924,20.912,3.924V338.387z"/>
	</g>
</g>
</svg>
