<?xml version="1.0" encoding="iso-8859-1"?>
<!-- Generator: Adobe Illustrator 22.0.1, SVG Export Plug-In . SVG Version: 6.00 Build 0)  -->
<svg version="1.1" id="Icons" xmlns="http://www.w3.org/2000/svg" xmlns:xlink="http://www.w3.org/1999/xlink" x="0px" y="0px"
	 viewBox="0 0 512 512" style="enable-background:new 0 0 512 512;" xml:space="preserve">
<g>
	<circle style="fill:#EA792E;" cx="256" cy="256" r="256"/>
	<g>
		<g>
			<g>
				<g>
					<path style="fill:#DD5273;" d="M234.74,389.72c-0.099,19.022,30.038,20.305,30,48.55c0.075,28.151-30.132,29.587-30,48.54
						c-0.295,9.84-14.64,10.004-15,0c-0.005-28.3,30.075-29.46,30-48.54c0.154-18.94-30.085-20.414-30-48.55
						c0.014-28.291,30.245-29.691,30-48.55c0.133-18.983-30.002-20.256-30-48.54c0.319-18.983,12.781-25.32,22.83-34.37
						c4.63-4.2,7.17-7.98,7.17-14.17c0.333-9.863,14.608-10.002,15,0c0.077,14.297-8.29,22.642-17.78,30.1
						c-7.81,6.31-12.22,10.28-12.22,18.44c0,8.16,4.42,12.13,12.22,18.44c8.066,6.365,18.335,15.239,17.76,31
						c-0.36,15.13-9.99,22.92-17.76,29.21C239.884,376.928,234.526,381.668,234.74,389.72z"/>
				</g>
				<g>
					<path style="fill:#DD5273;" d="M279.01,295.63c-0.109,19.017,30.069,20.372,30,48.55c0.384,13.749-8.887,23.395-17.79,30.11
						c-5.37,4.35-9.14,7.59-10.96,11.85c-0.82,1.92-1.25,4.05-1.25,6.59c0,4.14-3.36,7.5-7.5,7.5c-4.15,0-7.5-3.36-7.5-7.5
						c-0.336-13.661,8.583-23.13,17.78-30.11c7.602-6.283,12.099-9.79,12.22-18.44c0-8.16-4.42-12.13-12.22-18.44
						c-7.92-6.41-17.78-14.39-17.78-30.11c0-11.45,5.24-18.8,11.15-24.42c7.86-7.441,19.538-13.539,18.85-24.12c0,0,0-56.24,0-56.24
						c0-4.14,3.35-7.5,7.5-7.5c4.14,0,7.5,3.36,7.5,7.5v56.24c-0.14,16.708-10.543,24.132-19.25,31.29
						C282.87,284.03,279.01,288,279.01,295.63z"/>
				</g>
				<g>
					<path style="fill:#DD5273;" d="M190.47,295.63c-0.153,19.001,29.966,20.187,30,48.55c0.203,13.992-8.36,22.814-17.78,30.11
						c-7.8,6.31-12.22,10.28-12.22,18.44c0,4.14-3.35,7.5-7.5,7.5c-4.14,0-7.5-3.36-7.5-7.5c0-15.72,9.86-23.69,17.79-30.11
						c6.284-5.109,12.417-9.859,12.21-18.44c0.147-19.515-31.977-20.532-29.899-51.16c1.71-25.672,30.099-27.633,29.9-45.93
						c0,0,0-64.14,0-64.14c0-4.15,3.36-7.5,7.5-7.5c4.15,0,7.5,3.35,7.5,7.5v64.14C220.51,275.281,190.31,276.708,190.47,295.63z"/>
				</g>
			</g>
			<g>
				<path style="fill:#C0405C;" d="M220.15,251.8c-2.983,23.631-29.905,26.097-29.68,43.83c0,5.87,2.28,9.57,6.47,13.53
					c-8.17-5.36-15.36-10.81-21.37-16.14c1.71-24.946,28.257-27.404,29.83-44.21C210.1,249.57,215.03,250.57,220.15,251.8z"/>
				<path style="fill:#C0405C;" d="M264.74,341.17c0,0.3,0,0.6-0.02,0.9c-5.14-1.78-10.37-3.74-15.66-5.9
					c-1.51-5.08-5.51-8.56-11.54-13.44c-7.92-6.41-17.78-14.38-17.78-30.1c0.318-18.991,12.782-25.315,22.83-34.37
					c5.02,1.68,10.14,3.54,15.32,5.58c-7.51,10.108-23.784,15.971-23.15,28.79C234.635,311.629,264.801,312.984,264.74,341.17z"/>
				<path style="fill:#C0405C;" d="M309.01,344.18c0,3.25-0.42,6.18-1.17,8.82c-4.72-0.68-9.69-1.61-14.86-2.78
					c3.435-10.606-1.463-17.041-11.19-24.48c-7.92-6.41-17.78-14.39-17.78-30.11c0-11.45,5.24-18.8,11.15-24.42
					c5.03,2.32,9.91,4.71,14.6,7.17c-6.89,5.65-10.75,9.62-10.75,17.25c0,8.16,4.41,12.13,12.21,18.45
					C299.15,320.49,309.01,328.46,309.01,344.18z"/>
			</g>
			<g>
				<path style="fill:#C0405C;" d="M198.87,357.84c5.26,1.37,10.59,2.85,15.99,4.45c-3.49,4.98-8.09,8.7-12.17,12
					c-7.8,6.31-12.22,10.28-12.22,18.44c0,4.14-3.35,7.5-7.5,7.5c-4.14,0-7.5-3.36-7.5-7.5
					C175.788,373.404,188.695,367.197,198.87,357.84z"/>
				<path style="fill:#C0405C;" d="M264.74,438.27c0,15.71-9.86,23.69-17.78,30.1c-7.8,6.31-12.22,10.28-12.22,18.44
					c-0.327,9.906-14.657,9.946-15,0c-0.039-28.234,30.094-29.505,30-48.54c0-8.17-4.41-12.13-12.22-18.45
					c-7.92-6.41-17.78-14.39-17.78-30.1c0-10.46,4.37-17.49,9.63-22.92c5.37,1.75,10.79,3.61,16.25,5.58
					c-6.97,5.69-10.88,9.66-10.88,17.34c0,8.16,4.42,12.13,12.22,18.44C254.88,414.57,264.74,422.55,264.74,438.27z"/>
				<path style="fill:#C0405C;" d="M280.26,386.14c-0.82,1.92-1.25,4.05-1.25,6.59c0,4.14-3.36,7.5-7.5,7.5
					c-4.15,0-7.5-3.36-7.5-7.5c0-4.79,0.92-8.86,2.42-12.39C271.11,382.23,275.72,384.17,280.26,386.14z"/>
			</g>
		</g>
		<g>
			<path style="fill:#F39E22;" d="M316.37,170.53v13.19c0,33.34-27.03,60.37-60.37,60.37c-16.67,0-31.76-6.76-42.69-17.68
				c-10.92-10.93-17.68-26.02-17.68-42.69v-13.19H316.37z"/>
			<path style="fill:#F9C744;" d="M316.37,170.53v13.19c0,33.34-27.03,60.37-60.37,60.37v-73.56H316.37z"/>
			<g>
				<path style="fill:#DD5E26;" d="M263.17,170.53V220c0,3.96-3.21,7.17-7.17,7.17s-7.17-3.21-7.17-7.17v-49.47H263.17z"/>
				<path style="fill:#EA792E;" d="M290.338,211.169L290.338,211.169c-3.959,0-7.169-3.21-7.169-7.169v-33.467h14.338V204
					C297.506,207.959,294.297,211.169,290.338,211.169z"/>
				<path style="fill:#DD5E26;" d="M221.662,211.169L221.662,211.169c-3.959,0-7.169-3.21-7.169-7.169v-33.467h14.338V204
					C228.831,207.959,225.622,211.169,221.662,211.169z"/>
				<path style="fill:#EA792E;" d="M263.17,170.53V220c0,3.96-3.21,7.17-7.17,7.17v-56.64H263.17z"/>
			</g>
		</g>
		<g>
			<g>
				<path style="fill:#F9C744;" d="M366.07,121.28v17.62c0,1.02-0.05,2.03-0.14,3.03c-1.04,10.91-7.61,20.2-16.88,25.03
					c-4.37,2.28-9.34,3.57-14.61,3.57H177.56c-5.27,0-10.24-1.29-14.61-3.57c-9.27-4.83-15.84-14.13-16.88-25.03
					c-0.09-1-0.14-2.01-0.14-3.03v-17.62c0-14.65,3.42-28.5,9.5-40.79c4.22-8.51,9.7-16.28,16.22-23.06
					c11.71-12.19,26.74-21.16,43.64-25.44c7.29-1.87,14.92-2.85,22.78-2.85h35.86c43.66,0,80.22,30.36,89.73,71.12
					C365.24,107.01,366.07,114.05,366.07,121.28z"/>
				<path style="fill:#FBCB74;" d="M221.66,160.53c0,3.39-0.21,6.73-0.61,10h-43.49c-5.27,0-10.24-1.29-14.61-3.57
					c-9.27-4.83-15.84-14.13-16.88-25.03c-0.09-1-0.14-2.01-0.14-3.03v-17.62c0-14.65,3.42-28.5,9.5-40.79
					C193.15,87.62,221.66,120.74,221.66,160.53z"/>
				<path style="fill:#FBCB74;" d="M366.07,121.28v17.62c0,1.02-0.05,2.03-0.14,3.03c-1.53,16.05-15.04,28.6-31.49,28.6H256V29.14
					h17.93c43.66,0,80.22,30.36,89.73,71.12C365.24,107.01,366.07,114.05,366.07,121.28z"/>
				<path style="fill:#FBCB74;" d="M363.66,100.26c-15.67,12.84-35.71,20.55-57.55,20.55c-49.49,0-89.75-39.58-90.82-88.82
					c7.29-1.87,14.92-2.85,22.78-2.85h35.86C317.59,29.14,354.15,59.5,363.66,100.26z"/>
				<path style="fill:#FBD9A3;" d="M363.66,100.26c-15.67,12.84-35.71,20.55-57.55,20.55c-18.52,0-35.75-5.54-50.11-15.06V29.14
					h17.93c11.17,0,21.88,1.99,31.78,5.63c11.55,4.24,22.01,10.73,30.86,18.94C349.8,65.98,359.41,82.08,363.66,100.26z"/>
				<path style="fill:#FAEFDC;" d="M338.03,62.66c0,15.58-12.63,28.2-28.2,28.2c-15.57,0-28.2-12.62-28.2-28.2
					c0-14.17,10.46-25.9,24.08-27.89c11.55,4.24,22.01,10.73,30.86,18.94C337.52,56.52,338.03,59.53,338.03,62.66z"/>
			</g>
			<g>
				<g>
					<path style="fill:#DD5273;" d="M280.382,141.93h-5.823c-6.291,0-11.39,5.099-11.39,11.39v17.213h28.603V153.32
						C291.772,147.029,286.673,141.93,280.382,141.93z"/>
					<path style="fill:#DD5273;" d="M365.93,141.93c-1.04,10.91-7.61,20.2-16.88,25.03v-13.64c0-6.29,5.1-11.39,11.39-11.39H365.93z
						"/>
					<path style="fill:#DD5273;" d="M323.323,141.93H317.5c-6.291,0-11.39,5.099-11.39,11.39v17.213h28.603V153.32
						C334.713,147.029,329.614,141.93,323.323,141.93z"/>
				</g>
				<g>
					<path style="fill:#C0405C;" d="M237.441,141.93h-5.823c-6.291,0-11.39,5.099-11.39,11.39v17.213h28.603V153.32
						C248.831,147.029,243.732,141.93,237.441,141.93z"/>
					<path style="fill:#C0405C;" d="M162.95,153.32v13.64c-9.27-4.83-15.84-14.13-16.88-25.03h5.49
						C157.85,141.93,162.95,147.03,162.95,153.32z"/>
					<path style="fill:#C0405C;" d="M194.5,141.93h-5.823c-6.291,0-11.39,5.099-11.39,11.39v17.213h28.603V153.32
						C205.89,147.029,200.791,141.93,194.5,141.93z"/>
				</g>
			</g>
		</g>
	</g>
</g>
</svg>
