<?xml version="1.0" encoding="iso-8859-1"?>
<!-- Generator: Adobe Illustrator 22.0.1, SVG Export Plug-In . SVG Version: 6.00 Build 0)  -->
<svg version="1.1" id="Icons" xmlns="http://www.w3.org/2000/svg" xmlns:xlink="http://www.w3.org/1999/xlink" x="0px" y="0px"
	 viewBox="0 0 512 512" style="enable-background:new 0 0 512 512;" xml:space="preserve">
<g>
	<circle style="fill:#EA792E;" cx="256" cy="256" r="256"/>
	<g>
		<g>
			<path style="fill:#DECEE5;" d="M373.3,64.48v125.781c0,7.152-2.242,14.125-6.411,19.937L340.41,247.11
				c1.131,0.757-67.199-44.66-68.99-45.85l15.62-56.7c2.08-7.55,5.88-14.51,11.11-20.34l59.07-65.93
				C362.785,52.047,373.35,56.129,373.3,64.48z"/>
			<path style="fill:#F4E6F4;" d="M341.93,173.85c4.47,13.59,4.99,28.09,1.61,41.87c-1.347,6.357-7.432,20.749-9.71,27.02
				l-62.41-41.48l15.62-56.7c2.08-7.55,5.88-14.51,11.11-20.34l28.95-32.31l30.12-33.62c4.383-5.05,13.05-3.482,15.41,2.75
				l-26.96,56.02C337.14,134.79,335.8,155.15,341.93,173.85z"/>
			<path style="fill:#FFFFFF;" d="M341.93,173.85c4.47,13.59,4.99,28.09,1.61,41.87c-26.398-32.72-33.657-84.406-16.439-123.81
				c-0.001,0,30.119-33.62,30.119-33.62c4.387-5.051,13.048-3.482,15.41,2.75l-26.96,56.02
				C337.14,134.79,335.8,155.15,341.93,173.85z"/>
		</g>
		<g>
			<path style="fill:#C2AACF;" d="M138.693,64.48v125.781c0,7.152,2.242,14.125,6.411,19.937l26.479,36.913
				c-1.131,0.757,67.199-44.66,68.99-45.85l-15.62-56.7c-2.08-7.55-5.88-14.51-11.11-20.34l-59.07-65.93
				C149.208,52.047,138.643,56.129,138.693,64.48z"/>
			<path style="fill:#EBD9EA;" d="M170.063,173.85c-4.47,13.59-4.99,28.09-1.61,41.87c1.347,6.357,7.432,20.749,9.71,27.02
				l62.41-41.48l-15.62-56.7c-2.08-7.55-5.88-14.51-11.11-20.34l-28.95-32.31l-30.12-33.62c-4.383-5.05-13.05-3.482-15.41,2.75
				l26.96,56.02C174.852,134.79,176.193,155.15,170.063,173.85z"/>
			<path style="fill:#F9F2F9;" d="M170.063,173.85c-4.47,13.59-4.99,28.09-1.61,41.87c26.398-32.72,33.657-84.406,16.439-123.81
				c0.001,0-30.119-33.62-30.119-33.62c-4.386-5.051-13.048-3.482-15.41,2.75l26.96,56.02
				C174.852,134.79,176.193,155.15,170.063,173.85z"/>
		</g>
		<g>
			<g>
				<path style="fill:#C2AACF;" d="M366.39,316.38v23.28c0.165,62.469-53.755,109.99-115.451,105.329
					C192.76,444.99,145.6,397.83,145.6,339.66v-23.28c-0.166-62.469,53.756-109.99,115.46-105.329
					C319.23,211.05,366.39,258.21,366.39,316.38z"/>
				<path style="fill:#DECEE5;" d="M366.39,316.38v23.28c0.164,60.098-50.517,107.974-110.39,105.33V211.05
					C315.874,208.407,366.553,256.282,366.39,316.38z"/>
			</g>
			<g>
				<path style="fill:#DECEE5;" d="M282.65,450.74h-53.3c-34.61,0-61-28.63-55.52-60.22c1.736-10.017,5.268-30.389,7.01-40.45
					c2.77-15.94,2.77-32.2,0-48.14l-5.23-30.21c-6.42-36.96,24.47-70.46,64.97-70.46h30.84c40.5,0,71.39,33.5,64.97,70.46
					l-5.23,30.21c-2.77,15.94-2.77,32.2,0,48.14l3.69,21.3l3.32,19.15C343.65,422.11,317.26,450.74,282.65,450.74z"/>
				<path style="fill:#EBD9EA;" d="M282.65,450.74H256V201.26h15.42c40.5,0,71.39,33.5,64.97,70.46l-5.23,30.21
					c-2.77,15.94-2.77,32.2,0,48.14c1.732,10.031,5.281,30.454,7.01,40.45C343.65,422.11,317.26,450.74,282.65,450.74z"/>
			</g>
			<g>
				<g>
					<path style="fill:#3E4E60;" d="M330.58,297.358c9.733,1.716,16.254,10.926,14.666,20.653c-0.001,0.085-0.015,0.167-0.03,0.249
						l-2.18,12.362c-1.729,9.807-11.089,16.388-20.905,14.65c-9.869-1.693-16.394-11.283-14.647-20.919c0,0,2.18-12.362,2.18-12.362
						C311.404,302.175,320.761,295.627,330.58,297.358z"/>
					<path style="fill:#2E3140;" d="M330.58,297.358c9.733,1.716,16.254,10.926,14.666,20.653
						c-8.448,9.798-24.826,13.633-37.998,8.403c-0.045-1.091,2.211-13.047,2.416-14.423
						C311.404,302.175,320.761,295.627,330.58,297.358z"/>
					<path style="fill:#FFFFFF;" d="M318.357,309.606l-1.311,7.438c-0.565,3.203,1.574,6.257,4.776,6.822s6.257-1.574,6.822-4.776
						l1.311-7.438C331.07,303.946,319.944,301.982,318.357,309.606z"/>
				</g>
				<g>
					<path style="fill:#3E4E60;" d="M181.42,297.358c-9.733,1.716-16.254,10.926-14.666,20.653c0.001,0.085,0.015,0.167,0.03,0.249
						l2.18,12.362c1.729,9.807,11.089,16.388,20.905,14.65c9.869-1.693,16.394-11.283,14.647-20.919c0,0-2.18-12.362-2.18-12.362
						C200.596,302.175,191.239,295.627,181.42,297.358z"/>
					<path style="fill:#2E3140;" d="M181.42,297.358c-9.733,1.716-16.254,10.926-14.666,20.653
						c8.448,9.798,24.826,13.633,37.998,8.403c0.045-1.091-2.211-13.047-2.416-14.423
						C200.596,302.175,191.239,295.627,181.42,297.358z"/>
					<path style="fill:#FFFFFF;" d="M193.643,309.606l1.311,7.438c0.565,3.203-1.574,6.257-4.776,6.822
						c-3.203,0.565-6.257-1.574-6.822-4.776l-1.311-7.438C180.93,303.946,192.056,301.982,193.643,309.606z"/>
				</g>
			</g>
			<g>
				<path style="fill:#F4E6F4;" d="M256,219.423c44.962,0,57.961,12.999,57.961,30.691c0,17.693-10.849,49.467-57.961,49.467
					V219.423z"/>
				<path style="fill:#EBD9EA;" d="M256,219.423c-44.962,0-57.961,12.999-57.961,30.691c0,17.693,10.849,49.467,57.961,49.467
					V219.423z"/>
			</g>
			<g>
				<g>
					<path style="fill:#EBD9EA;" d="M338.89,398.86c0,28.11-24.71,51.88-56.24,51.88h-53.3c-34.61,0-61-28.63-55.52-60.22
						c1.92-11.07,11.518-19.149,22.76-19.15c0,0,118.82,0,118.82,0C330.751,371.584,339.555,384.306,338.89,398.86z"/>
					<path style="fill:#F4E6F4;" d="M338.89,398.86c0,28.11-24.71,51.88-56.24,51.88H256v-79.37h59.41
						C330.779,371.591,339.544,384.311,338.89,398.86z"/>
				</g>
				<g>
					<path style="fill:#C2AACF;" d="M337.742,413.534c-2.516-1.118-5.469,0.017-6.597,2.531
						c-0.069,0.156-7.134,15.586-20.118,15.586c-25.814,0-44.153-9.925-50.027-13.578V399.71c0-2.761-2.238-5-5-5s-5,2.239-5,5
						v18.364c-5.875,3.653-24.214,13.578-50.027,13.578c-12.984,0-20.049-15.43-20.112-15.573c-1.114-2.525-4.064-3.672-6.592-2.558
						c-2.527,1.114-3.673,4.065-2.559,6.592c0.388,0.879,9.721,21.539,29.263,21.539c28.031,0,47.816-10.416,55.027-14.894
						c7.212,4.478,26.996,14.894,55.027,14.894c19.542,0,28.875-20.659,29.263-21.539
						C341.401,417.592,340.261,414.653,337.742,413.534z"/>
					<path style="fill:#F9F2F9;" d="M275.988,368.643v16.666c0,2.785-0.809,5.524-2.315,7.877l-3.755,5.834
						c-1.929,3.011-5.251,4.828-8.818,4.828H250.9c-3.567,0-6.889-1.816-8.818-4.828l-3.755-5.834
						c-1.506-2.353-2.315-5.091-2.315-7.877v-16.666c0-5.797,4.696-10.493,10.493-10.493h18.991
						C271.292,358.15,275.988,362.846,275.988,368.643z"/>
					<path style="fill:#FFFFFF;" d="M275.988,368.643v16.666c0,2.785-0.809,5.524-2.315,7.877l-3.755,5.834
						c-1.929,3.011-5.251,4.828-8.818,4.828H256V358.15h9.495C271.292,358.15,275.988,362.846,275.988,368.643z"/>
				</g>
				<g>
					<g>
						<g>
							<path style="fill:#F9F2F9;" d="M378.356,413.559c-16.851-28.824-56.48-26.461-89.282-12.864
								c-1.676,0.674-2.5,2.574-1.835,4.26c0.674,1.676,2.575,2.5,4.26,1.835c17.714-7.041,33.631-10.093,47.001-9.1
								c16.552,0.807,29.701,10.316,33.921,18.651C374.36,420.215,380.097,417.514,378.356,413.559z"/>
							<path style="fill:#FFFFFF;" d="M378.356,413.559c1.731,3.944-3.973,6.667-5.936,2.781
								c-4.24-8.359-17.384-17.841-33.921-18.65c-0.496-2.21-0.908-4.447-1.208-6.722
								C357.074,391.554,373.221,402.936,378.356,413.559z"/>
						</g>
						<g>
							<path style="fill:#F9F2F9;" d="M393.808,373.397c-23.527-23.691-61.304-11.486-89.661,9.886
								c-1.454,1.072-1.776,3.118-0.711,4.583c1.072,1.454,3.118,1.776,4.584,0.711c15.389-11.249,30.035-18.187,43.228-20.572
								c16.227-3.36,31.338,2.556,37.509,9.569C391.604,380.842,396.483,376.791,393.808,373.397z"/>
							<path style="fill:#FFFFFF;" d="M393.808,373.397c2.663,3.386-2.179,7.449-5.051,4.178
								c-6.197-7.033-21.295-12.923-37.509-9.569c-1.033-2.015-1.992-4.079-2.852-6.206
								C367.697,357.418,386.178,364.397,393.808,373.397z"/>
						</g>
					</g>
					<g>
						<g>
							<path style="fill:#F9F2F9;" d="M135.217,417.922c1.606,0.756,3.584,0.08,4.363-1.582c4.29-8.42,17.411-17.833,33.921-18.65
								c13.37-0.993,29.286,2.059,47.001,9.1c1.685,0.665,3.586-0.159,4.26-1.835c0.665-1.685-0.159-3.586-1.835-4.26
								c-26.111-9.844-47.962-14.227-70.417-4.336c-13.763,6.573-18.66,16.769-18.866,17.2
								C132.876,415.198,133.578,417.145,135.217,417.922z"/>
							<path style="fill:#FFFFFF;" d="M133.644,413.559c-1.731,3.944,3.973,6.667,5.936,2.781
								c4.24-8.359,17.384-17.841,33.921-18.65c0.496-2.21,0.908-4.447,1.208-6.722
								C154.926,391.554,138.779,402.936,133.644,413.559z"/>
						</g>
						<g>
							<path style="fill:#F9F2F9;" d="M118.623,378.015c1.366,1.134,3.45,0.974,4.62-0.44c6.211-7.058,21.37-12.919,37.509-9.569
								c13.193,2.384,27.839,9.322,43.228,20.572c1.465,1.065,3.512,0.743,4.584-0.711c1.065-1.465,0.743-3.512-0.711-4.584
								c-22.817-16.064-42.877-25.776-67.092-21.818c-14.97,2.92-22.262,11.567-22.57,11.932
								C117.038,374.792,117.231,376.853,118.623,378.015z"/>
							<path style="fill:#FFFFFF;" d="M118.192,373.397c-2.663,3.386,2.179,7.449,5.051,4.178
								c6.197-7.033,21.295-12.923,37.509-9.569c1.033-2.015,1.992-4.079,2.852-6.206
								C144.303,357.418,125.822,364.397,118.192,373.397z"/>
						</g>
					</g>
				</g>
			</g>
		</g>
	</g>
</g>
</svg>
