<?xml version="1.0" encoding="iso-8859-1"?>
<!-- Generator: Adobe Illustrator 22.0.1, SVG Export Plug-In . SVG Version: 6.00 Build 0)  -->
<svg version="1.1" id="Icons" xmlns="http://www.w3.org/2000/svg" xmlns:xlink="http://www.w3.org/1999/xlink" x="0px" y="0px"
	 viewBox="0 0 512 512" style="enable-background:new 0 0 512 512;" xml:space="preserve">
<g>
	<circle style="fill:#22BCE0;" cx="256" cy="256" r="256"/>
	<g>
		<g>
			<g>
				<g>
					<path style="fill:#D48D77;" d="M411.172,370.423v23.265c0,3.656-0.531,7.193-1.525,10.529c0,0,0,0,0,0.008
						c-4.54,15.195-18.615,26.28-35.293,26.28H137.646c-16.678,0-30.761-11.085-35.293-26.289
						c-0.994-3.336-1.525-6.873-1.525-10.529v-23.265c0-6.073,1.466-11.801,4.068-16.846c3.656-7.092,9.552-12.845,16.754-16.324
						c4.835-2.333,10.259-3.647,15.996-3.647h236.708c4.641,0,9.08,0.859,13.165,2.434c8.482,3.235,15.457,9.535,19.584,17.537
						C409.706,358.622,411.172,364.35,411.172,370.423z"/>
					<path style="fill:#EEA47D;" d="M407.103,353.576c-11.253,35.655-44.601,61.514-83.979,61.514H188.876
						c-24.318,0-46.327-9.855-62.256-25.792c-9.88-9.872-17.419-22.077-21.723-35.723c6.115-11.86,18.489-19.971,32.749-19.971
						h236.708C388.614,333.605,400.988,341.716,407.103,353.576z"/>
					<path style="fill:#F5B890;" d="M384.26,361.814c0,6.924-5.61,12.534-12.534,12.534H140.274c-3.462,0-6.595-1.407-8.861-3.672
						c-2.266-2.266-3.673-5.399-3.673-8.861c0-2.839,0.943-5.458,2.535-7.564c2.291-3.024,5.913-4.978,9.998-4.978h231.452
						c3.344,0,6.385,1.314,8.625,3.454c0.084,0.067,0.16,0.143,0.236,0.219C382.853,355.219,384.26,358.352,384.26,361.814z"/>
				</g>
				<g>
					<g>
						<path style="fill:#FBD9A3;" d="M256,392.805L256,392.805c-10.412,0-18.852,8.44-18.852,18.852v18.852h37.703v-18.852
							C274.852,401.246,266.411,392.805,256,392.805z"/>
						<path style="fill:#FBD9A3;" d="M138.531,411.654v18.851h-0.884c-16.678,0-30.761-11.085-35.293-26.289
							c2.889-6.713,9.56-11.413,17.326-11.413C130.091,392.803,138.531,401.243,138.531,411.654z"/>
						<path style="fill:#FBD9A3;" d="M165.118,392.805L165.118,392.805c-10.412,0-18.852,8.44-18.852,18.852v18.852h37.703v-18.852
							C183.969,401.246,175.529,392.805,165.118,392.805z"/>
						<path style="fill:#FBD9A3;" d="M210.559,392.805L210.559,392.805c-10.412,0-18.852,8.44-18.852,18.852v18.852h37.703v-18.852
							C229.41,401.246,220.97,392.805,210.559,392.805z"/>
						<path style="fill:#FBD9A3;" d="M301.441,392.805L301.441,392.805c-10.411,0-18.852,8.44-18.852,18.852v18.852h37.703v-18.852
							C320.293,401.246,311.853,392.805,301.441,392.805z"/>
						<path style="fill:#FBD9A3;" d="M346.883,392.805L346.883,392.805c-10.412,0-18.852,8.44-18.852,18.852v18.852h37.703v-18.852
							C365.734,401.246,357.294,392.805,346.883,392.805z"/>
						<path style="fill:#FBD9A3;" d="M409.647,404.216c0,0,0,0,0,0.008c-4.54,15.195-18.615,26.28-35.293,26.28h-0.884v-18.851
							c0-10.411,8.44-18.851,18.851-18.851C400.087,392.803,406.758,397.503,409.647,404.216z"/>
					</g>
					<g>
						<g>
							<path style="fill:#FBD9A3;" d="M274.851,411.654v3.437h-37.702v-3.437c0-10.411,8.44-18.851,18.851-18.851
								C266.411,392.803,274.851,401.243,274.851,411.654z"/>
							<path style="fill:#FBD9A3;" d="M183.965,411.654v3.293c-13.115-0.716-25.455-4.304-36.413-10.15
								c2.738-7.025,9.569-11.995,17.562-11.995C175.525,392.803,183.965,401.243,183.965,411.654z"/>
							<path style="fill:#FBD9A3;" d="M229.408,411.654v3.437h-37.702v-3.437c0-10.411,8.44-18.851,18.851-18.851
								S229.408,401.243,229.408,411.654z"/>
							<path style="fill:#FBD9A3;" d="M320.294,411.654v3.437h-37.702v-3.437c0-10.411,8.44-18.851,18.851-18.851
								S320.294,401.243,320.294,411.654z"/>
							<path style="fill:#FBD9A3;" d="M364.448,404.806c-10.967,5.837-23.307,9.426-36.413,10.15v-3.302
								c0-10.411,8.44-18.851,18.851-18.851C354.88,392.803,361.711,397.781,364.448,404.806z"/>
						</g>
						<path style="fill:#FAEFDC;" d="M183.965,411.654v3.293c-13.115-0.716-25.455-4.304-36.413-10.15
							c2.738-7.025,9.569-11.995,17.562-11.995C175.525,392.803,183.965,401.243,183.965,411.654z"/>
						<path style="fill:#FAEFDC;" d="M229.408,411.654v3.437h-37.702v-3.437c0-10.411,8.44-18.851,18.851-18.851
							S229.408,401.243,229.408,411.654z"/>
						<path style="fill:#FAEFDC;" d="M274.851,411.654v3.437h-37.702v-3.437c0-10.411,8.44-18.851,18.851-18.851
							C266.411,392.803,274.851,401.243,274.851,411.654z"/>
						<path style="fill:#FAEFDC;" d="M320.294,411.654v3.437h-37.702v-3.437c0-10.411,8.44-18.851,18.851-18.851
							S320.294,401.243,320.294,411.654z"/>
						<path style="fill:#FAEFDC;" d="M364.448,404.806c-10.967,5.837-23.307,9.426-36.413,10.15v-3.302
							c0-10.411,8.44-18.851,18.851-18.851C354.88,392.803,361.711,397.781,364.448,404.806z"/>
					</g>
				</g>
			</g>
			<g>
				<g>
					<path style="fill:#D48D77;" d="M139.026,288.31v17.538c0,2.756,0.4,5.423,1.149,7.937c0,0,0,0,0,0.006
						c3.422,11.455,14.033,19.811,26.605,19.811H345.22c12.572,0,23.189-8.356,26.605-19.817c0.749-2.515,1.149-5.181,1.149-7.937
						V288.31c0-4.578-1.105-8.896-3.067-12.699c-2.756-5.346-7.201-9.683-12.63-12.306c-3.645-1.759-7.734-2.749-12.058-2.749
						H166.78c-3.499,0-6.845,0.648-9.925,1.835c-6.394,2.438-11.652,7.188-14.763,13.22
						C140.131,279.414,139.026,283.732,139.026,288.31z"/>
					<path style="fill:#EEA47D;" d="M142.093,275.61c8.483,26.878,33.622,46.372,63.307,46.372h101.202
						c18.332,0,34.923-7.429,46.931-19.443c7.448-7.442,13.131-16.643,16.376-26.929c-4.61-8.94-13.938-15.055-24.688-15.055H166.78
						C156.03,260.555,146.703,266.67,142.093,275.61z"/>
					<path style="fill:#F5B890;" d="M159.313,281.82c0,5.219,4.229,9.448,9.448,9.448h174.477c2.61,0,4.972-1.06,6.68-2.768
						c1.708-1.708,2.768-4.07,2.768-6.68c0-2.14-0.711-4.115-1.911-5.702c-1.727-2.28-4.457-3.753-7.537-3.753H168.761
						c-2.521,0-4.813,0.991-6.502,2.603c-0.063,0.051-0.121,0.108-0.178,0.165C160.373,276.849,159.313,279.211,159.313,281.82z"/>
				</g>
				<g>
					<g>
						<path style="fill:#FBD9A3;" d="M256,305.183L256,305.183c7.849,0,14.211,6.363,14.211,14.211v14.211h-28.422v-14.211
							C241.789,311.545,248.151,305.183,256,305.183z"/>
						<path style="fill:#FBD9A3;" d="M344.553,319.392v14.211h0.667c12.572,0,23.189-8.356,26.605-19.817
							c-2.178-5.061-7.207-8.604-13.061-8.604C350.915,305.181,344.553,311.543,344.553,319.392z"/>
						<path style="fill:#FBD9A3;" d="M324.511,305.183L324.511,305.183c7.849,0,14.211,6.363,14.211,14.211v14.211H310.3v-14.211
							C310.3,311.545,316.662,305.183,324.511,305.183z"/>
						<path style="fill:#FBD9A3;" d="M290.255,305.183L290.255,305.183c7.849,0,14.211,6.363,14.211,14.211v14.211h-28.422v-14.211
							C276.044,311.545,282.407,305.183,290.255,305.183z"/>
						<path style="fill:#FBD9A3;" d="M221.745,305.183L221.745,305.183c7.849,0,14.211,6.363,14.211,14.211v14.211h-28.422v-14.211
							C207.534,311.545,213.896,305.183,221.745,305.183z"/>
						<path style="fill:#FBD9A3;" d="M187.489,305.183L187.489,305.183c7.849,0,14.211,6.363,14.211,14.211v14.211h-28.422v-14.211
							C173.278,311.545,179.641,305.183,187.489,305.183z"/>
						<path style="fill:#FBD9A3;" d="M140.175,313.785c0,0,0,0,0,0.006c3.422,11.455,14.033,19.811,26.605,19.811h0.667v-14.211
							c0-7.848-6.362-14.211-14.211-14.211C147.382,305.181,142.353,308.724,140.175,313.785z"/>
					</g>
					<g>
						<g>
							<path style="fill:#FBD9A3;" d="M241.789,319.392v2.591h28.421v-2.591c0-7.848-6.362-14.211-14.211-14.211
								C248.152,305.181,241.789,311.543,241.789,319.392z"/>
							<path style="fill:#FBD9A3;" d="M310.303,319.392v2.483c9.887-0.54,19.189-3.245,27.45-7.651
								c-2.064-5.296-7.213-9.042-13.239-9.042C316.665,305.181,310.303,311.543,310.303,319.392z"/>
							<path style="fill:#FBD9A3;" d="M276.046,319.392v2.591h28.421v-2.591c0-7.848-6.362-14.211-14.211-14.211
								C282.408,305.181,276.046,311.543,276.046,319.392z"/>
							<path style="fill:#FBD9A3;" d="M207.533,319.392v2.591h28.421v-2.591c0-7.848-6.362-14.211-14.211-14.211
								C213.895,305.181,207.533,311.543,207.533,319.392z"/>
							<path style="fill:#FBD9A3;" d="M174.248,314.229c8.267,4.4,17.57,7.105,27.45,7.651v-2.489
								c0-7.848-6.362-14.211-14.211-14.211C181.461,305.181,176.311,308.934,174.248,314.229z"/>
						</g>
						<path style="fill:#FAEFDC;" d="M310.303,319.392v2.483c9.887-0.54,19.189-3.245,27.45-7.651
							c-2.064-5.296-7.213-9.042-13.239-9.042C316.665,305.181,310.303,311.543,310.303,319.392z"/>
						<path style="fill:#FAEFDC;" d="M276.046,319.392v2.591h28.421v-2.591c0-7.848-6.362-14.211-14.211-14.211
							C282.408,305.181,276.046,311.543,276.046,319.392z"/>
						<path style="fill:#FAEFDC;" d="M241.789,319.392v2.591h28.421v-2.591c0-7.848-6.362-14.211-14.211-14.211
							C248.152,305.181,241.789,311.543,241.789,319.392z"/>
						<path style="fill:#FAEFDC;" d="M207.533,319.392v2.591h28.421v-2.591c0-7.848-6.362-14.211-14.211-14.211
							C213.895,305.181,207.533,311.543,207.533,319.392z"/>
						<path style="fill:#FAEFDC;" d="M174.248,314.229c8.267,4.4,17.57,7.105,27.45,7.651v-2.489
							c0-7.848-6.362-14.211-14.211-14.211C181.461,305.181,176.311,308.934,174.248,314.229z"/>
					</g>
				</g>
			</g>
		</g>
		<g>
			<g>
				<path style="fill:#D48D77;" d="M328.85,176.56v0.01c-0.27,0.66-0.55,1.32-0.83,1.98l-35.41,82.01h-73.22l-35.41-82.01
					c-0.28-0.66-0.56-1.32-0.83-1.98v-0.01c-10.12-25.18-7.45-53.97,8.02-76.36c13.6-19.7,35.83-33.3,62.26-34.12
					c0.85-0.03,1.71-0.04,2.57-0.04s1.72,0.01,2.57,0.04C285,66.9,307.23,80.5,320.83,100.2
					C336.3,122.59,338.97,151.38,328.85,176.56z"/>
				<path style="fill:#FBD9A3;" d="M328.85,176.56v0.01c-0.27,0.66-0.55,1.32-0.83,1.98l-35.41,82.01h-73.22l-35.41-82.01
					c-0.28-0.66-0.56-1.32-0.83-1.98v-0.01c-4.67-20.66-0.88-42.62,11.36-60.34c12.9-18.68,33.99-31.58,59.05-32.36
					c0.81-0.03,1.62-0.04,2.44-0.04s1.63,0.01,2.44,0.04c25.06,0.78,46.15,13.68,59.05,32.36
					C329.73,133.94,333.52,155.9,328.85,176.56z"/>
				<path style="fill:#EEA47D;" d="M328.85,176.56v0.01c-0.27,0.66-0.55,1.32-0.83,1.98l-35.41,82.01H256V66.04
					c0.86,0,1.72,0.01,2.57,0.04C285,66.9,307.23,80.5,320.83,100.2C336.3,122.59,338.97,151.38,328.85,176.56z"/>
				<path style="fill:#FAEFDC;" d="M328.85,176.56v0.01c-0.27,0.66-0.55,1.32-0.83,1.98l-35.41,82.01H256V83.82
					c0.82,0,1.63,0.01,2.44,0.04c25.06,0.78,46.15,13.68,59.05,32.36C329.73,133.94,333.52,155.9,328.85,176.56z"/>
			</g>
			<g>
				<g>
					<path style="fill:#F9C744;" d="M289.54,193.15l-9.66,67.41h-47.76l-9.66-67.41c-3.5-24.46-0.66-49.42,8.24-72.48l6.42-16.6
						c1.47-3.84,4.03-7.02,7.25-9.27c10.408-7.568,26.036-2.888,30.51,9.27C287.421,133.571,294.321,160.907,289.54,193.15z"/>
					<path style="fill:#FBD9A3;" d="M289.54,193.15l-9.66,67.41H256V91.12c8.361,0.003,15.883,5.143,18.88,12.95
						c0,0,6.42,16.6,6.42,16.6C290.2,143.73,293.04,168.69,289.54,193.15z"/>
				</g>
				<g>
					<g>
						<path style="fill:#FBD9A3;" d="M280.56,195.19c0,7.79-6.32,14.11-14.11,14.11h-20.9c-7.79,0-14.11-6.32-14.11-14.11
							c0-3.89,1.58-7.42,4.13-9.98c2.56-2.55,6.09-4.13,9.98-4.13h20.9C274.24,181.08,280.56,187.4,280.56,195.19z"/>
						<path style="fill:#FBD9A3;" d="M277.15,228.65c0,7.8-6.32,14.12-14.11,14.12h-14.08c-7.79,0-14.11-6.32-14.11-14.12
							c0-3.89,1.58-7.42,4.13-9.98c2.56-2.55,6.08-4.13,9.98-4.13h14.08C270.83,214.54,277.15,220.86,277.15,228.65z"/>
						<path style="fill:#FBD9A3;" d="M274.78,260.56h-37.56c0.36-3.28,1.84-6.21,4.04-8.42c2.55-2.55,6.08-4.13,9.98-4.13h9.52
							C268.03,248.01,274.01,253.5,274.78,260.56z"/>
						<path style="fill:#FBD9A3;" d="M283.97,161.73c0,7.79-6.32,14.11-14.11,14.11h-27.72c-7.79,0-14.11-6.32-14.11-14.11
							c0-3.9,1.58-7.43,4.13-9.98c2.56-2.55,6.08-4.13,9.98-4.13h27.72C277.65,147.62,283.97,153.93,283.97,161.73z"/>
						<path style="fill:#FBD9A3;" d="M274.87,128.26c0,7.8-6.31,14.11-14.11,14.11h-9.52c-7.8,0-14.11-6.31-14.11-14.11
							c0-3.9,1.58-7.42,4.13-9.98c2.55-2.55,6.08-4.13,9.98-4.13h9.52C268.56,114.15,274.87,120.47,274.87,128.26z"/>
						<path style="fill:#FBD9A3;" d="M267.63,94.8v2.48c0,6.42-5.21,11.63-11.63,11.63c-3.21,0-6.12-1.3-8.22-3.41
							c-2.11-2.1-3.41-5.01-3.41-8.22V94.8c3.33-2.35,7.37-3.68,11.63-3.68S264.3,92.45,267.63,94.8z"/>
					</g>
					<g>
						<path style="fill:#FAEFDC;" d="M256,108.91V91.12c4.26,0,8.3,1.33,11.63,3.68v2.48C267.63,103.7,262.42,108.91,256,108.91z"/>
						<path style="fill:#FAEFDC;" d="M260.76,142.37H256v-28.22h4.76c7.8,0,14.11,6.32,14.11,14.11
							C274.87,136.06,268.56,142.37,260.76,142.37z"/>
						<path style="fill:#FAEFDC;" d="M277.15,228.65c0,7.8-6.32,14.12-14.11,14.12H256v-28.23h7.04
							C270.83,214.54,277.15,220.86,277.15,228.65z"/>
						<path style="fill:#FAEFDC;" d="M274.78,260.56H256v-12.55h4.76C268.03,248.01,274.01,253.5,274.78,260.56z"/>
						<path style="fill:#FAEFDC;" d="M280.56,195.19c0,7.79-6.32,14.11-14.11,14.11H256v-28.22h10.45
							C274.24,181.08,280.56,187.4,280.56,195.19z"/>
						<path style="fill:#FAEFDC;" d="M269.86,175.84H256v-28.22h13.86c7.79,0,14.11,6.31,14.11,14.11
							C283.97,169.52,277.65,175.84,269.86,175.84z"/>
					</g>
				</g>
			</g>
		</g>
		<g>
			<g>
				<g>
					<path style="fill:#D48D77;" d="M299.17,71.11v2.97c0,14.32-11.61,25.94-25.93,25.94h-34.48c-14.32,0-25.93-11.62-25.93-25.94
						v-2.97c0-9.13,7.4-16.54,16.54-16.54h53.26C291.77,54.57,299.17,61.98,299.17,71.11z"/>
					<path style="fill:#EEA47D;" d="M299.17,71.11v2.97c0,14.32-11.61,25.94-25.93,25.94H256V54.57h26.63
						C291.77,54.57,299.17,61.98,299.17,71.11z"/>
				</g>
				<g>
					<path style="fill:#F5B890;" d="M270.522,66.989H256v-8.695h14.522c2.401,0,4.348,1.947,4.348,4.348v0
						C274.87,65.043,272.923,66.989,270.522,66.989z"/>
					<path style="fill:#EEA47D;" d="M241.478,58.294H256v8.695h-14.522c-2.401,0-4.348-1.947-4.348-4.348v0
						C237.13,60.24,239.077,58.294,241.478,58.294z"/>
				</g>
			</g>
			<g>
				<g>
					<path style="fill:#D48D77;" d="M292.746,80.979c-0.077,0.315-0.169,0.63-0.269,0.945c-0.407,1.294-0.976,2.497-1.698,3.554
						c-3.328,4.87-8.73,4.87-12.058,0c-3.328-4.87-3.32-12.766,0-17.637c0.146-0.202,0.284-0.405,0.438-0.585
						c0.799-1.023,1.698-1.788,2.644-2.306c3.02-1.62,6.548-0.664,8.976,2.89C293.2,71.385,293.86,76.547,292.746,80.979z"/>
					<path style="fill:#F5B890;" d="M292.746,80.979c-0.077,0.315-0.169,0.63-0.269,0.945c-0.738,0.225-1.499,0.349-2.283,0.349
						c-5.841,0-10.629-6.614-11.036-15.016c0.799-1.023,1.698-1.788,2.644-2.306c3.02-1.62,6.548-0.664,8.976,2.89
						C293.2,71.385,293.86,76.547,292.746,80.979z"/>
					<path style="fill:#3F5D77;" d="M290.136,76.661c0,3.394-1.471,6.293-3.529,7.405c-0.581,0.304-1.204,0.477-1.856,0.477
						c-2.977,0-5.385-3.533-5.385-7.882c0-4.358,2.408-7.882,5.385-7.882c0.652,0,1.275,0.174,1.856,0.477
						C288.665,70.367,290.136,73.258,290.136,76.661z"/>
					<ellipse style="fill:#2E3140;" cx="286.607" cy="76.661" rx="3.529" ry="7.405"/>
					<ellipse style="fill:#83D5EF;" cx="284.748" cy="74.801" rx="2.654" ry="3.885"/>
				</g>
				<g>
					<path style="fill:#EEA47D;" d="M235.247,80.979c-0.077,0.315-0.169,0.63-0.269,0.945c-0.407,1.294-0.976,2.497-1.698,3.554
						c-3.328,4.87-8.73,4.87-12.058,0s-3.32-12.766,0-17.637c0.146-0.202,0.284-0.405,0.438-0.585
						c0.799-1.023,1.698-1.788,2.644-2.306c3.02-1.62,6.548-0.664,8.976,2.89C235.701,71.385,236.362,76.547,235.247,80.979z"/>
					<path style="fill:#F5B890;" d="M235.247,80.979c-0.077,0.315-0.169,0.63-0.269,0.945c-0.738,0.225-1.499,0.349-2.283,0.349
						c-5.841,0-10.629-6.614-11.036-15.016c0.799-1.023,1.698-1.788,2.644-2.306c3.02-1.62,6.548-0.664,8.976,2.89
						C235.701,71.385,236.362,76.547,235.247,80.979z"/>
					<path style="fill:#3F5D77;" d="M232.637,76.661c0,3.394-1.471,6.293-3.529,7.405c-0.581,0.304-1.204,0.477-1.856,0.477
						c-2.977,0-5.386-3.533-5.386-7.882c0-4.358,2.408-7.882,5.386-7.882c0.652,0,1.275,0.174,1.856,0.477
						C231.166,70.367,232.637,73.258,232.637,76.661z"/>
					<ellipse style="fill:#2E3140;" cx="229.108" cy="76.661" rx="3.529" ry="7.405"/>
					<ellipse style="fill:#83D5EF;" cx="227.25" cy="74.801" rx="2.654" ry="3.885"/>
				</g>
			</g>
			<g>
				<path style="fill:#3F5D77;" d="M262.803,91.659L262.803,91.659c-1.136-1.136-1.136-2.977,0-4.112l1.05-1.05
					c1.136-1.136,2.977-1.136,4.112,0v0c1.136,1.136,1.136,2.977,0,4.112l-1.05,1.05C265.78,92.795,263.938,92.795,262.803,91.659z"
					/>
				<path style="fill:#2E3140;" d="M249.197,91.659L249.197,91.659c-1.136,1.136-2.977,1.136-4.112,0l-1.05-1.05
					c-1.136-1.136-1.136-2.977,0-4.112v0c1.136-1.136,2.977-1.136,4.112,0l1.05,1.05C250.333,88.682,250.333,90.523,249.197,91.659z
					"/>
			</g>
		</g>
		<path style="fill:#E9465E;" d="M269.912,132.64L259.5,114.334V97.825c0-1.933-1.567-3.5-3.5-3.5c-1.933,0-3.5,1.567-3.5,3.5
			v16.509l-10.413,18.306c-0.956,1.681-0.368,3.817,1.312,4.772c1.683,0.957,3.818,0.369,4.773-1.312L256,122.339l7.828,13.762
			c0.645,1.134,1.828,1.771,3.045,1.771c0.587,0,1.182-0.148,1.728-0.459C270.281,136.457,270.868,134.32,269.912,132.64z"/>
	</g>
</g>
</svg>
