<?xml version="1.0" encoding="iso-8859-1"?>
<!-- Generator: Adobe Illustrator 22.0.1, SVG Export Plug-In . SVG Version: 6.00 Build 0)  -->
<svg version="1.1" id="Icons" xmlns="http://www.w3.org/2000/svg" xmlns:xlink="http://www.w3.org/1999/xlink" x="0px" y="0px"
	 viewBox="0 0 512 512" style="enable-background:new 0 0 512 512;" xml:space="preserve">
<g>
	<circle style="fill:#EA792E;" cx="256" cy="256" r="256"/>
	<g>
		<g>
			<g>
				<g>
					<g>
						<g>
							<path style="fill:#3F6C8E;" d="M281.306,371.423l0-25.651c-0.307-13.448,14.332-23.152,26.588-17.841
								c7.017,2.875,11.963,9.772,11.963,17.833l0.008,15.082c-0.009,3.739-1.925,7.214-5.083,9.19
								c-0.83,0.541-16.55,10.359-16.858,10.577C290.693,385.158,281.306,379.963,281.306,371.423z"/>
							<path style="fill:#22A8B9;" d="M295.931,371.432l0-25.668c0-8.061,4.947-14.958,11.964-17.833
								c7.017,2.875,11.963,9.772,11.963,17.834l0.008,15.082c-0.009,3.739-1.925,7.214-5.083,9.19l-15.189,9.524
								C297.386,377.627,295.931,374.786,295.931,371.432z"/>
							<path style="fill:#4FCAE8;" d="M303.046,345.764c3.929,0,7.114,3.185,7.115,7.114l0.005,1.479
								c-0.321,9.415-13.911,9.426-14.236,0.002C295.48,349.797,298.285,345.851,303.046,345.764z"/>
						</g>
						<g>
							<path style="fill:#3F5D77;" d="M309.776,411.193l-19.072-19.072c-5.911-5.911-5.91-15.505,0-21.415
								c5.911-5.911,15.505-5.911,21.415,0l13.198,13.198c2.069,2.069,2.932,5.066,2.283,7.924l-3.489,15.236
								c-0.454,2.014-1.549,3.628-2.96,4.76C317.951,414.376,313.061,414.478,309.776,411.193z"/>
							<path style="fill:#3F6C8E;" d="M321.152,411.824l-14.628-14.628c-8.242-8.002-4.302-22.543,6.764-25.322l12.029,12.029
								c2.069,2.069,2.932,5.066,2.283,7.924l-3.489,15.236C323.658,409.078,322.563,410.692,321.152,411.824z"/>
							<path style="fill:#22A8B9;" d="M309.158,384.438c1.944-1.944,5.097-1.944,7.042,0l3.42,3.42
								c4.525,4.76-2.281,11.568-7.042,7.041c0,0-3.419-3.419-3.419-3.419C307.213,389.535,307.213,386.383,309.158,384.438z"/>
						</g>
					</g>
					<g>
						<path style="fill:#334353;" d="M296.736,449.885l27.171-18.995c9.057-6.356,13.499-18.363,7.022-24.84
							c-6.477-6.477-18.517-2.022-24.868,7.063l-18.967,27.13C283.834,445.171,291.599,453.222,296.736,449.885z"/>
						<path style="fill:#3E4E60;" d="M296.736,449.885l27.171-18.995c-3.482-7.895-14.988-7.531-20.356-1.409
							c0,0-15.841,17.45-15.841,17.45C289.621,449.752,293.725,451.858,296.736,449.885z"/>
						<path style="fill:#3F5D77;" d="M304.68,434.05c-1.528-1.528-3.974-1.436-5.359,0.091l-7.375,8.124
							c-1.844,2.114,1.932,5.792,4.051,4.05c0,0,8.471-7.028,8.471-7.028C306.059,437.967,306.208,435.578,304.68,434.05z"/>
					</g>
				</g>
				<g>
					<g>
						<g>
							<path style="fill:#3F6C8E;" d="M231.189,371.423l0-25.651c0.307-13.448-14.332-23.152-26.588-17.841
								c-7.017,2.875-11.963,9.772-11.963,17.833l-0.008,15.082c0.009,3.739,1.925,7.214,5.083,9.19
								c0.83,0.541,16.55,10.359,16.858,10.577C221.801,385.158,231.189,379.963,231.189,371.423z"/>
							<path style="fill:#22A8B9;" d="M216.564,371.432l0-25.668c0-8.061-4.946-14.958-11.963-17.833
								c-7.017,2.875-11.963,9.772-11.963,17.834l-0.008,15.082c0.009,3.739,1.925,7.214,5.083,9.19l15.189,9.524
								C215.109,377.627,216.564,374.786,216.564,371.432z"/>
							<path style="fill:#4FCAE8;" d="M209.449,345.764c-3.929,0-7.114,3.185-7.115,7.114l-0.005,1.479
								c0.321,9.415,13.911,9.426,14.236,0.002C217.015,349.797,214.209,345.851,209.449,345.764z"/>
						</g>
						<g>
							<path style="fill:#3F5D77;" d="M202.718,411.193l19.072-19.072c5.911-5.911,5.91-15.505,0-21.415
								c-5.911-5.911-15.505-5.911-21.415,0l-13.198,13.198c-2.069,2.069-2.932,5.066-2.283,7.924l3.489,15.236
								c0.454,2.014,1.549,3.628,2.96,4.76C194.544,414.376,199.434,414.478,202.718,411.193z"/>
							<path style="fill:#3F6C8E;" d="M191.343,411.824l14.628-14.628c8.242-8.002,4.302-22.543-6.764-25.322l-12.029,12.029
								c-2.069,2.069-2.932,5.066-2.283,7.924l3.489,15.236C188.837,409.078,189.932,410.692,191.343,411.824z"/>
							<path style="fill:#22A8B9;" d="M203.337,384.438c-1.944-1.944-5.097-1.944-7.042,0l-3.42,3.42
								c-4.525,4.76,2.281,11.568,7.042,7.041c0,0,3.419-3.419,3.419-3.419C205.282,389.535,205.282,386.383,203.337,384.438z"/>
						</g>
					</g>
					<g>
						<path style="fill:#334353;" d="M215.759,449.885l-27.171-18.995c-9.057-6.356-13.499-18.363-7.022-24.84
							c6.477-6.477,18.517-2.022,24.868,7.063l18.967,27.13C228.66,445.171,220.896,453.222,215.759,449.885z"/>
						<path style="fill:#3E4E60;" d="M215.759,449.885l-27.171-18.995c3.482-7.895,14.988-7.531,20.356-1.409
							c0,0,15.841,17.45,15.841,17.45C222.874,449.752,218.77,451.858,215.759,449.885z"/>
						<path style="fill:#3F5D77;" d="M207.815,434.05c1.528-1.528,3.974-1.436,5.359,0.091l7.375,8.124
							c1.844,2.114-1.932,5.792-4.051,4.05c0,0-8.471-7.028-8.471-7.028C206.436,437.967,206.287,435.578,207.815,434.05z"/>
					</g>
				</g>
			</g>
			<g>
				<g>
					<g>
						<g>
							<path style="fill:#3F6C8E;" d="M377.823,362.2c-4.787,4.838-12.807,4.892-17.646,0c0,0-60.322-60.322-60.322-60.322
								c-4.875-4.875-4.875-12.77,0-17.646c4.875-4.875,12.77-4.875,17.646,0l60.322,60.322
								C382.698,349.43,382.698,357.325,377.823,362.2z"/>
							<path style="fill:#22A8B9;" d="M377.823,362.2c-0.329,0.329-0.669,0.636-1.025,0.917l-53.953-53.953
								c-5.251-5.181-4.755-13.988,1.024-18.562l53.953,53.953C382.698,349.43,382.698,357.325,377.823,362.2z"/>
						</g>
						<path style="fill:#4FCAE8;" d="M376.045,349.307L332.638,305.9c-4.396-4.188-10.733,2.102-6.528,6.528
							c0,0,43.407,43.407,43.407,43.407C373.913,360.023,380.25,353.733,376.045,349.307z"/>
					</g>
					<g>
						<path style="fill:#3F5D77;" d="M394.122,409.984v-38.02c-0.593-14.309-21.058-14.308-21.63,0.031c0,0,0,37.989,0,37.989
							c0,4.95,3.325,9.122,7.863,10.403C387.105,422.401,394.234,417.053,394.122,409.984z"/>
						<path style="fill:#3F6C8E;" d="M394.122,409.984v-38.02c-6.742-2.018-13.879,3.34-13.766,10.403c0,0,0,38.019,0,38.019
							C387.105,422.404,394.234,417.05,394.122,409.984z"/>
						<path style="fill:#22A8B9;" d="M384.675,384.796c-2.385,0-4.319,1.934-4.319,4.319v16.774c0.174,5.704,8.461,5.711,8.638,0
							c0,0,0-16.774,0-16.774C388.994,386.73,387.06,384.796,384.675,384.796z"/>
					</g>
					<g>
						<path style="fill:#334353;" d="M344.192,463.298l25.748-20.418c8.587-6.826,14.346-17.516,10.123-21.739
							c-4.223-4.223-14.942,1.552-21.769,10.161l-20.388,25.71C334.249,461.766,339.624,466.903,344.192,463.298z"/>
						<path style="fill:#3E4E60;" d="M344.192,463.298l25.748-20.418c-2.002-6.347-11.393-3.135-16.568,2.379
							c0,0-16.121,17.171-16.121,17.171C338.655,464.918,342.014,465.075,344.192,463.298z"/>
						<path style="fill:#3F5D77;" d="M353.509,448.836c-0.996-0.996-3.032-0.495-4.442,1.008l-7.505,7.994
							c-1.88,2.068,0.559,4.449,2.641,2.641c0,0,8.22-7.279,8.22-7.279C353.967,451.831,354.505,449.832,353.509,448.836z"/>
					</g>
				</g>
				<g>
					<g>
						<g>
							<path style="fill:#3F6C8E;" d="M134.672,362.2c4.787,4.838,12.807,4.892,17.646,0c0,0,60.322-60.322,60.322-60.322
								c4.875-4.875,4.875-12.77,0-17.646c-4.875-4.875-12.77-4.875-17.646,0l-60.322,60.322
								C129.796,349.43,129.796,357.325,134.672,362.2z"/>
							<path style="fill:#22A8B9;" d="M134.672,362.2c0.329,0.329,0.669,0.636,1.025,0.917l53.953-53.953
								c5.251-5.181,4.755-13.988-1.024-18.562l-53.953,53.953C129.796,349.43,129.796,357.325,134.672,362.2z"/>
						</g>
						<path style="fill:#4FCAE8;" d="M136.45,349.307l43.407-43.407c4.396-4.188,10.733,2.102,6.528,6.528
							c0,0-43.407,43.407-43.407,43.407C138.582,360.023,132.245,353.733,136.45,349.307z"/>
					</g>
					<g>
						<path style="fill:#3F5D77;" d="M118.373,409.984v-38.02c0.593-14.309,21.058-14.308,21.63,0.031c0,0,0,37.989,0,37.989
							c0,4.95-3.325,9.122-7.863,10.403C125.39,422.401,118.261,417.053,118.373,409.984z"/>
						<path style="fill:#3F6C8E;" d="M118.373,409.984v-38.02c6.742-2.018,13.879,3.34,13.766,10.403c0,0,0,38.019,0,38.019
							C125.389,422.404,118.261,417.05,118.373,409.984z"/>
						<path style="fill:#22A8B9;" d="M127.82,384.796c2.385,0,4.319,1.934,4.319,4.319v16.774c-0.174,5.704-8.461,5.711-8.638,0
							c0,0,0-16.774,0-16.774C123.501,386.73,125.435,384.796,127.82,384.796z"/>
					</g>
					<g>
						<path style="fill:#334353;" d="M168.303,463.298l-25.748-20.418c-8.587-6.826-14.346-17.516-10.123-21.739
							c4.223-4.223,14.942,1.552,21.769,10.161l20.388,25.71C178.246,461.766,172.871,466.903,168.303,463.298z"/>
						<path style="fill:#3E4E60;" d="M168.303,463.298l-25.748-20.418c2.002-6.347,11.393-3.135,16.568,2.379
							c0,0,16.121,17.171,16.121,17.171C173.84,464.918,170.481,465.075,168.303,463.298z"/>
						<path style="fill:#3F5D77;" d="M158.986,448.836c0.996-0.996,3.032-0.495,4.442,1.008l7.505,7.994
							c1.88,2.068-0.559,4.449-2.641,2.641c0,0-8.22-7.279-8.22-7.279C158.528,451.831,157.99,449.832,158.986,448.836z"/>
					</g>
				</g>
			</g>
			<g>
				<g>
					<g>
						<g>
							<path style="fill:#3F6C8E;" d="M417.972,286.22c0.036,6.806-5.597,12.515-12.477,12.477c0,0-85.308,0-85.308,0
								c-6.895,0-12.477-5.583-12.477-12.477s5.583-12.477,12.477-12.477h85.308C412.389,273.742,417.972,279.325,417.972,286.22z"
								/>
							<path style="fill:#22A8B9;" d="M417.972,286.22c0,0.465-0.023,0.923-0.076,1.373h-76.301
								c-7.377,0.049-13.253-6.529-12.401-13.85h76.301C412.389,273.742,417.972,279.325,417.972,286.22z"/>
						</g>
						<path style="fill:#4FCAE8;" d="M407.598,278.36h-61.387c-2.549,0-4.616,2.067-4.616,4.616s2.067,4.616,4.616,4.616h61.387
							C413.681,287.412,413.714,278.552,407.598,278.36z"/>
					</g>
					<g>
						<path style="fill:#3F5D77;" d="M460.065,317.625l-26.884-26.884c-10.538-9.699-25.007,4.773-15.273,15.316
							c0,0,26.862,26.862,26.862,26.862c3.5,3.5,8.801,4.099,12.916,1.796C463.883,331.367,465.142,322.544,460.065,317.625z"/>
						<path style="fill:#3F6C8E;" d="M460.065,317.625l-26.884-26.884c-6.194,3.341-7.452,12.176-2.378,17.09
							c0,0,26.884,26.884,26.884,26.884C463.886,331.369,465.14,322.543,460.065,317.625z"/>
						<path style="fill:#22A8B9;" d="M435.574,306.495c-1.687,1.687-1.687,4.421,0,6.108l11.861,11.861
							c4.125,3.924,10.035-1.976,6.108-6.108c0,0-11.861-11.861-11.861-11.861C439.995,304.808,437.26,304.808,435.574,306.495z"/>
					</g>
					<g>
						<path style="fill:#334353;" d="M463.192,390.267l3.769-32.644c1.245-10.899-2.242-22.53-8.214-22.53
							c-5.972,0-9.468,11.663-8.208,22.578l3.763,32.596C455.078,396.215,462.511,396.046,463.192,390.267z"/>
						<path style="fill:#3E4E60;" d="M463.192,390.267l3.769-32.644c-5.904-3.072-10.273,5.839-10.033,13.397
							c0,0,0.742,23.541,0.742,23.541C460.423,395.328,462.909,393.064,463.192,390.267z"/>
						<path style="fill:#3F5D77;" d="M459.554,373.453c-1.408,0-2.494,1.794-2.429,3.854l0.345,10.959
							c0.133,2.791,3.541,2.751,3.735,0c0,0,0.665-10.959,0.665-10.959C461.996,375.247,460.963,373.453,459.554,373.453z"/>
					</g>
				</g>
				<g>
					<g>
						<g>
							<path style="fill:#3F6C8E;" d="M100.114,286.22c-0.036,6.806,5.597,12.515,12.477,12.477c0,0,85.308,0,85.308,0
								c6.895,0,12.477-5.583,12.477-12.477s-5.583-12.477-12.477-12.477h-85.308C105.696,273.742,100.114,279.325,100.114,286.22z"
								/>
							<path style="fill:#22A8B9;" d="M100.114,286.22c0,0.465,0.023,0.923,0.076,1.373h76.301
								c7.377,0.049,13.253-6.529,12.401-13.85h-76.301C105.696,273.742,100.114,279.325,100.114,286.22z"/>
						</g>
						<path style="fill:#4FCAE8;" d="M110.488,278.36h61.387c2.549,0,4.616,2.067,4.616,4.616c0,2.549-2.067,4.616-4.616,4.616
							h-61.387C104.404,287.412,104.371,278.552,110.488,278.36z"/>
					</g>
					<g>
						<path style="fill:#3F5D77;" d="M58.021,317.625l26.884-26.884c10.538-9.699,25.008,4.773,15.273,15.316
							c0,0-26.862,26.862-26.862,26.862c-3.5,3.5-8.801,4.099-12.916,1.796C54.203,331.367,52.943,322.544,58.021,317.625z"/>
						<path style="fill:#3F6C8E;" d="M58.021,317.625l26.884-26.884c6.194,3.341,7.452,12.176,2.378,17.09
							c0,0-26.884,26.884-26.884,26.884C54.2,331.369,52.945,322.543,58.021,317.625z"/>
						<path style="fill:#22A8B9;" d="M82.511,306.495c1.687,1.687,1.687,4.421,0,6.108L70.65,324.464
							c-4.125,3.924-10.035-1.976-6.108-6.108c0,0,11.861-11.861,11.861-11.861C78.09,304.808,80.825,304.808,82.511,306.495z"/>
					</g>
					<g>
						<path style="fill:#334353;" d="M54.893,390.267l-3.769-32.644c-1.245-10.899,2.242-22.53,8.214-22.53
							c5.972,0,9.468,11.663,8.208,22.578l-3.763,32.596C63.007,396.215,55.574,396.046,54.893,390.267z"/>
						<path style="fill:#3E4E60;" d="M54.893,390.267l-3.769-32.644c5.904-3.072,10.273,5.839,10.033,13.397
							c0,0-0.742,23.541-0.742,23.541C57.662,395.328,55.177,393.064,54.893,390.267z"/>
						<path style="fill:#3F5D77;" d="M58.531,373.453c1.408,0,2.494,1.794,2.429,3.854l-0.345,10.959
							c-0.133,2.791-3.541,2.751-3.735,0c0,0-0.665-10.959-0.665-10.959C56.09,375.247,57.122,373.453,58.531,373.453z"/>
					</g>
				</g>
			</g>
			<g>
				<g>
					<g>
						<g>
							<path style="fill:#3F6C8E;" d="M393.105,250.68c0.037,6.806-5.598,12.515-12.477,12.477c0,0-38.714,0-38.714,0
								c-16.538-0.645-16.561-24.3,0-24.955c0,0,38.714,0,38.714,0C387.522,238.203,393.105,243.785,393.105,250.68z"/>
							<path style="fill:#22A8B9;" d="M393.105,250.68c0,0.465-0.023,0.923-0.076,1.373h-29.706
								c-7.377,0.049-13.253-6.529-12.401-13.85h29.706C387.522,238.203,393.105,243.785,393.105,250.68z"/>
						</g>
						<path style="fill:#4FCAE8;" d="M382.731,242.82h-14.792c-6.098,0.187-6.104,9.044,0,9.232c0,0,14.792,0,14.792,0
							C388.828,251.866,388.835,243.009,382.731,242.82z"/>
					</g>
					<g>
						<path style="fill:#3F5D77;" d="M432.243,215.008l-26.884,26.884c-10.538,9.699-25.008-4.773-15.273-15.316
							c0,0,26.862-26.862,26.862-26.862c3.5-3.5,8.801-4.099,12.916-1.796C436.061,201.266,437.321,210.089,432.243,215.008z"/>
						<path style="fill:#3F6C8E;" d="M432.243,215.008l-26.884,26.884c-6.194-3.341-7.452-12.176-2.378-17.09
							c0,0,26.884-26.884,26.884-26.884C436.064,201.264,437.319,210.09,432.243,215.008z"/>
						<path style="fill:#22A8B9;" d="M407.752,226.138c-1.687-1.687-1.687-4.421,0-6.108l11.861-11.861
							c4.125-3.924,10.035,1.976,6.108,6.108c0,0-11.861,11.861-11.861,11.861C412.174,227.825,409.439,227.825,407.752,226.138z"/>
					</g>
					<g>
						<path style="fill:#334353;" d="M438.081,143.953l3.769,32.644c1.245,10.899-2.242,22.53-8.214,22.53
							c-5.972,0-9.468-11.663-8.208-22.578l3.763-32.596C429.968,138.005,437.401,138.174,438.081,143.953z"/>
						<path style="fill:#3E4E60;" d="M438.081,143.953l3.769,32.644c-5.904,3.072-10.273-5.839-10.033-13.397
							c0,0,0.742-23.541,0.742-23.541C435.312,138.892,437.798,141.156,438.081,143.953z"/>
						<path style="fill:#3F5D77;" d="M434.444,160.767c-1.408,0-2.494-1.794-2.429-3.854l0.345-10.959
							c0.133-2.791,3.541-2.751,3.735,0c0,0,0.665,10.959,0.665,10.959C436.885,158.973,435.852,160.767,434.444,160.767z"/>
					</g>
				</g>
				<g>
					<g>
						<g>
							<path style="fill:#3F6C8E;" d="M119.39,250.68c-0.037,6.806,5.598,12.515,12.477,12.477c0,0,38.714,0,38.714,0
								c16.538-0.645,16.561-24.3,0-24.955c0,0-38.714,0-38.714,0C124.973,238.203,119.39,243.785,119.39,250.68z"/>
							<path style="fill:#22A8B9;" d="M119.39,250.68c0,0.465,0.023,0.923,0.076,1.373h29.706
								c7.377,0.049,13.253-6.529,12.401-13.85h-29.706C124.973,238.203,119.39,243.785,119.39,250.68z"/>
						</g>
						<path style="fill:#4FCAE8;" d="M129.764,242.82h14.792c6.098,0.187,6.104,9.044,0,9.232c0,0-14.792,0-14.792,0
							C123.667,251.866,123.66,243.009,129.764,242.82z"/>
					</g>
					<g>
						<path style="fill:#3F5D77;" d="M80.252,215.008l26.884,26.884c10.538,9.699,25.008-4.773,15.273-15.316
							c0,0-26.862-26.862-26.862-26.862c-3.5-3.5-8.801-4.099-12.916-1.796C76.434,201.266,75.174,210.089,80.252,215.008z"/>
						<path style="fill:#3F6C8E;" d="M80.252,215.008l26.884,26.884c6.194-3.341,7.452-12.176,2.378-17.09
							c0,0-26.884-26.884-26.884-26.884C76.431,201.264,75.176,210.09,80.252,215.008z"/>
						<path style="fill:#22A8B9;" d="M104.742,226.138c1.687-1.687,1.687-4.421,0-6.108l-11.861-11.861
							c-4.125-3.924-10.035,1.976-6.108,6.108c0,0,11.861,11.861,11.861,11.861C100.321,227.825,103.056,227.825,104.742,226.138z"
							/>
					</g>
					<g>
						<path style="fill:#334353;" d="M74.414,143.953l-3.769,32.644c-1.245,10.899,2.242,22.53,8.214,22.53
							c5.972,0,9.468-11.663,8.208-22.578l-3.763-32.596C82.527,138.005,75.094,138.174,74.414,143.953z"/>
						<path style="fill:#3E4E60;" d="M74.414,143.953l-3.769,32.644c5.904,3.072,10.273-5.839,10.033-13.397
							c0,0-0.742-23.541-0.742-23.541C77.183,138.892,74.697,141.156,74.414,143.953z"/>
						<path style="fill:#3F5D77;" d="M78.051,160.767c1.408,0,2.494-1.794,2.429-3.854l-0.345-10.959
							c-0.133-2.791-3.541-2.751-3.735,0c0,0-0.665,10.959-0.665,10.959C75.61,158.973,76.643,160.767,78.051,160.767z"/>
					</g>
				</g>
			</g>
			<g>
				<g>
					<g>
						<path style="fill:#3F6C8E;" d="M382.535,182.138l-18.138,18.138c-9.292,9.726-26.506,6.237-31.417-6.185
							c-2.929-6.994-1.549-15.369,4.151-21.069l10.659-10.671c2.65-2.638,6.462-3.739,10.093-2.904
							c0.97,0.205,19.027,4.377,19.4,4.442C385.609,165.788,388.574,176.099,382.535,182.138z"/>
						<path style="fill:#22A8B9;" d="M372.2,171.791l-18.15,18.15c-5.7,5.7-14.075,7.079-21.07,4.151
							c-2.929-6.995-1.549-15.369,4.151-21.07l10.659-10.671c2.65-2.638,6.462-3.739,10.093-2.904l17.475,4.006
							C375.553,166.381,374.572,169.419,372.2,171.791z"/>
						<path style="fill:#4FCAE8;" d="M349.02,184.909c-3.307-3.434-2.494-8.19,1.041-11.11c6.884-6.43,16.502,3.171,10.067,10.065
							C357.237,187.402,352.43,188.213,349.02,184.909z"/>
					</g>
					<g>
						<path style="fill:#3F5D77;" d="M390.526,133.884v26.971c0,8.359-6.784,15.143-15.143,15.143
							c-8.359,0-15.143-6.784-15.143-15.143v-18.665c0-2.926,1.509-5.656,3.989-7.217l13.24-8.306
							c1.745-1.103,3.661-1.47,5.459-1.273C386.995,125.854,390.526,129.239,390.526,133.884z"/>
						<path style="fill:#3F6C8E;" d="M382.928,125.394v20.686c0.169,11.486-12.898,18.982-22.688,13.122v-17.012
							c0-2.926,1.509-5.656,3.989-7.217l13.24-8.306C379.214,125.565,381.13,125.198,382.928,125.394z"/>
						<path style="fill:#22A8B9;" d="M372.045,153.241c-2.75,0-4.979-2.229-4.979-4.979v-4.836c0.203-6.58,9.756-6.581,9.958,0
							c0,0,0,4.836,0,4.836C377.024,151.012,374.794,153.241,372.045,153.241z"/>
					</g>
					<g>
						<g>
							<path style="fill:#3E4E60;" d="M341.938,136.121l-12.302-12.302c-19.064-19.422-16.318-38.368-16.362-63.069l52.017,52.017
								L341.938,136.121z"/>
							<path style="fill:#334353;" d="M342.149,94.679c-26.585,28.67,12.259,67.468,40.587,40.874
								c10.866-11.201,10.262-29.839-0.774-40.874l-32.319-32.319c-11.182-11.182-26.349-17.465-42.163-17.465
								c-3.717,0-5.578,4.493-2.95,7.121l37.618,37.618C343.542,91.029,343.542,93.287,342.149,94.679z"/>
							<path style="fill:#3E4E60;" d="M338.014,59.359l33.32,33.32c4.952,5.26-2.458,12.703-7.74,7.74c0,0-33.32-33.32-33.32-33.32
								C325.322,61.839,332.732,54.396,338.014,59.359z"/>
							<path style="fill:#3F5D77;" d="M344.008,65.354l14.446,14.446c2.137,2.137,2.137,5.603,0,7.74
								c-2.137,2.137-5.603,2.137-7.74,0l-14.446-14.446C331.313,67.826,338.732,60.394,344.008,65.354z"/>
							<path style="fill:#3F5D77;" d="M330.478,86.521l1.244,12.392c0.302,3.008-1.891,5.69-4.899,5.992
								c-3.008,0.302-5.69-1.891-5.992-4.899l-1.244-12.392C319.085,80.397,329.533,79.343,330.478,86.521z"/>
						</g>
						<g>
							<path style="fill:#3E4E60;" d="M376.18,131.176c-8.141,8.141-21.388,8.141-29.529,0c-1.688-1.688-1.688-4.425,0-6.113
								c1.688-1.688,4.425-1.688,6.113,0c4.771,4.771,12.533,4.771,17.304,0C374.193,121.136,380.112,127.041,376.18,131.176z"/>
						</g>
					</g>
				</g>
				<g>
					<g>
						<path style="fill:#3F6C8E;" d="M129.959,182.138l18.138,18.138c9.292,9.726,26.506,6.237,31.417-6.185
							c2.929-6.994,1.549-15.369-4.151-21.069l-10.659-10.671c-2.65-2.638-6.462-3.739-10.093-2.904
							c-0.97,0.205-19.027,4.377-19.399,4.442C126.885,165.788,123.921,176.099,129.959,182.138z"/>
						<path style="fill:#22A8B9;" d="M140.294,171.791l18.15,18.15c5.7,5.7,14.075,7.079,21.07,4.151
							c2.929-6.995,1.549-15.369-4.151-21.07l-10.659-10.671c-2.65-2.638-6.462-3.739-10.093-2.904l-17.475,4.006
							C136.942,166.381,137.923,169.419,140.294,171.791z"/>
						<path style="fill:#4FCAE8;" d="M163.475,184.909c3.307-3.434,2.494-8.19-1.041-11.11c-6.884-6.43-16.502,3.171-10.067,10.065
							C155.258,187.402,160.064,188.213,163.475,184.909z"/>
					</g>
					<g>
						<path style="fill:#3F5D77;" d="M121.969,133.884v26.971c0,8.359,6.784,15.143,15.143,15.143
							c8.359,0,15.143-6.784,15.143-15.143v-18.665c0-2.926-1.509-5.656-3.989-7.217l-13.24-8.306
							c-1.745-1.103-3.661-1.47-5.459-1.273C125.499,125.854,121.969,129.239,121.969,133.884z"/>
						<path style="fill:#3F6C8E;" d="M129.567,125.394v20.686c-0.169,11.486,12.898,18.982,22.688,13.122v-17.012
							c0-2.926-1.509-5.656-3.989-7.217l-13.24-8.306C133.281,125.565,131.365,125.198,129.567,125.394z"/>
						<path style="fill:#22A8B9;" d="M140.45,153.241c2.75,0,4.979-2.229,4.979-4.979v-4.836c-0.203-6.58-9.756-6.581-9.958,0
							c0,0,0,4.836,0,4.836C135.471,151.012,137.7,153.241,140.45,153.241z"/>
					</g>
					<g>
						<g>
							<path style="fill:#3E4E60;" d="M170.557,136.121l12.302-12.302c19.064-19.422,16.318-38.368,16.362-63.069l-52.017,52.017
								L170.557,136.121z"/>
							<path style="fill:#334353;" d="M170.346,94.679c26.585,28.67-12.259,67.468-40.587,40.874
								c-10.867-11.201-10.262-29.839,0.774-40.874l32.319-32.319c11.182-11.182,26.349-17.465,42.163-17.465
								c3.717,0,5.578,4.493,2.95,7.121l-37.618,37.618C168.953,91.029,168.953,93.287,170.346,94.679z"/>
							<path style="fill:#3E4E60;" d="M174.481,59.359l-33.32,33.32c-4.952,5.26,2.458,12.703,7.74,7.74
								c0,0,33.32-33.32,33.32-33.32C187.173,61.839,179.763,54.396,174.481,59.359z"/>
							<path style="fill:#3F5D77;" d="M168.487,65.354l-14.446,14.446c-2.137,2.137-2.137,5.603,0,7.74
								c2.137,2.137,5.603,2.137,7.74,0l14.446-14.446C181.182,67.826,173.762,60.394,168.487,65.354z"/>
							<path style="fill:#3F5D77;" d="M182.017,86.521l-1.244,12.392c-0.302,3.008,1.891,5.69,4.899,5.992
								c3.008,0.302,5.69-1.891,5.992-4.899l1.244-12.392C193.409,80.397,182.961,79.343,182.017,86.521z"/>
						</g>
						<g>
							<path style="fill:#3E4E60;" d="M136.315,131.176c8.141,8.141,21.388,8.141,29.529,0c1.688-1.688,1.688-4.425,0-6.113
								c-1.688-1.688-4.425-1.688-6.113,0c-4.771,4.771-12.533,4.771-17.304,0C138.302,121.136,132.383,127.041,136.315,131.176z"/>
						</g>
					</g>
				</g>
			</g>
			<g>
				<g>
					<path style="fill:#3F6C8E;" d="M301.571,156.84l-2.746-2.746c-4.299-4.299-11.465-3.551-14.784,1.542l-11.51,17.665
						c-1.834,2.814-1.446,6.528,0.929,8.903c2.375,2.375,6.089,2.763,8.903,0.929l17.665-11.51
						C305.122,168.305,305.87,161.139,301.571,156.84z"/>
					<g>
						<path style="fill:#334353;" d="M291.576,152.11l3.465-3.465c3.288-3.329,8.754-3.28,11.989-0.004
							c3.311,3.311,3.307,8.678-0.004,11.989l-3.465,3.465C295.37,171.731,283.92,160.384,291.576,152.11z"/>
						<path style="fill:#3E4E60;" d="M291.575,152.105l3.459-3.459c2.416-2.398,5.892-3.097,8.972-1.95
							c1.113,3.011,0.466,6.539-1.958,8.964l-3.459,3.459c-2.319,2.348-5.94,3.102-8.955,1.95
							C288.472,158.044,289.226,154.427,291.575,152.105z"/>
					</g>
				</g>
				<g>
					<path style="fill:#3F5D77;" d="M213.669,154.095l-2.746,2.746c-4.299,4.299-3.551,11.465,1.542,14.784l17.665,11.51
						c2.814,1.834,6.528,1.446,8.903-0.929s2.763-6.089,0.929-8.903l-11.51-17.665C225.134,150.543,217.968,149.796,213.669,154.095
						z"/>
					<g>
						<path style="fill:#334353;" d="M217.415,148.601l3.465,3.465c3.329,3.288,3.28,8.754,0.004,11.989
							c-3.311,3.311-8.678,3.307-11.989-0.004l-3.465-3.465C197.794,152.394,209.141,140.944,217.415,148.601z"/>
						<path style="fill:#3E4E60;" d="M217.42,148.6l3.459,3.459c2.398,2.416,3.097,5.892,1.95,8.972
							c-3.011,1.113-6.539,0.466-8.964-1.958l-3.459-3.459c-2.348-2.319-3.102-5.94-1.949-8.955
							C211.481,145.497,215.098,146.251,217.42,148.6z"/>
					</g>
				</g>
			</g>
		</g>
		<g>
			<path style="fill:#3E4E60;" d="M367.68,246.167c0,9.493-3.023,18.739-8.623,26.396l-39.734,54.341
				c-9.716,13.29-25.192,21.148-41.657,21.148h-42.838c-16.465,0-31.941-7.858-41.657-21.148l-39.734-54.341
				c-2.8-3.829-4.954-8.057-6.414-12.508c-11.479-43.699,26.089-87.216,70.462-86.56c0,0,77.523,0,77.523,0
				C335.141,173.494,367.682,206.034,367.68,246.167z"/>
			<path style="fill:#3F5D77;" d="M367.68,246.167c0,9.493-3.023,18.739-8.623,26.396l-39.734,54.341
				c-9.716,13.29-25.192,21.148-41.657,21.148h-21.419V173.495h38.761C335.141,173.494,367.682,206.034,367.68,246.167z"/>
			<path style="fill:#3F5D77;" d="M327.061,241.317c0,6.039-1.914,11.91-5.472,16.776l-25.256,34.541
				c-6.174,8.44-16.01,13.433-26.468,13.433H242.63c-10.458,0-20.294-4.993-26.468-13.433l-25.256-34.541
				c-3.564-4.877-5.471-10.737-5.472-16.776c0-25.503,20.677-46.18,46.18-46.18h49.267
				C306.38,195.14,327.061,215.812,327.061,241.317z"/>
			<path style="fill:#3F6C8E;" d="M327.061,241.317c0,6.039-1.914,11.91-5.472,16.776l-25.256,34.541
				c-6.174,8.44-16.01,13.433-26.468,13.433h-13.617V195.137h24.633C306.38,195.14,327.061,215.812,327.061,241.317z"/>
			<g>
				<path style="fill:#22A8B9;" d="M295.746,247.437h-39.498v-27.531h39.498C314.011,220.644,314.005,246.701,295.746,247.437z"/>
				<path style="fill:#3F6C8E;" d="M216.749,219.905h39.498v27.531h-39.498C198.483,246.698,198.49,220.641,216.749,219.905z"/>
			</g>
		</g>
	</g>
</g>
</svg>
