<?xml version="1.0" encoding="iso-8859-1"?>
<!-- Generator: Adobe Illustrator 22.0.1, SVG Export Plug-In . SVG Version: 6.00 Build 0)  -->
<svg version="1.1" id="Icons" xmlns="http://www.w3.org/2000/svg" xmlns:xlink="http://www.w3.org/1999/xlink" x="0px" y="0px"
	 viewBox="0 0 512 512" style="enable-background:new 0 0 512 512;" xml:space="preserve">
<g>
	<circle style="fill:#53B976;" cx="256" cy="256" r="256"/>
	<g>
		<g>
			<path style="fill:#C2AACF;" d="M439.47,262.03l-1.83,9c-1.36,6.65-3.49,12.94-6.27,18.8c-15.8,33.28-52.74,52.8-90.44,45.1
				l-0.32-0.07c-5.94-1.21-12.03,0.66-16.44,4.81c-7.13,6.7-15.55,12.06-24.84,15.64c-8.56,3.33-17.86,5.14-27.6,5.14h-99.9
				c-0.93,0-1.85-0.01-2.77-0.05c-7.64-0.22-15.04-1.4-22.09-3.4c-10.46-2.99-20.15-7.8-28.7-14.09
				c-22.41-16.47-36.96-43.03-36.96-72.98v-62.62H218.9c8.31-25.39,28.24-44.46,52.52-52.37c13.05-4.27,27.35-5.3,41.76-2.36
				l62.4,12.75C419.93,174.39,448.53,217.68,439.47,262.03z"/>
			<g>
				<path style="fill:#DECEE5;" d="M146.97,331.75V357c-10.46-2.99-20.15-7.8-28.7-14.09v-11.16c0-7.93,6.43-14.35,14.35-14.35
					c3.96,0,7.55,1.6,10.14,4.2C145.36,324.2,146.97,327.78,146.97,331.75z"/>
				<path style="fill:#DECEE5;" d="M197.75,331.75v28.7h-25.92c-0.93,0-1.85-0.01-2.77-0.05v-28.65c0-7.93,6.42-14.35,14.35-14.35
					c3.96,0,7.55,1.6,10.14,4.2C196.14,324.2,197.75,327.78,197.75,331.75z"/>
				<path style="fill:#DECEE5;" d="M248.54,331.75v28.7h-28.7v-28.7c0-7.93,6.43-14.35,14.35-14.35c3.97,0,7.55,1.6,10.15,4.2
					C246.94,324.2,248.54,327.78,248.54,331.75z"/>
				<path style="fill:#DECEE5;" d="M299.33,331.75v23.56c-8.56,3.33-17.86,5.14-27.6,5.14h-1.1v-28.7c0-7.93,6.42-14.35,14.35-14.35
					c3.96,0,7.55,1.6,10.14,4.2C297.72,324.2,299.33,327.78,299.33,331.75z"/>
			</g>
		</g>
		<g>
			<path style="fill:#DECEE5;" d="M439.47,262.03l-1.83,9c-1.36,6.65-3.49,12.94-6.27,18.8c-13.05,4.27-27.35,5.3-41.76,2.36
				l-62.4-12.75c-0.75-0.15-1.49-0.32-2.23-0.49c-7.76-1.81-15.88,0.27-21.71,5.71c-14.89,13.92-34.88,22.44-56.87,22.44H81.31
				c-6.47,0-12.34-2.62-16.59-6.87c-4.24-4.25-6.87-10.11-6.87-16.59c0-1.11,0.01-2.21,0.04-3.31
				c1.76-81.76,68.6-147.51,150.79-147.51h61.48c4.27,0,8.44,0.45,12.46,1.3c12.68,2.7,23.86,9.43,32.15,18.79l60.81,12.42
				C419.93,174.39,448.53,217.68,439.47,262.03z"/>
			<path style="fill:#F4E6F4;" d="M282.62,134.12C250.35,219.42,164.55,280.4,63.79,280.4c-1.97,0-3.94-0.02-5.9-0.07
				c1.76-81.76,68.6-147.51,150.79-147.51h61.48C274.43,132.82,278.6,133.27,282.62,134.12z"/>
		</g>
		<g>
			<g>
				<path style="fill:#746087;" d="M227.568,184.799c7.492,7.492,10.206,17.943,8.144,27.578c-1.153,5.511-3.88,10.731-8.144,14.995
					l-29.209,29.209c-5.884,5.884-13.574,8.82-21.286,8.82c-7.713,0-15.403-2.936-21.287-8.82
					c-10.999-10.999-11.709-28.394-2.12-40.219c0.652-0.816,1.363-1.596,2.12-2.354l29.209-29.209
					c5.872-5.872,13.574-8.82,21.287-8.82C213.983,175.991,221.684,178.915,227.568,184.799z"/>
				<path style="fill:#9175A7;" d="M227.568,184.799c7.492,7.492,10.206,17.943,8.144,27.578
					c-25.982,22.207-61.576,24.316-82.047,3.985c0.652-0.816,1.363-1.596,2.12-2.354l29.209-29.209
					c5.872-5.872,13.574-8.82,21.287-8.82C213.983,175.991,221.684,178.915,227.568,184.799z"/>
			</g>
			<path style="fill:#53B976;" d="M219.53,220.54l-22.3,22.3l-5.7,5.7c-3.83,3.84-8.84,5.75-13.85,5.75c-0.29,0-0.57-0.01-0.86-0.02
				c-4.72-0.2-9.38-2.11-13-5.73c-7.64-7.64-7.65-20.05,0-27.7l28-28c3.82-3.82,8.83-5.73,13.84-5.73c5.04,0,10.05,1.91,13.87,5.73
				C227.18,200.49,227.17,212.9,219.53,220.54z"/>
			<path style="fill:#3E4E60;" d="M201.92,223.37c0,6.99-1.69,13.6-4.69,19.47l-5.7,5.7c-3.83,3.84-8.84,5.75-13.85,5.75
				c-0.29,0-0.57-0.01-0.86-0.02c-4.72-0.2-9.38-2.11-13-5.73c-7.64-7.64-7.65-20.05,0-27.7l26.66-26.66
				C197.6,201.96,201.92,212.18,201.92,223.37z"/>
			<path style="fill:#2E3140;" d="M189.92,223.37c0,12.04-5,22.95-13.1,30.9c-4.72-0.2-9.38-2.11-13-5.73
				c-7.64-7.64-7.65-20.05,0-27.7l19.81-19.81C187.63,207.58,189.92,215.22,189.92,223.37z"/>
			<path style="fill:#83D5EF;" d="M201.62,196.354l-16.41,16.41c-3.205,3.205-3.205,8.402,0,11.607h0
				c3.205,3.205,8.402,3.205,11.607,0l16.41-16.41c3.205-3.205,3.205-8.402,0-11.607l0,0
				C210.022,193.149,204.826,193.149,201.62,196.354z"/>
		</g>
		<g>
			<path style="fill:#C68132;" d="M287.23,247.49l-43.32-8.59c-4.72-0.94-9.6,0.48-13.08,3.81l-14.41,13.75
				c-7.93,7.56-5.16,20.81,5.12,24.57l16.8,6.15c14.06,5.14,29.82,2.04,40.88-8.06l13.42-12.25
				C299.46,260.63,296.3,249.29,287.23,247.49z M308.72,205.89c-0.31-9.34-9.55-15.73-18.39-12.71l-35.39,12.08
				c-3.45,1.18-6.19,3.83-7.48,7.24c-2.88,7.59,2.31,15.83,10.4,16.51l36.18,3.06c8.29,0.69,15.33-5.99,15.06-14.31L308.72,205.89z
				 M277.98,154.61l-3.28-2.17l-4.6-3.03c-7.23-4.76-16.95-2.71-21.64,4.55l-8.56,13.25c-2.35,3.63-3.03,8.09-1.88,12.25
				c1.72,6.22,7.01,10.35,12.92,11.02c2.54,0.28,5.2-0.08,7.74-1.19l16.97-7.43C286.96,176.91,288.28,161.4,277.98,154.61z
				 M223.32,141.53h-28.58c-6.22,0-10.59,6.11-8.59,12l1.43,4.21c2.21,6.51,8.32,10.88,15.18,10.88h12.61
				c6.97,0,13.13-4.49,15.27-11.12l1.32-4.11C233.85,147.53,229.48,141.53,223.32,141.53z M170.97,155.92l-3.24-1.84
				c-3.08-1.92-7.02-1.79-9.97,0.33l-45.28,32.5c-7.09,5.09-3.49,16.28,5.24,16.28l21.65,1.66c3.99,0.31,7.93-1.09,10.83-3.85
				l23.53-22.34C180.67,172.07,179.29,160.66,170.97,155.92z M187.37,282.15c-3.42-2.11-7.03-3.85-10.79-5.22
				c-3.75-1.37-7.64-2.37-11.62-2.96c-6.7-0.99-12.7-3.99-17.4-8.37c-5.81-5.39-9.63-12.86-10.33-21.21l-0.79-9.46
				c-0.81-9.6-8.84-16.99-18.48-16.99H98.03c-7.01,0-13.42,3.94-16.56,10.19c-3.79,7.53-6.75,15.55-8.76,23.93
				c-2.01,8.38-3.08,17.14-3.08,26.14c0,0.72,0.04,1.44,0.14,2.13c1.04,8.58,8.35,15.22,17.22,15.22h96.59
				c4.49,0,7.25-3.64,7.25-7.32C190.83,285.93,189.76,283.62,187.37,282.15z"/>
			<g>
				<path style="fill:#F39E22;" d="M147.56,265.6c-24.23,8.91-50.42,14.07-77.79,14.73c-0.1-0.69-0.14-1.41-0.14-2.13
					c0-9,1.07-17.76,3.08-26.14c2.01-8.38,4.97-16.4,8.76-23.93c3.14-6.25,9.55-10.19,16.56-10.19h19.93
					c9.64,0,17.67,7.39,18.48,16.99l0.79,9.46C137.93,252.74,141.75,260.21,147.56,265.6z"/>
				<path style="fill:#F39E22;" d="M173.73,178.66L150.2,201c-2.9,2.76-6.84,4.16-10.83,3.85l-21.65-1.66
					c-8.73,0-12.33-11.19-5.24-16.28l45.28-32.5c2.95-2.12,6.89-2.25,9.97-0.33l3.24,1.84
					C179.29,160.66,180.67,172.07,173.73,178.66z"/>
				<path style="fill:#F39E22;" d="M231.96,153.39l-1.32,4.11c-2.14,6.63-8.3,11.12-15.27,11.12h-12.61
					c-6.86,0-12.97-4.37-15.18-10.88l-1.43-4.21c-2-5.89,2.37-12,8.59-12h28.58C229.48,141.53,233.85,147.53,231.96,153.39z"/>
				<path style="fill:#F39E22;" d="M274.7,152.44c-6.6,13.47-14.57,26.21-23.76,38.04c-5.91-0.67-11.2-4.8-12.92-11.02
					c-1.15-4.16-0.47-8.62,1.88-12.25l8.56-13.25c4.69-7.26,14.41-9.31,21.64-4.55L274.7,152.44z"/>
			</g>
		</g>
		<g>
			<path style="fill:#2E3140;" d="M110.16,236.86c0,0.94-0.13,1.88-0.39,2.82c-0.01,0.05-0.02,0.11-0.04,0.16l-3.33,11.23
				c-1.65,5.55-7.48,8.71-13.03,7.06c-0.88-0.26-1.69-0.62-2.44-1.08c-3.99-2.4-6.01-7.27-4.62-11.94l3.33-11.23
				c1.64-5.55,7.47-8.71,13.02-7.07C107.22,228.16,110.16,232.34,110.16,236.86z"/>
			<path style="fill:#3E4E60;" d="M109.77,239.68c-0.01,0.05-0.02,0.11-0.04,0.16l-3.33,11.23c-1.65,5.55-7.48,8.71-13.03,7.06
				c-0.88-0.26-1.69-0.62-2.44-1.08c0.01-0.05,0.03-0.09,0.04-0.14l3.34-11.24c1.64-5.54,7.47-8.71,13.02-7.06
				C108.21,238.87,109.02,239.23,109.77,239.68z"/>
		</g>
		<g>
			<path style="fill:#C68132;" d="M463.09,312.95c-0.86,0.85-1.77,1.68-2.73,2.47l-26.53,21.97c-21.89,18.11-55.12,9.13-64.89-17.55
				l-53.69-146.51c-1.71-4.68-2.55-9.53-2.55-14.35c0-10.29,3.81-20.41,10.99-28.25c13.34-14.56,33.89-17.31,50.04-9.34
				c6.74,3.33,12.71,8.52,17.08,15.5l4.56,7.28l4.58,7.32l10.43,16.69l20.4,32.6l11.35,18.14l20.39,32.6l6.49,10.37
				c1.19,1.89,2.2,3.85,3.04,5.85C478.55,283.11,475.09,301.08,463.09,312.95z"/>
			<g>
				<path style="fill:#F39E22;" d="M399.95,151.49l-40.73,17.49c-9.65,4.14-20.82-0.32-24.96-9.97c-4.14-9.64,0.32-20.81,9.96-24.95
					l29.51-12.67c6.74,3.33,12.71,8.52,17.08,15.5L399.95,151.49z"/>
				<path style="fill:#F39E22;" d="M430.78,200.78l-49.26,21.15c-9.64,4.14-20.82-0.32-24.96-9.96s0.32-20.82,9.96-24.96
					l43.86-18.83L430.78,200.78z"/>
				<path style="fill:#F39E22;" d="M462.52,251.52l-56.69,24.34c-9.64,4.15-20.82-0.32-24.96-9.96c-4.14-9.64,0.32-20.82,9.97-24.96
					l51.29-22.02L462.52,251.52z"/>
				<path style="fill:#F39E22;" d="M463.09,312.95l-34.7,14.9c-9.64,4.14-20.82-0.32-24.96-9.97c-4.14-9.64,0.32-20.81,9.96-24.96
					l58.66-25.18C478.55,283.11,475.09,301.08,463.09,312.95z"/>
			</g>
		</g>
	</g>
</g>
</svg>
