<?xml version="1.0" encoding="iso-8859-1"?>
<!-- Generator: Adobe Illustrator 22.0.1, SVG Export Plug-In . SVG Version: 6.00 Build 0)  -->
<svg version="1.1" id="Icons" xmlns="http://www.w3.org/2000/svg" xmlns:xlink="http://www.w3.org/1999/xlink" x="0px" y="0px"
	 viewBox="0 0 512 512" style="enable-background:new 0 0 512 512;" xml:space="preserve">
<g>
	<circle style="fill:#22BCE0;" cx="256" cy="256" r="256"/>
	<g>
		<g>
			<g>
				<path style="fill:#FFFFFF;" d="M487.919,165.683l1.698,8.11c5.413,25.848-11.156,51.195-37.005,56.608l-75.536,15.818
					c-13.574,2.842-26.877-5.854-29.718-19.419c-1.239-5.915-0.282-11.844,2.372-16.873c2.662-5.03,7.028-9.163,12.6-11.475
					l51.438-21.276l53.795-22.25C476.223,151.343,486,156.515,487.919,165.683z"/>
				<path style="fill:#3E4E60;" d="M487.919,165.683l1.698,8.11c5.413,25.848-11.156,51.195-37.005,56.608l-2.276,0.477
					c-17.789-10.368-31.292-27.943-35.845-49.684c-0.281-1.34-0.527-2.678-0.724-4.018l53.795-22.25
					C476.223,151.343,486,156.515,487.919,165.683z"/>
				<path style="fill:#F4829B;" d="M444.233,218.905l-62.44,19.343l-2.714,0.838c-0.545,0.173-1.089,0.312-1.637,0.427
					c-8.869,1.857-17.863-3.319-20.596-12.147c-2.898-9.375,2.346-19.327,11.72-22.234l63.074-19.534l2.072-0.645
					c0.545-0.173,1.089-0.312,1.637-0.427c8.869-1.857,17.861,3.311,20.596,12.147C458.851,206.047,453.607,215.999,444.233,218.905
					z"/>
				<path style="fill:#FF9FB4;" d="M444.233,218.905l-62.44,19.343c6.664-22.203,24.915-41.811,49.846-52.651l2.072-0.645
					c0.545-0.173,1.089-0.312,1.637-0.427c8.869-1.857,17.861,3.311,20.596,12.147C458.851,206.047,453.607,215.999,444.233,218.905
					z"/>
			</g>
			<g>
				<path style="fill:#EBD9EA;" d="M24.081,165.683l-1.698,8.11c-5.413,25.848,11.156,51.195,37.005,56.608l75.536,15.818
					c13.574,2.842,26.877-5.854,29.718-19.419c1.239-5.915,0.282-11.844-2.372-16.873c-2.662-5.03-7.028-9.163-12.6-11.475
					l-51.438-21.276l-53.795-22.25C35.777,151.343,26,156.515,24.081,165.683z"/>
				<path style="fill:#2E3140;" d="M24.081,165.683l-1.698,8.11c-5.413,25.848,11.156,51.195,37.005,56.608l2.276,0.477
					c17.789-10.368,31.292-27.943,35.845-49.684c0.281-1.34,0.527-2.678,0.724-4.018l-53.795-22.25
					C35.777,151.343,26,156.515,24.081,165.683z"/>
				<path style="fill:#EE6781;" d="M67.767,218.905l62.44,19.343l2.714,0.838c0.545,0.173,1.089,0.312,1.637,0.427
					c8.869,1.857,17.863-3.319,20.596-12.147c2.898-9.375-2.346-19.327-11.72-22.234l-63.074-19.534l-2.072-0.645
					c-0.545-0.173-1.089-0.312-1.637-0.427c-8.869-1.857-17.861,3.311-20.596,12.147C53.149,206.047,58.393,215.999,67.767,218.905z
					"/>
				<path style="fill:#F4829B;" d="M67.767,218.905l62.44,19.343c-6.664-22.203-24.915-41.811-49.846-52.651l-2.072-0.645
					c-0.545-0.173-1.089-0.312-1.637-0.427c-8.869-1.857-17.861,3.311-20.596,12.147C53.149,206.047,58.393,215.999,67.767,218.905z
					"/>
			</g>
		</g>
		<g>
			<g>
				<path style="fill:#EBD9EA;" d="M365.972,218.639l-31.753,200.145c-4.63,29.182-29.794,50.673-59.343,50.673h-37.752
					c-29.549,0-54.714-21.491-59.343-50.673l-31.753-200.145c-3.417-21.469,6.822-41.536,23.784-52.131
					c1.502-0.935,2.96-1.948,4.352-3.027c6.589-5.031,11.976-11.475,16.016-18.787c7.813-14.113,22.849-23.673,40.122-23.673h51.397
					c17.273,0,32.309,9.56,40.122,23.673c4.04,7.312,9.427,13.756,16.016,18.787c1.391,1.08,2.849,2.092,4.352,3.027
					c7.078,4.43,12.988,10.495,17.218,17.641C365.316,194.098,367.965,206.129,365.972,218.639z"/>
				<path style="fill:#FFFFFF;" d="M365.972,218.639l-31.753,200.145c-4.63,29.182-29.794,50.673-59.343,50.673H256v-247.78
					c0-20.723,16.806-37.529,37.529-37.529h65.877C365.316,194.098,367.965,206.129,365.972,218.639z"/>
				<path style="fill:#FFFFFF;" d="M276.887,129.23h-41.774c-9.088,0-16.456,7.368-16.456,16.456v0
					c0,9.088,7.368,16.456,16.456,16.456h41.774c9.088,0,16.456-7.368,16.456-16.456v0
					C293.343,136.598,285.975,129.23,276.887,129.23z"/>
			</g>
			<g>
				<path style="fill:#3E4E60;" d="M365.972,218.639l-31.753,200.145h-28.013c-13.089,0-24.118-9.783-25.665-22.782l-9.727-81.352
					c-1.55-12.964-2.327-26.008-2.327-39.064v-11.492c0-7.134,2.894-13.6,7.568-18.275c4.75-4.739,11.33-7.647,18.581-7.567
					c14.177,0.158,25.548-11.787,25.548-25.966v-24.298c0-11.408,7.39-21.091,17.652-24.508c1.391,1.08,2.849,2.092,4.352,3.027
					C359.15,177.103,369.389,197.17,365.972,218.639z"/>
				<path style="fill:#2E3140;" d="M243.513,264.093v11.492c0,13.056-0.777,26.101-2.327,39.064l-9.726,81.352
					c-1.547,12.999-12.577,22.782-25.665,22.782h-28.013l-31.753-200.145c-3.417-21.469,6.822-41.536,23.784-52.131
					c1.502-0.935,2.96-1.948,4.352-3.027c10.262,3.417,17.652,13.1,17.652,24.508v24.298c0,14.178,11.371,26.124,25.548,25.966
					c7.251-0.081,13.831,2.828,18.581,7.567C240.619,250.492,243.513,256.959,243.513,264.093z"/>
			</g>
			<g>
				<path style="fill:#3E4E60;" d="M174.561,398.493h15.534c14.067,0,25.914-10.514,27.584-24.481l3.823-31.962
					c1.978-16.533-10.933-31.081-27.584-31.081h-33.243L174.561,398.493z"/>
				<path style="fill:#3F5D77;" d="M337.439,398.493h-15.534c-14.067,0-25.914-10.514-27.584-24.481l-3.823-31.962
					c-1.978-16.533,10.933-31.081,27.584-31.081h33.243L337.439,398.493z"/>
				<path style="fill:#3F5D77;" d="M342.054,238.248L342.054,238.248c-6.622,0-11.991-5.369-11.991-11.991v-28.296
					c0-6.622,5.369-11.991,11.991-11.991h0c6.622,0,11.991,5.369,11.991,11.991v28.296
					C354.045,232.879,348.676,238.248,342.054,238.248z"/>
				<path style="fill:#3E4E60;" d="M169.946,238.248L169.946,238.248c-6.622,0-11.991-5.369-11.991-11.991v-28.296
					c0-6.622,5.369-11.991,11.991-11.991h0c6.622,0,11.991,5.369,11.991,11.991v28.296
					C181.937,232.879,176.569,238.248,169.946,238.248z"/>
				<path style="fill:#3F5D77;" d="M473.994,200.269h-4.43c-3.658,0-6.803-2.593-7.499-6.185l-3.782-19.502
					c-0.834-4.303,2.115-8.424,6.457-9.022l8.212-1.132c4.59-0.632,8.682,2.934,8.682,7.568v20.634
					C481.633,196.849,478.213,200.269,473.994,200.269z"/>
				<path style="fill:#3E4E60;" d="M37.88,200.269h4.43c3.658,0,6.803-2.593,7.499-6.185l3.782-19.502
					c0.834-4.303-2.115-8.424-6.457-9.022l-8.212-1.132c-4.59-0.632-8.682,2.934-8.682,7.568v20.634
					C30.241,196.849,33.661,200.269,37.88,200.269z"/>
			</g>
		</g>
		<g>
			<g>
				<g>
					<path style="fill:#B26E2B;" d="M390.124,108.9c0,18.609-1.469,33.712-7.09,44.752c-7.034,13.812-20.579,21.269-45.932,21.269
						c-24.752,0-33.578-10.495-33.578-22.916c0-11.085,9.004-19.733,19.288-19.733c5.108,0,9.56-0.445,13.422-1.269
						c39.01-8.28,16.728-55.059-7.613-71.419c-21.792-14.635-4.775-19.611,3.706-19.611
						C340.808,39.974,390.124,67.008,390.124,108.9z"/>
				</g>
				<g>
					<path style="fill:#C68132;" d="M390.124,108.9c0,18.609-1.469,33.712-7.09,44.752c-1.158,0.089-2.337,0.134-3.517,0.134
						c-16.394,0-31.453-8.536-43.283-22.783c17.563-3.728,22.704-15.259,20.824-28.303c-2.293-15.927-15.058-34.112-28.436-43.116
						c-21.792-14.635-4.775-19.611,3.706-19.611c7.012,0,41.892,18.453,53.801,48.503C388.632,94.799,390.124,101.622,390.124,108.9
						z"/>
				</g>
				<g>
					<path style="fill:#DD8C29;" d="M386.128,88.477c-8.325,6.077-18.175,10.94-29.071,14.224
						c-2.293-15.927-15.058-34.112-28.436-43.116c-21.792-14.635-4.775-19.611,3.706-19.611
						C339.339,39.974,374.219,58.427,386.128,88.477z"/>
				</g>
				<g>
					<path style="fill:#FBCB74;" d="M373.746,137.983c-0.29,0-0.584-0.033-0.878-0.101c-2.097-0.483-3.405-2.574-2.922-4.67
						c7.808-33.89-2.278-47.008-20.777-67.278c-1.45-1.589-1.338-4.053,0.251-5.503c1.589-1.45,4.054-1.338,5.503,0.251
						c19.737,21.625,31.108,37.415,22.615,74.278C377.124,136.763,375.52,137.983,373.746,137.983z"/>
				</g>
				<g>
					<path style="fill:#FFFFFF;" d="M376.368,112.265c-2.035,0-3.748-1.581-3.883-3.641c-0.75-11.452-4.794-20.724-13.96-32.001
						c-1.357-1.669-1.104-4.123,0.566-5.48c1.669-1.356,4.124-1.104,5.48,0.566c7.516,9.247,14.618,20.057,15.689,36.406
						c0.14,2.147-1.486,4.001-3.633,4.142C376.54,112.263,376.453,112.265,376.368,112.265z"/>
				</g>
			</g>
			<g>
				<g>
					<path style="fill:#B26E2B;" d="M121.876,108.9c0,18.609,1.469,33.712,7.09,44.752c7.034,13.812,20.579,21.269,45.932,21.269
						c24.752,0,33.578-10.495,33.578-22.916c0-11.085-9.004-19.733-19.288-19.733c-5.108,0-9.56-0.445-13.422-1.269
						c-39.01-8.28-16.728-55.059,7.613-71.419c21.792-14.635,4.775-19.611-3.706-19.611S121.876,67.008,121.876,108.9z"/>
				</g>
				<g>
					<path style="fill:#C68132;" d="M121.876,108.9c0,18.609,1.469,33.712,7.09,44.752c1.158,0.089,2.337,0.134,3.517,0.134
						c16.394,0,31.452-8.536,43.283-22.783c-17.563-3.728-22.705-15.259-20.824-28.303c2.293-15.927,15.058-34.112,28.436-43.116
						c21.792-14.635,4.775-19.611-3.706-19.611c-7.012,0-41.892,18.453-53.801,48.503C123.368,94.799,121.876,101.622,121.876,108.9
						z"/>
				</g>
				<g>
					<path style="fill:#DD8C29;" d="M125.872,88.477c8.325,6.077,18.175,10.94,29.071,14.224
						c2.293-15.927,15.058-34.112,28.436-43.116c21.792-14.635,4.775-19.611-3.706-19.611
						C172.661,39.974,137.781,58.427,125.872,88.477z"/>
				</g>
				<g>
					<path style="fill:#FBCB74;" d="M138.254,137.983c0.29,0,0.584-0.033,0.878-0.101c2.097-0.483,3.405-2.574,2.922-4.67
						c-7.808-33.89,2.278-47.008,20.777-67.278c1.45-1.589,1.338-4.053-0.251-5.503c-1.589-1.45-4.054-1.338-5.503,0.251
						c-19.737,21.625-31.108,37.415-22.615,74.278C134.876,136.763,136.48,137.983,138.254,137.983z"/>
				</g>
				<g>
					<path style="fill:#FFFFFF;" d="M135.632,112.265c2.035,0,3.748-1.581,3.883-3.641c0.75-11.452,4.794-20.724,13.96-32.001
						c1.357-1.669,1.104-4.123-0.566-5.48c-1.669-1.356-4.124-1.104-5.48,0.566c-7.516,9.247-14.618,20.057-15.689,36.406
						c-0.14,2.147,1.486,4.001,3.633,4.142C135.46,112.263,135.547,112.265,135.632,112.265z"/>
				</g>
			</g>
		</g>
		<g>
			<path style="fill:#EE6781;" d="M315.303,434.034l-9.339,10.656c-5.944,6.787-13.537,12.163-22.086,15.84
				c-8.563,3.689-18.068,5.678-27.878,5.678c-19.606,0-38.076-7.956-49.964-21.518l-9.339-10.656
				c-5.473-6.244-0.36-15.249,8.674-15.249H306.63C315.664,418.784,320.776,427.789,315.303,434.034z"/>
			<path style="fill:#F4829B;" d="M315.303,434.034l-9.339,10.656c-5.944,6.787-13.537,12.163-22.086,15.84
				c-8.563,3.689-18.068,5.678-27.878,5.678v-47.424h50.63C315.664,418.784,320.776,427.789,315.303,434.034z"/>
			<path style="fill:#FF9FB4;" d="M270.946,418.784h-29.892c-4.105,0-7.432,3.328-7.432,7.432l0,0c0,4.105,3.328,7.432,7.432,7.432
				h29.892c4.105,0,7.432-3.328,7.432-7.432l0,0C278.379,422.112,275.051,418.784,270.946,418.784z"/>
			<g>
				<path style="fill:#3E4E60;" d="M292.919,422.985h-1.043c-3.995,0-7.233,3.238-7.233,7.233v6.862
					c0,3.995,3.238,7.233,7.233,7.233h1.043c3.995,0,7.233-3.238,7.233-7.233v-6.862
					C300.152,426.223,296.913,422.985,292.919,422.985z"/>
				<path style="fill:#2E3140;" d="M220.124,422.985h-1.043c-3.995,0-7.233,3.238-7.233,7.233v6.862
					c0,3.995,3.238,7.233,7.233,7.233h1.043c3.995,0,7.233-3.238,7.233-7.233v-6.862
					C227.358,426.223,224.119,422.985,220.124,422.985z"/>
			</g>
		</g>
		<g>
			<g>
				<path style="fill:#FFFFFF;" d="M319.518,249.372l-17.378,4.657c-9.468,2.537-15.087,12.269-12.55,21.737l2.277,8.497
					c2.537,9.468,12.269,15.087,21.737,12.55l17.378-4.657c9.468-2.537,15.087-12.269,12.55-21.737l-2.277-8.497
					C338.718,252.454,328.986,246.835,319.518,249.372z"/>
				<path style="fill:#3E4E60;" d="M335.371,268.057c2.048,7.644-2.428,15.491-10.024,17.63c-0.062,0.028-0.126,0.045-0.191,0.063
					l-9.708,2.601c-3.849,1.031-7.76,0.409-10.964-1.441c-3.214-1.847-5.706-4.912-6.74-8.771
					c-1.921-7.171,1.902-14.532,8.647-17.181c0.51-0.206,1.038-0.382,1.576-0.526l9.708-2.601c3.859-1.034,7.763-0.398,10.966,1.452
					C331.845,261.132,334.337,264.197,335.371,268.057z"/>
				<path style="fill:#2E3140;" d="M335.371,268.057c2.048,7.644-2.428,15.491-10.024,17.63
					c-8.361-2.564-15.446-9.699-18.036-19.364c-0.481-1.795-0.789-3.591-0.919-5.365c0.51-0.206,1.038-0.382,1.576-0.526
					l9.708-2.601c3.859-1.034,7.763-0.398,10.966,1.452C331.845,261.132,334.337,264.197,335.371,268.057z"/>
				<path style="fill:#FFFFFF;" d="M322.348,263.331l-5.841,1.565c-2.515,0.674-4.008,3.259-3.334,5.774v0
					c0.674,2.515,3.259,4.008,5.774,3.334l5.841-1.565c2.515-0.674,4.008-3.259,3.334-5.774h0
					C327.448,264.15,324.863,262.657,322.348,263.331z"/>
			</g>
			<g>
				<path style="fill:#FFFFFF;" d="M193.2,249.372l17.378,4.657c9.468,2.537,15.087,12.269,12.55,21.737l-2.277,8.497
					c-2.537,9.468-12.269,15.087-21.737,12.55l-17.378-4.657c-9.468-2.537-15.087-12.269-12.55-21.737l2.277-8.497
					C174,252.454,183.732,246.835,193.2,249.372z"/>
				<path style="fill:#3E4E60;" d="M214.973,278.139c-2.048,7.644-9.849,12.202-17.497,10.256c-0.067-0.007-0.132-0.024-0.196-0.041
					l-9.708-2.601c-3.849-1.031-6.925-3.526-8.774-6.73c-1.86-3.206-2.486-7.107-1.452-10.966
					c1.921-7.171,8.913-11.634,16.079-10.555c0.544,0.077,1.09,0.188,1.628,0.333l9.708,2.601c3.859,1.034,6.922,3.537,8.771,6.74
					C215.382,270.378,216.007,274.279,214.973,278.139z"/>
				<path style="fill:#2E3140;" d="M214.973,278.139c-2.048,7.644-9.849,12.202-17.497,10.256
					c-5.959-6.401-8.527-16.123-5.938-25.788c0.481-1.795,1.112-3.504,1.887-5.106c0.544,0.077,1.09,0.188,1.628,0.333l9.708,2.601
					c3.859,1.034,6.922,3.537,8.771,6.74C215.382,270.378,216.007,274.279,214.973,278.139z"/>
				<path style="fill:#FFFFFF;" d="M206.058,267.534l-5.841-1.565c-2.515-0.674-5.1,0.819-5.774,3.334v0
					c-0.674,2.515,0.819,5.1,3.334,5.774l5.841,1.565c2.515,0.674,5.1-0.819,5.774-3.334h0
					C210.065,270.793,208.573,268.208,206.058,267.534z"/>
			</g>
		</g>
	</g>
</g>
</svg>
