<?xml version="1.0" encoding="iso-8859-1"?>
<!-- Generator: Adobe Illustrator 22.0.1, SVG Export Plug-In . SVG Version: 6.00 Build 0)  -->
<svg version="1.1" id="Icons" xmlns="http://www.w3.org/2000/svg" xmlns:xlink="http://www.w3.org/1999/xlink" x="0px" y="0px"
	 viewBox="0 0 512 512" style="enable-background:new 0 0 512 512;" xml:space="preserve">
<g>
	<circle style="fill:#EE6781;" cx="256" cy="256" r="256"/>
	<g>
		<g>
			<g>
				<g>
					<g>
						<path style="fill:#57409B;" d="M360.611,379.175c-4.883,4.877-12.787,4.882-17.666,0c0,0-39.779-39.779-39.779-39.779
							l17.666-17.666l39.779,39.779C365.553,366.422,365.399,374.426,360.611,379.175z"/>
						<path style="fill:#6C53A2;" d="M363.418,374.862c-4.562,1.761-9.759,0.769-13.353-2.808c0,0-39.779-39.779-39.779-39.779
							l10.546-10.546l39.779,39.779C364.226,365.124,365.155,370.397,363.418,374.862z"/>
						<path style="fill:#9175A7;" d="M343.37,365.36l-21.958-21.958c-4.772-5.071,2.371-12.235,7.456-7.456
							c0,0,21.957,21.957,21.957,21.957C355.598,362.975,348.455,370.139,343.37,365.36z"/>
					</g>
					<g>
						<path style="fill:#57409B;" d="M345.881,393.904l-28.86,28.86c-2.441,2.441-6.025,3.052-9.035,1.841
							c-5.43-2.088-7.005-9.586-2.765-13.641c0,0,28.86-28.86,28.86-28.86c1.627-1.627,3.762-2.441,5.897-2.434
							C347.191,379.537,351.182,388.711,345.881,393.904z"/>
						<path style="fill:#6C53A2;" d="M345.881,393.904l-28.86,28.86c-2.441,2.441-6.025,3.052-9.035,1.841
							c-1.211-3.01-0.6-6.594,1.841-9.035l28.86-28.86c2.425-2.418,5.957-3.05,9.029-1.835
							C348.927,387.885,348.322,391.464,345.881,393.904z"/>
						<path style="fill:#9175A7;" d="M314.442,415.642c-1.294-1.294-1.294-3.392,0-4.686l20.02-20.02
							c1.294-1.294,3.392-1.294,4.686,0c1.294,1.294,1.294,3.392,0,4.686l-20.02,20.02
							C317.834,416.936,315.736,416.936,314.442,415.642z"/>
					</g>
					<g>
						<g>
							<path style="fill:#3E4E60;" d="M309.082,489.391c1.34,0,2.426-1.086,2.426-2.426v-14.061h-4.852v14.061
								C306.655,488.305,307.742,489.391,309.082,489.391z"/>
							<path style="fill:#3E4E60;" d="M300.184,489.391c1.34,0,2.426-1.086,2.426-2.426v-14.061h-4.852v14.061
								C297.758,488.305,298.844,489.391,300.184,489.391z"/>
						</g>
						<path style="fill:#57409B;" d="M309.131,475.764c-1.645,0.008-7.155,0.006-8.888,0.006c-2.312,0-4.184-1.872-4.184-4.184
							l0-4.392c0.404-11.323,16.706-11.399,17.152,0c0,0,0,4.392,0,4.392C313.211,473.861,311.395,475.715,309.131,475.764z"/>
						<path style="fill:#57409B;" d="M309.027,458.618c-2.452,0.007-6.305-0.005-8.784,0c-2.312,0-4.184-1.872-4.184-4.184l0-4.392
							c0.403-11.32,16.704-11.396,17.146,0.006c0,0,0,4.392,0,4.392C313.211,456.746,311.34,458.618,309.027,458.618z"/>
						<path style="fill:#57409B;" d="M309.027,441.466c-2.458,0.012-6.304,0.001-8.79,0.006c-2.306-0.006-4.178-1.878-4.178-4.178
							l-0.006-4.398c0.405-11.32,16.709-11.408,17.152,0c0,0,0,4.392,0,4.392C313.205,439.6,311.334,441.472,309.027,441.466z"/>
						<path style="fill:#6C53A2;" d="M306.651,475.774c-2.301-0.009-4.178-1.886-4.178-4.178v-4.403c0-3.599,2.215-6.687,5.372-7.95
							c3.183,1.239,5.385,4.487,5.364,7.95c0,0,0,4.395,0,4.395c-0.006,2.27-1.81,4.122-4.074,4.178c0,0-0.078,0-0.078,0
							L306.651,475.774z"/>
						<path style="fill:#6C53A2;" d="M309.03,458.62h-2.379c-2.301,0-4.178-1.869-4.178-4.178v-4.395
							c0-3.599,2.224-6.687,5.372-7.959c3.168,1.255,5.392,4.492,5.364,7.959c0,0,0,4.395,0,4.395
							C313.21,456.754,311.32,458.621,309.03,458.62z"/>
						<path style="fill:#6C53A2;" d="M306.66,441.474c-2.302-0.015-4.19-1.856-4.187-4.187c0,0,0-4.395,0-4.395
							c0-3.59,2.224-6.678,5.372-7.959c3.164,1.263,5.389,4.496,5.364,7.959c0,0,0,4.395,0,4.395
							c0.001,2.304-1.88,4.181-4.178,4.178L306.66,441.474z"/>
						<g>
							<path style="fill:#9175A7;" d="M310.518,440.531c-2.777,0-5.035-2.258-5.035-5.043c-0.104-3.778,4.338-6.317,7.535-4.369
								c0.335,1.179,0.143,4.904,0.191,6.168C313.173,438.897,312.331,440.76,310.518,440.531z"/>
							<path style="fill:#9175A7;" d="M310.518,457.677c-2.777,0-5.035-2.258-5.035-5.035c-0.104-3.787,4.335-6.325,7.535-4.377
								c0.335,1.179,0.143,4.91,0.191,6.177C313.172,456.066,312.332,457.9,310.518,457.677z"/>
							<path style="fill:#9175A7;" d="M310.518,474.822c-2.777,0-5.035-2.249-5.035-5.035c-0.104-3.778,4.338-6.317,7.535-4.369
								c0.335,1.179,0.143,4.904,0.191,6.168C313.172,473.206,312.331,475.046,310.518,474.822z"/>
						</g>
					</g>
				</g>
				<g>
					<g>
						<path style="fill:#57409B;" d="M151.389,379.175c4.883,4.877,12.787,4.882,17.666,0c0,0,39.779-39.779,39.779-39.779
							l-17.666-17.666l-39.779,39.779C146.447,366.422,146.601,374.426,151.389,379.175z"/>
						<path style="fill:#6C53A2;" d="M148.582,374.862c4.562,1.761,9.759,0.769,13.353-2.808c0,0,39.779-39.779,39.779-39.779
							l-10.546-10.546l-39.779,39.779C147.774,365.124,146.844,370.397,148.582,374.862z"/>
						<path style="fill:#9175A7;" d="M168.63,365.36l21.958-21.958c4.772-5.071-2.371-12.235-7.456-7.456
							c0,0-21.957,21.957-21.957,21.957C156.402,362.975,163.545,370.139,168.63,365.36z"/>
					</g>
					<g>
						<path style="fill:#57409B;" d="M166.119,393.904l28.86,28.86c2.441,2.441,6.025,3.052,9.035,1.841
							c5.43-2.088,7.005-9.586,2.765-13.641c0,0-28.86-28.86-28.86-28.86c-1.627-1.627-3.762-2.441-5.897-2.434
							C164.809,379.537,160.818,388.711,166.119,393.904z"/>
						<path style="fill:#6C53A2;" d="M166.119,393.904l28.86,28.86c2.441,2.441,6.025,3.052,9.035,1.841
							c1.211-3.01,0.6-6.594-1.841-9.035l-28.86-28.86c-2.425-2.418-5.957-3.05-9.029-1.835
							C163.073,387.885,163.678,391.464,166.119,393.904z"/>
						<path style="fill:#9175A7;" d="M197.558,415.642c1.294-1.294,1.294-3.392,0-4.686l-20.02-20.02
							c-1.294-1.294-3.392-1.294-4.686,0c-1.294,1.294-1.294,3.392,0,4.686l20.02,20.02
							C194.166,416.936,196.264,416.936,197.558,415.642z"/>
					</g>
					<g>
						<g>
							<path style="fill:#2E3140;" d="M202.918,489.391c-1.34,0-2.426-1.086-2.426-2.426v-14.061h4.852v14.061
								C205.345,488.305,204.258,489.391,202.918,489.391z"/>
							<path style="fill:#2E3140;" d="M211.816,489.391c-1.34,0-2.426-1.086-2.426-2.426v-14.061h4.852v14.061
								C214.242,488.305,213.156,489.391,211.816,489.391z"/>
						</g>
						<path style="fill:#57409B;" d="M202.869,475.764c1.645,0.008,7.155,0.006,8.888,0.006c2.312,0,4.184-1.872,4.184-4.184
							l0-4.392c-0.404-11.323-16.706-11.399-17.152,0c0,0,0,4.392,0,4.392C198.789,473.861,200.605,475.715,202.869,475.764z"/>
						<path style="fill:#57409B;" d="M202.973,458.618c2.452,0.007,6.305-0.005,8.784,0c2.312,0,4.184-1.872,4.184-4.184l0-4.392
							c-0.403-11.32-16.704-11.396-17.146,0.006c0,0,0,4.392,0,4.392C198.789,456.746,200.661,458.618,202.973,458.618z"/>
						<path style="fill:#57409B;" d="M202.973,441.466c2.458,0.012,6.304,0.001,8.79,0.006c2.306-0.006,4.178-1.878,4.178-4.178
							l0.006-4.398c-0.405-11.32-16.709-11.408-17.152,0c0,0,0,4.392,0,4.392C198.795,439.6,200.666,441.472,202.973,441.466z"/>
						<path style="fill:#6C53A2;" d="M205.349,475.774c2.301-0.009,4.178-1.886,4.178-4.178v-4.403c0-3.599-2.215-6.687-5.372-7.95
							c-3.183,1.239-5.385,4.487-5.364,7.95c0,0,0,4.395,0,4.395c0.006,2.27,1.81,4.122,4.074,4.178c0,0,0.078,0,0.078,0
							L205.349,475.774z"/>
						<path style="fill:#6C53A2;" d="M202.97,458.62h2.379c2.301,0,4.178-1.869,4.178-4.178v-4.395c0-3.599-2.224-6.687-5.372-7.959
							c-3.168,1.255-5.392,4.492-5.364,7.959c0,0,0,4.395,0,4.395C198.79,456.754,200.68,458.621,202.97,458.62z"/>
						<path style="fill:#6C53A2;" d="M205.34,441.474c2.302-0.015,4.19-1.856,4.187-4.187c0,0,0-4.395,0-4.395
							c0-3.59-2.224-6.678-5.372-7.959c-3.164,1.263-5.389,4.496-5.364,7.959c0,0,0,4.395,0,4.395
							c-0.001,2.304,1.88,4.181,4.178,4.178L205.34,441.474z"/>
						<g>
							<path style="fill:#9175A7;" d="M201.482,440.531c2.777,0,5.035-2.258,5.035-5.043c0.104-3.778-4.338-6.317-7.535-4.369
								c-0.335,1.179-0.143,4.904-0.191,6.168C198.827,438.897,199.669,440.76,201.482,440.531z"/>
							<path style="fill:#9175A7;" d="M201.482,457.677c2.777,0,5.035-2.258,5.035-5.035c0.104-3.787-4.334-6.325-7.535-4.377
								c-0.335,1.179-0.143,4.91-0.191,6.177C198.828,456.066,199.668,457.9,201.482,457.677z"/>
							<path style="fill:#9175A7;" d="M201.482,474.822c2.777,0,5.035-2.249,5.035-5.035c0.104-3.778-4.338-6.317-7.535-4.369
								c-0.335,1.179-0.143,4.904-0.191,6.168C198.828,473.206,199.669,475.046,201.482,474.822z"/>
						</g>
					</g>
				</g>
			</g>
			<g>
				<g>
					<g>
						<path style="fill:#57409B;" d="M389.579,249.919c-0.004,6.901-5.59,12.494-12.492,12.492c0,0-56.256,0-56.256,0v-24.983
							h56.256C384.056,237.407,389.607,243.176,389.579,249.919z"/>
						<path style="fill:#6C53A2;" d="M388.515,244.884c-1.98,4.471-6.357,7.444-11.428,7.457c0,0-56.256,0-56.256,0v-14.914h56.256
							C382.2,237.428,386.586,240.499,388.515,244.884z"/>
						<path style="fill:#9175A7;" d="M367.62,252.341h-31.053c-6.96-0.211-6.975-10.328,0-10.544c0,0,31.052,0,31.052,0
							c2.912,0,5.272,2.36,5.272,5.272S370.531,252.341,367.62,252.341z"/>
					</g>
					<g>
						<path style="fill:#57409B;" d="M389.579,270.75v40.814c-0.43,11.093-16.291,11.028-16.687,0c0,0,0-40.814,0-40.814
							c0-2.301,0.934-4.386,2.448-5.891C380.346,259.664,389.655,263.33,389.579,270.75z"/>
						<path style="fill:#6C53A2;" d="M389.579,270.75v40.814c0,3.452-2.102,6.419-5.087,7.691c-2.985-1.272-5.087-4.239-5.087-7.691
							V270.75c0.005-3.425,2.055-6.369,5.087-7.682C387.477,264.34,389.579,267.299,389.579,270.75z"/>
						<path style="fill:#9175A7;" d="M382.719,308.352c-1.83,0-3.313-1.483-3.313-3.313v-28.313c0-1.83,1.483-3.313,3.313-3.313
							c1.83,0,3.313,1.483,3.313,3.313v28.313C386.032,306.868,384.549,308.352,382.719,308.352z"/>
					</g>
					<g>
						<g>
							<path style="fill:#3E4E60;" d="M431.077,364.29c0.947-0.947,0.947-2.484,0-3.431l-9.943-9.943l-3.431,3.431l9.943,9.943
								C428.594,365.238,430.13,365.238,431.077,364.29z"/>
							<path style="fill:#3E4E60;" d="M424.786,370.582c0.948-0.948,0.948-2.484,0-3.431l-9.943-9.943l-3.431,3.431l9.943,9.943
								C422.302,371.53,423.838,371.53,424.786,370.582z"/>
						</g>
						<path style="fill:#57409B;" d="M421.476,354.619c-1.157,1.169-5.055,5.064-6.28,6.289c-1.635,1.635-4.282,1.635-5.917,0
							l-3.106-3.105c-7.732-8.265,3.778-19.886,12.128-12.128c0,0,3.105,3.105,3.105,3.105
							C423.016,350.389,423.042,352.984,421.476,354.619z"/>
						<path style="fill:#57409B;" d="M409.279,342.569c-1.729,1.738-4.462,4.455-6.211,6.211c-1.635,1.635-4.282,1.635-5.917,0
							l-3.106-3.105c-7.73-8.262,3.779-19.882,12.128-12.12c0,0,3.106,3.106,3.106,3.106
							C410.914,338.287,410.914,340.934,409.279,342.569z"/>
						<path style="fill:#57409B;" d="M397.151,330.441c-1.73,1.747-4.457,4.459-6.211,6.22c-1.635,1.626-4.282,1.626-5.908,0
							l-3.114-3.106c-7.729-8.263,3.774-19.893,12.128-12.128c0,0,3.105,3.105,3.105,3.105
							C398.786,326.167,398.786,328.814,397.151,330.441z"/>
						<path style="fill:#6C53A2;" d="M419.73,356.381c-1.633,1.621-4.288,1.621-5.909,0l-3.113-3.114
							c-2.545-2.545-3.162-6.294-1.823-9.42c3.127-1.374,6.98-0.635,9.414,1.829c0,0,3.107,3.107,3.107,3.107
							c1.6,1.609,1.635,4.195,0.073,5.836c0,0-0.055,0.055-0.055,0.055L419.73,356.381z"/>
						<path style="fill:#6C53A2;" d="M409.282,342.569l-1.682,1.682c-1.627,1.627-4.276,1.633-5.909,0l-3.107-3.107
							c-2.545-2.545-3.156-6.301-1.829-9.426c3.127-1.353,6.989-0.636,9.42,1.835c0,0,3.107,3.107,3.107,3.107
							C410.918,338.293,410.903,340.95,409.282,342.569z"/>
						<path style="fill:#6C53A2;" d="M395.482,332.121c-1.639,1.617-4.275,1.65-5.921,0c0,0-3.107-3.107-3.107-3.107
							c-2.539-2.539-3.15-6.295-1.829-9.426c3.13-1.345,6.99-0.631,9.42,1.835c0,0,3.107,3.107,3.107,3.107
							c1.63,1.629,1.627,4.286,0,5.909L395.482,332.121z"/>
						<g>
							<path style="fill:#9175A7;" d="M397.544,328.726c-1.964,1.964-5.157,1.964-7.126-0.006c-2.745-2.598-1.399-7.534,2.239-8.417
								c1.07,0.596,3.569,3.366,4.496,4.227C398.266,325.693,398.987,327.606,397.544,328.726z"/>
							<path style="fill:#9175A7;" d="M409.667,340.85c-1.964,1.964-5.157,1.964-7.12,0c-2.751-2.604-1.408-7.538,2.233-8.423
								c1.07,0.597,3.573,3.371,4.502,4.233C410.406,337.834,411.108,339.725,409.667,340.85z"/>
							<path style="fill:#9175A7;" d="M421.791,352.973c-1.964,1.964-5.151,1.97-7.12,0c-2.745-2.598-1.399-7.534,2.239-8.417
								c1.07,0.597,3.568,3.366,4.496,4.227C422.525,349.954,423.232,351.849,421.791,352.973z"/>
						</g>
					</g>
				</g>
				<g>
					<g>
						<path style="fill:#57409B;" d="M122.421,249.919c0.004,6.901,5.59,12.494,12.492,12.492c0,0,56.256,0,56.256,0v-24.983
							h-56.256C127.944,237.407,122.393,243.176,122.421,249.919z"/>
						<path style="fill:#6C53A2;" d="M123.485,244.884c1.98,4.471,6.357,7.444,11.428,7.457c0,0,56.256,0,56.256,0v-14.914h-56.256
							C129.8,237.428,125.414,240.499,123.485,244.884z"/>
						<path style="fill:#9175A7;" d="M144.38,252.341h31.053c6.96-0.211,6.975-10.328,0-10.544c0,0-31.053,0-31.053,0
							c-2.912,0-5.272,2.36-5.272,5.272C139.108,249.981,141.469,252.341,144.38,252.341z"/>
					</g>
					<g>
						<path style="fill:#57409B;" d="M122.421,270.75v40.814c0.43,11.093,16.291,11.028,16.687,0c0,0,0-40.814,0-40.814
							c0-2.301-0.934-4.386-2.448-5.891C131.654,259.664,122.345,263.33,122.421,270.75z"/>
						<path style="fill:#6C53A2;" d="M122.421,270.75v40.814c0,3.452,2.102,6.419,5.087,7.691c2.985-1.272,5.087-4.239,5.087-7.691
							V270.75c-0.005-3.425-2.055-6.369-5.087-7.682C124.523,264.34,122.421,267.299,122.421,270.75z"/>
						<path style="fill:#9175A7;" d="M129.281,308.352c1.83,0,3.313-1.483,3.313-3.313v-28.313c0-1.83-1.483-3.313-3.313-3.313
							c-1.83,0-3.313,1.483-3.313,3.313v28.313C125.968,306.868,127.451,308.352,129.281,308.352z"/>
					</g>
					<g>
						<g>
							<path style="fill:#2E3140;" d="M80.923,364.29c-0.947-0.947-0.947-2.484,0-3.431l9.943-9.943l3.431,3.431l-9.943,9.943
								C83.406,365.238,81.87,365.238,80.923,364.29z"/>
							<path style="fill:#2E3140;" d="M87.214,370.582c-0.947-0.948-0.947-2.484,0-3.431l9.943-9.943l3.431,3.431l-9.943,9.943
								C89.698,371.53,88.162,371.53,87.214,370.582z"/>
						</g>
						<path style="fill:#57409B;" d="M90.524,354.619c1.157,1.169,5.055,5.064,6.28,6.289c1.635,1.635,4.282,1.635,5.917,0
							l3.106-3.105c7.732-8.265-3.778-19.886-12.128-12.128c0,0-3.105,3.105-3.105,3.105
							C88.984,350.389,88.958,352.984,90.524,354.619z"/>
						<path style="fill:#57409B;" d="M102.721,342.569c1.729,1.738,4.462,4.455,6.211,6.211c1.635,1.635,4.282,1.635,5.917,0
							l3.106-3.105c7.73-8.262-3.779-19.882-12.128-12.12c0,0-3.106,3.106-3.106,3.106
							C101.086,338.287,101.086,340.934,102.721,342.569z"/>
						<path style="fill:#57409B;" d="M114.849,330.441c1.73,1.747,4.457,4.459,6.211,6.22c1.635,1.626,4.282,1.626,5.908,0
							l3.114-3.106c7.729-8.263-3.774-19.893-12.128-12.128c0,0-3.105,3.105-3.105,3.105
							C113.214,326.167,113.214,328.814,114.849,330.441z"/>
						<path style="fill:#6C53A2;" d="M92.27,356.381c1.633,1.621,4.288,1.621,5.909,0l3.114-3.114
							c2.545-2.545,3.162-6.294,1.823-9.42c-3.127-1.374-6.98-0.635-9.414,1.829c0,0-3.107,3.107-3.107,3.107
							c-1.6,1.609-1.635,4.195-0.073,5.836c0,0,0.055,0.055,0.055,0.055L92.27,356.381z"/>
						<path style="fill:#6C53A2;" d="M102.718,342.569l1.682,1.682c1.627,1.627,4.276,1.633,5.909,0l3.107-3.107
							c2.545-2.545,3.156-6.301,1.829-9.426c-3.127-1.353-6.989-0.636-9.42,1.835c0,0-3.107,3.107-3.107,3.107
							C101.082,338.293,101.097,340.95,102.718,342.569z"/>
						<path style="fill:#6C53A2;" d="M116.518,332.121c1.639,1.617,4.275,1.65,5.921,0c0,0,3.107-3.107,3.107-3.107
							c2.539-2.539,3.15-6.295,1.829-9.426c-3.13-1.345-6.99-0.631-9.42,1.835c0,0-3.107,3.107-3.107,3.107
							c-1.63,1.629-1.627,4.286,0,5.909L116.518,332.121z"/>
						<g>
							<path style="fill:#9175A7;" d="M114.456,328.726c1.964,1.964,5.157,1.964,7.126-0.006c2.745-2.598,1.399-7.534-2.239-8.417
								c-1.07,0.596-3.569,3.366-4.496,4.227C113.734,325.693,113.013,327.606,114.456,328.726z"/>
							<path style="fill:#9175A7;" d="M102.333,340.85c1.964,1.964,5.157,1.964,7.12,0c2.751-2.604,1.408-7.538-2.233-8.423
								c-1.071,0.597-3.573,3.371-4.502,4.233C101.594,337.834,100.892,339.725,102.333,340.85z"/>
							<path style="fill:#9175A7;" d="M90.209,352.973c1.964,1.964,5.151,1.97,7.12,0c2.745-2.598,1.399-7.534-2.239-8.417
								c-1.071,0.597-3.568,3.366-4.496,4.227C89.475,349.954,88.768,351.849,90.209,352.973z"/>
						</g>
					</g>
				</g>
			</g>
			<g>
				<g>
					<g>
						<path style="fill:#57409B;" d="M358.259,188.474c-0.004,6.901-5.59,12.494-12.492,12.492h-56.256v-24.983h56.256
							C352.737,175.962,358.288,181.73,358.259,188.474z"/>
						<path style="fill:#6C53A2;" d="M357.195,183.439c-1.98,4.471-6.357,7.444-11.428,7.457c0,0-56.256,0-56.256,0v-14.914h56.256
							C350.88,175.983,355.266,179.053,357.195,183.439z"/>
						<path style="fill:#9175A7;" d="M336.3,190.896h-31.053c-6.96-0.211-6.975-10.328,0-10.544c0,0,31.052,0,31.052,0
							c2.912,0,5.272,2.36,5.272,5.272S339.212,190.896,336.3,190.896z"/>
					</g>
					<g>
						<path style="fill:#57409B;" d="M358.259,126.664v40.814c-0.43,11.093-16.291,11.028-16.687,0c0,0,0-40.814,0-40.814
							c0-2.301,0.934-4.386,2.448-5.891C349.026,115.578,358.335,119.243,358.259,126.664z"/>
						<path style="fill:#6C53A2;" d="M358.259,126.664v40.814c0,3.452-2.102,6.419-5.087,7.691
							c-2.985-1.272-5.087-4.239-5.087-7.691v-40.814c0.005-3.425,2.055-6.369,5.087-7.682
							C356.157,120.254,358.259,123.212,358.259,126.664z"/>
						<path style="fill:#9175A7;" d="M351.399,164.265c-1.83,0-3.313-1.483-3.313-3.313v-28.313c0-1.83,1.483-3.313,3.313-3.313
							c1.83,0,3.313,1.483,3.313,3.313v28.313C354.713,162.782,353.229,164.265,351.399,164.265z"/>
					</g>
					<g>
						<g>
							<path style="fill:#3E4E60;" d="M386.948,65.87c-0.947-0.947-2.484-0.947-3.431,0l-9.943,9.943l3.431,3.431l9.943-9.943
								C387.896,68.353,387.896,66.817,386.948,65.87z"/>
							<path style="fill:#3E4E60;" d="M393.24,72.161c-0.948-0.947-2.484-0.947-3.431,0l-9.943,9.943l3.431,3.431l9.943-9.943
								C394.188,74.645,394.188,73.109,393.24,72.161z"/>
						</g>
						<path style="fill:#57409B;" d="M377.277,75.471c1.169,1.157,5.064,5.055,6.289,6.28c1.635,1.635,1.635,4.282,0,5.917
							l-3.105,3.106c-8.265,7.732-19.886-3.778-12.128-12.128c0,0,3.105-3.105,3.105-3.105
							C373.047,73.931,375.642,73.905,377.277,75.471z"/>
						<path style="fill:#57409B;" d="M365.227,87.668c1.738,1.729,4.455,4.462,6.211,6.211c1.635,1.635,1.635,4.282,0,5.917
							l-3.105,3.106c-8.262,7.73-19.882-3.779-12.12-12.128c0,0,3.106-3.106,3.106-3.106
							C360.945,86.033,363.592,86.033,365.227,87.668z"/>
						<path style="fill:#57409B;" d="M353.099,99.797c1.747,1.73,4.459,4.457,6.22,6.211c1.626,1.635,1.626,4.282,0,5.908
							l-3.106,3.114c-8.263,7.729-19.893-3.774-12.128-12.128c0,0,3.105-3.105,3.105-3.105
							C348.825,98.162,351.472,98.162,353.099,99.797z"/>
						<path style="fill:#6C53A2;" d="M379.039,77.217c1.621,1.633,1.621,4.288,0,5.909l-3.114,3.114
							c-2.545,2.545-6.294,3.162-9.42,1.823c-1.374-3.127-0.635-6.98,1.829-9.414c0,0,3.107-3.107,3.107-3.107
							c1.609-1.6,4.195-1.635,5.836-0.073c0,0,0.055,0.055,0.055,0.055L379.039,77.217z"/>
						<path style="fill:#6C53A2;" d="M365.226,87.665l1.682,1.682c1.627,1.627,1.633,4.276,0,5.909l-3.107,3.107
							c-2.545,2.545-6.301,3.156-9.426,1.829c-1.353-3.127-0.636-6.989,1.835-9.42c0,0,3.107-3.107,3.107-3.107
							C360.951,86.029,363.608,86.044,365.226,87.665z"/>
						<path style="fill:#6C53A2;" d="M354.778,101.465c1.617,1.639,1.65,4.275,0,5.921c0,0-3.107,3.107-3.107,3.107
							c-2.539,2.539-6.295,3.15-9.426,1.829c-1.345-3.13-0.631-6.99,1.835-9.42c0,0,3.107-3.107,3.107-3.107
							c1.629-1.63,4.286-1.627,5.909,0L354.778,101.465z"/>
						<g>
							<path style="fill:#9175A7;" d="M351.384,99.404c1.964,1.964,1.964,5.157-0.006,7.126c-2.598,2.745-7.534,1.399-8.417-2.239
								c0.596-1.07,3.366-3.569,4.227-4.496C348.35,98.682,350.263,97.96,351.384,99.404z"/>
							<path style="fill:#9175A7;" d="M363.507,87.28c1.964,1.964,1.964,5.157,0,7.12c-2.604,2.751-7.538,1.408-8.423-2.233
								c0.597-1.071,3.371-3.573,4.233-4.502C360.492,86.542,362.383,85.839,363.507,87.28z"/>
							<path style="fill:#9175A7;" d="M375.631,75.156c1.964,1.964,1.97,5.151,0,7.12c-2.598,2.745-7.534,1.399-8.417-2.239
								c0.597-1.071,3.366-3.568,4.227-4.496C372.612,74.422,374.507,73.715,375.631,75.156z"/>
						</g>
					</g>
				</g>
				<g>
					<g>
						<path style="fill:#57409B;" d="M153.742,188.474c0.004,6.901,5.59,12.494,12.492,12.492h56.256v-24.983h-56.256
							C159.264,175.962,153.713,181.73,153.742,188.474z"/>
						<path style="fill:#6C53A2;" d="M154.806,183.439c1.98,4.471,6.357,7.444,11.428,7.457c0,0,56.256,0,56.256,0v-14.914h-56.256
							C161.121,175.983,156.735,179.053,154.806,183.439z"/>
						<path style="fill:#9175A7;" d="M175.701,190.896h31.053c6.96-0.211,6.975-10.328,0-10.544c0,0-31.053,0-31.053,0
							c-2.912,0-5.272,2.36-5.272,5.272S172.789,190.896,175.701,190.896z"/>
					</g>
					<g>
						<path style="fill:#57409B;" d="M153.742,126.664v40.814c0.43,11.093,16.291,11.028,16.687,0c0,0,0-40.814,0-40.814
							c0-2.301-0.934-4.386-2.448-5.891C162.974,115.578,153.666,119.243,153.742,126.664z"/>
						<path style="fill:#6C53A2;" d="M153.742,126.664v40.814c0,3.452,2.102,6.419,5.087,7.691c2.985-1.272,5.087-4.239,5.087-7.691
							v-40.814c-0.005-3.425-2.055-6.369-5.087-7.682C155.844,120.254,153.742,123.212,153.742,126.664z"/>
						<path style="fill:#9175A7;" d="M160.601,164.265c1.83,0,3.313-1.483,3.313-3.313v-28.313c0-1.83-1.483-3.313-3.313-3.313
							c-1.83,0-3.313,1.483-3.313,3.313v28.313C157.288,162.782,158.772,164.265,160.601,164.265z"/>
					</g>
					<g>
						<g>
							<path style="fill:#2E3140;" d="M125.052,65.87c0.947-0.947,2.484-0.947,3.431,0l9.943,9.943l-3.431,3.431l-9.943-9.943
								C124.105,68.353,124.105,66.817,125.052,65.87z"/>
							<path style="fill:#2E3140;" d="M118.761,72.161c0.947-0.947,2.484-0.947,3.431,0l9.943,9.943l-3.431,3.431l-9.943-9.943
								C117.813,74.645,117.813,73.109,118.761,72.161z"/>
						</g>
						<path style="fill:#57409B;" d="M134.724,75.471c-1.169,1.157-5.064,5.055-6.289,6.28c-1.635,1.635-1.635,4.282,0,5.917
							l3.105,3.106c8.265,7.732,19.886-3.778,12.128-12.128c0,0-3.105-3.105-3.105-3.105
							C138.954,73.931,136.359,73.905,134.724,75.471z"/>
						<path style="fill:#57409B;" d="M146.774,87.668c-1.738,1.729-4.455,4.462-6.211,6.211c-1.635,1.635-1.635,4.282,0,5.917
							l3.105,3.106c8.262,7.73,19.882-3.779,12.12-12.128c0,0-3.106-3.106-3.106-3.106
							C151.056,86.033,148.409,86.033,146.774,87.668z"/>
						<path style="fill:#57409B;" d="M158.902,99.797c-1.747,1.73-4.458,4.457-6.22,6.211c-1.626,1.635-1.626,4.282,0,5.908
							l3.106,3.114c8.263,7.729,19.893-3.774,12.128-12.128c0,0-3.105-3.105-3.105-3.105
							C163.176,98.162,160.529,98.162,158.902,99.797z"/>
						<path style="fill:#6C53A2;" d="M132.962,77.217c-1.621,1.633-1.621,4.288,0,5.909l3.114,3.114
							c2.545,2.545,6.294,3.162,9.42,1.823c1.374-3.127,0.635-6.98-1.829-9.414c0,0-3.107-3.107-3.107-3.107
							c-1.609-1.6-4.195-1.635-5.836-0.073c0,0-0.055,0.055-0.055,0.055L132.962,77.217z"/>
						<path style="fill:#6C53A2;" d="M146.774,87.665l-1.682,1.682c-1.627,1.627-1.633,4.276,0,5.909l3.107,3.107
							c2.545,2.545,6.301,3.156,9.426,1.829c1.353-3.127,0.636-6.989-1.835-9.42c0,0-3.107-3.107-3.107-3.107
							C151.05,86.029,148.393,86.044,146.774,87.665z"/>
						<path style="fill:#6C53A2;" d="M157.222,101.465c-1.617,1.639-1.65,4.275,0,5.921c0,0,3.107,3.107,3.107,3.107
							c2.539,2.539,6.295,3.15,9.426,1.829c1.345-3.13,0.631-6.99-1.835-9.42c0,0-3.107-3.107-3.107-3.107
							c-1.629-1.63-4.286-1.627-5.909,0L157.222,101.465z"/>
						<g>
							<path style="fill:#9175A7;" d="M160.617,99.404c-1.964,1.964-1.964,5.157,0.006,7.126c2.598,2.745,7.534,1.399,8.417-2.239
								c-0.596-1.07-3.366-3.569-4.227-4.496C163.65,98.682,161.737,97.96,160.617,99.404z"/>
							<path style="fill:#9175A7;" d="M148.493,87.28c-1.964,1.964-1.964,5.157,0,7.12c2.604,2.751,7.538,1.408,8.423-2.233
								c-0.597-1.071-3.371-3.573-4.233-4.502C151.509,86.542,149.618,85.839,148.493,87.28z"/>
							<path style="fill:#9175A7;" d="M136.37,75.156c-1.964,1.964-1.97,5.151,0,7.12c2.598,2.745,7.534,1.399,8.417-2.239
								c-0.597-1.071-3.366-3.568-4.227-4.496C139.389,74.422,137.494,73.715,136.37,75.156z"/>
						</g>
					</g>
				</g>
			</g>
		</g>
		<g>
			<g>
				<g>
					<path style="fill:#F9C744;" d="M320.832,236.145v107.366c0.001,35.802-29.03,64.832-64.832,64.832
						c-35.806,0-64.832-29.026-64.832-64.832V236.145c0-9.641,4.75-18.17,12.042-23.372c4.665-3.368,10.648-5.36,16.658-5.328
						c0,0,72.264,0,72.264,0C307.982,207.445,320.832,220.295,320.832,236.145z"/>
					<path style="fill:#FAD98F;" d="M320.832,236.145v107.366c0.001,35.802-29.03,64.832-64.832,64.832V207.445h36.132
						c0.837,0,1.667,0.037,2.49,0.104C309.254,208.803,320.836,221.096,320.832,236.145z"/>
					<path style="fill:#FAEFDC;" d="M283.507,207.445v170.16c0,3.912-3.172,7.084-7.084,7.084c-3.913,0-7.084-3.172-7.084-7.084
						v-170.16H283.507z"/>
					<path style="fill:#FAEFDC;" d="M308.79,212.773v135.191c0,3.912-3.172,7.084-7.084,7.084c-3.913,0-7.084-3.172-7.084-7.084
						V207.549C299.883,208.001,304.729,209.876,308.79,212.773z"/>
					<path style="fill:#FAD98F;" d="M242.662,207.445v170.16c0,3.912-3.172,7.084-7.084,7.084c-3.913,0-7.084-3.172-7.084-7.084
						v-170.16H242.662z"/>
					<path style="fill:#FAD98F;" d="M217.378,207.549v140.416c0,3.912-3.172,7.084-7.084,7.084c-3.913,0-7.084-3.172-7.084-7.084
						V212.773C207.271,209.876,212.117,208.001,217.378,207.549z"/>
				</g>
				<g>
					<path style="fill:#57409B;" d="M269.338,207.445v24.246c0,7.366-5.973,13.338-13.338,13.338s-13.338-5.973-13.338-13.338
						v-24.246H269.338z"/>
					<path style="fill:#6C53A2;" d="M269.338,207.445v24.246c0,7.366-5.973,13.338-13.338,13.338v-37.585H269.338z"/>
				</g>
			</g>
			<g>
				<g>
					<path style="fill:#57409B;" d="M309.666,169.289v10.051c0,15.526-12.588,28.105-28.106,28.105h-51.121
						c-15.518,0-28.106-12.58-28.106-28.105v-10.051c0-15.518,12.588-28.106,28.106-28.106h51.121
						C297.079,141.183,309.666,153.771,309.666,169.289z"/>
					<path style="fill:#6C53A2;" d="M309.669,169.287v10.052c0.29,23.673-29.168,37.58-46.178,20.614
						c-4.628-4.619-7.491-11.012-7.491-18.071v-15.139c0-5.13,1.514-9.905,4.126-13.91
						C275.117,130.404,309.716,142.825,309.669,169.287z"/>
				</g>
				<path style="fill:#6C53A2;" d="M283.763,152.838h-55.527c-15.341,0.614-15.365,22.521,0,23.146c0,0,55.527,0,55.527,0
					c6.391,0,11.573-5.181,11.573-11.573S290.155,152.838,283.763,152.838z"/>
				<path style="fill:#9175A7;" d="M295.335,164.408c0,6.393-5.182,11.575-11.575,11.575H256v-9.239c0-5.13,1.514-9.905,4.126-13.91
					h23.634C290.149,152.833,295.335,158.019,295.335,164.408z"/>
			</g>
			<g>
				<g>
					<g>
						<path style="fill:#57409B;" d="M281.632,107.451v16.203c0,9.68-7.846,17.527-17.535,17.527h-16.194
							c-9.689,0-17.535-7.846-17.535-17.527v-16.203c0-9.68,7.846-17.526,17.535-17.526h16.194
							C273.786,89.925,281.632,97.771,281.632,107.451z"/>
						<path style="fill:#6C53A2;" d="M281.632,107.451v16.203c0,9.68-7.846,17.527-17.535,17.527c-4.472,0-8.097-3.625-8.097-8.097
							V89.925h8.097C273.786,89.925,281.632,97.771,281.632,107.451z"/>
					</g>
					<g>
						<g>
							<path style="fill:#2E3140;" d="M285.563,103.912c4.481,2.587,6.04,8.285,3.517,12.786c-0.016,0.041-0.037,0.079-0.059,0.117
								l-3.286,5.691c-6.698,10.637-22.22,1.591-16.367-9.45c0,0,3.286-5.691,3.286-5.691
								C275.267,102.848,281.043,101.302,285.563,103.912z"/>
							<path style="fill:#3E4E60;" d="M285.563,103.912c4.481,2.587,6.04,8.285,3.517,12.786c-5.91,3.307-14.654,2.262-20.198-2.67
								c0.178-0.554,3.421-6.016,3.771-6.663C275.267,102.848,281.043,101.302,285.563,103.912z"/>
							<path style="fill:#FFFFFF;" d="M277.357,107.749l-1.977,3.424c-0.851,1.474-0.346,3.36,1.128,4.211
								c1.474,0.851,3.36,0.346,4.211-1.128l1.977-3.424C284.64,107.26,279.479,104.279,277.357,107.749z"/>
						</g>
						<g>
							<path style="fill:#2E3140;" d="M226.437,103.912c-4.481,2.587-6.04,8.285-3.517,12.786c0.016,0.041,0.037,0.079,0.059,0.117
								l3.286,5.691c6.698,10.637,22.22,1.591,16.367-9.45c0,0-3.286-5.691-3.286-5.691
								C236.733,102.848,230.957,101.302,226.437,103.912z"/>
							<path style="fill:#3E4E60;" d="M226.437,103.912c-4.481,2.587-6.04,8.285-3.517,12.786c5.91,3.307,14.654,2.262,20.198-2.67
								c-0.178-0.554-3.421-6.016-3.771-6.663C236.733,102.848,230.957,101.302,226.437,103.912z"/>
							<path style="fill:#FFFFFF;" d="M234.643,107.749l1.977,3.424c0.851,1.474,0.346,3.36-1.128,4.211s-3.36,0.346-4.211-1.128
								l-1.977-3.424C227.36,107.26,232.521,104.279,234.643,107.749z"/>
						</g>
					</g>
				</g>
				<g>
					<g>
						<path style="fill:#6C53A2;" d="M322.935,57.76c0,3.31-1.48,6.6-4.37,8.77l-44.99,33.86c-1.2,0.9-2.88,0.79-3.94-0.28
							c-1.07-1.06-1.18-2.74-0.28-3.94c2.549-3.374,30.496-40.536,33.86-44.99C309.621,42.732,322.975,47.473,322.935,57.76z"/>
						<path style="fill:#9175A7;" d="M317.055,51.9c0,3.3-1.48,6.59-4.37,8.76l-23.115,17.394c-2.483,1.868-5.625-1.274-3.756-3.757
							l17.401-23.117C306.472,46.319,316.53,44.287,317.055,51.9z"/>
					</g>
					<g>
						<path style="fill:#57409B;" d="M189.065,57.76c0,3.31,1.48,6.6,4.37,8.77l44.99,33.86c1.2,0.9,2.88,0.79,3.94-0.28
							c1.07-1.06,1.18-2.74,0.28-3.94c-2.549-3.374-30.496-40.536-33.86-44.99C202.379,42.732,189.025,47.473,189.065,57.76z"/>
						<path style="fill:#6C53A2;" d="M194.945,51.9c0,3.3,1.48,6.59,4.37,8.76l23.115,17.394c2.483,1.868,5.625-1.274,3.756-3.757
							L208.786,51.18C205.528,46.319,195.47,44.287,194.945,51.9z"/>
					</g>
				</g>
				<g>
					<path style="fill:#3E4E60;" d="M263.729,92.777l8.435-8.435c1.077-1.077,1.077-2.823,0-3.901l-2.724-2.724
						c-1.077-1.077-2.823-1.077-3.901,0l-2.932,2.932c-1.077,1.077-1.077,2.823,0,3.901c1.077,1.077,1.077,2.823,0,3.901
						l-1.603,1.603C259.247,91.869,261.908,94.539,263.729,92.777z"/>
					<path style="fill:#2E3140;" d="M250.99,92.78c-0.742,0.75-1.977,0.749-2.72,0c0,0-8.43-8.44-8.43-8.44
						c-0.94-0.94-1.06-2.38-0.36-3.45c0.105-0.273,2.827-2.891,3.08-3.17c1.08-1.08,2.82-1.08,3.9,0l2.93,2.93
						c1.08,1.08,1.08,2.82,0,3.9c-0.54,0.54-0.81,1.25-0.81,1.95c-0.136,1.397,1.556,2.644,2.41,3.55
						C251.75,90.81,251.75,92.02,250.99,92.78z"/>
				</g>
			</g>
		</g>
	</g>
</g>
</svg>
