<?xml version="1.0" encoding="iso-8859-1"?>
<!-- Generator: Adobe Illustrator 22.0.1, SVG Export Plug-In . SVG Version: 6.00 Build 0)  -->
<svg version="1.1" id="Icons" xmlns="http://www.w3.org/2000/svg" xmlns:xlink="http://www.w3.org/1999/xlink" x="0px" y="0px"
	 viewBox="0 0 512 512" style="enable-background:new 0 0 512 512;" xml:space="preserve">
<g>
	<circle style="fill:#6C53A2;" cx="256" cy="256" r="256"/>
	<g>
		<g>
			<path style="fill:#EA792E;" d="M434.726,125.555l-19.461-29.093c-13.049-19.491-40.652-22.2-57.238-5.614l-40.535,40.535
				c-4.541-0.681-9.189-1.037-13.921-1.037h-95.143c-4.731,0-9.379,0.356-13.921,1.037l-40.535-40.535
				c-16.586-16.586-44.189-13.877-57.238,5.614l-19.461,29.093c-9.881,14.757-7.954,34.444,4.606,47.003l34.855,34.856
				c-0.901,5.199-1.375,10.544-1.375,16.001v95.143c0,51.403,41.665,93.068,93.068,93.068h95.143
				c51.403,0,93.068-41.665,93.068-93.068v-95.143c0-5.457-0.474-10.802-1.375-16.001l34.856-34.856
				C442.681,159.998,444.607,140.312,434.726,125.555z"/>
			<path style="fill:#F39E22;" d="M430.121,172.561l-34.854,34.854c0.894,5.194,1.373,10.547,1.373,15.996v95.143
				c0,51.403-41.665,93.068-93.068,93.068H256v-281.28h47.572c4.736,0,9.376,0.362,13.92,1.043l40.537-40.537
				c16.581-16.592,44.188-13.878,57.235,5.609l19.465,29.097C444.606,140.314,442.679,160.003,430.121,172.561z"/>
		</g>
		<g>
			<path style="fill:#F9C744;" d="M340.864,323.901v40.513c0,7.802,8.199,12.885,15.187,9.416l14.754-7.325
				c3.147-1.562,5.306-4.594,5.752-8.079l5.239-40.875c1.012-7.893-6.772-14.004-14.2-11.148l-19.993,7.687
				C343.543,315.65,340.864,319.551,340.864,323.901z"/>
			<path style="fill:#F39E22;" d="M171.136,323.901v40.513c0,7.802-8.199,12.885-15.187,9.416l-14.754-7.325
				c-3.147-1.562-5.306-4.594-5.752-8.079l-5.239-40.875c-1.012-7.893,6.772-14.004,14.2-11.148l19.993,7.687
				C168.457,315.65,171.136,319.551,171.136,323.901z"/>
		</g>
		<g>
			<g>
				<path style="fill:#3E4E60;" d="M366.157,335.743l-13.757,6.273c-6.644,3.03-14.485,0.1-17.515-6.544l-2.232-4.895
					c-3.03-6.644-0.1-14.485,6.544-17.515l13.757-6.273c6.644-3.03,14.485-0.1,17.515,6.544l2.232,4.895
					C375.73,324.872,372.8,332.713,366.157,335.743z"/>
				<path style="fill:#3E4E60;" d="M396.64,265.683v34.939l-1.415,0.649c-6.652,3.023-14.495,0.096-17.518-6.545l-2.235-4.896
					c-3.033-6.652-0.096-14.484,6.545-17.517l13.75-6.268C396.055,265.917,396.342,265.789,396.64,265.683z"/>
				<path style="fill:#3E4E60;" d="M381.632,235.031l-13.757,6.273c-6.644,3.03-14.485,0.1-17.515-6.544l-2.232-4.895
					c-3.03-6.644-0.1-14.485,6.544-17.515l13.757-6.273c6.644-3.03,14.485-0.1,17.515,6.544l2.232,4.895
					C391.206,224.16,388.276,232.001,381.632,235.031z"/>
				<path style="fill:#3E4E60;" d="M322.686,179.012l-13.757,6.273c-6.644,3.03-14.485,0.1-17.515-6.544l-2.232-4.895
					c-3.03-6.644-0.1-14.485,6.544-17.515l13.757-6.273c6.644-3.03,14.485-0.1,17.515,6.544l2.232,4.895
					C332.259,168.14,329.329,175.982,322.686,179.012z"/>
			</g>
			<g>
				<path style="fill:#2E3140;" d="M145.843,335.743l13.757,6.273c6.644,3.03,14.485,0.1,17.515-6.544l2.232-4.895
					c3.03-6.644,0.1-14.485-6.544-17.515l-13.757-6.273c-6.644-3.03-14.485-0.1-17.515,6.544l-2.232,4.895
					C136.27,324.872,139.199,332.713,145.843,335.743z"/>
				<path style="fill:#2E3140;" d="M115.36,265.683v34.939l1.415,0.649c6.652,3.023,14.495,0.096,17.518-6.545l2.235-4.896
					c3.033-6.652,0.096-14.484-6.545-17.517l-13.75-6.268C115.945,265.917,115.658,265.789,115.36,265.683z"/>
				<path style="fill:#2E3140;" d="M130.368,235.031l13.757,6.273c6.644,3.03,14.485,0.1,17.515-6.544l2.232-4.895
					c3.03-6.644,0.1-14.485-6.544-17.515l-13.757-6.273c-6.644-3.03-14.485-0.1-17.515,6.544l-2.232,4.895
					C120.794,224.16,123.724,232.001,130.368,235.031z"/>
				<path style="fill:#2E3140;" d="M189.314,179.012l13.757,6.273c6.644,3.03,14.485,0.1,17.515-6.544l2.232-4.895
					c3.03-6.644,0.1-14.485-6.544-17.515l-13.757-6.273c-6.644-3.03-14.485-0.1-17.515,6.544l-2.232,4.895
					C179.741,168.14,182.67,175.982,189.314,179.012z"/>
			</g>
		</g>
		<g>
			<g>
				<path style="fill:#F39E22;" d="M322.388,336.831v73.901c0,24.265-19.678,43.943-43.943,43.943h-44.89
					c-24.265,0-43.943-19.678-43.943-43.953v-73.891c0-14.346,6.875-27.085,17.507-35.109c7.184-5.406,11.558-13.75,11.558-22.743
					v-17.23c0-10.313,8.354-18.678,18.667-18.678h37.313c10.312,0,18.667,8.365,18.667,18.678v17.23
					c0,8.993,4.374,17.337,11.558,22.743C315.513,309.746,322.388,322.485,322.388,336.831z"/>
				<path style="fill:#F9C744;" d="M322.388,336.831v73.901c0,24.265-19.678,43.943-43.943,43.943H256V243.071h18.656
					c10.312,0,18.667,8.365,18.667,18.678v17.23c0,8.993,4.374,17.337,11.558,22.743
					C315.513,309.746,322.388,322.485,322.388,336.831z"/>
			</g>
			<path style="fill:#DD5E26;" d="M324.028,407.381c-1.842-0.905-4.075-0.143-4.983,1.699c-0.097,0.196-9.879,19.652-26.331,19.652
				c-12.971-0.301-27.502,1.462-31.717-9.069c8.731-2.085,15.278-10.507,15.15-19.498c-0.211-3.819,2.831-7.102,6.672-7.089
				c0,0,4.193,0,4.193,0c2.939,0,5.321-2.383,5.321-5.321s-2.382-5.321-5.321-5.321h-4.193c-9.547,0-17.315,7.767-17.315,17.315
				c0.219,4.203-2.635,8.298-6.671,9.486c-1.332-1.746-4.336-1.745-5.667,0.001c-3.88-1.228-6.665-5.069-6.665-9.486
				c0-9.548-7.768-17.315-17.315-17.315h-4.193c-2.939,0-5.321,2.383-5.321,5.321s2.382,5.321,5.321,5.321h4.193
				c3.679,0,6.672,2.993,6.672,6.672c0,9.46,6.382,17.682,15.139,19.931c-4.208,10.504-18.748,8.751-31.71,9.053
				c-16.452,0-26.234-19.456-26.331-19.653c-0.904-1.843-3.133-2.609-4.979-1.705c-1.848,0.904-2.614,3.135-1.711,4.982
				c0.633,1.82,13.762,25.569,35.28,23.828c13.548-0.038,27.566,0.325,34.454-10.028c7.169,10.932,22.917,9.96,36.713,10.025
				c21.13,0,32.545-22.852,33.021-23.824C326.636,410.512,325.872,408.287,324.028,407.381z"/>
			<g>
				<g>
					<g>
						<path style="fill:#EBD9EA;" d="M395.081,413.089c-0.234-0.49-5.8-12.079-21.445-19.55c-7.535-3.597-15.953-5.64-25.233-6.13
							c-15.836-0.83-34.173,2.863-54.809,11.058c-1.905,0.766-2.842,2.927-2.086,4.842c0.766,1.905,2.927,2.842,4.842,2.086
							c20.135-8.003,38.228-11.473,53.425-10.344c7.45,0.553,14.208,2.214,20.167,4.981c13.473,6.258,18.358,16.134,18.39,16.219
							c0.639,1.352,1.979,2.15,3.374,2.15c0.532,0,1.075-0.117,1.586-0.351C395.155,417.165,395.954,414.952,395.081,413.089z"/>
						<path style="fill:#FFFFFF;" d="M395.081,413.089c0.873,1.862,0.074,4.076-1.788,4.959c-0.511,0.234-1.054,0.351-1.586,0.351
							c-1.394,0-2.735-0.798-3.374-2.15c-0.032-0.085-4.917-9.961-18.39-16.219c-5.96-2.767-12.718-4.427-20.167-4.981
							c-0.564-2.512-1.032-5.055-1.373-7.641c9.28,0.49,17.698,2.533,25.233,6.13C389.281,401.01,394.847,412.6,395.081,413.089z"/>
					</g>
					<g>
						<path style="fill:#EBD9EA;" d="M412.645,367.438c-0.349-0.415-8.638-10.244-25.654-13.562
							c-8.195-1.597-16.857-1.469-25.964,0.379c-15.54,3.159-32.369,11.323-50.298,24.42c-1.653,1.219-2.019,3.545-0.808,5.21
							c1.219,1.653,3.545,2.019,5.21,0.808c17.492-12.787,34.141-20.673,49.137-23.384c7.351-1.328,14.31-1.412,20.772-0.224
							c14.611,2.687,21.811,11.027,21.864,11.101c0.956,1.149,2.454,1.586,3.804,1.237c0.515-0.133,1.011-0.382,1.447-0.737
							C413.737,371.366,413.956,369.023,412.645,367.438z"/>
						<path style="fill:#FFFFFF;" d="M412.645,367.438c1.311,1.585,1.092,3.928-0.49,5.249c-0.436,0.354-0.932,0.604-1.447,0.737
							c-1.35,0.349-2.848-0.088-3.804-1.237c-0.052-0.074-7.253-8.414-21.864-11.101c-6.463-1.188-13.421-1.104-20.772,0.224
							c-1.175-2.291-2.264-4.636-3.241-7.055c9.108-1.848,17.769-1.976,25.964-0.379
							C404.007,357.195,412.296,367.023,412.645,367.438z"/>
					</g>
				</g>
				<g>
					<g>
						<path style="fill:#EBD9EA;" d="M118.707,418.049c0.511,0.234,1.054,0.351,1.586,0.351c1.394,0,2.735-0.798,3.374-2.15
							c0.032-0.085,4.917-9.961,18.39-16.219c5.96-2.767,12.718-4.427,20.167-4.981c15.197-1.128,33.29,2.341,53.425,10.344
							c1.916,0.756,4.076-0.181,4.842-2.086c0.756-1.916-0.181-4.076-2.086-4.842c-20.636-8.195-38.973-11.888-54.809-11.058
							c-9.28,0.49-17.698,2.533-25.233,6.13c-15.644,7.471-21.21,19.061-21.445,19.55
							C116.046,414.952,116.845,417.165,118.707,418.049z"/>
						<path style="fill:#FFFFFF;" d="M116.919,413.089c-0.873,1.862-0.074,4.076,1.788,4.959c0.511,0.234,1.054,0.351,1.586,0.351
							c1.394,0,2.735-0.798,3.374-2.15c0.032-0.085,4.917-9.961,18.39-16.219c5.96-2.767,12.718-4.427,20.167-4.981
							c0.564-2.512,1.032-5.055,1.373-7.641c-9.28,0.49-17.698,2.533-25.233,6.13C122.719,401.01,117.153,412.6,116.919,413.089z"/>
					</g>
					<g>
						<path style="fill:#EBD9EA;" d="M99.845,372.687c0.436,0.354,0.932,0.604,1.447,0.737c1.35,0.349,2.848-0.088,3.804-1.237
							c0.052-0.074,7.253-8.414,21.864-11.101c6.463-1.188,13.421-1.104,20.772,0.224c14.996,2.711,31.645,10.597,49.137,23.384
							c1.666,1.211,3.992,0.845,5.21-0.808c1.211-1.666,0.845-3.992-0.808-5.21c-17.929-13.098-34.758-21.262-50.298-24.42
							c-9.108-1.848-17.769-1.976-25.964-0.379c-17.016,3.319-25.305,13.147-25.654,13.562
							C98.044,369.023,98.263,371.366,99.845,372.687z"/>
						<path style="fill:#FFFFFF;" d="M99.355,367.438c-1.311,1.585-1.092,3.928,0.49,5.249c0.436,0.354,0.932,0.604,1.447,0.737
							c1.35,0.349,2.848-0.088,3.804-1.237c0.052-0.074,7.253-8.414,21.864-11.101c6.463-1.188,13.421-1.104,20.772,0.224
							c1.175-2.291,2.264-4.636,3.241-7.055c-9.108-1.848-17.769-1.976-25.964-0.379C107.993,357.195,99.704,367.023,99.355,367.438
							z"/>
					</g>
				</g>
			</g>
			<g>
				<g>
					<path style="fill:#C0405C;" d="M241.179,396.556L241.179,396.556c0,7.404,5.255,14.001,12.58,15.075
						c9.182,1.346,17.066-5.735,17.066-14.658v-0.417c0-6.624,5.37-11.993,11.993-11.993h4.193c8.187,0,14.823-6.637,14.823-14.823
						v0c0-8.187-6.637-14.823-14.823-14.823h-62.019c-8.187,0-14.823,6.637-14.823,14.823l0,0c0,8.187,6.637,14.823,14.823,14.823
						h4.193C235.81,384.563,241.18,389.932,241.179,396.556z"/>
				</g>
				<g>
					<path style="fill:#E9465E;" d="M279.975,375.22h-34.947c-5.607,0-10.152-4.545-10.152-10.152v0
						c0-5.607,4.545-10.152,10.152-10.152h34.947c5.607,0,10.152,4.545,10.152,10.152v0
						C290.127,370.675,285.581,375.22,279.975,375.22z"/>
				</g>
			</g>
			<g>
				<path style="fill:#F39E22;" d="M287.012,320.783v34.13H256V289.77C273.124,289.77,287.012,303.659,287.012,320.783z"/>
				<path style="fill:#EA792E;" d="M224.99,320.783v34.13h31.012V289.77C238.879,289.77,224.99,303.659,224.99,320.783z"/>
			</g>
		</g>
		<g>
			<g>
				<g>
					<path style="fill:#53B976;" d="M368.885,267.133c-2.558-14.509-31.703-21.498-46.212-18.94
						c-14.509,2.558-24.198,16.395-21.639,30.904c2.558,14.509,16.395,24.198,30.904,21.639
						C346.447,298.178,371.443,281.642,368.885,267.133z"/>
				</g>
				<g>
					<path style="fill:#3E4E60;" d="M338.509,260.515l4.095,23.225c0.48,2.725-0.194,5.394-1.66,7.501
						c-4.967,7.241-16.628,4.758-18.107-4.016c0,0-4.095-23.225-4.095-23.225C316.92,250.863,335.662,247.453,338.509,260.515z"/>
				</g>
				<g>
					<path style="fill:#2E3140;" d="M338.509,260.515l4.095,23.225c0.485,2.782-0.212,5.515-1.765,7.638
						c-4.633-0.166-8.675-3.539-9.512-8.286l-4.095-23.225c-0.492-2.788,0.226-5.519,1.776-7.64
						C333.63,252.395,337.672,255.767,338.509,260.515z"/>
				</g>
				<g>
					<path style="fill:#FFFFFF;" d="M352.531,263.208c-0.912-5.174-5.846-8.628-11.02-7.716c-12.337,2.67-9.198,20.448,3.304,18.736
						C349.988,273.315,353.443,268.382,352.531,263.208z"/>
				</g>
			</g>
			<g>
				<g>
					<path style="fill:#53B976;" d="M143.115,267.133c2.558-14.509,31.703-21.498,46.212-18.94
						c14.509,2.558,24.198,16.395,21.639,30.904c-2.558,14.509-16.395,24.198-30.904,21.639S140.557,281.642,143.115,267.133z"/>
				</g>
				<g>
					<path style="fill:#3E4E60;" d="M193.257,264l-4.095,23.225c-0.48,2.725-2.028,5.003-4.125,6.481
						c-7.144,5.105-17.252-1.216-15.641-9.966c0,0,4.095-23.225,4.095-23.225C176.271,247.547,195.049,250.752,193.257,264z"/>
				</g>
				<g>
					<path style="fill:#2E3140;" d="M193.257,264l-4.095,23.225c-0.496,2.78-2.085,5.11-4.271,6.574
						c-4.297-1.741-6.941-6.292-6.104-11.04l4.095-23.225c0.492-2.788,2.1-5.109,4.282-6.572
						C191.45,254.701,194.095,259.253,193.257,264z"/>
				</g>
				<g>
					<path style="fill:#FFFFFF;" d="M185.814,267.853c0.912-5.174,5.846-8.628,11.02-7.716c12.337,2.67,9.198,20.448-3.304,18.736
						C188.356,277.961,184.902,273.027,185.814,267.853z"/>
				</g>
			</g>
		</g>
		<g>
			<path style="fill:#EA792E;" d="M314.814,193.546h-10.982c-9.143,0-16.555,7.412-16.555,16.555v14.722
				c0,9.143,7.412,16.555,16.555,16.555h10.982c9.143,0,16.555-7.412,16.555-16.555v-14.722
				C331.369,200.958,323.957,193.546,314.814,193.546z"/>
			<path style="fill:#DD5E26;" d="M208.168,193.546h-10.982c-9.143,0-16.555,7.412-16.555,16.555v14.722
				c0,9.143,7.412,16.555,16.555,16.555h10.982c9.143,0,16.555-7.412,16.555-16.555v-14.722
				C224.724,200.958,217.312,193.546,208.168,193.546z"/>
		</g>
		<g>
			<path style="fill:#F9C744;" d="M279.315,159.156v41.221c0,12.876-10.438,23.314-23.314,23.314l0,0v-87.85
				C268.874,135.841,279.315,146.282,279.315,159.156z"/>
			<path style="fill:#F39E22;" d="M232.688,159.156v41.221c0,12.876,10.438,23.314,23.314,23.314h0v-87.85
				C243.129,135.841,232.688,146.282,232.688,159.156z"/>
		</g>
		<g>
			<g>
				<path style="fill:#3E4E60;" d="M430.121,172.558l-13.922,13.922c-9.422-6.035-18.595-13.373-27.159-21.937
					c-20.032-20.032-33.33-43.354-39.064-65.644l8.052-8.052c16.586-16.586,44.189-13.877,57.238,5.614l19.461,29.093
					C444.607,140.312,442.681,159.998,430.121,172.558z"/>
				<path style="fill:#EA792E;" d="M367.031,189.578l-30.835-30.835c-4.664-4.664-4.664-12.226,0-16.889l19.396-19.396
					c10.293-10.293,27.426-8.611,35.522,3.487l12.079,18.052c6.13,9.161,4.931,21.377-2.863,29.172l-16.41,16.41
					C379.257,194.242,371.695,194.242,367.031,189.578z"/>
			</g>
			<g>
				<path style="fill:#2E3140;" d="M81.879,172.558l13.922,13.922c9.422-6.035,18.595-13.373,27.159-21.937
					c20.032-20.032,33.33-43.354,39.064-65.644l-8.052-8.052c-16.586-16.586-44.189-13.877-57.238,5.614l-19.461,29.093
					C67.393,140.312,69.319,159.998,81.879,172.558z"/>
				<path style="fill:#DD5E26;" d="M144.969,189.578l30.835-30.835c4.664-4.664,4.664-12.226,0-16.889l-19.396-19.396
					c-10.293-10.293-27.426-8.611-35.522,3.487l-12.08,18.052c-6.13,9.161-4.931,21.377,2.863,29.172l16.41,16.41
					C132.743,194.242,140.305,194.242,144.969,189.578z"/>
			</g>
		</g>
	</g>
</g>
</svg>
