<?xml version="1.0" encoding="iso-8859-1"?>
<!-- Generator: Adobe Illustrator 22.0.1, SVG Export Plug-In . SVG Version: 6.00 Build 0)  -->
<svg version="1.1" id="Icons" xmlns="http://www.w3.org/2000/svg" xmlns:xlink="http://www.w3.org/1999/xlink" x="0px" y="0px"
	 viewBox="0 0 512 512" style="enable-background:new 0 0 512 512;" xml:space="preserve">
<g>
	<circle style="fill:#6C53A2;" cx="256" cy="256" r="256"/>
	<g>
		<g>
			<g>
				<g>
					<path style="fill:#F4829B;" d="M173.278,37.96v156.8c0,8.348,1.581,16.485,4.521,23.268l18.672,43.081l4.64-5.1l44.009-48.412
						l-11.015-76.175c-1.467-8.812-4.146-16.935-7.834-23.739l-41.654-76.948c-2.193-4.015-5.846-4.715-8.533-1.634
						c-0.874,1.015-1.58,2.346-2.059,3.863c-0.106,0.315-0.197,0.654-0.275,0.98C173.441,35.206,173.278,36.56,173.278,37.96z"/>
					<path style="fill:#D48D77;" d="M245.12,207.6l-44.01,48.41l-4.83-20.83c-0.81-3.52-1.49-7.09-2.02-10.71
						c-2.38-16.08-2.01-33,1.14-48.86c1.43-7.22,2.28-15.75,2.56-24.67c0.58-18.06-1.17-37.76-5.2-51.61l-19.01-65.38
						c0.08-0.33,0.17-0.67,0.28-0.98c0.48-1.52,1.18-2.85,2.05-3.87c2.69-3.08,6.34-2.38,8.54,1.64l21.24,39.229l20.41,37.71
						c3.69,6.81,6.37,14.93,7.84,23.74l4.01,27.72L245.12,207.6z"/>
					<path style="fill:#EEA47D;" d="M212.5,125.61c0,9.27-0.52,19.1-1.52,28.99c-2.61,25.82-8.46,52.08-16.72,69.87
						c-2.38-16.08-2.01-33,1.14-48.86c1.43-7.22,2.28-15.75,2.56-24.67c0.58-18.06-1.17-37.76-5.2-51.61l-19.01-65.38
						c0.08-0.33,0.17-0.67,0.28-0.98c0.48-1.52,1.18-2.85,2.05-3.87c2.69-3.08,6.34-2.38,8.54,1.64l21.24,39.229
						C210.14,87.12,212.5,105.91,212.5,125.61z"/>
				</g>
				<g>
					<path style="fill:#2E3140;" d="M197.96,150.94c0.58-18.06-1.17-37.76-5.2-51.61l-19.01-65.38c0.08-0.33,0.17-0.67,0.28-0.98
						c0.48-1.52,1.18-2.85,2.05-3.87c2.69-3.08,6.34-2.38,8.54,1.64l21.24,39.229l20.41,37.71c3.69,6.81,6.37,14.93,7.84,23.74
						l4.01,27.72C224.25,157.84,210.8,155.06,197.96,150.94z"/>
					<path style="fill:#334353;" d="M212.5,125.61c0,9.27-0.52,19.1-1.52,28.99c-4.4-1.07-8.75-2.29-13.02-3.66
						c0.58-18.06-1.17-37.76-5.2-51.61l-19.01-65.38c0.08-0.33,0.17-0.67,0.28-0.98c0.48-1.52,1.18-2.85,2.05-3.87
						c2.69-3.08,6.34-2.38,8.54,1.64l21.24,39.229C210.14,87.12,212.5,105.91,212.5,125.61z"/>
				</g>
			</g>
			<g>
				<g>
					<path style="fill:#FF9FB4;" d="M338.714,37.96v156.8c0,8.348-1.581,16.485-4.521,23.268l-18.672,43.081l-4.64-5.1
						l-44.009-48.412l11.015-76.175c1.467-8.812,4.146-16.935,7.834-23.739l41.654-76.948c2.193-4.015,5.846-4.715,8.533-1.634
						c0.874,1.015,1.58,2.346,2.059,3.863c0.106,0.315,0.197,0.654,0.275,0.98C338.552,35.206,338.714,36.56,338.714,37.96z"/>
					<path style="fill:#EEA47D;" d="M316.59,175.61c3.16,15.86,3.52,32.78,1.14,48.86c-0.53,3.62-1.21,7.19-2.02,10.71l-4.83,20.83
						l-44.01-48.41l7.01-48.46l4.01-27.72c1.46-8.81,4.14-16.93,7.83-23.74l20.42-37.71l21.24-39.229
						c2.19-4.021,5.84-4.72,8.53-1.64c0.87,1.02,1.58,2.35,2.06,3.87c0.1,0.31,0.19,0.65,0.27,0.98l-19.01,65.38
						c-4.02,13.85-5.78,33.55-5.2,51.61C314.31,159.87,315.16,168.39,316.59,175.61z"/>
					<path style="fill:#F5B890;" d="M316.59,175.61c3.16,15.86,3.52,32.78,1.14,48.86c-8.26-17.79-14.11-44.05-16.71-69.87
						c-1.01-9.89-1.53-19.72-1.53-28.99c0-19.7,2.37-38.49,6.65-55.64l21.24-39.229c2.19-4.021,5.84-4.72,8.53-1.64
						c0.87,1.02,1.58,2.35,2.06,3.87c0.1,0.31,0.19,0.65,0.27,0.98l-19.01,65.38c-4.02,13.85-5.78,33.55-5.2,51.61
						C314.31,159.87,315.16,168.39,316.59,175.61z"/>
				</g>
				<g>
					<path style="fill:#334353;" d="M319.23,99.33c-4.02,13.85-5.78,33.55-5.2,51.61c-12.84,4.12-26.28,6.9-40.15,8.2l4.01-27.72
						c1.46-8.81,4.14-16.93,7.83-23.74l20.42-37.71l21.24-39.229c2.19-4.021,5.84-4.72,8.53-1.64c0.87,1.02,1.58,2.35,2.06,3.87
						c0.1,0.31,0.19,0.65,0.27,0.98L319.23,99.33z"/>
					<path style="fill:#3E4E60;" d="M319.23,99.33c-4.02,13.85-5.78,33.55-5.2,51.61c-4.27,1.37-8.61,2.59-13.01,3.66
						c-1.01-9.89-1.53-19.72-1.53-28.99c0-19.7,2.37-38.49,6.65-55.64l21.24-39.229c2.19-4.021,5.84-4.72,8.53-1.64
						c0.87,1.02,1.58,2.35,2.06,3.87c0.1,0.31,0.19,0.65,0.27,0.98L319.23,99.33z"/>
				</g>
			</g>
		</g>
		<g>
			<g>
				<path style="fill:#A26D5A;" d="M357.979,341.092v18.807c0,46.993-43.567,85.092-97.305,85.092h-9.349
					c-53.747,0-97.314-38.099-97.314-85.092v-18.807c0-46.993,43.567-93.982,97.314-93.982h9.349
					C314.412,247.11,357.979,294.099,357.979,341.092z"/>
				<path style="fill:#C17E62;" d="M357.979,341.092v18.807c0,46.993-43.567,85.092-97.305,85.092H256V247.11h4.675
					C314.412,247.11,357.979,294.099,357.979,341.092z"/>
			</g>
			<g>
				<path style="fill:#C17E62;" d="M277.335,450.74h-42.669c-27.707,0-48.834-28.63-44.447-60.22l2.658-19.15l2.954-21.3
					c2.217-15.94,2.217-32.2,0-48.14l-4.187-30.21c-5.139-36.96,19.59-70.46,52.012-70.46h24.689c32.422,0,57.152,33.5,52.012,70.46
					l-4.187,30.21c-2.217,15.94-2.217,32.2,0,48.14l2.954,21.3l2.658,19.15C326.169,422.11,305.042,450.74,277.335,450.74z"/>
				<path style="fill:#D48D77;" d="M277.335,450.74H256V201.26h12.345c32.422,0,57.152,33.5,52.012,70.46l-4.187,30.21
					c-2.217,15.94-2.217,32.2,0,48.14l2.954,21.3l2.658,19.15C326.169,422.11,305.042,450.74,277.335,450.74z"/>
			</g>
			<g>
				<g>
					<path style="fill:#3E4E60;" d="M320.58,307.358c9.733,1.716,16.254,10.926,14.666,20.653c-0.001,0.085-0.015,0.167-0.03,0.249
						l-2.18,12.362c-0.864,4.901-3.634,9-7.418,11.65c-3.787,2.663-8.572,3.866-13.487,3c-9.131-1.61-15.446-9.824-14.884-18.857
						c0.036-0.685,0.116-1.377,0.237-2.062l2.18-12.362c0.867-4.915,3.647-8.998,7.432-11.647
						C310.88,307.695,315.666,306.492,320.58,307.358z"/>
					<path style="fill:#2E3140;" d="M320.58,307.358c9.733,1.716,16.254,10.926,14.666,20.653
						c-7.316,8.111-19.133,12.365-31.44,10.195c-2.286-0.403-4.481-1.002-6.558-1.792c0.036-0.685,0.116-1.377,0.237-2.062
						l2.18-12.362c0.867-4.915,3.647-8.998,7.432-11.647C310.88,307.695,315.666,306.492,320.58,307.358z"/>
					<path style="fill:#FFFFFF;" d="M308.357,319.606l-1.311,7.438c-0.565,3.203,1.574,6.257,4.776,6.822l0,0
						c3.203,0.565,6.257-1.574,6.822-4.776l1.311-7.438c0.565-3.203-1.574-6.257-4.776-6.822l0,0
						C311.976,314.265,308.922,316.403,308.357,319.606z"/>
				</g>
				<g>
					<path style="fill:#3E4E60;" d="M191.42,307.358c-9.733,1.716-16.254,10.926-14.666,20.653c0.001,0.085,0.015,0.167,0.03,0.249
						l2.18,12.362c0.864,4.901,3.634,9,7.418,11.65c3.787,2.663,8.572,3.866,13.487,3c9.131-1.61,15.446-9.824,14.884-18.857
						c-0.036-0.685-0.116-1.377-0.237-2.062l-2.18-12.362c-0.867-4.915-3.647-8.998-7.432-11.647
						C201.12,307.695,196.334,306.492,191.42,307.358z"/>
					<path style="fill:#2E3140;" d="M191.42,307.358c-9.733,1.716-16.254,10.926-14.666,20.653
						c7.316,8.111,19.133,12.365,31.44,10.195c2.286-0.403,4.481-1.002,6.558-1.792c-0.036-0.685-0.116-1.377-0.237-2.062
						l-2.18-12.362c-0.867-4.915-3.647-8.998-7.432-11.647C201.12,307.695,196.334,306.492,191.42,307.358z"/>
					<path style="fill:#FFFFFF;" d="M203.643,319.606l1.311,7.438c0.565,3.203-1.574,6.257-4.776,6.822l0,0
						c-3.203,0.565-6.257-1.574-6.822-4.776l-1.311-7.438c-0.565-3.203,1.574-6.257,4.776-6.822h0
						C200.024,314.265,203.078,316.403,203.643,319.606z"/>
				</g>
			</g>
			<g>
				<path style="fill:#EEA47D;" d="M256,218.919c36.116,0,46.557,16.866,46.557,39.822s-8.715,64.184-46.557,64.184V218.919z"/>
				<path style="fill:#D48D77;" d="M256,218.919c-36.116,0-46.557,16.866-46.557,39.822s8.715,64.184,46.557,64.184V218.919z"/>
			</g>
			<g>
				<g>
					<path style="fill:#D48D77;" d="M327.051,414.53c0,24.095-21.181,44.47-48.207,44.47h-45.687
						c-29.667,0-52.287-24.541-47.59-51.619c0.823-4.749,3.291-8.846,6.763-11.769c3.463-2.914,7.929-4.646,12.746-4.646h101.849
						c9.635,0,17.863,6.926,19.509,16.415C326.854,409.79,327.051,412.173,327.051,414.53z"/>
					<path style="fill:#EEA47D;" d="M327.051,414.53c0,24.095-21.181,44.47-48.207,44.47H256v-68.034h50.924
						c9.635,0,17.863,6.926,19.509,16.415C326.854,409.79,327.051,412.173,327.051,414.53z"/>
				</g>
				<g>
					<path style="fill:#A26D5A;" d="M316.067,437.109c-2.156-0.958-4.688,0.014-5.654,2.17c-0.059,0.134-6.115,13.36-17.245,13.36
						c-16.852,0-24.187-10.735-28.951-17.237c-2.554-3.485-3.931-7.688-3.931-12.009v-7.95c0-2.239-1.637-4.238-3.865-4.45
						c-2.556-0.243-4.706,1.76-4.706,4.266v8.134c0,4.321-1.377,8.523-3.931,12.009c-4.764,6.502-12.099,17.237-28.951,17.237
						c-11.13,0-17.185-13.226-17.24-13.348c-0.955-2.165-3.484-3.147-5.65-2.193c-2.166,0.955-3.148,3.485-2.193,5.651
						c0.332,0.754,8.332,18.462,25.083,18.462c16.088,0,24.523-8.485,30.197-15.245c3.64-4.337,10.301-4.337,13.941,0
						c5.674,6.76,14.109,15.245,30.197,15.245c16.751,0,24.751-17.708,25.083-18.462
						C319.203,440.587,318.226,438.068,316.067,437.109z"/>
					<path style="fill:#F4829B;" d="M275.988,383.026v16.666c0,2.785-0.809,5.524-2.315,7.877l-3.755,5.834
						c-1.929,3.011-5.251,4.828-8.818,4.828H250.9c-3.567,0-6.889-1.816-8.818-4.828l-3.755-5.834
						c-1.506-2.353-2.315-5.091-2.315-7.877v-16.666c0-5.797,4.696-10.493,10.493-10.493h18.991
						C271.292,372.534,275.988,377.229,275.988,383.026z"/>
					<path style="fill:#FF9FB4;" d="M275.988,383.026v16.666c0,2.785-0.809,5.524-2.315,7.877l-3.755,5.834
						c-1.929,3.011-5.251,4.828-8.818,4.828H256v-45.697h9.495C271.292,372.534,275.988,377.229,275.988,383.026z"/>
				</g>
				<g>
					<g>
						<g>
							<path style="fill:#EEA47D;" d="M352.727,437.081c-0.18-0.376-4.451-9.269-16.456-15.002
								c-5.782-2.76-12.242-4.328-19.363-4.704c-12.152-0.637-26.223,2.197-42.059,8.485c-1.462,0.588-2.181,2.246-1.601,3.716
								c0.588,1.462,2.246,2.181,3.716,1.601c15.451-6.141,29.335-8.804,40.997-7.938c5.717,0.425,10.903,1.699,15.476,3.822
								c10.339,4.802,14.088,12.381,14.112,12.446c0.49,1.037,1.519,1.65,2.589,1.65c0.408,0,0.825-0.09,1.217-0.269
								C352.784,440.209,353.396,438.51,352.727,437.081z"/>
							<path style="fill:#F5B890;" d="M352.727,437.081c0.67,1.429,0.057,3.128-1.372,3.806c-0.392,0.18-0.809,0.269-1.217,0.269
								c-1.07,0-2.099-0.613-2.589-1.65c-0.025-0.065-3.773-7.644-14.112-12.446c-4.573-2.123-9.759-3.397-15.476-3.822
								c-0.433-1.927-0.792-3.879-1.054-5.864c7.121,0.376,13.581,1.944,19.363,4.704
								C348.276,427.811,352.547,436.705,352.727,437.081z"/>
						</g>
						<g>
							<path style="fill:#EEA47D;" d="M366.205,402.049c-0.268-0.319-6.629-7.861-19.686-10.407
								c-6.289-1.226-12.936-1.127-19.924,0.291c-11.925,2.424-24.839,8.689-38.597,18.74c-1.268,0.935-1.549,2.72-0.62,3.998
								c0.935,1.268,2.72,1.549,3.998,0.62c13.423-9.812,26.199-15.864,37.706-17.944c5.641-1.019,10.981-1.084,15.94-0.172
								c11.212,2.062,16.737,8.462,16.778,8.519c0.734,0.882,1.883,1.217,2.919,0.949c0.395-0.102,0.776-0.293,1.111-0.565
								C367.043,405.063,367.211,403.265,366.205,402.049z"/>
							<path style="fill:#F5B890;" d="M366.205,402.049c1.006,1.216,0.838,3.014-0.376,4.028c-0.335,0.272-0.715,0.463-1.111,0.565
								c-1.036,0.268-2.185-0.068-2.919-0.949c-0.04-0.057-5.566-6.457-16.778-8.519c-4.959-0.911-10.299-0.847-15.94,0.172
								c-0.901-1.758-1.738-3.558-2.487-5.414c6.989-1.418,13.636-1.517,19.924-0.291
								C359.576,394.189,365.937,401.73,366.205,402.049z"/>
						</g>
					</g>
					<g>
						<g>
							<path style="fill:#EEA47D;" d="M160.645,440.886c0.392,0.18,0.809,0.269,1.217,0.269c1.07,0,2.099-0.613,2.589-1.65
								c0.025-0.065,3.773-7.644,14.112-12.446c4.573-2.123,9.759-3.397,15.476-3.822c11.662-0.866,25.546,1.797,40.997,7.938
								c1.47,0.58,3.128-0.139,3.716-1.601c0.58-1.47-0.139-3.128-1.601-3.716c-15.835-6.288-29.907-9.122-42.059-8.485
								c-7.121,0.376-13.581,1.944-19.363,4.704c-12.005,5.733-16.276,14.627-16.456,15.002
								C158.604,438.51,159.216,440.209,160.645,440.886z"/>
							<path style="fill:#F5B890;" d="M159.273,437.081c-0.67,1.429-0.057,3.128,1.372,3.806c0.392,0.18,0.809,0.269,1.217,0.269
								c1.07,0,2.099-0.613,2.589-1.65c0.025-0.065,3.773-7.644,14.112-12.446c4.573-2.123,9.759-3.397,15.476-3.822
								c0.433-1.927,0.792-3.879,1.054-5.864c-7.121,0.376-13.581,1.944-19.363,4.704
								C163.724,427.811,159.453,436.705,159.273,437.081z"/>
						</g>
						<g>
							<path style="fill:#EEA47D;" d="M146.171,406.077c0.335,0.272,0.715,0.463,1.111,0.565c1.036,0.268,2.185-0.068,2.919-0.949
								c0.04-0.057,5.566-6.457,16.778-8.519c4.959-0.911,10.299-0.847,15.94,0.172c11.508,2.08,24.283,8.132,37.706,17.944
								c1.278,0.929,3.063,0.648,3.998-0.62c0.929-1.278,0.648-3.063-0.62-3.998c-13.758-10.051-26.672-16.315-38.597-18.74
								c-6.989-1.418-13.636-1.517-19.924-0.291c-13.058,2.547-19.418,10.089-19.686,10.407
								C144.789,403.265,144.957,405.063,146.171,406.077z"/>
							<path style="fill:#F5B890;" d="M145.795,402.049c-1.006,1.216-0.838,3.014,0.376,4.028c0.335,0.272,0.715,0.463,1.111,0.565
								c1.036,0.268,2.185-0.068,2.919-0.949c0.04-0.057,5.566-6.457,16.778-8.519c4.959-0.911,10.299-0.847,15.94,0.172
								c0.901-1.758,1.738-3.558,2.487-5.414c-6.989-1.418-13.636-1.517-19.924-0.291
								C152.424,394.189,146.063,401.73,145.795,402.049z"/>
						</g>
					</g>
				</g>
			</g>
		</g>
	</g>
</g>
</svg>
