<?xml version="1.0" encoding="iso-8859-1"?>
<!-- Generator: Adobe Illustrator 22.0.1, SVG Export Plug-In . SVG Version: 6.00 Build 0)  -->
<svg version="1.1" id="Icons" xmlns="http://www.w3.org/2000/svg" xmlns:xlink="http://www.w3.org/1999/xlink" x="0px" y="0px"
	 viewBox="0 0 512 512" style="enable-background:new 0 0 512 512;" xml:space="preserve">
<g>
	<circle style="fill:#6C53A2;" cx="256" cy="256" r="256"/>
	<g>
		<g>
			<path style="fill:#EA792E;" d="M395.198,293.577v31.253c0,63.641-51.587,115.241-115.229,115.241h-47.932
				c-63.641,0-115.229-51.599-115.229-115.241v-31.253H395.198z"/>
			<path style="fill:#F39E22;" d="M395.198,293.577v31.253c0,33.335-14.148,63.358-36.777,84.402
				c-20.571,19.128-48.145,30.839-78.452,30.839h-2.189c-39.131-24.865-64.315-63.712-64.315-107.374
				c0-13.592,2.448-26.734,6.991-39.119H395.198z"/>
			<path style="fill:#F9C744;" d="M395.198,293.577v31.253c0,33.335-14.148,63.358-36.777,84.402
				c-34.683-4.069-61.631-34.541-61.631-71.543c0-16.62,5.442-31.927,14.586-44.111H395.198z"/>
		</g>
		<g>
			<path style="fill:#53B976;" d="M406.637,246.614v13.947c0,29.514-23.931,53.444-53.445,53.444H158.815
				c-29.514,0-53.445-23.931-53.445-53.444v-13.947c0-15.106,6.388-29.502,17.578-39.628l58.638-53.078
				c9.83-8.895,22.617-13.816,35.866-13.816h77.103c13.249,0,26.036,4.921,35.866,13.816l58.638,53.078
				C400.249,217.112,406.637,231.508,406.637,246.614z"/>
			<path style="fill:#78C795;" d="M406.637,246.614v13.947c0,29.514-23.931,53.444-53.445,53.444h-97.189V140.092h38.552
				c13.249,0,26.036,4.921,35.866,13.816l58.638,53.078C400.249,217.112,406.637,231.508,406.637,246.614z"/>
		</g>
		<g>
			<g>
				<g>
					<path style="fill:#9ACDAE;" d="M330.42,153.913l30.35-30.35c5.039-5.039,11.873-7.87,18.999-7.87h0
						c14.839,0,26.869,12.03,26.869,26.869v104.049h-34.915c-22.812,0-41.304-18.492-41.304-41.304V153.913z"/>
					<path style="fill:#FFFFFF;" d="M342.404,164.017L342.404,164.017c-4.21-4.21-4.21-11.036,0-15.246l16.583-16.583
						c4.21-4.21,11.036-4.21,15.246,0v0c4.21,4.21,4.21,11.036,0,15.246l-16.583,16.583
						C353.44,168.227,346.614,168.227,342.404,164.017z"/>
				</g>
				<g>
					<path style="fill:#F39E22;" d="M444.538,173.048v35.665c0,10.469-4.246,19.944-11.108,26.805
						c-1.23,1.23-2.543,2.378-3.939,3.431c-6.352,4.803-14.278,7.665-22.854,7.665c-20.926,0-37.889-16.963-37.889-37.901v-35.665
						c0-5.749,1.278-11.202,3.572-16.076c6.045-12.894,19.14-21.813,34.317-21.813C427.563,135.159,444.538,152.122,444.538,173.048
						z"/>
					<path style="fill:#F9C744;" d="M444.538,173.048v35.665c0,10.469-4.246,19.944-11.108,26.805
						c-1.23,1.23-2.543,2.378-3.939,3.431c-30.153-16.585-51.883-46.596-57.171-81.977c6.045-12.894,19.14-21.813,34.317-21.813
						C427.563,135.159,444.538,152.122,444.538,173.048z"/>
					<path style="fill:#F4E6F4;" d="M406.639,145.584L406.639,145.584c-16.154,0-29.249,13.095-29.249,29.249v32.107
						c0,16.154,13.095,29.249,29.249,29.249h0c16.154,0,29.249-13.095,29.249-29.249v-32.107
						C435.888,158.679,422.793,145.584,406.639,145.584z"/>
					<path style="fill:#3F5D77;" d="M435.891,175.071v31.62h-35.358c-6.672,0-12.089-5.406-12.089-12.078v-7.452
						c0-6.672,5.418-12.089,12.089-12.089H435.891z"/>
					<path style="fill:#334353;" d="M435.891,175.071v31.62h-27.858c-0.911-5.134-1.396-10.41-1.396-15.804
						c0-5.394,0.485-10.682,1.396-15.816H435.891z"/>
					<circle style="fill:#FFFFFF;" cx="426.83" cy="172.741" r="14.662"/>
				</g>
			</g>
			<g>
				<g>
					<path style="fill:#78C795;" d="M181.58,153.913l-30.35-30.35c-5.039-5.039-11.873-7.87-18.999-7.87h0
						c-14.839,0-26.869,12.03-26.869,26.869v104.049h34.915c22.812,0,41.304-18.492,41.304-41.304V153.913z"/>
					<path style="fill:#FFFFFF;" d="M169.596,164.017L169.596,164.017c4.21-4.21,4.21-11.036,0-15.246l-16.583-16.583
						c-4.21-4.21-11.036-4.21-15.246,0l0,0c-4.21,4.21-4.21,11.036,0,15.246l16.583,16.583
						C158.56,168.227,165.386,168.227,169.596,164.017z"/>
				</g>
				<g>
					<path style="fill:#EA792E;" d="M67.462,173.048v35.665c0,10.469,4.247,19.944,11.108,26.805c1.23,1.23,2.543,2.378,3.939,3.431
						c6.352,4.803,14.278,7.665,22.854,7.665c20.926,0,37.889-16.963,37.889-37.901v-35.665c0-5.749-1.278-11.202-3.572-16.076
						c-6.045-12.894-19.14-21.813-34.317-21.813C84.437,135.159,67.462,152.122,67.462,173.048z"/>
					<path style="fill:#F39E22;" d="M67.462,173.048v35.665c0,10.469,4.247,19.944,11.108,26.805c1.23,1.23,2.543,2.378,3.939,3.431
						c30.153-16.585,51.883-46.596,57.171-81.977c-6.045-12.894-19.14-21.813-34.317-21.813
						C84.437,135.159,67.462,152.122,67.462,173.048z"/>
					<path style="fill:#F4E6F4;" d="M105.361,145.584L105.361,145.584c16.154,0,29.249,13.095,29.249,29.249v32.107
						c0,16.154-13.095,29.249-29.249,29.249h0c-16.154,0-29.249-13.095-29.249-29.249v-32.107
						C76.112,158.679,89.207,145.584,105.361,145.584z"/>
					<path style="fill:#3F5D77;" d="M76.109,175.071v31.62h35.358c6.672,0,12.089-5.406,12.089-12.078v-7.452
						c0-6.672-5.418-12.089-12.089-12.089H76.109z"/>
					<path style="fill:#334353;" d="M76.109,175.071v31.62h27.858c0.911-5.134,1.396-10.41,1.396-15.804
						c0-5.394-0.485-10.682-1.396-15.816H76.109z"/>
					<circle style="fill:#FFFFFF;" cx="85.17" cy="172.741" r="14.662"/>
				</g>
			</g>
		</g>
		<g>
			<path style="fill:#50755C;" d="M404.153,296.427c-11.675,16.561-30.721,26.45-50.961,26.45H158.815
				c-20.24,0-39.285-9.889-50.961-26.45c-2.827-3.998-1.869-9.534,2.141-12.362c3.998-2.827,9.534-1.869,12.362,2.141
				c8.352,11.853,21.979,18.927,36.458,18.927h194.378c14.479,0,28.106-7.074,36.458-18.927c2.827-4.01,8.363-4.968,12.362-2.141
				C406.022,286.893,406.98,292.429,404.153,296.427z"/>
			<path style="fill:#528F66;" d="M404.153,296.427c-11.675,16.561-30.721,26.45-50.961,26.45h-97.189v-17.744h97.189
				c14.479,0,28.106-7.074,36.458-18.927c2.827-4.01,8.363-4.968,12.362-2.141C406.022,286.893,406.98,292.429,404.153,296.427z"/>
		</g>
		<g>
			<path style="fill:#9ACDAE;" d="M256.004,227.049h47.778c4.689,0,8.49,3.801,8.49,8.49v0c0,4.689-3.801,8.49-8.49,8.49h-9.327
				c-12.212,0-11.893,38.855-38.451,38.855V227.049z"/>
			<path style="fill:#78C795;" d="M256.004,227.049h-47.778c-4.689,0-8.49,3.801-8.49,8.49v0c0,4.689,3.801,8.49,8.49,8.49h9.327
				c12.212,0,11.893,38.855,38.451,38.855V227.049z"/>
			<path style="fill:#9ACDAE;" d="M298.542,235.542c0,2.342-0.946,4.46-2.484,5.998c-1.538,1.538-3.667,2.484-6.009,2.484h-68.089
				c-4.696,0-8.493-3.797-8.493-8.482c0-2.354,0.946-4.471,2.484-6.009c1.538-1.538,3.667-2.484,6.009-2.484h68.089
				C294.744,227.049,298.542,230.846,298.542,235.542z"/>
			<path style="fill:#FFFFFF;" d="M298.542,235.542c0,2.342-0.946,4.46-2.484,5.998c-1.538,1.538-3.667,2.484-6.009,2.484h-34.045
				v-16.975h34.045C294.744,227.049,298.542,230.846,298.542,235.542z"/>
		</g>
	</g>
</g>
</svg>
