<?xml version="1.0" encoding="iso-8859-1"?>
<!-- Generator: Adobe Illustrator 22.0.1, SVG Export Plug-In . SVG Version: 6.00 Build 0)  -->
<svg version="1.1" id="Icons" xmlns="http://www.w3.org/2000/svg" xmlns:xlink="http://www.w3.org/1999/xlink" x="0px" y="0px"
	 viewBox="0 0 512 512" style="enable-background:new 0 0 512 512;" xml:space="preserve">
<g>
	<circle style="fill:#6C53A2;" cx="256" cy="256" r="256"/>
	<g>
		<g>
			<g>
				<g>
					<path style="fill:#9175A7;" d="M50.419,167.66v55.9c0,27.51,22.31,49.81,49.82,49.81h24.36c27.51,0,49.81-22.3,49.81-49.81
						v-55.9c0-27.51-22.3-49.81-49.81-49.81h-24.36C72.729,117.85,50.419,140.15,50.419,167.66z"/>
					<path style="fill:#746087;" d="M100.239,248.82v24.55h24.36c27.51,0,49.81-22.3,49.81-49.81v-26.68h-22.24
						C123.489,196.88,100.239,220.13,100.239,248.82z"/>
					<path style="fill:#A583BB;" d="M135.57,140.498H89.257c-12.931,0-23.413,10.482-23.413,23.413v0
						c0,12.931,10.482,23.413,23.413,23.413h46.312c12.931,0,23.413-10.482,23.413-23.413v0
						C158.983,150.981,148.5,140.498,135.57,140.498z"/>
				</g>
				<g>
					<path style="fill:#A583BB;" d="M461.581,167.66v55.9c0,27.51-22.31,49.81-49.82,49.81h-24.36c-27.51,0-49.81-22.3-49.81-49.81
						v-55.9c0-27.51,22.3-49.81,49.81-49.81h24.36C439.271,117.85,461.581,140.15,461.581,167.66z"/>
					<path style="fill:#9175A7;" d="M411.761,248.82v24.55h-24.36c-27.51,0-49.81-22.3-49.81-49.81v-26.68h22.24
						C388.511,196.88,411.761,220.13,411.761,248.82z"/>
					<path style="fill:#C2AACF;" d="M422.743,140.498H376.43c-12.931,0-23.413,10.482-23.413,23.413v0
						c0,12.931,10.482,23.413,23.413,23.413h46.312c12.931,0,23.413-10.482,23.413-23.413v0
						C446.155,150.981,435.673,140.498,422.743,140.498z"/>
				</g>
			</g>
			<g>
				<path style="fill:#9175A7;" d="M371.04,251.89v81.61c0,48.31-39.16,87.47-87.47,87.47h-55.14c-48.31,0-87.47-39.16-87.47-87.47
					v-81.61c0-33.69,27.31-61,61-61h108.08C343.73,190.89,371.04,218.2,371.04,251.89z"/>
				<path style="fill:#A583BB;" d="M371.04,251.89v81.61c0,48.31-39.16,87.47-87.47,87.47H256V190.89h54.04
					C343.73,190.89,371.04,218.2,371.04,251.89z"/>
			</g>
			<g>
				<path style="fill:#C2AACF;" d="M327.431,268.391H256v-67.73h34.088c29.015,0,52.536,23.521,52.536,52.536v0
					C342.624,261.589,335.822,268.391,327.431,268.391z"/>
				<path style="fill:#A583BB;" d="M184.569,268.391H256v-67.73h-34.088c-29.015,0-52.536,23.521-52.536,52.536v0
					C169.376,261.589,176.178,268.391,184.569,268.391z"/>
			</g>
		</g>
		<g>
			<g>
				<path style="fill:#C2AACF;" d="M324.974,313.161c-8.144,8.144-21.371,8.144-29.515,0c-8.154-8.154-8.144-21.371,0-29.515
					c2.208-2.208,4.786-3.82,7.538-4.827c7.405-2.721,16.031-1.119,21.977,4.827c5.936,5.936,7.548,14.573,4.827,21.977
					C328.795,308.375,327.182,310.953,324.974,313.161z"/>
				
					<ellipse transform="matrix(0.7071 -0.7071 0.7071 0.7071 -113.9602 309.3165)" style="fill:#EBD9EA;" cx="316.399" cy="292.221" rx="12.127" ry="18.953"/>
				<path style="fill:#3F5D77;" d="M323.404,298.403c0,5.679-3.602,10.53-8.642,12.389c-1.423,0.508-2.948,0.799-4.546,0.799
					c-7.291,0-13.187-5.911-13.187-13.188c0-7.291,5.897-13.187,13.187-13.187c1.598,0,3.123,0.29,4.546,0.799
					C319.802,287.874,323.404,292.71,323.404,298.403z"/>
				<ellipse style="fill:#2E3140;" cx="314.762" cy="298.403" rx="8.642" ry="12.389"/>
				<circle style="fill:#83D5EF;" cx="310.213" cy="295.291" r="6.5"/>
			</g>
			<g>
				<path style="fill:#A583BB;" d="M215.748,313.161c-8.144,8.144-21.371,8.144-29.515,0c-8.154-8.154-8.144-21.371,0-29.515
					c2.208-2.208,4.786-3.82,7.538-4.827c7.405-2.721,16.031-1.119,21.977,4.827c5.936,5.936,7.548,14.573,4.827,21.977
					C219.568,308.375,217.956,310.953,215.748,313.161z"/>
				
					<ellipse transform="matrix(0.7071 -0.7071 0.7071 0.7071 -145.9518 232.0818)" style="fill:#DECEE5;" cx="207.172" cy="292.221" rx="12.127" ry="18.953"/>
				<path style="fill:#3F5D77;" d="M214.177,298.403c0,5.679-3.602,10.53-8.641,12.389c-1.423,0.508-2.948,0.799-4.546,0.799
					c-7.291,0-13.187-5.911-13.187-13.188c0-7.291,5.897-13.187,13.187-13.187c1.598,0,3.123,0.29,4.546,0.799
					C210.576,287.874,214.177,292.71,214.177,298.403z"/>
				<ellipse style="fill:#2E3140;" cx="205.536" cy="298.403" rx="8.642" ry="12.389"/>
				<circle style="fill:#83D5EF;" cx="200.986" cy="295.291" r="6.5"/>
			</g>
		</g>
		<g>
			<g>
				<g>
					<path style="fill:#A583BB;" d="M283.57,385.52v15.33c0,11.11-9.01,20.12-20.12,20.12h-14.9c-11.11,0-20.12-9.01-20.12-20.12
						v-15.33c0-11.11,9.01-20.12,20.12-20.12h14.9C274.56,365.4,283.57,374.41,283.57,385.52z"/>
					<path style="fill:#C2AACF;" d="M283.57,385.52v15.33c0,11.11-9.01,20.12-20.12,20.12H256V365.4h7.45
						C274.56,365.4,283.57,374.41,283.57,385.52z"/>
				</g>
				<g>
					<path style="fill:#746087;" d="M256,394.847c-10.571,0-20.567-3.727-29.387-7.014c-6.293-2.346-12.238-4.562-17.361-5.06
						c-2.749-0.267-4.76-2.711-4.493-5.46s2.715-4.757,5.46-4.493c6.425,0.624,12.964,3.062,19.888,5.643
						c8.419,3.139,17.126,6.384,25.894,6.384c8.771,0,17.48-3.246,25.903-6.385c6.924-2.581,13.463-5.018,19.888-5.643
						c2.753-0.275,5.193,1.745,5.46,4.493c0.267,2.749-1.744,5.193-4.493,5.46c-5.124,0.498-11.069,2.714-17.363,5.06
						C276.573,391.12,266.574,394.847,256,394.847z"/>
				</g>
			</g>
			<g>
				<g>
					<path style="fill:#C2AACF;" d="M256,273.87h7.82c15.511,0,28.13,12.619,28.13,28.13c0,4.971-4.029,9-9,9s-9-4.029-9-9
						c0-5.585-4.544-10.13-10.13-10.13H256V273.87z"/>
				</g>
				<g>
					<path style="fill:#A583BB;" d="M256,273.87h-7.82c-15.511,0-28.13,12.619-28.13,28.13c0,4.971,4.029,9,9,9s9-4.029,9-9
						c0-5.585,4.544-10.13,10.13-10.13H256V273.87z"/>
				</g>
			</g>
			<g>
				<path style="fill:#C2AACF;" d="M316.28,325.084h-33.33v29.606h33.33c8.176,0,14.803-6.628,14.803-14.803v0
					C331.083,331.711,324.456,325.084,316.28,325.084z"/>
				<path style="fill:#A583BB;" d="M195.72,354.69h33.33v-29.606h-33.33c-8.176,0-14.803,6.628-14.803,14.803v0
					C180.917,348.062,187.544,354.69,195.72,354.69z"/>
			</g>
			<g>
				<path style="fill:#334353;" d="M282.95,302v52.69c0,10.57-8.56,19.13-19.13,19.13h-15.64c-10.57,0-19.13-8.56-19.13-19.13V302
					c0-10.57,8.56-19.13,19.13-19.13h15.64C274.39,282.87,282.95,291.43,282.95,302z"/>
				<path style="fill:#3E4E60;" d="M282.95,302v52.69c0,10.57-8.56,19.13-19.13,19.13H256v-90.95h7.82
					C274.39,282.87,282.95,291.43,282.95,302z"/>
				<path style="fill:#2E3140;" d="M282.95,347.48v7.21c0,10.57-8.56,19.13-19.13,19.13h-15.64c-10.57,0-19.13-8.56-19.13-19.13
					v-7.21c0-10.57,8.56-19.14,19.13-19.14h15.64C274.39,328.34,282.95,336.91,282.95,347.48z"/>
				<path style="fill:#334353;" d="M282.95,347.48v7.21c0,10.57-8.56,19.13-19.13,19.13H256v-45.48h7.82
					C274.39,328.34,282.95,336.91,282.95,347.48z"/>
				<g>
					<path style="fill:#EA7589;" d="M261.339,363.116L261.339,363.116c-1.907-2.632-1.319-6.311,1.312-8.218l5.295-3.837
						c2.632-1.907,6.311-1.319,8.218,1.312h0c1.907,2.632,1.319,6.311-1.312,8.218l-5.295,3.837
						C266.926,366.335,263.246,365.747,261.339,363.116z"/>
					<path style="fill:#DD5273;" d="M250.661,363.116L250.661,363.116c1.907-2.632,1.319-6.311-1.312-8.218l-5.295-3.837
						c-2.632-1.907-6.311-1.319-8.218,1.312l0,0c-1.907,2.632-1.319,6.311,1.312,8.218l5.295,3.837
						C245.074,366.335,248.754,365.747,250.661,363.116z"/>
				</g>
			</g>
		</g>
	</g>
</g>
</svg>
