<?xml version="1.0" encoding="iso-8859-1"?>
<!-- Generator: Adobe Illustrator 22.0.1, SVG Export Plug-In . SVG Version: 6.00 Build 0)  -->
<svg version="1.1" id="Icons" xmlns="http://www.w3.org/2000/svg" xmlns:xlink="http://www.w3.org/1999/xlink" x="0px" y="0px"
	 viewBox="0 0 512 512" style="enable-background:new 0 0 512 512;" xml:space="preserve">
<g>
	<circle style="fill:#6C53A2;" cx="256" cy="256" r="256"/>
	<g>
		<g>
			<g>
				<path style="fill:#2E3140;" d="M196.3,135.97v158.24h-24.21c-19.15-19.16-30.97-33.46-35.26-48.11
					c-7.6-25.95,8.4-53.02,49.07-110.13H196.3z"/>
				<path style="fill:#3E4E60;" d="M192.26,137.07c0,51.06-23.28,94.31-55.43,109.03c-7.6-25.95,8.4-53.02,49.07-110.13h6.35
					C192.26,136.33,192.26,136.7,192.26,137.07z"/>
			</g>
			<g>
				<path style="fill:#2E3140;" d="M316.158,135.97v158.24h24.21c19.15-19.16,30.97-33.46,35.26-48.11
					c7.6-25.95-8.4-53.02-49.07-110.13H316.158z"/>
				<path style="fill:#3E4E60;" d="M320.198,137.07c0,51.06,23.28,94.31,55.43,109.03c7.6-25.95-8.4-53.02-49.07-110.13h-6.35
					C320.198,136.33,320.198,136.7,320.198,137.07z"/>
			</g>
		</g>
		<g>
			<g>
				<g>
					<path style="fill:#A26D5A;" d="M340.76,278.433v42.531c0,19.38-7.927,38.191-22.473,53.319L280.8,413.272h-49.203
						l-37.487-38.989c-14.546-15.128-22.473-33.939-22.473-53.319v-42.531c0-38.689,37.511-70.084,83.908-70.364
						c0.216-0.01,0.432-0.01,0.648-0.01c23.36,0,44.491,7.874,59.804,20.607C331.298,241.41,340.76,258.993,340.76,278.433z"/>
					<path style="fill:#C17E62;" d="M340.76,278.433v42.531c0,19.38-7.927,38.191-22.473,53.319L280.8,413.272h-25.255V208.069
						c0.216-0.01,0.432-0.01,0.648-0.01c23.36,0,44.491,7.874,59.804,20.607C331.298,241.41,340.76,258.993,340.76,278.433z"/>
				</g>
				<g>
					<path style="fill:#C17E62;" d="M331.539,231.63l-4.233,5.968c-11.656,16.476-19.463,34.628-22.989,53.519l-15.386,82.329
						c-2.291,12.254-0.096,24.808,6.308,36.015l6.236,10.907c4.629,8.103,6.62,17.075,5.78,26.026l-2.614,27.563
						c-0.887,9.47-10.385,16.775-21.801,16.775H229.51c-11.404,0-20.902-7.305-21.802-16.765l-2.662-27.942
						c-0.84-8.712,1.031-17.464,5.408-25.407l7.111-12.913c6.068-11.007,8.107-23.262,5.864-35.237l-15.482-82.838
						c-3.526-18.851-11.309-36.983-22.929-53.429l-4.173-5.898c-8.574-12.115-10.301-26.754-4.725-40.027l24.32-57.899
						c5.312-12.624,19.631-21.086,35.7-21.086h39.945c16.142,0,30.496,8.532,35.748,21.226l24.524,59.277
						C341.827,205.016,340.065,219.575,331.539,231.63z"/>
					<path style="fill:#D48D77;" d="M331.539,231.63l-4.233,5.968c-11.656,16.476-19.463,34.628-22.989,53.519l-15.386,82.329
						c-2.291,12.254-0.096,24.808,6.308,36.015l6.236,10.907c4.629,8.103,6.62,17.075,5.78,26.026l-2.614,27.563
						c-0.887,9.47-10.385,16.775-21.801,16.775h-26.634v-379.44h19.883c16.142,0,30.496,8.532,35.748,21.226l24.524,59.277
						C341.827,205.016,340.065,219.575,331.539,231.63z"/>
				</g>
				<g>
					<path style="fill:#EEA47D;" d="M267.283,270.321h-11.079v107.932h0c9.498,0,17.498-5.905,18.631-13.752l11.079-76.701
						C287.257,278.504,278.535,270.321,267.283,270.321z"/>
					<path style="fill:#D48D77;" d="M245.116,270.321h11.079v107.932h0c-9.498,0-17.498-5.905-18.631-13.752L226.485,287.8
						C225.142,278.504,233.864,270.321,245.116,270.321z"/>
				</g>
				<g>
					<path style="fill:#EEA47D;" d="M256.204,130.702h10.445c11.638,0,22.024,7.307,25.955,18.261l12.503,34.842
						c3.899,10.866-1.799,22.789-12.673,26.662c-9.467,3.372-21.946,6.401-36.229,6.401V130.702z"/>
					<path style="fill:#D48D77;" d="M256.204,130.702H245.76c-11.638,0-22.024,7.307-25.955,18.261l-12.503,34.842
						c-3.899,10.866,1.799,22.789,12.673,26.662c9.467,3.372,21.946,6.401,36.229,6.401V130.702z"/>
				</g>
				<g>
					<g>
						<path style="fill:#D48D77;" d="M336.105,124.996c-1.03,1.17-2.14,2.14-3.32,2.89c-13.55,8.6-6.79,38.41-6.58,39.36
							l-50.12-55.96c0-39.15,19.36-40.9,26.61-59.97c1.68-4.39,2.71-9.71,2.71-16.63c0-36.88,21.85-11.96,34.08,10.47
							C350.815,65.916,348.955,110.506,336.105,124.996z"/>
						<path style="fill:#EEA47D;" d="M336.105,124.996c-19.57-16.13-32.62-43.03-33.41-73.68c1.68-4.39,2.71-9.71,2.71-16.63
							c0-36.88,21.85-11.96,34.08,10.47C350.815,65.916,348.955,110.506,336.105,124.996z"/>
						<path style="fill:#C17E62;" d="M319.145,126.022c-3.905,2.648-9.238,0.291-9.974-4.369
							c-4.915-31.119-2.694-45.724,2.357-60.096c5.444-15.49-5.444-36.959,0-38.861c5.444-1.902,36.152,36.687,26.097,72.015
							C332.252,113.588,324.862,122.145,319.145,126.022z"/>
					</g>
					<g>
						<path style="fill:#C17E62;" d="M175.895,124.996c1.03,1.17,2.14,2.14,3.32,2.89c13.55,8.6,6.79,38.41,6.58,39.36l50.12-55.96
							c0-39.15-19.36-40.9-26.61-59.97c-1.68-4.39-2.71-9.71-2.71-16.63c0-36.88-21.85-11.96-34.08,10.47
							C161.185,65.916,163.045,110.506,175.895,124.996z"/>
						<path style="fill:#D48D77;" d="M175.895,124.996c19.57-16.13,32.62-43.03,33.41-73.68c-1.68-4.39-2.71-9.71-2.71-16.63
							c0-36.88-21.85-11.96-34.08,10.47C161.185,65.916,163.045,110.506,175.895,124.996z"/>
						<path style="fill:#A26D5A;" d="M192.855,126.022c3.905,2.648,9.238,0.291,9.974-4.369c4.915-31.119,2.694-45.724-2.357-60.096
							c-5.444-15.49,5.444-36.959,0-38.861c-5.444-1.902-36.152,36.687-26.097,72.015
							C179.748,113.588,187.138,122.145,192.855,126.022z"/>
					</g>
				</g>
			</g>
			<g>
				<g>
					<path style="fill:#3E4E60;" d="M332.959,227.2c7.402,4.274,9.977,13.686,5.809,21.121c-0.026,0.068-0.062,0.131-0.098,0.193
						l-5.428,9.401c-2.152,3.727-5.615,6.239-9.474,7.273c-3.865,1.044-8.11,0.607-11.847-1.551
						c-6.944-4.009-9.646-12.551-6.518-19.726c0.232-0.546,0.501-1.085,0.802-1.605l5.428-9.401
						c2.158-3.737,5.625-6.233,9.484-7.267C324.977,224.604,329.222,225.042,332.959,227.2z"/>
					<path style="fill:#2E3140;" d="M332.959,227.2c7.402,4.274,9.977,13.686,5.809,21.121c-8.344,4.427-19.205,4.389-28.564-1.014
						c-1.739-1.004-3.345-2.14-4.799-3.396c0.232-0.546,0.501-1.085,0.802-1.605l5.428-9.401c2.158-3.737,5.625-6.233,9.484-7.267
						C324.977,224.604,329.222,225.042,332.959,227.2z"/>
					<path style="fill:#FFFFFF;" d="M319.403,233.537l-3.266,5.656c-1.406,2.436-0.572,5.55,1.864,6.956l0,0
						c2.436,1.406,5.55,0.572,6.956-1.864l3.266-5.656c1.406-2.436,0.572-5.55-1.864-6.956l0,0
						C323.924,230.267,320.81,231.102,319.403,233.537z"/>
				</g>
				<g>
					<path style="fill:#3E4E60;" d="M178.13,227.2c-7.402,4.274-9.977,13.686-5.809,21.121c0.026,0.068,0.062,0.131,0.098,0.193
						l5.428,9.401c2.152,3.727,5.615,6.239,9.474,7.273c3.865,1.044,8.11,0.607,11.847-1.551c6.944-4.009,9.646-12.551,6.518-19.726
						c-0.232-0.546-0.501-1.085-0.802-1.605l-5.428-9.401c-2.158-3.737-5.625-6.233-9.484-7.267
						C186.112,224.604,181.868,225.042,178.13,227.2z"/>
					<path style="fill:#2E3140;" d="M178.13,227.2c-7.402,4.274-9.977,13.686-5.809,21.121c8.344,4.427,19.205,4.389,28.564-1.014
						c1.739-1.004,3.345-2.14,4.8-3.396c-0.232-0.546-0.501-1.085-0.802-1.605l-5.428-9.401c-2.158-3.737-5.625-6.233-9.484-7.267
						C186.112,224.604,181.868,225.042,178.13,227.2z"/>
					<path style="fill:#FFFFFF;" d="M191.686,233.537l3.266,5.656c1.406,2.436,0.572,5.55-1.864,6.956l0,0
						c-2.436,1.406-5.55,0.572-6.956-1.864l-3.266-5.656c-1.406-2.436-0.572-5.55,1.864-6.956h0
						C187.166,230.267,190.28,231.102,191.686,233.537z"/>
				</g>
			</g>
			<g>
				<g>
					<path style="fill:#2E3140;" d="M244.98,459.835c0,5.578-5.121,10.338-11.92,10.827c-7.183,0.519-13.515-3.902-14.139-9.879
						l-1.031-9.84l-1.247-11.805c-0.636-5.978,4.689-11.247,11.872-11.775c7.183-0.519,13.515,3.902,14.139,9.879l0.827,7.854
						l1.451,13.791C244.968,459.206,244.98,459.526,244.98,459.835z"/>
					<path style="fill:#3E4E60;" d="M244.98,459.835c0,5.578-5.121,10.338-11.92,10.827c-7.183,0.519-13.515-3.902-14.139-9.879
						l-1.031-9.84c8.035-2.874,16.621-4.87,25.591-5.848l1.451,13.791C244.968,459.206,244.98,459.526,244.98,459.835z"/>
				</g>
				<g>
					<path style="fill:#2E3140;" d="M295.394,439.138l-1.223,11.676l-1.055,9.969c-0.6,5.658-6.308,9.919-13.011,9.919
						c-0.372,0-0.755-0.01-1.139-0.04c-7.183-0.519-12.496-5.798-11.872-11.775l1.451-13.831l0.827-7.814
						c0.636-5.978,6.967-10.398,14.151-9.879C290.706,427.892,296.018,433.161,295.394,439.138z"/>
					<path style="fill:#3E4E60;" d="M294.171,450.814l-1.055,9.969c-0.6,5.658-6.308,9.919-13.011,9.919
						c-0.372,0-0.755-0.01-1.139-0.04c-7.183-0.519-12.496-5.798-11.872-11.775l1.451-13.831
						C277.526,446.004,286.125,447.97,294.171,450.814z"/>
				</g>
			</g>
		</g>
		<g>
			<path style="fill:#2E3140;" d="M295.17,161.72h-78.34c-10.42,0-17.15-11.04-12.36-20.31l2.26-4.37l6.37-12.33l10.77-20.87
				c6.21-12.02,18.6-19.57,32.13-19.57s25.92,7.55,32.13,19.57l10.68,20.68l6.46,12.52l2.26,4.37
				C312.32,150.68,305.59,161.72,295.17,161.72z"/>
			<path style="fill:#3E4E60;" d="M295.17,161.72h-78.34c-10.42,0-17.15-11.04-12.36-20.31l2.26-4.37l6.37-12.33
				c13-4.97,27.63-7.75,43.09-7.75c15.27,0,29.73,2.72,42.62,7.56l6.46,12.52l2.26,4.37C312.32,150.68,305.59,161.72,295.17,161.72z
				"/>
		</g>
	</g>
</g>
</svg>
