<?xml version="1.0" encoding="iso-8859-1"?>
<!-- Generator: Adobe Illustrator 22.0.1, SVG Export Plug-In . SVG Version: 6.00 Build 0)  -->
<svg version="1.1" id="Icons" xmlns="http://www.w3.org/2000/svg" xmlns:xlink="http://www.w3.org/1999/xlink" x="0px" y="0px"
	 viewBox="0 0 512 512" style="enable-background:new 0 0 512 512;" xml:space="preserve">
<g>
	<circle style="fill:#22BCE0;" cx="256" cy="256" r="256"/>
	<g>
		<g>
			<g>
				<g>
					<path style="fill:#D15A96;" d="M433.89,440.09c-10.786,10.439-22.507,19.912-34.95,28.32h-91.43
						c-8.516-0.023-16.353-2.257-23.42-6.49c-13.2-7.95-22.03-22.43-22.03-38.96v-57.41c-0.273-28.281,23.605-52.215,51.95-51.95
						c0.542,3.762-1.388,101.063,1.33,101.91h0.01c3.297,9.616,12.421,16.529,23.17,16.53h71.63
						C419.08,432.04,427.31,435.04,433.89,440.09z"/>
					<path style="fill:#ED72AB;" d="M422.27,450.66c-7.429,6.348-15.228,12.273-23.33,17.75h-91.43
						c-8.516-0.023-16.353-2.257-23.42-6.49c-13.2-7.95-22.03-22.43-22.03-38.96v-57.41c0.004-5.595,0.885-11.137,2.64-16.38
						c5.016-15.341,17.505-27.85,32.84-32.9v104.87c0,12.84,10.41,23.24,23.24,23.24h84.33
						C411.65,444.38,417.64,446.74,422.27,450.66z"/>
					<g>
						<path style="fill:#FF9FB4;" d="M291.63,379.085V348.11c0-5.824-4.721-10.545-10.545-10.545
							c-5.824,0-10.545,4.721-10.545,10.545v30.975C271.102,393.068,291.063,393.08,291.63,379.085z"/>
						<path style="fill:#ED72AB;" d="M284.204,376.816v-26.437c-0.21-6.914-10.258-6.926-10.472,0c0,0,0,26.437,0,26.437
							C273.943,383.73,283.99,383.742,284.204,376.816z"/>
					</g>
					<g>
						<path style="fill:#FF9FB4;" d="M291.63,438.091v-30.975c0-5.824-4.721-10.545-10.545-10.545
							c-5.824,0-10.545,4.721-10.545,10.545v30.975C271.102,452.075,291.063,452.086,291.63,438.091z"/>
						<path style="fill:#ED72AB;" d="M284.204,435.822v-26.437c-0.21-6.914-10.258-6.926-10.472,0c0,0,0,26.437,0,26.437
							C273.943,442.736,283.99,442.748,284.204,435.822z"/>
					</g>
					<g>
						<path style="fill:#FF9FB4;" d="M316.9,455.24h-24.604c-4.626,0-8.376,3.75-8.376,8.376c0,4.626,3.75,8.376,8.376,8.376H316.9
							C327.992,471.584,328.002,455.651,316.9,455.24z"/>
						<path style="fill:#ED72AB;" d="M315.098,461.138h-20.999c-5.491,0.167-5.501,8.148,0,8.318c0,0,20.999,0,20.999,0
							C320.59,469.289,320.599,461.308,315.098,461.138z"/>
					</g>
					<g>
						<path style="fill:#FF9FB4;" d="M362.999,455.24h-24.604c-4.626,0-8.376,3.75-8.376,8.376c0,4.626,3.75,8.376,8.376,8.376
							h24.604C374.091,471.584,374.101,455.651,362.999,455.24z"/>
						<path style="fill:#ED72AB;" d="M361.197,461.138h-20.999c-5.491,0.167-5.501,8.148,0,8.318c0,0,20.999,0,20.999,0
							C366.689,469.289,366.698,461.308,361.197,461.138z"/>
					</g>
					<g>
						<path style="fill:#FF9FB4;" d="M409.1,455.24h-24.61c-11.065,0.38-11.091,16.359,0,16.75c0,0,8.98,0,8.98,0
							c7.223-4.596,14.196-9.57,20.92-14.86C412.95,455.95,411.11,455.24,409.1,455.24z"/>
						<path style="fill:#ED72AB;" d="M408.79,461.42c-3.74,2.773-7.537,5.471-11.43,8.04H386.3c-1.06,0-2.03-0.4-2.76-1.05
							c-2.842-2.405-1.008-7.352,2.76-7.27c0,0,21,0,21,0C407.82,461.14,408.33,461.24,408.79,461.42z"/>
					</g>
				</g>
				<g>
					<path style="fill:#D15A96;" d="M249.94,365.55v57.41c-0.021,18.871-11.435,35.014-27.9,41.94c-5.4,2.26-11.33,3.51-17.55,3.51
						h-91.43c-12.443-8.408-24.164-17.881-34.95-28.32c6.58-5.05,14.81-8.05,23.74-8.05h71.63c10.75,0,19.87-6.91,23.17-16.53h0.01
						c2.665,0.022,0.823-98.816,1.33-101.91C226.34,313.338,250.211,337.267,249.94,365.55z"/>
					<path style="fill:#ED72AB;" d="M249.94,365.55v57.41c-0.021,18.871-11.435,35.014-27.9,41.94c-5.4,2.26-11.33,3.51-17.55,3.51
						h-91.43c-8.102-5.477-15.901-11.402-23.33-17.75c4.63-3.92,10.62-6.28,17.16-6.28h84.33c12.83,0,23.24-10.4,23.24-23.24V316.27
						C235.271,322.98,250.215,343.656,249.94,365.55z"/>
					<g>
						<path style="fill:#FF9FB4;" d="M220.37,379.085V348.11c0-5.824,4.721-10.545,10.545-10.545s10.545,4.721,10.545,10.545v30.975
							C240.898,393.068,220.937,393.08,220.37,379.085z"/>
						<path style="fill:#ED72AB;" d="M227.796,376.816v-26.437c0.21-6.914,10.258-6.926,10.472,0c0,0,0,26.437,0,26.437
							C238.057,383.73,228.01,383.742,227.796,376.816z"/>
					</g>
					<g>
						<path style="fill:#FF9FB4;" d="M220.37,438.091v-30.975c0-5.824,4.721-10.545,10.545-10.545s10.545,4.721,10.545,10.545
							v30.975C240.898,452.075,220.937,452.086,220.37,438.091z"/>
						<path style="fill:#ED72AB;" d="M227.796,435.822v-26.437c0.21-6.914,10.258-6.926,10.472,0c0,0,0,26.437,0,26.437
							C238.057,442.736,228.01,442.748,227.796,435.822z"/>
					</g>
					<g>
						<path style="fill:#FF9FB4;" d="M195.1,455.24h24.604c4.626,0,8.376,3.75,8.376,8.376c0,4.626-3.75,8.376-8.376,8.376H195.1
							C184.008,471.584,183.998,455.651,195.1,455.24z"/>
						<path style="fill:#ED72AB;" d="M196.902,461.138h20.999c5.492,0.167,5.501,8.148,0,8.318c0,0-20.999,0-20.999,0
							C191.41,469.289,191.401,461.308,196.902,461.138z"/>
					</g>
					<g>
						<path style="fill:#FF9FB4;" d="M149.001,455.24h24.604c4.626,0,8.376,3.75,8.376,8.376c0,4.626-3.75,8.376-8.376,8.376
							h-24.604C137.909,471.584,137.899,455.651,149.001,455.24z"/>
						<path style="fill:#ED72AB;" d="M150.803,461.138h20.999c5.492,0.167,5.501,8.148,0,8.318c0,0-20.999,0-20.999,0
							C145.311,469.289,145.302,461.308,150.803,461.138z"/>
					</g>
					<g>
						<path style="fill:#FF9FB4;" d="M135.88,463.62c0.014,4.576-3.751,8.385-8.37,8.37c0,0-8.98,0-8.98,0
							c-7.223-4.596-14.196-9.57-20.92-14.86c1.44-1.18,3.28-1.89,5.29-1.89h24.61C132.13,455.24,135.88,458.99,135.88,463.62z"/>
						<path style="fill:#ED72AB;" d="M129.86,465.3c0.005,2.284-1.869,4.164-4.16,4.16h-11.06c-3.893-2.569-7.69-5.267-11.43-8.04
							c0.46-0.18,0.97-0.28,1.49-0.28h21C128,461.14,129.86,463,129.86,465.3z"/>
					</g>
				</g>
			</g>
			<g>
				<g>
					<path style="fill:#D15A96;" d="M256,350.38c-2.537,7.081-6.715,13.665-12.12,19.06c0,0-29.42,29.42-29.42,29.42
						c-4.259,4.052-12.888,13.588-17.8,16.65h-0.01c-10.571,7.255-24.151,9.6-36.5,6.49c0.01,0,0.01,0,0-0.01
						c-7.99-1.998-15.096-5.953-21.14-11.96c-3.052-3.052-18.445-18.445-21.16-21.16h-0.01L99.1,370.13v-0.01l-4.18-4.17
						c0-0.01,0-0.01,0-0.01l-5.49-5.49c0,0,0,0-0.01,0l-4.17-4.18h-0.01c-3.336-3.019-14.429-15.368-18.32-17.18
						c-6.048-3.421-13.639-3.623-19.88-0.53c-2.06,1.014-4.003,2.33-5.73,4.09c0,0-12.43,12.43-12.43,12.43
						c-2.281,2.287-4.166,4.877-5.59,7.73c-4.031-8.738-7.524-17.664-10.55-26.83l24.24-24.24c15.24-15.24,39.94-15.23,55.17,0
						l50.65,50.65c9.57,9.57,25.09,9.57,34.66,0l19.47-19.47c6.086-6.156,16.123-16.073,22.14-22.14
						c7.289-7.246,17.461-17.492,24.81-24.81C258.04,309.874,262.872,331.782,256,350.38z"/>
					<path style="fill:#ED72AB;" d="M256,350.38c-1.5,4.17-3.56,8.19-6.16,11.94c-3.438,5.484-19.893,20.765-24.53,25.69h-0.01
						l-10.84,10.84v0.01c-4.307,4.101-12.853,13.553-17.8,16.65h-0.01c-10.571,7.255-24.151,9.6-36.5,6.49c0.01,0,0.01,0,0-0.01
						c-7.99-1.998-15.096-5.953-21.14-11.96c-3.052-3.052-18.445-18.445-21.16-21.16h-0.01L99.1,370.13v-0.01l-4.18-4.17
						c0-0.01,0-0.01,0-0.01l-5.49-5.49c0,0,0,0-0.01,0l-4.17-4.18h-0.01c-3.336-3.019-14.429-15.368-18.32-17.18
						c-6.048-3.421-13.639-3.623-19.88-0.53c-2.06,1.014-4.003,2.33-5.73,4.09c0,0-12.43,12.43-12.43,12.43
						c-2.281,2.287-4.166,4.877-5.59,7.73c-1.36-2.914-2.626-5.86-3.86-8.83c0.18-0.21,0.37-0.4,0.57-0.6l29.35-29.35
						c10.39-10.39,27.25-10.39,37.64,0l59.63,59.63c9.07,9.07,23.79,9.07,32.86,0c8.678-8.734,26.337-26.297,34.98-34.98
						c10.972-11.087,28.316-28.233,39.18-39.18C259.962,322.098,260.825,337.1,256,350.38z"/>
					<g>
						<path style="fill:#FF9FB4;" d="M213.401,358.1l21.903-21.903c4.118-4.118,10.794-4.118,14.912,0s4.118,10.794,0,14.912
							l-21.903,21.903C218.029,382.503,203.906,368.397,213.401,358.1z"/>
						<path style="fill:#ED72AB;" d="M220.256,361.747l18.694-18.694c5.037-4.74,12.151,2.356,7.405,7.405
							c0,0-18.694,18.694-18.694,18.694C222.624,373.891,215.51,366.796,220.256,361.747z"/>
					</g>
					<g>
						<path style="fill:#FF9FB4;" d="M171.677,399.824l21.903-21.903c4.118-4.118,10.794-4.118,14.912,0
							c4.118,4.118,4.118,10.794,0,14.912l-21.903,21.903C176.305,424.227,162.182,410.121,171.677,399.824z"/>
						<path style="fill:#ED72AB;" d="M178.532,403.47l18.694-18.694c5.037-4.74,12.151,2.356,7.405,7.405
							c0,0-18.694,18.694-18.694,18.694C180.9,415.615,173.786,408.519,178.532,403.47z"/>
					</g>
					<g>
						<path style="fill:#FF9FB4;" d="M141.683,394.081l17.397,17.397c7.555,8.131-3.705,19.404-11.845,11.845
							c0,0-17.397-17.397-17.397-17.397C122.283,397.795,133.542,386.522,141.683,394.081z"/>
						<path style="fill:#ED72AB;" d="M138.786,399.526l14.849,14.849c1.624,1.624,1.624,4.258,0,5.882
							c-1.624,1.624-4.258,1.624-5.882,0l-14.849-14.849C129.127,401.437,134.806,395.743,138.786,399.526z"/>
					</g>
					<g>
						<path style="fill:#FF9FB4;" d="M109.086,361.484l17.397,17.397c7.555,8.131-3.705,19.404-11.845,11.845
							c0,0-17.397-17.397-17.397-17.397C89.686,365.198,100.945,353.925,109.086,361.484z"/>
						<path style="fill:#ED72AB;" d="M106.189,366.929l14.849,14.849c1.624,1.624,1.624,4.258,0,5.882
							c-1.624,1.624-4.258,1.624-5.882,0l-14.849-14.849C96.53,368.84,102.209,363.146,106.189,366.929z"/>
					</g>
					<g>
						<path style="fill:#FF9FB4;" d="M76.489,328.887l17.397,17.397c7.555,8.131-3.705,19.404-11.845,11.845
							c0,0-17.397-17.397-17.397-17.397C57.089,332.601,68.348,321.328,76.489,328.887z"/>
						<path style="fill:#ED72AB;" d="M73.592,334.332l14.849,14.849c1.624,1.624,1.624,4.258,0,5.882
							c-1.624,1.624-4.258,1.624-5.882,0l-14.849-14.849C63.933,336.243,69.612,330.549,73.592,334.332z"/>
					</g>
					<g>
						<path style="fill:#FF9FB4;" d="M38.623,342.006l10.365-10.365c4.767-4.534,11.594,2.284,7.057,7.057
							c0,0-10.365,10.365-10.365,10.365C40.913,353.596,34.086,346.779,38.623,342.006z"/>
						<path style="fill:#ED72AB;" d="M41.867,343.731l8.846-8.846c2.339-2.262,5.77,1.16,3.504,3.504c0,0-8.846,8.846-8.846,8.846
							C43.032,349.497,39.601,346.075,41.867,343.731z"/>
					</g>
					<g>
						<path style="fill:#FF9FB4;" d="M37.2,355.47c0,1.28-0.48,2.55-1.45,3.53l-9.68,9.67c-1.559-3.184-3.062-6.386-4.48-9.63
							l7.1-7.1C31.744,348.77,37.317,351.163,37.2,355.47z"/>
						<path style="fill:#ED72AB;" d="M34.65,356.94c0,0.63-0.25,1.26-0.73,1.75l-8.55,8.54c-0.768-1.583-1.51-3.167-2.24-4.76
							c0.147-0.155,6.907-6.921,7.28-7.29C31.89,353.613,34.723,354.809,34.65,356.94z"/>
					</g>
				</g>
				<g>
					<path style="fill:#D15A96;" d="M499.26,335.98c-3.026,9.166-6.519,18.092-10.55,26.83c-1.423-2.853-3.31-5.443-5.59-7.73
						c0,0-12.43-12.43-12.43-12.43c-3.681-3.697-8.526-5.849-13.62-6.22c-6.154-0.467-12.311,1.816-16.69,6.22
						c0,0-13.62,13.62-13.62,13.62h-0.01l-4.17,4.18c-0.01,0-0.01,0-0.01,0l-5.49,5.49c0,0,0,0,0,0.01l-4.18,4.17v0.01l-18.74,18.74
						h-0.01c-2.616,2.614-18.184,18.185-21.16,21.16c-6.044,6.007-13.15,9.962-21.14,11.96c-0.01,0.01-0.01,0.01,0,0.01
						c-12.344,3.116-25.929,0.753-36.5-6.48v-0.01h-0.01c-0.15-0.09-0.29-0.19-0.43-0.3c0,0,0,0-0.01,0
						c-4.455-2.842-13.423-12.585-17.36-16.35c-4.811-5.18-32.134-31.093-35.38-36.54c-14.255-20.016-11.681-49.212,5.96-66.35
						c7.388,7.33,17.521,17.563,24.81,24.81c5.976,6.034,16.066,16.024,22.14,22.14c0,0,19.47,19.47,19.47,19.47
						c9.57,9.57,25.09,9.57,34.66,0l50.65-50.65c15.23-15.23,39.93-15.24,55.17,0L499.26,335.98z"/>
					<path style="fill:#ED72AB;" d="M492.57,353.98c-1.234,2.97-2.5,5.916-3.86,8.83c-1.423-2.853-3.31-5.443-5.59-7.73
						c0,0-12.43-12.43-12.43-12.43c-3.679-3.693-8.527-5.852-13.62-6.22c-6.154-0.467-12.311,1.816-16.69,6.22
						c0,0-13.62,13.62-13.62,13.62h-0.01l-4.17,4.18c-0.01,0-0.01,0-0.01,0l-5.49,5.49c0,0,0,0,0,0.01l-4.18,4.17v0.01l-18.74,18.74
						h-0.01c-2.616,2.614-18.184,18.185-21.16,21.16c-6.044,6.007-13.15,9.962-21.14,11.96c-0.01,0.01-0.01,0.01,0,0.01
						c-12.34,3.11-25.943,0.765-36.5-6.49h-0.01v-0.01c-0.14-0.09-0.29-0.19-0.43-0.29c0,0,0,0-0.01,0
						c-4.594-2.956-13.324-12.501-17.36-16.35v-0.01l-10.84-10.84h-0.01c-4.808-5.099-20.963-20.067-24.53-25.69
						c-10.767-15.314-12.226-36.181-3.8-52.82c10.865,10.862,28.153,28.155,39.18,39.18c8.653,8.656,26.285,26.283,34.98,34.98
						c9.07,9.07,23.79,9.07,32.86,0l59.63-59.63c10.39-10.39,27.25-10.39,37.64,0L492,353.38
						C492.2,353.58,492.39,353.77,492.57,353.98z"/>
					<g>
						<path style="fill:#FF9FB4;" d="M298.599,358.1l-21.903-21.903c-4.118-4.118-10.794-4.118-14.912,0
							c-4.118,4.118-4.118,10.794,0,14.912l21.903,21.903C293.971,382.503,308.094,368.397,298.599,358.1z"/>
						<path style="fill:#ED72AB;" d="M291.744,361.747l-18.694-18.694c-5.037-4.74-12.151,2.356-7.405,7.405
							c0,0,18.694,18.694,18.694,18.694C289.376,373.891,296.49,366.796,291.744,361.747z"/>
					</g>
					<g>
						<path style="fill:#FF9FB4;" d="M340.323,399.824l-21.903-21.903c-4.118-4.118-10.794-4.118-14.912,0
							c-4.118,4.118-4.118,10.794,0,14.912l21.903,21.903C335.695,424.227,349.818,410.121,340.323,399.824z"/>
						<path style="fill:#ED72AB;" d="M333.468,403.47l-18.694-18.694c-5.037-4.74-12.151,2.356-7.405,7.405
							c0,0,18.694,18.694,18.694,18.694C331.1,415.615,338.214,408.519,333.468,403.47z"/>
					</g>
					<g>
						<path style="fill:#FF9FB4;" d="M370.317,394.081l-17.397,17.397c-7.555,8.131,3.705,19.404,11.845,11.845
							c0,0,17.397-17.397,17.397-17.397C389.717,397.795,378.458,386.522,370.317,394.081z"/>
						<path style="fill:#ED72AB;" d="M373.214,399.526l-14.849,14.849c-1.624,1.624-1.624,4.258,0,5.882
							c1.624,1.624,4.258,1.624,5.882,0l14.849-14.849C382.873,401.437,377.194,395.743,373.214,399.526z"/>
					</g>
					<g>
						<path style="fill:#FF9FB4;" d="M402.914,361.484l-17.397,17.397c-7.555,8.131,3.705,19.404,11.845,11.845
							c0,0,17.397-17.397,17.397-17.397C422.314,365.198,411.055,353.925,402.914,361.484z"/>
						<path style="fill:#ED72AB;" d="M405.811,366.929l-14.849,14.849c-1.624,1.624-1.624,4.258,0,5.882
							c1.624,1.624,4.258,1.624,5.882,0l14.849-14.849C415.47,368.84,409.791,363.146,405.811,366.929z"/>
					</g>
					<g>
						<path style="fill:#FF9FB4;" d="M435.511,328.887l-17.397,17.397c-7.555,8.131,3.705,19.404,11.845,11.845
							c0,0,17.397-17.397,17.397-17.397C454.911,332.601,443.652,321.328,435.511,328.887z"/>
						<path style="fill:#ED72AB;" d="M438.408,334.332l-14.849,14.849c-1.624,1.624-1.624,4.258,0,5.882
							c1.624,1.624,4.258,1.624,5.882,0l14.849-14.849C448.067,336.243,442.388,330.549,438.408,334.332z"/>
					</g>
					<g>
						<path style="fill:#FF9FB4;" d="M473.377,342.006l-10.365-10.365c-4.767-4.534-11.594,2.284-7.057,7.057
							c0,0,10.365,10.365,10.365,10.365C471.087,353.596,477.914,346.779,473.377,342.006z"/>
						<path style="fill:#ED72AB;" d="M470.133,343.731l-8.846-8.846c-2.339-2.262-5.77,1.16-3.504,3.504
							c0,0,8.846,8.846,8.846,8.846C468.968,349.497,472.399,346.075,470.133,343.731z"/>
					</g>
					<g>
						<path style="fill:#FF9FB4;" d="M490.41,359.04c-1.418,3.244-2.921,6.446-4.48,9.63l-9.68-9.67c-0.97-0.98-1.45-2.25-1.45-3.53
							c-0.117-4.307,5.456-6.7,8.51-3.53C483.31,351.94,490.41,359.04,490.41,359.04z"/>
						<path style="fill:#ED72AB;" d="M488.87,362.47c-0.73,1.593-1.472,3.177-2.24,4.76l-8.55-8.54c-0.48-0.49-0.73-1.12-0.73-1.75
							c-0.071-2.129,2.759-3.328,4.24-1.76C481.983,355.573,488.697,362.282,488.87,362.47z"/>
					</g>
				</g>
			</g>
			<g>
				<g>
					<path style="fill:#D15A96;" d="M492.1,202.58c-3.494,1.937-7.905,1.22-10.63-1.77c0,0-9.19-10.13-9.19-10.13
						c-5.75-6.33-13.91-9.94-22.46-9.94h-17.58c-11.84,0-21.43,9.6-21.43,21.44v95.29c0,25.1-20.35,45.45-45.46,45.45h-57.4
						c-28.917,0.135-52.152-23.96-51.95-51.95h93.93c13.53,0,24.51-10.97,24.51-24.51v-71.63c0-21.54,17.46-39.01,39.01-39.01h42.23
						c10.03,0,19.41,4.95,25.06,13.24l14.34,21.01C497.97,194.3,496.58,200.1,492.1,202.58z"/>
					<path style="fill:#ED72AB;" d="M492.1,202.58c-3.494,1.937-7.905,1.22-10.63-1.77c0,0-9.19-10.13-9.19-10.13
						c-5.75-6.33-13.91-9.94-22.46-9.94h-17.58c-11.835,0-21.43,9.595-21.43,21.43v95.3c0,25.101-20.349,45.45-45.45,45.45h-57.41
						c-22.93,0-42.4-14.86-49.28-35.48h104.87c12.835,0,23.24-10.405,23.24-23.24v-84.324c0-14.699,11.916-26.616,26.616-26.616
						h41.507c9.314,0,18.095,4.34,23.753,11.738L492.1,202.58z"/>
					<g>
						<path style="fill:#FF9FB4;" d="M321.484,313.351h-30.975c-5.824,0-10.545,4.721-10.545,10.545
							c0,5.824,4.721,10.545,10.545,10.545h30.975C335.467,333.879,335.479,313.918,321.484,313.351z"/>
						<path style="fill:#ED72AB;" d="M319.215,320.777h-26.437c-6.914,0.21-6.926,10.258,0,10.472c0,0,26.437,0,26.437,0
							C326.129,331.039,326.141,320.991,319.215,320.777z"/>
					</g>
					<g>
						<path style="fill:#FF9FB4;" d="M380.491,313.351h-30.975c-5.824,0-10.545,4.721-10.545,10.545s4.721,10.545,10.545,10.545
							h30.975C394.474,333.879,394.486,313.918,380.491,313.351z"/>
						<path style="fill:#ED72AB;" d="M378.222,320.777h-26.437c-6.914,0.21-6.926,10.258,0,10.472c0,0,26.437,0,26.437,0
							C385.135,331.039,385.148,320.991,378.222,320.777z"/>
					</g>
					<g>
						<path style="fill:#FF9FB4;" d="M397.639,288.081v24.604c0,4.626,3.75,8.376,8.376,8.376c4.626,0,8.376-3.75,8.376-8.376
							v-24.604C413.983,276.989,398.05,276.98,397.639,288.081z"/>
						<path style="fill:#ED72AB;" d="M403.537,289.883v20.999c0.167,5.492,8.148,5.501,8.318,0c0,0,0-20.999,0-20.999
							C411.688,284.392,403.707,284.382,403.537,289.883z"/>
					</g>
					<g>
						<path style="fill:#FF9FB4;" d="M397.639,241.982v24.604c0,4.626,3.75,8.376,8.376,8.376c4.626,0,8.376-3.75,8.376-8.376
							v-24.604C413.983,230.89,398.05,230.881,397.639,241.982z"/>
						<path style="fill:#ED72AB;" d="M403.537,243.784v20.999c0.167,5.491,8.148,5.501,8.318,0c0,0,0-20.999,0-20.999
							C411.688,238.293,403.707,238.283,403.537,243.784z"/>
					</g>
					<g>
						<path style="fill:#FF9FB4;" d="M397.639,195.883v24.604c0,4.626,3.75,8.376,8.376,8.376c4.626,0,8.376-3.75,8.376-8.376
							v-24.604C413.983,184.791,398.05,184.782,397.639,195.883z"/>
						<path style="fill:#ED72AB;" d="M403.537,197.685v20.999c0.167,5.492,8.148,5.501,8.318,0c0,0,0-20.999,0-20.999
							C411.688,192.194,403.707,192.184,403.537,197.685z"/>
					</g>
					<g>
						<path style="fill:#FF9FB4;" d="M433.69,178.384h-14.658c-2.756,0-4.99,2.234-4.99,4.99c0,2.756,2.234,4.99,4.99,4.99h14.658
							C440.282,188.162,440.288,178.588,433.69,178.384z"/>
						<path style="fill:#ED72AB;" d="M432.616,181.898h-12.51c-3.264,0.081-3.27,4.873,0,4.956c0,0,12.51,0,12.51,0
							C435.881,186.772,435.887,181.981,432.616,181.898z"/>
					</g>
					<g>
						<path style="fill:#FF9FB4;" d="M462.398,178.384H447.74c-2.756,0-4.99,2.234-4.99,4.99c0,2.756,2.234,4.99,4.99,4.99h14.658
							C468.99,188.162,468.996,178.588,462.398,178.384z"/>
						<path style="fill:#ED72AB;" d="M461.324,181.898h-12.51c-3.264,0.081-3.27,4.873,0,4.956c0,0,12.51,0,12.51,0
							C464.589,186.772,464.595,181.981,461.324,181.898z"/>
					</g>
				</g>
				<g>
					<path style="fill:#D15A96;" d="M19.9,202.58c3.494,1.937,7.905,1.22,10.63-1.77c0,0,9.19-10.13,9.19-10.13
						c5.75-6.33,13.91-9.94,22.46-9.94h17.58c11.84,0,21.43,9.6,21.43,21.44v95.29c0,25.1,20.35,45.45,45.46,45.45h57.4
						c28.917,0.135,52.152-23.96,51.95-51.95h-93.93c-13.53,0-24.51-10.97-24.51-24.51v-71.63c0-21.54-17.46-39.01-39.01-39.01
						H56.32c-10.03,0-19.41,4.95-25.06,13.24l-14.34,21.01C14.03,194.3,15.42,200.1,19.9,202.58z"/>
					<path style="fill:#ED72AB;" d="M19.9,202.58c3.494,1.937,7.905,1.22,10.63-1.77c0,0,9.19-10.13,9.19-10.13
						c5.75-6.33,13.91-9.94,22.46-9.94h17.58c11.835,0,21.43,9.595,21.43,21.43v95.3c0,25.101,20.349,45.45,45.45,45.45h57.41
						c22.93,0,42.4-14.86,49.28-35.48H148.46c-12.835,0-23.24-10.405-23.24-23.24v-84.324c0-14.699-11.916-26.616-26.616-26.616
						H57.097c-9.314,0-18.095,4.34-23.753,11.738L19.9,202.58z"/>
					<g>
						<path style="fill:#FF9FB4;" d="M190.516,313.351h30.975c5.824,0,10.545,4.721,10.545,10.545s-4.721,10.545-10.545,10.545
							h-30.975C176.533,333.879,176.521,313.918,190.516,313.351z"/>
						<path style="fill:#ED72AB;" d="M192.785,320.777h26.437c6.914,0.21,6.926,10.258,0,10.472c0,0-26.437,0-26.437,0
							C185.871,331.039,185.859,320.991,192.785,320.777z"/>
					</g>
					<g>
						<path style="fill:#FF9FB4;" d="M131.509,313.351h30.975c5.824,0,10.545,4.721,10.545,10.545
							c0,5.824-4.721,10.545-10.545,10.545h-30.975C117.526,333.879,117.514,313.918,131.509,313.351z"/>
						<path style="fill:#ED72AB;" d="M133.778,320.777h26.437c6.914,0.21,6.926,10.258,0,10.472c0,0-26.437,0-26.437,0
							C126.865,331.039,126.852,320.991,133.778,320.777z"/>
					</g>
					<g>
						<path style="fill:#FF9FB4;" d="M114.361,288.081v24.604c0,4.626-3.75,8.376-8.376,8.376c-4.626,0-8.376-3.75-8.376-8.376
							v-24.604C98.017,276.989,113.95,276.98,114.361,288.081z"/>
						<path style="fill:#ED72AB;" d="M108.463,289.883v20.999c-0.167,5.492-8.148,5.501-8.318,0c0,0,0-20.999,0-20.999
							C100.312,284.392,108.293,284.382,108.463,289.883z"/>
					</g>
					<g>
						<path style="fill:#FF9FB4;" d="M114.361,241.982v24.604c0,4.626-3.75,8.376-8.376,8.376c-4.626,0-8.376-3.75-8.376-8.376
							v-24.604C98.017,230.89,113.95,230.881,114.361,241.982z"/>
						<path style="fill:#ED72AB;" d="M108.463,243.784v20.999c-0.167,5.491-8.148,5.501-8.318,0c0,0,0-20.999,0-20.999
							C100.312,238.293,108.293,238.283,108.463,243.784z"/>
					</g>
					<g>
						<path style="fill:#FF9FB4;" d="M114.361,195.883v24.604c0,4.626-3.75,8.376-8.376,8.376c-4.626,0-8.376-3.75-8.376-8.376
							v-24.604C98.017,184.791,113.95,184.782,114.361,195.883z"/>
						<path style="fill:#ED72AB;" d="M108.463,197.685v20.999c-0.167,5.492-8.148,5.501-8.318,0c0,0,0-20.999,0-20.999
							C100.312,192.194,108.293,192.184,108.463,197.685z"/>
					</g>
					<g>
						<path style="fill:#FF9FB4;" d="M78.31,178.384h14.658c2.756,0,4.99,2.234,4.99,4.99c0,2.756-2.234,4.99-4.99,4.99H78.31
							C71.718,188.162,71.712,178.588,78.31,178.384z"/>
						<path style="fill:#ED72AB;" d="M79.384,181.898h12.51c3.264,0.081,3.27,4.873,0,4.956c0,0-12.51,0-12.51,0
							C76.119,186.772,76.113,181.981,79.384,181.898z"/>
					</g>
					<g>
						<path style="fill:#FF9FB4;" d="M49.602,178.384H64.26c2.756,0,4.99,2.234,4.99,4.99c0,2.756-2.234,4.99-4.99,4.99H49.602
							C43.01,188.162,43.004,178.588,49.602,178.384z"/>
						<path style="fill:#ED72AB;" d="M50.676,181.898h12.51c3.264,0.081,3.27,4.873,0,4.956c0,0-12.51,0-12.51,0
							C47.411,186.772,47.405,181.981,50.676,181.898z"/>
					</g>
				</g>
			</g>
		</g>
		<g>
			<path style="fill:#E063A2;" d="M334.757,121.091V256.04c0.113,27.956-18.727,52.836-45.435,60.523
				c-5.575,1.612-11.468,2.479-17.558,2.479h-31.514c-38.032,0-67.385-33.435-62.47-71.141l19.162-147.078
				c3.062-23.459,25.612-39.07,48.506-33.915c0.437,0.094,0.875,0.206,1.312,0.317l58.018,15.088
				C322.432,86.901,334.757,102.846,334.757,121.091z"/>
			<path style="fill:#ED72AB;" d="M334.757,121.091V256.04c0,11.425-3.045,22.147-8.363,31.385
				c-8.037,13.973-21.281,24.566-37.072,29.138c-5.575,1.612-11.468,2.479-17.558,2.479c-14.534,0-26.316-11.782-26.316-26.316
				V66.907c0.437,0.094,0.875,0.206,1.312,0.317l58.018,15.088C322.432,86.901,334.757,102.846,334.757,121.091z"/>
			<g>
				<g>
					<path style="fill:#D15A96;" d="M303.127,217.525c-23.917,25.918,11.671,61.494,37.572,37.572
						c10.215-10.105,10.498-27.137,0-37.572C330.277,207.04,313.227,207.305,303.127,217.525z"/>
					<path style="fill:#FF9FB4;" d="M312.723,211.38c-7.817,21.156,12.987,41.942,34.121,34.121
						C354.667,224.353,333.865,203.566,312.723,211.38z"/>
					<path style="fill:#9ACDAE;" d="M340.464,236.311c0.042,10.316-8.547,18.625-18.547,18.547
						c-24.603-0.974-24.597-36.135,0-37.094C331.918,217.693,340.506,225.973,340.464,236.311z"/>
					<path style="fill:#2E3140;" d="M330.299,228.926h-16.764c-3.408,0-6.171,2.763-6.171,6.171v2.428
						c0,3.408,2.763,6.171,6.171,6.171h16.764c3.408,0,6.171-2.763,6.171-6.171v-2.428
						C336.47,231.689,333.707,228.926,330.299,228.926z"/>
					<path style="fill:#FFFFFF;" d="M334.103,230.465c-0.281,8.416-12.434,8.346-12.68,0
						C321.666,222.115,333.827,222.051,334.103,230.465z"/>
				</g>
				<g>
					<path style="fill:#D15A96;" d="M171.297,217.525c-23.917,25.918,11.671,61.494,37.572,37.572
						c10.215-10.105,10.498-27.137,0-37.572C198.447,207.04,181.397,207.305,171.297,217.525z"/>
					<path style="fill:#FF9FB4;" d="M180.893,211.38c-7.817,21.156,12.987,41.942,34.121,34.121
						C222.837,224.353,202.035,203.566,180.893,211.38z"/>
					<path style="fill:#9ACDAE;" d="M208.634,236.311c0.042,10.316-8.547,18.625-18.547,18.547
						c-24.603-0.974-24.597-36.135,0-37.094C200.088,217.693,208.676,225.973,208.634,236.311z"/>
					<path style="fill:#2E3140;" d="M198.469,228.926h-16.764c-3.408,0-6.171,2.763-6.171,6.171v2.428
						c0,3.408,2.763,6.171,6.171,6.171h16.764c3.408,0,6.171-2.763,6.171-6.171v-2.428
						C204.639,231.689,201.877,228.926,198.469,228.926z"/>
					<path style="fill:#FFFFFF;" d="M202.273,230.465c-0.281,8.416-12.434,8.346-12.68,0
						C189.836,222.115,201.997,222.051,202.273,230.465z"/>
				</g>
			</g>
			<path style="fill:#FF9FB4;" d="M245.449,85.651l52.092,13.526c4.262,1.107,7.238,4.954,7.238,9.357
				c0,6.325-5.974,10.947-12.097,9.357l-47.233-12.264V85.651z"/>
		</g>
	</g>
</g>
</svg>
