<?xml version="1.0" encoding="iso-8859-1"?>
<!-- Generator: Adobe Illustrator 22.0.1, SVG Export Plug-In . SVG Version: 6.00 Build 0)  -->
<svg version="1.1" id="Icons" xmlns="http://www.w3.org/2000/svg" xmlns:xlink="http://www.w3.org/1999/xlink" x="0px" y="0px"
	 viewBox="0 0 512 512" style="enable-background:new 0 0 512 512;" xml:space="preserve">
<g>
	<circle style="fill:#EE6781;" cx="256" cy="256" r="254.17"/>
	<g>
		<g>
			<path style="fill:#F9C744;" d="M287.626,352.17h-63.251l-19.028,73.266c-5.467,18.178,8.143,36.483,27.125,36.483h47.057
				c18.982,0,32.592-18.305,27.125-36.483L287.626,352.17z"/>
			<g>
				<path style="fill:#FAD98F;" d="M250.212,419.627v17.733c0,6.213-6.508,10.279-12.092,7.556l-14.906-7.27
					c-3.553-1.733-5.418-5.707-4.482-9.548l3.933-16.125c1.29-5.287,7.186-7.974,12.022-5.478l10.973,5.663
					C248.456,413.599,250.212,416.482,250.212,419.627z"/>
				<path style="fill:#FAD98F;" d="M261.788,419.627v17.733c0,6.213,6.508,10.279,12.092,7.556l14.906-7.27
					c3.553-1.733,5.418-5.707,4.482-9.548l-3.933-16.125c-1.29-5.287-7.186-7.974-12.022-5.478l-10.973,5.663
					C263.544,413.599,261.788,416.482,261.788,419.627z"/>
			</g>
			<path style="fill:#528F66;" d="M256,404.508c16.471,0,30.861-8.236,35.001-20.032l9.798-27.915
				c4.835-11.896-7.202-23.876-23.99-23.876h-41.619c-16.788,0-28.825,11.979-23.99,23.876l9.798,27.915
				C225.139,396.273,239.529,404.508,256,404.508z"/>
		</g>
		<g>
			<g>
				<g>
					<g>
						<path style="fill:#F9C744;" d="M392.667,209.337c-4.728,20.823-26.391,96.234-27.084,98.599
							c-2.802,14.373-15.386,24.749-30.036,24.749c-16.787,0.019-30.592-13.617-30.59-30.59c1.183-10.175,7.515-84.531,7.915-98.599
							c0.673-16.882,13.692-30.59,30.59-30.59h19.177C381.88,172.906,397.06,190.611,392.667,209.337z"/>
					</g>
					<g>
						<path style="fill:#3F5D77;" d="M383.542,244.184c-8.12,29.648-17.958,63.752-17.958,63.752
							c-2.802,14.373-15.386,24.749-30.036,24.749c-7.218,0-13.858-2.501-19.09-6.688l22.184-53.502L383.542,244.184z"/>
					</g>
					<g>
						<g>
							<path style="fill:#3F5D77;" d="M323.223,208.408c-3.802,0.056-5.456-5.082-2.23-7.23c0,0,32.748-22.276,32.748-22.276
								c4.378-2.822,8.7,3.493,4.452,6.544c0,0-32.748,22.276-32.748,22.276C324.764,208.186,323.989,208.408,323.223,208.408z"/>
						</g>
						<g>
							<path style="fill:#3F5D77;" d="M325.962,227.12c-3.799,0.055-5.458-5.08-2.23-7.23c0,0,50.859-34.596,50.859-34.596
								c4.368-2.821,8.705,3.488,4.452,6.544c0,0-50.859,34.596-50.859,34.596C327.503,226.898,326.728,227.12,325.962,227.12z"/>
						</g>
						<g>
							<path style="fill:#3F5D77;" d="M327.286,247.243c-3.798,0.054-5.459-5.08-2.23-7.23c0,0,55.089-37.474,55.089-37.474
								c4.367-2.819,8.706,3.486,4.452,6.544c0,0-55.089,37.474-55.089,37.474C328.826,247.021,328.052,247.243,327.286,247.243z"/>
						</g>
						<g>
							<path style="fill:#3F5D77;" d="M320.271,272.991c-3.798,0.054-5.459-5.08-2.23-7.23c0,0,55.089-37.474,55.089-37.474
								c4.367-2.819,8.706,3.486,4.452,6.544c0,0-55.089,37.474-55.089,37.474C321.811,272.769,321.037,272.991,320.271,272.991z"/>
						</g>
					</g>
				</g>
				<g>
					<g>
						<path style="fill:#F9C744;" d="M119.333,209.337c4.728,20.823,26.391,96.234,27.084,98.599
							c2.802,14.373,15.386,24.749,30.036,24.749c16.787,0.019,30.592-13.617,30.59-30.59c-1.183-10.175-7.515-84.531-7.915-98.599
							c-0.673-16.882-13.692-30.59-30.59-30.59H149.36C130.12,172.906,114.94,190.611,119.333,209.337z"/>
					</g>
					<g>
						<path style="fill:#3F5D77;" d="M128.458,244.184c8.12,29.648,17.958,63.752,17.958,63.752
							c2.802,14.373,15.386,24.749,30.036,24.749c7.218,0,13.858-2.501,19.09-6.688l-22.184-53.502L128.458,244.184z"/>
					</g>
					<g>
						<g>
							<path style="fill:#3F5D77;" d="M188.776,208.408c-0.766,0-1.54-0.222-2.222-0.686l-32.747-22.276
								c-4.232-3.032,0.051-9.375,4.452-6.544c0,0,32.747,22.276,32.747,22.276C194.222,203.317,192.589,208.467,188.776,208.408z"
								/>
						</g>
						<g>
							<path style="fill:#3F5D77;" d="M186.037,227.12c-0.766,0-1.54-0.222-2.222-0.686l-50.859-34.596
								c-4.227-3.025,0.045-9.378,4.452-6.544c0,0,50.859,34.596,50.859,34.596C191.48,222.026,189.852,227.181,186.037,227.12z"/>
						</g>
						<g>
							<path style="fill:#3F5D77;" d="M184.715,247.243c-0.766,0-1.54-0.222-2.222-0.686l-55.089-37.474
								c-4.226-3.023,0.043-9.378,4.452-6.544c0,0,55.089,37.474,55.089,37.474C190.157,242.148,188.53,247.304,184.715,247.243z"/>
						</g>
						<g>
							<path style="fill:#3F5D77;" d="M191.729,272.991c-0.766,0-1.54-0.222-2.222-0.686l-55.089-37.474
								c-4.226-3.023,0.043-9.378,4.452-6.544c0,0,55.089,37.474,55.089,37.474C197.171,267.896,195.545,273.052,191.729,272.991z"
								/>
						</g>
					</g>
				</g>
			</g>
			<g>
				<path style="fill:#53B976;" d="M346.518,223.33c-3.391,21.16-11.244,70.229-14.547,90.859
					c-4.155,25.896-26.498,44.955-52.727,44.955h-46.482c-26.229,0-48.579-19.058-52.727-44.955l-5.073-31.674l-9.482-59.185
					c-5.192-32.442,19.866-61.844,52.727-61.844h75.592C326.652,161.485,351.718,190.888,346.518,223.33z"/>
				<path style="fill:#78C795;" d="M346.518,223.33l-9.189,57.38c-46.983,20.133-114.591,20.857-162.367,1.804l-9.482-59.185
					c-5.192-32.442,19.866-61.844,52.727-61.844h75.592C326.652,161.485,351.718,190.888,346.518,223.33z"/>
				<path style="fill:#9ACDAE;" d="M292.285,179.565h-72.568c-44.17,1.778-44.194,64.819,0,66.607c0,0,72.567,0,72.567,0
					C336.456,244.394,336.479,181.352,292.285,179.565z"/>
			</g>
			<g>
				<path style="fill:#F9C744;" d="M266.229,196.666h-20.454c-31.125,0-55.813-21.753-53.938-47.519l4.508-62.076
					c0.677-9.294,4.732-17.789,11.146-24.674c9.907-10.643,25.442-17.451,42.792-17.451h11.439
					c26.757,0.202,51.356,15.954,53.939,42.124c0,0,4.507,62.076,4.507,62.076C322.041,174.913,297.354,196.666,266.229,196.666z"/>
				<g>
					<g>
						<path style="fill:#B26E2B;" d="M276.118,118.589c0,4.778-2.853,13.021-6.163,20.994c-4.613,11.096-10.122,21.67-10.122,21.67
							c-1.34,3.52-6.323,3.52-7.662,0c0,0-5.509-10.575-10.122-21.67c-3.31-7.973-6.163-16.216-6.163-20.994
							c0-12.691,2.185-12.691,8.737-12.691h22.758C273.932,105.897,276.118,105.897,276.118,118.589z"/>
						<path style="fill:#DD8C29;" d="M269.955,139.582c-4.613,11.096-10.122,21.67-10.122,21.67c-1.34,3.52-6.323,3.52-7.662,0
							c0,0-5.509-10.575-10.122-21.67c4.608-11.096,10.122-21.675,10.122-21.675c1.34-3.52,6.323-3.52,7.662,0
							C259.833,117.907,265.346,128.487,269.955,139.582z"/>
						<path style="fill:#F9C744;" d="M256.002,146.937c-2.227,0-4.032-1.805-4.032-4.032v-18.067c0-2.227,1.805-4.032,4.032-4.032
							c2.227,0,4.032,1.805,4.032,4.032v18.067C260.034,145.132,258.229,146.937,256.002,146.937z"/>
						<path style="fill:#FAEFDC;" d="M256.002,132.586c-2.227,0-4.032-1.805-4.032-4.032v-3.716c0.164-5.329,7.901-5.33,8.065,0
							c0,0,0,3.716,0,3.716C260.034,130.781,258.229,132.586,256.002,132.586z"/>
					</g>
					<g>
						<path style="fill:#22A8B9;" d="M257.945,92.758c-0.012,0.981,0.053,7.359-0.064,8.193
							c-0.663,6.812-6.401,12.138-13.391,12.138c-7.432-0.003-13.45-6.026-13.45-13.455v-6.876
							c-0.003-7.484,6.107-13.467,13.45-13.45C251.924,79.308,257.945,85.329,257.945,92.758z"/>
						<path style="fill:#22A8B9;" d="M280.964,92.758c-0.012,0.981,0.053,7.359-0.064,8.193
							c-0.663,6.812-6.401,12.138-13.386,12.138c-7.431-0.002-13.453-6.024-13.455-13.455v-6.876
							c-0.004-7.486,6.112-13.468,13.455-13.45C274.943,79.308,280.964,85.329,280.964,92.758z"/>
						<path style="fill:#22BCE0;" d="M254.059,99.634c0,1.02,0.114,2.012,0.334,2.963c-8.428,2.697-17.529-3.98-17.377-12.87
							c0.021-0.941-0.059-7.387,0.064-8.193c6.039-4.272,15.377-2.056,18.923,4.256c-1.234,2.03-1.943,4.416-1.943,6.967V99.634z"/>
						<path style="fill:#22BCE0;" d="M280.964,92.758c-0.022,0.989,0.06,7.354-0.064,8.193c-8.722,5.91-20.975-0.6-20.866-11.224
							c0.021-0.942-0.059-7.387,0.064-8.192C268.756,75.607,281.124,82.174,280.964,92.758z"/>
						<path style="fill:#83D5EF;" d="M276.862,88.248c0-4.154-3.368-7.522-7.522-7.522c-9.957,0.344-9.955,14.702,0,15.044
							C273.494,95.77,276.862,92.403,276.862,88.248z"/>
						<path style="fill:#83D5EF;" d="M253.843,88.248c0-4.154-3.368-7.522-7.522-7.522c-9.957,0.344-9.955,14.702,0,15.044
							C250.475,95.77,253.843,92.403,253.843,88.248z"/>
						<path style="fill:#3F5D77;" d="M271.23,89.373c-0.124,4.905-7.314,4.904-7.437,0C263.917,84.468,271.106,84.469,271.23,89.373
							z"/>
						<path style="fill:#3F5D77;" d="M248.211,89.373c-0.124,4.905-7.314,4.904-7.437,0
							C240.898,84.468,248.087,84.469,248.211,89.373z"/>
					</g>
				</g>
				<g>
					<g>
						<path style="fill:#334353;" d="M306.154,90.481c-0.024,0.839,0.098,11.469-0.114,11.96c-0.668,4.077-4.2,7.123-8.394,7.123
							c-4.7,0-8.508-3.808-8.508-8.508V90.481C289.579,79.176,305.752,79.253,306.154,90.481z"/>
						<path style="fill:#2D2C33;" d="M306.154,90.481c-0.042,0.847,0.111,11.464-0.114,11.96
							c-5.421,2.534-12.091-1.752-11.951-7.781c0.032-0.816-0.1-11.481,0.11-11.955C299.615,80.17,306.295,84.455,306.154,90.481z"
							/>
						<path style="fill:#FFFFFF;" d="M303.138,87.808c1.666,0,3.016,1.35,3.016,3.016v2.358c-0.101,3.977-5.932,3.978-6.033,0
							c0,0,0-2.357,0-2.357C300.122,89.159,301.472,87.808,303.138,87.808z"/>
					</g>
					<g>
						<path style="fill:#334353;" d="M205.849,90.481c0.024,0.839-0.098,11.469,0.114,11.96c0.668,4.077,4.2,7.123,8.394,7.123
							c4.7,0,8.508-3.808,8.508-8.508V90.481C222.425,79.176,206.251,79.253,205.849,90.481z"/>
						<path style="fill:#2D2C33;" d="M205.849,90.481c0.042,0.847-0.111,11.464,0.114,11.96c5.421,2.534,12.091-1.752,11.951-7.781
							c-0.032-0.816,0.1-11.481-0.11-11.955C212.388,80.17,205.709,84.455,205.849,90.481z"/>
						<path style="fill:#FFFFFF;" d="M208.865,87.808c-1.666,0-3.016,1.35-3.016,3.016v2.358c0.101,3.977,5.932,3.978,6.033,0
							c0,0,0-2.357,0-2.357C211.881,89.159,210.531,87.808,208.865,87.808z"/>
					</g>
				</g>
				<g>
					<path style="fill:#FAD98F;" d="M268.966,170.728c0-1.911,0.433-3.797,1.265-5.517l8.95-18.486
						c3.805-7.859,14.237-9.598,20.385-3.396l5.618,5.666c4.458,4.497,4.908,11.597,1.053,16.62l-4.271,5.565
						c-4.182,5.449-9.923,9.494-16.461,11.599C277.331,185.41,268.966,179.314,268.966,170.728z"/>
					<path style="fill:#FAD98F;" d="M243.037,170.728c0-1.911-0.433-3.797-1.265-5.517l-8.95-18.486
						c-3.805-7.859-14.237-9.598-20.385-3.396l-5.618,5.666c-4.458,4.497-4.908,11.597-1.053,16.62l4.271,5.565
						c4.182,5.449,9.923,9.494,16.461,11.599C234.672,185.41,243.037,179.314,243.037,170.728z"/>
				</g>
				<g>
					<path style="fill:#3F5D77;" d="M291.882,130.843h-5.944c-3.184,0-5.765,2.581-5.765,5.765v5.944
						c0,3.184,2.581,5.765,5.765,5.765h5.944c3.184,0,5.765-2.581,5.765-5.765v-5.944
						C297.646,133.424,295.065,130.843,291.882,130.843z"/>
					<path style="fill:#3F5D77;" d="M300.972,152.022h-4.476c-2.398,0-4.341,1.944-4.341,4.341v4.476
						c0,2.398,1.944,4.341,4.341,4.341h4.476c2.397,0,4.341-1.944,4.341-4.341v-4.476
						C305.313,153.966,303.369,152.022,300.972,152.022z"/>
					<path style="fill:#3F5D77;" d="M289.324,167.913h-3.396c-1.819,0-3.294,1.475-3.294,3.294v3.396
						c0,1.819,1.475,3.294,3.294,3.294h3.396c1.819,0,3.294-1.475,3.294-3.294v-3.396
						C292.618,169.388,291.143,167.913,289.324,167.913z"/>
					<path style="fill:#3F5D77;" d="M274.967,175.732h-2.608c-1.397,0-2.529,1.132-2.529,2.529v2.608
						c0,1.397,1.132,2.529,2.529,2.529h2.608c1.397,0,2.529-1.132,2.529-2.529v-2.608
						C277.495,176.864,276.363,175.732,274.967,175.732z"/>
				</g>
				<g>
					<path style="fill:#3F5D77;" d="M220.122,130.843h5.944c3.184,0,5.765,2.581,5.765,5.765v5.944c0,3.184-2.581,5.765-5.765,5.765
						h-5.944c-3.184,0-5.765-2.581-5.765-5.765v-5.944C214.357,133.424,216.938,130.843,220.122,130.843z"/>
					<path style="fill:#3F5D77;" d="M211.032,152.022h4.476c2.398,0,4.341,1.944,4.341,4.341v4.476c0,2.398-1.944,4.341-4.341,4.341
						h-4.476c-2.398,0-4.341-1.944-4.341-4.341v-4.476C206.691,153.966,208.634,152.022,211.032,152.022z"/>
					<path style="fill:#3F5D77;" d="M222.679,167.913h3.396c1.819,0,3.294,1.475,3.294,3.294v3.396c0,1.819-1.475,3.294-3.294,3.294
						h-3.396c-1.819,0-3.294-1.475-3.294-3.294v-3.396C219.385,169.388,220.86,167.913,222.679,167.913z"/>
					<path style="fill:#3F5D77;" d="M237.037,175.732h2.608c1.397,0,2.529,1.132,2.529,2.529v2.608c0,1.397-1.132,2.529-2.529,2.529
						h-2.608c-1.397,0-2.529-1.132-2.529-2.529v-2.608C234.508,176.864,235.64,175.732,237.037,175.732z"/>
				</g>
				<path style="fill:#FAD98F;" d="M304.513,62.396c-28.402,15.232-68.621,15.232-97.023,0
					c9.907-10.643,25.442-17.451,42.792-17.451h11.439C279.071,44.946,294.606,51.753,304.513,62.396z"/>
			</g>
		</g>
		<g>
			<path style="fill:#B26E2B;" d="M427.973,371.137H84.027c-6.353,0-11.503-5.15-11.503-11.503c0-6.353,5.15-11.503,11.503-11.503
				h343.946C443.132,348.698,443.33,370.479,427.973,371.137z"/>
			<path style="fill:#DD8C29;" d="M170.256,362.191h-72.78c-9.285-0.312-9.322-13.733,0-14.059c0,0,72.78,0,72.78,0
				C179.541,348.443,179.578,361.864,170.256,362.191z"/>
			<path style="fill:#DD8C29;" d="M414.525,362.191h-72.78c-9.285-0.312-9.322-13.733,0-14.059c0,0,72.78,0,72.78,0
				C423.81,348.443,423.846,361.864,414.525,362.191z"/>
		</g>
		<g>
			<g>
				<path style="fill:#DD8C29;" d="M219.527,342.38v29.228c0,3.69-1.493,7.023-3.911,9.431c-8.217,8.338-22.813,2.433-22.773-9.431
					c0,0,0-29.227,0-29.227c0-5.212,2.986-9.72,7.341-11.916C208.766,325.935,219.711,332.61,219.527,342.38z"/>
				<path style="fill:#DD8C29;" d="M246.212,342.38v29.228c0,3.69-1.493,7.023-3.911,9.431c-8.217,8.338-22.813,2.433-22.773-9.431
					c0,0,0-29.227,0-29.227c0-5.212,2.986-9.72,7.341-11.916C235.451,325.935,246.396,332.61,246.212,342.38z"/>
				<path style="fill:#F9C744;" d="M219.527,342.38v14.681c0,2.803-1.137,5.347-2.977,7.186c-6.219,6.353-17.407,1.817-17.34-7.187
					c0,0,0-22.243,0-22.243c0-1.561,0.347-3.035,0.973-4.354C208.767,325.931,219.711,332.615,219.527,342.38z"/>
				<path style="fill:#F9C744;" d="M246.212,342.38v14.681c0,2.803-1.137,5.347-2.977,7.186c-6.217,6.359-17.411,1.807-17.34-7.187
					c0,0,0-22.243,0-22.243c0-1.561,0.347-3.035,0.973-4.354C235.451,325.931,246.396,332.615,246.212,342.38z"/>
			</g>
			<g>
				<path style="fill:#DD8C29;" d="M292.473,342.38v29.228c0,3.69-1.493,7.023-3.911,9.431c-8.217,8.338-22.813,2.433-22.773-9.431
					c0,0,0-29.227,0-29.227c0-5.212,2.986-9.72,7.341-11.916C281.712,325.935,292.657,332.61,292.473,342.38z"/>
				<path style="fill:#DD8C29;" d="M319.157,342.38v29.228c0,3.69-1.493,7.023-3.911,9.431c-8.217,8.338-22.813,2.433-22.773-9.431
					c0,0,0-29.227,0-29.227c0-5.212,2.986-9.72,7.341-11.916C308.396,325.935,319.341,332.61,319.157,342.38z"/>
				<path style="fill:#F9C744;" d="M292.473,342.38v14.681c0,2.803-1.137,5.347-2.977,7.186c-6.219,6.353-17.407,1.817-17.34-7.187
					c0,0,0-22.243,0-22.243c0-1.561,0.347-3.035,0.973-4.354C281.712,325.931,292.657,332.615,292.473,342.38z"/>
				<path style="fill:#F9C744;" d="M319.157,342.38v14.681c0,2.803-1.137,5.347-2.977,7.186c-6.217,6.359-17.411,1.807-17.34-7.187
					c0,0,0-22.243,0-22.243c0-1.561,0.347-3.035,0.973-4.354C308.396,325.931,319.341,332.615,319.157,342.38z"/>
			</g>
		</g>
	</g>
</g>
</svg>
