<?xml version="1.0" encoding="iso-8859-1"?>
<!-- Generator: Adobe Illustrator 22.0.1, SVG Export Plug-In . SVG Version: 6.00 Build 0)  -->
<svg version="1.1" id="Icons" xmlns="http://www.w3.org/2000/svg" xmlns:xlink="http://www.w3.org/1999/xlink" x="0px" y="0px"
	 viewBox="0 0 512 512" style="enable-background:new 0 0 512 512;" xml:space="preserve">
<g>
	<circle style="fill:#6C53A2;" cx="256" cy="256" r="256"/>
	<g>
		<g>
			<g>
				<path style="fill:#2E3140;" d="M401.947,367.852c-1.1,1.1-2.63,1.79-4.32,1.78l-32.96,0.01c-4.97-0.06-7.1-5.01-5.57-8.61
					c0.63-1.52,1.92-2.8,3.92-3.38c0.52-0.14,1.08-0.22,1.65-0.23l32.96-0.01c2.65-0.05,4.68,1.61,5.58,3.75
					C404.127,363.332,403.877,366.002,401.947,367.852z"/>
				<path style="fill:#334353;" d="M403.207,361.163c-0.28,0.65-0.7,1.25-1.26,1.79c-1.1,1.1-2.63,1.79-4.32,1.78l-32.96,0.01
					c-2.84-0.03-4.75-1.65-5.57-3.71c0.63-1.52,1.92-2.8,3.92-3.38c0.52-0.14,1.08-0.22,1.65-0.23l32.96-0.01
					C400.277,357.362,402.307,359.022,403.207,361.163z"/>
				<path style="fill:#3E4E60;" d="M393.105,359.574H369.2c-1.426,0-2.582,1.156-2.582,2.582v0c0,1.426,1.156,2.582,2.582,2.582
					h23.905c1.426,0,2.582-1.156,2.582-2.582v0C395.686,360.73,394.531,359.574,393.105,359.574z"/>
			</g>
			<g>
				<path style="fill:#2E3140;" d="M401.947,404.884c-1.1,1.1-2.63,1.79-4.32,1.78l-32.96,0.01c-4.97-0.06-7.1-5.01-5.57-8.61
					c0.63-1.52,1.92-2.8,3.92-3.38c0.52-0.14,1.08-0.22,1.65-0.23l32.96-0.01c2.65-0.05,4.68,1.61,5.58,3.75
					C404.127,400.364,403.877,403.034,401.947,404.884z"/>
				<path style="fill:#334353;" d="M403.207,398.194c-0.28,0.65-0.7,1.25-1.26,1.79c-1.1,1.1-2.63,1.79-4.32,1.78l-32.96,0.01
					c-2.84-0.03-4.75-1.65-5.57-3.71c0.63-1.52,1.92-2.8,3.92-3.38c0.52-0.14,1.08-0.22,1.65-0.23l32.96-0.01
					C400.277,394.394,402.307,396.054,403.207,398.194z"/>
				<path style="fill:#3E4E60;" d="M393.105,396.606H369.2c-1.426,0-2.582,1.156-2.582,2.582l0,0c0,1.426,1.156,2.582,2.582,2.582
					h23.905c1.426,0,2.582-1.156,2.582-2.582l0,0C395.686,397.762,394.531,396.606,393.105,396.606z"/>
			</g>
			<g>
				<path style="fill:#2E3140;" d="M401.947,330.744c-1.1,1.1-2.63,1.79-4.32,1.78l-32.96,0.01c-4.97-0.06-7.1-5.01-5.57-8.61
					c0.63-1.52,1.92-2.8,3.92-3.38c0.52-0.14,1.08-0.22,1.65-0.23l32.96-0.01c2.65-0.05,4.68,1.61,5.58,3.75
					C404.127,326.224,403.877,328.894,401.947,330.744z"/>
				<path style="fill:#334353;" d="M403.207,324.054c-0.28,0.65-0.7,1.25-1.26,1.79c-1.1,1.1-2.63,1.79-4.32,1.78l-32.96,0.01
					c-2.84-0.03-4.75-1.65-5.57-3.71c0.63-1.52,1.92-2.8,3.92-3.38c0.52-0.14,1.08-0.22,1.65-0.23l32.96-0.01
					C400.277,320.254,402.307,321.914,403.207,324.054z"/>
				<path style="fill:#3E4E60;" d="M393.105,322.466H369.2c-1.426,0-2.582,1.156-2.582,2.582l0,0c0,1.426,1.156,2.582,2.582,2.582
					h23.905c1.426,0,2.582-1.156,2.582-2.582l0,0C395.686,323.622,394.531,322.466,393.105,322.466z"/>
			</g>
			<g>
				<path style="fill:#2E3140;" d="M401.947,293.717c-1.1,1.1-2.63,1.79-4.32,1.78l-32.96,0.01c-4.97-0.06-7.1-5.01-5.57-8.61
					c0.63-1.52,1.92-2.8,3.92-3.38c0.52-0.14,1.08-0.22,1.65-0.23l32.96-0.01c2.65-0.05,4.68,1.61,5.58,3.75
					C404.127,289.197,403.877,291.867,401.947,293.717z"/>
				<path style="fill:#334353;" d="M403.207,287.027c-0.28,0.65-0.7,1.25-1.26,1.79c-1.1,1.1-2.63,1.79-4.32,1.78l-32.96,0.01
					c-2.84-0.03-4.75-1.65-5.57-3.71c0.63-1.52,1.92-2.8,3.92-3.38c0.52-0.14,1.08-0.22,1.65-0.23l32.96-0.01
					C400.277,283.227,402.307,284.887,403.207,287.027z"/>
				<path style="fill:#3E4E60;" d="M393.105,285.439H369.2c-1.426,0-2.582,1.156-2.582,2.582l0,0c0,1.426,1.156,2.582,2.582,2.582
					h23.905c1.426,0,2.582-1.156,2.582-2.582l0,0C395.686,286.594,394.531,285.439,393.105,285.439z"/>
			</g>
			<g>
				<path style="fill:#2E3140;" d="M151.615,190.121c-1.1,1.1-2.63,1.79-4.32,1.78l-32.96,0.01c-4.97-0.06-7.1-5.01-5.57-8.61
					c0.63-1.52,1.92-2.8,3.92-3.38c0.52-0.14,1.08-0.22,1.65-0.23l32.96-0.01c2.65-0.05,4.68,1.61,5.58,3.75
					C153.795,185.601,153.545,188.271,151.615,190.121z"/>
				<path style="fill:#334353;" d="M152.875,183.431c-0.28,0.65-0.7,1.25-1.26,1.79c-1.1,1.1-2.63,1.79-4.32,1.78l-32.96,0.01
					c-2.84-0.03-4.75-1.65-5.57-3.71c0.63-1.52,1.92-2.8,3.92-3.38c0.52-0.14,1.08-0.22,1.65-0.23l32.96-0.01
					C149.945,179.63,151.975,181.291,152.875,183.431z"/>
				<path style="fill:#3E4E60;" d="M142.773,181.842h-23.905c-1.426,0-2.582,1.156-2.582,2.582l0,0c0,1.426,1.156,2.582,2.582,2.582
					h23.905c1.426,0,2.582-1.156,2.582-2.582l0,0C145.354,182.998,144.198,181.842,142.773,181.842z"/>
			</g>
			<g>
				<path style="fill:#2E3140;" d="M151.615,227.152c-1.1,1.1-2.63,1.79-4.32,1.78l-32.96,0.01c-4.97-0.06-7.1-5.01-5.57-8.61
					c0.63-1.52,1.92-2.8,3.92-3.38c0.52-0.14,1.08-0.22,1.65-0.23l32.96-0.01c2.65-0.05,4.68,1.61,5.58,3.75
					C153.795,222.632,153.545,225.302,151.615,227.152z"/>
				<path style="fill:#334353;" d="M152.875,220.462c-0.28,0.65-0.7,1.25-1.26,1.79c-1.1,1.1-2.63,1.79-4.32,1.78l-32.96,0.01
					c-2.84-0.03-4.75-1.65-5.57-3.71c0.63-1.52,1.92-2.8,3.92-3.38c0.52-0.14,1.08-0.22,1.65-0.23l32.96-0.01
					C149.945,216.662,151.975,218.322,152.875,220.462z"/>
				<path style="fill:#3E4E60;" d="M142.773,218.874h-23.905c-1.426,0-2.582,1.156-2.582,2.582l0,0c0,1.426,1.156,2.582,2.582,2.582
					h23.905c1.426,0,2.582-1.156,2.582-2.582l0,0C145.354,220.03,144.198,218.874,142.773,218.874z"/>
			</g>
			<g>
				<path style="fill:#2E3140;" d="M289.578,367.852c-1.1,1.1-2.63,1.79-4.32,1.78l-32.96,0.01c-4.97-0.06-7.1-5.01-5.57-8.61
					c0.63-1.52,1.92-2.8,3.92-3.38c0.52-0.14,1.08-0.22,1.65-0.23l32.96-0.01c2.65-0.05,4.68,1.61,5.58,3.75
					C291.757,363.332,291.507,366.002,289.578,367.852z"/>
				<path style="fill:#334353;" d="M290.838,361.163c-0.28,0.65-0.7,1.25-1.26,1.79c-1.1,1.1-2.63,1.79-4.32,1.78l-32.96,0.01
					c-2.84-0.03-4.75-1.65-5.57-3.71c0.63-1.52,1.92-2.8,3.92-3.38c0.52-0.14,1.08-0.22,1.65-0.23l32.96-0.01
					C287.908,357.362,289.938,359.022,290.838,361.163z"/>
				<path style="fill:#3E4E60;" d="M280.735,359.574H256.83c-1.426,0-2.582,1.156-2.582,2.582v0c0,1.426,1.156,2.582,2.582,2.582
					h23.905c1.426,0,2.582-1.156,2.582-2.582v0C283.317,360.73,282.161,359.574,280.735,359.574z"/>
			</g>
			<g>
				<path style="fill:#2E3140;" d="M289.578,404.884c-1.1,1.1-2.63,1.79-4.32,1.78l-32.96,0.01c-4.97-0.06-7.1-5.01-5.57-8.61
					c0.63-1.52,1.92-2.8,3.92-3.38c0.52-0.14,1.08-0.22,1.65-0.23l32.96-0.01c2.65-0.05,4.68,1.61,5.58,3.75
					C291.757,400.364,291.507,403.034,289.578,404.884z"/>
				<path style="fill:#334353;" d="M290.838,398.194c-0.28,0.65-0.7,1.25-1.26,1.79c-1.1,1.1-2.63,1.79-4.32,1.78l-32.96,0.01
					c-2.84-0.03-4.75-1.65-5.57-3.71c0.63-1.52,1.92-2.8,3.92-3.38c0.52-0.14,1.08-0.22,1.65-0.23l32.96-0.01
					C287.908,394.394,289.938,396.054,290.838,398.194z"/>
				<path style="fill:#3E4E60;" d="M280.735,396.606H256.83c-1.426,0-2.582,1.156-2.582,2.582l0,0c0,1.426,1.156,2.582,2.582,2.582
					h23.905c1.426,0,2.582-1.156,2.582-2.582l0,0C283.317,397.762,282.161,396.606,280.735,396.606z"/>
			</g>
			<g>
				<path style="fill:#2E3140;" d="M226.893,299.336c1.1,1.1,1.79,2.63,1.78,4.32l0.01,32.96c-0.06,4.97-5.01,7.1-8.61,5.57
					c-1.52-0.63-2.8-1.92-3.38-3.92c-0.14-0.52-0.22-1.08-0.23-1.65l-0.01-32.96c-0.05-2.65,1.61-4.68,3.75-5.58
					C222.373,297.156,225.043,297.406,226.893,299.336z"/>
				<path style="fill:#334353;" d="M220.203,298.076c0.65,0.28,1.25,0.7,1.79,1.26c1.1,1.1,1.79,2.63,1.78,4.32l0.01,32.96
					c-0.03,2.84-1.65,4.75-3.71,5.57c-1.52-0.63-2.8-1.92-3.38-3.92c-0.14-0.52-0.22-1.08-0.23-1.65l-0.01-32.96
					C216.403,301.006,218.063,298.976,220.203,298.076z"/>
				<path style="fill:#3E4E60;" d="M218.615,308.178v23.905c0,1.426,1.156,2.582,2.582,2.582h0c1.426,0,2.582-1.156,2.582-2.582
					v-23.905c0-1.426-1.156-2.582-2.582-2.582h0C219.771,305.597,218.615,306.752,218.615,308.178z"/>
			</g>
			<g>
				<path style="fill:#2E3140;" d="M263.925,299.336c1.1,1.1,1.79,2.63,1.78,4.32l0.01,32.96c-0.06,4.97-5.01,7.1-8.61,5.57
					c-1.52-0.63-2.8-1.92-3.38-3.92c-0.14-0.52-0.22-1.08-0.23-1.65l-0.01-32.96c-0.05-2.65,1.61-4.68,3.75-5.58
					C259.405,297.156,262.075,297.406,263.925,299.336z"/>
				<path style="fill:#334353;" d="M257.235,298.076c0.65,0.28,1.25,0.7,1.79,1.26c1.1,1.1,1.79,2.63,1.78,4.32l0.01,32.96
					c-0.03,2.84-1.65,4.75-3.71,5.57c-1.52-0.63-2.8-1.92-3.38-3.92c-0.14-0.52-0.22-1.08-0.23-1.65l-0.01-32.96
					C253.434,301.006,255.095,298.976,257.235,298.076z"/>
				<path style="fill:#3E4E60;" d="M255.646,308.178v23.905c0,1.426,1.156,2.582,2.582,2.582l0,0c1.426,0,2.582-1.156,2.582-2.582
					v-23.905c0-1.426-1.156-2.582-2.582-2.582l0,0C256.802,305.597,255.646,306.752,255.646,308.178z"/>
			</g>
			<g>
				<path style="fill:#2E3140;" d="M254.025,186.345c1.1,1.1,1.79,2.63,1.78,4.32l0.01,32.96c-0.06,4.97-5.01,7.1-8.61,5.57
					c-1.52-0.63-2.8-1.92-3.38-3.92c-0.14-0.52-0.22-1.08-0.23-1.65l-0.01-32.96c-0.05-2.65,1.61-4.68,3.75-5.58
					C249.505,184.165,252.175,184.415,254.025,186.345z"/>
				<path style="fill:#334353;" d="M247.335,185.085c0.65,0.28,1.25,0.7,1.79,1.26c1.1,1.1,1.79,2.63,1.78,4.32l0.01,32.96
					c-0.03,2.84-1.65,4.75-3.71,5.57c-1.52-0.63-2.8-1.92-3.38-3.92c-0.14-0.52-0.22-1.08-0.23-1.65l-0.01-32.96
					C243.535,188.015,245.195,185.985,247.335,185.085z"/>
				<path style="fill:#3E4E60;" d="M245.747,195.187v23.905c0,1.426,1.156,2.582,2.582,2.582l0,0c1.426,0,2.582-1.156,2.582-2.582
					v-23.905c0-1.426-1.156-2.582-2.582-2.582l0,0C246.903,192.606,245.747,193.762,245.747,195.187z"/>
			</g>
			<g>
				<path style="fill:#2E3140;" d="M291.057,186.345c1.1,1.1,1.79,2.63,1.78,4.32l0.01,32.96c-0.06,4.97-5.01,7.1-8.61,5.57
					c-1.52-0.63-2.8-1.92-3.38-3.92c-0.14-0.52-0.22-1.08-0.23-1.65l-0.01-32.96c-0.05-2.65,1.61-4.68,3.75-5.58
					C286.537,184.165,289.207,184.415,291.057,186.345z"/>
				<path style="fill:#334353;" d="M284.367,185.085c0.65,0.28,1.25,0.7,1.79,1.26c1.1,1.1,1.79,2.63,1.78,4.32l0.01,32.96
					c-0.03,2.84-1.65,4.75-3.71,5.57c-1.52-0.63-2.8-1.92-3.38-3.92c-0.14-0.52-0.22-1.08-0.23-1.65l-0.01-32.96
					C280.567,188.015,282.227,185.985,284.367,185.085z"/>
				<path style="fill:#3E4E60;" d="M282.779,195.187v23.905c0,1.426,1.156,2.582,2.582,2.582l0,0c1.426,0,2.582-1.156,2.582-2.582
					v-23.905c0-1.426-1.156-2.582-2.582-2.582l0,0C283.934,192.606,282.779,193.762,282.779,195.187z"/>
			</g>
			<g>
				<path style="fill:#2E3140;" d="M333.498,191.216c0.846,1.305,1.202,2.946,0.839,4.596l-6.868,32.236
					c-1.096,4.848-6.382,5.898-9.583,3.65c-1.355-0.933-2.337-2.462-2.487-4.539c-0.029-0.538,0.01-1.102,0.119-1.662l6.869-32.236
					c0.504-2.602,2.551-4.241,4.832-4.675C329.532,188.141,332.091,188.942,333.498,191.216z"/>
				<path style="fill:#334353;" d="M327.218,188.588c0.577,0.409,1.076,0.945,1.487,1.606c0.846,1.305,1.202,2.946,0.84,4.596
					l-6.869,32.236c-0.622,2.771-2.605,4.301-4.791,4.673c-1.355-0.933-2.337-2.462-2.487-4.539
					c-0.029-0.538,0.01-1.102,0.119-1.662l6.869-32.236C322.89,190.66,324.937,189.021,327.218,188.588z"/>
				<path style="fill:#3E4E60;" d="M323.556,198.136l-4.989,23.379c-0.298,1.394,0.592,2.766,1.986,3.064l0,0
					c1.394,0.298,2.766-0.592,3.064-1.986l4.989-23.379c0.298-1.394-0.592-2.766-1.986-3.064l0,0
					C325.225,195.853,323.854,196.742,323.556,198.136z"/>
			</g>
			<g>
				<path style="fill:#2E3140;" d="M373.748,213.885c0.145,1.549-0.3,3.167-1.387,4.462l-21.028,25.381
					c-3.218,3.788-8.388,2.268-10.183-1.207c-0.768-1.455-0.93-3.265-0.1-5.175c0.224-0.49,0.52-0.972,0.876-1.417l21.029-25.38
					c1.653-2.072,4.226-2.576,6.448-1.902C371.66,209.322,373.555,211.218,373.748,213.885z"/>
				<path style="fill:#334353;" d="M369.402,208.645c0.322,0.63,0.516,1.337,0.573,2.112c0.145,1.549-0.3,3.167-1.387,4.462
					L347.56,240.6c-1.835,2.167-4.302,2.604-6.411,1.92c-0.768-1.455-0.93-3.265-0.1-5.175c0.224-0.49,0.52-0.972,0.876-1.417
					l21.029-25.38C364.606,208.475,367.18,207.972,369.402,208.645z"/>
				<path style="fill:#3E4E60;" d="M361.731,215.409l-15.257,18.403c-0.91,1.098-0.758,2.725,0.34,3.635l0,0
					c1.098,0.91,2.725,0.758,3.635-0.34l15.257-18.403c0.91-1.098,0.758-2.725-0.34-3.635l0,0
					C364.269,214.159,362.641,214.311,361.731,215.409z"/>
			</g>
			<g>
				<path style="fill:#2E3140;" d="M397.323,252.621c-0.587,1.44-1.729,2.67-3.291,3.317l-30.373,12.799
					c-4.604,1.873-8.488-1.863-8.475-5.774c-0.009-1.645,0.683-3.325,2.301-4.636c0.425-0.331,0.91-0.622,1.431-0.852l30.374-12.799
					c2.423-1.075,4.938-0.332,6.598,1.291C397.578,247.609,398.384,250.167,397.323,252.621z"/>
				<path style="fill:#334353;" d="M395.888,245.966c-0.006,0.708-0.16,1.424-0.467,2.138c-0.587,1.441-1.729,2.67-3.291,3.317
					l-30.374,12.799c-2.629,1.075-5.018,0.323-6.573-1.258c-0.009-1.645,0.683-3.325,2.301-4.636
					c0.425-0.331,0.91-0.622,1.431-0.852l30.374-12.799C391.713,243.601,394.229,244.343,395.888,245.966z"/>
				<path style="fill:#3E4E60;" d="M385.961,248.422l-22.032,9.276c-1.314,0.553-1.931,2.067-1.378,3.381l0,0
					c0.553,1.314,2.067,1.931,3.381,1.378l22.032-9.276c1.314-0.553,1.931-2.067,1.378-3.381l0,0
					C388.789,248.486,387.275,247.869,385.961,248.422z"/>
			</g>
			<g>
				<path style="fill:#2E3140;" d="M154.167,259.143c-0.844,1.307-2.194,2.304-3.848,2.65l-32.218,6.954
					c-4.871,0.988-7.996-3.402-7.259-7.244c0.296-1.619,1.287-3.141,3.12-4.13c0.479-0.247,1.01-0.442,1.564-0.572l32.218-6.953
					c2.58-0.607,4.914,0.588,6.245,2.49C155.346,254.265,155.664,256.928,154.167,259.143z"/>
				<path style="fill:#334353;" d="M153.989,252.338c-0.137,0.694-0.421,1.369-0.855,2.015c-0.843,1.307-2.194,2.304-3.848,2.65
					l-32.218,6.953c-2.782,0.569-4.991-0.612-6.226-2.453c0.296-1.619,1.287-3.141,3.12-4.13c0.479-0.247,1.01-0.442,1.564-0.572
					l32.218-6.953C150.325,249.24,152.659,250.435,153.989,252.338z"/>
				<path style="fill:#3E4E60;" d="M143.779,252.913l-23.368,5.036c-1.394,0.3-2.28,1.674-1.98,3.068l0,0
					c0.3,1.394,1.674,2.28,3.068,1.98l23.368-5.036c1.394-0.3,2.28-1.674,1.98-3.068l0,0
					C146.546,253.499,145.173,252.613,143.779,252.913z"/>
			</g>
			<g>
				<path style="fill:#2E3140;" d="M168.368,285.786c-0.26,1.533-1.108,2.982-2.492,3.952l-26.868,19.091
					c-4.087,2.828-8.69,0.025-9.526-3.796c-0.366-1.604-0.056-3.394,1.239-5.025c0.343-0.415,0.753-0.804,1.212-1.143l26.869-19.09
					c2.132-1.575,4.748-1.397,6.721-0.173C167.528,280.839,168.87,283.16,168.368,285.786z"/>
				<path style="fill:#334353;" d="M165.522,279.602c0.148,0.692,0.153,1.424,0.009,2.189c-0.26,1.534-1.108,2.982-2.492,3.953
					l-26.869,19.09c-2.333,1.62-4.828,1.405-6.689,0.2c-0.366-1.604-0.056-3.394,1.239-5.025c0.343-0.415,0.753-0.804,1.212-1.143
					l26.869-19.09C160.933,278.2,163.549,278.378,165.522,279.602z"/>
				<path style="fill:#3E4E60;" d="M156.365,284.156l-19.491,13.84c-1.163,0.826-1.436,2.437-0.61,3.6l0,0
					c0.826,1.163,2.437,1.436,3.6,0.61l19.491-13.84c1.163-0.826,1.436-2.437,0.61-3.6l0,0
					C159.139,283.603,157.528,283.33,156.365,284.156z"/>
			</g>
			<g>
				<path style="fill:#2E3140;" d="M195.83,298.91c0.546,1.456,0.541,3.135-0.168,4.669l-13.633,30.008
					c-2.112,4.499-7.5,4.389-10.144,1.506c-1.123-1.203-1.754-2.907-1.454-4.967c0.088-0.531,0.247-1.074,0.474-1.597l13.634-30.008
					c1.051-2.433,3.403-3.594,5.723-3.527C192.617,295.055,194.944,296.388,195.83,298.91z"/>
				<path style="fill:#334353;" d="M190.261,294.994c0.476,0.524,0.848,1.155,1.108,1.888c0.546,1.457,0.541,3.135-0.168,4.67
					l-13.634,30.008c-1.203,2.573-3.468,3.641-5.683,3.535c-1.123-1.203-1.754-2.907-1.454-4.967
					c0.088-0.531,0.247-1.074,0.474-1.597l13.634-30.008C185.589,296.088,187.941,294.928,190.261,294.994z"/>
				<path style="fill:#3E4E60;" d="M184.634,303.533l-9.895,21.761c-0.59,1.298-0.016,2.829,1.282,3.419l0,0
					c1.298,0.59,2.829,0.016,3.419-1.282l9.895-21.761c0.59-1.298,0.016-2.829-1.282-3.419l0,0
					C186.755,301.662,185.224,302.235,184.634,303.533z"/>
			</g>
		</g>
		<g>
			<g>
				<g>
					<path style="fill:#DD5E26;" d="M364.837,281.706v119.35c0,0.9-0.03,1.8-0.09,2.68c-0.66,9.93-4.96,18.87-11.58,25.48
						c-7.14,7.15-16.993,11.595-27.884,11.669c-22.059,0.15-40.106-18.474-40.106-40.534v-83.175c0-7.738-6.272-14.01-14.01-14.01
						h-65.511c-32.143,0-58.199-26.057-58.199-58.199V125.617c0-11,4.46-20.96,11.67-28.16c6.61-6.62,15.55-10.92,25.48-11.58
						c0.88-0.06,1.78-0.09,2.68-0.09c22,0,39.83,17.83,39.83,39.83v83.88c0,7.737,6.272,14.01,14.01,14.01h65.511
						C338.781,223.507,364.837,249.564,364.837,281.706z"/>
					<path style="fill:#EA792E;" d="M364.837,281.707v119.35c-3.81,0-7.5-0.54-10.99-1.53c-1.43-0.41-2.82-0.9-4.17-1.46
						c-8.49-3.49-15.5-9.84-19.85-17.83c-0.53-0.97-1.02-1.97-1.47-3c-2.15-4.9-3.35-10.32-3.35-16.01v-64.19
						c0-4.02-0.7-7.88-2-11.45c-2.47-6.83-7.08-12.64-13.02-16.6c-5.35-3.57-11.77-5.65-18.68-5.65h-74.35
						c-0.57,0-1.14-0.02-1.7-0.05c-7.94-0.45-15.04-4.01-20.1-9.5c-4.89-5.29-7.87-12.36-7.87-20.12V85.787
						c22,0,39.83,17.83,39.83,39.83v83.88c0,7.74,6.27,14.01,14.01,14.01h65.51C338.777,223.507,364.837,249.567,364.837,281.707z"
						/>
				</g>
				<g>
					<g>
						<path style="fill:#BF5E39;" d="M227.117,125.617v40.02h-79.66v-40.02c0-11,4.46-20.96,11.67-28.16
							c6.59-6.6,15.49-10.89,25.39-11.57c0.91-0.07,1.84-0.1,2.77-0.1C209.288,85.787,227.117,103.617,227.117,125.617z"/>
					</g>
					<path style="fill:#DD5E26;" d="M227.117,125.617v40.02h-39.83v-79.85C209.288,85.787,227.117,103.617,227.117,125.617z"/>
				</g>
			</g>
			<g>
				<g>
					<path style="fill:#334353;" d="M236.197,130.753v5.21c0.031,4.976-4.117,9.049-9.013,9.019c-4.98,0-9.012-4.039-9.012-9.019
						v-5.21C218.591,118.852,235.733,118.775,236.197,130.753z"/>
					<path style="fill:#3E4E60;" d="M236.197,130.753v5.21c-0.011,3.615-2.101,6.758-5.273,8.202
						c-3.11-1.415-5.273-4.556-5.273-8.202v-5.21c0-3.646,2.163-6.781,5.273-8.196C234.034,123.972,236.197,127.107,236.197,130.753
						z"/>
				</g>
				<g>
					<path style="fill:#2E3140;" d="M138.378,135.97v-5.21c-0.031-4.976,4.117-9.049,9.013-9.019c4.98,0,9.012,4.039,9.012,9.019
						v5.21C155.984,147.871,138.842,147.948,138.378,135.97z"/>
					<path style="fill:#334353;" d="M138.378,135.97v-5.21c0.011-3.615,2.101-6.758,5.273-8.202c3.11,1.415,5.273,4.556,5.273,8.202
						v5.21c0,3.646-2.163,6.781-5.273,8.196C140.54,142.751,138.378,139.616,138.378,135.97z"/>
				</g>
			</g>
			<g>
				<g>
					<path style="fill:#EA792E;" d="M228.232,77.22c0,1.559-0.595,3.126-1.792,4.315l-23.304,23.312
						c-5.054,4.949-13.029-1.182-9.643-7.304c0.265-0.474,0.603-0.924,1.004-1.334l23.304-23.312
						C221.502,69.052,228.346,71.902,228.232,77.22z"/>
					<path style="fill:#F39E22;" d="M227.444,74.231c-0.265,0.474-0.603,0.924-1.004,1.326l-23.304,23.312
						c-2.774,2.862-7.751,2.16-9.643-1.326c0.265-0.474,0.603-0.924,1.004-1.334l23.304-23.312
						C220.566,70.049,225.57,70.737,227.444,74.231z"/>
				</g>
				<g>
					<path style="fill:#DD5E26;" d="M180.065,104.847c-2.379,2.387-6.252,2.387-8.638,0l-23.304-23.312
						c-2.411-2.382-2.339-6.33,0-8.638c2.391-2.38,6.256-2.378,8.638,0c0,0,23.304,23.312,23.304,23.312
						C182.397,98.526,182.482,102.455,180.065,104.847z"/>
					<path style="fill:#EA792E;" d="M181.07,97.543c-1.895,3.485-6.867,4.189-9.643,1.326c0,0-23.304-23.311-23.304-23.311
						c-0.402-0.402-0.739-0.852-1.004-1.326c1.877-3.495,6.882-4.182,9.643-1.334c0,0,23.304,23.311,23.304,23.311
						C180.467,96.619,180.805,97.069,181.07,97.543z"/>
				</g>
			</g>
			<g>
				<g>
					<g>
						<path style="fill:#F39E22;" d="M210.471,175.324h-23.183v20.943h23.183c5.783,0,10.471-4.688,10.471-10.471v0
							C220.942,180.012,216.254,175.324,210.471,175.324z"/>
						<path style="fill:#EA792E;" d="M164.104,196.266h23.183v-20.943h-23.183c-5.783,0-10.471,4.688-10.471,10.471v0
							C153.633,191.578,158.321,196.266,164.104,196.266z"/>
					</g>
					<g>
						<path style="fill:#F39E22;" d="M210.471,212.356h-23.183v20.943h23.183c5.783,0,10.471-4.688,10.471-10.471v0
							C220.942,217.044,216.254,212.356,210.471,212.356z"/>
						<path style="fill:#EA792E;" d="M164.104,233.298h23.183v-20.943h-23.183c-5.783,0-10.471,4.688-10.471,10.471v0
							C153.633,228.61,158.321,233.298,164.104,233.298z"/>
					</g>
				</g>
				<g>
					<g>
						<path style="fill:#F39E22;" d="M234.019,240.154v23.183h20.943v-23.183c0-5.783-4.688-10.471-10.471-10.471h0
							C238.707,229.682,234.019,234.37,234.019,240.154z"/>
						<path style="fill:#EA792E;" d="M254.961,286.52v-23.183h-20.943v23.183c0,5.783,4.688,10.471,10.471,10.471h0
							C250.273,296.992,254.961,292.303,254.961,286.52z"/>
					</g>
					<g>
						<path style="fill:#F39E22;" d="M271.05,240.154v23.183h20.943v-23.183c0-5.783-4.688-10.471-10.471-10.471h0
							C275.739,229.682,271.05,234.37,271.05,240.154z"/>
						<path style="fill:#EA792E;" d="M291.993,286.52v-23.183H271.05v23.183c0,5.783,4.688,10.471,10.471,10.471h0
							C287.305,296.992,291.993,292.303,291.993,286.52z"/>
					</g>
				</g>
				<g>
					<g>
						<path style="fill:#EA792E;" d="M348.191,377.238h-46.367c-5.783,0-10.471,4.688-10.471,10.471s4.688,10.471,10.471,10.471
							h46.367c5.783,0,10.471-4.688,10.471-10.471S353.974,377.238,348.191,377.238z"/>
						<path style="fill:#F39E22;" d="M358.657,387.707c0,5.28-3.9,9.64-8.98,10.36c-8.49-3.49-15.5-9.84-19.85-17.83
							c-0.53-0.97-1.02-1.97-1.47-3h19.83C353.977,377.237,358.657,381.927,358.657,387.707z"/>
					</g>
					<g>
						<path style="fill:#F39E22;" d="M348.191,340.206h-23.183v20.943h23.183c5.783,0,10.471-4.688,10.471-10.471v0
							C358.662,344.894,353.974,340.206,348.191,340.206z"/>
						<path style="fill:#EA792E;" d="M301.824,361.149h23.183v-20.943h-23.183c-5.783,0-10.471,4.688-10.471,10.471v0
							C291.353,356.46,296.041,361.149,301.824,361.149z"/>
					</g>
					<g>
						<path style="fill:#F39E22;" d="M348.191,303.174h-23.183v20.943h23.183c5.783,0,10.471-4.688,10.471-10.471v0
							C358.662,307.862,353.974,303.174,348.191,303.174z"/>
						<path style="fill:#EA792E;" d="M301.824,324.117h23.183v-20.943h-23.183c-5.783,0-10.471,4.688-10.471,10.471v0
							C291.353,319.429,296.041,324.117,301.824,324.117z"/>
					</g>
				</g>
				<g>
					<path style="fill:#EA792E;" d="M330.497,248.477l-27.933,27.933c-4.089,4.089-4.09,10.719,0,14.809
						c4.089,4.089,10.719,4.089,14.809,0l27.933-27.933c4.089-4.089,4.09-10.719,0-14.809
						C341.216,244.387,334.586,244.387,330.497,248.477z"/>
					<path style="fill:#F39E22;" d="M345.307,263.287l-22.3,22.3c-2.47-6.83-7.08-12.64-13.02-16.6l20.51-20.51
						c4.09-4.09,10.72-4.09,14.81,0C349.397,252.567,349.397,259.197,345.307,263.287z"/>
				</g>
				<g>
					<path style="fill:#EA792E;" d="M205.313,243.623l-27.231,27.231c-4.089,4.089-4.09,10.719,0,14.809
						c4.089,4.089,10.719,4.089,14.809,0l27.231-27.231c4.089-4.089,4.09-10.719,0-14.809
						C216.033,239.534,209.403,239.534,205.313,243.623z"/>
					<path style="fill:#F39E22;" d="M220.117,258.427l-4.86,4.86c-7.94-0.45-15.04-4.01-20.1-9.5l10.16-10.16
						c4.09-4.09,10.72-4.09,14.8,0C224.207,247.717,224.207,254.347,220.117,258.427z"/>
				</g>
			</g>
		</g>
	</g>
</g>
</svg>
